<svg width="24" height="24" viewBox="0 0 24 24" fill="none" xmlns="http://www.w3.org/2000/svg">
<rect x="0.3" y="0.3" width="23.4" height="23.4" rx="1.7" fill="#FAFAFA" stroke="#F2F2F2" stroke-width="0.6"/>
<path d="M12 12.375C10.415 12.375 9.125 11.085 9.125 9.5C9.125 7.915 10.415 6.625 12 6.625C13.585 6.625 14.875 7.915 14.875 9.5C14.875 11.085 13.585 12.375 12 12.375ZM12 7.375C10.83 7.375 9.875 8.33 9.875 9.5C9.875 10.67 10.83 11.625 12 11.625C13.17 11.625 14.125 10.67 14.125 9.5C14.125 8.33 13.17 7.375 12 7.375Z" fill="#101828"/>
<path d="M16.2931 17.375C16.0881 17.375 15.9181 17.205 15.9181 17C15.9181 15.275 14.1581 13.875 11.9981 13.875C9.83812 13.875 8.07812 15.275 8.07812 17C8.07812 17.205 7.90812 17.375 7.70312 17.375C7.49813 17.375 7.32812 17.205 7.32812 17C7.32812 14.865 9.42312 13.125 11.9981 13.125C14.5731 13.125 16.6681 14.865 16.6681 17C16.6681 17.205 16.4981 17.375 16.2931 17.375Z" fill="#101828"/>
</svg>
