<svg width="1440" height="953" viewBox="0 0 1440 953" fill="none" xmlns="http://www.w3.org/2000/svg">
<rect width="1440" height="952" transform="matrix(1 0 0 -1 0.31543 952.952)" fill="#228B22"/>
<g opacity="0.035">
<g clip-path="url(#clip0_7823_79192)">
<rect y="0.5" width="149.161" height="158.75" fill="#328A28"/>
<circle cx="27.7" cy="133.68" r="123.591" fill="#F2C94C"/>
</g>
<g clip-path="url(#clip1_7823_79192)">
<rect x="149.16" y="0.5" width="149.161" height="158.75" fill="white"/>
<circle cx="270.622" cy="133.68" r="123.591" fill="#F2994A"/>
</g>
<g clip-path="url(#clip2_7823_79192)">
<rect x="298.32" y="0.5" width="149.161" height="158.75" fill="#F2C94C"/>
<ellipse cx="277.946" cy="8.76966" rx="166.278" ry="151.161" transform="rotate(-11.0849 277.946 8.76966)" fill="#0E280B"/>
</g>
<g clip-path="url(#clip3_7823_79192)">
<rect x="447.484" y="0.5" width="149.161" height="158.75" fill="#F2994A"/>
<ellipse cx="591.307" cy="18.7185" rx="141.604" ry="134.291" transform="rotate(46.0164 591.307 18.7185)" fill="#328A28"/>
</g>
<g clip-path="url(#clip4_7823_79192)">
<rect y="318.5" width="149.161" height="158.75" fill="#B6E8B0"/>
<rect x="-131.844" y="449.93" width="146.394" height="247.048" transform="rotate(-53.4235 -131.844 449.93)" fill="#328A28"/>
</g>
<g clip-path="url(#clip5_7823_79192)">
<rect x="149.16" y="318.5" width="149.161" height="158.75" fill="white"/>
<circle cx="223.741" cy="402.67" r="74.5805" fill="#B6E8B0"/>
</g>
<g clip-path="url(#clip6_7823_79192)">
<rect x="298.32" y="318.5" width="149.161" height="158.75" fill="#328A28"/>
<circle cx="249.84" cy="407.465" r="100.684" fill="#F2C94C"/>
</g>
<g clip-path="url(#clip7_7823_79192)">
<rect x="447.484" y="318.5" width="149.161" height="158.75" fill="#F2994A"/>
<ellipse cx="585.983" cy="336.718" rx="141.604" ry="134.291" transform="rotate(46.0164 585.983 336.718)" fill="#F2C94C"/>
</g>
<g clip-path="url(#clip8_7823_79192)">
<rect y="476.5" width="149.161" height="158.75" fill="#B6E8B0"/>
<circle cx="40.4846" cy="522.317" r="34.094" fill="#399F2D"/>
<circle cx="41.6591" cy="523.495" r="9.40523" fill="white"/>
<circle cx="40.4846" cy="590.504" r="34.094" fill="#45C736"/>
<circle cx="41.6591" cy="591.683" r="9.40523" fill="white"/>
<circle cx="108.672" cy="522.317" r="34.094" fill="#1F7216"/>
<circle cx="109.847" cy="523.495" r="9.40523" fill="white"/>
<circle cx="108.672" cy="590.504" r="34.094" fill="#399F2D"/>
<circle cx="109.847" cy="591.683" r="9.40523" fill="white"/>
</g>
<g clip-path="url(#clip9_7823_79192)">
<rect x="149.16" y="476.5" width="149.161" height="158.75" fill="#328A28"/>
<circle cx="176.864" cy="609.68" r="123.591" fill="#F2C94C"/>
</g>
<g clip-path="url(#clip10_7823_79192)">
<rect x="298.32" y="476.5" width="149.161" height="158.75" fill="white"/>
<circle cx="419.778" cy="609.68" r="123.591" fill="#F2994A"/>
</g>
<g clip-path="url(#clip11_7823_79192)">
<rect x="447.484" y="476.5" width="149.161" height="158.75" fill="#F2C94C"/>
<ellipse cx="427.114" cy="484.77" rx="166.278" ry="151.161" transform="rotate(-11.0849 427.114 484.77)" fill="#0E280B"/>
</g>
<g clip-path="url(#clip12_7823_79192)">
<rect x="0.484375" y="634.5" width="149.161" height="158.75" fill="#F2994A"/>
<ellipse cx="138.983" cy="652.718" rx="141.604" ry="134.291" transform="rotate(46.0164 138.983 652.718)" fill="#F2C94C"/>
</g>
<g clip-path="url(#clip13_7823_79192)">
<rect x="149" y="634.5" width="149.161" height="158.75" fill="white"/>
<rect x="147" y="712.5" width="151" height="86" fill="#328A28"/>
</g>
<g clip-path="url(#clip14_7823_79192)">
<rect x="298.484" y="634.5" width="149.161" height="158.75" fill="#F2994A"/>
<ellipse cx="442.307" cy="652.718" rx="141.604" ry="134.291" transform="rotate(46.0164 442.307 652.718)" fill="#328A28"/>
</g>
<g clip-path="url(#clip15_7823_79192)">
<rect x="447.164" y="634.5" width="149.161" height="158.75" fill="#F2C94C"/>
<circle cx="521.745" cy="718.67" r="74.5805" fill="#328A28"/>
</g>
<g clip-path="url(#clip16_7823_79192)">
<rect x="298" y="159.5" width="149.161" height="158.75" fill="#B6E8B0"/>
<circle cx="338.485" cy="205.317" r="34.094" fill="#399F2D"/>
<circle cx="339.659" cy="206.495" r="9.40523" fill="white"/>
<circle cx="338.485" cy="273.504" r="34.094" fill="#45C736"/>
<circle cx="339.659" cy="274.683" r="9.40523" fill="white"/>
<circle cx="406.672" cy="205.317" r="34.094" fill="#1F7216"/>
<circle cx="407.847" cy="206.495" r="9.40523" fill="white"/>
<circle cx="406.672" cy="273.504" r="34.094" fill="#399F2D"/>
<circle cx="407.847" cy="274.683" r="9.40523" fill="white"/>
</g>
<g clip-path="url(#clip17_7823_79192)">
<rect y="159.5" width="149.161" height="158.75" fill="#328A28"/>
<circle cx="-48.4764" cy="248.465" r="100.684" fill="#F2C94C"/>
</g>
<g clip-path="url(#clip18_7823_79192)">
<rect x="447.484" y="159.5" width="149.161" height="158.75" fill="white"/>
<circle cx="568.942" cy="292.68" r="123.591" fill="#F2994A"/>
</g>
<g clip-path="url(#clip19_7823_79192)">
<rect x="149.16" y="159.5" width="149.161" height="158.75" fill="#F2994A"/>
<ellipse cx="287.655" cy="177.718" rx="141.604" ry="134.291" transform="rotate(46.0164 287.655 177.718)" fill="white"/>
</g>
<g clip-path="url(#clip20_7823_79192)">
<rect x="298" y="793.5" width="149.161" height="158.75" fill="#B6E8B0"/>
<circle cx="338.485" cy="839.317" r="34.094" fill="#399F2D"/>
<circle cx="339.659" cy="840.495" r="9.40523" fill="white"/>
<circle cx="338.485" cy="907.504" r="34.094" fill="#45C736"/>
<circle cx="339.659" cy="908.683" r="9.40523" fill="white"/>
<circle cx="406.672" cy="839.317" r="34.094" fill="#1F7216"/>
<circle cx="407.847" cy="840.495" r="9.40523" fill="white"/>
<circle cx="406.672" cy="907.504" r="34.094" fill="#399F2D"/>
<circle cx="407.847" cy="908.683" r="9.40523" fill="white"/>
</g>
<g clip-path="url(#clip21_7823_79192)">
<rect y="793.5" width="149.161" height="158.75" fill="#328A28"/>
<circle cx="-48.4764" cy="882.465" r="100.684" fill="#F2C94C"/>
</g>
<g clip-path="url(#clip22_7823_79192)">
<rect x="447.484" y="793.5" width="149.161" height="158.75" fill="white"/>
<circle cx="568.942" cy="926.68" r="123.591" fill="#F2994A"/>
</g>
<g clip-path="url(#clip23_7823_79192)">
<rect x="149.16" y="793.5" width="149.161" height="158.75" fill="#F2994A"/>
<ellipse cx="287.655" cy="811.718" rx="141.604" ry="134.291" transform="rotate(46.0164 287.655 811.718)" fill="white"/>
</g>
<g clip-path="url(#clip24_7823_79192)">
<rect x="588" y="0.5" width="149.161" height="158.75" fill="#328A28"/>
<circle cx="615.7" cy="133.68" r="123.591" fill="#F2C94C"/>
</g>
<g clip-path="url(#clip25_7823_79192)">
<rect x="737.16" y="0.5" width="149.161" height="158.75" fill="white"/>
<circle cx="858.622" cy="133.68" r="123.591" fill="#F2994A"/>
</g>
<g clip-path="url(#clip26_7823_79192)">
<rect x="886.32" y="0.5" width="149.161" height="158.75" fill="#F2C94C"/>
<ellipse cx="865.946" cy="8.76966" rx="166.278" ry="151.161" transform="rotate(-11.0849 865.946 8.76966)" fill="#0E280B"/>
</g>
<g clip-path="url(#clip27_7823_79192)">
<rect x="1035.48" y="0.5" width="149.161" height="158.75" fill="#F2994A"/>
<ellipse cx="1179.31" cy="18.7185" rx="141.604" ry="134.291" transform="rotate(46.0164 1179.31 18.7185)" fill="#328A28"/>
</g>
<g clip-path="url(#clip28_7823_79192)">
<rect x="588" y="318.5" width="149.161" height="158.75" fill="#B6E8B0"/>
<rect x="456.156" y="449.93" width="146.394" height="247.048" transform="rotate(-53.4235 456.156 449.93)" fill="#328A28"/>
</g>
<g clip-path="url(#clip29_7823_79192)">
<rect x="737.16" y="318.5" width="149.161" height="158.75" fill="white"/>
<circle cx="811.741" cy="402.67" r="74.5805" fill="#B6E8B0"/>
</g>
<g clip-path="url(#clip30_7823_79192)">
<rect x="886.32" y="318.5" width="149.161" height="158.75" fill="#328A28"/>
<circle cx="837.84" cy="407.465" r="100.684" fill="#F2C94C"/>
</g>
<g clip-path="url(#clip31_7823_79192)">
<rect x="1035.48" y="318.5" width="149.161" height="158.75" fill="#F2994A"/>
<ellipse cx="1173.98" cy="336.718" rx="141.604" ry="134.291" transform="rotate(46.0164 1173.98 336.718)" fill="#F2C94C"/>
</g>
<g clip-path="url(#clip32_7823_79192)">
<rect x="588" y="476.5" width="149.161" height="158.75" fill="#B6E8B0"/>
<circle cx="628.485" cy="522.317" r="34.094" fill="#399F2D"/>
<circle cx="629.659" cy="523.495" r="9.40523" fill="white"/>
<circle cx="628.485" cy="590.504" r="34.094" fill="#45C736"/>
<circle cx="629.659" cy="591.683" r="9.40523" fill="white"/>
<circle cx="696.672" cy="522.317" r="34.094" fill="#1F7216"/>
<circle cx="697.847" cy="523.495" r="9.40523" fill="white"/>
<circle cx="696.672" cy="590.504" r="34.094" fill="#399F2D"/>
<circle cx="697.847" cy="591.683" r="9.40523" fill="white"/>
</g>
<g clip-path="url(#clip33_7823_79192)">
<rect x="737.16" y="476.5" width="149.161" height="158.75" fill="#328A28"/>
<circle cx="764.864" cy="609.68" r="123.591" fill="#F2C94C"/>
</g>
<g clip-path="url(#clip34_7823_79192)">
<rect x="886.32" y="476.5" width="149.161" height="158.75" fill="white"/>
<circle cx="1007.78" cy="609.68" r="123.591" fill="#F2994A"/>
</g>
<g clip-path="url(#clip35_7823_79192)">
<rect x="1035.48" y="476.5" width="149.161" height="158.75" fill="#F2C94C"/>
<ellipse cx="1015.11" cy="484.77" rx="166.278" ry="151.161" transform="rotate(-11.0849 1015.11 484.77)" fill="#0E280B"/>
</g>
<g clip-path="url(#clip36_7823_79192)">
<rect x="588.484" y="634.5" width="149.161" height="158.75" fill="#F2994A"/>
<ellipse cx="726.983" cy="652.718" rx="141.604" ry="134.291" transform="rotate(46.0164 726.983 652.718)" fill="#F2C94C"/>
</g>
<g clip-path="url(#clip37_7823_79192)">
<rect x="737" y="634.5" width="149.161" height="158.75" fill="white"/>
<rect x="735" y="712.5" width="151" height="86" fill="#328A28"/>
</g>
<g clip-path="url(#clip38_7823_79192)">
<rect x="886.484" y="634.5" width="149.161" height="158.75" fill="#F2994A"/>
<ellipse cx="1030.31" cy="652.718" rx="141.604" ry="134.291" transform="rotate(46.0164 1030.31 652.718)" fill="#328A28"/>
</g>
<g clip-path="url(#clip39_7823_79192)">
<rect x="1035.16" y="634.5" width="149.161" height="158.75" fill="#F2C94C"/>
<circle cx="1109.74" cy="718.67" r="74.5805" fill="#328A28"/>
</g>
<g clip-path="url(#clip40_7823_79192)">
<rect x="886" y="159.5" width="149.161" height="158.75" fill="#B6E8B0"/>
<circle cx="926.485" cy="205.317" r="34.094" fill="#399F2D"/>
<circle cx="927.659" cy="206.495" r="9.40523" fill="white"/>
<circle cx="926.485" cy="273.504" r="34.094" fill="#45C736"/>
<circle cx="927.659" cy="274.683" r="9.40523" fill="white"/>
<circle cx="994.672" cy="205.317" r="34.094" fill="#1F7216"/>
<circle cx="995.847" cy="206.495" r="9.40523" fill="white"/>
<circle cx="994.672" cy="273.504" r="34.094" fill="#399F2D"/>
<circle cx="995.847" cy="274.683" r="9.40523" fill="white"/>
</g>
<g clip-path="url(#clip41_7823_79192)">
<rect x="588" y="159.5" width="149.161" height="158.75" fill="#328A28"/>
<circle cx="539.524" cy="248.465" r="100.684" fill="#F2C94C"/>
</g>
<g clip-path="url(#clip42_7823_79192)">
<rect x="1035.48" y="159.5" width="149.161" height="158.75" fill="white"/>
<circle cx="1156.94" cy="292.68" r="123.591" fill="#F2994A"/>
</g>
<g clip-path="url(#clip43_7823_79192)">
<rect x="737.16" y="159.5" width="149.161" height="158.75" fill="#F2994A"/>
<ellipse cx="875.655" cy="177.718" rx="141.604" ry="134.291" transform="rotate(46.0164 875.655 177.718)" fill="white"/>
</g>
<g clip-path="url(#clip44_7823_79192)">
<rect x="886" y="793.5" width="149.161" height="158.75" fill="#B6E8B0"/>
<circle cx="926.485" cy="839.317" r="34.094" fill="#399F2D"/>
<circle cx="927.659" cy="840.495" r="9.40523" fill="white"/>
<circle cx="926.485" cy="907.504" r="34.094" fill="#45C736"/>
<circle cx="927.659" cy="908.683" r="9.40523" fill="white"/>
<circle cx="994.672" cy="839.317" r="34.094" fill="#1F7216"/>
<circle cx="995.847" cy="840.495" r="9.40523" fill="white"/>
<circle cx="994.672" cy="907.504" r="34.094" fill="#399F2D"/>
<circle cx="995.847" cy="908.683" r="9.40523" fill="white"/>
</g>
<g clip-path="url(#clip45_7823_79192)">
<rect x="588" y="793.5" width="149.161" height="158.75" fill="#328A28"/>
<circle cx="539.524" cy="882.465" r="100.684" fill="#F2C94C"/>
</g>
<g clip-path="url(#clip46_7823_79192)">
<rect x="1035.48" y="793.5" width="149.161" height="158.75" fill="white"/>
<circle cx="1156.94" cy="926.68" r="123.591" fill="#F2994A"/>
</g>
<g clip-path="url(#clip47_7823_79192)">
<rect x="737.16" y="793.5" width="149.161" height="158.75" fill="#F2994A"/>
<ellipse cx="875.655" cy="811.718" rx="141.604" ry="134.291" transform="rotate(46.0164 875.655 811.718)" fill="white"/>
</g>
<g clip-path="url(#clip48_7823_79192)">
<rect x="1176" y="0.5" width="149.161" height="158.75" fill="#328A28"/>
<circle cx="1203.7" cy="133.68" r="123.591" fill="#F2C94C"/>
</g>
<g clip-path="url(#clip49_7823_79192)">
<rect x="1325.16" y="0.5" width="149.161" height="158.75" fill="white"/>
<circle cx="1446.62" cy="133.68" r="123.591" fill="#F2994A"/>
</g>
<g clip-path="url(#clip50_7823_79192)">
<rect x="1176" y="318.5" width="149.161" height="158.75" fill="#B6E8B0"/>
<rect x="1044.16" y="449.93" width="146.394" height="247.048" transform="rotate(-53.4235 1044.16 449.93)" fill="#328A28"/>
</g>
<g clip-path="url(#clip51_7823_79192)">
<rect x="1325.16" y="318.5" width="149.161" height="158.75" fill="white"/>
<circle cx="1399.74" cy="402.67" r="74.5805" fill="#B6E8B0"/>
</g>
<g clip-path="url(#clip52_7823_79192)">
<rect x="1176" y="476.5" width="149.161" height="158.75" fill="#B6E8B0"/>
<circle cx="1216.48" cy="522.317" r="34.094" fill="#399F2D"/>
<circle cx="1217.66" cy="523.495" r="9.40523" fill="white"/>
<circle cx="1216.48" cy="590.504" r="34.094" fill="#45C736"/>
<circle cx="1217.66" cy="591.683" r="9.40523" fill="white"/>
<circle cx="1284.67" cy="522.317" r="34.094" fill="#1F7216"/>
<circle cx="1285.85" cy="523.495" r="9.40523" fill="white"/>
<circle cx="1284.67" cy="590.504" r="34.094" fill="#399F2D"/>
<circle cx="1285.85" cy="591.683" r="9.40523" fill="white"/>
</g>
<g clip-path="url(#clip53_7823_79192)">
<rect x="1325.16" y="476.5" width="149.161" height="158.75" fill="#328A28"/>
<circle cx="1352.86" cy="609.68" r="123.591" fill="#F2C94C"/>
</g>
<g clip-path="url(#clip54_7823_79192)">
<rect x="1176.48" y="634.5" width="149.161" height="158.75" fill="#F2994A"/>
<ellipse cx="1314.98" cy="652.718" rx="141.604" ry="134.291" transform="rotate(46.0164 1314.98 652.718)" fill="#F2C94C"/>
</g>
<g clip-path="url(#clip55_7823_79192)">
<rect x="1325" y="634.5" width="149.161" height="158.75" fill="white"/>
<rect x="1323" y="712.5" width="151" height="86" fill="#328A28"/>
</g>
<g clip-path="url(#clip56_7823_79192)">
<rect x="1176" y="159.5" width="149.161" height="158.75" fill="#328A28"/>
<circle cx="1127.52" cy="248.465" r="100.684" fill="#F2C94C"/>
</g>
<g clip-path="url(#clip57_7823_79192)">
<rect x="1325.16" y="159.5" width="149.161" height="158.75" fill="#F2994A"/>
<ellipse cx="1463.66" cy="177.718" rx="141.604" ry="134.291" transform="rotate(46.0164 1463.66 177.718)" fill="white"/>
</g>
<g clip-path="url(#clip58_7823_79192)">
<rect x="1176" y="793.5" width="149.161" height="158.75" fill="#328A28"/>
<circle cx="1127.52" cy="882.465" r="100.684" fill="#F2C94C"/>
</g>
<g clip-path="url(#clip59_7823_79192)">
<rect x="1325.16" y="793.5" width="149.161" height="158.75" fill="#F2994A"/>
<ellipse cx="1463.66" cy="811.718" rx="141.604" ry="134.291" transform="rotate(46.0164 1463.66 811.718)" fill="white"/>
</g>
</g>
<defs>
<clipPath id="clip0_7823_79192">
<rect width="149.161" height="158.75" fill="white" transform="translate(0 0.5)"/>
</clipPath>
<clipPath id="clip1_7823_79192">
<rect width="149.161" height="158.75" fill="white" transform="translate(149.16 0.5)"/>
</clipPath>
<clipPath id="clip2_7823_79192">
<rect width="149.161" height="158.75" fill="white" transform="translate(298.32 0.5)"/>
</clipPath>
<clipPath id="clip3_7823_79192">
<rect width="149.161" height="158.75" fill="white" transform="translate(447.484 0.5)"/>
</clipPath>
<clipPath id="clip4_7823_79192">
<rect width="149.161" height="158.75" fill="white" transform="translate(0 318.5)"/>
</clipPath>
<clipPath id="clip5_7823_79192">
<rect width="149.161" height="158.75" fill="white" transform="translate(149.16 318.5)"/>
</clipPath>
<clipPath id="clip6_7823_79192">
<rect width="149.161" height="158.75" fill="white" transform="translate(298.32 318.5)"/>
</clipPath>
<clipPath id="clip7_7823_79192">
<rect width="149.161" height="158.75" fill="white" transform="translate(447.484 318.5)"/>
</clipPath>
<clipPath id="clip8_7823_79192">
<rect width="149.161" height="158.75" fill="white" transform="translate(0 476.5)"/>
</clipPath>
<clipPath id="clip9_7823_79192">
<rect width="149.161" height="158.75" fill="white" transform="translate(149.16 476.5)"/>
</clipPath>
<clipPath id="clip10_7823_79192">
<rect width="149.161" height="158.75" fill="white" transform="translate(298.32 476.5)"/>
</clipPath>
<clipPath id="clip11_7823_79192">
<rect width="149.161" height="158.75" fill="white" transform="translate(447.484 476.5)"/>
</clipPath>
<clipPath id="clip12_7823_79192">
<rect width="149.161" height="158.75" fill="white" transform="translate(0.484375 634.5)"/>
</clipPath>
<clipPath id="clip13_7823_79192">
<rect width="149.161" height="158.75" fill="white" transform="translate(149 634.5)"/>
</clipPath>
<clipPath id="clip14_7823_79192">
<rect width="149.161" height="158.75" fill="white" transform="translate(298.484 634.5)"/>
</clipPath>
<clipPath id="clip15_7823_79192">
<rect width="149.161" height="158.75" fill="white" transform="translate(447.164 634.5)"/>
</clipPath>
<clipPath id="clip16_7823_79192">
<rect width="149.161" height="158.75" fill="white" transform="translate(298 159.5)"/>
</clipPath>
<clipPath id="clip17_7823_79192">
<rect width="149.161" height="158.75" fill="white" transform="translate(0 159.5)"/>
</clipPath>
<clipPath id="clip18_7823_79192">
<rect width="149.161" height="158.75" fill="white" transform="translate(447.484 159.5)"/>
</clipPath>
<clipPath id="clip19_7823_79192">
<rect width="149.161" height="158.75" fill="white" transform="translate(149.16 159.5)"/>
</clipPath>
<clipPath id="clip20_7823_79192">
<rect width="149.161" height="158.75" fill="white" transform="translate(298 793.5)"/>
</clipPath>
<clipPath id="clip21_7823_79192">
<rect width="149.161" height="158.75" fill="white" transform="translate(0 793.5)"/>
</clipPath>
<clipPath id="clip22_7823_79192">
<rect width="149.161" height="158.75" fill="white" transform="translate(447.484 793.5)"/>
</clipPath>
<clipPath id="clip23_7823_79192">
<rect width="149.161" height="158.75" fill="white" transform="translate(149.16 793.5)"/>
</clipPath>
<clipPath id="clip24_7823_79192">
<rect width="149.161" height="158.75" fill="white" transform="translate(588 0.5)"/>
</clipPath>
<clipPath id="clip25_7823_79192">
<rect width="149.161" height="158.75" fill="white" transform="translate(737.16 0.5)"/>
</clipPath>
<clipPath id="clip26_7823_79192">
<rect width="149.161" height="158.75" fill="white" transform="translate(886.32 0.5)"/>
</clipPath>
<clipPath id="clip27_7823_79192">
<rect width="149.161" height="158.75" fill="white" transform="translate(1035.48 0.5)"/>
</clipPath>
<clipPath id="clip28_7823_79192">
<rect width="149.161" height="158.75" fill="white" transform="translate(588 318.5)"/>
</clipPath>
<clipPath id="clip29_7823_79192">
<rect width="149.161" height="158.75" fill="white" transform="translate(737.16 318.5)"/>
</clipPath>
<clipPath id="clip30_7823_79192">
<rect width="149.161" height="158.75" fill="white" transform="translate(886.32 318.5)"/>
</clipPath>
<clipPath id="clip31_7823_79192">
<rect width="149.161" height="158.75" fill="white" transform="translate(1035.48 318.5)"/>
</clipPath>
<clipPath id="clip32_7823_79192">
<rect width="149.161" height="158.75" fill="white" transform="translate(588 476.5)"/>
</clipPath>
<clipPath id="clip33_7823_79192">
<rect width="149.161" height="158.75" fill="white" transform="translate(737.16 476.5)"/>
</clipPath>
<clipPath id="clip34_7823_79192">
<rect width="149.161" height="158.75" fill="white" transform="translate(886.32 476.5)"/>
</clipPath>
<clipPath id="clip35_7823_79192">
<rect width="149.161" height="158.75" fill="white" transform="translate(1035.48 476.5)"/>
</clipPath>
<clipPath id="clip36_7823_79192">
<rect width="149.161" height="158.75" fill="white" transform="translate(588.484 634.5)"/>
</clipPath>
<clipPath id="clip37_7823_79192">
<rect width="149.161" height="158.75" fill="white" transform="translate(737 634.5)"/>
</clipPath>
<clipPath id="clip38_7823_79192">
<rect width="149.161" height="158.75" fill="white" transform="translate(886.484 634.5)"/>
</clipPath>
<clipPath id="clip39_7823_79192">
<rect width="149.161" height="158.75" fill="white" transform="translate(1035.16 634.5)"/>
</clipPath>
<clipPath id="clip40_7823_79192">
<rect width="149.161" height="158.75" fill="white" transform="translate(886 159.5)"/>
</clipPath>
<clipPath id="clip41_7823_79192">
<rect width="149.161" height="158.75" fill="white" transform="translate(588 159.5)"/>
</clipPath>
<clipPath id="clip42_7823_79192">
<rect width="149.161" height="158.75" fill="white" transform="translate(1035.48 159.5)"/>
</clipPath>
<clipPath id="clip43_7823_79192">
<rect width="149.161" height="158.75" fill="white" transform="translate(737.16 159.5)"/>
</clipPath>
<clipPath id="clip44_7823_79192">
<rect width="149.161" height="158.75" fill="white" transform="translate(886 793.5)"/>
</clipPath>
<clipPath id="clip45_7823_79192">
<rect width="149.161" height="158.75" fill="white" transform="translate(588 793.5)"/>
</clipPath>
<clipPath id="clip46_7823_79192">
<rect width="149.161" height="158.75" fill="white" transform="translate(1035.48 793.5)"/>
</clipPath>
<clipPath id="clip47_7823_79192">
<rect width="149.161" height="158.75" fill="white" transform="translate(737.16 793.5)"/>
</clipPath>
<clipPath id="clip48_7823_79192">
<rect width="149.161" height="158.75" fill="white" transform="translate(1176 0.5)"/>
</clipPath>
<clipPath id="clip49_7823_79192">
<rect width="149.161" height="158.75" fill="white" transform="translate(1325.16 0.5)"/>
</clipPath>
<clipPath id="clip50_7823_79192">
<rect width="149.161" height="158.75" fill="white" transform="translate(1176 318.5)"/>
</clipPath>
<clipPath id="clip51_7823_79192">
<rect width="149.161" height="158.75" fill="white" transform="translate(1325.16 318.5)"/>
</clipPath>
<clipPath id="clip52_7823_79192">
<rect width="149.161" height="158.75" fill="white" transform="translate(1176 476.5)"/>
</clipPath>
<clipPath id="clip53_7823_79192">
<rect width="149.161" height="158.75" fill="white" transform="translate(1325.16 476.5)"/>
</clipPath>
<clipPath id="clip54_7823_79192">
<rect width="149.161" height="158.75" fill="white" transform="translate(1176.48 634.5)"/>
</clipPath>
<clipPath id="clip55_7823_79192">
<rect width="149.161" height="158.75" fill="white" transform="translate(1325 634.5)"/>
</clipPath>
<clipPath id="clip56_7823_79192">
<rect width="149.161" height="158.75" fill="white" transform="translate(1176 159.5)"/>
</clipPath>
<clipPath id="clip57_7823_79192">
<rect width="149.161" height="158.75" fill="white" transform="translate(1325.16 159.5)"/>
</clipPath>
<clipPath id="clip58_7823_79192">
<rect width="149.161" height="158.75" fill="white" transform="translate(1176 793.5)"/>
</clipPath>
<clipPath id="clip59_7823_79192">
<rect width="149.161" height="158.75" fill="white" transform="translate(1325.16 793.5)"/>
</clipPath>
</defs>
</svg>
