<svg width="30" height="30" viewBox="0 0 30 30" fill="none" xmlns="http://www.w3.org/2000/svg">
<circle cx="15" cy="15" r="15" fill="#FAFAFA"/>
<path d="M12.1875 17.3438V8.90625L13.125 9.375L14.0625 8.90625L14.9982 9.375L15.9466 8.90625L16.875 9.375L17.8063 8.90625L18.7418 9.375L19.6875 8.90625L20.6253 9.375L21.5625 8.90625V15.4688" stroke="#FF823B" stroke-width="0.9375" stroke-linejoin="round"/>
<path d="M21.5625 15.4688V18.75C21.5625 19.3716 21.3156 19.9677 20.876 20.4073C20.4365 20.8468 19.8404 21.0938 19.2188 21.0938M19.2188 21.0938C18.5972 21.0938 18.001 20.8468 17.5615 20.4073C17.1219 19.9677 16.875 19.3716 16.875 18.75V17.3438H8.90627C8.84456 17.3432 8.78336 17.355 8.72624 17.3783C8.66912 17.4017 8.61723 17.4362 8.57359 17.4798C8.52996 17.5235 8.49545 17.5754 8.47209 17.6325C8.44872 17.6896 8.43697 17.7508 8.43752 17.8125C8.43752 19.6875 8.63498 21.0938 10.7813 21.0938H19.2188Z" stroke="#FF823B" stroke-width="0.9375" stroke-linejoin="round"/>
<path d="M14.0625 11.7188H19.6875M15.9375 14.0625H19.6875" stroke="#FF823B" stroke-width="0.9375" stroke-linecap="round" stroke-linejoin="round"/>
</svg>
