<svg width="657" height="313" viewBox="0 0 657 313" fill="none" xmlns="http://www.w3.org/2000/svg">
<g clip-path="url(#clip0_4657_48405)">
<path d="M0 16.9753C0 7.87623 8.68336 0.5 19.3948 0.5H637.605C648.317 0.5 657 7.87622 657 16.9752V296.025C657 305.124 648.317 312.5 637.605 312.5H19.3948C8.68335 312.5 0 305.124 0 296.025V16.9753Z" fill="white"/>
<path d="M78.9913 291.764V288.553H79.7255V291.78C79.7255 292.035 79.6847 292.272 79.6031 292.491C79.5267 292.71 79.4119 292.904 79.259 293.072C79.1061 293.235 78.9149 293.363 78.6855 293.454C78.4611 293.546 78.2011 293.592 77.9054 293.592C77.6607 293.592 77.4288 293.559 77.2095 293.493C76.9954 293.421 76.8042 293.319 76.636 293.187C76.4677 293.049 76.3326 292.881 76.2307 292.682C76.1338 292.483 76.0803 292.256 76.0701 292.001H76.7507C76.8017 292.307 76.9317 292.539 77.1407 292.697C77.3497 292.85 77.6046 292.927 77.9054 292.927C78.1603 292.927 78.3668 292.876 78.5249 292.774C78.6829 292.672 78.8002 292.534 78.8766 292.361C78.9531 292.188 78.9913 291.989 78.9913 291.764ZM81.9059 292.284V291.627H84.5672V292.284H81.9059ZM80.8276 293.516L82.8542 288.553H83.6342L85.676 293.516H84.8807L83.1065 289.034H83.3818L81.6153 293.516H80.8276ZM91.0052 292.705L90.7911 292.781V288.553H91.5329V293.516H90.7911L87.3269 289.378L87.541 289.302V293.516H86.8069V288.553H87.541L91.0052 292.705Z" fill="#B5BBC5"/>
<path d="M128.406 288.553V289.21H125.217V290.755H127.825V291.397H125.217V293.516H124.483V288.553H128.406ZM130.334 291.367V292.858H133.531V293.516H129.6V288.553H133.523V289.21H130.334V290.724H132.942V291.367H130.334ZM134.979 293.516V288.553H137.212C137.772 288.553 138.206 288.667 138.512 288.897C138.818 289.126 138.971 289.455 138.971 289.883C138.971 290.148 138.912 290.362 138.795 290.526C138.682 290.689 138.522 290.811 138.313 290.893C138.104 290.969 137.859 291.02 137.579 291.046L137.594 290.992C137.803 291.002 137.999 291.025 138.183 291.061C138.371 291.097 138.535 291.155 138.672 291.237C138.815 291.318 138.927 291.43 139.009 291.573C139.095 291.716 139.139 291.902 139.139 292.131C139.139 292.432 139.067 292.685 138.925 292.889C138.782 293.087 138.583 293.238 138.328 293.34C138.078 293.442 137.788 293.5 137.456 293.516H134.979ZM135.713 292.858H137.319C137.655 292.858 137.918 292.797 138.106 292.674C138.295 292.552 138.389 292.358 138.389 292.093C138.389 291.889 138.331 291.736 138.213 291.634C138.096 291.532 137.943 291.466 137.755 291.436C137.571 291.405 137.38 291.39 137.181 291.39H135.713V292.858ZM135.713 290.74H137.15C137.487 290.74 137.749 290.673 137.938 290.541C138.127 290.403 138.221 290.204 138.221 289.944C138.221 289.679 138.127 289.491 137.938 289.378C137.749 289.266 137.51 289.21 137.219 289.21H135.713V290.74Z" fill="#B5BBC5"/>
<path d="M174.657 293.103H174.343L176.783 288.553H177.517V293.516H176.783V289.707L176.943 289.746L174.886 293.516H174.114L172.057 289.753L172.217 289.715V293.516H171.483V288.553H172.217L174.657 293.103ZM179.729 292.284V291.627H182.39V292.284H179.729ZM178.651 293.516L180.677 288.553H181.457L183.499 293.516H182.704L180.929 289.034H181.205L179.438 293.516H178.651ZM184.63 293.516V288.553H187.184C187.541 288.553 187.847 288.606 188.102 288.713C188.362 288.815 188.56 288.973 188.698 289.187C188.836 289.396 188.905 289.664 188.905 289.99C188.905 290.215 188.866 290.406 188.79 290.564C188.719 290.717 188.619 290.844 188.492 290.946C188.364 291.048 188.214 291.127 188.04 291.183C187.867 291.239 187.681 291.275 187.482 291.29L187.429 291.244C187.729 291.255 187.982 291.288 188.186 291.344C188.39 291.4 188.545 291.502 188.652 291.65C188.764 291.792 188.82 292.007 188.82 292.292V293.516H188.079V292.315C188.079 292.116 188.046 291.961 187.979 291.849C187.913 291.736 187.798 291.657 187.635 291.611C187.472 291.566 187.243 291.543 186.947 291.543H185.364V293.516H184.63ZM185.364 290.9H187.184C187.51 290.9 187.755 290.819 187.918 290.656C188.086 290.492 188.17 290.278 188.17 290.013C188.17 289.758 188.086 289.562 187.918 289.424C187.755 289.287 187.51 289.218 187.184 289.218H185.364V290.9Z" fill="#B5BBC5"/>
<path d="M222.102 292.284V291.627H224.764V292.284H222.102ZM221.024 293.516L223.051 288.553H223.831L225.873 293.516H225.077L223.303 289.034H223.578L221.812 293.516H221.024ZM227.6 291.803V291.16H229.382C229.677 291.16 229.914 291.071 230.093 290.893C230.276 290.714 230.368 290.48 230.368 290.189C230.368 289.888 230.276 289.651 230.093 289.478C229.914 289.305 229.677 289.218 229.382 289.218H227.722V293.516H226.988V288.553H229.351C229.596 288.553 229.823 288.588 230.032 288.66C230.246 288.726 230.432 288.828 230.59 288.965C230.753 289.103 230.878 289.274 230.965 289.478C231.056 289.682 231.102 289.919 231.102 290.189C231.102 290.454 231.056 290.689 230.965 290.893C230.878 291.097 230.753 291.267 230.59 291.405C230.432 291.538 230.246 291.637 230.032 291.703C229.823 291.769 229.596 291.803 229.351 291.803H227.6ZM232.442 293.516V288.553H234.996C235.353 288.553 235.659 288.606 235.914 288.713C236.174 288.815 236.372 288.973 236.51 289.187C236.648 289.396 236.716 289.664 236.716 289.99C236.716 290.215 236.678 290.406 236.602 290.564C236.53 290.717 236.431 290.844 236.304 290.946C236.176 291.048 236.026 291.127 235.852 291.183C235.679 291.239 235.493 291.275 235.294 291.29L235.241 291.244C235.541 291.255 235.794 291.288 235.998 291.344C236.202 291.4 236.357 291.502 236.464 291.65C236.576 291.792 236.632 292.007 236.632 292.292V293.516H235.891V292.315C235.891 292.116 235.857 291.961 235.791 291.849C235.725 291.736 235.61 291.657 235.447 291.611C235.284 291.566 235.054 291.543 234.759 291.543H233.176V293.516H232.442ZM233.176 290.9H234.996C235.322 290.9 235.567 290.819 235.73 290.656C235.898 290.492 235.982 290.278 235.982 290.013C235.982 289.758 235.898 289.562 235.73 289.424C235.567 289.287 235.322 289.218 234.996 289.218H233.176V290.9Z" fill="#B5BBC5"/>
<path d="M272.657 293.103H272.343L274.783 288.553H275.517V293.516H274.783V289.707L274.943 289.746L272.886 293.516H272.114L270.057 289.753L270.217 289.715V293.516H269.483V288.553H270.217L272.657 293.103ZM277.729 292.284V291.627H280.39V292.284H277.729ZM276.651 293.516L278.677 288.553H279.457L281.499 293.516H280.704L278.929 289.034H279.205L277.438 293.516H276.651ZM286.176 288.553L284.287 291.856V293.516H283.553V291.856L281.664 288.553H282.505L284.111 291.451H283.759L285.335 288.553H286.176Z" fill="#B5BBC5"/>
<path d="M321.991 291.764V288.553H322.725V291.78C322.725 292.035 322.685 292.272 322.603 292.491C322.527 292.71 322.412 292.904 322.259 293.072C322.106 293.235 321.915 293.363 321.685 293.454C321.461 293.546 321.201 293.592 320.905 293.592C320.661 293.592 320.429 293.559 320.21 293.493C319.995 293.421 319.804 293.319 319.636 293.187C319.468 293.049 319.333 292.881 319.231 292.682C319.134 292.483 319.08 292.256 319.07 292.001H319.751C319.802 292.307 319.932 292.539 320.141 292.697C320.35 292.85 320.605 292.927 320.905 292.927C321.16 292.927 321.367 292.876 321.525 292.774C321.683 292.672 321.8 292.534 321.877 292.361C321.953 292.188 321.991 291.989 321.991 291.764ZM328.125 291.52V288.553H328.859V291.55C328.859 291.846 328.821 292.106 328.744 292.33C328.673 292.555 328.568 292.748 328.431 292.911C328.293 293.075 328.13 293.207 327.941 293.309C327.758 293.406 327.551 293.477 327.322 293.523C327.097 293.574 326.858 293.6 326.603 293.6C326.338 293.6 326.091 293.574 325.861 293.523C325.632 293.477 325.42 293.406 325.226 293.309C325.038 293.207 324.875 293.075 324.737 292.911C324.604 292.748 324.5 292.555 324.423 292.33C324.352 292.106 324.316 291.846 324.316 291.55V288.553H325.05V291.52C325.05 291.902 325.119 292.195 325.257 292.399C325.4 292.603 325.588 292.743 325.823 292.82C326.057 292.896 326.317 292.934 326.603 292.934C326.878 292.934 327.131 292.896 327.36 292.82C327.589 292.743 327.773 292.603 327.911 292.399C328.053 292.195 328.125 291.902 328.125 291.52ZM334.647 292.705L334.433 292.781V288.553H335.175V293.516H334.433L330.969 289.378L331.183 289.302V293.516H330.449V288.553H331.183L334.647 292.705Z" fill="#B5BBC5"/>
<path d="M369.991 291.764V288.553H370.725V291.78C370.725 292.035 370.685 292.272 370.603 292.491C370.527 292.71 370.412 292.904 370.259 293.072C370.106 293.235 369.915 293.363 369.685 293.454C369.461 293.546 369.201 293.592 368.905 293.592C368.661 293.592 368.429 293.559 368.21 293.493C367.995 293.421 367.804 293.319 367.636 293.187C367.468 293.049 367.333 292.881 367.231 292.682C367.134 292.483 367.08 292.256 367.07 292.001H367.751C367.802 292.307 367.932 292.539 368.141 292.697C368.35 292.85 368.605 292.927 368.905 292.927C369.16 292.927 369.367 292.876 369.525 292.774C369.683 292.672 369.8 292.534 369.877 292.361C369.953 292.188 369.991 291.989 369.991 291.764ZM376.125 291.52V288.553H376.859V291.55C376.859 291.846 376.821 292.106 376.744 292.33C376.673 292.555 376.568 292.748 376.431 292.911C376.293 293.075 376.13 293.207 375.941 293.309C375.758 293.406 375.551 293.477 375.322 293.523C375.097 293.574 374.858 293.6 374.603 293.6C374.338 293.6 374.091 293.574 373.861 293.523C373.632 293.477 373.42 293.406 373.226 293.309C373.038 293.207 372.875 293.075 372.737 292.911C372.604 292.748 372.5 292.555 372.423 292.33C372.352 292.106 372.316 291.846 372.316 291.55V288.553H373.05V291.52C373.05 291.902 373.119 292.195 373.257 292.399C373.4 292.603 373.588 292.743 373.823 292.82C374.057 292.896 374.317 292.934 374.603 292.934C374.878 292.934 375.131 292.896 375.36 292.82C375.589 292.743 375.773 292.603 375.911 292.399C376.053 292.195 376.125 291.902 376.125 291.52ZM379.183 288.553V292.858H382.105V293.516H378.449V288.553H379.183Z" fill="#B5BBC5"/>
<path d="M415.102 292.284V291.627H417.764V292.284H415.102ZM414.024 293.516L416.051 288.553H416.831L418.873 293.516H418.077L416.303 289.034H416.578L414.812 293.516H414.024ZM423.774 291.52V288.553H424.509V291.55C424.509 291.846 424.47 292.106 424.394 292.33C424.322 292.555 424.218 292.748 424.08 292.911C423.943 293.075 423.78 293.207 423.591 293.309C423.407 293.406 423.201 293.477 422.971 293.523C422.747 293.574 422.508 293.6 422.253 293.6C421.988 293.6 421.74 293.574 421.511 293.523C421.281 293.477 421.07 293.406 420.876 293.309C420.687 293.207 420.524 293.075 420.387 292.911C420.254 292.748 420.15 292.555 420.073 292.33C420.002 292.106 419.966 291.846 419.966 291.55V288.553H420.7V291.52C420.7 291.902 420.769 292.195 420.907 292.399C421.049 292.603 421.238 292.743 421.473 292.82C421.707 292.896 421.967 292.934 422.253 292.934C422.528 292.934 422.78 292.896 423.01 292.82C423.239 292.743 423.423 292.603 423.56 292.399C423.703 292.195 423.774 291.902 423.774 291.52ZM428.439 293.6C428.046 293.6 427.692 293.541 427.376 293.424C427.065 293.307 426.797 293.138 426.573 292.919C426.349 292.7 426.178 292.435 426.061 292.124C425.943 291.808 425.885 291.459 425.885 291.076C425.885 290.684 425.948 290.329 426.076 290.013C426.203 289.692 426.384 289.417 426.619 289.187C426.853 288.953 427.131 288.774 427.452 288.652C427.774 288.53 428.128 288.468 428.515 288.468C428.949 288.468 429.329 288.542 429.655 288.69C429.986 288.838 430.251 289.047 430.45 289.317C430.649 289.582 430.766 289.898 430.802 290.266H430.137C430.07 290.031 429.963 289.83 429.815 289.661C429.668 289.493 429.484 289.363 429.265 289.271C429.046 289.18 428.796 289.134 428.515 289.134C428.133 289.134 427.802 289.218 427.521 289.386C427.241 289.549 427.022 289.779 426.864 290.074C426.706 290.365 426.626 290.699 426.626 291.076C426.626 291.448 426.695 291.775 426.833 292.055C426.976 292.33 427.182 292.547 427.452 292.705C427.728 292.858 428.059 292.934 428.447 292.934C428.747 292.934 429.01 292.883 429.234 292.781C429.464 292.674 429.65 292.527 429.792 292.338C429.94 292.144 430.042 291.912 430.098 291.642L430.481 291.596C430.404 292.254 430.185 292.753 429.823 293.095C429.461 293.432 429 293.6 428.439 293.6ZM430.312 293.516C430.312 293.352 430.318 293.166 430.328 292.957C430.343 292.743 430.358 292.529 430.374 292.315C430.394 292.096 430.412 291.9 430.427 291.726H428.569V291.13H430.993V293.516H430.312Z" fill="#B5BBC5"/>
<path d="M463.147 291.887H463.85C463.865 292.086 463.932 292.267 464.049 292.43C464.171 292.588 464.334 292.713 464.538 292.804C464.747 292.896 464.99 292.942 465.265 292.942C465.504 292.942 465.703 292.909 465.861 292.843C466.019 292.776 466.137 292.687 466.213 292.575C466.295 292.458 466.335 292.32 466.335 292.162C466.335 292.004 466.292 291.879 466.205 291.787C466.119 291.69 465.989 291.611 465.815 291.55C465.642 291.484 465.428 291.42 465.173 291.359C464.949 291.303 464.727 291.237 464.508 291.16C464.294 291.079 464.095 290.979 463.911 290.862C463.733 290.745 463.588 290.605 463.475 290.441C463.368 290.273 463.315 290.072 463.315 289.837C463.315 289.587 463.384 289.361 463.521 289.157C463.659 288.948 463.86 288.782 464.125 288.66C464.396 288.532 464.722 288.468 465.104 288.468C465.696 288.468 466.142 288.616 466.443 288.912C466.748 289.208 466.896 289.603 466.886 290.097H466.198C466.183 289.751 466.073 289.503 465.869 289.356C465.665 289.203 465.4 289.126 465.074 289.126C464.793 289.126 464.554 289.185 464.355 289.302C464.156 289.414 464.057 289.593 464.057 289.837C464.057 289.944 464.08 290.039 464.125 290.12C464.171 290.197 464.248 290.268 464.355 290.334C464.462 290.401 464.605 290.464 464.783 290.526C464.967 290.587 465.193 290.653 465.464 290.724C465.668 290.77 465.864 290.829 466.053 290.9C466.246 290.972 466.42 291.061 466.573 291.168C466.725 291.275 466.845 291.413 466.932 291.581C467.024 291.749 467.07 291.956 467.07 292.2C467.07 292.46 467.006 292.697 466.878 292.911C466.751 293.121 466.552 293.289 466.282 293.416C466.017 293.539 465.673 293.6 465.25 293.6C464.913 293.6 464.62 293.556 464.37 293.47C464.125 293.383 463.919 293.271 463.751 293.133C463.588 292.996 463.458 292.848 463.361 292.69C463.269 292.532 463.205 292.381 463.17 292.239C463.139 292.096 463.131 291.979 463.147 291.887ZM469.095 291.367V292.858H472.292V293.516H468.361V288.553H472.284V289.21H469.095V290.724H471.703V291.367H469.095ZM474.336 291.803V291.16H476.118C476.414 291.16 476.651 291.071 476.829 290.893C477.013 290.714 477.104 290.48 477.104 290.189C477.104 289.888 477.013 289.651 476.829 289.478C476.651 289.305 476.414 289.218 476.118 289.218H474.458V293.516H473.724V288.553H476.087C476.332 288.553 476.559 288.588 476.768 288.66C476.982 288.726 477.168 288.828 477.326 288.965C477.489 289.103 477.614 289.274 477.701 289.478C477.793 289.682 477.839 289.919 477.839 290.189C477.839 290.454 477.793 290.689 477.701 290.893C477.614 291.097 477.489 291.267 477.326 291.405C477.168 291.538 476.982 291.637 476.768 291.703C476.559 291.769 476.332 291.803 476.087 291.803H474.336Z" fill="#B5BBC5"/>
<path d="M512.923 293.6C512.408 293.6 511.949 293.495 511.546 293.286C511.148 293.077 510.835 292.781 510.605 292.399C510.381 292.017 510.269 291.563 510.269 291.038C510.269 290.508 510.381 290.051 510.605 289.669C510.835 289.287 511.148 288.991 511.546 288.782C511.949 288.573 512.408 288.468 512.923 288.468C513.443 288.468 513.901 288.573 514.299 288.782C514.697 288.991 515.01 289.287 515.24 289.669C515.469 290.051 515.584 290.508 515.584 291.038C515.584 291.563 515.469 292.017 515.24 292.399C515.01 292.781 514.697 293.077 514.299 293.286C513.901 293.495 513.443 293.6 512.923 293.6ZM512.923 292.934C513.29 292.934 513.616 292.863 513.901 292.72C514.187 292.578 514.414 292.366 514.582 292.086C514.75 291.805 514.834 291.456 514.834 291.038C514.834 290.62 514.75 290.271 514.582 289.99C514.414 289.71 514.187 289.498 513.901 289.356C513.616 289.208 513.29 289.134 512.923 289.134C512.566 289.134 512.242 289.208 511.951 289.356C511.661 289.498 511.431 289.71 511.263 289.99C511.095 290.271 511.011 290.62 511.011 291.038C511.011 291.456 511.095 291.805 511.263 292.086C511.431 292.366 511.661 292.578 511.951 292.72C512.242 292.863 512.566 292.934 512.923 292.934ZM521.693 291.818C521.647 292.19 521.52 292.509 521.311 292.774C521.107 293.039 520.839 293.243 520.508 293.386C520.176 293.528 519.799 293.6 519.376 293.6C518.994 293.6 518.642 293.541 518.321 293.424C518.004 293.307 517.729 293.138 517.495 292.919C517.26 292.7 517.077 292.432 516.944 292.116C516.811 291.795 516.745 291.436 516.745 291.038C516.745 290.635 516.811 290.276 516.944 289.96C517.077 289.644 517.26 289.376 517.495 289.157C517.729 288.932 518.004 288.762 518.321 288.644C518.642 288.527 518.994 288.468 519.376 288.468C519.804 288.468 520.184 288.542 520.515 288.69C520.847 288.833 521.114 289.039 521.318 289.31C521.527 289.575 521.655 289.893 521.701 290.266H520.997C520.931 290.026 520.821 289.822 520.668 289.654C520.515 289.486 520.329 289.358 520.11 289.271C519.891 289.18 519.646 289.134 519.376 289.134C519.029 289.134 518.713 289.208 518.428 289.356C518.142 289.503 517.913 289.717 517.739 289.998C517.571 290.278 517.487 290.625 517.487 291.038C517.487 291.446 517.571 291.792 517.739 292.078C517.913 292.358 518.142 292.572 518.428 292.72C518.713 292.863 519.029 292.934 519.376 292.934C519.646 292.934 519.888 292.891 520.102 292.804C520.322 292.718 520.508 292.59 520.661 292.422C520.814 292.254 520.926 292.052 520.997 291.818H521.693ZM522.454 288.553H526.805V289.21H522.454V288.553ZM524.258 289.134H525V293.516H524.258V289.134Z" fill="#B5BBC5"/>
<path d="M563.681 292.705L563.467 292.781V288.553H564.209V293.516H563.467L560.003 289.378L560.217 289.302V293.516H559.483V288.553H560.217L563.681 292.705ZM568.242 293.6C567.727 293.6 567.268 293.495 566.865 293.286C566.468 293.077 566.154 292.781 565.925 292.399C565.701 292.017 565.588 291.563 565.588 291.038C565.588 290.508 565.701 290.051 565.925 289.669C566.154 289.287 566.468 288.991 566.865 288.782C567.268 288.573 567.727 288.468 568.242 288.468C568.762 288.468 569.221 288.573 569.618 288.782C570.016 288.991 570.33 289.287 570.559 289.669C570.789 290.051 570.903 290.508 570.903 291.038C570.903 291.563 570.789 292.017 570.559 292.399C570.33 292.781 570.016 293.077 569.618 293.286C569.221 293.495 568.762 293.6 568.242 293.6ZM568.242 292.934C568.609 292.934 568.935 292.863 569.221 292.72C569.506 292.578 569.733 292.366 569.901 292.086C570.07 291.805 570.154 291.456 570.154 291.038C570.154 290.62 570.07 290.271 569.901 289.99C569.733 289.71 569.506 289.498 569.221 289.356C568.935 289.208 568.609 289.134 568.242 289.134C567.885 289.134 567.561 289.208 567.271 289.356C566.98 289.498 566.751 289.71 566.583 289.99C566.414 290.271 566.33 290.62 566.33 291.038C566.33 291.456 566.414 291.805 566.583 292.086C566.751 292.366 566.98 292.578 567.271 292.72C567.561 292.863 567.885 292.934 568.242 292.934ZM573.508 293.516L571.574 288.553H572.377L574.044 292.942H573.814L575.481 288.553H576.269L574.35 293.516H573.508Z" fill="#B5BBC5"/>
<path d="M610.471 288.553C610.986 288.553 611.417 288.619 611.764 288.751C612.115 288.879 612.396 289.057 612.605 289.287C612.819 289.516 612.972 289.779 613.064 290.074C613.156 290.37 613.201 290.684 613.201 291.015C613.201 291.341 613.15 291.655 613.048 291.956C612.952 292.256 612.794 292.524 612.574 292.759C612.36 292.993 612.08 293.179 611.733 293.317C611.386 293.449 610.966 293.516 610.471 293.516H608.483V288.553H610.471ZM609.217 292.85H610.464C610.856 292.85 611.18 292.799 611.435 292.697C611.69 292.59 611.891 292.45 612.039 292.277C612.192 292.098 612.299 291.9 612.36 291.68C612.426 291.461 612.46 291.239 612.46 291.015C612.46 290.786 612.426 290.564 612.36 290.35C612.299 290.136 612.192 289.944 612.039 289.776C611.891 289.603 611.69 289.468 611.435 289.371C611.18 289.269 610.856 289.218 610.464 289.218H609.217V292.85ZM615.313 291.367V292.858H618.509V293.516H614.578V288.553H618.502V289.21H615.313V290.724H617.92V291.367H615.313ZM624.676 291.818C624.63 292.19 624.502 292.509 624.293 292.774C624.089 293.039 623.822 293.243 623.49 293.386C623.159 293.528 622.782 293.6 622.359 293.6C621.976 293.6 621.624 293.541 621.303 293.424C620.987 293.307 620.712 293.138 620.477 292.919C620.243 292.7 620.059 292.432 619.927 292.116C619.794 291.795 619.728 291.436 619.728 291.038C619.728 290.635 619.794 290.276 619.927 289.96C620.059 289.644 620.243 289.376 620.477 289.157C620.712 288.932 620.987 288.762 621.303 288.644C621.624 288.527 621.976 288.468 622.359 288.468C622.787 288.468 623.167 288.542 623.498 288.69C623.829 288.833 624.097 289.039 624.301 289.31C624.51 289.575 624.637 289.893 624.683 290.266H623.98C623.913 290.026 623.804 289.822 623.651 289.654C623.498 289.486 623.312 289.358 623.093 289.271C622.873 289.18 622.629 289.134 622.359 289.134C622.012 289.134 621.696 289.208 621.41 289.356C621.125 289.503 620.895 289.717 620.722 289.998C620.554 290.278 620.47 290.625 620.47 291.038C620.47 291.446 620.554 291.792 620.722 292.078C620.895 292.358 621.125 292.572 621.41 292.72C621.696 292.863 622.012 292.934 622.359 292.934C622.629 292.934 622.871 292.891 623.085 292.804C623.304 292.718 623.49 292.59 623.643 292.422C623.796 292.254 623.908 292.052 623.98 291.818H624.676Z" fill="#B5BBC5"/>
<path d="M30.3994 67.7921C30.3994 67.0529 30.8327 66.4581 31.5125 66.2117C30.9347 65.9653 30.6203 65.4809 30.6203 64.8607C30.6203 63.9005 31.4445 63.2462 32.668 63.2462C33.8746 63.2462 34.6903 63.9005 34.6903 64.8692C34.6903 65.4979 34.3674 65.9823 33.7896 66.2117C34.4779 66.4326 34.9197 67.0444 34.9197 67.8006C34.9197 68.8797 34.0191 69.602 32.6596 69.602C31.2915 69.602 30.3994 68.8797 30.3994 67.7921ZM31.385 64.9116C31.385 65.5149 31.8863 65.9058 32.6511 65.9058C33.4243 65.9058 33.9086 65.5234 33.9086 64.9286C33.9086 64.3423 33.4243 63.9685 32.6511 63.9685C31.8863 63.9685 31.385 64.3423 31.385 64.9116ZM31.2151 67.7326C31.2151 68.4209 31.7844 68.8627 32.6596 68.8627C33.5262 68.8627 34.0955 68.4209 34.0955 67.7326C34.0955 67.0529 33.5347 66.6195 32.6511 66.6195C31.7759 66.6195 31.2151 67.0529 31.2151 67.7326ZM36.1518 66.4326C36.1518 64.5293 37.1375 63.2377 38.6839 63.2377C40.2219 63.2377 41.2075 64.5293 41.2075 66.4326C41.2075 68.3444 40.2643 69.6105 38.6839 69.6105C37.095 69.6105 36.1518 68.3444 36.1518 66.4326ZM36.976 66.4326C36.976 67.9451 37.6048 68.8627 38.6839 68.8627C39.763 68.8627 40.3833 67.9451 40.3833 66.4326C40.3833 64.9031 39.763 63.9855 38.6839 63.9855C37.6048 63.9855 36.976 64.9031 36.976 66.4326ZM43.4791 69.1686C43.4791 69.7804 43.0203 70.2902 42.417 70.3667V70.0098C42.7654 69.9503 43.0118 69.7209 43.0118 69.4575C42.9523 69.4915 42.8843 69.5085 42.7824 69.5085C42.502 69.5085 42.2641 69.3046 42.2641 68.9902C42.2641 68.6503 42.4935 68.4039 42.8333 68.4039C43.1902 68.4039 43.4791 68.7013 43.4791 69.1686ZM44.5442 66.4326C44.5442 64.5293 45.5299 63.2377 47.0763 63.2377C48.6143 63.2377 49.5999 64.5293 49.5999 66.4326C49.5999 68.3444 48.6568 69.6105 47.0763 69.6105C45.4874 69.6105 44.5442 68.3444 44.5442 66.4326ZM45.3684 66.4326C45.3684 67.9451 45.9972 68.8627 47.0763 68.8627C48.1554 68.8627 48.7757 67.9451 48.7757 66.4326C48.7757 64.9031 48.1554 63.9855 47.0763 63.9855C45.9972 63.9855 45.3684 64.9031 45.3684 66.4326ZM50.8605 66.4326C50.8605 64.5293 51.8462 63.2377 53.3926 63.2377C54.9306 63.2377 55.9162 64.5293 55.9162 66.4326C55.9162 68.3444 54.9731 69.6105 53.3926 69.6105C51.8037 69.6105 50.8605 68.3444 50.8605 66.4326ZM51.6847 66.4326C51.6847 67.9451 52.3135 68.8627 53.3926 68.8627C54.4717 68.8627 55.092 67.9451 55.092 66.4326C55.092 64.9031 54.4717 63.9855 53.3926 63.9855C52.3135 63.9855 51.6847 64.9031 51.6847 66.4326ZM57.1768 66.4326C57.1768 64.5293 58.1625 63.2377 59.7089 63.2377C61.2469 63.2377 62.2325 64.5293 62.2325 66.4326C62.2325 68.3444 61.2894 69.6105 59.7089 69.6105C58.12 69.6105 57.1768 68.3444 57.1768 66.4326ZM58.001 66.4326C58.001 67.9451 58.6298 68.8627 59.7089 68.8627C60.788 68.8627 61.4083 67.9451 61.4083 66.4326C61.4083 64.9031 60.788 63.9855 59.7089 63.9855C58.6298 63.9855 58.001 64.9031 58.001 66.4326Z" fill="#B5BBC5"/>
<path d="M30.068 94.7493H34.3589V95.514L32.0308 100.893H31.1641L33.5177 95.514H30.068V94.7493ZM35.1229 97.8252C35.1229 95.9218 36.1085 94.6303 37.655 94.6303C39.1929 94.6303 40.1786 95.9218 40.1786 97.8252C40.1786 99.737 39.2354 101.003 37.655 101.003C36.066 101.003 35.1229 99.737 35.1229 97.8252ZM35.9471 97.8252C35.9471 99.3376 36.5759 100.255 37.655 100.255C38.7341 100.255 39.3544 99.3376 39.3544 97.8252C39.3544 96.2957 38.7341 95.378 37.655 95.378C36.5759 95.378 35.9471 96.2957 35.9471 97.8252ZM42.4502 100.561C42.4502 101.173 41.9914 101.683 41.3881 101.759V101.402C41.7364 101.343 41.9829 101.113 41.9829 100.85C41.9234 100.884 41.8554 100.901 41.7534 100.901C41.473 100.901 41.2351 100.697 41.2351 100.383C41.2351 100.043 41.4645 99.7965 41.8044 99.7965C42.1613 99.7965 42.4502 100.094 42.4502 100.561ZM43.5153 97.8252C43.5153 95.9218 44.5009 94.6303 46.0474 94.6303C47.5853 94.6303 48.571 95.9218 48.571 97.8252C48.571 99.737 47.6278 101.003 46.0474 101.003C44.4585 101.003 43.5153 99.737 43.5153 97.8252ZM44.3395 97.8252C44.3395 99.3376 44.9683 100.255 46.0474 100.255C47.1265 100.255 47.7468 99.3376 47.7468 97.8252C47.7468 96.2957 47.1265 95.378 46.0474 95.378C44.9683 95.378 44.3395 96.2957 44.3395 97.8252ZM49.8316 97.8252C49.8316 95.9218 50.8172 94.6303 52.3637 94.6303C53.9016 94.6303 54.8873 95.9218 54.8873 97.8252C54.8873 99.737 53.9441 101.003 52.3637 101.003C50.7748 101.003 49.8316 99.737 49.8316 97.8252ZM50.6558 97.8252C50.6558 99.3376 51.2846 100.255 52.3637 100.255C53.4428 100.255 54.0631 99.3376 54.0631 97.8252C54.0631 96.2957 53.4428 95.378 52.3637 95.378C51.2846 95.378 50.6558 96.2957 50.6558 97.8252ZM56.1479 97.8252C56.1479 95.9218 57.1336 94.6303 58.68 94.6303C60.218 94.6303 61.2036 95.9218 61.2036 97.8252C61.2036 99.737 60.2604 101.003 58.68 101.003C57.0911 101.003 56.1479 99.737 56.1479 97.8252ZM56.9721 97.8252C56.9721 99.3376 57.6009 100.255 58.68 100.255C59.7591 100.255 60.3794 99.3376 60.3794 97.8252C60.3794 96.2957 59.7591 95.378 58.68 95.378C57.6009 95.378 56.9721 96.2957 56.9721 97.8252Z" fill="#B5BBC5"/>
<path d="M31.1981 128.088L32.6341 126.142H33.6027L32.0648 128.181C32.2772 128.096 32.4981 128.054 32.7105 128.054C33.9851 128.054 34.8433 128.971 34.8433 130.186C34.8433 131.469 33.8746 132.387 32.6086 132.387C31.334 132.387 30.3484 131.427 30.3484 130.186C30.3484 129.456 30.5693 128.946 31.1981 128.088ZM31.1981 130.195C31.1981 131.036 31.7759 131.639 32.6086 131.639C33.4243 131.639 34.0021 131.036 34.0021 130.195C34.0021 129.354 33.4243 128.759 32.6086 128.759C31.7759 128.759 31.1981 129.354 31.1981 130.195ZM36.0356 129.218C36.0356 127.314 37.0213 126.023 38.5677 126.023C40.1057 126.023 41.0913 127.314 41.0913 129.218C41.0913 131.13 40.1482 132.396 38.5677 132.396C36.9788 132.396 36.0356 131.13 36.0356 129.218ZM36.8598 129.218C36.8598 130.73 37.4886 131.648 38.5677 131.648C39.6469 131.648 40.2671 130.73 40.2671 129.218C40.2671 127.688 39.6469 126.771 38.5677 126.771C37.4886 126.771 36.8598 127.688 36.8598 129.218ZM43.3629 131.954C43.3629 132.566 42.9041 133.075 42.3008 133.152V132.795C42.6492 132.735 42.8956 132.506 42.8956 132.243C42.8361 132.277 42.7682 132.294 42.6662 132.294C42.3858 132.294 42.1479 132.09 42.1479 131.775C42.1479 131.435 42.3773 131.189 42.7172 131.189C43.0741 131.189 43.3629 131.486 43.3629 131.954ZM44.4281 129.218C44.4281 127.314 45.4137 126.023 46.9602 126.023C48.4981 126.023 49.4838 127.314 49.4838 129.218C49.4838 131.13 48.5406 132.396 46.9602 132.396C45.3712 132.396 44.4281 131.13 44.4281 129.218ZM45.2523 129.218C45.2523 130.73 45.881 131.648 46.9602 131.648C48.0393 131.648 48.6595 130.73 48.6595 129.218C48.6595 127.688 48.0393 126.771 46.9602 126.771C45.881 126.771 45.2523 127.688 45.2523 129.218ZM50.7444 129.218C50.7444 127.314 51.73 126.023 53.2765 126.023C54.8144 126.023 55.8001 127.314 55.8001 129.218C55.8001 131.13 54.8569 132.396 53.2765 132.396C51.6875 132.396 50.7444 131.13 50.7444 129.218ZM51.5686 129.218C51.5686 130.73 52.1973 131.648 53.2765 131.648C54.3556 131.648 54.9759 130.73 54.9759 129.218C54.9759 127.688 54.3556 126.771 53.2765 126.771C52.1973 126.771 51.5686 127.688 51.5686 129.218ZM57.0607 129.218C57.0607 127.314 58.0463 126.023 59.5928 126.023C61.1307 126.023 62.1164 127.314 62.1164 129.218C62.1164 131.13 61.1732 132.396 59.5928 132.396C58.0038 132.396 57.0607 131.13 57.0607 129.218ZM57.8849 129.218C57.8849 130.73 58.5136 131.648 59.5928 131.648C60.6719 131.648 61.2922 130.73 61.2922 129.218C61.2922 127.688 60.6719 126.771 59.5928 126.771C58.5136 126.771 57.8849 127.688 57.8849 129.218Z" fill="#B5BBC5"/>
<path d="M32.4811 163.78C31.2236 163.78 30.4079 162.981 30.4079 161.757H31.2321C31.2321 162.548 31.7164 163.032 32.4981 163.032C33.3308 163.032 33.8661 162.48 33.8661 161.647C33.8661 160.857 33.3648 160.27 32.5066 160.27C31.9883 160.27 31.5125 160.517 31.2321 160.865L30.5268 160.687L31.2745 157.534H34.3504V158.299H31.8778L31.47 159.931C31.7929 159.684 32.2007 159.557 32.6596 159.557C33.9086 159.557 34.7158 160.432 34.7158 161.613C34.7158 162.888 33.8066 163.78 32.4811 163.78ZM35.8614 160.61C35.8614 158.707 36.847 157.415 38.3935 157.415C39.9314 157.415 40.9171 158.707 40.9171 160.61C40.9171 162.522 39.9739 163.788 38.3935 163.788C36.8045 163.788 35.8614 162.522 35.8614 160.61ZM36.6856 160.61C36.6856 162.123 37.3144 163.04 38.3935 163.04C39.4726 163.04 40.0929 162.123 40.0929 160.61C40.0929 159.081 39.4726 158.163 38.3935 158.163C37.3144 158.163 36.6856 159.081 36.6856 160.61ZM43.1887 163.346C43.1887 163.958 42.7299 164.468 42.1266 164.544V164.188C42.4749 164.128 42.7214 163.899 42.7214 163.635C42.6619 163.669 42.5939 163.686 42.4919 163.686C42.2115 163.686 41.9736 163.482 41.9736 163.168C41.9736 162.828 42.203 162.582 42.5429 162.582C42.8998 162.582 43.1887 162.879 43.1887 163.346ZM44.2538 160.61C44.2538 158.707 45.2395 157.415 46.7859 157.415C48.3239 157.415 49.3095 158.707 49.3095 160.61C49.3095 162.522 48.3663 163.788 46.7859 163.788C45.197 163.788 44.2538 162.522 44.2538 160.61ZM45.078 160.61C45.078 162.123 45.7068 163.04 46.7859 163.04C47.865 163.04 48.4853 162.123 48.4853 160.61C48.4853 159.081 47.865 158.163 46.7859 158.163C45.7068 158.163 45.078 159.081 45.078 160.61ZM50.5701 160.61C50.5701 158.707 51.5558 157.415 53.1022 157.415C54.6402 157.415 55.6258 158.707 55.6258 160.61C55.6258 162.522 54.6826 163.788 53.1022 163.788C51.5133 163.788 50.5701 162.522 50.5701 160.61ZM51.3943 160.61C51.3943 162.123 52.0231 163.04 53.1022 163.04C54.1813 163.04 54.8016 162.123 54.8016 160.61C54.8016 159.081 54.1813 158.163 53.1022 158.163C52.0231 158.163 51.3943 159.081 51.3943 160.61ZM56.8864 160.61C56.8864 158.707 57.8721 157.415 59.4185 157.415C60.9565 157.415 61.9421 158.707 61.9421 160.61C61.9421 162.522 60.9989 163.788 59.4185 163.788C57.8296 163.788 56.8864 162.522 56.8864 160.61ZM57.7106 160.61C57.7106 162.123 58.3394 163.04 59.4185 163.04C60.4976 163.04 61.1179 162.123 61.1179 160.61C61.1179 159.081 60.4976 158.163 59.4185 158.163C58.3394 158.163 57.7106 159.081 57.7106 160.61Z" fill="#B5BBC5"/>
<path d="M34.9962 193.83H34.2655V195.07H33.4668V193.83H30.2889V193.091L33.1864 188.927H34.2655V193.091H34.9962V193.83ZM31.1896 193.091H33.4668V189.811L31.1896 193.091ZM36.2431 192.003C36.2431 190.1 37.2287 188.808 38.7752 188.808C40.3131 188.808 41.2988 190.1 41.2988 192.003C41.2988 193.915 40.3556 195.181 38.7752 195.181C37.1862 195.181 36.2431 193.915 36.2431 192.003ZM37.0673 192.003C37.0673 193.515 37.6961 194.433 38.7752 194.433C39.8543 194.433 40.4746 193.515 40.4746 192.003C40.4746 190.473 39.8543 189.556 38.7752 189.556C37.6961 189.556 37.0673 190.473 37.0673 192.003ZM43.5704 194.739C43.5704 195.351 43.1116 195.861 42.5083 195.937V195.58C42.8566 195.521 43.1031 195.291 43.1031 195.028C43.0436 195.062 42.9756 195.079 42.8736 195.079C42.5932 195.079 42.3553 194.875 42.3553 194.56C42.3553 194.221 42.5847 193.974 42.9246 193.974C43.2815 193.974 43.5704 194.272 43.5704 194.739ZM44.6355 192.003C44.6355 190.1 45.6212 188.808 47.1676 188.808C48.7056 188.808 49.6912 190.1 49.6912 192.003C49.6912 193.915 48.748 195.181 47.1676 195.181C45.5787 195.181 44.6355 193.915 44.6355 192.003ZM45.4597 192.003C45.4597 193.515 46.0885 194.433 47.1676 194.433C48.2467 194.433 48.867 193.515 48.867 192.003C48.867 190.473 48.2467 189.556 47.1676 189.556C46.0885 189.556 45.4597 190.473 45.4597 192.003ZM50.9518 192.003C50.9518 190.1 51.9375 188.808 53.4839 188.808C55.0219 188.808 56.0075 190.1 56.0075 192.003C56.0075 193.915 55.0643 195.181 53.4839 195.181C51.895 195.181 50.9518 193.915 50.9518 192.003ZM51.776 192.003C51.776 193.515 52.4048 194.433 53.4839 194.433C54.563 194.433 55.1833 193.515 55.1833 192.003C55.1833 190.473 54.563 189.556 53.4839 189.556C52.4048 189.556 51.776 190.473 51.776 192.003ZM57.2681 192.003C57.2681 190.1 58.2538 188.808 59.8002 188.808C61.3382 188.808 62.3238 190.1 62.3238 192.003C62.3238 193.915 61.3806 195.181 59.8002 195.181C58.2113 195.181 57.2681 193.915 57.2681 192.003ZM58.0923 192.003C58.0923 193.515 58.7211 194.433 59.8002 194.433C60.8793 194.433 61.4996 193.515 61.4996 192.003C61.4996 190.473 60.8793 189.556 59.8002 189.556C58.7211 189.556 58.0923 190.473 58.0923 192.003Z" fill="#B5BBC5"/>
<path d="M34.5374 226.454L30.3909 226.463V225.826L32.3707 224.118C33.3648 223.26 33.6452 222.843 33.6452 222.189C33.6452 221.416 33.2034 220.957 32.4641 220.957C31.7079 220.957 31.2151 221.509 31.1981 222.384H30.3654C30.3909 221.067 31.2236 220.209 32.4726 220.209C33.7047 220.209 34.4949 220.957 34.4949 222.138C34.4949 223.013 34.0616 223.633 32.9739 224.577L31.6994 225.681H34.5374V226.454ZM35.7286 223.395C35.7286 221.492 36.7143 220.201 38.2607 220.201C39.7987 220.201 40.7843 221.492 40.7843 223.395C40.7843 225.307 39.8412 226.573 38.2607 226.573C36.6718 226.573 35.7286 225.307 35.7286 223.395ZM36.5528 223.395C36.5528 224.908 37.1816 225.826 38.2607 225.826C39.3398 225.826 39.9601 224.908 39.9601 223.395C39.9601 221.866 39.3398 220.948 38.2607 220.948C37.1816 220.948 36.5528 221.866 36.5528 223.395ZM43.0559 226.132C43.0559 226.743 42.5971 227.253 41.9938 227.33V226.973C42.3422 226.913 42.5886 226.684 42.5886 226.42C42.5291 226.454 42.4611 226.471 42.3592 226.471C42.0788 226.471 41.8409 226.267 41.8409 225.953C41.8409 225.613 42.0703 225.367 42.4102 225.367C42.767 225.367 43.0559 225.664 43.0559 226.132ZM44.121 223.395C44.121 221.492 45.1067 220.201 46.6531 220.201C48.1911 220.201 49.1767 221.492 49.1767 223.395C49.1767 225.307 48.2336 226.573 46.6531 226.573C45.0642 226.573 44.121 225.307 44.121 223.395ZM44.9452 223.395C44.9452 224.908 45.574 225.826 46.6531 225.826C47.7322 225.826 48.3525 224.908 48.3525 223.395C48.3525 221.866 47.7322 220.948 46.6531 220.948C45.574 220.948 44.9452 221.866 44.9452 223.395ZM50.4373 223.395C50.4373 221.492 51.423 220.201 52.9694 220.201C54.5074 220.201 55.493 221.492 55.493 223.395C55.493 225.307 54.5499 226.573 52.9694 226.573C51.3805 226.573 50.4373 225.307 50.4373 223.395ZM51.2615 223.395C51.2615 224.908 51.8903 225.826 52.9694 225.826C54.0486 225.826 54.6688 224.908 54.6688 223.395C54.6688 221.866 54.0486 220.948 52.9694 220.948C51.8903 220.948 51.2615 221.866 51.2615 223.395ZM56.7536 223.395C56.7536 221.492 57.7393 220.201 59.2857 220.201C60.8237 220.201 61.8093 221.492 61.8093 223.395C61.8093 225.307 60.8662 226.573 59.2857 226.573C57.6968 226.573 56.7536 225.307 56.7536 223.395ZM57.5778 223.395C57.5778 224.908 58.2066 225.826 59.2857 225.826C60.3649 225.826 60.9851 224.908 60.9851 223.395C60.9851 221.866 60.3649 220.948 59.2857 220.948C58.2066 220.948 57.5778 221.866 57.5778 223.395Z" fill="#B5BBC5"/>
<path d="M31.5889 252.46H30.2974V251.712H32.3876V257.855H31.5889V252.46ZM33.9363 254.788C33.9363 252.885 34.9219 251.593 36.4684 251.593C38.0063 251.593 38.992 252.885 38.992 254.788C38.992 256.7 38.0488 257.966 36.4684 257.966C34.8795 257.966 33.9363 256.7 33.9363 254.788ZM34.7605 254.788C34.7605 256.301 35.3893 257.218 36.4684 257.218C37.5475 257.218 38.1678 256.301 38.1678 254.788C38.1678 253.259 37.5475 252.341 36.4684 252.341C35.3893 252.341 34.7605 253.259 34.7605 254.788ZM41.2636 257.524C41.2636 258.136 40.8048 258.646 40.2015 258.722V258.365C40.5499 258.306 40.7963 258.076 40.7963 257.813C40.7368 257.847 40.6688 257.864 40.5668 257.864C40.2864 257.864 40.0485 257.66 40.0485 257.346C40.0485 257.006 40.2779 256.759 40.6178 256.759C40.9747 256.759 41.2636 257.057 41.2636 257.524ZM42.3287 254.788C42.3287 252.885 43.3144 251.593 44.8608 251.593C46.3988 251.593 47.3844 252.885 47.3844 254.788C47.3844 256.7 46.4412 257.966 44.8608 257.966C43.2719 257.966 42.3287 256.7 42.3287 254.788ZM43.1529 254.788C43.1529 256.301 43.7817 257.218 44.8608 257.218C45.9399 257.218 46.5602 256.301 46.5602 254.788C46.5602 253.259 45.9399 252.341 44.8608 252.341C43.7817 252.341 43.1529 253.259 43.1529 254.788ZM48.645 254.788C48.645 252.885 49.6307 251.593 51.1771 251.593C52.7151 251.593 53.7007 252.885 53.7007 254.788C53.7007 256.7 52.7575 257.966 51.1771 257.966C49.5882 257.966 48.645 256.7 48.645 254.788ZM49.4692 254.788C49.4692 256.301 50.098 257.218 51.1771 257.218C52.2562 257.218 52.8765 256.301 52.8765 254.788C52.8765 253.259 52.2562 252.341 51.1771 252.341C50.098 252.341 49.4692 253.259 49.4692 254.788ZM54.9613 254.788C54.9613 252.885 55.947 251.593 57.4934 251.593C59.0314 251.593 60.017 252.885 60.017 254.788C60.017 256.7 59.0738 257.966 57.4934 257.966C55.9045 257.966 54.9613 256.7 54.9613 254.788ZM55.7855 254.788C55.7855 256.301 56.4143 257.218 57.4934 257.218C58.5725 257.218 59.1928 256.301 59.1928 254.788C59.1928 253.259 58.5725 252.341 57.4934 252.341C56.4143 252.341 55.7855 253.259 55.7855 254.788Z" fill="#B5BBC5"/>
<path d="M30.4164 286.183C30.4164 284.279 31.402 282.988 32.9484 282.988C34.4864 282.988 35.472 284.279 35.472 286.183C35.472 288.094 34.5289 289.36 32.9484 289.36C31.3595 289.36 30.4164 288.094 30.4164 286.183ZM31.2406 286.183C31.2406 287.695 31.8693 288.613 32.9484 288.613C34.0276 288.613 34.6478 287.695 34.6478 286.183C34.6478 284.653 34.0276 283.735 32.9484 283.735C31.8693 283.735 31.2406 284.653 31.2406 286.183Z" fill="#B5BBC5"/>
<path d="M81.832 279.723V64.75" stroke="#EEEFF2" stroke-width="0.849697" stroke-dasharray="6.8 6.8"/>
<path d="M130.832 279.723V64.75" stroke="#EEEFF2" stroke-width="0.849697" stroke-dasharray="6.8 6.8"/>
<path d="M179.832 279.723V64.75" stroke="#EEEFF2" stroke-width="0.849697" stroke-dasharray="6.8 6.8"/>
<path d="M228.832 279.723V64.75" stroke="#EEEFF2" stroke-width="0.849697" stroke-dasharray="6.8 6.8"/>
<path d="M277.832 279.723V64.75" stroke="#EEEFF2" stroke-width="0.849697" stroke-dasharray="6.8 6.8"/>
<path d="M326.832 279.723V64.75" stroke="#EEEFF2" stroke-width="0.849697" stroke-dasharray="6.8 6.8"/>
<path d="M375.832 279.723V64.75" stroke="#EEEFF2" stroke-width="0.849697" stroke-dasharray="6.8 6.8"/>
<path d="M424.832 279.723V64.75" stroke="#EEEFF2" stroke-width="0.849697" stroke-dasharray="6.8 6.8"/>
<path d="M473.832 279.723V64.75" stroke="#EEEFF2" stroke-width="0.849697" stroke-dasharray="6.8 6.8"/>
<path d="M522.832 279.723V64.75" stroke="#EEEFF2" stroke-width="0.849697" stroke-dasharray="6.8 6.8"/>
<path d="M571.832 279.723V64.75" stroke="#EEEFF2" stroke-width="0.849697" stroke-dasharray="6.8 6.8"/>
<path d="M620.832 279.723V64.75" stroke="#EEEFF2" stroke-width="0.849697" stroke-dasharray="6.8 6.8"/>
<path d="M612.262 65.5L68 65.5" stroke="#EEEFF2" stroke-width="0.849697" stroke-dasharray="6.8 6.8"/>
<path d="M612.262 96.5L68 96.5" stroke="#EEEFF2" stroke-width="0.849697" stroke-dasharray="6.8 6.8"/>
<path d="M621 126.5L68 126.5" stroke="#EEEFF2" stroke-width="0.849697" stroke-dasharray="6.8 6.8"/>
<path d="M612.262 157.5L68 157.5" stroke="#EEEFF2" stroke-width="0.849697" stroke-dasharray="6.8 6.8"/>
<path d="M612.262 187.5L68 187.5" stroke="#EEEFF2" stroke-width="0.849697" stroke-dasharray="6.8 6.8"/>
<path d="M612.262 218.5L68 218.5" stroke="#EEEFF2" stroke-width="0.849697" stroke-dasharray="6.8 6.8"/>
<path d="M612.262 249.5L68 249.5" stroke="#EEEFF2" stroke-width="0.849697" stroke-dasharray="6.8 6.8"/>
<path d="M612.262 279.5L68 279.5" stroke="#E5E7EB" stroke-width="0.849697" stroke-dasharray="6.8 6.8"/>
<path d="M85 279.5L143.182 247.908L202.98 236.374L249.848 202.776L307.222 189.236L329.848 165.166L388.838 160.151L424.394 126.553L485 108.5" stroke="#328A28" stroke-width="1.5"/>
<path d="M82.8795 260.017L147.897 234.11L209.792 228.136L264.086 199.229L324.054 191.057L352.112 169.358L411.674 169.741L454.771 139.813L519 127.481" stroke="#F2994A" stroke-width="1.5"/>
<path d="M32.45 26.414V34.296H37.798V35.5H31.106V26.414H32.45ZM42.4728 35.654C41.7915 35.654 41.1661 35.5093 40.5968 35.22C40.0275 34.9307 39.5748 34.5153 39.2388 33.974C38.9028 33.4327 38.7348 32.784 38.7348 32.028C38.7348 31.2627 38.9028 30.6093 39.2388 30.068C39.5748 29.5173 40.0275 29.0973 40.5968 28.808C41.1661 28.5187 41.7915 28.374 42.4728 28.374C43.1541 28.374 43.7748 28.5187 44.3348 28.808C44.8948 29.0973 45.3428 29.5173 45.6788 30.068C46.0148 30.6093 46.1828 31.2627 46.1828 32.028C46.1828 32.784 46.0148 33.4327 45.6788 33.974C45.3428 34.5153 44.8948 34.9307 44.3348 35.22C43.7748 35.5093 43.1541 35.654 42.4728 35.654ZM42.4728 34.492C42.8928 34.492 43.2801 34.3987 43.6348 34.212C43.9988 34.016 44.2881 33.736 44.5028 33.372C44.7268 32.9987 44.8388 32.5507 44.8388 32.028C44.8388 31.496 44.7268 31.0433 44.5028 30.67C44.2881 30.2967 43.9988 30.012 43.6348 29.816C43.2801 29.62 42.8928 29.522 42.4728 29.522C42.0528 29.522 41.6608 29.62 41.2968 29.816C40.9328 30.0027 40.6388 30.2827 40.4148 30.656C40.1908 31.0293 40.0788 31.4867 40.0788 32.028C40.0788 32.5507 40.1861 32.9987 40.4008 33.372C40.6248 33.736 40.9188 34.016 41.2828 34.212C41.6468 34.3987 42.0435 34.492 42.4728 34.492ZM50.473 35.64C49.8757 35.64 49.3297 35.486 48.835 35.178C48.3404 34.87 47.9484 34.4453 47.659 33.904C47.3697 33.3533 47.225 32.7233 47.225 32.014C47.225 31.3047 47.3697 30.6793 47.659 30.138C47.9577 29.5873 48.3637 29.158 48.877 28.85C49.3904 28.5327 49.9644 28.374 50.599 28.374C51.299 28.374 51.8404 28.5373 52.223 28.864C52.615 29.1907 52.8857 29.6293 53.035 30.18C53.1937 30.7307 53.273 31.342 53.273 32.014C53.273 32.3873 53.2264 32.784 53.133 33.204C53.0397 33.624 52.8904 34.0207 52.685 34.394C52.4797 34.7673 52.195 35.0707 51.831 35.304C51.467 35.528 51.0144 35.64 50.473 35.64ZM50.851 34.478C51.3457 34.478 51.761 34.3707 52.097 34.156C52.4424 33.932 52.699 33.6333 52.867 33.26C53.035 32.8867 53.119 32.4713 53.119 32.014C53.119 31.5193 53.0304 31.0853 52.853 30.712C52.685 30.3387 52.4284 30.0493 52.083 29.844C51.747 29.6387 51.3364 29.536 50.851 29.536C50.123 29.536 49.5584 29.7693 49.157 30.236C48.765 30.7027 48.569 31.2953 48.569 32.014C48.569 32.4993 48.667 32.9287 48.863 33.302C49.059 33.666 49.325 33.9553 49.661 34.17C50.0064 34.3753 50.403 34.478 50.851 34.478ZM53.119 28.514H54.463V35.5H53.231C53.231 35.5 53.2217 35.416 53.203 35.248C53.1844 35.0707 53.1657 34.8607 53.147 34.618C53.1284 34.3753 53.119 34.1607 53.119 33.974V28.514ZM56.216 28.514H57.56V35.5H56.216V28.514ZM60.22 28.374C60.612 28.374 60.9667 28.43 61.284 28.542C61.6013 28.654 61.872 28.822 62.096 29.046C62.32 29.2607 62.4927 29.5313 62.614 29.858C62.7447 30.1753 62.81 30.5393 62.81 30.95V35.5H61.48V31.244C61.48 30.6933 61.3447 30.2827 61.074 30.012C60.8127 29.732 60.4113 29.592 59.87 29.592C59.45 29.592 59.0673 29.69 58.722 29.886C58.3767 30.082 58.092 30.3433 57.868 30.67C57.6533 30.9873 57.5227 31.3467 57.476 31.748L57.462 30.978C57.5087 30.6047 57.6067 30.2593 57.756 29.942C57.9147 29.6247 58.1107 29.3493 58.344 29.116C58.5867 28.8733 58.8667 28.6913 59.184 28.57C59.5013 28.4393 59.8467 28.374 60.22 28.374ZM74.4917 32.84C74.4357 33.4187 74.249 33.9227 73.9317 34.352C73.6237 34.772 73.2177 35.094 72.7137 35.318C72.2097 35.542 71.6497 35.654 71.0337 35.654C70.3523 35.654 69.727 35.514 69.1577 35.234C68.5883 34.9447 68.131 34.5293 67.7857 33.988C67.4497 33.4373 67.2817 32.784 67.2817 32.028C67.2817 31.2627 67.4497 30.6093 67.7857 30.068C68.131 29.5173 68.5883 29.0973 69.1577 28.808C69.727 28.5187 70.3523 28.374 71.0337 28.374C71.6497 28.374 72.205 28.486 72.6997 28.71C73.1943 28.934 73.6003 29.256 73.9177 29.676C74.235 30.0867 74.4263 30.5813 74.4917 31.16H73.2737C73.115 30.656 72.8303 30.2593 72.4197 29.97C72.0183 29.6713 71.5563 29.522 71.0337 29.522C70.6043 29.522 70.203 29.62 69.8297 29.816C69.4657 30.012 69.1717 30.2967 68.9477 30.67C68.733 31.034 68.6257 31.4867 68.6257 32.028C68.6257 32.5507 68.733 32.9987 68.9477 33.372C69.1717 33.736 69.4657 34.016 69.8297 34.212C70.1937 34.3987 70.595 34.492 71.0337 34.492C71.631 34.492 72.1163 34.3473 72.4897 34.058C72.863 33.7687 73.129 33.3627 73.2877 32.84H74.4917ZM79.2638 35.654C78.5825 35.654 77.9571 35.5093 77.3878 35.22C76.8185 34.9307 76.3658 34.5153 76.0298 33.974C75.6938 33.4327 75.5258 32.784 75.5258 32.028C75.5258 31.2627 75.6938 30.6093 76.0298 30.068C76.3658 29.5173 76.8185 29.0973 77.3878 28.808C77.9571 28.5187 78.5825 28.374 79.2638 28.374C79.9451 28.374 80.5658 28.5187 81.1258 28.808C81.6858 29.0973 82.1338 29.5173 82.4698 30.068C82.8058 30.6093 82.9738 31.2627 82.9738 32.028C82.9738 32.784 82.8058 33.4327 82.4698 33.974C82.1338 34.5153 81.6858 34.9307 81.1258 35.22C80.5658 35.5093 79.9451 35.654 79.2638 35.654ZM79.2638 34.492C79.6838 34.492 80.0711 34.3987 80.4258 34.212C80.7898 34.016 81.0791 33.736 81.2938 33.372C81.5178 32.9987 81.6298 32.5507 81.6298 32.028C81.6298 31.496 81.5178 31.0433 81.2938 30.67C81.0791 30.2967 80.7898 30.012 80.4258 29.816C80.0711 29.62 79.6838 29.522 79.2638 29.522C78.8438 29.522 78.4518 29.62 78.0878 29.816C77.7238 30.0027 77.4298 30.2827 77.2058 30.656C76.9818 31.0293 76.8698 31.4867 76.8698 32.028C76.8698 32.5507 76.9771 32.9987 77.1918 33.372C77.4158 33.736 77.7098 34.016 78.0738 34.212C78.4378 34.3987 78.8345 34.492 79.2638 34.492ZM84.52 25.714H85.864V35.5H84.52V25.714ZM87.9243 25.714H89.2683V35.5H87.9243V25.714ZM96.5786 33.232H97.8526C97.778 33.6893 97.6006 34.1 97.3206 34.464C97.0406 34.828 96.672 35.1173 96.2146 35.332C95.7573 35.5467 95.2206 35.654 94.6046 35.654C93.8766 35.654 93.228 35.5 92.6586 35.192C92.0893 34.884 91.6413 34.4593 91.3146 33.918C90.988 33.3767 90.8246 32.7467 90.8246 32.028C90.8246 31.3 90.9833 30.6653 91.3006 30.124C91.618 29.5733 92.0566 29.144 92.6166 28.836C93.1766 28.528 93.816 28.374 94.5346 28.374C95.2906 28.374 95.9253 28.5233 96.4386 28.822C96.952 29.1207 97.33 29.564 97.5726 30.152C97.8246 30.7307 97.9273 31.454 97.8806 32.322H92.1546C92.2013 32.742 92.3273 33.1153 92.5326 33.442C92.7473 33.7687 93.0273 34.0253 93.3726 34.212C93.7273 34.3987 94.1333 34.492 94.5906 34.492C95.104 34.492 95.5333 34.3753 95.8786 34.142C96.224 33.9087 96.4573 33.6053 96.5786 33.232ZM94.5486 29.522C93.942 29.522 93.438 29.6853 93.0366 30.012C92.6353 30.3293 92.3693 30.754 92.2386 31.286H96.5366C96.4993 30.7167 96.294 30.2827 95.9206 29.984C95.5473 29.676 95.09 29.522 94.5486 29.522ZM106.142 32.84C106.086 33.4187 105.899 33.9227 105.582 34.352C105.274 34.772 104.868 35.094 104.364 35.318C103.86 35.542 103.3 35.654 102.684 35.654C102.003 35.654 101.377 35.514 100.808 35.234C100.239 34.9447 99.7814 34.5293 99.4361 33.988C99.1001 33.4373 98.9321 32.784 98.9321 32.028C98.9321 31.2627 99.1001 30.6093 99.4361 30.068C99.7814 29.5173 100.239 29.0973 100.808 28.808C101.377 28.5187 102.003 28.374 102.684 28.374C103.3 28.374 103.855 28.486 104.35 28.71C104.845 28.934 105.251 29.256 105.568 29.676C105.885 30.0867 106.077 30.5813 106.142 31.16H104.924C104.765 30.656 104.481 30.2593 104.07 29.97C103.669 29.6713 103.207 29.522 102.684 29.522C102.255 29.522 101.853 29.62 101.48 29.816C101.116 30.012 100.822 30.2967 100.598 30.67C100.383 31.034 100.276 31.4867 100.276 32.028C100.276 32.5507 100.383 32.9987 100.598 33.372C100.822 33.736 101.116 34.016 101.48 34.212C101.844 34.3987 102.245 34.492 102.684 34.492C103.281 34.492 103.767 34.3473 104.14 34.058C104.513 33.7687 104.779 33.3627 104.938 32.84H106.142ZM107.05 28.514H111.572V29.676H107.05V28.514ZM108.646 26.666H109.976V35.5H108.646V26.666ZM118.112 33.232H119.386C119.311 33.6893 119.134 34.1 118.854 34.464C118.574 34.828 118.205 35.1173 117.748 35.332C117.291 35.5467 116.754 35.654 116.138 35.654C115.41 35.654 114.761 35.5 114.192 35.192C113.623 34.884 113.175 34.4593 112.848 33.918C112.521 33.3767 112.358 32.7467 112.358 32.028C112.358 31.3 112.517 30.6653 112.834 30.124C113.151 29.5733 113.59 29.144 114.15 28.836C114.71 28.528 115.349 28.374 116.068 28.374C116.824 28.374 117.459 28.5233 117.972 28.822C118.485 29.1207 118.863 29.564 119.106 30.152C119.358 30.7307 119.461 31.454 119.414 32.322H113.688C113.735 32.742 113.861 33.1153 114.066 33.442C114.281 33.7687 114.561 34.0253 114.906 34.212C115.261 34.3987 115.667 34.492 116.124 34.492C116.637 34.492 117.067 34.3753 117.412 34.142C117.757 33.9087 117.991 33.6053 118.112 33.232ZM116.082 29.522C115.475 29.522 114.971 29.6853 114.57 30.012C114.169 30.3293 113.903 30.754 113.772 31.286H118.07C118.033 30.7167 117.827 30.2827 117.454 29.984C117.081 29.676 116.623 29.522 116.082 29.522ZM123.713 35.64C123.107 35.64 122.556 35.486 122.061 35.178C121.567 34.87 121.175 34.4453 120.885 33.904C120.605 33.3533 120.465 32.7233 120.465 32.014C120.465 31.3047 120.605 30.6793 120.885 30.138C121.165 29.5873 121.548 29.158 122.033 28.85C122.519 28.5327 123.079 28.374 123.713 28.374C124.264 28.374 124.721 28.4673 125.085 28.654C125.449 28.8407 125.734 29.102 125.939 29.438C126.145 29.774 126.289 30.1613 126.373 30.6C126.467 31.0387 126.513 31.51 126.513 32.014C126.513 32.3873 126.467 32.784 126.373 33.204C126.28 33.624 126.131 34.0207 125.925 34.394C125.72 34.7673 125.435 35.0707 125.071 35.304C124.707 35.528 124.255 35.64 123.713 35.64ZM124.091 34.478C124.586 34.478 125.001 34.3707 125.337 34.156C125.683 33.932 125.939 33.6333 126.107 33.26C126.275 32.8867 126.359 32.4713 126.359 32.014C126.359 31.5193 126.271 31.0853 126.093 30.712C125.925 30.3387 125.669 30.0493 125.323 29.844C124.987 29.6387 124.577 29.536 124.091 29.536C123.363 29.536 122.799 29.7693 122.397 30.236C122.005 30.7027 121.809 31.2953 121.809 32.014C121.809 32.4993 121.907 32.9287 122.103 33.302C122.299 33.666 122.565 33.9553 122.901 34.17C123.247 34.3753 123.643 34.478 124.091 34.478ZM126.359 25.714H127.703V35.5H126.471C126.443 35.2947 126.415 35.0427 126.387 34.744C126.369 34.4453 126.359 34.1887 126.359 33.974V25.714Z" fill="#041004"/>
<rect x="575" y="20.5" width="54" height="22" rx="4" fill="#F9FAFB"/>
<path d="M588.34 35.49L583.46 35.5V34.75L585.79 32.74C586.96 31.73 587.29 31.24 587.29 30.47C587.29 29.56 586.77 29.02 585.9 29.02C585.01 29.02 584.43 29.67 584.41 30.7H583.43C583.46 29.15 584.44 28.14 585.91 28.14C587.36 28.14 588.29 29.02 588.29 30.41C588.29 31.44 587.78 32.17 586.5 33.28L585 34.58H588.34V35.49ZM589.742 31.89C589.742 29.65 590.902 28.13 592.722 28.13C594.532 28.13 595.692 29.65 595.692 31.89C595.692 34.14 594.582 35.63 592.722 35.63C590.852 35.63 589.742 34.14 589.742 31.89ZM590.712 31.89C590.712 33.67 591.452 34.75 592.722 34.75C593.992 34.75 594.722 33.67 594.722 31.89C594.722 30.09 593.992 29.01 592.722 29.01C591.452 29.01 590.712 30.09 590.712 31.89ZM602.026 35.49L597.146 35.5V34.75L599.476 32.74C600.646 31.73 600.976 31.24 600.976 30.47C600.976 29.56 600.456 29.02 599.586 29.02C598.696 29.02 598.116 29.67 598.096 30.7H597.116C597.146 29.15 598.126 28.14 599.596 28.14C601.046 28.14 601.976 29.02 601.976 30.41C601.976 31.44 601.466 32.17 600.186 33.28L598.686 34.58H602.026V35.49ZM605.537 31.76H604.817V31.11L606.867 29.14H603.617V28.27H608.107V29.06L606.127 30.95C607.357 31.1 608.287 31.93 608.287 33.23C608.287 34.69 607.187 35.62 605.717 35.62C604.297 35.62 603.277 34.75 603.277 33.25H604.247C604.247 34.19 604.827 34.74 605.737 34.74C606.677 34.74 607.287 34.14 607.287 33.21C607.287 32.34 606.687 31.76 605.537 31.76Z" fill="#041004"/>
<path d="M617 33.1002C616.767 33.1002 616.533 33.0102 616.357 32.8335L614.183 30.6602C614.087 30.5635 614.087 30.4035 614.183 30.3069C614.28 30.2102 614.44 30.2102 614.537 30.3069L616.71 32.4802C616.87 32.6402 617.13 32.6402 617.29 32.4802L619.463 30.3069C619.56 30.2102 619.72 30.2102 619.817 30.3069C619.913 30.4035 619.913 30.5635 619.817 30.6602L617.643 32.8335C617.467 33.0102 617.233 33.1002 617 33.1002Z" fill="#041004"/>
</g>
<defs>
<clipPath id="clip0_4657_48405">
<rect width="657" height="312" fill="white" transform="translate(0 0.5)"/>
</clipPath>
</defs>
</svg>
