<svg width="704" height="241" viewBox="0 0 704 241" fill="none" xmlns="http://www.w3.org/2000/svg">
<rect x="650" width="54" height="22" rx="4" fill="#F9FAFB"/>
<path d="M663.34 14.99L658.46 15V14.25L660.79 12.24C661.96 11.23 662.29 10.74 662.29 9.97C662.29 9.06 661.77 8.52 660.9 8.52C660.01 8.52 659.43 9.17 659.41 10.2H658.43C658.46 8.65 659.44 7.64 660.91 7.64C662.36 7.64 663.29 8.52 663.29 9.91C663.29 10.94 662.78 11.67 661.5 12.78L660 14.08H663.34V14.99ZM664.742 11.39C664.742 9.15 665.902 7.63 667.722 7.63C669.532 7.63 670.692 9.15 670.692 11.39C670.692 13.64 669.582 15.13 667.722 15.13C665.852 15.13 664.742 13.64 664.742 11.39ZM665.712 11.39C665.712 13.17 666.452 14.25 667.722 14.25C668.992 14.25 669.722 13.17 669.722 11.39C669.722 9.59 668.992 8.51 667.722 8.51C666.452 8.51 665.712 9.59 665.712 11.39ZM677.026 14.99L672.146 15V14.25L674.476 12.24C675.646 11.23 675.976 10.74 675.976 9.97C675.976 9.06 675.456 8.52 674.586 8.52C673.696 8.52 673.116 9.17 673.096 10.2H672.116C672.146 8.65 673.126 7.64 674.596 7.64C676.046 7.64 676.976 8.52 676.976 9.91C676.976 10.94 676.466 11.67 675.186 12.78L673.686 14.08H677.026V14.99ZM680.537 11.26H679.817V10.61L681.867 8.64H678.617V7.77H683.107V8.56L681.127 10.45C682.357 10.6 683.287 11.43 683.287 12.73C683.287 14.19 682.187 15.12 680.717 15.12C679.297 15.12 678.277 14.25 678.277 12.75H679.247C679.247 13.69 679.827 14.24 680.737 14.24C681.677 14.24 682.287 13.64 682.287 12.71C682.287 11.84 681.687 11.26 680.537 11.26Z" fill="#041004"/>
<path d="M691.999 12.6002C691.765 12.6002 691.532 12.5102 691.355 12.3335L689.182 10.1602C689.085 10.0635 689.085 9.90354 689.182 9.80687C689.279 9.71021 689.439 9.71021 689.535 9.80687L691.709 11.9802C691.869 12.1402 692.129 12.1402 692.289 11.9802L694.462 9.80687C694.559 9.71021 694.719 9.71021 694.815 9.80687C694.912 9.90354 694.912 10.0635 694.815 10.1602L692.642 12.3335C692.465 12.5102 692.232 12.6002 691.999 12.6002Z" fill="#041004"/>
<path d="M6.98 11.78C6.92 12.2667 6.75333 12.6833 6.48 13.03C6.21333 13.3767 5.86333 13.6433 5.43 13.83C4.99667 14.0167 4.50333 14.11 3.95 14.11C3.45 14.11 2.99 14.0333 2.57 13.88C2.15667 13.7267 1.79667 13.5067 1.49 13.22C1.18333 12.9333 0.943333 12.5833 0.77 12.17C0.596667 11.75 0.51 11.28 0.51 10.76C0.51 10.2333 0.596667 9.76333 0.77 9.35C0.943333 8.93667 1.18333 8.58667 1.49 8.3C1.79667 8.00667 2.15667 7.78333 2.57 7.63C2.99 7.47667 3.45 7.4 3.95 7.4C4.51 7.4 5.00667 7.49667 5.44 7.69C5.87333 7.87667 6.22333 8.14667 6.49 8.5C6.76333 8.84667 6.93 9.26333 6.99 9.75H6.07C5.98333 9.43667 5.84 9.17 5.64 8.95C5.44 8.73 5.19667 8.56333 4.91 8.45C4.62333 8.33 4.30333 8.27 3.95 8.27C3.49667 8.27 3.08333 8.36667 2.71 8.56C2.33667 8.75333 2.03667 9.03333 1.81 9.4C1.59 9.76667 1.48 10.22 1.48 10.76C1.48 11.2933 1.59 11.7467 1.81 12.12C2.03667 12.4867 2.33667 12.7667 2.71 12.96C3.08333 13.1467 3.49667 13.24 3.95 13.24C4.30333 13.24 4.62 13.1833 4.9 13.07C5.18667 12.9567 5.43 12.79 5.63 12.57C5.83 12.35 5.97667 12.0867 6.07 11.78H6.98ZM9.99 14.1C9.56333 14.1 9.17333 13.99 8.82 13.77C8.46667 13.55 8.18667 13.2467 7.98 12.86C7.77333 12.4667 7.67 12.0167 7.67 11.51C7.67 11.0033 7.77333 10.5567 7.98 10.17C8.19333 9.77667 8.48333 9.47 8.85 9.25C9.21667 9.02333 9.62667 8.91 10.08 8.91C10.58 8.91 10.9667 9.02667 11.24 9.26C11.52 9.49333 11.7133 9.80667 11.82 10.2C11.9333 10.5933 11.99 11.03 11.99 11.51C11.99 11.7767 11.9567 12.06 11.89 12.36C11.8233 12.66 11.7167 12.9433 11.57 13.21C11.4233 13.4767 11.22 13.6933 10.96 13.86C10.7 14.02 10.3767 14.1 9.99 14.1ZM10.26 13.27C10.6133 13.27 10.91 13.1933 11.15 13.04C11.3967 12.88 11.58 12.6667 11.7 12.4C11.82 12.1333 11.88 11.8367 11.88 11.51C11.88 11.1567 11.8167 10.8467 11.69 10.58C11.57 10.3133 11.3867 10.1067 11.14 9.96C10.9 9.81333 10.6067 9.74 10.26 9.74C9.74 9.74 9.33667 9.90667 9.05 10.24C8.77 10.5733 8.63 10.9967 8.63 11.51C8.63 11.8567 8.7 12.1633 8.84 12.43C8.98 12.69 9.17 12.8967 9.41 13.05C9.65667 13.1967 9.94 13.27 10.26 13.27ZM11.88 9.01H12.84V14H11.96C11.96 14 11.9533 13.94 11.94 13.82C11.9267 13.6933 11.9133 13.5433 11.9 13.37C11.8867 13.1967 11.88 13.0433 11.88 12.91V9.01ZM13.6721 12.38H14.5521C14.5854 12.6467 14.7054 12.8667 14.9121 13.04C15.1188 13.2067 15.4088 13.29 15.7821 13.29C16.0221 13.29 16.2088 13.2633 16.3421 13.21C16.4754 13.15 16.5688 13.07 16.6221 12.97C16.6821 12.87 16.7121 12.76 16.7121 12.64C16.7121 12.4867 16.6721 12.37 16.5921 12.29C16.5121 12.2033 16.3988 12.1333 16.2521 12.08C16.1054 12.02 15.9321 11.9633 15.7321 11.91C15.5121 11.85 15.2921 11.78 15.0721 11.7C14.8521 11.62 14.6488 11.5233 14.4621 11.41C14.2821 11.2967 14.1354 11.1567 14.0221 10.99C13.9154 10.8167 13.8621 10.6067 13.8621 10.36C13.8621 10.1533 13.9054 9.96 13.9921 9.78C14.0854 9.6 14.2154 9.44667 14.3821 9.32C14.5554 9.18667 14.7554 9.08667 14.9821 9.02C15.2088 8.94667 15.4588 8.91 15.7321 8.91C16.1121 8.91 16.4321 8.98 16.6921 9.12C16.9521 9.25333 17.1488 9.44333 17.2821 9.69C17.4221 9.93667 17.4954 10.22 17.5021 10.54H16.6621C16.6154 10.26 16.5188 10.0567 16.3721 9.93C16.2254 9.79667 16.0054 9.73 15.7121 9.73C15.4254 9.73 15.2054 9.78667 15.0521 9.9C14.8988 10.0133 14.8221 10.1667 14.8221 10.36C14.8221 10.5067 14.8754 10.6267 14.9821 10.72C15.0888 10.8067 15.2321 10.8833 15.4121 10.95C15.5921 11.0167 15.7954 11.0867 16.0221 11.16C16.2354 11.2333 16.4388 11.31 16.6321 11.39C16.8321 11.4633 17.0088 11.5533 17.1621 11.66C17.3221 11.76 17.4454 11.8933 17.5321 12.06C17.6254 12.22 17.6721 12.42 17.6721 12.66C17.6721 12.9533 17.5988 13.21 17.4521 13.43C17.3054 13.6433 17.0921 13.81 16.8121 13.93C16.5388 14.05 16.2054 14.11 15.8121 14.11C15.4521 14.11 15.1454 14.0667 14.8921 13.98C14.6454 13.8933 14.4354 13.78 14.2621 13.64C14.0954 13.5 13.9654 13.3533 13.8721 13.2C13.7854 13.04 13.7254 12.8867 13.6921 12.74C13.6654 12.5933 13.6588 12.4733 13.6721 12.38ZM22.3473 14V10.99C22.3473 10.7233 22.3039 10.5033 22.2173 10.33C22.1306 10.1567 22.0006 10.0267 21.8273 9.94C21.6539 9.84667 21.4339 9.8 21.1673 9.8C20.8739 9.8 20.6039 9.87 20.3573 10.01C20.1173 10.1433 19.9206 10.3267 19.7673 10.56C19.6139 10.7867 19.5206 11.0433 19.4873 11.33L19.4773 10.76C19.5106 10.5 19.5806 10.2567 19.6873 10.03C19.8006 9.80333 19.9406 9.60667 20.1073 9.44C20.2806 9.27333 20.4806 9.14333 20.7073 9.05C20.9339 8.95667 21.1806 8.91 21.4473 8.91C21.7273 8.91 21.9806 8.95 22.2073 9.03C22.4339 9.10333 22.6273 9.22 22.7873 9.38C22.9539 9.53333 23.0806 9.72333 23.1673 9.95C23.2539 10.17 23.2973 10.4233 23.2973 10.71V14H22.3473ZM18.5973 14V7.01H19.5473V14H18.5973ZM27.3813 14.1C26.9879 14.1 26.6613 14.02 26.4013 13.86C26.1479 13.6933 25.9446 13.4767 25.7913 13.21C25.6446 12.9433 25.5379 12.66 25.4713 12.36C25.4046 12.06 25.3713 11.7767 25.3713 11.51C25.3713 11.15 25.4013 10.8133 25.4613 10.5C25.5279 10.1867 25.6346 9.91 25.7813 9.67C25.9279 9.43 26.1313 9.24333 26.3913 9.11C26.6513 8.97667 26.9813 8.91 27.3813 8.91C27.8279 8.91 28.2246 9.02333 28.5713 9.25C28.9246 9.47 29.2013 9.77667 29.4013 10.17C29.6013 10.5567 29.7013 11.0033 29.7013 11.51C29.7013 12.0167 29.5979 12.4667 29.3913 12.86C29.1846 13.2467 28.9046 13.55 28.5513 13.77C28.2046 13.99 27.8146 14.1 27.3813 14.1ZM27.1113 13.27C27.4313 13.27 27.7113 13.1967 27.9513 13.05C28.1979 12.8967 28.3879 12.69 28.5213 12.43C28.6613 12.1633 28.7313 11.8567 28.7313 11.51C28.7313 10.9967 28.5879 10.5733 28.3013 10.24C28.0213 9.90667 27.6246 9.74 27.1113 9.74C26.7646 9.74 26.4679 9.81333 26.2213 9.96C25.9813 10.1067 25.7979 10.3133 25.6713 10.58C25.5446 10.8467 25.4813 11.1567 25.4813 11.51C25.4813 11.8367 25.5413 12.1333 25.6613 12.4C25.7879 12.6667 25.9713 12.88 26.2113 13.04C26.4579 13.1933 26.7579 13.27 27.1113 13.27ZM25.4813 7.01V12.91C25.4813 13.0633 25.4713 13.2467 25.4513 13.46C25.4379 13.6733 25.4246 13.8533 25.4113 14H24.5313V7.01H25.4813ZM32.5494 14.1C32.1227 14.1 31.7327 13.99 31.3794 13.77C31.026 13.55 30.746 13.2467 30.5394 12.86C30.3327 12.4667 30.2294 12.0167 30.2294 11.51C30.2294 11.0033 30.3327 10.5567 30.5394 10.17C30.7527 9.77667 31.0427 9.47 31.4094 9.25C31.776 9.02333 32.186 8.91 32.6394 8.91C33.1394 8.91 33.526 9.02667 33.7994 9.26C34.0794 9.49333 34.2727 9.80667 34.3794 10.2C34.4927 10.5933 34.5494 11.03 34.5494 11.51C34.5494 11.7767 34.516 12.06 34.4494 12.36C34.3827 12.66 34.276 12.9433 34.1294 13.21C33.9827 13.4767 33.7794 13.6933 33.5194 13.86C33.2594 14.02 32.936 14.1 32.5494 14.1ZM32.8194 13.27C33.1727 13.27 33.4694 13.1933 33.7094 13.04C33.956 12.88 34.1394 12.6667 34.2594 12.4C34.3794 12.1333 34.4394 11.8367 34.4394 11.51C34.4394 11.1567 34.376 10.8467 34.2494 10.58C34.1294 10.3133 33.946 10.1067 33.6994 9.96C33.4594 9.81333 33.166 9.74 32.8194 9.74C32.2994 9.74 31.896 9.90667 31.6094 10.24C31.3294 10.5733 31.1894 10.9967 31.1894 11.51C31.1894 11.8567 31.2594 12.1633 31.3994 12.43C31.5394 12.69 31.7294 12.8967 31.9694 13.05C32.216 13.1967 32.4994 13.27 32.8194 13.27ZM34.4394 9.01H35.3994V14H34.5194C34.5194 14 34.5127 13.94 34.4994 13.82C34.486 13.6933 34.4727 13.5433 34.4594 13.37C34.446 13.1967 34.4394 13.0433 34.4394 12.91V9.01ZM41.3415 12.1C41.3015 12.5133 41.1682 12.8733 40.9415 13.18C40.7215 13.48 40.4315 13.71 40.0715 13.87C39.7115 14.03 39.3115 14.11 38.8715 14.11C38.3848 14.11 37.9382 14.01 37.5315 13.81C37.1248 13.6033 36.7982 13.3067 36.5515 12.92C36.3115 12.5267 36.1915 12.06 36.1915 11.52C36.1915 10.9733 36.3115 10.5067 36.5515 10.12C36.7982 9.72667 37.1248 9.42667 37.5315 9.22C37.9382 9.01333 38.3848 8.91 38.8715 8.91C39.3115 8.91 39.7082 8.99 40.0615 9.15C40.4148 9.31 40.7048 9.54 40.9315 9.84C41.1582 10.1333 41.2948 10.4867 41.3415 10.9H40.4715C40.3582 10.54 40.1548 10.2567 39.8615 10.05C39.5748 9.83667 39.2448 9.73 38.8715 9.73C38.5648 9.73 38.2782 9.8 38.0115 9.94C37.7515 10.08 37.5415 10.2833 37.3815 10.55C37.2282 10.81 37.1515 11.1333 37.1515 11.52C37.1515 11.8933 37.2282 12.2133 37.3815 12.48C37.5415 12.74 37.7515 12.94 38.0115 13.08C38.2715 13.2133 38.5582 13.28 38.8715 13.28C39.2982 13.28 39.6448 13.1767 39.9115 12.97C40.1782 12.7633 40.3682 12.4733 40.4815 12.1H41.3415ZM42.2602 7.01H43.2102V14H42.2602V7.01ZM46.8102 9.01L44.1702 11.52L44.1902 10.92L47.0002 14H45.7902L43.2302 11.21L45.4802 9.01H46.8102ZM49.6736 14V7.51H53.0136C53.4803 7.51 53.8803 7.58 54.2136 7.72C54.5536 7.85333 54.8136 8.06 54.9936 8.34C55.1736 8.61333 55.2636 8.96333 55.2636 9.39C55.2636 9.68333 55.2136 9.93333 55.1136 10.14C55.0203 10.34 54.8903 10.5067 54.7236 10.64C54.5569 10.7733 54.3603 10.8767 54.1336 10.95C53.9069 11.0233 53.6636 11.07 53.4036 11.09L53.3336 11.03C53.7269 11.0433 54.0569 11.0867 54.3236 11.16C54.5903 11.2333 54.7936 11.3667 54.9336 11.56C55.0803 11.7467 55.1536 12.0267 55.1536 12.4V14H54.1836V12.43C54.1836 12.17 54.1403 11.9667 54.0536 11.82C53.9669 11.6733 53.8169 11.57 53.6036 11.51C53.3903 11.45 53.0903 11.42 52.7036 11.42H50.6336V14H49.6736ZM50.6336 10.58H53.0136C53.4403 10.58 53.7603 10.4733 53.9736 10.26C54.1936 10.0467 54.3036 9.76667 54.3036 9.42C54.3036 9.08667 54.1936 8.83 53.9736 8.65C53.7603 8.47 53.4403 8.38 53.0136 8.38H50.6336V10.58ZM60.146 12.38H61.056C61.0027 12.7067 60.876 13 60.676 13.26C60.476 13.52 60.2127 13.7267 59.886 13.88C59.5593 14.0333 59.176 14.11 58.736 14.11C58.216 14.11 57.7527 14 57.346 13.78C56.9393 13.56 56.6193 13.2567 56.386 12.87C56.1527 12.4833 56.036 12.0333 56.036 11.52C56.036 11 56.1493 10.5467 56.376 10.16C56.6027 9.76667 56.916 9.46 57.316 9.24C57.716 9.02 58.1727 8.91 58.686 8.91C59.226 8.91 59.6793 9.01667 60.046 9.23C60.4127 9.44333 60.6827 9.76 60.856 10.18C61.036 10.5933 61.1093 11.11 61.076 11.73H56.986C57.0193 12.03 57.1093 12.2967 57.256 12.53C57.4093 12.7633 57.6093 12.9467 57.856 13.08C58.1093 13.2133 58.3993 13.28 58.726 13.28C59.0927 13.28 59.3993 13.1967 59.646 13.03C59.8927 12.8633 60.0593 12.6467 60.146 12.38ZM58.696 9.73C58.2627 9.73 57.9027 9.84667 57.616 10.08C57.3293 10.3067 57.1393 10.61 57.046 10.99H60.116C60.0893 10.5833 59.9427 10.2733 59.676 10.06C59.4093 9.84 59.0827 9.73 58.696 9.73ZM67.191 13.22L66.931 13.21L68.241 9.01H69.281L67.551 14H66.651L65.141 9.73H65.411L63.881 14H62.981L61.271 9.01H62.321L63.591 13.21L63.331 13.22L64.711 9.01H65.841L67.191 13.22ZM71.7939 14.1C71.3672 14.1 70.9772 13.99 70.6239 13.77C70.2706 13.55 69.9906 13.2467 69.7839 12.86C69.5772 12.4667 69.4739 12.0167 69.4739 11.51C69.4739 11.0033 69.5772 10.5567 69.7839 10.17C69.9972 9.77667 70.2872 9.47 70.6539 9.25C71.0206 9.02333 71.4306 8.91 71.8839 8.91C72.3839 8.91 72.7706 9.02667 73.0439 9.26C73.3239 9.49333 73.5172 9.80667 73.6239 10.2C73.7372 10.5933 73.7939 11.03 73.7939 11.51C73.7939 11.7767 73.7606 12.06 73.6939 12.36C73.6272 12.66 73.5206 12.9433 73.3739 13.21C73.2272 13.4767 73.0239 13.6933 72.7639 13.86C72.5039 14.02 72.1806 14.1 71.7939 14.1ZM72.0639 13.27C72.4172 13.27 72.7139 13.1933 72.9539 13.04C73.2006 12.88 73.3839 12.6667 73.5039 12.4C73.6239 12.1333 73.6839 11.8367 73.6839 11.51C73.6839 11.1567 73.6206 10.8467 73.4939 10.58C73.3739 10.3133 73.1906 10.1067 72.9439 9.96C72.7039 9.81333 72.4106 9.74 72.0639 9.74C71.5439 9.74 71.1406 9.90667 70.8539 10.24C70.5739 10.5733 70.4339 10.9967 70.4339 11.51C70.4339 11.8567 70.5039 12.1633 70.6439 12.43C70.7839 12.69 70.9739 12.8967 71.2139 13.05C71.4606 13.1967 71.7439 13.27 72.0639 13.27ZM73.6839 9.01H74.6439V14H73.7639C73.7639 14 73.7572 13.94 73.7439 13.82C73.7306 13.6933 73.7172 13.5433 73.7039 13.37C73.6906 13.1967 73.6839 13.0433 73.6839 12.91V9.01ZM75.696 9.01H76.656V14H75.696V9.01ZM78.346 9.86C77.9994 9.86 77.7027 9.94 77.456 10.1C77.216 10.26 77.0227 10.4567 76.876 10.69C76.736 10.9233 76.6427 11.1467 76.596 11.36L76.586 10.79C76.5927 10.7233 76.6094 10.62 76.636 10.48C76.6694 10.3333 76.726 10.17 76.806 9.99C76.886 9.81 76.9927 9.64 77.126 9.48C77.2594 9.31333 77.426 9.17667 77.626 9.07C77.826 8.96333 78.066 8.91 78.346 8.91V9.86ZM81.0716 14.1C80.6383 14.1 80.245 13.99 79.8916 13.77C79.5383 13.55 79.2583 13.2467 79.0516 12.86C78.8516 12.4667 78.7516 12.0167 78.7516 11.51C78.7516 11.0033 78.8516 10.5567 79.0516 10.17C79.2516 9.77667 79.525 9.47 79.8716 9.25C80.2183 9.02333 80.6183 8.91 81.0716 8.91C81.465 8.91 81.7916 8.97667 82.0516 9.11C82.3116 9.24333 82.515 9.43 82.6616 9.67C82.8083 9.91 82.9116 10.1867 82.9716 10.5C83.0383 10.8133 83.0716 11.15 83.0716 11.51C83.0716 11.7767 83.0383 12.06 82.9716 12.36C82.905 12.66 82.7983 12.9433 82.6516 13.21C82.505 13.4767 82.3016 13.6933 82.0416 13.86C81.7816 14.02 81.4583 14.1 81.0716 14.1ZM81.3416 13.27C81.695 13.27 81.9916 13.1933 82.2316 13.04C82.4783 12.88 82.6616 12.6667 82.7816 12.4C82.9016 12.1333 82.9616 11.8367 82.9616 11.51C82.9616 11.1567 82.8983 10.8467 82.7716 10.58C82.6516 10.3133 82.4683 10.1067 82.2216 9.96C81.9816 9.81333 81.6883 9.74 81.3416 9.74C80.8216 9.74 80.4183 9.90667 80.1316 10.24C79.8516 10.5733 79.7116 10.9967 79.7116 11.51C79.7116 11.8567 79.7816 12.1633 79.9216 12.43C80.0616 12.69 80.2516 12.8967 80.4916 13.05C80.7383 13.1967 81.0216 13.27 81.3416 13.27ZM82.9616 7.01H83.9216V14H83.0416C83.0216 13.8533 83.0016 13.6733 82.9816 13.46C82.9683 13.2467 82.9616 13.0633 82.9616 12.91V7.01ZM84.9295 12.38H85.8095C85.8429 12.6467 85.9629 12.8667 86.1695 13.04C86.3762 13.2067 86.6662 13.29 87.0395 13.29C87.2795 13.29 87.4662 13.2633 87.5995 13.21C87.7329 13.15 87.8262 13.07 87.8795 12.97C87.9395 12.87 87.9695 12.76 87.9695 12.64C87.9695 12.4867 87.9295 12.37 87.8495 12.29C87.7695 12.2033 87.6562 12.1333 87.5095 12.08C87.3629 12.02 87.1895 11.9633 86.9895 11.91C86.7695 11.85 86.5495 11.78 86.3295 11.7C86.1095 11.62 85.9062 11.5233 85.7195 11.41C85.5395 11.2967 85.3929 11.1567 85.2795 10.99C85.1729 10.8167 85.1195 10.6067 85.1195 10.36C85.1195 10.1533 85.1629 9.96 85.2495 9.78C85.3429 9.6 85.4729 9.44667 85.6395 9.32C85.8129 9.18667 86.0129 9.08667 86.2395 9.02C86.4662 8.94667 86.7162 8.91 86.9895 8.91C87.3695 8.91 87.6895 8.98 87.9495 9.12C88.2095 9.25333 88.4062 9.44333 88.5395 9.69C88.6795 9.93667 88.7529 10.22 88.7595 10.54H87.9195C87.8729 10.26 87.7762 10.0567 87.6295 9.93C87.4829 9.79667 87.2629 9.73 86.9695 9.73C86.6829 9.73 86.4629 9.78667 86.3095 9.9C86.1562 10.0133 86.0795 10.1667 86.0795 10.36C86.0795 10.5067 86.1329 10.6267 86.2395 10.72C86.3462 10.8067 86.4895 10.8833 86.6695 10.95C86.8495 11.0167 87.0529 11.0867 87.2795 11.16C87.4929 11.2333 87.6962 11.31 87.8895 11.39C88.0895 11.4633 88.2662 11.5533 88.4195 11.66C88.5795 11.76 88.7029 11.8933 88.7895 12.06C88.8829 12.22 88.9295 12.42 88.9295 12.66C88.9295 12.9533 88.8562 13.21 88.7095 13.43C88.5629 13.6433 88.3495 13.81 88.0695 13.93C87.7962 14.05 87.4629 14.11 87.0695 14.11C86.7095 14.11 86.4029 14.0667 86.1495 13.98C85.9029 13.8933 85.6929 13.78 85.5195 13.64C85.3529 13.5 85.2229 13.3533 85.1295 13.2C85.0429 13.04 84.9829 12.8867 84.9495 12.74C84.9229 12.5933 84.9162 12.4733 84.9295 12.38ZM94.492 7.51C95.1653 7.51 95.7286 7.59667 96.182 7.77C96.642 7.93667 97.0086 8.17 97.282 8.47C97.562 8.77 97.762 9.11333 97.882 9.5C98.002 9.88667 98.062 10.2967 98.062 10.73C98.062 11.1567 97.9953 11.5667 97.862 11.96C97.7353 12.3533 97.5286 12.7033 97.242 13.01C96.962 13.3167 96.5953 13.56 96.142 13.74C95.6886 13.9133 95.1386 14 94.492 14H91.892V7.51H94.492ZM92.852 13.13H94.482C94.9953 13.13 95.4186 13.0633 95.752 12.93C96.0853 12.79 96.3486 12.6067 96.542 12.38C96.742 12.1467 96.882 11.8867 96.962 11.6C97.0486 11.3133 97.092 11.0233 97.092 10.73C97.092 10.43 97.0486 10.14 96.962 9.86C96.882 9.58 96.742 9.33 96.542 9.11C96.3486 8.88333 96.0853 8.70667 95.752 8.58C95.4186 8.44667 94.9953 8.38 94.482 8.38H92.852V13.13ZM100.153 6.95V7.98H98.9627V6.95H100.153ZM99.0827 9.01H100.033V14H99.0827V9.01ZM100.965 12.38H101.845C101.879 12.6467 101.999 12.8667 102.205 13.04C102.412 13.2067 102.702 13.29 103.075 13.29C103.315 13.29 103.502 13.2633 103.635 13.21C103.769 13.15 103.862 13.07 103.915 12.97C103.975 12.87 104.005 12.76 104.005 12.64C104.005 12.4867 103.965 12.37 103.885 12.29C103.805 12.2033 103.692 12.1333 103.545 12.08C103.399 12.02 103.225 11.9633 103.025 11.91C102.805 11.85 102.585 11.78 102.365 11.7C102.145 11.62 101.942 11.5233 101.755 11.41C101.575 11.2967 101.429 11.1567 101.315 10.99C101.209 10.8167 101.155 10.6067 101.155 10.36C101.155 10.1533 101.199 9.96 101.285 9.78C101.379 9.6 101.509 9.44667 101.675 9.32C101.849 9.18667 102.049 9.08667 102.275 9.02C102.502 8.94667 102.752 8.91 103.025 8.91C103.405 8.91 103.725 8.98 103.985 9.12C104.245 9.25333 104.442 9.44333 104.575 9.69C104.715 9.93667 104.789 10.22 104.795 10.54H103.955C103.909 10.26 103.812 10.0567 103.665 9.93C103.519 9.79667 103.299 9.73 103.005 9.73C102.719 9.73 102.499 9.78667 102.345 9.9C102.192 10.0133 102.115 10.1667 102.115 10.36C102.115 10.5067 102.169 10.6267 102.275 10.72C102.382 10.8067 102.525 10.8833 102.705 10.95C102.885 11.0167 103.089 11.0867 103.315 11.16C103.529 11.2333 103.732 11.31 103.925 11.39C104.125 11.4633 104.302 11.5533 104.455 11.66C104.615 11.76 104.739 11.8933 104.825 12.06C104.919 12.22 104.965 12.42 104.965 12.66C104.965 12.9533 104.892 13.21 104.745 13.43C104.599 13.6433 104.385 13.81 104.105 13.93C103.832 14.05 103.499 14.11 103.105 14.11C102.745 14.11 102.439 14.0667 102.185 13.98C101.939 13.8933 101.729 13.78 101.555 13.64C101.389 13.5 101.259 13.3533 101.165 13.2C101.079 13.04 101.019 12.8867 100.985 12.74C100.959 12.5933 100.952 12.4733 100.965 12.38ZM108.791 14.1C108.397 14.1 108.071 14.02 107.811 13.86C107.557 13.6933 107.354 13.4767 107.201 13.21C107.054 12.9433 106.947 12.66 106.881 12.36C106.814 12.06 106.781 11.7767 106.781 11.51C106.781 11.15 106.811 10.8133 106.871 10.5C106.937 10.1867 107.044 9.91 107.191 9.67C107.337 9.43 107.541 9.24333 107.801 9.11C108.061 8.97667 108.391 8.91 108.791 8.91C109.237 8.91 109.634 9.02333 109.981 9.25C110.334 9.47 110.611 9.77667 110.811 10.17C111.011 10.5567 111.111 11.0033 111.111 11.51C111.111 12.0167 111.007 12.4667 110.801 12.86C110.594 13.2467 110.314 13.55 109.961 13.77C109.614 13.99 109.224 14.1 108.791 14.1ZM108.521 13.27C108.841 13.27 109.121 13.1967 109.361 13.05C109.607 12.8967 109.797 12.69 109.931 12.43C110.071 12.1633 110.141 11.8567 110.141 11.51C110.141 10.9967 109.997 10.5733 109.711 10.24C109.431 9.90667 109.034 9.74 108.521 9.74C108.174 9.74 107.877 9.81333 107.631 9.96C107.391 10.1067 107.207 10.3133 107.081 10.58C106.954 10.8467 106.891 11.1567 106.891 11.51C106.891 11.8367 106.951 12.1333 107.071 12.4C107.197 12.6667 107.381 12.88 107.621 13.04C107.867 13.1933 108.167 13.27 108.521 13.27ZM106.891 7.01V12.91C106.891 13.0633 106.881 13.2467 106.861 13.46C106.847 13.6733 106.834 13.8533 106.821 14H105.941V7.01H106.891ZM116.609 14H115.659V9.01H116.609V14ZM115.709 11.65L115.719 11.95C115.712 12.0367 115.689 12.1667 115.649 12.34C115.615 12.5067 115.555 12.69 115.469 12.89C115.389 13.09 115.275 13.2833 115.129 13.47C114.989 13.6567 114.809 13.81 114.589 13.93C114.369 14.05 114.102 14.11 113.789 14.11C113.575 14.11 113.355 14.08 113.129 14.02C112.909 13.96 112.705 13.86 112.519 13.72C112.332 13.58 112.182 13.39 112.069 13.15C111.955 12.9033 111.899 12.5967 111.899 12.23V9.01H112.859V12.03C112.859 12.3367 112.905 12.5767 112.999 12.75C113.099 12.9233 113.239 13.0467 113.419 13.12C113.599 13.1933 113.802 13.23 114.029 13.23C114.375 13.23 114.665 13.1467 114.899 12.98C115.139 12.8067 115.325 12.6 115.459 12.36C115.592 12.1133 115.675 11.8767 115.709 11.65ZM117.666 9.01H118.626V14H117.666V9.01ZM120.316 9.86C119.969 9.86 119.672 9.94 119.426 10.1C119.186 10.26 118.992 10.4567 118.846 10.69C118.706 10.9233 118.612 11.1467 118.566 11.36L118.556 10.79C118.562 10.7233 118.579 10.62 118.606 10.48C118.639 10.3333 118.696 10.17 118.776 9.99C118.856 9.81 118.962 9.64 119.096 9.48C119.229 9.31333 119.396 9.17667 119.596 9.07C119.796 8.96333 120.036 8.91 120.316 8.91V9.86ZM120.761 12.38H121.641C121.675 12.6467 121.795 12.8667 122.001 13.04C122.208 13.2067 122.498 13.29 122.871 13.29C123.111 13.29 123.298 13.2633 123.431 13.21C123.565 13.15 123.658 13.07 123.711 12.97C123.771 12.87 123.801 12.76 123.801 12.64C123.801 12.4867 123.761 12.37 123.681 12.29C123.601 12.2033 123.488 12.1333 123.341 12.08C123.195 12.02 123.021 11.9633 122.821 11.91C122.601 11.85 122.381 11.78 122.161 11.7C121.941 11.62 121.738 11.5233 121.551 11.41C121.371 11.2967 121.225 11.1567 121.111 10.99C121.005 10.8167 120.951 10.6067 120.951 10.36C120.951 10.1533 120.995 9.96 121.081 9.78C121.175 9.6 121.305 9.44667 121.471 9.32C121.645 9.18667 121.845 9.08667 122.071 9.02C122.298 8.94667 122.548 8.91 122.821 8.91C123.201 8.91 123.521 8.98 123.781 9.12C124.041 9.25333 124.238 9.44333 124.371 9.69C124.511 9.93667 124.585 10.22 124.591 10.54H123.751C123.705 10.26 123.608 10.0567 123.461 9.93C123.315 9.79667 123.095 9.73 122.801 9.73C122.515 9.73 122.295 9.78667 122.141 9.9C121.988 10.0133 121.911 10.1667 121.911 10.36C121.911 10.5067 121.965 10.6267 122.071 10.72C122.178 10.8067 122.321 10.8833 122.501 10.95C122.681 11.0167 122.885 11.0867 123.111 11.16C123.325 11.2333 123.528 11.31 123.721 11.39C123.921 11.4633 124.098 11.5533 124.251 11.66C124.411 11.76 124.535 11.8933 124.621 12.06C124.715 12.22 124.761 12.42 124.761 12.66C124.761 12.9533 124.688 13.21 124.541 13.43C124.395 13.6433 124.181 13.81 123.901 13.93C123.628 14.05 123.295 14.11 122.901 14.11C122.541 14.11 122.235 14.0667 121.981 13.98C121.735 13.8933 121.525 13.78 121.351 13.64C121.185 13.5 121.055 13.3533 120.961 13.2C120.875 13.04 120.815 12.8867 120.781 12.74C120.755 12.5933 120.748 12.4733 120.761 12.38ZM129.416 12.38H130.326C130.273 12.7067 130.146 13 129.946 13.26C129.746 13.52 129.483 13.7267 129.156 13.88C128.83 14.0333 128.446 14.11 128.006 14.11C127.486 14.11 127.023 14 126.616 13.78C126.21 13.56 125.89 13.2567 125.656 12.87C125.423 12.4833 125.306 12.0333 125.306 11.52C125.306 11 125.42 10.5467 125.646 10.16C125.873 9.76667 126.186 9.46 126.586 9.24C126.986 9.02 127.443 8.91 127.956 8.91C128.496 8.91 128.95 9.01667 129.316 9.23C129.683 9.44333 129.953 9.76 130.126 10.18C130.306 10.5933 130.38 11.11 130.346 11.73H126.256C126.29 12.03 126.38 12.2967 126.526 12.53C126.68 12.7633 126.88 12.9467 127.126 13.08C127.38 13.2133 127.67 13.28 127.996 13.28C128.363 13.28 128.67 13.1967 128.916 13.03C129.163 12.8633 129.33 12.6467 129.416 12.38ZM127.966 9.73C127.533 9.73 127.173 9.84667 126.886 10.08C126.6 10.3067 126.41 10.61 126.316 10.99H129.386C129.36 10.5833 129.213 10.2733 128.946 10.06C128.68 9.84 128.353 9.73 127.966 9.73ZM133.217 14.1C132.784 14.1 132.391 13.99 132.037 13.77C131.684 13.55 131.404 13.2467 131.197 12.86C130.997 12.4667 130.897 12.0167 130.897 11.51C130.897 11.0033 130.997 10.5567 131.197 10.17C131.397 9.77667 131.671 9.47 132.017 9.25C132.364 9.02333 132.764 8.91 133.217 8.91C133.611 8.91 133.937 8.97667 134.197 9.11C134.457 9.24333 134.661 9.43 134.807 9.67C134.954 9.91 135.057 10.1867 135.117 10.5C135.184 10.8133 135.217 11.15 135.217 11.51C135.217 11.7767 135.184 12.06 135.117 12.36C135.051 12.66 134.944 12.9433 134.797 13.21C134.651 13.4767 134.447 13.6933 134.187 13.86C133.927 14.02 133.604 14.1 133.217 14.1ZM133.487 13.27C133.841 13.27 134.137 13.1933 134.377 13.04C134.624 12.88 134.807 12.6667 134.927 12.4C135.047 12.1333 135.107 11.8367 135.107 11.51C135.107 11.1567 135.044 10.8467 134.917 10.58C134.797 10.3133 134.614 10.1067 134.367 9.96C134.127 9.81333 133.834 9.74 133.487 9.74C132.967 9.74 132.564 9.90667 132.277 10.24C131.997 10.5733 131.857 10.9967 131.857 11.51C131.857 11.8567 131.927 12.1633 132.067 12.43C132.207 12.69 132.397 12.8967 132.637 13.05C132.884 13.1967 133.167 13.27 133.487 13.27ZM135.107 7.01H136.067V14H135.187C135.167 13.8533 135.147 13.6733 135.127 13.46C135.114 13.2467 135.107 13.0633 135.107 12.91V7.01Z" fill="#041004"/>
<rect x="17.7656" y="219.717" width="678.932" height="0.935168" fill="#F7F7F7"/>
<rect x="17.7656" y="198.209" width="678.932" height="0.935168" fill="#F7F7F7"/>
<rect x="17.7656" y="176.699" width="678.932" height="0.935168" fill="#F7F7F7"/>
<rect x="17.7656" y="155.191" width="678.932" height="0.935168" fill="#F7F7F7"/>
<rect x="17.7656" y="133.682" width="678.932" height="0.935168" fill="#F7F7F7"/>
<rect x="17.7656" y="112.174" width="678.932" height="0.935168" fill="#F7F7F7"/>
<rect x="17.7656" y="90.6641" width="678.932" height="0.935168" fill="#F7F7F7"/>
<rect x="17.7656" y="69.1543" width="678.932" height="0.935168" fill="#F7F7F7"/>
<rect x="17.7656" y="47.6465" width="678.932" height="0.935168" fill="#F7F7F7"/>
<path d="M31.7857 237.251V234.247H32.4722V237.265C32.4722 237.504 32.4341 237.725 32.3578 237.93C32.2863 238.135 32.179 238.317 32.036 238.474C31.8929 238.626 31.7141 238.746 31.4996 238.831C31.2898 238.917 31.0467 238.96 30.7701 238.96C30.5413 238.96 30.3244 238.929 30.1194 238.867C29.9191 238.8 29.7403 238.705 29.583 238.581C29.4257 238.452 29.2993 238.295 29.204 238.109C29.1134 237.923 29.0633 237.711 29.0538 237.473H29.6903C29.7379 237.759 29.8595 237.976 30.055 238.123C30.2505 238.266 30.4889 238.338 30.7701 238.338C31.0085 238.338 31.2016 238.29 31.3494 238.195C31.4972 238.1 31.6069 237.971 31.6784 237.809C31.7499 237.647 31.7857 237.461 31.7857 237.251ZM34.5113 237.737V237.122H37V237.737H34.5113ZM33.5029 238.889L35.398 234.247H36.1275L38.0369 238.889H37.2932L35.634 234.698H35.8915L34.2395 238.889H33.5029ZM43.0206 238.131L42.8204 238.202V234.247H43.5141V238.889H42.8204L39.5808 235.02L39.781 234.948V238.889H39.0945V234.247H39.781L43.0206 238.131Z" fill="#B5BBC5"/>
<path d="M92.0227 234.247V234.862H89.0406V236.307H91.4792V236.908H89.0406V238.889H88.354V234.247H92.0227ZM93.8259 236.879V238.274H96.8152V238.889H93.1394V234.247H96.8081V234.862H93.8259V236.278H96.2646V236.879H93.8259ZM98.1692 238.889V234.247H100.257C100.782 234.247 101.187 234.355 101.473 234.569C101.759 234.784 101.902 235.091 101.902 235.492C101.902 235.74 101.847 235.94 101.738 236.092C101.633 236.245 101.483 236.359 101.287 236.436C101.092 236.507 100.863 236.555 100.601 236.579L100.615 236.529C100.81 236.538 100.994 236.56 101.166 236.593C101.342 236.626 101.495 236.681 101.623 236.758C101.757 236.834 101.862 236.939 101.938 237.072C102.019 237.206 102.06 237.38 102.06 237.594C102.06 237.876 101.993 238.112 101.859 238.302C101.726 238.488 101.54 238.629 101.302 238.724C101.068 238.82 100.796 238.874 100.486 238.889H98.1692ZM98.8557 238.274H100.358C100.672 238.274 100.918 238.216 101.094 238.102C101.271 237.988 101.359 237.806 101.359 237.558C101.359 237.368 101.304 237.225 101.194 237.129C101.085 237.034 100.942 236.972 100.765 236.943C100.594 236.915 100.415 236.901 100.229 236.901H98.8557V238.274ZM98.8557 236.293H100.2C100.515 236.293 100.76 236.231 100.937 236.107C101.113 235.978 101.201 235.792 101.201 235.549C101.201 235.301 101.113 235.125 100.937 235.02C100.76 234.915 100.536 234.862 100.265 234.862H98.8557V236.293Z" fill="#B5BBC5"/>
<path d="M149.306 238.502H149.013L151.294 234.247H151.981V238.889H151.294V235.327L151.445 235.363L149.521 238.889H148.799L146.875 235.37L147.025 235.334V238.889H146.338V234.247H147.025L149.306 238.502ZM154.05 237.737V237.122H156.538V237.737H154.05ZM153.041 238.889L154.936 234.247H155.666L157.575 238.889H156.832L155.172 234.698H155.43L153.778 238.889H153.041ZM158.633 238.889V234.247H161.021C161.355 234.247 161.641 234.297 161.88 234.398C162.123 234.493 162.309 234.641 162.437 234.841C162.566 235.036 162.63 235.287 162.63 235.592C162.63 235.802 162.595 235.98 162.523 236.128C162.456 236.271 162.363 236.39 162.244 236.486C162.125 236.581 161.984 236.655 161.822 236.707C161.66 236.76 161.486 236.793 161.3 236.808L161.25 236.765C161.532 236.774 161.768 236.805 161.958 236.858C162.149 236.91 162.294 237.005 162.394 237.144C162.499 237.277 162.552 237.477 162.552 237.744V238.889H161.858V237.766C161.858 237.58 161.827 237.435 161.765 237.33C161.703 237.225 161.596 237.151 161.443 237.108C161.291 237.065 161.076 237.044 160.8 237.044H159.319V238.889H158.633ZM159.319 236.443H161.021C161.327 236.443 161.555 236.367 161.708 236.214C161.865 236.061 161.944 235.861 161.944 235.613C161.944 235.375 161.865 235.191 161.708 235.063C161.555 234.934 161.327 234.87 161.021 234.87H159.319V236.443Z" fill="#B5BBC5"/>
<path d="M207.699 237.737V237.122H210.188V237.737H207.699ZM206.691 238.889L208.586 234.247H209.315L211.225 238.889H210.481L208.822 234.698H209.079L207.427 238.889H206.691ZM212.84 237.287V236.686H214.506C214.783 236.686 215.004 236.603 215.171 236.436C215.343 236.269 215.429 236.05 215.429 235.778C215.429 235.496 215.343 235.275 215.171 235.113C215.004 234.951 214.783 234.87 214.506 234.87H212.954V238.889H212.268V234.247H214.478C214.706 234.247 214.919 234.281 215.114 234.347C215.314 234.409 215.488 234.505 215.636 234.634C215.789 234.762 215.906 234.922 215.987 235.113C216.072 235.303 216.115 235.525 216.115 235.778C216.115 236.026 216.072 236.245 215.987 236.436C215.906 236.626 215.789 236.786 215.636 236.915C215.488 237.039 215.314 237.132 215.114 237.194C214.919 237.256 214.706 237.287 214.478 237.287H212.84ZM217.368 238.889V234.247H219.756C220.09 234.247 220.376 234.297 220.615 234.398C220.858 234.493 221.044 234.641 221.172 234.841C221.301 235.036 221.365 235.287 221.365 235.592C221.365 235.802 221.33 235.98 221.258 236.128C221.191 236.271 221.098 236.39 220.979 236.486C220.86 236.581 220.719 236.655 220.557 236.707C220.395 236.76 220.221 236.793 220.035 236.808L219.985 236.765C220.267 236.774 220.503 236.805 220.693 236.858C220.884 236.91 221.029 237.005 221.129 237.144C221.234 237.277 221.287 237.477 221.287 237.744V238.889H220.593V237.766C220.593 237.58 220.562 237.435 220.5 237.33C220.438 237.225 220.331 237.151 220.178 237.108C220.026 237.065 219.811 237.044 219.535 237.044H218.054V238.889H217.368ZM218.054 236.443H219.756C220.062 236.443 220.29 236.367 220.443 236.214C220.6 236.061 220.679 235.861 220.679 235.613C220.679 235.375 220.6 235.191 220.443 235.063C220.29 234.934 220.062 234.87 219.756 234.87H218.054V236.443Z" fill="#B5BBC5"/>
<path d="M269.002 238.502H268.708L270.99 234.247H271.676V238.889H270.99V235.327L271.14 235.363L269.216 238.889H268.494L266.57 235.37L266.72 235.334V238.889H266.034V234.247H266.72L269.002 238.502ZM273.745 237.737V237.122H276.234V237.737H273.745ZM272.737 238.889L274.632 234.247H275.361L277.271 238.889H276.527L274.868 234.698H275.125L273.473 238.889H272.737ZM281.644 234.247L279.878 237.337V238.889H279.191V237.337L277.425 234.247H278.211L279.713 236.958H279.384L280.858 234.247H281.644Z" fill="#B5BBC5"/>
<path d="M329.168 237.251V234.247H329.855V237.265C329.855 237.504 329.817 237.725 329.741 237.93C329.669 238.135 329.562 238.317 329.419 238.474C329.276 238.626 329.097 238.746 328.882 238.831C328.673 238.917 328.429 238.96 328.153 238.96C327.924 238.96 327.707 238.929 327.502 238.867C327.302 238.8 327.123 238.705 326.966 238.581C326.808 238.452 326.682 238.295 326.587 238.109C326.496 237.923 326.446 237.711 326.437 237.473H327.073C327.121 237.759 327.242 237.976 327.438 238.123C327.633 238.266 327.872 238.338 328.153 238.338C328.391 238.338 328.584 238.29 328.732 238.195C328.88 238.1 328.99 237.971 329.061 237.809C329.133 237.647 329.168 237.461 329.168 237.251ZM334.904 237.022V234.247H335.591V237.051C335.591 237.327 335.555 237.57 335.483 237.78C335.417 237.99 335.319 238.171 335.19 238.324C335.062 238.476 334.909 238.6 334.733 238.696C334.561 238.786 334.368 238.853 334.153 238.896C333.943 238.943 333.719 238.967 333.481 238.967C333.233 238.967 333.002 238.943 332.787 238.896C332.573 238.853 332.375 238.786 332.194 238.696C332.017 238.6 331.865 238.476 331.736 238.324C331.612 238.171 331.514 237.99 331.443 237.78C331.376 237.57 331.343 237.327 331.343 237.051V234.247H332.029V237.022C332.029 237.38 332.094 237.654 332.222 237.845C332.356 238.035 332.532 238.166 332.752 238.238C332.971 238.309 333.214 238.345 333.481 238.345C333.738 238.345 333.974 238.309 334.189 238.238C334.404 238.166 334.575 238.035 334.704 237.845C334.837 237.654 334.904 237.38 334.904 237.022ZM341.004 238.131L340.804 238.202V234.247H341.498V238.889H340.804L337.564 235.02L337.764 234.948V238.889H337.078V234.247H337.764L341.004 238.131Z" fill="#B5BBC5"/>
<path d="M388.083 237.251V234.247H388.769V237.265C388.769 237.504 388.731 237.725 388.655 237.93C388.583 238.135 388.476 238.317 388.333 238.474C388.19 238.626 388.011 238.746 387.796 238.831C387.587 238.917 387.344 238.96 387.067 238.96C386.838 238.96 386.621 238.929 386.416 238.867C386.216 238.8 386.037 238.705 385.88 238.581C385.723 238.452 385.596 238.295 385.501 238.109C385.41 237.923 385.36 237.711 385.351 237.473H385.987C386.035 237.759 386.156 237.976 386.352 238.123C386.547 238.266 386.786 238.338 387.067 238.338C387.305 238.338 387.498 238.29 387.646 238.195C387.794 238.1 387.904 237.971 387.975 237.809C388.047 237.647 388.083 237.461 388.083 237.251ZM393.818 237.022V234.247H394.505V237.051C394.505 237.327 394.469 237.57 394.398 237.78C394.331 237.99 394.233 238.171 394.104 238.324C393.976 238.476 393.823 238.6 393.647 238.696C393.475 238.786 393.282 238.853 393.067 238.896C392.858 238.943 392.633 238.967 392.395 238.967C392.147 238.967 391.916 238.943 391.701 238.896C391.487 238.853 391.289 238.786 391.108 238.696C390.931 238.6 390.779 238.476 390.65 238.324C390.526 238.171 390.428 237.99 390.357 237.78C390.29 237.57 390.257 237.327 390.257 237.051V234.247H390.943V237.022C390.943 237.38 391.008 237.654 391.136 237.845C391.27 238.035 391.446 238.166 391.666 238.238C391.885 238.309 392.128 238.345 392.395 238.345C392.653 238.345 392.889 238.309 393.103 238.238C393.318 238.166 393.489 238.035 393.618 237.845C393.751 237.654 393.818 237.38 393.818 237.022ZM396.678 234.247V238.274H399.41V238.889H395.992V234.247H396.678Z" fill="#B5BBC5"/>
<path d="M444.3 237.737V237.122H446.789V237.737H444.3ZM443.292 238.889L445.187 234.247H445.917L447.826 238.889H447.082L445.423 234.698H445.681L444.029 238.889H443.292ZM452.41 237.022V234.247H453.097V237.051C453.097 237.327 453.061 237.57 452.989 237.78C452.923 237.99 452.825 238.171 452.696 238.324C452.568 238.476 452.415 238.6 452.239 238.696C452.067 238.786 451.874 238.853 451.659 238.896C451.45 238.943 451.225 238.967 450.987 238.967C450.739 238.967 450.508 238.943 450.293 238.896C450.079 238.853 449.881 238.786 449.7 238.696C449.523 238.6 449.371 238.476 449.242 238.324C449.118 238.171 449.02 237.99 448.949 237.78C448.882 237.57 448.849 237.327 448.849 237.051V234.247H449.535V237.022C449.535 237.38 449.6 237.654 449.728 237.845C449.862 238.035 450.038 238.166 450.258 238.238C450.477 238.309 450.72 238.345 450.987 238.345C451.245 238.345 451.481 238.309 451.695 238.238C451.91 238.166 452.081 238.035 452.21 237.845C452.343 237.654 452.41 237.38 452.41 237.022ZM456.772 238.967C456.405 238.967 456.074 238.913 455.778 238.803C455.487 238.693 455.237 238.536 455.027 238.331C454.818 238.126 454.658 237.878 454.548 237.587C454.439 237.292 454.384 236.965 454.384 236.607C454.384 236.24 454.443 235.909 454.562 235.613C454.682 235.313 454.851 235.055 455.07 234.841C455.29 234.622 455.549 234.455 455.85 234.34C456.15 234.226 456.481 234.169 456.844 234.169C457.249 234.169 457.604 234.238 457.909 234.376C458.219 234.514 458.467 234.71 458.653 234.963C458.839 235.21 458.949 235.506 458.982 235.849H458.36C458.298 235.63 458.198 235.442 458.06 235.284C457.921 235.127 457.75 235.005 457.545 234.92C457.34 234.834 457.106 234.791 456.844 234.791C456.486 234.791 456.176 234.87 455.914 235.027C455.652 235.179 455.447 235.394 455.299 235.671C455.151 235.942 455.077 236.255 455.077 236.607C455.077 236.955 455.142 237.261 455.27 237.523C455.404 237.78 455.597 237.983 455.85 238.131C456.107 238.274 456.417 238.345 456.779 238.345C457.061 238.345 457.306 238.297 457.516 238.202C457.731 238.102 457.905 237.964 458.038 237.787C458.176 237.606 458.272 237.389 458.324 237.137L458.682 237.094C458.61 237.709 458.405 238.176 458.067 238.495C457.728 238.81 457.297 238.967 456.772 238.967ZM458.524 238.889C458.524 238.736 458.529 238.562 458.539 238.367C458.553 238.166 458.567 237.966 458.582 237.766C458.601 237.561 458.617 237.377 458.632 237.215H456.894V236.657H459.161V238.889H458.524Z" fill="#B5BBC5"/>
<path d="M503.258 237.365H503.916C503.93 237.551 503.992 237.721 504.102 237.873C504.216 238.021 504.369 238.138 504.56 238.224C504.755 238.309 504.982 238.352 505.239 238.352C505.463 238.352 505.649 238.321 505.797 238.259C505.945 238.197 506.054 238.114 506.126 238.009C506.202 237.899 506.24 237.771 506.24 237.623C506.24 237.475 506.2 237.358 506.119 237.272C506.038 237.182 505.916 237.108 505.754 237.051C505.592 236.989 505.392 236.929 505.153 236.872C504.943 236.82 504.736 236.758 504.531 236.686C504.331 236.61 504.145 236.517 503.973 236.407C503.806 236.297 503.671 236.166 503.566 236.014C503.466 235.856 503.415 235.668 503.415 235.449C503.415 235.215 503.48 235.003 503.609 234.812C503.737 234.617 503.926 234.462 504.174 234.347C504.426 234.228 504.731 234.169 505.089 234.169C505.642 234.169 506.059 234.307 506.34 234.583C506.626 234.86 506.765 235.229 506.755 235.692H506.112C506.097 235.368 505.995 235.137 505.804 234.998C505.613 234.855 505.365 234.784 505.06 234.784C504.798 234.784 504.574 234.839 504.388 234.948C504.202 235.053 504.109 235.22 504.109 235.449C504.109 235.549 504.131 235.637 504.174 235.713C504.216 235.785 504.288 235.852 504.388 235.914C504.488 235.976 504.622 236.035 504.789 236.092C504.96 236.15 505.172 236.212 505.425 236.278C505.616 236.321 505.799 236.376 505.976 236.443C506.157 236.51 506.319 236.593 506.462 236.693C506.605 236.793 506.717 236.922 506.798 237.079C506.884 237.237 506.927 237.43 506.927 237.659C506.927 237.902 506.867 238.123 506.748 238.324C506.629 238.519 506.443 238.677 506.19 238.796C505.942 238.91 505.62 238.967 505.225 238.967C504.91 238.967 504.636 238.927 504.402 238.846C504.174 238.765 503.98 238.66 503.823 238.531C503.671 238.402 503.549 238.264 503.458 238.116C503.373 237.969 503.313 237.828 503.28 237.694C503.251 237.561 503.244 237.451 503.258 237.365ZM508.821 236.879V238.274H511.811V238.889H508.135V234.247H511.803V234.862H508.821V236.278H511.26V236.879H508.821ZM513.722 237.287V236.686H515.389C515.665 236.686 515.887 236.603 516.054 236.436C516.225 236.269 516.311 236.05 516.311 235.778C516.311 235.496 516.225 235.275 516.054 235.113C515.887 234.951 515.665 234.87 515.389 234.87H513.837V238.889H513.15V234.247H515.36C515.589 234.247 515.801 234.281 515.996 234.347C516.197 234.409 516.371 234.505 516.518 234.634C516.671 234.762 516.788 234.922 516.869 235.113C516.955 235.303 516.998 235.525 516.998 235.778C516.998 236.026 516.955 236.245 516.869 236.436C516.788 236.626 516.671 236.786 516.518 236.915C516.371 237.039 516.197 237.132 515.996 237.194C515.801 237.256 515.589 237.287 515.36 237.287H513.722Z" fill="#B5BBC5"/>
<path d="M563.831 238.967C563.349 238.967 562.92 238.87 562.543 238.674C562.172 238.479 561.878 238.202 561.664 237.845C561.454 237.487 561.349 237.063 561.349 236.572C561.349 236.076 561.454 235.649 561.664 235.291C561.878 234.934 562.172 234.657 562.543 234.462C562.92 234.266 563.349 234.169 563.831 234.169C564.317 234.169 564.746 234.266 565.118 234.462C565.49 234.657 565.783 234.934 565.998 235.291C566.212 235.649 566.319 236.076 566.319 236.572C566.319 237.063 566.212 237.487 565.998 237.845C565.783 238.202 565.49 238.479 565.118 238.674C564.746 238.87 564.317 238.967 563.831 238.967ZM563.831 238.345C564.174 238.345 564.479 238.278 564.746 238.145C565.013 238.011 565.225 237.814 565.383 237.551C565.54 237.289 565.619 236.963 565.619 236.572C565.619 236.181 565.54 235.854 565.383 235.592C565.225 235.33 565.013 235.132 564.746 234.998C564.479 234.86 564.174 234.791 563.831 234.791C563.497 234.791 563.194 234.86 562.922 234.998C562.651 235.132 562.436 235.33 562.279 235.592C562.121 235.854 562.043 236.181 562.043 236.572C562.043 236.963 562.121 237.289 562.279 237.551C562.436 237.814 562.651 238.011 562.922 238.145C563.194 238.278 563.497 238.345 563.831 238.345ZM572.033 237.301C571.99 237.649 571.87 237.947 571.675 238.195C571.484 238.443 571.234 238.634 570.924 238.767C570.614 238.901 570.261 238.967 569.866 238.967C569.508 238.967 569.179 238.913 568.879 238.803C568.583 238.693 568.326 238.536 568.106 238.331C567.887 238.126 567.715 237.876 567.591 237.58C567.467 237.28 567.406 236.943 567.406 236.572C567.406 236.195 567.467 235.859 567.591 235.563C567.715 235.268 567.887 235.017 568.106 234.812C568.326 234.603 568.583 234.443 568.879 234.333C569.179 234.224 569.508 234.169 569.866 234.169C570.266 234.169 570.621 234.238 570.931 234.376C571.241 234.51 571.491 234.703 571.682 234.955C571.878 235.203 571.997 235.501 572.04 235.849H571.382C571.32 235.625 571.217 235.435 571.074 235.277C570.931 235.12 570.757 235.001 570.552 234.92C570.347 234.834 570.118 234.791 569.866 234.791C569.541 234.791 569.246 234.86 568.979 234.998C568.712 235.137 568.497 235.337 568.335 235.599C568.178 235.861 568.099 236.185 568.099 236.572C568.099 236.953 568.178 237.277 568.335 237.544C568.497 237.806 568.712 238.007 568.979 238.145C569.246 238.278 569.541 238.345 569.866 238.345C570.118 238.345 570.345 238.305 570.545 238.224C570.75 238.143 570.924 238.023 571.067 237.866C571.21 237.709 571.315 237.52 571.382 237.301H572.033ZM572.744 234.247H576.813V234.862H572.744V234.247ZM574.432 234.791H575.125V238.889H574.432V234.791Z" fill="#B5BBC5"/>
<path d="M625.327 238.131L625.127 238.202V234.247H625.821V238.889H625.127L621.887 235.02L622.087 234.948V238.889H621.401V234.247H622.087L625.327 238.131ZM629.592 238.967C629.11 238.967 628.681 238.87 628.305 238.674C627.933 238.479 627.64 238.202 627.425 237.845C627.215 237.487 627.11 237.063 627.11 236.572C627.11 236.076 627.215 235.649 627.425 235.291C627.64 234.934 627.933 234.657 628.305 234.462C628.681 234.266 629.11 234.169 629.592 234.169C630.078 234.169 630.507 234.266 630.879 234.462C631.251 234.657 631.544 234.934 631.759 235.291C631.973 235.649 632.081 236.076 632.081 236.572C632.081 237.063 631.973 237.487 631.759 237.845C631.544 238.202 631.251 238.479 630.879 238.674C630.507 238.87 630.078 238.967 629.592 238.967ZM629.592 238.345C629.935 238.345 630.24 238.278 630.507 238.145C630.774 238.011 630.987 237.814 631.144 237.551C631.301 237.289 631.38 236.963 631.38 236.572C631.38 236.181 631.301 235.854 631.144 235.592C630.987 235.33 630.774 235.132 630.507 234.998C630.24 234.86 629.935 234.791 629.592 234.791C629.258 234.791 628.955 234.86 628.684 234.998C628.412 235.132 628.197 235.33 628.04 235.592C627.883 235.854 627.804 236.181 627.804 236.572C627.804 236.963 627.883 237.289 628.04 237.551C628.197 237.814 628.412 238.011 628.684 238.145C628.955 238.278 629.258 238.345 629.592 238.345ZM634.517 238.889L632.708 234.247H633.459L635.018 238.352H634.803L636.362 234.247H637.099L635.304 238.889H634.517Z" fill="#B5BBC5"/>
<path d="M683.112 234.247C683.593 234.247 683.996 234.309 684.32 234.433C684.649 234.552 684.912 234.719 685.107 234.934C685.307 235.148 685.45 235.394 685.536 235.671C685.622 235.947 685.665 236.24 685.665 236.55C685.665 236.855 685.617 237.148 685.522 237.43C685.431 237.711 685.284 237.961 685.079 238.181C684.878 238.4 684.616 238.574 684.292 238.703C683.968 238.827 683.574 238.889 683.112 238.889H681.252V234.247H683.112ZM681.939 238.266H683.105C683.472 238.266 683.775 238.219 684.013 238.123C684.251 238.023 684.44 237.892 684.578 237.73C684.721 237.563 684.821 237.377 684.878 237.172C684.94 236.967 684.971 236.76 684.971 236.55C684.971 236.336 684.94 236.128 684.878 235.928C684.821 235.728 684.721 235.549 684.578 235.392C684.44 235.229 684.251 235.103 684.013 235.013C683.775 234.917 683.472 234.87 683.105 234.87H681.939V238.266ZM687.639 236.879V238.274H690.629V238.889H686.953V234.247H690.621V234.862H687.639V236.278H690.078V236.879H687.639ZM696.395 237.301C696.352 237.649 696.233 237.947 696.038 238.195C695.847 238.443 695.597 238.634 695.287 238.767C694.977 238.901 694.624 238.967 694.228 238.967C693.871 238.967 693.542 238.913 693.241 238.803C692.946 238.693 692.688 238.536 692.469 238.331C692.25 238.126 692.078 237.876 691.954 237.58C691.83 237.28 691.768 236.943 691.768 236.572C691.768 236.195 691.83 235.859 691.954 235.563C692.078 235.268 692.25 235.017 692.469 234.812C692.688 234.603 692.946 234.443 693.241 234.333C693.542 234.224 693.871 234.169 694.228 234.169C694.629 234.169 694.984 234.238 695.294 234.376C695.604 234.51 695.854 234.703 696.045 234.955C696.24 235.203 696.36 235.501 696.402 235.849H695.744C695.683 235.625 695.58 235.435 695.437 235.277C695.294 235.12 695.12 235.001 694.915 234.92C694.71 234.834 694.481 234.791 694.228 234.791C693.904 234.791 693.609 234.86 693.342 234.998C693.075 235.137 692.86 235.337 692.698 235.599C692.541 235.861 692.462 236.185 692.462 236.572C692.462 236.953 692.541 237.277 692.698 237.544C692.86 237.806 693.075 238.007 693.342 238.145C693.609 238.278 693.904 238.345 694.228 238.345C694.481 238.345 694.708 238.305 694.908 238.224C695.113 238.143 695.287 238.023 695.43 237.866C695.573 237.709 695.678 237.52 695.744 237.301H696.395Z" fill="#B5BBC5"/>
<path d="M35.5312 144.436C35.5312 143.144 36.578 142.098 37.8692 142.098C39.1604 142.098 40.2071 143.144 40.2071 144.436V220.652H35.5312V144.436Z" fill="#228B22"/>
<path d="M96.3203 123.861C96.3203 122.57 97.367 121.523 98.6582 121.523C99.9494 121.523 100.996 122.57 100.996 123.861V220.651H96.3203V123.861Z" fill="#228B22"/>
<path d="M155.234 100.482C155.234 99.1913 156.281 98.1445 157.572 98.1445C158.863 98.1445 159.91 99.1913 159.91 100.482V220.651H155.234V100.482Z" fill="#228B22"/>
<path d="M217.891 175.297C217.891 174.006 218.937 172.959 220.229 172.959C221.52 172.959 222.566 174.006 222.566 175.297V220.653H217.891V175.297Z" fill="#228B22"/>
<path d="M274.938 78.0391C274.938 76.7479 275.984 75.7012 277.275 75.7012C278.567 75.7012 279.613 76.7479 279.613 78.0391V220.652H274.938V78.0391Z" fill="#228B22"/>
<path d="M336.656 71.4922C336.656 70.201 337.703 69.1543 338.994 69.1543C340.285 69.1543 341.332 70.201 341.332 71.4922V220.651H336.656V71.4922Z" fill="#228B22"/>
<path d="M394.641 100.482C394.641 99.1913 395.687 98.1445 396.979 98.1445C398.27 98.1445 399.316 99.1913 399.316 100.482V220.651H394.641V100.482Z" fill="#228B22"/>
<path d="M454.492 81.7793C454.492 80.4881 455.539 79.4414 456.83 79.4414C458.121 79.4414 459.168 80.4881 459.168 81.7793V220.652H454.492V81.7793Z" fill="#228B22"/>
<path d="M513.406 136.955C513.406 135.664 514.453 134.617 515.744 134.617C517.035 134.617 518.082 135.664 518.082 136.955V220.653H513.406V136.955Z" fill="#228B22"/>
<path d="M569.516 123.861C569.516 122.57 570.562 121.523 571.854 121.523C573.145 121.523 574.191 122.57 574.191 123.861V220.651H569.516V123.861Z" fill="#228B22"/>
<path d="M631.234 179.973C631.234 178.681 632.281 177.635 633.572 177.635C634.863 177.635 635.91 178.681 635.91 179.973V220.652H631.234V179.973Z" fill="#228B22"/>
<path d="M694.828 100.482C694.828 99.1913 695.875 98.1445 697.166 98.1445C698.457 98.1445 699.504 99.1913 699.504 100.482V220.651H694.828V100.482Z" fill="#228B22"/>
<g filter="url(#filter0_d_16531_183579)">
<rect x="120.633" y="129.941" width="72.0079" height="29.7964" rx="4.13839" fill="white"/>
<circle cx="130.148" cy="138.624" r="1.65535" fill="#328A28"/>
<path d="M136.392 139.597C136.222 139.597 136.068 139.572 135.932 139.521C135.797 139.47 135.681 139.397 135.584 139.302C135.487 139.207 135.413 139.093 135.362 138.958C135.311 138.821 135.286 138.67 135.286 138.504C135.286 138.334 135.314 138.181 135.369 138.044C135.424 137.905 135.502 137.786 135.604 137.687C135.705 137.585 135.826 137.508 135.965 137.455C136.104 137.402 136.257 137.375 136.425 137.375C136.613 137.375 136.777 137.407 136.918 137.471C137.062 137.535 137.176 137.626 137.263 137.743C137.349 137.858 137.399 137.995 137.415 138.153H137.127C137.098 138.052 137.052 137.965 136.988 137.892C136.924 137.819 136.844 137.763 136.749 137.723C136.654 137.683 136.546 137.664 136.425 137.664C136.259 137.664 136.116 137.7 135.995 137.773C135.873 137.843 135.778 137.943 135.71 138.071C135.641 138.197 135.607 138.341 135.607 138.504C135.607 138.666 135.637 138.807 135.697 138.928C135.758 139.047 135.848 139.141 135.965 139.21C136.084 139.276 136.227 139.309 136.395 139.309C136.525 139.309 136.639 139.287 136.736 139.243C136.835 139.196 136.916 139.132 136.978 139.051C137.042 138.967 137.086 138.866 137.11 138.749L137.276 138.73C137.243 139.014 137.148 139.231 136.991 139.378C136.834 139.524 136.635 139.597 136.392 139.597ZM137.203 139.561C137.203 139.49 137.205 139.409 137.21 139.319C137.216 139.226 137.223 139.133 137.229 139.041C137.238 138.946 137.246 138.861 137.253 138.786H136.448V138.528H137.498V139.561H137.203ZM138.075 137.909H138.392V139.561H138.075V137.909ZM138.952 138.19C138.837 138.19 138.739 138.216 138.657 138.269C138.578 138.322 138.514 138.387 138.465 138.465C138.419 138.542 138.388 138.616 138.373 138.687L138.369 138.498C138.371 138.476 138.377 138.442 138.386 138.395C138.397 138.347 138.416 138.293 138.442 138.233C138.469 138.173 138.504 138.117 138.548 138.064C138.592 138.009 138.647 137.964 138.714 137.928C138.78 137.893 138.859 137.875 138.952 137.875V138.19ZM140.202 139.597C140.041 139.597 139.893 139.563 139.758 139.494C139.624 139.426 139.517 139.328 139.437 139.2C139.358 139.072 139.318 138.918 139.318 138.739C139.318 138.559 139.358 138.404 139.437 138.276C139.517 138.146 139.624 138.046 139.758 137.978C139.893 137.91 140.041 137.875 140.202 137.875C140.363 137.875 140.51 137.91 140.642 137.978C140.775 138.046 140.881 138.146 140.96 138.276C141.04 138.404 141.079 138.559 141.079 138.739C141.079 138.918 141.04 139.072 140.96 139.2C140.881 139.328 140.775 139.426 140.642 139.494C140.51 139.563 140.363 139.597 140.202 139.597ZM140.202 139.322C140.301 139.322 140.393 139.3 140.477 139.256C140.563 139.21 140.631 139.143 140.682 139.057C140.735 138.969 140.761 138.863 140.761 138.739C140.761 138.614 140.735 138.507 140.682 138.418C140.631 138.33 140.563 138.263 140.477 138.216C140.393 138.17 140.301 138.147 140.202 138.147C140.103 138.147 140.01 138.17 139.924 138.216C139.838 138.261 139.768 138.327 139.715 138.415C139.662 138.503 139.636 138.611 139.636 138.739C139.636 138.863 139.661 138.969 139.712 139.057C139.765 139.143 139.834 139.21 139.92 139.256C140.007 139.3 140.1 139.322 140.202 139.322ZM141.504 139.024H141.796C141.807 139.112 141.847 139.185 141.915 139.243C141.983 139.298 142.079 139.325 142.203 139.325C142.282 139.325 142.344 139.317 142.388 139.299C142.433 139.279 142.463 139.253 142.481 139.22C142.501 139.186 142.511 139.15 142.511 139.11C142.511 139.06 142.498 139.021 142.471 138.994C142.445 138.966 142.407 138.943 142.359 138.925C142.31 138.905 142.253 138.886 142.186 138.869C142.114 138.849 142.041 138.826 141.968 138.799C141.895 138.773 141.828 138.741 141.766 138.703C141.706 138.666 141.658 138.619 141.62 138.564C141.585 138.507 141.567 138.437 141.567 138.355C141.567 138.287 141.582 138.223 141.61 138.163C141.641 138.104 141.684 138.053 141.74 138.011C141.797 137.967 141.863 137.934 141.938 137.912C142.013 137.888 142.096 137.875 142.186 137.875C142.312 137.875 142.418 137.899 142.504 137.945C142.59 137.989 142.655 138.052 142.7 138.134C142.746 138.215 142.77 138.309 142.772 138.415H142.494C142.479 138.322 142.447 138.255 142.398 138.213C142.35 138.169 142.277 138.147 142.18 138.147C142.085 138.147 142.012 138.166 141.961 138.203C141.911 138.241 141.885 138.291 141.885 138.355C141.885 138.404 141.903 138.444 141.938 138.475C141.973 138.503 142.021 138.529 142.081 138.551C142.14 138.573 142.207 138.596 142.282 138.62C142.353 138.645 142.42 138.67 142.484 138.696C142.551 138.721 142.609 138.751 142.66 138.786C142.713 138.819 142.754 138.863 142.782 138.918C142.813 138.971 142.829 139.037 142.829 139.117C142.829 139.214 142.804 139.299 142.756 139.372C142.707 139.442 142.637 139.498 142.544 139.537C142.454 139.577 142.343 139.597 142.213 139.597C142.094 139.597 141.992 139.583 141.908 139.554C141.827 139.525 141.757 139.488 141.7 139.441C141.645 139.395 141.602 139.346 141.571 139.296C141.542 139.243 141.522 139.192 141.511 139.143C141.502 139.095 141.5 139.055 141.504 139.024ZM143.254 139.024H143.546C143.557 139.112 143.596 139.185 143.665 139.243C143.733 139.298 143.829 139.325 143.953 139.325C144.032 139.325 144.094 139.317 144.138 139.299C144.182 139.279 144.213 139.253 144.231 139.22C144.251 139.186 144.261 139.15 144.261 139.11C144.261 139.06 144.247 139.021 144.221 138.994C144.194 138.966 144.157 138.943 144.108 138.925C144.06 138.905 144.002 138.886 143.936 138.869C143.863 138.849 143.791 138.826 143.718 138.799C143.645 138.773 143.578 138.741 143.516 138.703C143.456 138.666 143.408 138.619 143.37 138.564C143.335 138.507 143.317 138.437 143.317 138.355C143.317 138.287 143.331 138.223 143.36 138.163C143.391 138.104 143.434 138.053 143.489 138.011C143.547 137.967 143.613 137.934 143.688 137.912C143.763 137.888 143.846 137.875 143.936 137.875C144.062 137.875 144.168 137.899 144.254 137.945C144.34 137.989 144.405 138.052 144.449 138.134C144.496 138.215 144.52 138.309 144.522 138.415H144.244C144.229 138.322 144.197 138.255 144.148 138.213C144.1 138.169 144.027 138.147 143.93 138.147C143.835 138.147 143.762 138.166 143.711 138.203C143.66 138.241 143.635 138.291 143.635 138.355C143.635 138.404 143.653 138.444 143.688 138.475C143.723 138.503 143.771 138.529 143.83 138.551C143.89 138.573 143.957 138.596 144.032 138.62C144.103 138.645 144.17 138.67 144.234 138.696C144.3 138.721 144.359 138.751 144.41 138.786C144.463 138.819 144.503 138.863 144.532 138.918C144.563 138.971 144.579 139.037 144.579 139.117C144.579 139.214 144.554 139.299 144.506 139.372C144.457 139.442 144.386 139.498 144.294 139.537C144.203 139.577 144.093 139.597 143.963 139.597C143.844 139.597 143.742 139.583 143.658 139.554C143.576 139.525 143.507 139.488 143.45 139.441C143.394 139.395 143.351 139.346 143.32 139.296C143.292 139.243 143.272 139.192 143.261 139.143C143.252 139.095 143.25 139.055 143.254 139.024ZM145.97 137.909H146.288V139.561H145.97V137.909ZM146.917 137.875C147.009 137.875 147.093 137.889 147.168 137.915C147.243 137.942 147.307 137.981 147.36 138.034C147.413 138.085 147.454 138.149 147.483 138.226C147.514 138.301 147.529 138.387 147.529 138.485V139.561H147.215V138.554C147.215 138.424 147.183 138.327 147.119 138.263C147.057 138.197 146.962 138.163 146.834 138.163C146.735 138.163 146.644 138.187 146.562 138.233C146.481 138.279 146.413 138.341 146.36 138.418C146.31 138.493 146.279 138.578 146.268 138.673L146.264 138.491C146.276 138.403 146.299 138.321 146.334 138.246C146.372 138.171 146.418 138.106 146.473 138.051C146.53 137.993 146.597 137.95 146.672 137.922C146.747 137.891 146.828 137.875 146.917 137.875ZM148.128 137.875C148.221 137.875 148.305 137.889 148.38 137.915C148.455 137.942 148.519 137.981 148.572 138.034C148.625 138.085 148.666 138.149 148.695 138.226C148.725 138.301 148.741 138.387 148.741 138.485V139.561H148.426V138.554C148.426 138.424 148.394 138.327 148.33 138.263C148.269 138.197 148.174 138.163 148.046 138.163C147.946 138.163 147.856 138.187 147.774 138.233C147.692 138.279 147.625 138.341 147.572 138.418C147.521 138.493 147.491 138.578 147.48 138.673L147.476 138.488C147.487 138.4 147.51 138.319 147.546 138.246C147.583 138.171 147.631 138.106 147.688 138.051C147.745 137.993 147.812 137.95 147.887 137.922C147.962 137.891 148.042 137.875 148.128 137.875ZM150.005 139.594C149.864 139.594 149.735 139.557 149.618 139.484C149.501 139.412 149.408 139.311 149.34 139.183C149.271 139.053 149.237 138.904 149.237 138.736C149.237 138.568 149.271 138.421 149.34 138.293C149.41 138.162 149.506 138.061 149.628 137.988C149.749 137.913 149.885 137.875 150.035 137.875C150.201 137.875 150.329 137.914 150.419 137.991C150.512 138.069 150.576 138.172 150.611 138.302C150.649 138.433 150.667 138.577 150.667 138.736C150.667 138.824 150.656 138.918 150.634 139.018C150.612 139.117 150.577 139.211 150.528 139.299C150.48 139.387 150.412 139.459 150.326 139.514C150.24 139.567 150.133 139.594 150.005 139.594ZM150.095 139.319C150.212 139.319 150.31 139.293 150.389 139.243C150.471 139.19 150.532 139.119 150.571 139.031C150.611 138.943 150.631 138.844 150.631 138.736C150.631 138.619 150.61 138.517 150.568 138.428C150.528 138.34 150.468 138.272 150.386 138.223C150.306 138.174 150.209 138.15 150.095 138.15C149.922 138.15 149.789 138.205 149.694 138.316C149.601 138.426 149.555 138.566 149.555 138.736C149.555 138.851 149.578 138.952 149.624 139.041C149.671 139.127 149.734 139.195 149.813 139.246C149.895 139.295 149.989 139.319 150.095 139.319ZM150.631 137.909H150.949V139.561H150.657C150.657 139.561 150.655 139.541 150.651 139.501C150.646 139.459 150.642 139.409 150.638 139.352C150.633 139.295 150.631 139.244 150.631 139.2V137.909ZM151.529 137.909H151.847V139.561H151.529V137.909ZM152.406 138.19C152.291 138.19 152.193 138.216 152.112 138.269C152.032 138.322 151.968 138.387 151.919 138.465C151.873 138.542 151.842 138.616 151.827 138.687L151.823 138.498C151.826 138.476 151.831 138.442 151.84 138.395C151.851 138.347 151.87 138.293 151.896 138.233C151.923 138.173 151.958 138.117 152.002 138.064C152.046 138.009 152.102 137.964 152.168 137.928C152.234 137.893 152.313 137.875 152.406 137.875V138.19ZM153.524 139.302C153.387 139.302 153.261 139.275 153.146 139.22C153.032 139.164 152.94 139.084 152.872 138.978C152.805 138.872 152.772 138.744 152.772 138.594C152.772 138.446 152.805 138.319 152.872 138.213C152.938 138.105 153.027 138.022 153.14 137.965C153.254 137.905 153.382 137.875 153.524 137.875C153.566 137.875 153.605 137.879 153.643 137.885C153.68 137.89 153.717 137.897 153.752 137.909H154.474V138.206C154.375 138.206 154.274 138.19 154.173 138.157C154.073 138.124 153.986 138.088 153.911 138.051L153.901 138.034C153.976 138.074 154.041 138.123 154.096 138.18C154.152 138.235 154.194 138.298 154.222 138.369C154.253 138.437 154.269 138.514 154.269 138.6C154.269 138.746 154.236 138.872 154.169 138.978C154.105 139.084 154.016 139.164 153.901 139.22C153.789 139.275 153.663 139.302 153.524 139.302ZM154.03 140.229V140.153C154.03 140.041 153.999 139.96 153.938 139.911C153.876 139.863 153.785 139.839 153.666 139.839H153.279C153.197 139.839 153.128 139.832 153.07 139.819C153.013 139.806 152.965 139.786 152.928 139.759C152.89 139.735 152.863 139.704 152.845 139.666C152.827 139.631 152.819 139.591 152.819 139.547C152.819 139.461 152.845 139.396 152.898 139.352C152.951 139.308 153.018 139.28 153.1 139.269C153.182 139.256 153.264 139.255 153.348 139.266L153.524 139.302C153.398 139.309 153.302 139.321 153.236 139.339C153.169 139.356 153.136 139.394 153.136 139.451C153.136 139.484 153.15 139.511 153.176 139.531C153.203 139.551 153.24 139.561 153.289 139.561H153.693C153.818 139.561 153.93 139.576 154.027 139.607C154.126 139.64 154.204 139.694 154.259 139.769C154.316 139.846 154.345 139.951 154.345 140.084V140.229H154.03ZM153.524 139.034C153.603 139.034 153.675 139.018 153.739 138.984C153.805 138.949 153.858 138.9 153.898 138.836C153.938 138.769 153.957 138.69 153.957 138.597C153.957 138.502 153.938 138.422 153.898 138.355C153.86 138.287 153.808 138.236 153.742 138.203C153.676 138.168 153.603 138.15 153.524 138.15C153.444 138.15 153.37 138.168 153.302 138.203C153.236 138.236 153.183 138.286 153.143 138.352C153.103 138.418 153.083 138.5 153.083 138.597C153.083 138.69 153.103 138.769 153.143 138.836C153.183 138.9 153.236 138.949 153.302 138.984C153.368 139.018 153.442 139.034 153.524 139.034ZM155.322 137.226V137.568H154.928V137.226H155.322ZM154.968 137.909H155.282V139.561H154.968V137.909ZM155.895 137.909H156.213V139.561H155.895V137.909ZM156.842 137.875C156.935 137.875 157.019 137.889 157.094 137.915C157.169 137.942 157.233 137.981 157.286 138.034C157.339 138.085 157.38 138.149 157.408 138.226C157.439 138.301 157.455 138.387 157.455 138.485V139.561H157.14V138.554C157.14 138.424 157.108 138.327 157.044 138.263C156.982 138.197 156.888 138.163 156.76 138.163C156.66 138.163 156.57 138.187 156.488 138.233C156.406 138.279 156.339 138.341 156.286 138.418C156.235 138.493 156.204 138.578 156.193 138.673L156.19 138.491C156.201 138.403 156.224 138.321 156.26 138.246C156.297 138.171 156.344 138.106 156.399 138.051C156.456 137.993 156.522 137.95 156.597 137.922C156.672 137.891 156.754 137.875 156.842 137.875Z" fill="#B6B6B6"/>
<path d="M135.574 147.935H134.514V147.173H136.388V152.014H135.574V147.935ZM137.212 149.603C137.212 148.1 138.02 147.081 139.258 147.081C140.496 147.081 141.311 148.1 141.311 149.603C141.311 151.1 140.543 152.1 139.258 152.1C137.973 152.1 137.212 151.1 137.212 149.603ZM138.046 149.603C138.046 150.722 138.497 151.352 139.258 151.352C140.026 151.352 140.476 150.722 140.476 149.603C140.476 148.458 140.026 147.829 139.258 147.829C138.497 147.829 138.046 148.458 138.046 149.603ZM142.853 151.722C142.853 152.272 142.456 152.709 141.919 152.775V152.451C142.217 152.398 142.443 152.219 142.443 151.987C142.39 152.014 142.33 152.027 142.251 152.027C141.992 152.027 141.78 151.835 141.78 151.57C141.78 151.252 141.986 151.04 142.284 151.04C142.615 151.04 142.853 151.312 142.853 151.722ZM143.329 149.603C143.329 148.1 144.137 147.081 145.375 147.081C146.613 147.081 147.428 148.1 147.428 149.603C147.428 151.1 146.66 152.1 145.375 152.1C144.091 152.1 143.329 151.1 143.329 149.603ZM144.163 149.603C144.163 150.722 144.614 151.352 145.375 151.352C146.143 151.352 146.593 150.722 146.593 149.603C146.593 148.458 146.143 147.829 145.375 147.829C144.614 147.829 144.163 148.458 144.163 149.603ZM147.998 149.603C147.998 148.1 148.805 147.081 150.044 147.081C151.282 147.081 152.096 148.1 152.096 149.603C152.096 151.1 151.328 152.1 150.044 152.1C148.759 152.1 147.998 151.1 147.998 149.603ZM148.832 149.603C148.832 150.722 149.282 151.352 150.044 151.352C150.812 151.352 151.262 150.722 151.262 149.603C151.262 148.458 150.812 147.829 150.044 147.829C149.282 147.829 148.832 148.458 148.832 149.603ZM152.666 149.603C152.666 148.1 153.474 147.081 154.712 147.081C155.951 147.081 156.765 148.1 156.765 149.603C156.765 151.1 155.997 152.1 154.712 152.1C153.428 152.1 152.666 151.1 152.666 149.603ZM153.501 149.603C153.501 150.722 153.951 151.352 154.712 151.352C155.48 151.352 155.931 150.722 155.931 149.603C155.931 148.458 155.48 147.829 154.712 147.829C153.951 147.829 153.501 148.458 153.501 149.603Z" fill="#020518"/>
<path d="M128.492 148.431H129.009V146.914H129.527L130.411 148.431H131.596V146.914H132.113V148.431H132.631V148.937H132.113V149.443H132.631V149.949H132.113V151.466H131.596L130.709 149.949H129.527V151.466H129.009V149.949H128.492V149.443H129.009V148.937H128.492V148.431ZM129.527 148.431H129.819L129.527 147.933V148.431ZM129.527 148.937V149.443H130.411L130.117 148.937H129.527ZM131.596 150.455V149.949H131.299L131.596 150.455ZM130.706 148.937L131.004 149.443H131.596V148.937H130.706Z" fill="#020518"/>
<rect x="167.445" y="146.496" width="14.9241" height="4.98675" rx="1.24669" fill="#EDFEED"/>
<path d="M170.106 148.55H170.629V148.027H170.829V148.55H171.352V148.75H170.829V149.276H170.629V148.75H170.106V148.55ZM172.884 149.488L171.667 149.49V149.303L172.248 148.802C172.54 148.55 172.622 148.428 172.622 148.236C172.622 148.009 172.492 147.875 172.275 147.875C172.053 147.875 171.909 148.037 171.904 148.293H171.659C171.667 147.907 171.911 147.655 172.278 147.655C172.639 147.655 172.871 147.875 172.871 148.221C172.871 148.478 172.744 148.66 172.425 148.937L172.051 149.261H172.884V149.488ZM173.352 149.52C173.255 149.52 173.173 149.44 173.173 149.346C173.173 149.248 173.255 149.169 173.352 149.169C173.447 149.169 173.529 149.248 173.529 149.346C173.529 149.44 173.447 149.52 173.352 149.52ZM175.122 149.126H174.908V149.49H174.673V149.126H173.741V148.909L174.591 147.688H174.908V148.909H175.122V149.126ZM174.005 148.909H174.673V147.947L174.005 148.909ZM175.877 148.558H175.698V148.396L176.209 147.904H175.398V147.688H176.518V147.884L176.024 148.356C176.331 148.393 176.563 148.6 176.563 148.924C176.563 149.288 176.288 149.52 175.922 149.52C175.568 149.52 175.314 149.303 175.314 148.929H175.555C175.555 149.164 175.7 149.301 175.927 149.301C176.161 149.301 176.313 149.151 176.313 148.919C176.313 148.702 176.164 148.558 175.877 148.558ZM177.671 148.114C177.671 148.381 177.481 148.573 177.214 148.573C176.95 148.573 176.761 148.381 176.761 148.114C176.761 147.845 176.95 147.653 177.214 147.653C177.481 147.653 177.671 147.845 177.671 148.114ZM178.621 147.69L177.252 149.49H177.012L178.381 147.69H178.621ZM177.479 148.114C177.479 147.952 177.371 147.84 177.214 147.84C177.06 147.84 176.953 147.952 176.953 148.114C176.953 148.273 177.06 148.386 177.214 148.386C177.369 148.386 177.479 148.273 177.479 148.114ZM178.877 149.064C178.877 149.331 178.686 149.523 178.421 149.523C178.157 149.523 177.965 149.331 177.965 149.064C177.965 148.795 178.157 148.605 178.421 148.605C178.686 148.605 178.877 148.795 178.877 149.064ZM178.683 149.064C178.683 148.902 178.578 148.79 178.421 148.79C178.267 148.79 178.159 148.902 178.159 149.064C178.159 149.223 178.267 149.336 178.421 149.336C178.576 149.336 178.683 149.223 178.683 149.064Z" fill="#228B22"/>
<path d="M157.407 163.666C157.248 163.942 156.85 163.942 156.69 163.666L154.54 159.942C154.381 159.666 154.58 159.321 154.898 159.321H159.199C159.518 159.321 159.717 159.666 159.557 159.942L157.407 163.666Z" fill="white"/>
</g>
<path d="M2.50812 223.044C1.15306 223.044 0.294578 221.908 0.294578 219.93C0.294578 217.918 1.18673 216.841 2.51654 216.841C3.85476 216.841 4.69641 217.969 4.69641 219.938C4.69641 221.958 3.81268 223.044 2.50812 223.044ZM2.4997 222.303C3.32452 222.303 3.82951 221.605 3.82951 219.938C3.82951 218.272 3.32452 217.573 2.4997 217.573C1.67489 217.573 1.16989 218.263 1.16989 219.938C1.16989 221.605 1.67489 222.303 2.4997 222.303Z" fill="#B5BBC5"/>
<path d="M1.22413 195.441H0.229116V194.865H1.83947V199.598H1.22413V195.441ZM3.03257 197.234C3.03257 195.768 3.79192 194.773 4.98333 194.773C6.16818 194.773 6.92754 195.768 6.92754 197.234C6.92754 198.707 6.20091 199.683 4.98333 199.683C3.75919 199.683 3.03257 198.707 3.03257 197.234ZM3.66754 197.234C3.66754 198.4 4.15196 199.107 4.98333 199.107C5.81469 199.107 6.29256 198.4 6.29256 197.234C6.29256 196.056 5.81469 195.349 4.98333 195.349C4.15196 195.349 3.66754 196.056 3.66754 197.234ZM8.65153 199.598H8.03619V194.78H8.65153V197.902L10.0721 196.397H10.8445L9.62037 197.673L10.838 199.598H10.131L9.19487 198.118L8.65153 198.688V199.598Z" fill="#B5BBC5"/>
<path d="M3.49566 179.017L0.301124 179.023V178.532L1.82638 177.217C2.59228 176.556 2.80831 176.235 2.80831 175.731C2.80831 175.135 2.46791 174.782 1.89839 174.782C1.31578 174.782 0.936103 175.207 0.92301 175.881H0.281485C0.301124 174.867 0.942649 174.205 1.90494 174.205C2.85413 174.205 3.46293 174.782 3.46293 175.691C3.46293 176.366 3.12907 176.844 2.29116 177.57L1.30923 178.421H3.49566V179.017ZM4.4134 176.66C4.4134 175.194 5.17276 174.199 6.36416 174.199C7.54902 174.199 8.30837 175.194 8.30837 176.66C8.30837 178.133 7.58175 179.109 6.36416 179.109C5.14002 179.109 4.4134 178.133 4.4134 176.66ZM5.04838 176.66C5.04838 177.825 5.5328 178.532 6.36416 178.532C7.19552 178.532 7.67339 177.825 7.67339 176.66C7.67339 175.482 7.19552 174.775 6.36416 174.775C5.5328 174.775 5.04838 175.482 5.04838 176.66ZM10.0324 179.023H9.41703V174.205H10.0324V177.328L11.4529 175.822H12.2253L11.0012 177.099L12.2188 179.023H11.5118L10.5757 177.544L10.0324 178.114V179.023Z" fill="#B5BBC5"/>
<path d="M1.67582 155.067H1.2045V154.642L2.54646 153.352H0.418955V152.783H3.35819V153.3L2.06204 154.537C2.86722 154.635 3.47602 155.179 3.47602 156.03C3.47602 156.985 2.75594 157.594 1.79365 157.594C0.864095 157.594 0.196385 157.025 0.196385 156.043H0.831364C0.831364 156.658 1.21104 157.018 1.80674 157.018C2.42208 157.018 2.8214 156.625 2.8214 156.017C2.8214 155.447 2.42863 155.067 1.67582 155.067ZM4.36865 155.152C4.36865 153.686 5.12801 152.691 6.31941 152.691C7.50427 152.691 8.26362 153.686 8.26362 155.152C8.26362 156.625 7.537 157.601 6.31941 157.601C5.09528 157.601 4.36865 156.625 4.36865 155.152ZM5.00363 155.152C5.00363 156.318 5.48805 157.025 6.31941 157.025C7.15077 157.025 7.62864 156.318 7.62864 155.152C7.62864 153.974 7.15077 153.267 6.31941 153.267C5.48805 153.267 5.00363 153.974 5.00363 155.152ZM9.98762 157.516H9.37228V152.698H9.98762V155.82L11.4081 154.315H12.1806L10.9565 155.591L12.174 157.516H11.4671L10.531 156.036L9.98762 156.606V157.516Z" fill="#B5BBC5"/>
<path d="M3.84915 135.05H3.28618V136.006H2.67084V135.05H0.22257V134.481L2.45482 131.273H3.28618V134.481H3.84915V135.05ZM0.916464 134.481H2.67084V131.954L0.916464 134.481ZM4.80975 133.643C4.80975 132.176 5.56911 131.181 6.76051 131.181C7.94537 131.181 8.70472 132.176 8.70472 133.643C8.70472 135.116 7.9781 136.091 6.76051 136.091C5.53637 136.091 4.80975 135.116 4.80975 133.643ZM5.44473 133.643C5.44473 134.808 5.92915 135.515 6.76051 135.515C7.59187 135.515 8.06974 134.808 8.06974 133.643C8.06974 132.464 7.59187 131.757 6.76051 131.757C5.92915 131.757 5.44473 132.464 5.44473 133.643ZM10.4287 136.006H9.81338V131.188H10.4287V134.31L11.8492 132.805H12.6217L11.3976 134.081L12.6151 136.006H11.9082L10.9721 134.526L10.4287 135.096V136.006Z" fill="#B5BBC5"/>
<path d="M1.91148 113.641C0.942649 113.641 0.314216 113.026 0.314216 112.083H0.949195C0.949195 112.692 1.32233 113.065 1.92457 113.065C2.5661 113.065 2.97851 112.639 2.97851 111.998C2.97851 111.389 2.59228 110.937 1.93112 110.937C1.5318 110.937 1.16522 111.127 0.949195 111.396L0.405863 111.258L0.981926 108.83H3.35164V109.419H1.4467L1.13249 110.676C1.38124 110.486 1.69546 110.388 2.04895 110.388C3.01124 110.388 3.63313 111.062 3.63313 111.972C3.63313 112.954 2.93269 113.641 1.91148 113.641ZM4.51568 111.199C4.51568 109.733 5.27504 108.738 6.46644 108.738C7.6513 108.738 8.41066 109.733 8.41066 111.199C8.41066 112.672 7.68403 113.648 6.46644 113.648C5.24231 113.648 4.51568 112.672 4.51568 111.199ZM5.15066 111.199C5.15066 112.365 5.63508 113.072 6.46644 113.072C7.29781 113.072 7.77568 112.365 7.77568 111.199C7.77568 110.021 7.29781 109.314 6.46644 109.314C5.63508 109.314 5.15066 110.021 5.15066 111.199ZM10.1347 113.562H9.51931V108.745H10.1347V111.867L11.5552 110.361H12.3276L11.1035 111.638L12.3211 113.562H11.6141L10.678 112.083L10.1347 112.653V113.562Z" fill="#B5BBC5"/>
<path d="M0.92301 89.7545L2.02931 88.2554H2.77558L1.59072 89.8265C1.75437 89.761 1.92457 89.7283 2.08823 89.7283C3.07016 89.7283 3.73132 90.4353 3.73132 91.3714C3.73132 92.3598 2.98506 93.0668 2.00968 93.0668C1.02775 93.0668 0.268393 92.3271 0.268393 91.3714C0.268393 90.8084 0.438594 90.4156 0.92301 89.7545ZM0.92301 91.3779C0.92301 92.026 1.36815 92.4908 2.00968 92.4908C2.63811 92.4908 3.08325 92.026 3.08325 91.3779C3.08325 90.7299 2.63811 90.2716 2.00968 90.2716C1.36815 90.2716 0.92301 90.7299 0.92301 91.3779ZM4.64993 90.6251C4.64993 89.1588 5.40929 88.1638 6.60069 88.1638C7.78555 88.1638 8.5449 89.1588 8.5449 90.6251C8.5449 92.098 7.81828 93.0734 6.60069 93.0734C5.37656 93.0734 4.64993 92.098 4.64993 90.6251ZM5.28491 90.6251C5.28491 91.7903 5.76933 92.4973 6.60069 92.4973C7.43205 92.4973 7.90993 91.7903 7.90993 90.6251C7.90993 89.4468 7.43205 88.7398 6.60069 88.7398C5.76933 88.7398 5.28491 89.4468 5.28491 90.6251ZM10.2689 92.9883H9.65356V88.1703H10.2689V91.2928L11.6894 89.7872H12.4619L11.2377 91.0637L12.4553 92.9883H11.7483L10.8122 91.5088L10.2689 92.0784V92.9883Z" fill="#B5BBC5"/>
<path d="M0.0523694 66.7476H3.35819V67.3367L1.56454 71.4805H0.896826L2.71012 67.3367H0.0523694V66.7476ZM3.94673 69.1173C3.94673 67.651 4.70608 66.6559 5.89749 66.6559C7.08235 66.6559 7.8417 67.651 7.8417 69.1173C7.8417 70.5902 7.11508 71.5656 5.89749 71.5656C4.67335 71.5656 3.94673 70.5902 3.94673 69.1173ZM4.58171 69.1173C4.58171 70.2825 5.06612 70.9895 5.89749 70.9895C6.72885 70.9895 7.20672 70.2825 7.20672 69.1173C7.20672 67.939 6.72885 67.232 5.89749 67.232C5.06612 67.232 4.58171 67.939 4.58171 69.1173ZM9.5657 71.4805H8.95036V66.6625H9.5657V69.785L10.9862 68.2794H11.7587L10.5345 69.5559L11.7521 71.4805H11.0451L10.109 70.001L9.5657 70.5706V71.4805Z" fill="#B5BBC5"/>
<path d="M0.30767 48.6549C0.30767 48.0854 0.641525 47.6272 1.16522 47.4373C0.720079 47.2475 0.477871 46.8744 0.477871 46.3965C0.477871 45.6568 1.11285 45.1527 2.0555 45.1527C2.98506 45.1527 3.61349 45.6568 3.61349 46.403C3.61349 46.8875 3.36473 47.2606 2.91959 47.4373C3.44983 47.6075 3.79023 48.0789 3.79023 48.6615C3.79023 49.4928 3.09634 50.0493 2.04895 50.0493C0.995018 50.0493 0.30767 49.4928 0.30767 48.6549ZM1.06703 46.4358C1.06703 46.9005 1.45325 47.2017 2.04241 47.2017C2.63811 47.2017 3.01124 46.9071 3.01124 46.4489C3.01124 45.9972 2.63811 45.7091 2.04241 45.7091C1.45325 45.7091 1.06703 45.9972 1.06703 46.4358ZM0.936103 48.6091C0.936103 49.1393 1.3747 49.4797 2.04895 49.4797C2.71666 49.4797 3.15526 49.1393 3.15526 48.6091C3.15526 48.0854 2.72321 47.7516 2.04241 47.7516C1.36815 47.7516 0.936103 48.0854 0.936103 48.6091ZM4.73943 47.6075C4.73943 46.1412 5.49879 45.1462 6.69019 45.1462C7.87505 45.1462 8.6344 46.1412 8.6344 47.6075C8.6344 49.0804 7.90778 50.0558 6.69019 50.0558C5.46605 50.0558 4.73943 49.0804 4.73943 47.6075ZM5.37441 47.6075C5.37441 48.7728 5.85883 49.4797 6.69019 49.4797C7.52155 49.4797 7.99942 48.7728 7.99942 47.6075C7.99942 46.4292 7.52155 45.7222 6.69019 45.7222C5.85883 45.7222 5.37441 46.4292 5.37441 47.6075ZM10.3584 49.9707H9.74306V45.1527H10.3584V48.2752L11.7789 46.7696H12.5514L11.3272 48.0461L12.5448 49.9707H11.8378L10.9017 48.4913L10.3584 49.0608V49.9707Z" fill="#B5BBC5"/>
<defs>
<filter id="filter0_d_16531_183579" x="83.2261" y="98.1457" width="146.821" height="108.745" filterUnits="userSpaceOnUse" color-interpolation-filters="sRGB">
<feFlood flood-opacity="0" result="BackgroundImageFix"/>
<feColorMatrix in="SourceAlpha" type="matrix" values="0 0 0 0 0 0 0 0 0 0 0 0 0 0 0 0 0 0 127 0" result="hardAlpha"/>
<feOffset dy="5.61101"/>
<feGaussianBlur stdDeviation="18.7034"/>
<feComposite in2="hardAlpha" operator="out"/>
<feColorMatrix type="matrix" values="0 0 0 0 0.2375 0 0 0 0 0.2375 0 0 0 0 0.2375 0 0 0 0.12 0"/>
<feBlend mode="normal" in2="BackgroundImageFix" result="effect1_dropShadow_16531_183579"/>
<feBlend mode="normal" in="SourceGraphic" in2="effect1_dropShadow_16531_183579" result="shape"/>
</filter>
</defs>
</svg>
