<svg width="30" height="30" viewBox="0 0 30 30" fill="none" xmlns="http://www.w3.org/2000/svg">
<circle cx="15" cy="15" r="15" fill="#FAFAFA"/>
<path d="M11.612 12.5557C11.472 12.5557 11.3437 12.4915 11.2562 12.3748C11.157 12.2407 11.1453 12.0657 11.2212 11.9198C11.3203 11.7215 11.4603 11.529 11.6412 11.354L13.537 9.45234C14.5053 8.48984 16.0803 8.48984 17.0487 9.45234L18.0695 10.4907C18.5012 10.9165 18.7637 11.4882 18.7928 12.0949C18.7987 12.229 18.7462 12.3573 18.647 12.4448C18.5478 12.5323 18.4137 12.5732 18.2853 12.5498C18.1687 12.5323 18.0462 12.5265 17.9178 12.5265H12.0845C11.9445 12.5265 11.8103 12.5382 11.6762 12.5557C11.6587 12.5557 11.6353 12.5557 11.612 12.5557ZM12.5862 11.6457H17.8128C17.737 11.4473 17.6145 11.2665 17.4512 11.1032L16.4245 10.0648C15.8003 9.4465 14.7795 9.4465 14.1495 10.0648L12.5862 11.6457Z" fill="#228B22"/>
<path d="M10.9193 21.8542C9.95094 21.8542 9.04094 21.3408 8.55094 20.5067C8.28844 20.0867 8.14844 19.5908 8.14844 19.0833C8.14844 17.555 9.39094 16.3125 10.9193 16.3125C12.4476 16.3125 13.6901 17.555 13.6901 19.0833C13.6901 19.5908 13.5501 20.0867 13.2876 20.5125C12.7976 21.3408 11.8876 21.8542 10.9193 21.8542ZM10.9193 17.1875C9.8751 17.1875 9.02344 18.0392 9.02344 19.0833C9.02344 19.4275 9.11677 19.7658 9.2976 20.0575C9.64177 20.6408 10.2484 20.9792 10.9193 20.9792C11.5901 20.9792 12.1968 20.635 12.5409 20.0633C12.7218 19.7658 12.8151 19.4333 12.8151 19.0833C12.8151 18.0392 11.9634 17.1875 10.9193 17.1875Z" fill="#228B22"/>
<path d="M11.7852 19.5078H10.0469C9.80771 19.5078 9.60938 19.3095 9.60938 19.0703C9.60938 18.8311 9.80771 18.6328 10.0469 18.6328H11.791C12.0302 18.6328 12.2285 18.8311 12.2285 19.0703C12.2285 19.3095 12.0302 19.5078 11.7852 19.5078Z" fill="#228B22"/>
<path d="M10.9141 20.4004C10.6749 20.4004 10.4766 20.2021 10.4766 19.9629V18.2187C10.4766 17.9796 10.6749 17.7812 10.9141 17.7812C11.1532 17.7812 11.3516 17.9796 11.3516 18.2187V19.9629C11.3516 20.2079 11.1532 20.4004 10.9141 20.4004Z" fill="#228B22"/>
<path d="M17.9179 21.2695H12.4521C12.2654 21.2695 12.1021 21.1529 12.0379 20.9837C11.9737 20.8087 12.0262 20.6162 12.1662 20.4995C12.3062 20.3829 12.4346 20.2312 12.5279 20.0679C12.7146 19.7704 12.8079 19.432 12.8079 19.0879C12.8079 18.0437 11.9562 17.192 10.9121 17.192C10.3696 17.192 9.85042 17.4254 9.48875 17.8395C9.36625 17.9737 9.17375 18.0262 9.00458 17.962C8.83542 17.8979 8.71875 17.7345 8.71875 17.5537V14.9987C8.71875 13.202 9.82708 11.9012 11.5479 11.6854C11.7054 11.662 11.8862 11.6445 12.0729 11.6445H17.9062C18.0462 11.6445 18.2271 11.6504 18.4137 11.6795C20.1346 11.8779 21.2604 13.1845 21.2604 14.9987V17.9154C21.2721 19.922 19.9246 21.2695 17.9179 21.2695ZM13.3562 20.3945H17.9179C19.4229 20.3945 20.3971 19.4204 20.3971 17.9154V14.9987C20.3971 13.6337 19.5979 12.6945 18.3029 12.5429C18.1629 12.5195 18.0404 12.5195 17.9179 12.5195H12.0846C11.9446 12.5195 11.8104 12.5312 11.6762 12.5487C10.3929 12.712 9.60542 13.6454 9.60542 14.9987V16.6437C10.0021 16.4279 10.4571 16.3112 10.9179 16.3112C12.4462 16.3112 13.6888 17.5537 13.6888 19.082C13.6888 19.5429 13.5721 19.9979 13.3562 20.3945Z" fill="#228B22"/>
<path d="M20.8307 18.0638H19.0807C18.1941 18.0638 17.4766 17.3463 17.4766 16.4596C17.4766 15.573 18.1941 14.8555 19.0807 14.8555H20.8307C21.0699 14.8555 21.2682 15.0538 21.2682 15.293C21.2682 15.5321 21.0699 15.7305 20.8307 15.7305H19.0807C18.6782 15.7305 18.3516 16.0571 18.3516 16.4596C18.3516 16.8621 18.6782 17.1888 19.0807 17.1888H20.8307C21.0699 17.1888 21.2682 17.3871 21.2682 17.6263C21.2682 17.8655 21.0699 18.0638 20.8307 18.0638Z" fill="#228B22"/>
</svg>
