<svg width="54" height="54" viewBox="0 0 54 54" fill="none" xmlns="http://www.w3.org/2000/svg">
<rect x="0.53418" y="0.519531" width="53.4575" height="53.4576" rx="10" fill="#F0FDF4"/>
<path d="M18.0445 34.0814L24.3085 27.8174L28.1496 31.6585C28.6342 32.1431 29.4142 32.1195 29.8634 31.6113L38.3375 22.0734C38.7511 21.6125 38.7275 20.9034 38.2902 20.4543C38.1766 20.341 38.0412 20.2521 37.8921 20.1929C37.7431 20.1337 37.5835 20.1054 37.4232 20.1098C37.2629 20.1142 37.1051 20.1513 36.9595 20.2186C36.814 20.2859 36.6836 20.3822 36.5765 20.5015L29.0242 28.9875L25.1358 25.0991C25.0265 24.9895 24.8966 24.9026 24.7536 24.8433C24.6106 24.784 24.4574 24.7534 24.3026 24.7534C24.1478 24.7534 23.9945 24.784 23.8515 24.8433C23.7086 24.9026 23.5787 24.9895 23.4693 25.0991L16.2717 32.3086C16.1621 32.4179 16.0752 32.5478 16.0159 32.6908C15.9566 32.8337 15.926 32.987 15.926 33.1418C15.926 33.2966 15.9566 33.4499 16.0159 33.5928C16.0752 33.7358 16.1621 33.8657 16.2717 33.975L16.378 34.0814C16.839 34.5423 17.5954 34.5423 18.0445 34.0814Z" fill="#22C55E"/>
</svg>
