<svg width="256" height="314" viewBox="0 0 256 314" fill="none" xmlns="http://www.w3.org/2000/svg">
<g clip-path="url(#clip0_4657_48391)">
<rect y="0.5" width="256" height="313" rx="16" fill="white"/>
<path d="M35.14 74.02V72.34H39.8C40.5733 72.34 41.1933 72.1067 41.66 71.64C42.14 71.1733 42.38 70.56 42.38 69.8C42.38 69.0133 42.14 68.3933 41.66 67.94C41.1933 67.4867 40.5733 67.26 39.8 67.26H35.46V78.5H33.54V65.52H39.72C40.36 65.52 40.9533 65.6133 41.5 65.8C42.06 65.9733 42.5467 66.24 42.96 66.6C43.3867 66.96 43.7133 67.4067 43.94 67.94C44.18 68.4733 44.3 69.0933 44.3 69.8C44.3 70.4933 44.18 71.1067 43.94 71.64C43.7133 72.1733 43.3867 72.62 42.96 72.98C42.5467 73.3267 42.06 73.5867 41.5 73.76C40.9533 73.9333 40.36 74.02 39.72 74.02H35.14ZM50.2316 78.7C49.3782 78.7 48.5982 78.48 47.8916 78.04C47.1849 77.6 46.6249 76.9933 46.2116 76.22C45.7982 75.4333 45.5916 74.5333 45.5916 73.52C45.5916 72.5067 45.7982 71.6133 46.2116 70.84C46.6382 70.0533 47.2182 69.44 47.9516 69C48.6849 68.5467 49.5049 68.32 50.4116 68.32C51.4116 68.32 52.1849 68.5533 52.7316 69.02C53.2916 69.4867 53.6782 70.1133 53.8916 70.9C54.1182 71.6867 54.2316 72.56 54.2316 73.52C54.2316 74.0533 54.1649 74.62 54.0316 75.22C53.8982 75.82 53.6849 76.3867 53.3916 76.92C53.0982 77.4533 52.6916 77.8867 52.1716 78.22C51.6516 78.54 51.0049 78.7 50.2316 78.7ZM50.7716 77.04C51.4782 77.04 52.0716 76.8867 52.5516 76.58C53.0449 76.26 53.4116 75.8333 53.6516 75.3C53.8916 74.7667 54.0116 74.1733 54.0116 73.52C54.0116 72.8133 53.8849 72.1933 53.6316 71.66C53.3916 71.1267 53.0249 70.7133 52.5316 70.42C52.0516 70.1267 51.4649 69.98 50.7716 69.98C49.7316 69.98 48.9249 70.3133 48.3516 70.98C47.7916 71.6467 47.5116 72.4933 47.5116 73.52C47.5116 74.2133 47.6516 74.8267 47.9316 75.36C48.2116 75.88 48.5916 76.2933 49.0716 76.6C49.5649 76.8933 50.1316 77.04 50.7716 77.04ZM54.0116 68.52H55.9316V78.5H54.1716C54.1716 78.5 54.1582 78.38 54.1316 78.14C54.1049 77.8867 54.0782 77.5867 54.0516 77.24C54.0249 76.8933 54.0116 76.5867 54.0116 76.32V68.52ZM57.5358 68.52H59.5758L63.3958 78.1L61.7358 78.5L57.5358 68.52ZM67.7158 68.52L61.7358 82.5H59.7158L62.2958 77.08L65.6958 68.52H67.7158ZM69.3538 68.52H71.2738V78.5H69.3538V68.52ZM75.0738 68.32C75.6338 68.32 76.1404 68.4 76.5938 68.56C77.0471 68.72 77.4338 68.96 77.7538 69.28C78.0738 69.5867 78.3204 69.9733 78.4938 70.44C78.6804 70.8933 78.7738 71.4133 78.7738 72V78.5H76.8738V72.42C76.8738 71.6333 76.6804 71.0467 76.2938 70.66C75.9204 70.26 75.3471 70.06 74.5738 70.06C73.9738 70.06 73.4271 70.2 72.9338 70.48C72.4404 70.76 72.0338 71.1333 71.7138 71.6C71.4071 72.0533 71.2204 72.5667 71.1538 73.14L71.1338 72.04C71.2004 71.5067 71.3404 71.0133 71.5538 70.56C71.7804 70.1067 72.0604 69.7133 72.3938 69.38C72.7404 69.0333 73.1404 68.7733 73.5938 68.6C74.0471 68.4133 74.5404 68.32 75.0738 68.32ZM82.3938 68.32C82.9538 68.32 83.4604 68.4 83.9138 68.56C84.3671 68.72 84.7538 68.96 85.0738 69.28C85.3938 69.5867 85.6404 69.9733 85.8138 70.44C86.0004 70.8933 86.0938 71.4133 86.0938 72V78.5H84.1938V72.42C84.1938 71.6333 84.0004 71.0467 83.6138 70.66C83.2404 70.26 82.6671 70.06 81.8938 70.06C81.2938 70.06 80.7471 70.2 80.2538 70.48C79.7604 70.76 79.3538 71.1333 79.0338 71.6C78.7271 72.0533 78.5404 72.5667 78.4738 73.14L78.4538 72.02C78.5204 71.4867 78.6604 71 78.8738 70.56C79.1004 70.1067 79.3871 69.7133 79.7338 69.38C80.0804 69.0333 80.4804 68.7733 80.9338 68.6C81.3871 68.4133 81.8738 68.32 82.3938 68.32ZM96.3116 75.26H98.1316C98.0249 75.9133 97.7716 76.5 97.3716 77.02C96.9716 77.54 96.4449 77.9533 95.7916 78.26C95.1382 78.5667 94.3716 78.72 93.4916 78.72C92.4516 78.72 91.5249 78.5 90.7116 78.06C89.8982 77.62 89.2582 77.0133 88.7916 76.24C88.3249 75.4667 88.0916 74.5667 88.0916 73.54C88.0916 72.5 88.3182 71.5933 88.7716 70.82C89.2249 70.0333 89.8516 69.42 90.6516 68.98C91.4516 68.54 92.3649 68.32 93.3916 68.32C94.4716 68.32 95.3782 68.5333 96.1116 68.96C96.8449 69.3867 97.3849 70.02 97.7316 70.86C98.0916 71.6867 98.2382 72.72 98.1716 73.96H89.9916C90.0582 74.56 90.2382 75.0933 90.5316 75.56C90.8382 76.0267 91.2382 76.3933 91.7316 76.66C92.2382 76.9267 92.8182 77.06 93.4716 77.06C94.2049 77.06 94.8182 76.8933 95.3116 76.56C95.8049 76.2267 96.1382 75.7933 96.3116 75.26ZM93.4116 69.96C92.5449 69.96 91.8249 70.1933 91.2516 70.66C90.6782 71.1133 90.2982 71.72 90.1116 72.48H96.2516C96.1982 71.6667 95.9049 71.0467 95.3716 70.62C94.8382 70.18 94.1849 69.96 93.4116 69.96ZM100.194 68.52H102.114V78.5H100.194V68.52ZM105.914 68.32C106.474 68.32 106.98 68.4 107.434 68.56C107.887 68.72 108.274 68.96 108.594 69.28C108.914 69.5867 109.16 69.9733 109.334 70.44C109.52 70.8933 109.614 71.4133 109.614 72V78.5H107.714V72.42C107.714 71.6333 107.52 71.0467 107.134 70.66C106.76 70.26 106.187 70.06 105.414 70.06C104.814 70.06 104.267 70.2 103.774 70.48C103.28 70.76 102.874 71.1333 102.554 71.6C102.247 72.0533 102.06 72.5667 101.994 73.14L101.974 72.04C102.04 71.5067 102.18 71.0133 102.394 70.56C102.62 70.1067 102.9 69.7133 103.234 69.38C103.58 69.0333 103.98 68.7733 104.434 68.6C104.887 68.4133 105.38 68.32 105.914 68.32ZM111.427 68.52H117.887V70.18H111.427V68.52ZM113.707 65.88H115.607V78.5H113.707V65.88ZM123.54 74.24H125.38C125.42 74.76 125.593 75.2333 125.9 75.66C126.22 76.0733 126.647 76.4 127.18 76.64C127.727 76.88 128.36 77 129.08 77C129.707 77 130.227 76.9133 130.64 76.74C131.053 76.5667 131.36 76.3333 131.56 76.04C131.773 75.7333 131.88 75.3733 131.88 74.96C131.88 74.5467 131.767 74.22 131.54 73.98C131.313 73.7267 130.973 73.52 130.52 73.36C130.067 73.1867 129.507 73.02 128.84 72.86C128.253 72.7133 127.673 72.54 127.1 72.34C126.54 72.1267 126.02 71.8667 125.54 71.56C125.073 71.2533 124.693 70.8867 124.4 70.46C124.12 70.02 123.98 69.4933 123.98 68.88C123.98 68.2267 124.16 67.6333 124.52 67.1C124.88 66.5533 125.407 66.12 126.1 65.8C126.807 65.4667 127.66 65.3 128.66 65.3C130.207 65.3 131.373 65.6867 132.16 66.46C132.96 67.2333 133.347 68.2667 133.32 69.56H131.52C131.48 68.6533 131.193 68.0067 130.66 67.62C130.127 67.22 129.433 67.02 128.58 67.02C127.847 67.02 127.22 67.1733 126.7 67.48C126.18 67.7733 125.92 68.24 125.92 68.88C125.92 69.16 125.98 69.4067 126.1 69.62C126.22 69.82 126.42 70.0067 126.7 70.18C126.98 70.3533 127.353 70.52 127.82 70.68C128.3 70.84 128.893 71.0133 129.6 71.2C130.133 71.32 130.647 71.4733 131.14 71.66C131.647 71.8467 132.1 72.08 132.5 72.36C132.9 72.64 133.213 73 133.44 73.44C133.68 73.88 133.8 74.42 133.8 75.06C133.8 75.74 133.633 76.36 133.3 76.92C132.967 77.4667 132.447 77.9067 131.74 78.24C131.047 78.56 130.147 78.72 129.04 78.72C128.16 78.72 127.393 78.6067 126.74 78.38C126.1 78.1533 125.56 77.86 125.12 77.5C124.693 77.14 124.353 76.7533 124.1 76.34C123.86 75.9267 123.693 75.5333 123.6 75.16C123.52 74.7867 123.5 74.48 123.54 74.24ZM145.278 78.5H143.378V68.52H145.278V78.5ZM143.478 73.8L143.498 74.4C143.484 74.5733 143.438 74.8333 143.358 75.18C143.291 75.5133 143.171 75.88 142.998 76.28C142.838 76.68 142.611 77.0667 142.318 77.44C142.038 77.8133 141.678 78.12 141.238 78.36C140.798 78.6 140.264 78.72 139.638 78.72C139.211 78.72 138.771 78.66 138.318 78.54C137.878 78.42 137.471 78.22 137.098 77.94C136.724 77.66 136.424 77.28 136.198 76.8C135.971 76.3067 135.858 75.6933 135.858 74.96V68.52H137.778V74.56C137.778 75.1733 137.871 75.6533 138.058 76C138.258 76.3467 138.538 76.5933 138.898 76.74C139.258 76.8867 139.664 76.96 140.118 76.96C140.811 76.96 141.391 76.7933 141.858 76.46C142.338 76.1133 142.711 75.7 142.978 75.22C143.244 74.7267 143.411 74.2533 143.478 73.8ZM147.791 68.52H149.711V78.5H147.791V68.52ZM153.511 68.32C154.071 68.32 154.578 68.4 155.031 68.56C155.485 68.72 155.871 68.96 156.191 69.28C156.511 69.5867 156.758 69.9733 156.931 70.44C157.118 70.8933 157.211 71.4133 157.211 72V78.5H155.311V72.42C155.311 71.6333 155.118 71.0467 154.731 70.66C154.358 70.26 153.785 70.06 153.011 70.06C152.411 70.06 151.865 70.2 151.371 70.48C150.878 70.76 150.471 71.1333 150.151 71.6C149.845 72.0533 149.658 72.5667 149.591 73.14L149.571 72.04C149.638 71.5067 149.778 71.0133 149.991 70.56C150.218 70.1067 150.498 69.7133 150.831 69.38C151.178 69.0333 151.578 68.7733 152.031 68.6C152.485 68.4133 152.978 68.32 153.511 68.32ZM160.831 68.32C161.391 68.32 161.898 68.4 162.351 68.56C162.805 68.72 163.191 68.96 163.511 69.28C163.831 69.5867 164.078 69.9733 164.251 70.44C164.438 70.8933 164.531 71.4133 164.531 72V78.5H162.631V72.42C162.631 71.6333 162.438 71.0467 162.051 70.66C161.678 70.26 161.105 70.06 160.331 70.06C159.731 70.06 159.185 70.2 158.691 70.48C158.198 70.76 157.791 71.1333 157.471 71.6C157.165 72.0533 156.978 72.5667 156.911 73.14L156.891 72.02C156.958 71.4867 157.098 71 157.311 70.56C157.538 70.1067 157.825 69.7133 158.171 69.38C158.518 69.0333 158.918 68.7733 159.371 68.6C159.825 68.4133 160.311 68.32 160.831 68.32ZM167.049 68.52H168.969V78.5H167.049V68.52ZM172.769 68.32C173.329 68.32 173.836 68.4 174.289 68.56C174.742 68.72 175.129 68.96 175.449 69.28C175.769 69.5867 176.016 69.9733 176.189 70.44C176.376 70.8933 176.469 71.4133 176.469 72V78.5H174.569V72.42C174.569 71.6333 174.376 71.0467 173.989 70.66C173.616 70.26 173.042 70.06 172.269 70.06C171.669 70.06 171.122 70.2 170.629 70.48C170.136 70.76 169.729 71.1333 169.409 71.6C169.102 72.0533 168.916 72.5667 168.849 73.14L168.829 72.04C168.896 71.5067 169.036 71.0133 169.249 70.56C169.476 70.1067 169.756 69.7133 170.089 69.38C170.436 69.0333 170.836 68.7733 171.289 68.6C171.742 68.4133 172.236 68.32 172.769 68.32ZM180.089 68.32C180.649 68.32 181.156 68.4 181.609 68.56C182.062 68.72 182.449 68.96 182.769 69.28C183.089 69.5867 183.336 69.9733 183.509 70.44C183.696 70.8933 183.789 71.4133 183.789 72V78.5H181.889V72.42C181.889 71.6333 181.696 71.0467 181.309 70.66C180.936 70.26 180.362 70.06 179.589 70.06C178.989 70.06 178.442 70.2 177.949 70.48C177.456 70.76 177.049 71.1333 176.729 71.6C176.422 72.0533 176.236 72.5667 176.169 73.14L176.149 72.02C176.216 71.4867 176.356 71 176.569 70.56C176.796 70.1067 177.082 69.7133 177.429 69.38C177.776 69.0333 178.176 68.7733 178.629 68.6C179.082 68.4133 179.569 68.32 180.089 68.32ZM190.427 78.7C189.574 78.7 188.794 78.48 188.087 78.04C187.38 77.6 186.82 76.9933 186.407 76.22C185.994 75.4333 185.787 74.5333 185.787 73.52C185.787 72.5067 185.994 71.6133 186.407 70.84C186.834 70.0533 187.414 69.44 188.147 69C188.88 68.5467 189.7 68.32 190.607 68.32C191.607 68.32 192.38 68.5533 192.927 69.02C193.487 69.4867 193.874 70.1133 194.087 70.9C194.314 71.6867 194.427 72.56 194.427 73.52C194.427 74.0533 194.36 74.62 194.227 75.22C194.094 75.82 193.88 76.3867 193.587 76.92C193.294 77.4533 192.887 77.8867 192.367 78.22C191.847 78.54 191.2 78.7 190.427 78.7ZM190.967 77.04C191.674 77.04 192.267 76.8867 192.747 76.58C193.24 76.26 193.607 75.8333 193.847 75.3C194.087 74.7667 194.207 74.1733 194.207 73.52C194.207 72.8133 194.08 72.1933 193.827 71.66C193.587 71.1267 193.22 70.7133 192.727 70.42C192.247 70.1267 191.66 69.98 190.967 69.98C189.927 69.98 189.12 70.3133 188.547 70.98C187.987 71.6467 187.707 72.4933 187.707 73.52C187.707 74.2133 187.847 74.8267 188.127 75.36C188.407 75.88 188.787 76.2933 189.267 76.6C189.76 76.8933 190.327 77.04 190.967 77.04ZM194.207 68.52H196.127V78.5H194.367C194.367 78.5 194.354 78.38 194.327 78.14C194.3 77.8867 194.274 77.5867 194.247 77.24C194.22 76.8933 194.207 76.5867 194.207 76.32V68.52ZM198.631 68.52H200.551V78.5H198.631V68.52ZM203.931 70.22C203.238 70.22 202.644 70.38 202.151 70.7C201.671 71.02 201.284 71.4133 200.991 71.88C200.711 72.3467 200.524 72.7933 200.431 73.22L200.411 72.08C200.424 71.9467 200.458 71.74 200.511 71.46C200.578 71.1667 200.691 70.84 200.851 70.48C201.011 70.12 201.224 69.78 201.491 69.46C201.758 69.1267 202.091 68.8533 202.491 68.64C202.891 68.4267 203.371 68.32 203.931 68.32V70.22ZM204.762 68.52H206.802L210.622 78.1L208.962 78.5L204.762 68.52ZM214.942 68.52L208.962 82.5H206.942L209.522 77.08L212.922 68.52H214.942Z" fill="white"/>
<path d="M41 194C41 183.166 43.1339 172.438 47.2799 162.429C51.4259 152.419 57.5029 143.325 65.1637 135.664C72.8245 128.003 81.9193 121.926 91.9286 117.78C101.938 113.634 112.666 111.5 123.5 111.5C134.334 111.5 145.062 113.634 155.071 117.78C165.081 121.926 174.176 128.003 181.836 135.664C189.497 143.325 195.574 152.419 199.72 162.429C203.866 172.438 206 183.166 206 194L172.886 194C172.886 187.515 171.609 181.093 169.127 175.101C166.645 169.109 163.007 163.665 158.421 159.079C153.835 154.493 148.391 150.855 142.399 148.373C136.407 145.891 129.986 144.614 123.5 144.614C117.015 144.614 110.593 145.891 104.601 148.373C98.6089 150.855 93.1646 154.493 88.5787 159.079C83.9927 163.665 80.355 169.109 77.8731 175.101C75.3912 181.093 74.1138 187.515 74.1138 194L41 194Z" fill="#328A28"/>
<path d="M100.38 114.806C112.815 111.175 125.931 110.525 138.664 112.906C151.397 115.287 163.391 120.633 173.674 128.511C183.957 136.389 192.24 146.578 197.853 158.253C203.466 169.928 206.251 182.761 205.982 195.712L172.876 195.025C173.037 187.272 171.37 179.59 168.009 172.601C164.649 165.612 159.691 159.513 153.535 154.797C147.38 150.081 140.2 146.881 132.577 145.455C124.955 144.03 117.104 144.42 109.66 146.593L100.38 114.806Z" fill="#F2994A"/>
<path d="M32.24 37.246V36.042H37.112V37.246H32.24ZM30.266 39.5L33.976 30.414H35.404L39.142 39.5H37.686L34.438 31.296H34.942L31.708 39.5H30.266ZM47.1069 36.84C47.0509 37.4187 46.8642 37.9227 46.5469 38.352C46.2389 38.772 45.8329 39.094 45.3289 39.318C44.8249 39.542 44.2649 39.654 43.6489 39.654C42.9676 39.654 42.3422 39.514 41.7729 39.234C41.2036 38.9447 40.7462 38.5293 40.4009 37.988C40.0649 37.4373 39.8969 36.784 39.8969 36.028C39.8969 35.2627 40.0649 34.6093 40.4009 34.068C40.7462 33.5173 41.2036 33.0973 41.7729 32.808C42.3422 32.5187 42.9676 32.374 43.6489 32.374C44.2649 32.374 44.8202 32.486 45.3149 32.71C45.8096 32.934 46.2156 33.256 46.5329 33.676C46.8502 34.0867 47.0416 34.5813 47.1069 35.16H45.8889C45.7302 34.656 45.4456 34.2593 45.0349 33.97C44.6336 33.6713 44.1716 33.522 43.6489 33.522C43.2196 33.522 42.8182 33.62 42.4449 33.816C42.0809 34.012 41.7869 34.2967 41.5629 34.67C41.3482 35.034 41.2409 35.4867 41.2409 36.028C41.2409 36.5507 41.3482 36.9987 41.5629 37.372C41.7869 37.736 42.0809 38.016 42.4449 38.212C42.8089 38.3987 43.2102 38.492 43.6489 38.492C44.2462 38.492 44.7316 38.3473 45.1049 38.058C45.4782 37.7687 45.7442 37.3627 45.9029 36.84H47.1069ZM48.015 32.514H52.537V33.676H48.015V32.514ZM49.611 30.666H50.941V39.5H49.611V30.666ZM55.4197 29.63V31.072H53.7537V29.63H55.4197ZM53.9217 32.514H55.2517V39.5H53.9217V32.514ZM60.1977 38.464H59.7637L62.0317 32.514H63.4877L60.6177 39.5H59.3577L56.5157 32.514H57.9857L60.1977 38.464ZM69.7954 37.232H71.0694C70.9948 37.6893 70.8174 38.1 70.5374 38.464C70.2574 38.828 69.8888 39.1173 69.4314 39.332C68.9741 39.5467 68.4374 39.654 67.8214 39.654C67.0934 39.654 66.4448 39.5 65.8754 39.192C65.3061 38.884 64.8581 38.4593 64.5314 37.918C64.2048 37.3767 64.0414 36.7467 64.0414 36.028C64.0414 35.3 64.2001 34.6653 64.5174 34.124C64.8348 33.5733 65.2734 33.144 65.8334 32.836C66.3934 32.528 67.0328 32.374 67.7514 32.374C68.5074 32.374 69.1421 32.5233 69.6554 32.822C70.1688 33.1207 70.5468 33.564 70.7894 34.152C71.0414 34.7307 71.1441 35.454 71.0974 36.322H65.3714C65.4181 36.742 65.5441 37.1153 65.7494 37.442C65.9641 37.7687 66.2441 38.0253 66.5894 38.212C66.9441 38.3987 67.3501 38.492 67.8074 38.492C68.3208 38.492 68.7501 38.3753 69.0954 38.142C69.4408 37.9087 69.6741 37.6053 69.7954 37.232ZM67.7654 33.522C67.1588 33.522 66.6548 33.6853 66.2534 34.012C65.8521 34.3293 65.5861 34.754 65.4554 35.286H69.7534C69.7161 34.7167 69.5108 34.2827 69.1374 33.984C68.7641 33.676 68.3068 33.522 67.7654 33.522ZM75.589 32.514H76.933V39.5H75.589V32.514ZM79.593 32.374C79.985 32.374 80.3397 32.43 80.657 32.542C80.9744 32.654 81.245 32.822 81.469 33.046C81.693 33.2607 81.8657 33.5313 81.987 33.858C82.1177 34.1753 82.183 34.5393 82.183 34.95V39.5H80.853V35.244C80.853 34.6933 80.7177 34.2827 80.447 34.012C80.1857 33.732 79.7844 33.592 79.243 33.592C78.823 33.592 78.4404 33.69 78.095 33.886C77.7497 34.082 77.465 34.3433 77.241 34.67C77.0264 34.9873 76.8957 35.3467 76.849 35.748L76.835 34.978C76.8817 34.6047 76.9797 34.2593 77.129 33.942C77.2877 33.6247 77.4837 33.3493 77.717 33.116C77.9597 32.8733 78.2397 32.6913 78.557 32.57C78.8744 32.4393 79.2197 32.374 79.593 32.374ZM84.717 32.374C85.109 32.374 85.4637 32.43 85.781 32.542C86.0984 32.654 86.369 32.822 86.593 33.046C86.817 33.2607 86.9897 33.5313 87.111 33.858C87.2417 34.1753 87.307 34.5393 87.307 34.95V39.5H85.977V35.244C85.977 34.6933 85.8417 34.2827 85.571 34.012C85.3097 33.732 84.9084 33.592 84.367 33.592C83.947 33.592 83.5644 33.69 83.219 33.886C82.8737 34.082 82.589 34.3433 82.365 34.67C82.1504 34.9873 82.0197 35.3467 81.973 35.748L81.959 34.964C82.0057 34.5907 82.1037 34.25 82.253 33.942C82.4117 33.6247 82.6124 33.3493 82.855 33.116C83.0977 32.8733 83.3777 32.6913 83.695 32.57C84.0124 32.4393 84.353 32.374 84.717 32.374ZM91.9535 39.64C91.3562 39.64 90.8102 39.486 90.3155 39.178C89.8208 38.87 89.4288 38.4453 89.1395 37.904C88.8502 37.3533 88.7055 36.7233 88.7055 36.014C88.7055 35.3047 88.8502 34.6793 89.1395 34.138C89.4382 33.5873 89.8442 33.158 90.3575 32.85C90.8708 32.5327 91.4448 32.374 92.0795 32.374C92.7795 32.374 93.3208 32.5373 93.7035 32.864C94.0955 33.1907 94.3662 33.6293 94.5155 34.18C94.6742 34.7307 94.7535 35.342 94.7535 36.014C94.7535 36.3873 94.7068 36.784 94.6135 37.204C94.5202 37.624 94.3708 38.0207 94.1655 38.394C93.9602 38.7673 93.6755 39.0707 93.3115 39.304C92.9475 39.528 92.4948 39.64 91.9535 39.64ZM92.3315 38.478C92.8262 38.478 93.2415 38.3707 93.5775 38.156C93.9228 37.932 94.1795 37.6333 94.3475 37.26C94.5155 36.8867 94.5995 36.4713 94.5995 36.014C94.5995 35.5193 94.5108 35.0853 94.3335 34.712C94.1655 34.3387 93.9088 34.0493 93.5635 33.844C93.2275 33.6387 92.8168 33.536 92.3315 33.536C91.6035 33.536 91.0388 33.7693 90.6375 34.236C90.2455 34.7027 90.0495 35.2953 90.0495 36.014C90.0495 36.4993 90.1475 36.9287 90.3435 37.302C90.5395 37.666 90.8055 37.9553 91.1415 38.17C91.4868 38.3753 91.8835 38.478 92.3315 38.478ZM94.5995 32.514H95.9435V39.5H94.7115C94.7115 39.5 94.7022 39.416 94.6835 39.248C94.6648 39.0707 94.6462 38.8607 94.6275 38.618C94.6088 38.3753 94.5995 38.1607 94.5995 37.974V32.514ZM97.8365 29.714H99.1805V39.5H97.8365V29.714ZM106.491 37.232H107.765C107.69 37.6893 107.513 38.1 107.233 38.464C106.953 38.828 106.584 39.1173 106.127 39.332C105.669 39.5467 105.133 39.654 104.517 39.654C103.789 39.654 103.14 39.5 102.571 39.192C102.001 38.884 101.553 38.4593 101.227 37.918C100.9 37.3767 100.737 36.7467 100.737 36.028C100.737 35.3 100.895 34.6653 101.213 34.124C101.53 33.5733 101.969 33.144 102.529 32.836C103.089 32.528 103.728 32.374 104.447 32.374C105.203 32.374 105.837 32.5233 106.351 32.822C106.864 33.1207 107.242 33.564 107.485 34.152C107.737 34.7307 107.839 35.454 107.793 36.322H102.067C102.113 36.742 102.239 37.1153 102.445 37.442C102.659 37.7687 102.939 38.0253 103.285 38.212C103.639 38.3987 104.045 38.492 104.503 38.492C105.016 38.492 105.445 38.3753 105.791 38.142C106.136 37.9087 106.369 37.6053 106.491 37.232ZM104.461 33.522C103.854 33.522 103.35 33.6853 102.949 34.012C102.547 34.3293 102.281 34.754 102.151 35.286H106.449C106.411 34.7167 106.206 34.2827 105.833 33.984C105.459 33.676 105.002 33.522 104.461 33.522ZM112.848 29.252L113.996 29.658L109.894 40.9L108.774 40.48L112.848 29.252ZM122.726 30.414V31.618H116.888V34.446H121.662V35.622H116.888V39.5H115.544V30.414H122.726ZM128.899 37.232H130.173C130.098 37.6893 129.921 38.1 129.641 38.464C129.361 38.828 128.992 39.1173 128.535 39.332C128.078 39.5467 127.541 39.654 126.925 39.654C126.197 39.654 125.548 39.5 124.979 39.192C124.41 38.884 123.962 38.4593 123.635 37.918C123.308 37.3767 123.145 36.7467 123.145 36.028C123.145 35.3 123.304 34.6653 123.621 34.124C123.938 33.5733 124.377 33.144 124.937 32.836C125.497 32.528 126.136 32.374 126.855 32.374C127.611 32.374 128.246 32.5233 128.759 32.822C129.272 33.1207 129.65 33.564 129.893 34.152C130.145 34.7307 130.248 35.454 130.201 36.322H124.475C124.522 36.742 124.648 37.1153 124.853 37.442C125.068 37.7687 125.348 38.0253 125.693 38.212C126.048 38.3987 126.454 38.492 126.911 38.492C127.424 38.492 127.854 38.3753 128.199 38.142C128.544 37.9087 128.778 37.6053 128.899 37.232ZM126.869 33.522C126.262 33.522 125.758 33.6853 125.357 34.012C124.956 34.3293 124.69 34.754 124.559 35.286H128.857C128.82 34.7167 128.614 34.2827 128.241 33.984C127.868 33.676 127.41 33.522 126.869 33.522ZM131.616 32.514H132.96V39.5H131.616V32.514ZM135.62 32.374C136.012 32.374 136.367 32.43 136.684 32.542C137.002 32.654 137.272 32.822 137.496 33.046C137.72 33.2607 137.893 33.5313 138.014 33.858C138.145 34.1753 138.21 34.5393 138.21 34.95V39.5H136.88V35.244C136.88 34.6933 136.745 34.2827 136.474 34.012C136.213 33.732 135.812 33.592 135.27 33.592C134.85 33.592 134.468 33.69 134.122 33.886C133.777 34.082 133.492 34.3433 133.268 34.67C133.054 34.9873 132.923 35.3467 132.876 35.748L132.862 34.978C132.909 34.6047 133.007 34.2593 133.156 33.942C133.315 33.6247 133.511 33.3493 133.744 33.116C133.987 32.8733 134.267 32.6913 134.584 32.57C134.902 32.4393 135.247 32.374 135.62 32.374ZM140.744 32.374C141.136 32.374 141.491 32.43 141.808 32.542C142.126 32.654 142.396 32.822 142.62 33.046C142.844 33.2607 143.017 33.5313 143.138 33.858C143.269 34.1753 143.334 34.5393 143.334 34.95V39.5H142.004V35.244C142.004 34.6933 141.869 34.2827 141.598 34.012C141.337 33.732 140.936 33.592 140.394 33.592C139.974 33.592 139.592 33.69 139.246 33.886C138.901 34.082 138.616 34.3433 138.392 34.67C138.178 34.9873 138.047 35.3467 138 35.748L137.986 34.964C138.033 34.5907 138.131 34.25 138.28 33.942C138.439 33.6247 138.64 33.3493 138.882 33.116C139.125 32.8733 139.405 32.6913 139.722 32.57C140.04 32.4393 140.38 32.374 140.744 32.374ZM147.981 39.64C147.384 39.64 146.838 39.486 146.343 39.178C145.848 38.87 145.456 38.4453 145.167 37.904C144.878 37.3533 144.733 36.7233 144.733 36.014C144.733 35.3047 144.878 34.6793 145.167 34.138C145.466 33.5873 145.872 33.158 146.385 32.85C146.898 32.5327 147.472 32.374 148.107 32.374C148.807 32.374 149.348 32.5373 149.731 32.864C150.123 33.1907 150.394 33.6293 150.543 34.18C150.702 34.7307 150.781 35.342 150.781 36.014C150.781 36.3873 150.734 36.784 150.641 37.204C150.548 37.624 150.398 38.0207 150.193 38.394C149.988 38.7673 149.703 39.0707 149.339 39.304C148.975 39.528 148.522 39.64 147.981 39.64ZM148.359 38.478C148.854 38.478 149.269 38.3707 149.605 38.156C149.95 37.932 150.207 37.6333 150.375 37.26C150.543 36.8867 150.627 36.4713 150.627 36.014C150.627 35.5193 150.538 35.0853 150.361 34.712C150.193 34.3387 149.936 34.0493 149.591 33.844C149.255 33.6387 148.844 33.536 148.359 33.536C147.631 33.536 147.066 33.7693 146.665 34.236C146.273 34.7027 146.077 35.2953 146.077 36.014C146.077 36.4993 146.175 36.9287 146.371 37.302C146.567 37.666 146.833 37.9553 147.169 38.17C147.514 38.3753 147.911 38.478 148.359 38.478ZM150.627 32.514H151.971V39.5H150.739C150.739 39.5 150.73 39.416 150.711 39.248C150.692 39.0707 150.674 38.8607 150.655 38.618C150.636 38.3753 150.627 38.1607 150.627 37.974V32.514ZM153.864 29.714H155.208V39.5H153.864V29.714ZM162.518 37.232H163.792C163.717 37.6893 163.54 38.1 163.26 38.464C162.98 38.828 162.611 39.1173 162.154 39.332C161.697 39.5467 161.16 39.654 160.544 39.654C159.816 39.654 159.167 39.5 158.598 39.192C158.029 38.884 157.581 38.4593 157.254 37.918C156.927 37.3767 156.764 36.7467 156.764 36.028C156.764 35.3 156.923 34.6653 157.24 34.124C157.557 33.5733 157.996 33.144 158.556 32.836C159.116 32.528 159.755 32.374 160.474 32.374C161.23 32.374 161.865 32.5233 162.378 32.822C162.891 33.1207 163.269 33.564 163.512 34.152C163.764 34.7307 163.867 35.454 163.82 36.322H158.094C158.141 36.742 158.267 37.1153 158.472 37.442C158.687 37.7687 158.967 38.0253 159.312 38.212C159.667 38.3987 160.073 38.492 160.53 38.492C161.043 38.492 161.473 38.3753 161.818 38.142C162.163 37.9087 162.397 37.6053 162.518 37.232ZM160.488 33.522C159.881 33.522 159.377 33.6853 158.976 34.012C158.575 34.3293 158.309 34.754 158.178 35.286H162.476C162.439 34.7167 162.233 34.2827 161.86 33.984C161.487 33.676 161.029 33.522 160.488 33.522ZM35.11 63.64C34.5593 63.64 34.102 63.528 33.738 63.304C33.3833 63.0707 33.0987 62.7673 32.884 62.394C32.6787 62.0207 32.5293 61.624 32.436 61.204C32.3427 60.784 32.296 60.3873 32.296 60.014C32.296 59.51 32.338 59.0387 32.422 58.6C32.5153 58.1613 32.6647 57.774 32.87 57.438C33.0753 57.102 33.36 56.8407 33.724 56.654C34.088 56.4673 34.55 56.374 35.11 56.374C35.7353 56.374 36.2907 56.5327 36.776 56.85C37.2707 57.158 37.658 57.5873 37.938 58.138C38.218 58.6793 38.358 59.3047 38.358 60.014C38.358 60.7233 38.2133 61.3533 37.924 61.904C37.6347 62.4453 37.2427 62.87 36.748 63.178C36.2627 63.486 35.7167 63.64 35.11 63.64ZM34.732 62.478C35.18 62.478 35.572 62.3753 35.908 62.17C36.2533 61.9553 36.5193 61.666 36.706 61.302C36.902 60.9287 37 60.4993 37 60.014C37 59.2953 36.7993 58.7027 36.398 58.236C36.006 57.7693 35.4507 57.536 34.732 57.536C34.2467 57.536 33.8313 57.6387 33.486 57.844C33.15 58.0493 32.8933 58.3387 32.716 58.712C32.5387 59.0853 32.45 59.5193 32.45 60.014C32.45 60.4713 32.534 60.8867 32.702 61.26C32.8793 61.6333 33.136 61.932 33.472 62.156C33.8173 62.3707 34.2373 62.478 34.732 62.478ZM32.45 53.714V61.974C32.45 62.1887 32.436 62.4453 32.408 62.744C32.3893 63.0427 32.3707 63.2947 32.352 63.5H31.12V53.714H32.45ZM39.7414 56.514H41.0854V63.5H39.7414V56.514ZM43.4514 57.704C42.966 57.704 42.5507 57.816 42.2054 58.04C41.8694 58.264 41.5987 58.5393 41.3934 58.866C41.1974 59.1927 41.0667 59.5053 41.0014 59.804L40.9874 59.006C40.9967 58.9127 41.02 58.768 41.0574 58.572C41.104 58.3667 41.1834 58.138 41.2954 57.886C41.4074 57.634 41.5567 57.396 41.7434 57.172C41.93 56.9387 42.1634 56.7473 42.4434 56.598C42.7234 56.4487 43.0594 56.374 43.4514 56.374V57.704ZM48.0373 63.654C47.3559 63.654 46.7306 63.5093 46.1613 63.22C45.5919 62.9307 45.1393 62.5153 44.8033 61.974C44.4673 61.4327 44.2993 60.784 44.2993 60.028C44.2993 59.2627 44.4673 58.6093 44.8033 58.068C45.1393 57.5173 45.5919 57.0973 46.1613 56.808C46.7306 56.5187 47.3559 56.374 48.0373 56.374C48.7186 56.374 49.3393 56.5187 49.8993 56.808C50.4593 57.0973 50.9073 57.5173 51.2433 58.068C51.5793 58.6093 51.7473 59.2627 51.7473 60.028C51.7473 60.784 51.5793 61.4327 51.2433 61.974C50.9073 62.5153 50.4593 62.9307 49.8993 63.22C49.3393 63.5093 48.7186 63.654 48.0373 63.654ZM48.0373 62.492C48.4573 62.492 48.8446 62.3987 49.1993 62.212C49.5633 62.016 49.8526 61.736 50.0673 61.372C50.2913 60.9987 50.4033 60.5507 50.4033 60.028C50.4033 59.496 50.2913 59.0433 50.0673 58.67C49.8526 58.2967 49.5633 58.012 49.1993 57.816C48.8446 57.62 48.4573 57.522 48.0373 57.522C47.6173 57.522 47.2253 57.62 46.8613 57.816C46.4973 58.0027 46.2033 58.2827 45.9793 58.656C45.7553 59.0293 45.6433 59.4867 45.6433 60.028C45.6433 60.5507 45.7506 60.9987 45.9653 61.372C46.1893 61.736 46.4833 62.016 46.8473 62.212C47.2113 62.3987 47.6079 62.492 48.0373 62.492ZM60.5791 62.408L60.2151 62.394L62.0491 56.514H63.5051L61.0831 63.5H59.8231L57.7091 57.522H58.0871L55.9451 63.5H54.6851L52.2911 56.514H53.7611L55.5391 62.394L55.1751 62.408L57.1071 56.514H58.6891L60.5791 62.408ZM64.1658 61.232H65.3978C65.4445 61.6053 65.6125 61.9133 65.9018 62.156C66.1911 62.3893 66.5971 62.506 67.1198 62.506C67.4558 62.506 67.7171 62.4687 67.9038 62.394C68.0905 62.31 68.2211 62.198 68.2958 62.058C68.3798 61.918 68.4218 61.764 68.4218 61.596C68.4218 61.3813 68.3658 61.218 68.2538 61.106C68.1418 60.9847 67.9831 60.8867 67.7778 60.812C67.5725 60.728 67.3298 60.6487 67.0498 60.574C66.7418 60.49 66.4338 60.392 66.1258 60.28C65.8178 60.168 65.5331 60.0327 65.2718 59.874C65.0198 59.7153 64.8145 59.5193 64.6558 59.286C64.5065 59.0433 64.4318 58.7493 64.4318 58.404C64.4318 58.1147 64.4925 57.844 64.6138 57.592C64.7445 57.34 64.9265 57.1253 65.1598 56.948C65.4025 56.7613 65.6825 56.6213 65.9998 56.528C66.3171 56.4253 66.6671 56.374 67.0498 56.374C67.5818 56.374 68.0298 56.472 68.3938 56.668C68.7578 56.8547 69.0331 57.1207 69.2198 57.466C69.4158 57.8113 69.5185 58.208 69.5278 58.656H68.3518C68.2865 58.264 68.1511 57.9793 67.9458 57.802C67.7405 57.6153 67.4325 57.522 67.0218 57.522C66.6205 57.522 66.3125 57.6013 66.0978 57.76C65.8831 57.9187 65.7758 58.1333 65.7758 58.404C65.7758 58.6093 65.8505 58.7773 65.9998 58.908C66.1491 59.0293 66.3498 59.1367 66.6018 59.23C66.8538 59.3233 67.1385 59.4213 67.4558 59.524C67.7545 59.6267 68.0391 59.734 68.3098 59.846C68.5898 59.9487 68.8371 60.0747 69.0518 60.224C69.2758 60.364 69.4485 60.5507 69.5698 60.784C69.7005 61.008 69.7658 61.288 69.7658 61.624C69.7658 62.0347 69.6631 62.394 69.4578 62.702C69.2525 63.0007 68.9538 63.234 68.5618 63.402C68.1791 63.57 67.7125 63.654 67.1618 63.654C66.6578 63.654 66.2285 63.5933 65.8738 63.472C65.5285 63.3507 65.2345 63.192 64.9918 62.996C64.7585 62.8 64.5765 62.5947 64.4458 62.38C64.3245 62.156 64.2405 61.9413 64.1938 61.736C64.1565 61.5307 64.1471 61.3627 64.1658 61.232ZM76.563 61.232H77.837C77.7623 61.6893 77.585 62.1 77.305 62.464C77.025 62.828 76.6563 63.1173 76.199 63.332C75.7417 63.5467 75.205 63.654 74.589 63.654C73.861 63.654 73.2123 63.5 72.643 63.192C72.0737 62.884 71.6257 62.4593 71.299 61.918C70.9723 61.3767 70.809 60.7467 70.809 60.028C70.809 59.3 70.9677 58.6653 71.285 58.124C71.6023 57.5733 72.041 57.144 72.601 56.836C73.161 56.528 73.8003 56.374 74.519 56.374C75.275 56.374 75.9097 56.5233 76.423 56.822C76.9363 57.1207 77.3143 57.564 77.557 58.152C77.809 58.7307 77.9117 59.454 77.865 60.322H72.139C72.1857 60.742 72.3117 61.1153 72.517 61.442C72.7317 61.7687 73.0117 62.0253 73.357 62.212C73.7117 62.3987 74.1177 62.492 74.575 62.492C75.0883 62.492 75.5177 62.3753 75.863 62.142C76.2083 61.9087 76.4417 61.6053 76.563 61.232ZM74.533 57.522C73.9263 57.522 73.4223 57.6853 73.021 58.012C72.6197 58.3293 72.3537 58.754 72.223 59.286H76.521C76.4837 58.7167 76.2783 58.2827 75.905 57.984C75.5317 57.676 75.0743 57.522 74.533 57.522ZM79.2804 56.514H80.6244V63.5H79.2804V56.514ZM82.9904 57.704C82.5051 57.704 82.0898 57.816 81.7444 58.04C81.4084 58.264 81.1378 58.5393 80.9324 58.866C80.7364 59.1927 80.6058 59.5053 80.5404 59.804L80.5264 59.006C80.5358 58.9127 80.5591 58.768 80.5964 58.572C80.6431 58.3667 80.7224 58.138 80.8344 57.886C80.9464 57.634 81.0958 57.396 81.2824 57.172C81.4691 56.9387 81.7024 56.7473 81.9824 56.598C82.2624 56.4487 82.5984 56.374 82.9904 56.374V57.704ZM83.8943 61.232H85.1263C85.173 61.6053 85.341 61.9133 85.6303 62.156C85.9196 62.3893 86.3256 62.506 86.8483 62.506C87.1843 62.506 87.4456 62.4687 87.6323 62.394C87.819 62.31 87.9496 62.198 88.0243 62.058C88.1083 61.918 88.1503 61.764 88.1503 61.596C88.1503 61.3813 88.0943 61.218 87.9823 61.106C87.8703 60.9847 87.7116 60.8867 87.5063 60.812C87.301 60.728 87.0583 60.6487 86.7783 60.574C86.4703 60.49 86.1623 60.392 85.8543 60.28C85.5463 60.168 85.2616 60.0327 85.0003 59.874C84.7483 59.7153 84.543 59.5193 84.3843 59.286C84.235 59.0433 84.1603 58.7493 84.1603 58.404C84.1603 58.1147 84.221 57.844 84.3423 57.592C84.473 57.34 84.655 57.1253 84.8883 56.948C85.131 56.7613 85.411 56.6213 85.7283 56.528C86.0456 56.4253 86.3956 56.374 86.7783 56.374C87.3103 56.374 87.7583 56.472 88.1223 56.668C88.4863 56.8547 88.7616 57.1207 88.9483 57.466C89.1443 57.8113 89.247 58.208 89.2563 58.656H88.0803C88.015 58.264 87.8796 57.9793 87.6743 57.802C87.469 57.6153 87.161 57.522 86.7503 57.522C86.349 57.522 86.041 57.6013 85.8263 57.76C85.6116 57.9187 85.5043 58.1333 85.5043 58.404C85.5043 58.6093 85.579 58.7773 85.7283 58.908C85.8776 59.0293 86.0783 59.1367 86.3303 59.23C86.5823 59.3233 86.867 59.4213 87.1843 59.524C87.483 59.6267 87.7676 59.734 88.0383 59.846C88.3183 59.9487 88.5656 60.0747 88.7803 60.224C89.0043 60.364 89.177 60.5507 89.2983 60.784C89.429 61.008 89.4943 61.288 89.4943 61.624C89.4943 62.0347 89.3916 62.394 89.1863 62.702C88.981 63.0007 88.6823 63.234 88.2903 63.402C87.9076 63.57 87.441 63.654 86.8903 63.654C86.3863 63.654 85.957 63.5933 85.6023 63.472C85.257 63.3507 84.963 63.192 84.7203 62.996C84.487 62.8 84.305 62.5947 84.1743 62.38C84.053 62.156 83.969 61.9413 83.9223 61.736C83.885 61.5307 83.8756 61.3627 83.8943 61.232Z" fill="#041004"/>
<path d="M111.6 278.89V278.03H115.08V278.89H111.6ZM110.19 280.5L112.84 274.01H113.86L116.53 280.5H115.49L113.17 274.64H113.53L111.22 280.5H110.19ZM117.449 273.51H118.409V280.5H117.449V273.51ZM119.88 273.51H120.84V280.5H119.88V273.51ZM124.059 275.51H127.289V276.34H124.059V275.51ZM125.199 274.19H126.149V280.5H125.199V274.19ZM129.348 273.45V274.48H128.158V273.45H129.348ZM128.278 275.51H129.228V280.5H128.278V275.51ZM130.581 275.51H131.541V280.5H130.581V275.51ZM133.441 275.41C133.721 275.41 133.975 275.45 134.201 275.53C134.428 275.61 134.621 275.73 134.781 275.89C134.941 276.043 135.065 276.237 135.151 276.47C135.245 276.697 135.291 276.957 135.291 277.25V280.5H134.341V277.46C134.341 277.067 134.245 276.773 134.051 276.58C133.865 276.38 133.578 276.28 133.191 276.28C132.891 276.28 132.618 276.35 132.371 276.49C132.125 276.63 131.921 276.817 131.761 277.05C131.608 277.277 131.515 277.533 131.481 277.82L131.471 277.27C131.505 277.003 131.575 276.757 131.681 276.53C131.795 276.303 131.935 276.107 132.101 275.94C132.275 275.767 132.475 275.637 132.701 275.55C132.928 275.457 133.175 275.41 133.441 275.41ZM137.101 275.41C137.381 275.41 137.635 275.45 137.861 275.53C138.088 275.61 138.281 275.73 138.441 275.89C138.601 276.043 138.725 276.237 138.811 276.47C138.905 276.697 138.951 276.957 138.951 277.25V280.5H138.001V277.46C138.001 277.067 137.905 276.773 137.711 276.58C137.525 276.38 137.238 276.28 136.851 276.28C136.551 276.28 136.278 276.35 136.031 276.49C135.785 276.63 135.581 276.817 135.421 277.05C135.268 277.277 135.175 277.533 135.141 277.82L135.131 277.26C135.165 276.993 135.235 276.75 135.341 276.53C135.455 276.303 135.598 276.107 135.771 275.94C135.945 275.767 136.145 275.637 136.371 275.55C136.598 275.457 136.841 275.41 137.101 275.41ZM144.06 278.88H144.97C144.917 279.207 144.79 279.5 144.59 279.76C144.39 280.02 144.127 280.227 143.8 280.38C143.473 280.533 143.09 280.61 142.65 280.61C142.13 280.61 141.667 280.5 141.26 280.28C140.853 280.06 140.533 279.757 140.3 279.37C140.067 278.983 139.95 278.533 139.95 278.02C139.95 277.5 140.063 277.047 140.29 276.66C140.517 276.267 140.83 275.96 141.23 275.74C141.63 275.52 142.087 275.41 142.6 275.41C143.14 275.41 143.593 275.517 143.96 275.73C144.327 275.943 144.597 276.26 144.77 276.68C144.95 277.093 145.023 277.61 144.99 278.23H140.9C140.933 278.53 141.023 278.797 141.17 279.03C141.323 279.263 141.523 279.447 141.77 279.58C142.023 279.713 142.313 279.78 142.64 279.78C143.007 279.78 143.313 279.697 143.56 279.53C143.807 279.363 143.973 279.147 144.06 278.88ZM142.61 276.23C142.177 276.23 141.817 276.347 141.53 276.58C141.243 276.807 141.053 277.11 140.96 277.49H144.03C144.003 277.083 143.857 276.773 143.59 276.56C143.323 276.34 142.997 276.23 142.61 276.23Z" fill="#9D9D9D"/>
<path d="M56.0791 238.098V237.349H59.1101V238.098H56.0791ZM54.851 239.5L57.1591 233.847H58.0475L60.373 239.5H59.4672L57.4465 234.396H57.7601L55.7481 239.5H54.851ZM65.3282 237.845C65.2934 238.205 65.1772 238.519 64.9798 238.786C64.7882 239.047 64.5356 239.247 64.2221 239.387C63.9085 239.526 63.5601 239.596 63.1769 239.596C62.753 239.596 62.364 239.509 62.0098 239.335C61.6556 239.155 61.3711 238.896 61.1562 238.559C60.9472 238.217 60.8427 237.81 60.8427 237.34C60.8427 236.864 60.9472 236.457 61.1562 236.121C61.3711 235.778 61.6556 235.517 62.0098 235.337C62.364 235.157 62.753 235.067 63.1769 235.067C63.5601 235.067 63.9056 235.136 64.2134 235.276C64.5211 235.415 64.7737 235.615 64.9711 235.877C65.1685 236.132 65.2876 236.44 65.3282 236.8H64.5705C64.4717 236.486 64.2946 236.24 64.0392 236.06C63.7895 235.874 63.5021 235.781 63.1769 235.781C62.9098 235.781 62.6601 235.842 62.4279 235.964C62.2014 236.086 62.0185 236.263 61.8791 236.495C61.7456 236.722 61.6788 237.003 61.6788 237.34C61.6788 237.665 61.7456 237.944 61.8791 238.176C62.0185 238.403 62.2014 238.577 62.4279 238.699C62.6543 238.815 62.904 238.873 63.1769 238.873C63.5485 238.873 63.8504 238.783 64.0827 238.603C64.315 238.423 64.4805 238.17 64.5792 237.845H65.3282ZM65.8932 235.154H68.7064V235.877H65.8932V235.154ZM66.8861 234.004H67.7135V239.5H66.8861V234.004ZM70.4998 233.36V234.257H69.4634V233.36H70.4998ZM69.5679 235.154H70.3953V239.5H69.5679V235.154ZM73.4723 238.855H73.2023L74.6133 235.154H75.5191L73.7336 239.5H72.9497L71.1816 235.154H72.0962L73.4723 238.855ZM79.4433 238.089H80.2359C80.1895 238.374 80.0792 238.629 79.905 238.855C79.7308 239.082 79.5014 239.262 79.2169 239.395C78.9324 239.529 78.5985 239.596 78.2153 239.596C77.7624 239.596 77.3588 239.5 77.0046 239.308C76.6504 239.117 76.3717 238.853 76.1685 238.516C75.9652 238.179 75.8636 237.787 75.8636 237.34C75.8636 236.887 75.9623 236.492 76.1598 236.155C76.3572 235.813 76.6301 235.546 76.9785 235.354C77.3269 235.163 77.7246 235.067 78.1717 235.067C78.642 235.067 79.0369 235.16 79.3562 235.345C79.6756 235.531 79.9108 235.807 80.0617 236.173C80.2185 236.533 80.2824 236.983 80.2534 237.523H76.6911C76.7201 237.784 76.7985 238.016 76.9262 238.22C77.0598 238.423 77.234 238.583 77.4488 238.699C77.6695 238.815 77.922 238.873 78.2066 238.873C78.5259 238.873 78.793 238.8 79.0079 238.655C79.2227 238.51 79.3679 238.321 79.4433 238.089ZM78.1804 235.781C77.803 235.781 77.4895 235.883 77.2398 236.086C76.9901 236.283 76.8246 236.547 76.7433 236.878H79.4172C79.394 236.524 79.2662 236.254 79.034 236.068C78.8017 235.877 78.5172 235.781 78.1804 235.781ZM86.8016 239.03H86.4445L89.2229 233.847H90.0591V239.5H89.2229V235.163L89.4058 235.206L87.0629 239.5H86.1832L83.8403 235.215L84.0232 235.171V239.5H83.187V233.847H84.0232L86.8016 239.03ZM93.0924 239.587C92.7208 239.587 92.3811 239.491 92.0733 239.3C91.7656 239.108 91.5217 238.844 91.3417 238.507C91.1617 238.165 91.0717 237.773 91.0717 237.331C91.0717 236.89 91.1617 236.501 91.3417 236.164C91.5275 235.822 91.7801 235.554 92.0995 235.363C92.4188 235.165 92.7759 235.067 93.1708 235.067C93.6062 235.067 93.943 235.168 94.1811 235.372C94.425 235.575 94.5934 235.848 94.6863 236.19C94.785 236.533 94.8343 236.913 94.8343 237.331C94.8343 237.564 94.8053 237.81 94.7472 238.072C94.6892 238.333 94.5963 238.58 94.4685 238.812C94.3408 239.044 94.1637 239.233 93.9372 239.378C93.7108 239.517 93.4291 239.587 93.0924 239.587ZM93.3275 238.864C93.6353 238.864 93.8937 238.797 94.1027 238.664C94.3175 238.525 94.4772 238.339 94.5817 238.106C94.6863 237.874 94.7385 237.616 94.7385 237.331C94.7385 237.024 94.6834 236.754 94.573 236.521C94.4685 236.289 94.3088 236.109 94.094 235.981C93.885 235.854 93.6295 235.79 93.3275 235.79C92.8746 235.79 92.5233 235.935 92.2737 236.225C92.0298 236.515 91.9078 236.884 91.9078 237.331C91.9078 237.633 91.9688 237.9 92.0907 238.133C92.2127 238.359 92.3782 238.539 92.5872 238.673C92.802 238.8 93.0488 238.864 93.3275 238.864ZM94.7385 235.154H95.5747V239.5H94.8082C94.8082 239.5 94.8024 239.448 94.7908 239.343C94.7792 239.233 94.7676 239.102 94.7559 238.951C94.7443 238.8 94.7385 238.667 94.7385 238.551V235.154ZM96.7523 233.412H97.5885V239.5H96.7523V233.412ZM102.136 238.089H102.929C102.883 238.374 102.772 238.629 102.598 238.855C102.424 239.082 102.194 239.262 101.91 239.395C101.625 239.529 101.292 239.596 100.908 239.596C100.455 239.596 100.052 239.5 99.6976 239.308C99.3434 239.117 99.0647 238.853 98.8615 238.516C98.6583 238.179 98.5567 237.787 98.5567 237.34C98.5567 236.887 98.6554 236.492 98.8528 236.155C99.0502 235.813 99.3231 235.546 99.6715 235.354C100.02 235.163 100.418 235.067 100.865 235.067C101.335 235.067 101.73 235.16 102.049 235.345C102.369 235.531 102.604 235.807 102.755 236.173C102.912 236.533 102.975 236.983 102.946 237.523H99.3841C99.4131 237.784 99.4915 238.016 99.6193 238.22C99.7528 238.423 99.927 238.583 100.142 238.699C100.362 238.815 100.615 238.873 100.9 238.873C101.219 238.873 101.486 238.8 101.701 238.655C101.916 238.51 102.061 238.321 102.136 238.089ZM100.873 235.781C100.496 235.781 100.182 235.883 99.9328 236.086C99.6831 236.283 99.5176 236.547 99.4364 236.878H102.11C102.087 236.524 101.959 236.254 101.727 236.068C101.495 235.877 101.21 235.781 100.873 235.781Z" fill="#041004"/>
<circle cx="44.1106" cy="237.095" r="3.11063" fill="#328A28"/>
<path d="M140.719 233.847V234.596H137.087V236.356H140.057V237.087H137.087V239.5H136.251V233.847H140.719ZM144.559 238.089H145.352C145.305 238.374 145.195 238.629 145.021 238.855C144.847 239.082 144.617 239.262 144.333 239.395C144.048 239.529 143.715 239.596 143.331 239.596C142.878 239.596 142.475 239.5 142.121 239.308C141.766 239.117 141.488 238.853 141.284 238.516C141.081 238.179 140.98 237.787 140.98 237.34C140.98 236.887 141.078 236.492 141.276 236.155C141.473 235.813 141.746 235.546 142.094 235.354C142.443 235.163 142.841 235.067 143.288 235.067C143.758 235.067 144.153 235.16 144.472 235.345C144.792 235.531 145.027 235.807 145.178 236.173C145.335 236.533 145.398 236.983 145.369 237.523H141.807C141.836 237.784 141.914 238.016 142.042 238.22C142.176 238.423 142.35 238.583 142.565 238.699C142.785 238.815 143.038 238.873 143.323 238.873C143.642 238.873 143.909 238.8 144.124 238.655C144.339 238.51 144.484 238.321 144.559 238.089ZM143.296 235.781C142.919 235.781 142.605 235.883 142.356 236.086C142.106 236.283 141.941 236.547 141.859 236.878H144.533C144.51 236.524 144.382 236.254 144.15 236.068C143.918 235.877 143.633 235.781 143.296 235.781ZM146.25 235.154H147.086V239.5H146.25V235.154ZM148.741 235.067C148.985 235.067 149.205 235.102 149.403 235.171C149.6 235.241 149.769 235.345 149.908 235.485C150.047 235.618 150.155 235.787 150.23 235.99C150.312 236.187 150.352 236.414 150.352 236.669V239.5H149.525V236.852C149.525 236.51 149.441 236.254 149.272 236.086C149.11 235.912 148.86 235.824 148.523 235.824C148.262 235.824 148.024 235.885 147.809 236.007C147.594 236.129 147.417 236.292 147.278 236.495C147.144 236.693 147.063 236.916 147.034 237.166L147.025 236.687C147.054 236.454 147.115 236.24 147.208 236.042C147.307 235.845 147.429 235.674 147.574 235.528C147.725 235.377 147.899 235.264 148.096 235.189C148.294 235.107 148.509 235.067 148.741 235.067ZM151.929 235.067C152.173 235.067 152.393 235.102 152.591 235.171C152.788 235.241 152.956 235.345 153.096 235.485C153.235 235.618 153.343 235.787 153.418 235.99C153.499 236.187 153.54 236.414 153.54 236.669V239.5H152.713V236.852C152.713 236.51 152.628 236.254 152.46 236.086C152.297 235.912 152.048 235.824 151.711 235.824C151.45 235.824 151.212 235.885 150.997 236.007C150.782 236.129 150.605 236.292 150.465 236.495C150.332 236.693 150.251 236.916 150.222 237.166L150.213 236.678C150.242 236.446 150.303 236.234 150.396 236.042C150.494 235.845 150.619 235.674 150.77 235.528C150.921 235.377 151.095 235.264 151.293 235.189C151.49 235.107 151.702 235.067 151.929 235.067ZM156.431 239.587C156.059 239.587 155.719 239.491 155.412 239.3C155.104 239.108 154.86 238.844 154.68 238.507C154.5 238.165 154.41 237.773 154.41 237.331C154.41 236.89 154.5 236.501 154.68 236.164C154.866 235.822 155.118 235.554 155.438 235.363C155.757 235.165 156.114 235.067 156.509 235.067C156.945 235.067 157.281 235.168 157.519 235.372C157.763 235.575 157.932 235.848 158.025 236.19C158.123 236.533 158.173 236.913 158.173 237.331C158.173 237.564 158.144 237.81 158.086 238.072C158.027 238.333 157.935 238.58 157.807 238.812C157.679 239.044 157.502 239.233 157.276 239.378C157.049 239.517 156.767 239.587 156.431 239.587ZM156.666 238.864C156.974 238.864 157.232 238.797 157.441 238.664C157.656 238.525 157.816 238.339 157.92 238.106C158.025 237.874 158.077 237.616 158.077 237.331C158.077 237.024 158.022 236.754 157.911 236.521C157.807 236.289 157.647 236.109 157.432 235.981C157.223 235.854 156.968 235.79 156.666 235.79C156.213 235.79 155.862 235.935 155.612 236.225C155.368 236.515 155.246 236.884 155.246 237.331C155.246 237.633 155.307 237.9 155.429 238.133C155.551 238.359 155.717 238.539 155.926 238.673C156.14 238.8 156.387 238.864 156.666 238.864ZM158.077 235.154H158.913V239.5H158.147C158.147 239.5 158.141 239.448 158.129 239.343C158.117 239.233 158.106 239.102 158.094 238.951C158.083 238.8 158.077 238.667 158.077 238.551V235.154ZM160.091 233.412H160.927V239.5H160.091V233.412ZM165.475 238.089H166.267C166.221 238.374 166.111 238.629 165.936 238.855C165.762 239.082 165.533 239.262 165.248 239.395C164.964 239.529 164.63 239.596 164.247 239.596C163.794 239.596 163.39 239.5 163.036 239.308C162.682 239.117 162.403 238.853 162.2 238.516C161.997 238.179 161.895 237.787 161.895 237.34C161.895 236.887 161.994 236.492 162.191 236.155C162.389 235.813 162.661 235.546 163.01 235.354C163.358 235.163 163.756 235.067 164.203 235.067C164.673 235.067 165.068 235.16 165.388 235.345C165.707 235.531 165.942 235.807 166.093 236.173C166.25 236.533 166.314 236.983 166.285 237.523H162.722C162.751 237.784 162.83 238.016 162.958 238.22C163.091 238.423 163.265 238.583 163.48 238.699C163.701 238.815 163.953 238.873 164.238 238.873C164.557 238.873 164.824 238.8 165.039 238.655C165.254 238.51 165.399 238.321 165.475 238.089ZM164.212 235.781C163.834 235.781 163.521 235.883 163.271 236.086C163.021 236.283 162.856 236.547 162.775 236.878H165.449C165.425 236.524 165.298 236.254 165.065 236.068C164.833 235.877 164.549 235.781 164.212 235.781ZM171.709 239.587C171.367 239.587 171.082 239.517 170.856 239.378C170.635 239.233 170.458 239.044 170.325 238.812C170.197 238.58 170.104 238.333 170.046 238.072C169.988 237.81 169.959 237.564 169.959 237.331C169.959 237.018 169.985 236.724 170.037 236.452C170.095 236.179 170.188 235.938 170.316 235.729C170.444 235.52 170.621 235.357 170.847 235.241C171.074 235.125 171.361 235.067 171.709 235.067C172.098 235.067 172.444 235.165 172.746 235.363C173.054 235.554 173.295 235.822 173.469 236.164C173.643 236.501 173.73 236.89 173.73 237.331C173.73 237.773 173.64 238.165 173.46 238.507C173.28 238.844 173.036 239.108 172.728 239.3C172.427 239.491 172.087 239.587 171.709 239.587ZM171.474 238.864C171.753 238.864 171.997 238.8 172.206 238.673C172.421 238.539 172.586 238.359 172.702 238.133C172.824 237.9 172.885 237.633 172.885 237.331C172.885 236.884 172.76 236.515 172.511 236.225C172.267 235.935 171.921 235.79 171.474 235.79C171.172 235.79 170.914 235.854 170.699 235.981C170.49 236.109 170.33 236.289 170.22 236.521C170.11 236.754 170.055 237.024 170.055 237.331C170.055 237.616 170.107 237.874 170.211 238.106C170.322 238.339 170.481 238.525 170.69 238.664C170.905 238.797 171.167 238.864 171.474 238.864ZM170.055 233.412V238.551C170.055 238.684 170.046 238.844 170.028 239.03C170.017 239.215 170.005 239.372 169.994 239.5H169.227V233.412H170.055ZM174.591 235.154H175.427V239.5H174.591V235.154ZM176.899 235.894C176.597 235.894 176.338 235.964 176.124 236.103C175.915 236.243 175.746 236.414 175.618 236.617C175.497 236.82 175.415 237.015 175.375 237.201L175.366 236.704C175.372 236.646 175.386 236.556 175.409 236.434C175.438 236.306 175.488 236.164 175.557 236.007C175.627 235.851 175.72 235.703 175.836 235.563C175.952 235.418 176.098 235.299 176.272 235.206C176.446 235.113 176.655 235.067 176.899 235.067V235.894ZM179.752 239.596C179.328 239.596 178.939 239.506 178.585 239.326C178.23 239.146 177.949 238.887 177.74 238.551C177.531 238.214 177.426 237.81 177.426 237.34C177.426 236.864 177.531 236.457 177.74 236.121C177.949 235.778 178.23 235.517 178.585 235.337C178.939 235.157 179.328 235.067 179.752 235.067C180.176 235.067 180.562 235.157 180.91 235.337C181.259 235.517 181.537 235.778 181.746 236.121C181.955 236.457 182.06 236.864 182.06 237.34C182.06 237.81 181.955 238.214 181.746 238.551C181.537 238.887 181.259 239.146 180.91 239.326C180.562 239.506 180.176 239.596 179.752 239.596ZM179.752 238.873C180.013 238.873 180.254 238.815 180.475 238.699C180.701 238.577 180.881 238.403 181.015 238.176C181.154 237.944 181.224 237.665 181.224 237.34C181.224 237.009 181.154 236.727 181.015 236.495C180.881 236.263 180.701 236.086 180.475 235.964C180.254 235.842 180.013 235.781 179.752 235.781C179.491 235.781 179.247 235.842 179.02 235.964C178.794 236.08 178.611 236.254 178.471 236.486C178.332 236.719 178.262 237.003 178.262 237.34C178.262 237.665 178.329 237.944 178.463 238.176C178.602 238.403 178.785 238.577 179.011 238.699C179.238 238.815 179.485 238.873 179.752 238.873ZM187.554 238.821L187.328 238.812L188.469 235.154H189.375L187.868 239.5H187.084L185.769 235.781H186.004L184.671 239.5H183.888L182.398 235.154H183.313L184.419 238.812L184.192 238.821L185.394 235.154H186.379L187.554 238.821ZM189.786 238.089H190.552C190.581 238.321 190.686 238.513 190.866 238.664C191.046 238.809 191.298 238.882 191.624 238.882C191.833 238.882 191.995 238.858 192.111 238.812C192.227 238.76 192.309 238.69 192.355 238.603C192.407 238.516 192.434 238.42 192.434 238.315C192.434 238.182 192.399 238.08 192.329 238.011C192.259 237.935 192.161 237.874 192.033 237.828C191.905 237.775 191.754 237.726 191.58 237.68C191.388 237.627 191.197 237.566 191.005 237.497C190.814 237.427 190.636 237.343 190.474 237.244C190.317 237.145 190.189 237.024 190.091 236.878C189.998 236.727 189.951 236.544 189.951 236.33C189.951 236.15 189.989 235.981 190.065 235.824C190.146 235.668 190.259 235.534 190.404 235.424C190.555 235.308 190.729 235.221 190.927 235.163C191.124 235.099 191.342 235.067 191.58 235.067C191.911 235.067 192.19 235.128 192.416 235.25C192.643 235.366 192.814 235.531 192.93 235.746C193.052 235.961 193.116 236.208 193.122 236.486H192.39C192.349 236.243 192.265 236.065 192.137 235.955C192.01 235.839 191.818 235.781 191.563 235.781C191.313 235.781 191.121 235.83 190.988 235.929C190.854 236.028 190.787 236.161 190.787 236.33C190.787 236.457 190.834 236.562 190.927 236.643C191.02 236.719 191.145 236.785 191.301 236.844C191.458 236.902 191.635 236.963 191.833 237.026C192.018 237.09 192.195 237.157 192.364 237.227C192.538 237.291 192.692 237.369 192.826 237.462C192.965 237.549 193.072 237.665 193.148 237.81C193.229 237.95 193.27 238.124 193.27 238.333C193.27 238.588 193.206 238.812 193.078 239.004C192.95 239.189 192.765 239.335 192.521 239.439C192.283 239.544 191.992 239.596 191.65 239.596C191.336 239.596 191.069 239.558 190.848 239.483C190.634 239.407 190.451 239.308 190.3 239.186C190.155 239.065 190.041 238.937 189.96 238.803C189.885 238.664 189.832 238.53 189.803 238.403C189.78 238.275 189.774 238.17 189.786 238.089ZM197.498 238.089H198.291C198.245 238.374 198.134 238.629 197.96 238.855C197.786 239.082 197.556 239.262 197.272 239.395C196.987 239.529 196.654 239.596 196.27 239.596C195.817 239.596 195.414 239.5 195.06 239.308C194.705 239.117 194.427 238.853 194.224 238.516C194.02 238.179 193.919 237.787 193.919 237.34C193.919 236.887 194.017 236.492 194.215 236.155C194.412 235.813 194.685 235.546 195.034 235.354C195.382 235.163 195.78 235.067 196.227 235.067C196.697 235.067 197.092 235.16 197.411 235.345C197.731 235.531 197.966 235.807 198.117 236.173C198.274 236.533 198.337 236.983 198.308 237.523H194.746C194.775 237.784 194.854 238.016 194.981 238.22C195.115 238.423 195.289 238.583 195.504 238.699C195.725 238.815 195.977 238.873 196.262 238.873C196.581 238.873 196.848 238.8 197.063 238.655C197.278 238.51 197.423 238.321 197.498 238.089ZM196.236 235.781C195.858 235.781 195.545 235.883 195.295 236.086C195.045 236.283 194.88 236.547 194.798 236.878H197.472C197.449 236.524 197.321 236.254 197.089 236.068C196.857 235.877 196.572 235.781 196.236 235.781ZM199.189 235.154H200.025V239.5H199.189V235.154ZM201.497 235.894C201.195 235.894 200.937 235.964 200.722 236.103C200.513 236.243 200.345 236.414 200.217 236.617C200.095 236.82 200.014 237.015 199.973 237.201L199.964 236.704C199.97 236.646 199.985 236.556 200.008 236.434C200.037 236.306 200.086 236.164 200.156 236.007C200.225 235.851 200.318 235.703 200.435 235.563C200.551 235.418 200.696 235.299 200.87 235.206C201.044 235.113 201.253 235.067 201.497 235.067V235.894ZM202.059 238.089H202.826C202.855 238.321 202.959 238.513 203.139 238.664C203.319 238.809 203.572 238.882 203.897 238.882C204.106 238.882 204.269 238.858 204.385 238.812C204.501 238.76 204.582 238.69 204.629 238.603C204.681 238.516 204.707 238.42 204.707 238.315C204.707 238.182 204.672 238.08 204.603 238.011C204.533 237.935 204.434 237.874 204.307 237.828C204.179 237.775 204.028 237.726 203.854 237.68C203.662 237.627 203.47 237.566 203.279 237.497C203.087 237.427 202.91 237.343 202.747 237.244C202.591 237.145 202.463 237.024 202.364 236.878C202.271 236.727 202.225 236.544 202.225 236.33C202.225 236.15 202.263 235.981 202.338 235.824C202.419 235.668 202.533 235.534 202.678 235.424C202.829 235.308 203.003 235.221 203.2 235.163C203.398 235.099 203.616 235.067 203.854 235.067C204.185 235.067 204.463 235.128 204.69 235.25C204.916 235.366 205.088 235.531 205.204 235.746C205.326 235.961 205.389 236.208 205.395 236.486H204.664C204.623 236.243 204.539 236.065 204.411 235.955C204.283 235.839 204.092 235.781 203.836 235.781C203.587 235.781 203.395 235.83 203.261 235.929C203.128 236.028 203.061 236.161 203.061 236.33C203.061 236.457 203.108 236.562 203.2 236.643C203.293 236.719 203.418 236.785 203.575 236.844C203.732 236.902 203.909 236.963 204.106 237.026C204.292 237.09 204.469 237.157 204.638 237.227C204.812 237.291 204.966 237.369 205.099 237.462C205.238 237.549 205.346 237.665 205.421 237.81C205.503 237.95 205.543 238.124 205.543 238.333C205.543 238.588 205.479 238.812 205.352 239.004C205.224 239.189 205.038 239.335 204.794 239.439C204.556 239.544 204.266 239.596 203.923 239.596C203.61 239.596 203.343 239.558 203.122 239.483C202.907 239.407 202.724 239.308 202.573 239.186C202.428 239.065 202.315 238.937 202.234 238.803C202.158 238.664 202.106 238.53 202.077 238.403C202.054 238.275 202.048 238.17 202.059 238.089Z" fill="#041004"/>
<circle cx="124.988" cy="237.095" r="3.11063" fill="#F2994A"/>
</g>
<defs>
<clipPath id="clip0_4657_48391">
<rect width="256" height="313" fill="white" transform="translate(0 0.5)"/>
</clipPath>
</defs>
</svg>
