<svg width="54" height="54" viewBox="0 0 54 54" fill="none" xmlns="http://www.w3.org/2000/svg">
<rect x="0.53418" y="0.121094" width="53.4575" height="53.4576" rx="10" fill="#FEF2F2"/>
<path d="M18.3333 20.4792L25.1042 27.2502L29.2562 23.0981C29.78 22.5743 30.6232 22.5999 31.1087 23.1492L40.2687 33.459C40.7158 33.9572 40.6903 34.7238 40.2176 35.2092C40.0948 35.3316 39.9484 35.4278 39.7873 35.4918C39.6261 35.5558 39.4537 35.5863 39.2804 35.5815C39.1071 35.5768 38.9365 35.5368 38.7792 35.464C38.6219 35.3912 38.481 35.2871 38.3651 35.1581L30.2016 25.9854L25.9985 30.1885C25.8803 30.3069 25.7399 30.4009 25.5854 30.465C25.4308 30.5291 25.2652 30.5621 25.0978 30.5621C24.9305 30.5621 24.7649 30.5291 24.6103 30.465C24.4558 30.4009 24.3154 30.3069 24.1972 30.1885L16.4169 22.3955C16.2985 22.2773 16.2046 22.1369 16.1404 21.9824C16.0763 21.8278 16.0433 21.6621 16.0433 21.4948C16.0433 21.3275 16.0763 21.1618 16.1404 21.0073C16.2046 20.8527 16.2985 20.7123 16.4169 20.5942L16.5319 20.4792C17.0302 19.9809 17.8478 19.9809 18.3333 20.4792Z" fill="#EF4444"/>
</svg>
