<svg width="556" height="35" viewBox="0 0 556 35" fill="none" xmlns="http://www.w3.org/2000/svg">
<circle cx="12.0361" cy="17.8984" r="11.5" fill="white" stroke="#E5E7EB"/>
<circle cx="12.0361" cy="17.8984" r="7" fill="#E5E7EB"/>
<rect width="60" height="34" transform="translate(24.0361 0.898438)" fill="white"/>
<path d="M38.1041 14.1104C38.9121 14.1104 39.5881 14.2144 40.1321 14.4224C40.6841 14.6224 41.1241 14.9024 41.4521 15.2624C41.7881 15.6224 42.0281 16.0344 42.1721 16.4984C42.3161 16.9624 42.3881 17.4544 42.3881 17.9744C42.3881 18.4864 42.3081 18.9784 42.1481 19.4504C41.9961 19.9224 41.7481 20.3424 41.4041 20.7104C41.0681 21.0784 40.6281 21.3704 40.0841 21.5864C39.5401 21.7944 38.8801 21.8984 38.1041 21.8984H34.9841V14.1104H38.1041ZM36.1361 20.8544H38.0921C38.7081 20.8544 39.2161 20.7744 39.6161 20.6144C40.0161 20.4464 40.3321 20.2264 40.5641 19.9544C40.8041 19.6744 40.9721 19.3624 41.0681 19.0184C41.1721 18.6744 41.2241 18.3264 41.2241 17.9744C41.2241 17.6144 41.1721 17.2664 41.0681 16.9304C40.9721 16.5944 40.8041 16.2944 40.5641 16.0304C40.3321 15.7584 40.0161 15.5464 39.6161 15.3944C39.2161 15.2344 38.7081 15.1544 38.0921 15.1544H36.1361V20.8544ZM48.377 19.9544H49.469C49.405 20.3464 49.253 20.6984 49.013 21.0104C48.773 21.3224 48.457 21.5704 48.065 21.7544C47.673 21.9384 47.213 22.0304 46.685 22.0304C46.061 22.0304 45.505 21.8984 45.017 21.6344C44.529 21.3704 44.145 21.0064 43.865 20.5424C43.585 20.0784 43.445 19.5384 43.445 18.9224C43.445 18.2984 43.581 17.7544 43.853 17.2904C44.125 16.8184 44.501 16.4504 44.981 16.1864C45.461 15.9224 46.009 15.7904 46.625 15.7904C47.273 15.7904 47.817 15.9184 48.257 16.1744C48.697 16.4304 49.021 16.8104 49.229 17.3144C49.445 17.8104 49.533 18.4304 49.493 19.1744H44.585C44.625 19.5344 44.733 19.8544 44.909 20.1344C45.093 20.4144 45.333 20.6344 45.629 20.7944C45.933 20.9544 46.281 21.0344 46.673 21.0344C47.113 21.0344 47.481 20.9344 47.777 20.7344C48.073 20.5344 48.273 20.2744 48.377 19.9544ZM46.637 16.7744C46.117 16.7744 45.685 16.9144 45.341 17.1944C44.997 17.4664 44.769 17.8304 44.657 18.2864H48.341C48.309 17.7984 48.133 17.4264 47.813 17.1704C47.493 16.9064 47.101 16.7744 46.637 16.7744ZM50.1807 15.9104H54.0567V16.9064H50.1807V15.9104ZM51.5487 14.3264H52.6887V21.8984H51.5487V14.3264ZM57.5141 22.0184C57.0021 22.0184 56.5341 21.8864 56.1101 21.6224C55.6861 21.3584 55.3501 20.9944 55.1021 20.5304C54.8541 20.0584 54.7301 19.5184 54.7301 18.9104C54.7301 18.3024 54.8541 17.7664 55.1021 17.3024C55.3581 16.8304 55.7061 16.4624 56.1461 16.1984C56.5861 15.9264 57.0781 15.7904 57.6221 15.7904C58.2221 15.7904 58.6861 15.9304 59.0141 16.2104C59.3501 16.4904 59.5821 16.8664 59.7101 17.3384C59.8461 17.8104 59.9141 18.3344 59.9141 18.9104C59.9141 19.2304 59.8741 19.5704 59.7941 19.9304C59.7141 20.2904 59.5861 20.6304 59.4101 20.9504C59.2341 21.2704 58.9901 21.5304 58.6781 21.7304C58.3661 21.9224 57.9781 22.0184 57.5141 22.0184ZM57.8381 21.0224C58.2621 21.0224 58.6181 20.9304 58.9061 20.7464C59.2021 20.5544 59.4221 20.2984 59.5661 19.9784C59.7101 19.6584 59.7821 19.3024 59.7821 18.9104C59.7821 18.4864 59.7061 18.1144 59.5541 17.7944C59.4101 17.4744 59.1901 17.2264 58.8941 17.0504C58.6061 16.8744 58.2541 16.7864 57.8381 16.7864C57.2141 16.7864 56.7301 16.9864 56.3861 17.3864C56.0501 17.7864 55.8821 18.2944 55.8821 18.9104C55.8821 19.3264 55.9661 19.6944 56.1341 20.0144C56.3021 20.3264 56.5301 20.5744 56.8181 20.7584C57.1141 20.9344 57.4541 21.0224 57.8381 21.0224ZM59.7821 15.9104H60.9341V21.8984H59.8781C59.8781 21.8984 59.8701 21.8264 59.8541 21.6824C59.8381 21.5304 59.8221 21.3504 59.8061 21.1424C59.7901 20.9344 59.7821 20.7504 59.7821 20.5904V15.9104ZM63.8167 13.4384V14.6744H62.3887V13.4384H63.8167ZM62.5327 15.9104H63.6727V21.8984H62.5327V15.9104ZM65.416 13.5104H66.568V21.8984H65.416V13.5104ZM67.95 19.9544H69.006C69.046 20.2744 69.19 20.5384 69.438 20.7464C69.686 20.9464 70.034 21.0464 70.482 21.0464C70.77 21.0464 70.994 21.0144 71.154 20.9504C71.314 20.8784 71.426 20.7824 71.49 20.6624C71.562 20.5424 71.598 20.4104 71.598 20.2664C71.598 20.0824 71.55 19.9424 71.454 19.8464C71.358 19.7424 71.222 19.6584 71.046 19.5944C70.87 19.5224 70.662 19.4544 70.422 19.3904C70.158 19.3184 69.894 19.2344 69.63 19.1384C69.366 19.0424 69.122 18.9264 68.898 18.7904C68.682 18.6544 68.506 18.4864 68.37 18.2864C68.242 18.0784 68.178 17.8264 68.178 17.5304C68.178 17.2824 68.23 17.0504 68.334 16.8344C68.446 16.6184 68.602 16.4344 68.802 16.2824C69.01 16.1224 69.25 16.0024 69.522 15.9224C69.794 15.8344 70.094 15.7904 70.422 15.7904C70.878 15.7904 71.262 15.8744 71.574 16.0424C71.886 16.2024 72.122 16.4304 72.282 16.7264C72.45 17.0224 72.538 17.3624 72.546 17.7464H71.538C71.482 17.4104 71.366 17.1664 71.19 17.0144C71.014 16.8544 70.75 16.7744 70.398 16.7744C70.054 16.7744 69.79 16.8424 69.606 16.9784C69.422 17.1144 69.33 17.2984 69.33 17.5304C69.33 17.7064 69.394 17.8504 69.522 17.9624C69.65 18.0664 69.822 18.1584 70.038 18.2384C70.254 18.3184 70.498 18.4024 70.77 18.4904C71.026 18.5784 71.27 18.6704 71.502 18.7664C71.742 18.8544 71.954 18.9624 72.138 19.0904C72.33 19.2104 72.478 19.3704 72.582 19.5704C72.694 19.7624 72.75 20.0024 72.75 20.2904C72.75 20.6424 72.662 20.9504 72.486 21.2144C72.31 21.4704 72.054 21.6704 71.718 21.8144C71.39 21.9584 70.99 22.0304 70.518 22.0304C70.086 22.0304 69.718 21.9784 69.414 21.8744C69.118 21.7704 68.866 21.6344 68.658 21.4664C68.458 21.2984 68.302 21.1224 68.19 20.9384C68.086 20.7464 68.014 20.5624 67.974 20.3864C67.942 20.2104 67.934 20.0664 67.95 19.9544Z" fill="#041004"/>
<circle cx="167.036" cy="17.8984" r="11.5" fill="white" stroke="#E5E7EB"/>
<circle cx="167.036" cy="17.8984" r="7" fill="#E5E7EB"/>
<rect width="55" height="34" transform="translate(179.036 0.898438)" fill="white"/>
<path d="M189.24 14.1104H196.068V15.1424H189.24V14.1104ZM192.072 15.0224H193.236V21.8984H192.072V15.0224ZM200.6 19.9544H201.692C201.628 20.3464 201.476 20.6984 201.236 21.0104C200.996 21.3224 200.68 21.5704 200.288 21.7544C199.896 21.9384 199.436 22.0304 198.908 22.0304C198.284 22.0304 197.728 21.8984 197.24 21.6344C196.752 21.3704 196.368 21.0064 196.088 20.5424C195.808 20.0784 195.668 19.5384 195.668 18.9224C195.668 18.2984 195.804 17.7544 196.076 17.2904C196.348 16.8184 196.724 16.4504 197.204 16.1864C197.684 15.9224 198.232 15.7904 198.848 15.7904C199.496 15.7904 200.04 15.9184 200.48 16.1744C200.92 16.4304 201.244 16.8104 201.452 17.3144C201.668 17.8104 201.756 18.4304 201.716 19.1744H196.808C196.848 19.5344 196.956 19.8544 197.132 20.1344C197.316 20.4144 197.556 20.6344 197.852 20.7944C198.156 20.9544 198.504 21.0344 198.896 21.0344C199.336 21.0344 199.704 20.9344 200 20.7344C200.296 20.5344 200.496 20.2744 200.6 19.9544ZM198.86 16.7744C198.34 16.7744 197.908 16.9144 197.564 17.1944C197.22 17.4664 196.992 17.8304 196.88 18.2864H200.564C200.532 17.7984 200.356 17.4264 200.036 17.1704C199.716 16.9064 199.324 16.7744 198.86 16.7744ZM202.929 15.9104H204.081V21.8984H202.929V15.9104ZM206.109 16.9304C205.693 16.9304 205.337 17.0264 205.041 17.2184C204.753 17.4104 204.521 17.6464 204.345 17.9264C204.177 18.2064 204.065 18.4744 204.009 18.7304L203.997 18.0464C204.005 17.9664 204.025 17.8424 204.057 17.6744C204.097 17.4984 204.165 17.3024 204.261 17.0864C204.357 16.8704 204.485 16.6664 204.645 16.4744C204.805 16.2744 205.005 16.1104 205.245 15.9824C205.485 15.8544 205.773 15.7904 206.109 15.7904V16.9304ZM207.148 15.9104H208.3V21.8984H207.148V15.9104ZM210.58 15.7904C210.916 15.7904 211.22 15.8384 211.492 15.9344C211.764 16.0304 211.996 16.1744 212.188 16.3664C212.38 16.5504 212.528 16.7824 212.632 17.0624C212.744 17.3344 212.8 17.6464 212.8 17.9984V21.8984H211.66V18.2504C211.66 17.7784 211.544 17.4264 211.312 17.1944C211.088 16.9544 210.744 16.8344 210.28 16.8344C209.92 16.8344 209.592 16.9184 209.296 17.0864C209 17.2544 208.756 17.4784 208.564 17.7584C208.38 18.0304 208.268 18.3384 208.228 18.6824L208.216 18.0224C208.256 17.7024 208.34 17.4064 208.468 17.1344C208.604 16.8624 208.772 16.6264 208.972 16.4264C209.18 16.2184 209.42 16.0624 209.692 15.9584C209.964 15.8464 210.26 15.7904 210.58 15.7904ZM214.972 15.7904C215.308 15.7904 215.612 15.8384 215.884 15.9344C216.156 16.0304 216.388 16.1744 216.58 16.3664C216.772 16.5504 216.92 16.7824 217.024 17.0624C217.136 17.3344 217.192 17.6464 217.192 17.9984V21.8984H216.052V18.2504C216.052 17.7784 215.936 17.4264 215.704 17.1944C215.48 16.9544 215.136 16.8344 214.672 16.8344C214.312 16.8344 213.984 16.9184 213.688 17.0864C213.392 17.2544 213.148 17.4784 212.956 17.7584C212.772 18.0304 212.66 18.3384 212.62 18.6824L212.608 18.0104C212.648 17.6904 212.732 17.3984 212.86 17.1344C212.996 16.8624 213.168 16.6264 213.376 16.4264C213.584 16.2184 213.824 16.0624 214.096 15.9584C214.368 15.8464 214.66 15.7904 214.972 15.7904ZM218.438 19.9544H219.494C219.534 20.2744 219.678 20.5384 219.926 20.7464C220.174 20.9464 220.522 21.0464 220.97 21.0464C221.258 21.0464 221.482 21.0144 221.642 20.9504C221.802 20.8784 221.914 20.7824 221.978 20.6624C222.05 20.5424 222.086 20.4104 222.086 20.2664C222.086 20.0824 222.038 19.9424 221.942 19.8464C221.846 19.7424 221.71 19.6584 221.534 19.5944C221.358 19.5224 221.15 19.4544 220.91 19.3904C220.646 19.3184 220.382 19.2344 220.118 19.1384C219.854 19.0424 219.61 18.9264 219.386 18.7904C219.17 18.6544 218.994 18.4864 218.858 18.2864C218.73 18.0784 218.666 17.8264 218.666 17.5304C218.666 17.2824 218.718 17.0504 218.822 16.8344C218.934 16.6184 219.09 16.4344 219.29 16.2824C219.498 16.1224 219.738 16.0024 220.01 15.9224C220.282 15.8344 220.582 15.7904 220.91 15.7904C221.366 15.7904 221.75 15.8744 222.062 16.0424C222.374 16.2024 222.61 16.4304 222.77 16.7264C222.938 17.0224 223.026 17.3624 223.034 17.7464H222.026C221.97 17.4104 221.854 17.1664 221.678 17.0144C221.502 16.8544 221.238 16.7744 220.886 16.7744C220.542 16.7744 220.278 16.8424 220.094 16.9784C219.91 17.1144 219.818 17.2984 219.818 17.5304C219.818 17.7064 219.882 17.8504 220.01 17.9624C220.138 18.0664 220.31 18.1584 220.526 18.2384C220.742 18.3184 220.986 18.4024 221.258 18.4904C221.514 18.5784 221.758 18.6704 221.99 18.7664C222.23 18.8544 222.442 18.9624 222.626 19.0904C222.818 19.2104 222.966 19.3704 223.07 19.5704C223.182 19.7624 223.238 20.0024 223.238 20.2904C223.238 20.6424 223.15 20.9504 222.974 21.2144C222.798 21.4704 222.542 21.6704 222.206 21.8144C221.878 21.9584 221.478 22.0304 221.006 22.0304C220.574 22.0304 220.206 21.9784 219.902 21.8744C219.606 21.7704 219.354 21.6344 219.146 21.4664C218.946 21.2984 218.79 21.1224 218.678 20.9384C218.574 20.7464 218.502 20.5624 218.462 20.3864C218.43 20.2104 218.422 20.0664 218.438 19.9544Z" fill="#041004"/>
<circle cx="317.036" cy="17.8984" r="11.5" fill="white" stroke="#E5E7EB"/>
<circle cx="317.036" cy="17.8984" r="7" fill="#E5E7EB"/>
<rect width="66" height="34" transform="translate(329.036 0.898438)" fill="white"/>
<path d="M339.456 19.3424H340.56C340.584 19.6544 340.688 19.9384 340.872 20.1944C341.064 20.4424 341.32 20.6384 341.64 20.7824C341.968 20.9264 342.348 20.9984 342.78 20.9984C343.156 20.9984 343.468 20.9464 343.716 20.8424C343.964 20.7384 344.148 20.5984 344.268 20.4224C344.396 20.2384 344.46 20.0224 344.46 19.7744C344.46 19.5264 344.392 19.3304 344.256 19.1864C344.12 19.0344 343.916 18.9104 343.644 18.8144C343.372 18.7104 343.036 18.6104 342.636 18.5144C342.284 18.4264 341.936 18.3224 341.592 18.2024C341.256 18.0744 340.944 17.9184 340.656 17.7344C340.376 17.5504 340.148 17.3304 339.972 17.0744C339.804 16.8104 339.72 16.4944 339.72 16.1264C339.72 15.7344 339.828 15.3784 340.044 15.0584C340.26 14.7304 340.576 14.4704 340.992 14.2784C341.416 14.0784 341.928 13.9784 342.528 13.9784C343.456 13.9784 344.156 14.2104 344.628 14.6744C345.108 15.1384 345.34 15.7584 345.324 16.5344H344.244C344.22 15.9904 344.048 15.6024 343.728 15.3704C343.408 15.1304 342.992 15.0104 342.48 15.0104C342.04 15.0104 341.664 15.1024 341.352 15.2864C341.04 15.4624 340.884 15.7424 340.884 16.1264C340.884 16.2944 340.92 16.4424 340.992 16.5704C341.064 16.6904 341.184 16.8024 341.352 16.9064C341.52 17.0104 341.744 17.1104 342.024 17.2064C342.312 17.3024 342.668 17.4064 343.092 17.5184C343.412 17.5904 343.72 17.6824 344.016 17.7944C344.32 17.9064 344.592 18.0464 344.832 18.2144C345.072 18.3824 345.26 18.5984 345.396 18.8624C345.54 19.1264 345.612 19.4504 345.612 19.8344C345.612 20.2424 345.512 20.6144 345.312 20.9504C345.112 21.2784 344.8 21.5424 344.376 21.7424C343.96 21.9344 343.42 22.0304 342.756 22.0304C342.228 22.0304 341.768 21.9624 341.376 21.8264C340.992 21.6904 340.668 21.5144 340.404 21.2984C340.148 21.0824 339.944 20.8504 339.792 20.6024C339.648 20.3544 339.548 20.1184 339.492 19.8944C339.444 19.6704 339.432 19.4864 339.456 19.3424ZM351.467 19.9544H352.559C352.495 20.3464 352.343 20.6984 352.103 21.0104C351.863 21.3224 351.547 21.5704 351.155 21.7544C350.763 21.9384 350.303 22.0304 349.775 22.0304C349.151 22.0304 348.595 21.8984 348.107 21.6344C347.619 21.3704 347.235 21.0064 346.955 20.5424C346.675 20.0784 346.535 19.5384 346.535 18.9224C346.535 18.2984 346.671 17.7544 346.943 17.2904C347.215 16.8184 347.591 16.4504 348.071 16.1864C348.551 15.9224 349.099 15.7904 349.715 15.7904C350.363 15.7904 350.907 15.9184 351.347 16.1744C351.787 16.4304 352.111 16.8104 352.319 17.3144C352.535 17.8104 352.623 18.4304 352.583 19.1744H347.675C347.715 19.5344 347.823 19.8544 347.999 20.1344C348.183 20.4144 348.423 20.6344 348.719 20.7944C349.023 20.9544 349.371 21.0344 349.763 21.0344C350.203 21.0344 350.571 20.9344 350.867 20.7344C351.163 20.5344 351.363 20.2744 351.467 19.9544ZM349.727 16.7744C349.207 16.7744 348.775 16.9144 348.431 17.1944C348.087 17.4664 347.859 17.8304 347.747 18.2864H351.431C351.399 17.7984 351.223 17.4264 350.903 17.1704C350.583 16.9064 350.191 16.7744 349.727 16.7744ZM353.271 15.9104H357.147V16.9064H353.271V15.9104ZM354.639 14.3264H355.779V21.8984H354.639V14.3264ZM357.817 15.9104H361.693V16.9064H357.817V15.9104ZM359.185 14.3264H360.325V21.8984H359.185V14.3264ZM364.164 13.4384V14.6744H362.736V13.4384H364.164ZM362.88 15.9104H364.02V21.8984H362.88V15.9104ZM365.644 15.9104H366.796V21.8984H365.644V15.9104ZM369.076 15.7904C369.412 15.7904 369.716 15.8384 369.988 15.9344C370.26 16.0304 370.492 16.1744 370.684 16.3664C370.876 16.5504 371.024 16.7824 371.128 17.0624C371.24 17.3344 371.296 17.6464 371.296 17.9984V21.8984H370.156V18.2504C370.156 17.7784 370.04 17.4264 369.808 17.1944C369.584 16.9544 369.24 16.8344 368.776 16.8344C368.416 16.8344 368.088 16.9184 367.792 17.0864C367.496 17.2544 367.252 17.4784 367.06 17.7584C366.876 18.0304 366.764 18.3384 366.724 18.6824L366.712 18.0224C366.752 17.7024 366.836 17.4064 366.964 17.1344C367.1 16.8624 367.268 16.6264 367.468 16.4264C367.676 16.2184 367.916 16.0624 368.188 15.9584C368.46 15.8464 368.756 15.7904 369.076 15.7904ZM375.216 20.9624C374.72 20.9624 374.264 20.8624 373.848 20.6624C373.432 20.4624 373.1 20.1704 372.852 19.7864C372.612 19.4024 372.492 18.9384 372.492 18.3944C372.492 17.8584 372.612 17.3984 372.852 17.0144C373.092 16.6224 373.416 16.3224 373.824 16.1144C374.24 15.8984 374.704 15.7904 375.216 15.7904C375.368 15.7904 375.512 15.8024 375.648 15.8264C375.784 15.8424 375.916 15.8704 376.044 15.9104H378.66V16.9904C378.3 16.9904 377.936 16.9304 377.568 16.8104C377.208 16.6904 376.892 16.5624 376.62 16.4264L376.584 16.3664C376.856 16.5104 377.092 16.6864 377.292 16.8944C377.492 17.0944 377.644 17.3224 377.748 17.5784C377.86 17.8264 377.916 18.1064 377.916 18.4184C377.916 18.9464 377.796 19.4024 377.556 19.7864C377.324 20.1704 377 20.4624 376.584 20.6624C376.176 20.8624 375.72 20.9624 375.216 20.9624ZM377.052 24.3224V24.0464C377.052 23.6384 376.94 23.3464 376.716 23.1704C376.492 22.9944 376.164 22.9064 375.732 22.9064H374.328C374.032 22.9064 373.78 22.8824 373.572 22.8344C373.364 22.7864 373.192 22.7144 373.056 22.6184C372.92 22.5304 372.82 22.4184 372.756 22.2824C372.692 22.1544 372.66 22.0104 372.66 21.8504C372.66 21.5384 372.756 21.3024 372.948 21.1424C373.14 20.9824 373.384 20.8824 373.68 20.8424C373.976 20.7944 374.276 20.7904 374.58 20.8304L375.216 20.9624C374.76 20.9864 374.412 21.0304 374.172 21.0944C373.932 21.1584 373.812 21.2944 373.812 21.5024C373.812 21.6224 373.86 21.7184 373.956 21.7904C374.052 21.8624 374.188 21.8984 374.364 21.8984H375.828C376.284 21.8984 376.688 21.9544 377.04 22.0664C377.4 22.1864 377.68 22.3824 377.88 22.6544C378.088 22.9344 378.192 23.3144 378.192 23.7944V24.3224H377.052ZM375.216 19.9904C375.504 19.9904 375.764 19.9304 375.996 19.8104C376.236 19.6824 376.428 19.5024 376.572 19.2704C376.716 19.0304 376.788 18.7424 376.788 18.4064C376.788 18.0624 376.716 17.7704 376.572 17.5304C376.436 17.2824 376.248 17.0984 376.008 16.9784C375.768 16.8504 375.504 16.7864 375.216 16.7864C374.928 16.7864 374.66 16.8504 374.412 16.9784C374.172 17.0984 373.98 17.2784 373.836 17.5184C373.692 17.7584 373.62 18.0544 373.62 18.4064C373.62 18.7424 373.692 19.0304 373.836 19.2704C373.98 19.5024 374.172 19.6824 374.412 19.8104C374.652 19.9304 374.92 19.9904 375.216 19.9904ZM379.489 19.9544H380.545C380.585 20.2744 380.729 20.5384 380.977 20.7464C381.225 20.9464 381.573 21.0464 382.021 21.0464C382.309 21.0464 382.533 21.0144 382.693 20.9504C382.853 20.8784 382.965 20.7824 383.029 20.6624C383.101 20.5424 383.137 20.4104 383.137 20.2664C383.137 20.0824 383.089 19.9424 382.993 19.8464C382.897 19.7424 382.761 19.6584 382.585 19.5944C382.409 19.5224 382.201 19.4544 381.961 19.3904C381.697 19.3184 381.433 19.2344 381.169 19.1384C380.905 19.0424 380.661 18.9264 380.437 18.7904C380.221 18.6544 380.045 18.4864 379.909 18.2864C379.781 18.0784 379.717 17.8264 379.717 17.5304C379.717 17.2824 379.769 17.0504 379.873 16.8344C379.985 16.6184 380.141 16.4344 380.341 16.2824C380.549 16.1224 380.789 16.0024 381.061 15.9224C381.333 15.8344 381.633 15.7904 381.961 15.7904C382.417 15.7904 382.801 15.8744 383.113 16.0424C383.425 16.2024 383.661 16.4304 383.821 16.7264C383.989 17.0224 384.077 17.3624 384.085 17.7464H383.077C383.021 17.4104 382.905 17.1664 382.729 17.0144C382.553 16.8544 382.289 16.7744 381.937 16.7744C381.593 16.7744 381.329 16.8424 381.145 16.9784C380.961 17.1144 380.869 17.2984 380.869 17.5304C380.869 17.7064 380.933 17.8504 381.061 17.9624C381.189 18.0664 381.361 18.1584 381.577 18.2384C381.793 18.3184 382.037 18.4024 382.309 18.4904C382.565 18.5784 382.809 18.6704 383.041 18.7664C383.281 18.8544 383.493 18.9624 383.677 19.0904C383.869 19.2104 384.017 19.3704 384.121 19.5704C384.233 19.7624 384.289 20.0024 384.289 20.2904C384.289 20.6424 384.201 20.9504 384.025 21.2144C383.849 21.4704 383.593 21.6704 383.257 21.8144C382.929 21.9584 382.529 22.0304 382.057 22.0304C381.625 22.0304 381.257 21.9784 380.953 21.8744C380.657 21.7704 380.405 21.6344 380.197 21.4664C379.997 21.2984 379.841 21.1224 379.729 20.9384C379.625 20.7464 379.553 20.5624 379.513 20.3864C379.481 20.2104 379.473 20.0664 379.489 19.9544Z" fill="#041004"/>
<circle cx="478.036" cy="17.8984" r="11.5" fill="white" stroke="#041004"/>
<circle cx="478.036" cy="17.8984" r="7" fill="#041004"/>
<rect width="65" height="34" transform="translate(490.036 0.898438)" fill="white"/>
<path d="M501.92 19.2104V18.2024H504.716C505.18 18.2024 505.552 18.0624 505.832 17.7824C506.12 17.5024 506.264 17.1344 506.264 16.6784C506.264 16.2064 506.12 15.8344 505.832 15.5624C505.552 15.2904 505.18 15.1544 504.716 15.1544H502.112V21.8984H500.96V14.1104H504.668C505.052 14.1104 505.408 14.1664 505.736 14.2784C506.072 14.3824 506.364 14.5424 506.612 14.7584C506.868 14.9744 507.064 15.2424 507.2 15.5624C507.344 15.8824 507.416 16.2544 507.416 16.6784C507.416 17.0944 507.344 17.4624 507.2 17.7824C507.064 18.1024 506.868 18.3704 506.612 18.5864C506.364 18.7944 506.072 18.9504 505.736 19.0544C505.408 19.1584 505.052 19.2104 504.668 19.2104H501.92ZM508.726 15.9104H509.878V21.8984H508.726V15.9104ZM511.906 16.9304C511.49 16.9304 511.134 17.0264 510.838 17.2184C510.55 17.4104 510.318 17.6464 510.142 17.9264C509.974 18.2064 509.862 18.4744 509.806 18.7304L509.794 18.0464C509.802 17.9664 509.822 17.8424 509.854 17.6744C509.894 17.4984 509.962 17.3024 510.058 17.0864C510.154 16.8704 510.282 16.6664 510.442 16.4744C510.602 16.2744 510.802 16.1104 511.042 15.9824C511.282 15.8544 511.57 15.7904 511.906 15.7904V16.9304ZM517.564 19.9544H518.656C518.592 20.3464 518.44 20.6984 518.2 21.0104C517.96 21.3224 517.644 21.5704 517.252 21.7544C516.86 21.9384 516.4 22.0304 515.872 22.0304C515.248 22.0304 514.692 21.8984 514.204 21.6344C513.716 21.3704 513.332 21.0064 513.052 20.5424C512.772 20.0784 512.632 19.5384 512.632 18.9224C512.632 18.2984 512.768 17.7544 513.04 17.2904C513.312 16.8184 513.688 16.4504 514.168 16.1864C514.648 15.9224 515.196 15.7904 515.812 15.7904C516.46 15.7904 517.004 15.9184 517.444 16.1744C517.884 16.4304 518.208 16.8104 518.416 17.3144C518.632 17.8104 518.72 18.4304 518.68 19.1744H513.772C513.812 19.5344 513.92 19.8544 514.096 20.1344C514.28 20.4144 514.52 20.6344 514.816 20.7944C515.12 20.9544 515.468 21.0344 515.86 21.0344C516.3 21.0344 516.668 20.9344 516.964 20.7344C517.26 20.5344 517.46 20.2744 517.564 19.9544ZM515.824 16.7744C515.304 16.7744 514.872 16.9144 514.528 17.1944C514.184 17.4664 513.956 17.8304 513.844 18.2864H517.528C517.496 17.7984 517.32 17.4264 517 17.1704C516.68 16.9064 516.288 16.7744 515.824 16.7744ZM522.31 21.0104H521.938L523.882 15.9104H525.13L522.67 21.8984H521.59L519.154 15.9104H520.414L522.31 21.0104ZM527.496 13.4384V14.6744H526.068V13.4384H527.496ZM526.212 15.9104H527.352V21.8984H526.212V15.9104ZM533.596 19.9544H534.688C534.624 20.3464 534.472 20.6984 534.232 21.0104C533.992 21.3224 533.676 21.5704 533.284 21.7544C532.892 21.9384 532.432 22.0304 531.904 22.0304C531.28 22.0304 530.724 21.8984 530.236 21.6344C529.748 21.3704 529.364 21.0064 529.084 20.5424C528.804 20.0784 528.664 19.5384 528.664 18.9224C528.664 18.2984 528.8 17.7544 529.072 17.2904C529.344 16.8184 529.72 16.4504 530.2 16.1864C530.68 15.9224 531.228 15.7904 531.844 15.7904C532.492 15.7904 533.036 15.9184 533.476 16.1744C533.916 16.4304 534.24 16.8104 534.448 17.3144C534.664 17.8104 534.752 18.4304 534.712 19.1744H529.804C529.844 19.5344 529.952 19.8544 530.128 20.1344C530.312 20.4144 530.552 20.6344 530.848 20.7944C531.152 20.9544 531.5 21.0344 531.892 21.0344C532.332 21.0344 532.7 20.9344 532.996 20.7344C533.292 20.5344 533.492 20.2744 533.596 19.9544ZM531.856 16.7744C531.336 16.7744 530.904 16.9144 530.56 17.1944C530.216 17.4664 529.988 17.8304 529.876 18.2864H533.56C533.528 17.7984 533.352 17.4264 533.032 17.1704C532.712 16.9064 532.32 16.7744 531.856 16.7744ZM542.29 20.9624L541.978 20.9504L543.55 15.9104H544.798L542.722 21.8984H541.642L539.83 16.7744H540.154L538.318 21.8984H537.238L535.186 15.9104H536.446L537.97 20.9504L537.658 20.9624L539.314 15.9104H540.67L542.29 20.9624Z" fill="#041004"/>
</svg>
