<svg width="827" height="313" viewBox="0 0 827 313" fill="none" xmlns="http://www.w3.org/2000/svg">
<g clip-path="url(#clip0_4657_48298)">
<path d="M-1 16.9753C-1 7.87623 9.94342 0.5 23.4428 0.5H802.557C816.057 0.5 827 7.87622 827 16.9752V296.025C827 305.124 816.057 312.5 802.557 312.5H23.4428C9.9434 312.5 -1 305.124 -1 296.025V16.9753Z" fill="white"/>
<path d="M38.8 30.116V39.124H44.912V40.5H37.264V30.116H38.8ZM50.2546 40.676C49.476 40.676 48.7613 40.5107 48.1106 40.18C47.46 39.8493 46.9426 39.3747 46.5586 38.756C46.1746 38.1373 45.9826 37.396 45.9826 36.532C45.9826 35.6573 46.1746 34.9107 46.5586 34.292C46.9426 33.6627 47.46 33.1827 48.1106 32.852C48.7613 32.5213 49.476 32.356 50.2546 32.356C51.0333 32.356 51.7426 32.5213 52.3826 32.852C53.0226 33.1827 53.5346 33.6627 53.9186 34.292C54.3026 34.9107 54.4946 35.6573 54.4946 36.532C54.4946 37.396 54.3026 38.1373 53.9186 38.756C53.5346 39.3747 53.0226 39.8493 52.3826 40.18C51.7426 40.5107 51.0333 40.676 50.2546 40.676ZM50.2546 39.348C50.7346 39.348 51.1773 39.2413 51.5826 39.028C51.9986 38.804 52.3293 38.484 52.5746 38.068C52.8306 37.6413 52.9586 37.1293 52.9586 36.532C52.9586 35.924 52.8306 35.4067 52.5746 34.98C52.3293 34.5533 51.9986 34.228 51.5826 34.004C51.1773 33.78 50.7346 33.668 50.2546 33.668C49.7746 33.668 49.3266 33.78 48.9106 34.004C48.4946 34.2173 48.1586 34.5373 47.9026 34.964C47.6466 35.3907 47.5186 35.9133 47.5186 36.532C47.5186 37.1293 47.6413 37.6413 47.8866 38.068C48.1426 38.484 48.4786 38.804 48.8946 39.028C49.3106 39.2413 49.764 39.348 50.2546 39.348ZM59.3978 40.66C58.7151 40.66 58.0911 40.484 57.5258 40.132C56.9604 39.78 56.5124 39.2947 56.1818 38.676C55.8511 38.0467 55.6858 37.3267 55.6858 36.516C55.6858 35.7053 55.8511 34.9907 56.1818 34.372C56.5231 33.7427 56.9871 33.252 57.5738 32.9C58.1604 32.5373 58.8164 32.356 59.5418 32.356C60.3418 32.356 60.9604 32.5427 61.3978 32.916C61.8458 33.2893 62.1551 33.7907 62.3258 34.42C62.5071 35.0493 62.5978 35.748 62.5978 36.516C62.5978 36.9427 62.5444 37.396 62.4378 37.876C62.3311 38.356 62.1604 38.8093 61.9258 39.236C61.6911 39.6627 61.3658 40.0093 60.9498 40.276C60.5338 40.532 60.0164 40.66 59.3978 40.66ZM59.8298 39.332C60.3951 39.332 60.8698 39.2093 61.2538 38.964C61.6484 38.708 61.9418 38.3667 62.1338 37.94C62.3258 37.5133 62.4218 37.0387 62.4218 36.516C62.4218 35.9507 62.3204 35.4547 62.1178 35.028C61.9258 34.6013 61.6324 34.2707 61.2378 34.036C60.8538 33.8013 60.3844 33.684 59.8298 33.684C58.9978 33.684 58.3524 33.9507 57.8938 34.484C57.4458 35.0173 57.2218 35.6947 57.2218 36.516C57.2218 37.0707 57.3338 37.5613 57.5578 37.988C57.7818 38.404 58.0858 38.7347 58.4698 38.98C58.8644 39.2147 59.3178 39.332 59.8298 39.332ZM62.4218 32.516H63.9578V40.5H62.5498C62.5498 40.5 62.5391 40.404 62.5178 40.212C62.4964 40.0093 62.4751 39.7693 62.4538 39.492C62.4324 39.2147 62.4218 38.9693 62.4218 38.756V32.516ZM65.9611 32.516H67.4971V40.5H65.9611V32.516ZM70.5371 32.356C70.9851 32.356 71.3905 32.42 71.7531 32.548C72.1158 32.676 72.4251 32.868 72.6811 33.124C72.9371 33.3693 73.1345 33.6787 73.2731 34.052C73.4225 34.4147 73.4971 34.8307 73.4971 35.3V40.5H71.9771V35.636C71.9771 35.0067 71.8225 34.5373 71.5131 34.228C71.2145 33.908 70.7558 33.748 70.1371 33.748C69.6571 33.748 69.2198 33.86 68.8251 34.084C68.4305 34.308 68.1051 34.6067 67.8491 34.98C67.6038 35.3427 67.4545 35.7533 67.4011 36.212L67.3851 35.332C67.4385 34.9053 67.5505 34.5107 67.7211 34.148C67.9025 33.7853 68.1265 33.4707 68.3931 33.204C68.6705 32.9267 68.9905 32.7187 69.3531 32.58C69.7158 32.4307 70.1105 32.356 70.5371 32.356Z" fill="#041004"/>
<rect x="732" y="27.5" width="54" height="22" rx="4" fill="#F9FAFB"/>
<path d="M745.34 42.49L740.46 42.5V41.75L742.79 39.74C743.96 38.73 744.29 38.24 744.29 37.47C744.29 36.56 743.77 36.02 742.9 36.02C742.01 36.02 741.43 36.67 741.41 37.7H740.43C740.46 36.15 741.44 35.14 742.91 35.14C744.36 35.14 745.29 36.02 745.29 37.41C745.29 38.44 744.78 39.17 743.5 40.28L742 41.58H745.34V42.49ZM746.742 38.89C746.742 36.65 747.902 35.13 749.722 35.13C751.532 35.13 752.692 36.65 752.692 38.89C752.692 41.14 751.582 42.63 749.722 42.63C747.852 42.63 746.742 41.14 746.742 38.89ZM747.712 38.89C747.712 40.67 748.452 41.75 749.722 41.75C750.992 41.75 751.722 40.67 751.722 38.89C751.722 37.09 750.992 36.01 749.722 36.01C748.452 36.01 747.712 37.09 747.712 38.89ZM759.026 42.49L754.146 42.5V41.75L756.476 39.74C757.646 38.73 757.976 38.24 757.976 37.47C757.976 36.56 757.456 36.02 756.586 36.02C755.696 36.02 755.116 36.67 755.096 37.7H754.116C754.146 36.15 755.126 35.14 756.596 35.14C758.046 35.14 758.976 36.02 758.976 37.41C758.976 38.44 758.466 39.17 757.186 40.28L755.686 41.58H759.026V42.49ZM762.537 38.76H761.817V38.11L763.867 36.14H760.617V35.27H765.107V36.06L763.127 37.95C764.357 38.1 765.287 38.93 765.287 40.23C765.287 41.69 764.187 42.62 762.717 42.62C761.297 42.62 760.277 41.75 760.277 40.25H761.247C761.247 41.19 761.827 41.74 762.737 41.74C763.677 41.74 764.287 41.14 764.287 40.21C764.287 39.34 763.687 38.76 762.537 38.76Z" fill="#041004"/>
<path d="M774 40.1002C773.767 40.1002 773.533 40.0102 773.357 39.8335L771.183 37.6602C771.087 37.5635 771.087 37.4035 771.183 37.3069C771.28 37.2102 771.44 37.2102 771.537 37.3069L773.71 39.4802C773.87 39.6402 774.13 39.6402 774.29 39.4802L776.463 37.3069C776.56 37.2102 776.72 37.2102 776.817 37.3069C776.913 37.4035 776.913 37.5635 776.817 37.6602L774.643 39.8335C774.467 40.0102 774.233 40.1002 774 40.1002Z" fill="#041004"/>
<rect x="55" y="260.5" width="726" height="1" fill="#F7F7F7"/>
<rect x="55" y="237.5" width="726" height="1" fill="#F7F7F7"/>
<rect x="55" y="214.5" width="726" height="1" fill="#F7F7F7"/>
<rect x="55" y="191.5" width="726" height="1" fill="#F7F7F7"/>
<rect x="55" y="168.5" width="726" height="1" fill="#F7F7F7"/>
<rect x="55" y="145.5" width="726" height="1" fill="#F7F7F7"/>
<rect x="55" y="122.5" width="726" height="1" fill="#F7F7F7"/>
<rect x="55" y="99.5" width="726" height="1" fill="#F7F7F7"/>
<rect x="55" y="76.5" width="726" height="1" fill="#F7F7F7"/>
<path d="M69.9913 278.764V275.553H70.7255V278.78C70.7255 279.035 70.6847 279.272 70.6031 279.491C70.5267 279.71 70.4119 279.904 70.259 280.072C70.1061 280.235 69.9149 280.363 69.6855 280.454C69.4611 280.546 69.2011 280.592 68.9054 280.592C68.6607 280.592 68.4288 280.559 68.2095 280.493C67.9954 280.421 67.8042 280.319 67.636 280.187C67.4677 280.049 67.3326 279.881 67.2307 279.682C67.1338 279.483 67.0803 279.256 67.0701 279.001H67.7507C67.8017 279.307 67.9317 279.539 68.1407 279.697C68.3497 279.85 68.6046 279.927 68.9054 279.927C69.1603 279.927 69.3668 279.876 69.5249 279.774C69.6829 279.672 69.8002 279.534 69.8766 279.361C69.9531 279.188 69.9913 278.989 69.9913 278.764ZM72.9059 279.284V278.627H75.5672V279.284H72.9059ZM71.8276 280.516L73.8542 275.553H74.6342L76.676 280.516H75.8807L74.1065 276.034H74.3818L72.6153 280.516H71.8276ZM82.0052 279.705L81.7911 279.781V275.553H82.5329V280.516H81.7911L78.3269 276.378L78.541 276.302V280.516H77.8069V275.553H78.541L82.0052 279.705Z" fill="#B5BBC5"/>
<path d="M134.406 275.553V276.21H131.217V277.755H133.825V278.397H131.217V280.516H130.483V275.553H134.406ZM136.334 278.367V279.858H139.531V280.516H135.6V275.553H139.523V276.21H136.334V277.724H138.942V278.367H136.334ZM140.979 280.516V275.553H143.212C143.772 275.553 144.206 275.667 144.512 275.897C144.818 276.126 144.971 276.455 144.971 276.883C144.971 277.148 144.912 277.362 144.795 277.526C144.682 277.689 144.522 277.811 144.313 277.893C144.104 277.969 143.859 278.02 143.579 278.046L143.594 277.992C143.803 278.002 143.999 278.025 144.183 278.061C144.371 278.097 144.535 278.155 144.672 278.237C144.815 278.318 144.927 278.43 145.009 278.573C145.095 278.716 145.139 278.902 145.139 279.131C145.139 279.432 145.067 279.685 144.925 279.889C144.782 280.087 144.583 280.238 144.328 280.34C144.078 280.442 143.788 280.5 143.456 280.516H140.979ZM141.713 279.858H143.319C143.655 279.858 143.918 279.797 144.106 279.674C144.295 279.552 144.389 279.358 144.389 279.093C144.389 278.889 144.331 278.736 144.213 278.634C144.096 278.532 143.943 278.466 143.755 278.436C143.571 278.405 143.38 278.39 143.181 278.39H141.713V279.858ZM141.713 277.74H143.15C143.487 277.74 143.749 277.673 143.938 277.541C144.127 277.403 144.221 277.204 144.221 276.944C144.221 276.679 144.127 276.491 143.938 276.378C143.749 276.266 143.51 276.21 143.219 276.21H141.713V277.74Z" fill="#B5BBC5"/>
<path d="M195.657 280.103H195.343L197.783 275.553H198.517V280.516H197.783V276.707L197.943 276.746L195.886 280.516H195.114L193.057 276.753L193.217 276.715V280.516H192.483V275.553H193.217L195.657 280.103ZM200.729 279.284V278.627H203.39V279.284H200.729ZM199.651 280.516L201.677 275.553H202.457L204.499 280.516H203.704L201.929 276.034H202.205L200.438 280.516H199.651ZM205.63 280.516V275.553H208.184C208.541 275.553 208.847 275.606 209.102 275.713C209.362 275.815 209.56 275.973 209.698 276.187C209.836 276.396 209.905 276.664 209.905 276.99C209.905 277.215 209.866 277.406 209.79 277.564C209.719 277.717 209.619 277.844 209.492 277.946C209.364 278.048 209.214 278.127 209.04 278.183C208.867 278.239 208.681 278.275 208.482 278.29L208.429 278.244C208.729 278.255 208.982 278.288 209.186 278.344C209.39 278.4 209.545 278.502 209.652 278.65C209.764 278.792 209.82 279.007 209.82 279.292V280.516H209.079V279.315C209.079 279.116 209.046 278.961 208.979 278.849C208.913 278.736 208.798 278.657 208.635 278.611C208.472 278.566 208.243 278.543 207.947 278.543H206.364V280.516H205.63ZM206.364 277.9H208.184C208.51 277.9 208.755 277.819 208.918 277.656C209.086 277.492 209.17 277.278 209.17 277.013C209.17 276.758 209.086 276.562 208.918 276.424C208.755 276.287 208.51 276.218 208.184 276.218H206.364V277.9Z" fill="#B5BBC5"/>
<path d="M258.102 279.284V278.627H260.764V279.284H258.102ZM257.024 280.516L259.051 275.553H259.831L261.873 280.516H261.077L259.303 276.034H259.578L257.812 280.516H257.024ZM263.6 278.803V278.16H265.382C265.677 278.16 265.914 278.071 266.093 277.893C266.276 277.714 266.368 277.48 266.368 277.189C266.368 276.888 266.276 276.651 266.093 276.478C265.914 276.305 265.677 276.218 265.382 276.218H263.722V280.516H262.988V275.553H265.351C265.596 275.553 265.823 275.588 266.032 275.66C266.246 275.726 266.432 275.828 266.59 275.965C266.753 276.103 266.878 276.274 266.965 276.478C267.056 276.682 267.102 276.919 267.102 277.189C267.102 277.454 267.056 277.689 266.965 277.893C266.878 278.097 266.753 278.267 266.59 278.405C266.432 278.538 266.246 278.637 266.032 278.703C265.823 278.769 265.596 278.803 265.351 278.803H263.6ZM268.442 280.516V275.553H270.996C271.353 275.553 271.659 275.606 271.914 275.713C272.174 275.815 272.372 275.973 272.51 276.187C272.648 276.396 272.716 276.664 272.716 276.99C272.716 277.215 272.678 277.406 272.602 277.564C272.53 277.717 272.431 277.844 272.304 277.946C272.176 278.048 272.026 278.127 271.852 278.183C271.679 278.239 271.493 278.275 271.294 278.29L271.241 278.244C271.541 278.255 271.794 278.288 271.998 278.344C272.202 278.4 272.357 278.502 272.464 278.65C272.576 278.792 272.632 279.007 272.632 279.292V280.516H271.891V279.315C271.891 279.116 271.857 278.961 271.791 278.849C271.725 278.736 271.61 278.657 271.447 278.611C271.284 278.566 271.054 278.543 270.759 278.543H269.176V280.516H268.442ZM269.176 277.9H270.996C271.322 277.9 271.567 277.819 271.73 277.656C271.898 277.492 271.982 277.278 271.982 277.013C271.982 276.758 271.898 276.562 271.73 276.424C271.567 276.287 271.322 276.218 270.996 276.218H269.176V277.9Z" fill="#B5BBC5"/>
<path d="M323.657 280.103H323.343L325.783 275.553H326.517V280.516H325.783V276.707L325.943 276.746L323.886 280.516H323.114L321.057 276.753L321.217 276.715V280.516H320.483V275.553H321.217L323.657 280.103ZM328.729 279.284V278.627H331.39V279.284H328.729ZM327.651 280.516L329.677 275.553H330.457L332.499 280.516H331.704L329.929 276.034H330.205L328.438 280.516H327.651ZM337.176 275.553L335.287 278.856V280.516H334.553V278.856L332.664 275.553H333.505L335.111 278.451H334.759L336.335 275.553H337.176Z" fill="#B5BBC5"/>
<path d="M387.991 278.764V275.553H388.725V278.78C388.725 279.035 388.685 279.272 388.603 279.491C388.527 279.71 388.412 279.904 388.259 280.072C388.106 280.235 387.915 280.363 387.685 280.454C387.461 280.546 387.201 280.592 386.905 280.592C386.661 280.592 386.429 280.559 386.21 280.493C385.995 280.421 385.804 280.319 385.636 280.187C385.468 280.049 385.333 279.881 385.231 279.682C385.134 279.483 385.08 279.256 385.07 279.001H385.751C385.802 279.307 385.932 279.539 386.141 279.697C386.35 279.85 386.605 279.927 386.905 279.927C387.16 279.927 387.367 279.876 387.525 279.774C387.683 279.672 387.8 279.534 387.877 279.361C387.953 279.188 387.991 278.989 387.991 278.764ZM394.125 278.52V275.553H394.859V278.55C394.859 278.846 394.821 279.106 394.744 279.33C394.673 279.555 394.568 279.748 394.431 279.911C394.293 280.075 394.13 280.207 393.941 280.309C393.758 280.406 393.551 280.477 393.322 280.523C393.097 280.574 392.858 280.6 392.603 280.6C392.338 280.6 392.091 280.574 391.861 280.523C391.632 280.477 391.42 280.406 391.226 280.309C391.038 280.207 390.875 280.075 390.737 279.911C390.604 279.748 390.5 279.555 390.423 279.33C390.352 279.106 390.316 278.846 390.316 278.55V275.553H391.05V278.52C391.05 278.902 391.119 279.195 391.257 279.399C391.4 279.603 391.588 279.743 391.823 279.82C392.057 279.896 392.317 279.934 392.603 279.934C392.878 279.934 393.131 279.896 393.36 279.82C393.589 279.743 393.773 279.603 393.911 279.399C394.053 279.195 394.125 278.902 394.125 278.52ZM400.647 279.705L400.433 279.781V275.553H401.175V280.516H400.433L396.969 276.378L397.183 276.302V280.516H396.449V275.553H397.183L400.647 279.705Z" fill="#B5BBC5"/>
<path d="M450.991 278.764V275.553H451.725V278.78C451.725 279.035 451.685 279.272 451.603 279.491C451.527 279.71 451.412 279.904 451.259 280.072C451.106 280.235 450.915 280.363 450.685 280.454C450.461 280.546 450.201 280.592 449.905 280.592C449.661 280.592 449.429 280.559 449.21 280.493C448.995 280.421 448.804 280.319 448.636 280.187C448.468 280.049 448.333 279.881 448.231 279.682C448.134 279.483 448.08 279.256 448.07 279.001H448.751C448.802 279.307 448.932 279.539 449.141 279.697C449.35 279.85 449.605 279.927 449.905 279.927C450.16 279.927 450.367 279.876 450.525 279.774C450.683 279.672 450.8 279.534 450.877 279.361C450.953 279.188 450.991 278.989 450.991 278.764ZM457.125 278.52V275.553H457.859V278.55C457.859 278.846 457.821 279.106 457.744 279.33C457.673 279.555 457.568 279.748 457.431 279.911C457.293 280.075 457.13 280.207 456.941 280.309C456.758 280.406 456.551 280.477 456.322 280.523C456.097 280.574 455.858 280.6 455.603 280.6C455.338 280.6 455.091 280.574 454.861 280.523C454.632 280.477 454.42 280.406 454.226 280.309C454.038 280.207 453.875 280.075 453.737 279.911C453.604 279.748 453.5 279.555 453.423 279.33C453.352 279.106 453.316 278.846 453.316 278.55V275.553H454.05V278.52C454.05 278.902 454.119 279.195 454.257 279.399C454.4 279.603 454.588 279.743 454.823 279.82C455.057 279.896 455.317 279.934 455.603 279.934C455.878 279.934 456.131 279.896 456.36 279.82C456.589 279.743 456.773 279.603 456.911 279.399C457.053 279.195 457.125 278.902 457.125 278.52ZM460.183 275.553V279.858H463.105V280.516H459.449V275.553H460.183Z" fill="#B5BBC5"/>
<path d="M511.102 279.284V278.627H513.764V279.284H511.102ZM510.024 280.516L512.051 275.553H512.831L514.873 280.516H514.077L512.303 276.034H512.578L510.812 280.516H510.024ZM519.774 278.52V275.553H520.509V278.55C520.509 278.846 520.47 279.106 520.394 279.33C520.322 279.555 520.218 279.748 520.08 279.911C519.943 280.075 519.78 280.207 519.591 280.309C519.407 280.406 519.201 280.477 518.971 280.523C518.747 280.574 518.508 280.6 518.253 280.6C517.988 280.6 517.74 280.574 517.511 280.523C517.281 280.477 517.07 280.406 516.876 280.309C516.687 280.207 516.524 280.075 516.387 279.911C516.254 279.748 516.15 279.555 516.073 279.33C516.002 279.106 515.966 278.846 515.966 278.55V275.553H516.7V278.52C516.7 278.902 516.769 279.195 516.907 279.399C517.049 279.603 517.238 279.743 517.473 279.82C517.707 279.896 517.967 279.934 518.253 279.934C518.528 279.934 518.78 279.896 519.01 279.82C519.239 279.743 519.423 279.603 519.56 279.399C519.703 279.195 519.774 278.902 519.774 278.52ZM524.439 280.6C524.046 280.6 523.692 280.541 523.376 280.424C523.065 280.307 522.797 280.138 522.573 279.919C522.349 279.7 522.178 279.435 522.061 279.124C521.943 278.808 521.885 278.459 521.885 278.076C521.885 277.684 521.948 277.329 522.076 277.013C522.203 276.692 522.384 276.417 522.619 276.187C522.853 275.953 523.131 275.774 523.452 275.652C523.774 275.53 524.128 275.468 524.515 275.468C524.949 275.468 525.329 275.542 525.655 275.69C525.986 275.838 526.251 276.047 526.45 276.317C526.649 276.582 526.766 276.898 526.802 277.266H526.137C526.07 277.031 525.963 276.83 525.815 276.661C525.668 276.493 525.484 276.363 525.265 276.271C525.046 276.18 524.796 276.134 524.515 276.134C524.133 276.134 523.802 276.218 523.521 276.386C523.241 276.549 523.022 276.779 522.864 277.074C522.706 277.365 522.626 277.699 522.626 278.076C522.626 278.448 522.695 278.775 522.833 279.055C522.976 279.33 523.182 279.547 523.452 279.705C523.728 279.858 524.059 279.934 524.447 279.934C524.747 279.934 525.01 279.883 525.234 279.781C525.464 279.674 525.65 279.527 525.792 279.338C525.94 279.144 526.042 278.912 526.098 278.642L526.481 278.596C526.404 279.254 526.185 279.753 525.823 280.095C525.461 280.432 525 280.6 524.439 280.6ZM526.312 280.516C526.312 280.352 526.318 280.166 526.328 279.957C526.343 279.743 526.358 279.529 526.374 279.315C526.394 279.096 526.412 278.9 526.427 278.726H524.569V278.13H526.993V280.516H526.312Z" fill="#B5BBC5"/>
<path d="M574.147 278.887H574.85C574.865 279.086 574.932 279.267 575.049 279.43C575.171 279.588 575.334 279.713 575.538 279.804C575.747 279.896 575.99 279.942 576.265 279.942C576.504 279.942 576.703 279.909 576.861 279.843C577.019 279.776 577.137 279.687 577.213 279.575C577.295 279.458 577.335 279.32 577.335 279.162C577.335 279.004 577.292 278.879 577.205 278.787C577.119 278.69 576.989 278.611 576.815 278.55C576.642 278.484 576.428 278.42 576.173 278.359C575.949 278.303 575.727 278.237 575.508 278.16C575.294 278.079 575.095 277.979 574.911 277.862C574.733 277.745 574.588 277.605 574.475 277.441C574.368 277.273 574.315 277.072 574.315 276.837C574.315 276.587 574.384 276.361 574.521 276.157C574.659 275.948 574.86 275.782 575.125 275.66C575.396 275.532 575.722 275.468 576.104 275.468C576.696 275.468 577.142 275.616 577.443 275.912C577.748 276.208 577.896 276.603 577.886 277.097H577.198C577.183 276.751 577.073 276.503 576.869 276.356C576.665 276.203 576.4 276.126 576.074 276.126C575.793 276.126 575.554 276.185 575.355 276.302C575.156 276.414 575.057 276.593 575.057 276.837C575.057 276.944 575.08 277.039 575.125 277.12C575.171 277.197 575.248 277.268 575.355 277.334C575.462 277.401 575.605 277.464 575.783 277.526C575.967 277.587 576.193 277.653 576.464 277.724C576.668 277.77 576.864 277.829 577.053 277.9C577.246 277.972 577.42 278.061 577.573 278.168C577.725 278.275 577.845 278.413 577.932 278.581C578.024 278.749 578.07 278.956 578.07 279.2C578.07 279.46 578.006 279.697 577.878 279.911C577.751 280.121 577.552 280.289 577.282 280.416C577.017 280.539 576.673 280.6 576.25 280.6C575.913 280.6 575.62 280.556 575.37 280.47C575.125 280.383 574.919 280.271 574.751 280.133C574.588 279.996 574.458 279.848 574.361 279.69C574.269 279.532 574.205 279.381 574.17 279.239C574.139 279.096 574.131 278.979 574.147 278.887ZM580.095 278.367V279.858H583.292V280.516H579.361V275.553H583.284V276.21H580.095V277.724H582.703V278.367H580.095ZM585.336 278.803V278.16H587.118C587.414 278.16 587.651 278.071 587.829 277.893C588.013 277.714 588.104 277.48 588.104 277.189C588.104 276.888 588.013 276.651 587.829 276.478C587.651 276.305 587.414 276.218 587.118 276.218H585.458V280.516H584.724V275.553H587.087C587.332 275.553 587.559 275.588 587.768 275.66C587.982 275.726 588.168 275.828 588.326 275.965C588.489 276.103 588.614 276.274 588.701 276.478C588.793 276.682 588.839 276.919 588.839 277.189C588.839 277.454 588.793 277.689 588.701 277.893C588.614 278.097 588.489 278.267 588.326 278.405C588.168 278.538 587.982 278.637 587.768 278.703C587.559 278.769 587.332 278.803 587.087 278.803H585.336Z" fill="#B5BBC5"/>
<path d="M638.923 280.6C638.408 280.6 637.949 280.495 637.546 280.286C637.148 280.077 636.835 279.781 636.605 279.399C636.381 279.017 636.269 278.563 636.269 278.038C636.269 277.508 636.381 277.051 636.605 276.669C636.835 276.287 637.148 275.991 637.546 275.782C637.949 275.573 638.408 275.468 638.923 275.468C639.443 275.468 639.901 275.573 640.299 275.782C640.697 275.991 641.01 276.287 641.24 276.669C641.469 277.051 641.584 277.508 641.584 278.038C641.584 278.563 641.469 279.017 641.24 279.399C641.01 279.781 640.697 280.077 640.299 280.286C639.901 280.495 639.443 280.6 638.923 280.6ZM638.923 279.934C639.29 279.934 639.616 279.863 639.901 279.72C640.187 279.578 640.414 279.366 640.582 279.086C640.75 278.805 640.834 278.456 640.834 278.038C640.834 277.62 640.75 277.271 640.582 276.99C640.414 276.71 640.187 276.498 639.901 276.356C639.616 276.208 639.29 276.134 638.923 276.134C638.566 276.134 638.242 276.208 637.951 276.356C637.661 276.498 637.431 276.71 637.263 276.99C637.095 277.271 637.011 277.62 637.011 278.038C637.011 278.456 637.095 278.805 637.263 279.086C637.431 279.366 637.661 279.578 637.951 279.72C638.242 279.863 638.566 279.934 638.923 279.934ZM647.693 278.818C647.647 279.19 647.52 279.509 647.311 279.774C647.107 280.039 646.839 280.243 646.508 280.386C646.176 280.528 645.799 280.6 645.376 280.6C644.994 280.6 644.642 280.541 644.321 280.424C644.004 280.307 643.729 280.138 643.495 279.919C643.26 279.7 643.077 279.432 642.944 279.116C642.811 278.795 642.745 278.436 642.745 278.038C642.745 277.635 642.811 277.276 642.944 276.96C643.077 276.644 643.26 276.376 643.495 276.157C643.729 275.932 644.004 275.762 644.321 275.644C644.642 275.527 644.994 275.468 645.376 275.468C645.804 275.468 646.184 275.542 646.515 275.69C646.847 275.833 647.114 276.039 647.318 276.31C647.527 276.575 647.655 276.893 647.701 277.266H646.997C646.931 277.026 646.821 276.822 646.668 276.654C646.515 276.486 646.329 276.358 646.11 276.271C645.891 276.18 645.646 276.134 645.376 276.134C645.029 276.134 644.713 276.208 644.428 276.356C644.142 276.503 643.913 276.717 643.739 276.998C643.571 277.278 643.487 277.625 643.487 278.038C643.487 278.446 643.571 278.792 643.739 279.078C643.913 279.358 644.142 279.572 644.428 279.72C644.713 279.863 645.029 279.934 645.376 279.934C645.646 279.934 645.888 279.891 646.102 279.804C646.322 279.718 646.508 279.59 646.661 279.422C646.814 279.254 646.926 279.052 646.997 278.818H647.693ZM648.454 275.553H652.805V276.21H648.454V275.553ZM650.258 276.134H651V280.516H650.258V276.134Z" fill="#B5BBC5"/>
<path d="M704.681 279.705L704.467 279.781V275.553H705.209V280.516H704.467L701.003 276.378L701.217 276.302V280.516H700.483V275.553H701.217L704.681 279.705ZM709.242 280.6C708.727 280.6 708.268 280.495 707.865 280.286C707.468 280.077 707.154 279.781 706.925 279.399C706.701 279.017 706.588 278.563 706.588 278.038C706.588 277.508 706.701 277.051 706.925 276.669C707.154 276.287 707.468 275.991 707.865 275.782C708.268 275.573 708.727 275.468 709.242 275.468C709.762 275.468 710.221 275.573 710.618 275.782C711.016 275.991 711.33 276.287 711.559 276.669C711.789 277.051 711.903 277.508 711.903 278.038C711.903 278.563 711.789 279.017 711.559 279.399C711.33 279.781 711.016 280.077 710.618 280.286C710.221 280.495 709.762 280.6 709.242 280.6ZM709.242 279.934C709.609 279.934 709.935 279.863 710.221 279.72C710.506 279.578 710.733 279.366 710.901 279.086C711.07 278.805 711.154 278.456 711.154 278.038C711.154 277.62 711.07 277.271 710.901 276.99C710.733 276.71 710.506 276.498 710.221 276.356C709.935 276.208 709.609 276.134 709.242 276.134C708.885 276.134 708.561 276.208 708.271 276.356C707.98 276.498 707.751 276.71 707.583 276.99C707.414 277.271 707.33 277.62 707.33 278.038C707.33 278.456 707.414 278.805 707.583 279.086C707.751 279.366 707.98 279.578 708.271 279.72C708.561 279.863 708.885 279.934 709.242 279.934ZM714.508 280.516L712.574 275.553H713.377L715.044 279.942H714.814L716.481 275.553H717.269L715.35 280.516H714.508Z" fill="#B5BBC5"/>
<path d="M766.471 275.553C766.986 275.553 767.417 275.619 767.764 275.751C768.115 275.879 768.396 276.057 768.605 276.287C768.819 276.516 768.972 276.779 769.064 277.074C769.156 277.37 769.201 277.684 769.201 278.015C769.201 278.341 769.15 278.655 769.048 278.956C768.952 279.256 768.794 279.524 768.574 279.759C768.36 279.993 768.08 280.179 767.733 280.317C767.386 280.449 766.966 280.516 766.471 280.516H764.483V275.553H766.471ZM765.217 279.85H766.464C766.856 279.85 767.18 279.799 767.435 279.697C767.69 279.59 767.891 279.45 768.039 279.277C768.192 279.098 768.299 278.9 768.36 278.68C768.426 278.461 768.46 278.239 768.46 278.015C768.46 277.786 768.426 277.564 768.36 277.35C768.299 277.136 768.192 276.944 768.039 276.776C767.891 276.603 767.69 276.468 767.435 276.371C767.18 276.269 766.856 276.218 766.464 276.218H765.217V279.85ZM771.313 278.367V279.858H774.509V280.516H770.578V275.553H774.502V276.21H771.313V277.724H773.92V278.367H771.313ZM780.676 278.818C780.63 279.19 780.502 279.509 780.293 279.774C780.089 280.039 779.822 280.243 779.49 280.386C779.159 280.528 778.782 280.6 778.359 280.6C777.976 280.6 777.624 280.541 777.303 280.424C776.987 280.307 776.712 280.138 776.477 279.919C776.243 279.7 776.059 279.432 775.927 279.116C775.794 278.795 775.728 278.436 775.728 278.038C775.728 277.635 775.794 277.276 775.927 276.96C776.059 276.644 776.243 276.376 776.477 276.157C776.712 275.932 776.987 275.762 777.303 275.644C777.624 275.527 777.976 275.468 778.359 275.468C778.787 275.468 779.167 275.542 779.498 275.69C779.829 275.833 780.097 276.039 780.301 276.31C780.51 276.575 780.637 276.893 780.683 277.266H779.98C779.913 277.026 779.804 276.822 779.651 276.654C779.498 276.486 779.312 276.358 779.093 276.271C778.873 276.18 778.629 276.134 778.359 276.134C778.012 276.134 777.696 276.208 777.41 276.356C777.125 276.503 776.895 276.717 776.722 276.998C776.554 277.278 776.47 277.625 776.47 278.038C776.47 278.446 776.554 278.792 776.722 279.078C776.895 279.358 777.125 279.572 777.41 279.72C777.696 279.863 778.012 279.934 778.359 279.934C778.629 279.934 778.871 279.891 779.085 279.804C779.304 279.718 779.49 279.59 779.643 279.422C779.796 279.254 779.908 279.052 779.98 278.818H780.676Z" fill="#B5BBC5"/>
<path d="M64 223C64 221.619 65.1193 220.5 66.5 220.5C67.8807 220.5 69 221.619 69 223V261.5H64V223Z" fill="#328A28"/>
<path d="M74 180C74 178.619 75.1193 177.5 76.5 177.5C77.8807 177.5 79 178.619 79 180V261.5H74V180Z" fill="#F2994A"/>
<path d="M129 197C129 195.619 130.119 194.5 131.5 194.5C132.881 194.5 134 195.619 134 197V261.5H129V197Z" fill="#328A28"/>
<path d="M139 158C139 156.619 140.119 155.5 141.5 155.5C142.881 155.5 144 156.619 144 158V261.5H139V158Z" fill="#F2994A"/>
<path d="M192 180C192 178.619 193.119 177.5 194.5 177.5C195.881 177.5 197 178.619 197 180V261.5H192V180Z" fill="#328A28"/>
<path d="M202 133C202 131.619 203.119 130.5 204.5 130.5C205.881 130.5 207 131.619 207 133V261.5H202V133Z" fill="#F2994A"/>
<path d="M259 232C259 230.619 260.119 229.5 261.5 229.5C262.881 229.5 264 230.619 264 232V261.5H259V232Z" fill="#328A28"/>
<path d="M269 213C269 211.619 270.119 210.5 271.5 210.5C272.881 210.5 274 211.619 274 213V261.5H269V213Z" fill="#F2994A"/>
<path d="M320 166.813C320 165.432 321.119 164.312 322.5 164.312C323.881 164.312 325 165.432 325 166.812V261.502H320V166.813Z" fill="#328A28"/>
<path d="M330 109C330 107.619 331.119 106.5 332.5 106.5C333.881 106.5 335 107.619 335 109V261.5H330V109Z" fill="#F2994A"/>
<path d="M386 162.422C386 161.041 387.119 159.922 388.5 159.922C389.881 159.922 391 161.041 391 162.422V261.5H386V162.422Z" fill="#328A28"/>
<path d="M396 102C396 100.619 397.119 99.5 398.5 99.5C399.881 99.5 401 100.619 401 102V261.5H396V102Z" fill="#F2994A"/>
<path d="M448 181.859C448 180.479 449.119 179.359 450.5 179.359C451.881 179.359 453 180.479 453 181.859V261.5H448V181.859Z" fill="#328A28"/>
<path d="M458 133C458 131.619 459.119 130.5 460.5 130.5C461.881 130.5 463 131.619 463 133V261.5H458V133Z" fill="#F2994A"/>
<path d="M512 169.32C512 167.94 513.119 166.82 514.5 166.82C515.881 166.82 517 167.94 517 169.32V261.501H512V169.32Z" fill="#328A28"/>
<path d="M522 113C522 111.619 523.119 110.5 524.5 110.5C525.881 110.5 527 111.619 527 113V261.5H522V113Z" fill="#F2994A"/>
<path d="M575 206.312C575 204.932 576.119 203.812 577.5 203.812C578.881 203.812 580 204.932 580 206.312V261.499H575V206.312Z" fill="#328A28"/>
<path d="M585 172C585 170.619 586.119 169.5 587.5 169.5C588.881 169.5 590 170.619 590 172V261.5H585V172Z" fill="#F2994A"/>
<path d="M635 197.531C635 196.151 636.119 195.031 637.5 195.031C638.881 195.031 640 196.151 640 197.531V261.496H635V197.531Z" fill="#328A28"/>
<path d="M645 158C645 156.619 646.119 155.5 647.5 155.5C648.881 155.5 650 156.619 650 158V261.5H645V158Z" fill="#F2994A"/>
<path d="M701 235.156C701 233.776 702.119 232.656 703.5 232.656C704.881 232.656 706 233.776 706 235.156V261.499H701V235.156Z" fill="#328A28"/>
<path d="M711 218C711 216.619 712.119 215.5 713.5 215.5C714.881 215.5 716 216.619 716 218V261.5H711V218Z" fill="#F2994A"/>
<path d="M769 181.859C769 180.479 770.119 179.359 771.5 179.359C772.881 179.359 774 180.479 774 181.859V261.5H769V181.859Z" fill="#328A28"/>
<path d="M779 133C779 131.619 780.119 130.5 781.5 130.5C782.881 130.5 784 131.619 784 133V261.5H779V133Z" fill="#F2994A"/>
<g filter="url(#filter0_d_4657_48298)">
<rect x="165" y="164.5" width="77" height="31.8621" rx="4.42529" fill="white"/>
<circle cx="175.178" cy="173.786" r="1.77011" fill="#328A28"/>
<path d="M181.851 174.617C181.67 174.617 181.506 174.59 181.359 174.536C181.215 174.481 181.091 174.403 180.987 174.302C180.884 174.201 180.805 174.078 180.75 173.934C180.696 173.787 180.669 173.626 180.669 173.449C180.669 173.267 180.698 173.103 180.757 172.957C180.816 172.808 180.9 172.681 181.009 172.574C181.117 172.466 181.246 172.383 181.395 172.327C181.543 172.27 181.707 172.242 181.887 172.242C182.087 172.242 182.263 172.276 182.414 172.344C182.568 172.413 182.69 172.509 182.782 172.635C182.874 172.757 182.929 172.904 182.945 173.074H182.637C182.607 172.965 182.557 172.872 182.489 172.794C182.42 172.716 182.335 172.656 182.234 172.613C182.132 172.571 182.016 172.55 181.887 172.55C181.71 172.55 181.556 172.589 181.426 172.666C181.297 172.742 181.195 172.848 181.122 172.985C181.049 173.12 181.012 173.274 181.012 173.449C181.012 173.621 181.044 173.772 181.108 173.902C181.174 174.029 181.269 174.13 181.395 174.203C181.522 174.274 181.675 174.309 181.855 174.309C181.994 174.309 182.116 174.285 182.219 174.238C182.326 174.189 182.412 174.12 182.478 174.033C182.546 173.943 182.594 173.836 182.619 173.711L182.797 173.69C182.761 173.994 182.66 174.225 182.492 174.383C182.324 174.539 182.111 174.617 181.851 174.617ZM182.719 174.578C182.719 174.503 182.721 174.416 182.726 174.32C182.733 174.221 182.74 174.121 182.747 174.022C182.756 173.921 182.765 173.83 182.772 173.75H181.911V173.474H183.034V174.578H182.719ZM183.651 172.812H183.991V174.578H183.651V172.812ZM184.589 173.112C184.466 173.112 184.361 173.141 184.274 173.197C184.189 173.254 184.12 173.324 184.068 173.406C184.019 173.489 183.986 173.568 183.969 173.644L183.966 173.442C183.968 173.418 183.974 173.382 183.983 173.332C183.995 173.28 184.015 173.222 184.044 173.158C184.072 173.095 184.11 173.035 184.157 172.978C184.204 172.919 184.263 172.871 184.334 172.833C184.405 172.795 184.49 172.776 184.589 172.776V173.112ZM185.925 174.617C185.753 174.617 185.595 174.58 185.451 174.507C185.307 174.434 185.193 174.329 185.108 174.192C185.023 174.055 184.98 173.891 184.98 173.7C184.98 173.507 185.023 173.341 185.108 173.205C185.193 173.065 185.307 172.959 185.451 172.886C185.595 172.813 185.753 172.776 185.925 172.776C186.098 172.776 186.255 172.813 186.396 172.886C186.538 172.959 186.651 173.065 186.736 173.205C186.821 173.341 186.864 173.507 186.864 173.7C186.864 173.891 186.821 174.055 186.736 174.192C186.651 174.329 186.538 174.434 186.396 174.507C186.255 174.58 186.098 174.617 185.925 174.617ZM185.925 174.323C186.032 174.323 186.13 174.3 186.219 174.252C186.311 174.203 186.385 174.132 186.439 174.04C186.495 173.946 186.524 173.832 186.524 173.7C186.524 173.566 186.495 173.451 186.439 173.357C186.385 173.262 186.311 173.19 186.219 173.141C186.13 173.091 186.032 173.066 185.925 173.066C185.819 173.066 185.72 173.091 185.628 173.141C185.536 173.188 185.462 173.259 185.405 173.353C185.348 173.448 185.32 173.563 185.32 173.7C185.32 173.832 185.347 173.946 185.402 174.04C185.458 174.132 185.533 174.203 185.625 174.252C185.717 174.3 185.817 174.323 185.925 174.323ZM187.318 174.005H187.63C187.642 174.099 187.684 174.177 187.757 174.238C187.831 174.297 187.933 174.327 188.065 174.327C188.15 174.327 188.216 174.317 188.264 174.298C188.311 174.277 188.344 174.249 188.363 174.213C188.384 174.178 188.395 174.139 188.395 174.097C188.395 174.042 188.38 174.001 188.352 173.973C188.324 173.942 188.284 173.917 188.232 173.898C188.18 173.877 188.118 173.857 188.048 173.838C187.97 173.817 187.892 173.792 187.814 173.764C187.736 173.736 187.664 173.701 187.598 173.661C187.534 173.621 187.482 173.572 187.442 173.513C187.405 173.451 187.386 173.377 187.386 173.289C187.386 173.216 187.401 173.148 187.432 173.084C187.465 173.02 187.511 172.966 187.57 172.921C187.631 172.874 187.702 172.839 187.782 172.815C187.862 172.789 187.951 172.776 188.048 172.776C188.182 172.776 188.295 172.801 188.388 172.85C188.48 172.898 188.549 172.965 188.596 173.052C188.646 173.14 188.672 173.24 188.674 173.353H188.377C188.36 173.254 188.326 173.182 188.274 173.137C188.222 173.09 188.144 173.066 188.041 173.066C187.939 173.066 187.861 173.087 187.807 173.127C187.753 173.167 187.726 173.221 187.726 173.289C187.726 173.341 187.744 173.384 187.782 173.417C187.82 173.448 187.871 173.475 187.934 173.498C187.998 173.522 188.07 173.547 188.15 173.573C188.226 173.599 188.298 173.626 188.366 173.654C188.437 173.68 188.5 173.712 188.554 173.75C188.611 173.785 188.654 173.832 188.685 173.891C188.718 173.948 188.734 174.019 188.734 174.104C188.734 174.208 188.709 174.298 188.657 174.376C188.605 174.452 188.529 174.511 188.43 174.553C188.333 174.596 188.215 174.617 188.076 174.617C187.949 174.617 187.84 174.602 187.75 174.571C187.663 174.54 187.589 174.5 187.527 174.451C187.468 174.401 187.422 174.349 187.389 174.295C187.359 174.238 187.337 174.184 187.325 174.132C187.316 174.08 187.314 174.038 187.318 174.005ZM189.189 174.005H189.501C189.513 174.099 189.555 174.177 189.628 174.238C189.702 174.297 189.804 174.327 189.936 174.327C190.021 174.327 190.087 174.317 190.135 174.298C190.182 174.277 190.215 174.249 190.234 174.213C190.255 174.178 190.266 174.139 190.266 174.097C190.266 174.042 190.252 174.001 190.223 173.973C190.195 173.942 190.155 173.917 190.103 173.898C190.051 173.877 189.99 173.857 189.919 173.838C189.841 173.817 189.763 173.792 189.685 173.764C189.607 173.736 189.535 173.701 189.469 173.661C189.405 173.621 189.353 173.572 189.313 173.513C189.276 173.451 189.257 173.377 189.257 173.289C189.257 173.216 189.272 173.148 189.303 173.084C189.336 173.02 189.382 172.966 189.441 172.921C189.502 172.874 189.573 172.839 189.653 172.815C189.733 172.789 189.822 172.776 189.919 172.776C190.053 172.776 190.167 172.801 190.259 172.85C190.351 172.898 190.42 172.965 190.467 173.052C190.517 173.14 190.543 173.24 190.545 173.353H190.248C190.231 173.254 190.197 173.182 190.145 173.137C190.093 173.09 190.016 173.066 189.912 173.066C189.81 173.066 189.732 173.087 189.678 173.127C189.624 173.167 189.597 173.221 189.597 173.289C189.597 173.341 189.615 173.384 189.653 173.417C189.691 173.448 189.742 173.475 189.805 173.498C189.869 173.522 189.941 173.547 190.021 173.573C190.097 173.599 190.169 173.626 190.237 173.654C190.308 173.68 190.371 173.712 190.425 173.75C190.482 173.785 190.525 173.832 190.556 173.891C190.589 173.948 190.606 174.019 190.606 174.104C190.606 174.208 190.58 174.298 190.528 174.376C190.476 174.452 190.4 174.511 190.301 174.553C190.204 174.596 190.086 174.617 189.947 174.617C189.82 174.617 189.711 174.602 189.621 174.571C189.534 174.54 189.46 174.5 189.398 174.451C189.339 174.401 189.293 174.349 189.26 174.295C189.23 174.238 189.208 174.184 189.197 174.132C189.187 174.08 189.185 174.038 189.189 174.005ZM192.093 172.812H192.433V174.578H192.093V172.812ZM193.106 172.776C193.205 172.776 193.295 172.79 193.375 172.819C193.455 172.847 193.524 172.889 193.58 172.946C193.637 173 193.68 173.069 193.711 173.151C193.744 173.232 193.761 173.324 193.761 173.428V174.578H193.424V173.502C193.424 173.363 193.39 173.259 193.322 173.19C193.256 173.12 193.154 173.084 193.017 173.084C192.911 173.084 192.814 173.109 192.727 173.158C192.64 173.208 192.568 173.274 192.511 173.357C192.457 173.437 192.424 173.528 192.412 173.629L192.408 173.435C192.42 173.34 192.445 173.253 192.483 173.173C192.523 173.092 192.572 173.023 192.631 172.964C192.693 172.902 192.764 172.856 192.844 172.826C192.924 172.793 193.011 172.776 193.106 172.776ZM194.402 172.776C194.501 172.776 194.59 172.79 194.671 172.819C194.751 172.847 194.819 172.889 194.876 172.946C194.933 173 194.976 173.069 195.007 173.151C195.04 173.232 195.056 173.324 195.056 173.428V174.578H194.72V173.502C194.72 173.363 194.686 173.259 194.617 173.19C194.551 173.12 194.45 173.084 194.313 173.084C194.207 173.084 194.11 173.109 194.023 173.158C193.935 173.208 193.863 173.274 193.807 173.357C193.752 173.437 193.719 173.528 193.708 173.629L193.704 173.431C193.716 173.337 193.741 173.251 193.778 173.173C193.819 173.092 193.869 173.023 193.931 172.964C193.992 172.902 194.063 172.856 194.143 172.826C194.223 172.793 194.309 172.776 194.402 172.776ZM196.408 174.614C196.257 174.614 196.119 174.575 195.994 174.497C195.869 174.419 195.77 174.311 195.697 174.175C195.624 174.035 195.587 173.876 195.587 173.697C195.587 173.517 195.624 173.359 195.697 173.222C195.772 173.083 195.875 172.974 196.005 172.897C196.135 172.816 196.28 172.776 196.44 172.776C196.617 172.776 196.754 172.817 196.851 172.9C196.95 172.983 197.019 173.094 197.056 173.233C197.096 173.372 197.116 173.527 197.116 173.697C197.116 173.791 197.105 173.891 197.081 173.998C197.057 174.104 197.02 174.204 196.968 174.298C196.916 174.393 196.844 174.47 196.752 174.529C196.66 174.585 196.545 174.614 196.408 174.614ZM196.504 174.32C196.629 174.32 196.734 174.293 196.819 174.238C196.906 174.182 196.971 174.106 197.014 174.012C197.056 173.917 197.078 173.812 197.078 173.697C197.078 173.572 197.055 173.462 197.01 173.367C196.968 173.273 196.903 173.2 196.816 173.148C196.731 173.096 196.627 173.07 196.504 173.07C196.32 173.07 196.177 173.129 196.076 173.247C195.977 173.365 195.927 173.515 195.927 173.697C195.927 173.819 195.952 173.928 196.001 174.022C196.051 174.114 196.118 174.188 196.203 174.242C196.29 174.294 196.391 174.32 196.504 174.32ZM197.078 172.812H197.417V174.578H197.106C197.106 174.578 197.104 174.557 197.099 174.514C197.094 174.47 197.089 174.416 197.085 174.355C197.08 174.294 197.078 174.239 197.078 174.192V172.812ZM198.038 172.812H198.378V174.578H198.038V172.812ZM198.976 173.112C198.853 173.112 198.748 173.141 198.661 173.197C198.576 173.254 198.507 173.324 198.455 173.406C198.406 173.489 198.373 173.568 198.356 173.644L198.353 173.442C198.355 173.418 198.361 173.382 198.37 173.332C198.382 173.28 198.402 173.222 198.431 173.158C198.459 173.095 198.497 173.035 198.544 172.978C198.591 172.919 198.65 172.871 198.721 172.833C198.792 172.795 198.877 172.776 198.976 172.776V173.112ZM200.171 174.302C200.025 174.302 199.89 174.272 199.767 174.213C199.645 174.154 199.547 174.068 199.473 173.955C199.403 173.842 199.367 173.705 199.367 173.544C199.367 173.386 199.403 173.251 199.473 173.137C199.544 173.022 199.64 172.933 199.76 172.872C199.883 172.808 200.02 172.776 200.171 172.776C200.216 172.776 200.258 172.78 200.298 172.787C200.338 172.791 200.377 172.8 200.415 172.812H201.187V173.13C201.081 173.13 200.973 173.112 200.865 173.077C200.759 173.042 200.665 173.004 200.585 172.964L200.574 172.946C200.655 172.989 200.724 173.04 200.783 173.102C200.842 173.161 200.887 173.228 200.918 173.304C200.951 173.377 200.967 173.459 200.967 173.551C200.967 173.707 200.932 173.842 200.861 173.955C200.793 174.068 200.697 174.154 200.574 174.213C200.454 174.272 200.32 174.302 200.171 174.302ZM200.713 175.293V175.212C200.713 175.091 200.68 175.005 200.613 174.953C200.547 174.901 200.451 174.876 200.323 174.876H199.909C199.822 174.876 199.747 174.868 199.686 174.854C199.625 174.84 199.574 174.819 199.534 174.791C199.494 174.765 199.464 174.732 199.445 174.691C199.426 174.654 199.417 174.611 199.417 174.564C199.417 174.472 199.445 174.402 199.502 174.355C199.558 174.308 199.63 174.278 199.718 174.267C199.805 174.252 199.894 174.251 199.983 174.263L200.171 174.302C200.036 174.309 199.934 174.322 199.863 174.341C199.792 174.36 199.757 174.4 199.757 174.461C199.757 174.497 199.771 174.525 199.799 174.546C199.828 174.568 199.868 174.578 199.92 174.578H200.351C200.486 174.578 200.605 174.595 200.709 174.628C200.815 174.663 200.898 174.721 200.957 174.801C201.018 174.884 201.049 174.996 201.049 175.137V175.293H200.713ZM200.171 174.015C200.256 174.015 200.333 173.998 200.401 173.962C200.472 173.924 200.528 173.871 200.571 173.803C200.613 173.732 200.635 173.647 200.635 173.548C200.635 173.446 200.613 173.36 200.571 173.289C200.531 173.216 200.475 173.162 200.405 173.127C200.334 173.089 200.256 173.07 200.171 173.07C200.086 173.07 200.007 173.089 199.934 173.127C199.863 173.162 199.806 173.215 199.764 173.286C199.721 173.357 199.7 173.444 199.7 173.548C199.7 173.647 199.721 173.732 199.764 173.803C199.806 173.871 199.863 173.924 199.934 173.962C200.005 173.998 200.084 174.015 200.171 174.015ZM202.094 172.082V172.447H201.672V172.082H202.094ZM201.715 172.812H202.051V174.578H201.715V172.812ZM202.707 172.812H203.047V174.578H202.707V172.812ZM203.72 172.776C203.819 172.776 203.908 172.79 203.989 172.819C204.069 172.847 204.137 172.889 204.194 172.946C204.251 173 204.294 173.069 204.325 173.151C204.358 173.232 204.375 173.324 204.375 173.428V174.578H204.038V173.502C204.038 173.363 204.004 173.259 203.936 173.19C203.869 173.12 203.768 173.084 203.631 173.084C203.525 173.084 203.428 173.109 203.341 173.158C203.253 173.208 203.181 173.274 203.125 173.357C203.071 173.437 203.037 173.528 203.026 173.629L203.022 173.435C203.034 173.34 203.059 173.253 203.096 173.173C203.137 173.092 203.186 173.023 203.245 172.964C203.307 172.902 203.377 172.856 203.458 172.826C203.538 172.793 203.625 172.776 203.72 172.776Z" fill="#B6B6B6"/>
<path d="M180.975 183.185H179.842V182.371H181.846V187.547H180.975V183.185ZM182.727 184.97C182.727 183.362 183.591 182.272 184.915 182.272C186.239 182.272 187.11 183.362 187.11 184.97C187.11 186.57 186.289 187.639 184.915 187.639C183.541 187.639 182.727 186.57 182.727 184.97ZM183.619 184.97C183.619 186.166 184.101 186.839 184.915 186.839C185.736 186.839 186.218 186.166 186.218 184.97C186.218 183.745 185.736 183.072 184.915 183.072C184.101 183.072 183.619 183.745 183.619 184.97ZM188.759 187.235C188.759 187.823 188.334 188.29 187.761 188.361V188.014C188.08 187.958 188.32 187.766 188.32 187.519C188.264 187.547 188.2 187.561 188.115 187.561C187.839 187.561 187.612 187.356 187.612 187.072C187.612 186.733 187.832 186.506 188.15 186.506C188.504 186.506 188.759 186.796 188.759 187.235ZM189.268 184.97C189.268 183.362 190.132 182.272 191.456 182.272C192.78 182.272 193.651 183.362 193.651 184.97C193.651 186.57 192.83 187.639 191.456 187.639C190.083 187.639 189.268 186.57 189.268 184.97ZM190.16 184.97C190.16 186.166 190.642 186.839 191.456 186.839C192.277 186.839 192.759 186.166 192.759 184.97C192.759 183.745 192.277 183.072 191.456 183.072C190.642 183.072 190.16 183.745 190.16 184.97ZM194.261 184.97C194.261 183.362 195.124 182.272 196.448 182.272C197.772 182.272 198.643 183.362 198.643 184.97C198.643 186.57 197.822 187.639 196.448 187.639C195.075 187.639 194.261 186.57 194.261 184.97ZM195.153 184.97C195.153 186.166 195.634 186.839 196.448 186.839C197.27 186.839 197.751 186.166 197.751 184.97C197.751 183.745 197.27 183.072 196.448 183.072C195.634 183.072 195.153 183.745 195.153 184.97ZM199.253 184.97C199.253 183.362 200.117 182.272 201.441 182.272C202.765 182.272 203.636 183.362 203.636 184.97C203.636 186.57 202.814 187.639 201.441 187.639C200.067 187.639 199.253 186.57 199.253 184.97ZM200.145 184.97C200.145 186.166 200.626 186.839 201.441 186.839C202.262 186.839 202.743 186.166 202.743 184.97C202.743 183.745 202.262 183.072 201.441 183.072C200.626 183.072 200.145 183.745 200.145 184.97Z" fill="#020518"/>
<path d="M173.406 184.271H173.959V182.648H174.513L175.458 184.271H176.725V182.648H177.278V184.271H177.832V184.812H177.278V185.353H177.832V185.894H177.278V187.516H176.725L175.777 185.894H174.513V187.516H173.959V185.894H173.406V185.353H173.959V184.812H173.406V184.271ZM174.513 184.271H174.825L174.513 183.738V184.271ZM174.513 184.812V185.353H175.458L175.143 184.812H174.513ZM176.725 186.435V185.894H176.407L176.725 186.435ZM175.774 184.812L176.092 185.353H176.725V184.812H175.774Z" fill="#020518"/>
<rect x="215.059" y="182.203" width="15.9587" height="5.33247" rx="1.33312" fill="#EDFEED"/>
<path d="M219.954 185.573H219.416V186.14H219.204V185.573H218.67V185.376H219.204V184.812H219.416V185.376H219.954V185.573ZM221.399 186.123C221.427 186.123 221.45 186.131 221.466 186.148C221.482 186.164 221.49 186.185 221.49 186.212V186.369H220.204V186.28C220.204 186.262 220.208 186.243 220.215 186.224C220.222 186.203 220.234 186.185 220.251 186.169L220.856 185.563C220.907 185.512 220.953 185.463 220.994 185.416C221.035 185.369 221.069 185.322 221.098 185.276C221.126 185.229 221.148 185.181 221.163 185.132C221.179 185.083 221.187 185.032 221.187 184.977C221.187 184.924 221.179 184.877 221.162 184.837C221.145 184.797 221.122 184.763 221.092 184.736C221.063 184.709 221.028 184.689 220.988 184.676C220.948 184.663 220.905 184.656 220.859 184.656C220.813 184.656 220.77 184.663 220.731 184.676C220.693 184.689 220.659 184.708 220.628 184.732C220.598 184.756 220.573 184.785 220.552 184.817C220.532 184.85 220.517 184.886 220.508 184.924C220.496 184.958 220.48 184.98 220.46 184.992C220.442 185.004 220.414 185.006 220.378 185L220.242 184.976C220.254 184.887 220.279 184.809 220.315 184.741C220.352 184.674 220.397 184.617 220.452 184.572C220.508 184.526 220.571 184.491 220.642 184.468C220.714 184.445 220.791 184.433 220.874 184.433C220.957 184.433 221.034 184.446 221.104 184.471C221.175 184.495 221.237 184.53 221.288 184.576C221.34 184.622 221.38 184.679 221.41 184.745C221.439 184.811 221.454 184.886 221.454 184.969C221.454 185.04 221.443 185.107 221.422 185.168C221.401 185.228 221.373 185.286 221.336 185.341C221.301 185.396 221.259 185.45 221.211 185.503C221.164 185.554 221.114 185.607 221.06 185.66L220.575 186.156C220.612 186.146 220.65 186.138 220.687 186.132C220.725 186.126 220.761 186.123 220.795 186.123H221.399ZM221.771 186.213C221.771 186.189 221.776 186.167 221.784 186.145C221.793 186.124 221.805 186.105 221.82 186.089C221.836 186.073 221.855 186.061 221.876 186.052C221.898 186.042 221.921 186.037 221.946 186.037C221.97 186.037 221.992 186.042 222.014 186.052C222.035 186.061 222.054 186.073 222.07 186.089C222.086 186.105 222.098 186.124 222.107 186.145C222.117 186.167 222.122 186.189 222.122 186.213C222.122 186.238 222.117 186.261 222.107 186.282C222.098 186.304 222.086 186.322 222.07 186.338C222.054 186.354 222.035 186.367 222.014 186.376C221.992 186.385 221.97 186.389 221.946 186.389C221.921 186.389 221.898 186.385 221.876 186.376C221.855 186.367 221.836 186.354 221.82 186.338C221.805 186.322 221.793 186.304 221.784 186.282C221.776 186.261 221.771 186.238 221.771 186.213ZM223.229 185.671V184.924C223.229 184.898 223.229 184.871 223.23 184.843C223.232 184.813 223.235 184.783 223.24 184.752L222.569 185.671H223.229ZM223.734 185.671V185.821C223.734 185.836 223.729 185.849 223.72 185.86C223.71 185.871 223.696 185.876 223.678 185.876H223.457V186.369H223.229V185.876H222.389C222.37 185.876 222.353 185.871 222.34 185.86C222.327 185.848 222.318 185.834 222.313 185.817L222.287 185.684L223.212 184.453H223.457V185.671H223.734ZM223.973 184.976C223.986 184.887 224.011 184.809 224.048 184.741C224.084 184.674 224.13 184.617 224.185 184.572C224.24 184.526 224.303 184.491 224.374 184.468C224.446 184.445 224.524 184.433 224.606 184.433C224.689 184.433 224.765 184.445 224.834 184.469C224.904 184.493 224.963 184.526 225.012 184.569C225.061 184.612 225.1 184.664 225.128 184.724C225.155 184.785 225.169 184.851 225.169 184.924C225.169 184.985 225.161 185.04 225.146 185.087C225.131 185.134 225.109 185.175 225.081 185.211C225.053 185.246 225.02 185.276 224.98 185.301C224.94 185.325 224.895 185.345 224.845 185.361C224.967 185.395 225.058 185.45 225.12 185.527C225.181 185.602 225.212 185.698 225.212 185.815C225.212 185.904 225.195 185.985 225.161 186.057C225.127 186.128 225.081 186.189 225.022 186.238C224.964 186.287 224.895 186.325 224.817 186.352C224.74 186.378 224.657 186.39 224.569 186.39C224.469 186.39 224.382 186.378 224.31 186.354C224.238 186.33 224.177 186.295 224.126 186.252C224.076 186.207 224.034 186.155 224 186.093C223.967 186.031 223.939 185.963 223.916 185.889L224.029 185.841C224.058 185.829 224.087 185.825 224.114 185.831C224.142 185.836 224.162 185.851 224.174 185.877C224.188 185.904 224.203 185.934 224.22 185.968C224.238 186.001 224.261 186.032 224.29 186.063C224.32 186.092 224.356 186.117 224.4 186.137C224.444 186.158 224.5 186.168 224.566 186.168C224.63 186.168 224.686 186.158 224.734 186.137C224.782 186.116 224.822 186.089 224.854 186.056C224.886 186.022 224.91 185.985 224.926 185.944C224.942 185.903 224.95 185.863 224.95 185.823C224.95 185.773 224.944 185.727 224.932 185.685C224.919 185.643 224.895 185.608 224.86 185.579C224.825 185.548 224.777 185.525 224.714 185.508C224.652 185.491 224.571 185.483 224.472 185.483V185.293C224.553 185.292 224.622 185.284 224.678 185.268C224.735 185.252 224.781 185.23 224.816 185.201C224.85 185.173 224.875 185.139 224.89 185.1C224.906 185.061 224.914 185.017 224.914 184.969C224.914 184.917 224.906 184.871 224.89 184.832C224.874 184.793 224.852 184.761 224.822 184.735C224.794 184.708 224.76 184.689 224.72 184.676C224.681 184.663 224.638 184.656 224.592 184.656C224.545 184.656 224.503 184.663 224.464 184.676C224.425 184.689 224.39 184.708 224.36 184.732C224.33 184.756 224.304 184.785 224.284 184.817C224.263 184.85 224.249 184.886 224.24 184.924C224.227 184.958 224.211 184.98 224.192 184.992C224.173 185.004 224.146 185.006 224.11 185L223.973 184.976ZM226.325 184.917C226.325 184.992 226.313 185.059 226.289 185.117C226.266 185.176 226.235 185.226 226.196 185.267C226.157 185.307 226.111 185.338 226.058 185.36C226.007 185.381 225.953 185.392 225.896 185.392C225.834 185.392 225.777 185.381 225.725 185.36C225.674 185.338 225.629 185.307 225.59 185.267C225.552 185.226 225.522 185.176 225.5 185.117C225.478 185.059 225.468 184.992 225.468 184.917C225.468 184.841 225.478 184.773 225.5 184.713C225.522 184.654 225.552 184.604 225.59 184.563C225.629 184.521 225.674 184.489 225.725 184.468C225.777 184.446 225.834 184.435 225.896 184.435C225.957 184.435 226.013 184.446 226.065 184.468C226.117 184.489 226.163 184.521 226.201 184.563C226.24 184.604 226.27 184.654 226.292 184.713C226.314 184.773 226.325 184.841 226.325 184.917ZM226.122 184.917C226.122 184.86 226.116 184.813 226.104 184.773C226.092 184.733 226.076 184.701 226.056 184.677C226.035 184.653 226.011 184.635 225.984 184.624C225.956 184.613 225.927 184.607 225.896 184.607C225.865 184.607 225.835 184.613 225.808 184.624C225.78 184.635 225.756 184.653 225.736 184.677C225.716 184.701 225.701 184.733 225.689 184.773C225.678 184.813 225.672 184.86 225.672 184.917C225.672 184.972 225.678 185.02 225.689 185.059C225.701 185.097 225.716 185.128 225.736 185.152C225.756 185.176 225.78 185.193 225.808 185.204C225.835 185.215 225.865 185.22 225.896 185.22C225.927 185.22 225.956 185.215 225.984 185.204C226.011 185.193 226.035 185.176 226.056 185.152C226.076 185.128 226.092 185.097 226.104 185.059C226.116 185.02 226.122 184.972 226.122 184.917ZM226.992 184.497C227.001 184.486 227.012 184.476 227.025 184.468C227.038 184.459 227.056 184.455 227.08 184.455H227.267L225.862 186.328C225.853 186.34 225.841 186.35 225.828 186.358C225.814 186.366 225.798 186.369 225.78 186.369H225.586L226.992 184.497ZM227.39 185.917C227.39 185.992 227.378 186.059 227.354 186.117C227.331 186.176 227.3 186.226 227.261 186.266C227.222 186.306 227.176 186.338 227.123 186.36C227.072 186.381 227.018 186.392 226.961 186.392C226.9 186.392 226.843 186.381 226.79 186.36C226.739 186.338 226.694 186.306 226.656 186.266C226.617 186.226 226.587 186.176 226.565 186.117C226.544 186.059 226.533 185.992 226.533 185.917C226.533 185.841 226.544 185.773 226.565 185.713C226.587 185.654 226.617 185.603 226.656 185.563C226.694 185.521 226.739 185.489 226.79 185.468C226.843 185.447 226.9 185.436 226.961 185.436C227.022 185.436 227.079 185.447 227.13 185.468C227.183 185.489 227.228 185.521 227.266 185.563C227.305 185.603 227.335 185.654 227.357 185.713C227.379 185.773 227.39 185.841 227.39 185.917ZM227.187 185.917C227.187 185.86 227.181 185.812 227.169 185.773C227.157 185.734 227.141 185.703 227.121 185.679C227.1 185.654 227.076 185.636 227.049 185.625C227.021 185.614 226.992 185.608 226.961 185.608C226.929 185.608 226.899 185.614 226.872 185.625C226.845 185.636 226.821 185.654 226.801 185.679C226.781 185.703 226.766 185.734 226.754 185.773C226.743 185.812 226.737 185.86 226.737 185.917C226.737 185.973 226.743 186.02 226.754 186.059C226.766 186.097 226.781 186.128 226.801 186.152C226.821 186.176 226.845 186.193 226.872 186.204C226.899 186.214 226.929 186.22 226.961 186.22C226.992 186.22 227.021 186.214 227.049 186.204C227.076 186.193 227.1 186.176 227.121 186.152C227.141 186.128 227.157 186.097 227.169 186.059C227.181 186.02 227.187 185.973 227.187 185.917Z" fill="#228B22"/>
<path d="M204.327 200.563C204.157 200.858 203.731 200.858 203.561 200.563L201.261 196.58C201.091 196.285 201.304 195.916 201.645 195.916H206.244C206.584 195.916 206.797 196.285 206.627 196.58L204.327 200.563Z" fill="white"/>
</g>
<path d="M36.441 262.251C36.441 260.235 37.485 258.867 39.123 258.867C40.752 258.867 41.796 260.235 41.796 262.251C41.796 264.276 40.797 265.617 39.123 265.617C37.44 265.617 36.441 264.276 36.441 262.251ZM37.314 262.251C37.314 263.853 37.98 264.825 39.123 264.825C40.266 264.825 40.923 263.853 40.923 262.251C40.923 260.631 40.266 259.659 39.123 259.659C37.98 259.659 37.314 260.631 37.314 262.251Z" fill="#B5BBC5"/>
<path d="M37.309 234.055H36.245V233.439H37.967V238.5H37.309V234.055ZM39.2428 235.973C39.2428 234.405 40.0548 233.341 41.3288 233.341C42.5958 233.341 43.4078 234.405 43.4078 235.973C43.4078 237.548 42.6308 238.591 41.3288 238.591C40.0198 238.591 39.2428 237.548 39.2428 235.973ZM39.9218 235.973C39.9218 237.219 40.4398 237.975 41.3288 237.975C42.2178 237.975 42.7288 237.219 42.7288 235.973C42.7288 234.713 42.2178 233.957 41.3288 233.957C40.4398 233.957 39.9218 234.713 39.9218 235.973ZM45.2513 238.5H44.5933V233.348H45.2513V236.687L46.7703 235.077H47.5963L46.2873 236.442L47.5893 238.5H46.8333L45.8323 236.918L45.2513 237.527V238.5Z" fill="#B5BBC5"/>
<path d="M39.738 216.493L36.322 216.5V215.975L37.953 214.568C38.772 213.861 39.003 213.518 39.003 212.979C39.003 212.342 38.639 211.964 38.03 211.964C37.407 211.964 37.001 212.419 36.987 213.14H36.301C36.322 212.055 37.008 211.348 38.037 211.348C39.052 211.348 39.703 211.964 39.703 212.937C39.703 213.658 39.346 214.169 38.45 214.946L37.4 215.856H39.738V216.493ZM40.7194 213.973C40.7194 212.405 41.5314 211.341 42.8054 211.341C44.0724 211.341 44.8844 212.405 44.8844 213.973C44.8844 215.548 44.1074 216.591 42.8054 216.591C41.4964 216.591 40.7194 215.548 40.7194 213.973ZM41.3984 213.973C41.3984 215.219 41.9164 215.975 42.8054 215.975C43.6944 215.975 44.2054 215.219 44.2054 213.973C44.2054 212.713 43.6944 211.957 42.8054 211.957C41.9164 211.957 41.3984 212.713 41.3984 213.973ZM46.7279 216.5H46.0699V211.348H46.7279V214.687L48.2469 213.077H49.0729L47.7639 214.442L49.0659 216.5H48.3099L47.3089 214.918L46.7279 215.527V216.5Z" fill="#B5BBC5"/>
<path d="M37.792 190.882H37.288V190.427L38.723 189.048H36.448V188.439H39.591V188.992L38.205 190.315C39.066 190.42 39.717 191.001 39.717 191.911C39.717 192.933 38.947 193.584 37.918 193.584C36.924 193.584 36.21 192.975 36.21 191.925H36.889C36.889 192.583 37.295 192.968 37.932 192.968C38.59 192.968 39.017 192.548 39.017 191.897C39.017 191.288 38.597 190.882 37.792 190.882ZM40.6715 190.973C40.6715 189.405 41.4835 188.341 42.7575 188.341C44.0245 188.341 44.8365 189.405 44.8365 190.973C44.8365 192.548 44.0595 193.591 42.7575 193.591C41.4485 193.591 40.6715 192.548 40.6715 190.973ZM41.3505 190.973C41.3505 192.219 41.8685 192.975 42.7575 192.975C43.6465 192.975 44.1575 192.219 44.1575 190.973C44.1575 189.713 43.6465 188.957 42.7575 188.957C41.8685 188.957 41.3505 189.713 41.3505 190.973ZM46.68 193.5H46.022V188.348H46.68V191.687L48.199 190.077H49.025L47.716 191.442L49.018 193.5H48.262L47.261 191.918L46.68 192.527V193.5Z" fill="#B5BBC5"/>
<path d="M40.116 169.478H39.514V170.5H38.856V169.478H36.238V168.869L38.625 165.439H39.514V168.869H40.116V169.478ZM36.98 168.869H38.856V166.167L36.98 168.869ZM41.1432 167.973C41.1432 166.405 41.9552 165.341 43.2292 165.341C44.4962 165.341 45.3082 166.405 45.3082 167.973C45.3082 169.548 44.5312 170.591 43.2292 170.591C41.9202 170.591 41.1432 169.548 41.1432 167.973ZM41.8222 167.973C41.8222 169.219 42.3402 169.975 43.2292 169.975C44.1182 169.975 44.6292 169.219 44.6292 167.973C44.6292 166.713 44.1182 165.957 43.2292 165.957C42.3402 165.957 41.8222 166.713 41.8222 167.973ZM47.1517 170.5H46.4937V165.348H47.1517V168.687L48.6707 167.077H49.4967L48.1877 168.442L49.4897 170.5H48.7337L47.7327 168.918L47.1517 169.527V170.5Z" fill="#B5BBC5"/>
<path d="M38.044 146.584C37.008 146.584 36.336 145.926 36.336 144.918H37.015C37.015 145.569 37.414 145.968 38.058 145.968C38.744 145.968 39.185 145.513 39.185 144.827C39.185 144.176 38.772 143.693 38.065 143.693C37.638 143.693 37.246 143.896 37.015 144.183L36.434 144.036L37.05 141.439H39.584V142.069H37.547L37.211 143.413C37.477 143.21 37.813 143.105 38.191 143.105C39.22 143.105 39.885 143.826 39.885 144.799C39.885 145.849 39.136 146.584 38.044 146.584ZM40.8287 143.973C40.8287 142.405 41.6407 141.341 42.9147 141.341C44.1817 141.341 44.9937 142.405 44.9937 143.973C44.9937 145.548 44.2167 146.591 42.9147 146.591C41.6057 146.591 40.8287 145.548 40.8287 143.973ZM41.5077 143.973C41.5077 145.219 42.0257 145.975 42.9147 145.975C43.8037 145.975 44.3147 145.219 44.3147 143.973C44.3147 142.713 43.8037 141.957 42.9147 141.957C42.0257 141.957 41.5077 142.713 41.5077 143.973ZM46.8373 146.5H46.1793V141.348H46.8373V144.687L48.3563 143.077H49.1823L47.8733 144.442L49.1753 146.5H48.4193L47.4183 144.918L46.8373 145.527V146.5Z" fill="#B5BBC5"/>
<path d="M36.987 121.042L38.17 119.439H38.968L37.701 121.119C37.876 121.049 38.058 121.014 38.233 121.014C39.283 121.014 39.99 121.77 39.99 122.771C39.99 123.828 39.192 124.584 38.149 124.584C37.099 124.584 36.287 123.793 36.287 122.771C36.287 122.169 36.469 121.749 36.987 121.042ZM36.987 122.778C36.987 123.471 37.463 123.968 38.149 123.968C38.821 123.968 39.297 123.471 39.297 122.778C39.297 122.085 38.821 121.595 38.149 121.595C37.463 121.595 36.987 122.085 36.987 122.778ZM40.9723 121.973C40.9723 120.405 41.7843 119.341 43.0583 119.341C44.3253 119.341 45.1373 120.405 45.1373 121.973C45.1373 123.548 44.3603 124.591 43.0583 124.591C41.7493 124.591 40.9723 123.548 40.9723 121.973ZM41.6513 121.973C41.6513 123.219 42.1693 123.975 43.0583 123.975C43.9473 123.975 44.4583 123.219 44.4583 121.973C44.4583 120.713 43.9473 119.957 43.0583 119.957C42.1693 119.957 41.6513 120.713 41.6513 121.973ZM46.9808 124.5H46.3228V119.348H46.9808V122.687L48.4998 121.077H49.3258L48.0168 122.442L49.3188 124.5H48.5628L47.5618 122.918L46.9808 123.527V124.5Z" fill="#B5BBC5"/>
<path d="M36.056 96.439H39.591V97.069L37.673 101.5H36.959L38.898 97.069H36.056V96.439ZM40.2203 98.973C40.2203 97.405 41.0323 96.341 42.3063 96.341C43.5733 96.341 44.3853 97.405 44.3853 98.973C44.3853 100.548 43.6083 101.591 42.3063 101.591C40.9973 101.591 40.2203 100.548 40.2203 98.973ZM40.8993 98.973C40.8993 100.219 41.4173 100.975 42.3063 100.975C43.1953 100.975 43.7063 100.219 43.7063 98.973C43.7063 97.713 43.1953 96.957 42.3063 96.957C41.4173 96.957 40.8993 97.713 40.8993 98.973ZM46.2289 101.5H45.5709V96.348H46.2289V99.687L47.7479 98.077H48.5739L47.2649 99.442L48.5669 101.5H47.8109L46.8099 99.918L46.2289 100.527V101.5Z" fill="#B5BBC5"/>
<path d="M36.329 77.093C36.329 76.484 36.686 75.994 37.246 75.791C36.77 75.588 36.511 75.189 36.511 74.678C36.511 73.887 37.19 73.348 38.198 73.348C39.192 73.348 39.864 73.887 39.864 74.685C39.864 75.203 39.598 75.602 39.122 75.791C39.689 75.973 40.053 76.477 40.053 77.1C40.053 77.989 39.311 78.584 38.191 78.584C37.064 78.584 36.329 77.989 36.329 77.093ZM37.141 74.72C37.141 75.217 37.554 75.539 38.184 75.539C38.821 75.539 39.22 75.224 39.22 74.734C39.22 74.251 38.821 73.943 38.184 73.943C37.554 73.943 37.141 74.251 37.141 74.72ZM37.001 77.044C37.001 77.611 37.47 77.975 38.191 77.975C38.905 77.975 39.374 77.611 39.374 77.044C39.374 76.484 38.912 76.127 38.184 76.127C37.463 76.127 37.001 76.484 37.001 77.044ZM41.068 75.973C41.068 74.405 41.88 73.341 43.154 73.341C44.421 73.341 45.233 74.405 45.233 75.973C45.233 77.548 44.456 78.591 43.154 78.591C41.845 78.591 41.068 77.548 41.068 75.973ZM41.747 75.973C41.747 77.219 42.265 77.975 43.154 77.975C44.043 77.975 44.554 77.219 44.554 75.973C44.554 74.713 44.043 73.957 43.154 73.957C42.265 73.957 41.747 74.713 41.747 75.973ZM47.0765 78.5H46.4185V73.348H47.0765V76.687L48.5955 75.077H49.4215L48.1125 76.442L49.4145 78.5H48.6585L47.6575 76.918L47.0765 77.527V78.5Z" fill="#B5BBC5"/>
<path d="M358.225 34.957V38.898H360.899V39.5H357.553V34.957H358.225ZM363.236 39.577C362.896 39.577 362.583 39.5047 362.298 39.36C362.014 39.2153 361.787 39.0077 361.619 38.737C361.451 38.4663 361.367 38.142 361.367 37.764C361.367 37.3813 361.451 37.0547 361.619 36.784C361.787 36.5087 362.014 36.2987 362.298 36.154C362.583 36.0093 362.896 35.937 363.236 35.937C363.577 35.937 363.887 36.0093 364.167 36.154C364.447 36.2987 364.671 36.5087 364.839 36.784C365.007 37.0547 365.091 37.3813 365.091 37.764C365.091 38.142 365.007 38.4663 364.839 38.737C364.671 39.0077 364.447 39.2153 364.167 39.36C363.887 39.5047 363.577 39.577 363.236 39.577ZM363.236 38.996C363.446 38.996 363.64 38.9493 363.817 38.856C363.999 38.758 364.144 38.618 364.251 38.436C364.363 38.2493 364.419 38.0253 364.419 37.764C364.419 37.498 364.363 37.2717 364.251 37.085C364.144 36.8983 363.999 36.756 363.817 36.658C363.64 36.56 363.446 36.511 363.236 36.511C363.026 36.511 362.83 36.56 362.648 36.658C362.466 36.7513 362.319 36.8913 362.207 37.078C362.095 37.2647 362.039 37.4933 362.039 37.764C362.039 38.0253 362.093 38.2493 362.2 38.436C362.312 38.618 362.459 38.758 362.641 38.856C362.823 38.9493 363.022 38.996 363.236 38.996ZM367.237 39.57C366.938 39.57 366.665 39.493 366.418 39.339C366.17 39.185 365.974 38.9727 365.83 38.702C365.685 38.4267 365.613 38.1117 365.613 37.757C365.613 37.4023 365.685 37.0897 365.83 36.819C365.979 36.5437 366.182 36.329 366.439 36.175C366.695 36.0163 366.982 35.937 367.3 35.937C367.65 35.937 367.92 36.0187 368.112 36.182C368.308 36.3453 368.443 36.5647 368.518 36.84C368.597 37.1153 368.637 37.421 368.637 37.757C368.637 37.9437 368.613 38.142 368.567 38.352C368.52 38.562 368.445 38.7603 368.343 38.947C368.24 39.1337 368.098 39.2853 367.916 39.402C367.734 39.514 367.507 39.57 367.237 39.57ZM367.426 38.989C367.673 38.989 367.881 38.9353 368.049 38.828C368.221 38.716 368.35 38.5667 368.434 38.38C368.518 38.1933 368.56 37.9857 368.56 37.757C368.56 37.5097 368.515 37.2927 368.427 37.106C368.343 36.9193 368.214 36.7747 368.042 36.672C367.874 36.5693 367.668 36.518 367.426 36.518C367.062 36.518 366.779 36.6347 366.579 36.868C366.383 37.1013 366.285 37.3977 366.285 37.757C366.285 37.9997 366.334 38.2143 366.432 38.401C366.53 38.583 366.663 38.7277 366.831 38.835C367.003 38.9377 367.202 38.989 367.426 38.989ZM368.56 36.007H369.232V39.5H368.616C368.616 39.5 368.611 39.458 368.602 39.374C368.592 39.2853 368.583 39.1803 368.574 39.059C368.564 38.9377 368.56 38.8303 368.56 38.737V36.007ZM370.108 36.007H370.78V39.5H370.108V36.007ZM372.11 35.937C372.306 35.937 372.483 35.965 372.642 36.021C372.801 36.077 372.936 36.161 373.048 36.273C373.16 36.3803 373.246 36.5157 373.307 36.679C373.372 36.8377 373.405 37.0197 373.405 37.225V39.5H372.74V37.372C372.74 37.0967 372.672 36.8913 372.537 36.756C372.406 36.616 372.206 36.546 371.935 36.546C371.725 36.546 371.534 36.595 371.361 36.693C371.188 36.791 371.046 36.9217 370.934 37.085C370.827 37.2437 370.761 37.4233 370.738 37.624L370.731 37.239C370.754 37.0523 370.803 36.8797 370.878 36.721C370.957 36.5623 371.055 36.4247 371.172 36.308C371.293 36.1867 371.433 36.0957 371.592 36.035C371.751 35.9697 371.923 35.937 372.11 35.937ZM375.823 36.007H376.495V39.5H375.823V36.007ZM377.678 36.602C377.435 36.602 377.228 36.658 377.055 36.77C376.887 36.882 376.752 37.0197 376.649 37.183C376.551 37.3463 376.486 37.5027 376.453 37.652L376.446 37.253C376.451 37.2063 376.462 37.134 376.481 37.036C376.504 36.9333 376.544 36.819 376.6 36.693C376.656 36.567 376.731 36.448 376.824 36.336C376.917 36.2193 377.034 36.1237 377.174 36.049C377.314 35.9743 377.482 35.937 377.678 35.937V36.602ZM380.979 38.366H381.616C381.578 38.5947 381.49 38.8 381.35 38.982C381.21 39.164 381.025 39.3087 380.797 39.416C380.568 39.5233 380.3 39.577 379.992 39.577C379.628 39.577 379.303 39.5 379.019 39.346C378.734 39.192 378.51 38.9797 378.347 38.709C378.183 38.4383 378.102 38.1233 378.102 37.764C378.102 37.4 378.181 37.0827 378.34 36.812C378.498 36.5367 378.718 36.322 378.998 36.168C379.278 36.014 379.597 35.937 379.957 35.937C380.335 35.937 380.652 36.0117 380.909 36.161C381.165 36.3103 381.354 36.532 381.476 36.826C381.602 37.1153 381.653 37.477 381.63 37.911H378.767C378.79 38.121 378.853 38.3077 378.956 38.471C379.063 38.6343 379.203 38.7627 379.376 38.856C379.553 38.9493 379.756 38.996 379.985 38.996C380.241 38.996 380.456 38.9377 380.629 38.821C380.801 38.7043 380.918 38.5527 380.979 38.366ZM379.964 36.511C379.66 36.511 379.408 36.5927 379.208 36.756C379.007 36.9147 378.874 37.127 378.809 37.393H380.958C380.939 37.1083 380.836 36.8913 380.65 36.742C380.463 36.588 380.234 36.511 379.964 36.511ZM382.407 34.607H383.079V39.5H382.407V34.607ZM386.735 38.366H387.372C387.334 38.5947 387.246 38.8 387.106 38.982C386.966 39.164 386.781 39.3087 386.553 39.416C386.324 39.5233 386.056 39.577 385.748 39.577C385.384 39.577 385.059 39.5 384.775 39.346C384.49 39.192 384.266 38.9797 384.103 38.709C383.939 38.4383 383.858 38.1233 383.858 37.764C383.858 37.4 383.937 37.0827 384.096 36.812C384.254 36.5367 384.474 36.322 384.754 36.168C385.034 36.014 385.353 35.937 385.713 35.937C386.091 35.937 386.408 36.0117 386.665 36.161C386.921 36.3103 387.11 36.532 387.232 36.826C387.358 37.1153 387.409 37.477 387.386 37.911H384.523C384.546 38.121 384.609 38.3077 384.712 38.471C384.819 38.6343 384.959 38.7627 385.132 38.856C385.309 38.9493 385.512 38.996 385.741 38.996C385.997 38.996 386.212 38.9377 386.385 38.821C386.557 38.7043 386.674 38.5527 386.735 38.366ZM385.72 36.511C385.416 36.511 385.164 36.5927 384.964 36.756C384.763 36.9147 384.63 37.127 384.565 37.393H386.714C386.695 37.1083 386.592 36.8913 386.406 36.742C386.219 36.588 385.99 36.511 385.72 36.511ZM389.535 39.57C389.237 39.57 388.964 39.493 388.716 39.339C388.469 39.185 388.273 38.9727 388.128 38.702C387.984 38.4267 387.911 38.1117 387.911 37.757C387.911 37.4023 387.984 37.0897 388.128 36.819C388.278 36.5437 388.481 36.329 388.737 36.175C388.994 36.0163 389.281 35.937 389.598 35.937C389.948 35.937 390.219 36.0187 390.41 36.182C390.606 36.3453 390.742 36.5647 390.816 36.84C390.896 37.1153 390.935 37.421 390.935 37.757C390.935 37.9437 390.912 38.142 390.865 38.352C390.819 38.562 390.744 38.7603 390.641 38.947C390.539 39.1337 390.396 39.2853 390.214 39.402C390.032 39.514 389.806 39.57 389.535 39.57ZM389.724 38.989C389.972 38.989 390.179 38.9353 390.347 38.828C390.52 38.716 390.648 38.5667 390.732 38.38C390.816 38.1933 390.858 37.9857 390.858 37.757C390.858 37.5097 390.814 37.2927 390.725 37.106C390.641 36.9193 390.513 36.7747 390.34 36.672C390.172 36.5693 389.967 36.518 389.724 36.518C389.36 36.518 389.078 36.6347 388.877 36.868C388.681 37.1013 388.583 37.3977 388.583 37.757C388.583 37.9997 388.632 38.2143 388.73 38.401C388.828 38.583 388.961 38.7277 389.129 38.835C389.302 38.9377 389.5 38.989 389.724 38.989ZM390.858 36.007H391.53V39.5H390.914C390.914 39.5 390.91 39.458 390.9 39.374C390.891 39.2853 390.882 39.1803 390.872 39.059C390.863 38.9377 390.858 38.8303 390.858 38.737V36.007ZM392.253 38.366H392.869C392.892 38.5527 392.976 38.7067 393.121 38.828C393.265 38.9447 393.468 39.003 393.73 39.003C393.898 39.003 394.028 38.9843 394.122 38.947C394.215 38.905 394.28 38.849 394.318 38.779C394.36 38.709 394.381 38.632 394.381 38.548C394.381 38.4407 394.353 38.359 394.297 38.303C394.241 38.2423 394.161 38.1933 394.059 38.156C393.956 38.114 393.835 38.0743 393.695 38.037C393.541 37.995 393.387 37.946 393.233 37.89C393.079 37.834 392.936 37.7663 392.806 37.687C392.68 37.6077 392.577 37.5097 392.498 37.393C392.423 37.2717 392.386 37.1247 392.386 36.952C392.386 36.8073 392.416 36.672 392.477 36.546C392.542 36.42 392.633 36.3127 392.75 36.224C392.871 36.1307 393.011 36.0607 393.17 36.014C393.328 35.9627 393.503 35.937 393.695 35.937C393.961 35.937 394.185 35.986 394.367 36.084C394.549 36.1773 394.686 36.3103 394.78 36.483C394.878 36.6557 394.929 36.854 394.934 37.078H394.346C394.313 36.882 394.245 36.7397 394.143 36.651C394.04 36.5577 393.886 36.511 393.681 36.511C393.48 36.511 393.326 36.5507 393.219 36.63C393.111 36.7093 393.058 36.8167 393.058 36.952C393.058 37.0547 393.095 37.1387 393.17 37.204C393.244 37.2647 393.345 37.3183 393.471 37.365C393.597 37.4117 393.739 37.4607 393.898 37.512C394.047 37.5633 394.189 37.617 394.325 37.673C394.465 37.7243 394.588 37.7873 394.696 37.862C394.808 37.932 394.894 38.0253 394.955 38.142C395.02 38.254 395.053 38.394 395.053 38.562C395.053 38.7673 395.001 38.947 394.899 39.101C394.796 39.2503 394.647 39.367 394.451 39.451C394.259 39.535 394.026 39.577 393.751 39.577C393.499 39.577 393.284 39.5467 393.107 39.486C392.934 39.4253 392.787 39.346 392.666 39.248C392.549 39.15 392.458 39.0473 392.393 38.94C392.332 38.828 392.29 38.7207 392.267 38.618C392.248 38.5153 392.243 38.4313 392.253 38.366ZM398.451 38.366H399.088C399.051 38.5947 398.962 38.8 398.822 38.982C398.682 39.164 398.498 39.3087 398.269 39.416C398.041 39.5233 397.772 39.577 397.464 39.577C397.1 39.577 396.776 39.5 396.491 39.346C396.207 39.192 395.983 38.9797 395.819 38.709C395.656 38.4383 395.574 38.1233 395.574 37.764C395.574 37.4 395.654 37.0827 395.812 36.812C395.971 36.5367 396.19 36.322 396.47 36.168C396.75 36.014 397.07 35.937 397.429 35.937C397.807 35.937 398.125 36.0117 398.381 36.161C398.638 36.3103 398.827 36.532 398.948 36.826C399.074 37.1153 399.126 37.477 399.102 37.911H396.239C396.263 38.121 396.326 38.3077 396.428 38.471C396.536 38.6343 396.676 38.7627 396.848 38.856C397.026 38.9493 397.229 38.996 397.457 38.996C397.714 38.996 397.929 38.9377 398.101 38.821C398.274 38.7043 398.391 38.5527 398.451 38.366ZM397.436 36.511C397.133 36.511 396.881 36.5927 396.68 36.756C396.48 36.9147 396.347 37.127 396.281 37.393H398.43C398.412 37.1083 398.309 36.8913 398.122 36.742C397.936 36.588 397.707 36.511 397.436 36.511ZM401.252 39.57C400.949 39.57 400.673 39.493 400.426 39.339C400.179 39.185 399.983 38.9727 399.838 38.702C399.698 38.4267 399.628 38.1117 399.628 37.757C399.628 37.4023 399.698 37.0897 399.838 36.819C399.978 36.5437 400.169 36.329 400.412 36.175C400.655 36.0163 400.935 35.937 401.252 35.937C401.527 35.937 401.756 35.9837 401.938 36.077C402.12 36.1703 402.262 36.301 402.365 36.469C402.468 36.637 402.54 36.8307 402.582 37.05C402.629 37.2693 402.652 37.505 402.652 37.757C402.652 37.9437 402.629 38.142 402.582 38.352C402.535 38.562 402.461 38.7603 402.358 38.947C402.255 39.1337 402.113 39.2853 401.931 39.402C401.749 39.514 401.523 39.57 401.252 39.57ZM401.441 38.989C401.688 38.989 401.896 38.9353 402.064 38.828C402.237 38.716 402.365 38.5667 402.449 38.38C402.533 38.1933 402.575 37.9857 402.575 37.757C402.575 37.5097 402.531 37.2927 402.442 37.106C402.358 36.9193 402.23 36.7747 402.057 36.672C401.889 36.5693 401.684 36.518 401.441 36.518C401.077 36.518 400.795 36.6347 400.594 36.868C400.398 37.1013 400.3 37.3977 400.3 37.757C400.3 37.9997 400.349 38.2143 400.447 38.401C400.545 38.583 400.678 38.7277 400.846 38.835C401.019 38.9377 401.217 38.989 401.441 38.989ZM402.575 34.607H403.247V39.5H402.631C402.617 39.3973 402.603 39.2713 402.589 39.122C402.58 38.9727 402.575 38.8443 402.575 38.737V34.607Z" fill="#041004"/>
<circle cx="348" cy="37.5" r="3" fill="#328A28"/>
<path d="M433.225 34.957V38.898H435.899V39.5H432.553V34.957H433.225ZM438.236 39.577C437.896 39.577 437.583 39.5047 437.298 39.36C437.014 39.2153 436.787 39.0077 436.619 38.737C436.451 38.4663 436.367 38.142 436.367 37.764C436.367 37.3813 436.451 37.0547 436.619 36.784C436.787 36.5087 437.014 36.2987 437.298 36.154C437.583 36.0093 437.896 35.937 438.236 35.937C438.577 35.937 438.887 36.0093 439.167 36.154C439.447 36.2987 439.671 36.5087 439.839 36.784C440.007 37.0547 440.091 37.3813 440.091 37.764C440.091 38.142 440.007 38.4663 439.839 38.737C439.671 39.0077 439.447 39.2153 439.167 39.36C438.887 39.5047 438.577 39.577 438.236 39.577ZM438.236 38.996C438.446 38.996 438.64 38.9493 438.817 38.856C438.999 38.758 439.144 38.618 439.251 38.436C439.363 38.2493 439.419 38.0253 439.419 37.764C439.419 37.498 439.363 37.2717 439.251 37.085C439.144 36.8983 438.999 36.756 438.817 36.658C438.64 36.56 438.446 36.511 438.236 36.511C438.026 36.511 437.83 36.56 437.648 36.658C437.466 36.7513 437.319 36.8913 437.207 37.078C437.095 37.2647 437.039 37.4933 437.039 37.764C437.039 38.0253 437.093 38.2493 437.2 38.436C437.312 38.618 437.459 38.758 437.641 38.856C437.823 38.9493 438.022 38.996 438.236 38.996ZM442.237 39.57C441.938 39.57 441.665 39.493 441.418 39.339C441.17 39.185 440.974 38.9727 440.83 38.702C440.685 38.4267 440.613 38.1117 440.613 37.757C440.613 37.4023 440.685 37.0897 440.83 36.819C440.979 36.5437 441.182 36.329 441.439 36.175C441.695 36.0163 441.982 35.937 442.3 35.937C442.65 35.937 442.92 36.0187 443.112 36.182C443.308 36.3453 443.443 36.5647 443.518 36.84C443.597 37.1153 443.637 37.421 443.637 37.757C443.637 37.9437 443.613 38.142 443.567 38.352C443.52 38.562 443.445 38.7603 443.343 38.947C443.24 39.1337 443.098 39.2853 442.916 39.402C442.734 39.514 442.507 39.57 442.237 39.57ZM442.426 38.989C442.673 38.989 442.881 38.9353 443.049 38.828C443.221 38.716 443.35 38.5667 443.434 38.38C443.518 38.1933 443.56 37.9857 443.56 37.757C443.56 37.5097 443.515 37.2927 443.427 37.106C443.343 36.9193 443.214 36.7747 443.042 36.672C442.874 36.5693 442.668 36.518 442.426 36.518C442.062 36.518 441.779 36.6347 441.579 36.868C441.383 37.1013 441.285 37.3977 441.285 37.757C441.285 37.9997 441.334 38.2143 441.432 38.401C441.53 38.583 441.663 38.7277 441.831 38.835C442.003 38.9377 442.202 38.989 442.426 38.989ZM443.56 36.007H444.232V39.5H443.616C443.616 39.5 443.611 39.458 443.602 39.374C443.592 39.2853 443.583 39.1803 443.574 39.059C443.564 38.9377 443.56 38.8303 443.56 38.737V36.007ZM445.108 36.007H445.78V39.5H445.108V36.007ZM447.11 35.937C447.306 35.937 447.483 35.965 447.642 36.021C447.801 36.077 447.936 36.161 448.048 36.273C448.16 36.3803 448.246 36.5157 448.307 36.679C448.372 36.8377 448.405 37.0197 448.405 37.225V39.5H447.74V37.372C447.74 37.0967 447.672 36.8913 447.537 36.756C447.406 36.616 447.206 36.546 446.935 36.546C446.725 36.546 446.534 36.595 446.361 36.693C446.188 36.791 446.046 36.9217 445.934 37.085C445.827 37.2437 445.761 37.4233 445.738 37.624L445.731 37.239C445.754 37.0523 445.803 36.8797 445.878 36.721C445.957 36.5623 446.055 36.4247 446.172 36.308C446.293 36.1867 446.433 36.0957 446.592 36.035C446.751 35.9697 446.923 35.937 447.11 35.937ZM454.246 38.17C454.218 38.4593 454.125 38.7113 453.966 38.926C453.812 39.136 453.609 39.297 453.357 39.409C453.105 39.521 452.825 39.577 452.517 39.577C452.176 39.577 451.864 39.507 451.579 39.367C451.294 39.2223 451.066 39.0147 450.893 38.744C450.725 38.4687 450.641 38.142 450.641 37.764C450.641 37.3813 450.725 37.0547 450.893 36.784C451.066 36.5087 451.294 36.2987 451.579 36.154C451.864 36.0093 452.176 35.937 452.517 35.937C452.825 35.937 453.103 35.993 453.35 36.105C453.597 36.217 453.8 36.378 453.959 36.588C454.118 36.7933 454.213 37.0407 454.246 37.33H453.637C453.558 37.078 453.415 36.8797 453.21 36.735C453.009 36.5857 452.778 36.511 452.517 36.511C452.302 36.511 452.102 36.56 451.915 36.658C451.733 36.756 451.586 36.8983 451.474 37.085C451.367 37.267 451.313 37.4933 451.313 37.764C451.313 38.0253 451.367 38.2493 451.474 38.436C451.586 38.618 451.733 38.758 451.915 38.856C452.097 38.9493 452.298 38.996 452.517 38.996C452.816 38.996 453.058 38.9237 453.245 38.779C453.432 38.6343 453.565 38.4313 453.644 38.17H454.246ZM456.632 39.577C456.291 39.577 455.979 39.5047 455.694 39.36C455.409 39.2153 455.183 39.0077 455.015 38.737C454.847 38.4663 454.763 38.142 454.763 37.764C454.763 37.3813 454.847 37.0547 455.015 36.784C455.183 36.5087 455.409 36.2987 455.694 36.154C455.979 36.0093 456.291 35.937 456.632 35.937C456.973 35.937 457.283 36.0093 457.563 36.154C457.843 36.2987 458.067 36.5087 458.235 36.784C458.403 37.0547 458.487 37.3813 458.487 37.764C458.487 38.142 458.403 38.4663 458.235 38.737C458.067 39.0077 457.843 39.2153 457.563 39.36C457.283 39.5047 456.973 39.577 456.632 39.577ZM456.632 38.996C456.842 38.996 457.036 38.9493 457.213 38.856C457.395 38.758 457.54 38.618 457.647 38.436C457.759 38.2493 457.815 38.0253 457.815 37.764C457.815 37.498 457.759 37.2717 457.647 37.085C457.54 36.8983 457.395 36.756 457.213 36.658C457.036 36.56 456.842 36.511 456.632 36.511C456.422 36.511 456.226 36.56 456.044 36.658C455.862 36.7513 455.715 36.8913 455.603 37.078C455.491 37.2647 455.435 37.4933 455.435 37.764C455.435 38.0253 455.489 38.2493 455.596 38.436C455.708 38.618 455.855 38.758 456.037 38.856C456.219 38.9493 456.417 38.996 456.632 38.996ZM459.26 34.607H459.932V39.5H459.26V34.607ZM460.962 34.607H461.634V39.5H460.962V34.607ZM465.289 38.366H465.926C465.889 38.5947 465.8 38.8 465.66 38.982C465.52 39.164 465.336 39.3087 465.107 39.416C464.879 39.5233 464.61 39.577 464.302 39.577C463.938 39.577 463.614 39.5 463.329 39.346C463.045 39.192 462.821 38.9797 462.657 38.709C462.494 38.4383 462.412 38.1233 462.412 37.764C462.412 37.4 462.492 37.0827 462.65 36.812C462.809 36.5367 463.028 36.322 463.308 36.168C463.588 36.014 463.908 35.937 464.267 35.937C464.645 35.937 464.963 36.0117 465.219 36.161C465.476 36.3103 465.665 36.532 465.786 36.826C465.912 37.1153 465.964 37.477 465.94 37.911H463.077C463.101 38.121 463.164 38.3077 463.266 38.471C463.374 38.6343 463.514 38.7627 463.686 38.856C463.864 38.9493 464.067 38.996 464.295 38.996C464.552 38.996 464.767 38.9377 464.939 38.821C465.112 38.7043 465.229 38.5527 465.289 38.366ZM464.274 36.511C463.971 36.511 463.719 36.5927 463.518 36.756C463.318 36.9147 463.185 37.127 463.119 37.393H465.268C465.25 37.1083 465.147 36.8913 464.96 36.742C464.774 36.588 464.545 36.511 464.274 36.511ZM470.071 38.17C470.043 38.4593 469.95 38.7113 469.791 38.926C469.637 39.136 469.434 39.297 469.182 39.409C468.93 39.521 468.65 39.577 468.342 39.577C468.001 39.577 467.689 39.507 467.404 39.367C467.119 39.2223 466.891 39.0147 466.718 38.744C466.55 38.4687 466.466 38.142 466.466 37.764C466.466 37.3813 466.55 37.0547 466.718 36.784C466.891 36.5087 467.119 36.2987 467.404 36.154C467.689 36.0093 468.001 35.937 468.342 35.937C468.65 35.937 468.928 35.993 469.175 36.105C469.422 36.217 469.625 36.378 469.784 36.588C469.943 36.7933 470.038 37.0407 470.071 37.33H469.462C469.383 37.078 469.24 36.8797 469.035 36.735C468.834 36.5857 468.603 36.511 468.342 36.511C468.127 36.511 467.927 36.56 467.74 36.658C467.558 36.756 467.411 36.8983 467.299 37.085C467.192 37.267 467.138 37.4933 467.138 37.764C467.138 38.0253 467.192 38.2493 467.299 38.436C467.411 38.618 467.558 38.758 467.74 38.856C467.922 38.9493 468.123 38.996 468.342 38.996C468.641 38.996 468.883 38.9237 469.07 38.779C469.257 38.6343 469.39 38.4313 469.469 38.17H470.071ZM470.525 36.007H472.786V36.588H470.525V36.007ZM471.323 35.083H471.988V39.5H471.323V35.083ZM476.056 38.366H476.693C476.656 38.5947 476.567 38.8 476.427 38.982C476.287 39.164 476.103 39.3087 475.874 39.416C475.645 39.5233 475.377 39.577 475.069 39.577C474.705 39.577 474.381 39.5 474.096 39.346C473.811 39.192 473.587 38.9797 473.424 38.709C473.261 38.4383 473.179 38.1233 473.179 37.764C473.179 37.4 473.258 37.0827 473.417 36.812C473.576 36.5367 473.795 36.322 474.075 36.168C474.355 36.014 474.675 35.937 475.034 35.937C475.412 35.937 475.729 36.0117 475.986 36.161C476.243 36.3103 476.432 36.532 476.553 36.826C476.679 37.1153 476.73 37.477 476.707 37.911H473.844C473.867 38.121 473.93 38.3077 474.033 38.471C474.14 38.6343 474.28 38.7627 474.453 38.856C474.63 38.9493 474.833 38.996 475.062 38.996C475.319 38.996 475.533 38.9377 475.706 38.821C475.879 38.7043 475.995 38.5527 476.056 38.366ZM475.041 36.511C474.738 36.511 474.486 36.5927 474.285 36.756C474.084 36.9147 473.951 37.127 473.886 37.393H476.035C476.016 37.1083 475.914 36.8913 475.727 36.742C475.54 36.588 475.312 36.511 475.041 36.511ZM478.857 39.57C478.553 39.57 478.278 39.493 478.031 39.339C477.783 39.185 477.587 38.9727 477.443 38.702C477.303 38.4267 477.233 38.1117 477.233 37.757C477.233 37.4023 477.303 37.0897 477.443 36.819C477.583 36.5437 477.774 36.329 478.017 36.175C478.259 36.0163 478.539 35.937 478.857 35.937C479.132 35.937 479.361 35.9837 479.543 36.077C479.725 36.1703 479.867 36.301 479.97 36.469C480.072 36.637 480.145 36.8307 480.187 37.05C480.233 37.2693 480.257 37.505 480.257 37.757C480.257 37.9437 480.233 38.142 480.187 38.352C480.14 38.562 480.065 38.7603 479.963 38.947C479.86 39.1337 479.718 39.2853 479.536 39.402C479.354 39.514 479.127 39.57 478.857 39.57ZM479.046 38.989C479.293 38.989 479.501 38.9353 479.669 38.828C479.841 38.716 479.97 38.5667 480.054 38.38C480.138 38.1933 480.18 37.9857 480.18 37.757C480.18 37.5097 480.135 37.2927 480.047 37.106C479.963 36.9193 479.834 36.7747 479.662 36.672C479.494 36.5693 479.288 36.518 479.046 36.518C478.682 36.518 478.399 36.6347 478.199 36.868C478.003 37.1013 477.905 37.3977 477.905 37.757C477.905 37.9997 477.954 38.2143 478.052 38.401C478.15 38.583 478.283 38.7277 478.451 38.835C478.623 38.9377 478.822 38.989 479.046 38.989ZM480.18 34.607H480.852V39.5H480.236C480.222 39.3973 480.208 39.2713 480.194 39.122C480.184 38.9727 480.18 38.8443 480.18 38.737V34.607Z" fill="#041004"/>
<circle cx="423" cy="37.5" r="3" fill="#F2994A"/>
</g>
<defs>
<filter id="filter0_d_4657_48298" x="125" y="130.5" width="157" height="116.283" filterUnits="userSpaceOnUse" color-interpolation-filters="sRGB">
<feFlood flood-opacity="0" result="BackgroundImageFix"/>
<feColorMatrix in="SourceAlpha" type="matrix" values="0 0 0 0 0 0 0 0 0 0 0 0 0 0 0 0 0 0 127 0" result="hardAlpha"/>
<feOffset dy="6"/>
<feGaussianBlur stdDeviation="20"/>
<feComposite in2="hardAlpha" operator="out"/>
<feColorMatrix type="matrix" values="0 0 0 0 0.2375 0 0 0 0 0.2375 0 0 0 0 0.2375 0 0 0 0.12 0"/>
<feBlend mode="normal" in2="BackgroundImageFix" result="effect1_dropShadow_4657_48298"/>
<feBlend mode="normal" in="SourceGraphic" in2="effect1_dropShadow_4657_48298" result="shape"/>
</filter>
<clipPath id="clip0_4657_48298">
<rect width="827" height="312" fill="white" transform="translate(0 0.5)"/>
</clipPath>
</defs>
</svg>
