<svg width="171" height="44" viewBox="0 0 171 44" fill="none" xmlns="http://www.w3.org/2000/svg">
<path d="M33.4966 42.3805C32.574 43.9879 30.2414 43.9879 29.3188 42.3805L16.5899 20.2055C15.6756 18.6128 16.8333 16.6328 18.6788 16.6328H44.1366C45.9821 16.6328 47.1398 18.6128 46.2255 20.2055L33.4966 42.3805Z" fill="white"/>
<g filter="url(#filter0_f_4498_44944)">
<path d="M33.5735 18.3242H18.1833V21.1912H33.5735V18.3242Z" fill="#0D3D0D"/>
</g>
<path d="M23.966 4.45567C24.7065 3.18145 26.5577 3.18144 27.2981 4.45566L35.0035 17.7155C35.744 18.9898 34.8185 20.5825 33.3375 20.5825H17.9266C16.4457 20.5825 15.5201 18.9898 16.2606 17.7155L23.966 4.45567Z" fill="white"/>
<path d="M71.9826 35.2845V25.6241C71.9826 24.7683 71.8419 24.0623 71.5606 23.5059C71.2793 22.9496 70.8573 22.5323 70.2945 22.2542C69.7317 21.9546 69.0175 21.8049 68.1519 21.8049C67.1996 21.8049 66.3231 22.0296 65.5223 22.4789C64.7432 22.9069 64.1048 23.4952 63.607 24.2441C63.1091 24.9715 62.8063 25.7954 62.698 26.7153L62.6655 24.886C62.7738 24.0515 63.001 23.2705 63.3473 22.5431C63.7152 21.8157 64.1697 21.1844 64.7107 20.6495C65.2735 20.1147 65.9228 19.6974 66.6586 19.3978C67.3944 19.0982 68.1952 18.9485 69.0609 18.9485C69.9699 18.9485 70.7923 19.0769 71.5281 19.3336C72.2639 19.5691 72.8916 19.9434 73.411 20.457C73.952 20.9491 74.3634 21.5589 74.6447 22.2863C74.9259 22.9924 75.0667 23.8055 75.0667 24.7255V35.2845H71.9826ZM59.8087 35.2845V12.8506H62.8928V35.2845H59.8087ZM85.8576 35.6055C84.4724 35.6055 83.2063 35.2525 82.0594 34.5464C80.9123 33.8403 80.0033 32.8667 79.3324 31.6258C78.6614 30.3634 78.326 28.9191 78.326 27.293C78.326 25.667 78.6614 24.2333 79.3324 22.9924C80.0249 21.73 80.9663 20.7458 82.1568 20.0397C83.347 19.3123 84.6781 18.9485 86.1498 18.9485C87.773 18.9485 89.0282 19.3229 89.9156 20.0718C90.8246 20.8207 91.4521 21.8263 91.7985 23.0887C92.1663 24.3511 92.3504 25.7525 92.3504 27.293C92.3504 28.1488 92.2421 29.0582 92.0257 30.0211C91.8092 30.9839 91.463 31.8933 90.9869 32.7491C90.5107 33.6049 89.8507 34.3004 89.0066 34.8352C88.1626 35.3487 87.1128 35.6055 85.8576 35.6055ZM86.7342 32.9417C87.8811 32.9417 88.8443 32.6957 89.6234 32.2035C90.4241 31.69 91.0194 31.0052 91.4089 30.1494C91.7985 29.2936 91.9933 28.3414 91.9933 27.293C91.9933 26.159 91.7876 25.1641 91.3765 24.3083C90.9869 23.4525 90.3917 22.7891 89.591 22.3184C88.8118 21.8478 87.8595 21.6123 86.7342 21.6123C85.046 21.6123 83.7366 22.1472 82.806 23.2171C81.8971 24.2869 81.4426 25.6455 81.4426 27.293C81.4426 28.4056 81.6698 29.3899 82.1243 30.2457C82.5788 31.0802 83.1956 31.7434 83.9747 32.2356C84.7755 32.7062 85.6953 32.9417 86.7342 32.9417ZM91.9933 19.2695H95.1098V35.2845H92.253C92.253 35.2845 92.2312 35.092 92.1881 34.7068C92.1447 34.3004 92.1014 33.819 92.0582 33.2626C92.0149 32.7062 91.9933 32.2142 91.9933 31.7863V19.2695ZM99.1746 19.2695H102.291V35.2845H99.1746V19.2695ZM107.777 21.9975C106.652 21.9975 105.689 22.2542 104.888 22.7677C104.109 23.2813 103.481 23.9124 103.005 24.6613C102.551 25.4102 102.248 26.1269 102.096 26.8116L102.064 24.9823C102.085 24.7683 102.14 24.4367 102.226 23.9873C102.334 23.5167 102.518 22.9924 102.778 22.4147C103.038 21.837 103.384 21.2914 103.817 20.7779C104.25 20.243 104.791 19.8043 105.44 19.462C106.089 19.1197 106.868 18.9485 107.777 18.9485V21.9975ZM117.113 32.7812C115.771 32.7812 114.537 32.5137 113.412 31.9788C112.287 31.444 111.388 30.663 110.717 29.6359C110.068 28.6089 109.743 27.368 109.743 25.913C109.743 24.4795 110.068 23.2492 110.717 22.2221C111.367 21.1738 112.243 20.3714 113.347 19.8151C114.472 19.2374 115.728 18.9485 117.113 18.9485C117.524 18.9485 117.914 18.9806 118.281 19.0448C118.649 19.0876 119.007 19.1624 119.353 19.2695H126.43V22.158C125.456 22.158 124.471 21.9975 123.476 21.6765C122.502 21.3556 121.647 21.0133 120.911 20.6495L120.814 20.489C121.55 20.8742 122.188 21.3448 122.729 21.9012C123.27 22.436 123.681 23.0458 123.963 23.7306C124.266 24.3938 124.417 25.1427 124.417 25.9772C124.417 27.3893 124.092 28.6089 123.443 29.6359C122.816 30.663 121.939 31.444 120.814 31.9788C119.71 32.5137 118.476 32.7812 117.113 32.7812ZM122.08 41.7676V41.0294C122.08 39.9382 121.777 39.1572 121.171 38.6865C120.565 38.2159 119.677 37.9805 118.509 37.9805H114.71C113.91 37.9805 113.228 37.9163 112.665 37.7879C112.103 37.6595 111.637 37.467 111.269 37.2102C110.901 36.9748 110.631 36.6754 110.458 36.3116C110.285 35.9693 110.198 35.5841 110.198 35.1562C110.198 34.3217 110.458 33.6906 110.977 33.2626C111.497 32.8346 112.157 32.5673 112.957 32.4602C113.758 32.3319 114.57 32.3211 115.392 32.4281L117.113 32.7812C115.879 32.8454 114.938 32.963 114.288 33.1342C113.639 33.3054 113.315 33.6691 113.315 34.2254C113.315 34.5464 113.444 34.8031 113.704 34.9957C113.964 35.1883 114.332 35.2845 114.808 35.2845H118.768C120.002 35.2845 121.095 35.4343 122.047 35.7339C123.021 36.0548 123.779 36.5791 124.32 37.3065C124.882 38.0554 125.164 39.0717 125.164 40.3555V41.7676H122.08ZM117.113 30.1815C117.892 30.1815 118.595 30.0211 119.223 29.7001C119.872 29.3578 120.392 28.8764 120.781 28.2559C121.171 27.614 121.366 26.8437 121.366 25.9451C121.366 25.0251 121.171 24.2441 120.781 23.6022C120.413 22.939 119.905 22.4468 119.255 22.1259C118.606 21.7836 117.892 21.6123 117.113 21.6123C116.334 21.6123 115.609 21.7836 114.938 22.1259C114.288 22.4468 113.769 22.9282 113.379 23.5701C112.99 24.212 112.795 25.0036 112.795 25.9451C112.795 26.8437 112.99 27.614 113.379 28.2559C113.769 28.8764 114.288 29.3578 114.938 29.7001C115.587 30.0211 116.312 30.1815 117.113 30.1815ZM137.116 35.6376C135.536 35.6376 134.086 35.3059 132.766 34.6427C131.446 33.9794 130.396 33.0272 129.617 31.7863C128.838 30.5453 128.448 29.0582 128.448 27.3251C128.448 25.5707 128.838 24.0729 129.617 22.8319C130.396 21.5695 131.446 20.6067 132.766 19.9434C134.086 19.2802 135.536 18.9485 137.116 18.9485C138.696 18.9485 140.135 19.2802 141.434 19.9434C142.732 20.6067 143.771 21.5695 144.55 22.8319C145.329 24.0729 145.719 25.5707 145.719 27.3251C145.719 29.0582 145.329 30.5453 144.55 31.7863C143.771 33.0272 142.732 33.9794 141.434 34.6427C140.135 35.3059 138.696 35.6376 137.116 35.6376ZM137.116 32.9737C138.09 32.9737 138.988 32.7598 139.811 32.3319C140.655 31.8825 141.326 31.2407 141.823 30.4062C142.343 29.5504 142.602 28.5234 142.602 27.3251C142.602 26.1056 142.343 25.0678 141.823 24.212C141.326 23.3562 140.655 22.7036 139.811 22.2542C138.988 21.8049 138.09 21.5803 137.116 21.5803C136.142 21.5803 135.233 21.8049 134.389 22.2542C133.545 22.6822 132.863 23.3241 132.344 24.1799C131.825 25.0357 131.565 26.0842 131.565 27.3251C131.565 28.5234 131.814 29.5504 132.311 30.4062C132.831 31.2407 133.513 31.8825 134.357 32.3319C135.201 32.7598 136.12 32.9737 137.116 32.9737ZM148.98 19.2695H152.096V35.2845H148.98V19.2695ZM158.264 18.9485C159.173 18.9485 159.996 19.0769 160.732 19.3336C161.467 19.5904 162.095 19.9755 162.615 20.489C163.134 20.9812 163.534 21.6016 163.816 22.3505C164.119 23.0779 164.27 23.9124 164.27 24.8539V35.2845H161.186V25.5279C161.186 24.2654 160.872 23.3241 160.245 22.7036C159.639 22.0617 158.708 21.7407 157.453 21.7407C156.479 21.7407 155.592 21.9654 154.791 22.4147C153.99 22.864 153.33 23.4631 152.811 24.212C152.313 24.9394 152.01 25.7633 151.902 26.6833L151.869 24.9181C151.977 24.0623 152.204 23.2705 152.551 22.5431C152.919 21.8157 153.373 21.1844 153.914 20.6495C154.477 20.0932 155.126 19.6759 155.862 19.3978C156.598 19.0982 157.399 18.9485 158.264 18.9485Z" fill="white"/>
<path d="M171 33.6887C171 32.8024 170.274 32.084 169.377 32.084C168.481 32.084 167.754 32.8024 167.754 33.6887C167.754 34.575 168.481 35.2934 169.377 35.2934C170.274 35.2934 171 34.575 171 33.6887Z" fill="white"/>
<defs>
<filter id="filter0_f_4498_44944" x="0.677813" y="0.818682" width="50.4012" height="37.8783" filterUnits="userSpaceOnUse" color-interpolation-filters="sRGB">
<feFlood flood-opacity="0" result="BackgroundImageFix"/>
<feBlend mode="normal" in="SourceGraphic" in2="BackgroundImageFix" result="shape"/>
<feGaussianBlur stdDeviation="8.75277" result="effect1_foregroundBlur_4498_44944"/>
</filter>
</defs>
</svg>
