<svg width="30" height="30" viewBox="0 0 30 30" fill="none" xmlns="http://www.w3.org/2000/svg">
<circle cx="15" cy="15" r="15" fill="#FAFAFA"/>
<path d="M16.0713 17.801H15.053C14.3326 17.801 13.7422 17.1943 13.7422 16.4468C13.7422 16.2247 13.9264 16.0406 14.1484 16.0406C14.3705 16.0406 14.5547 16.2247 14.5547 16.4468C14.5547 16.7447 14.7768 16.9885 15.053 16.9885H16.0713C16.2826 16.9885 16.4505 16.7989 16.4505 16.566C16.4505 16.2735 16.3693 16.2302 16.1851 16.1652L14.5547 15.5964C14.208 15.4718 13.7422 15.2227 13.7422 14.4264C13.7422 13.7493 14.2784 13.1914 14.9339 13.1914H15.9522C16.6726 13.1914 17.263 13.7981 17.263 14.5456C17.263 14.7677 17.0789 14.9518 16.8568 14.9518C16.6347 14.9518 16.4505 14.7677 16.4505 14.5456C16.4505 14.2477 16.2284 14.0039 15.9522 14.0039H14.9339C14.7226 14.0039 14.5547 14.1935 14.5547 14.4264C14.5547 14.7189 14.6359 14.7622 14.8201 14.8272L16.4505 15.396C16.7972 15.5206 17.263 15.7697 17.263 16.566C17.263 17.2485 16.7268 17.801 16.0713 17.801Z" fill="#FACC15"/>
<path d="M15.5 18.3438C15.2779 18.3438 15.0938 18.1596 15.0938 17.9375V13.0625C15.0938 12.8404 15.2779 12.6562 15.5 12.6562C15.7221 12.6562 15.9062 12.8404 15.9062 13.0625V17.9375C15.9062 18.1596 15.7221 18.3438 15.5 18.3438Z" fill="#FACC15"/>
<path d="M15.5026 21.3216C12.2905 21.3216 9.67969 18.7108 9.67969 15.4987C9.67969 12.2866 12.2905 9.67578 15.5026 9.67578C15.7247 9.67578 15.9089 9.85995 15.9089 10.082C15.9089 10.3041 15.7247 10.4883 15.5026 10.4883C12.7401 10.4883 10.4922 12.7362 10.4922 15.4987C10.4922 18.2612 12.7401 20.5091 15.5026 20.5091C18.2651 20.5091 20.513 18.2612 20.513 15.4987C20.513 15.2766 20.6972 15.0924 20.9193 15.0924C21.1414 15.0924 21.3255 15.2766 21.3255 15.4987C21.3255 18.7108 18.7147 21.3216 15.5026 21.3216Z" fill="#FACC15"/>
<path d="M20.9167 12.6549C20.6946 12.6549 20.5104 12.4708 20.5104 12.2487V10.4883H18.75C18.5279 10.4883 18.3438 10.3041 18.3438 10.082C18.3438 9.85995 18.5279 9.67578 18.75 9.67578H20.9167C21.1388 9.67578 21.3229 9.85995 21.3229 10.082V12.2487C21.3229 12.4708 21.1388 12.6549 20.9167 12.6549Z" fill="#FACC15"/>
<path d="M18.2096 13.1992C18.1067 13.1992 18.0038 13.1612 17.9225 13.08C17.7654 12.9229 17.7654 12.6629 17.9225 12.5058L20.6308 9.7975C20.7879 9.64042 21.0479 9.64042 21.205 9.7975C21.3621 9.95458 21.3621 10.2146 21.205 10.3717L18.4967 13.08C18.4154 13.1612 18.3125 13.1992 18.2096 13.1992Z" fill="#FACC15"/>
</svg>
