<svg width="433" height="17" viewBox="0 0 433 17" fill="none" xmlns="http://www.w3.org/2000/svg">
<path d="M0.238 3.914H8.204V5.118H0.238V3.914ZM3.542 4.978H4.9V13H3.542V4.978ZM10.9275 3.13V4.572H9.26155V3.13H10.9275ZM9.42955 6.014H10.7595V13H9.42955V6.014ZM18.0435 10.732H19.3175C19.2428 11.1893 19.0655 11.6 18.7855 11.964C18.5055 12.328 18.1368 12.6173 17.6795 12.832C17.2222 13.0467 16.6855 13.154 16.0695 13.154C15.3415 13.154 14.6928 13 14.1235 12.692C13.5542 12.384 13.1062 11.9593 12.7795 11.418C12.4528 10.8767 12.2895 10.2467 12.2895 9.528C12.2895 8.8 12.4482 8.16533 12.7655 7.624C13.0828 7.07333 13.5215 6.644 14.0815 6.336C14.6415 6.028 15.2808 5.874 15.9995 5.874C16.7555 5.874 17.3902 6.02333 17.9035 6.322C18.4168 6.62067 18.7948 7.064 19.0375 7.652C19.2895 8.23067 19.3922 8.954 19.3455 9.822H13.6195C13.6662 10.242 13.7922 10.6153 13.9975 10.942C14.2122 11.2687 14.4922 11.5253 14.8375 11.712C15.1922 11.8987 15.5982 11.992 16.0555 11.992C16.5688 11.992 16.9982 11.8753 17.3435 11.642C17.6888 11.4087 17.9222 11.1053 18.0435 10.732ZM16.0135 7.022C15.4068 7.022 14.9028 7.18533 14.5015 7.512C14.1002 7.82933 13.8342 8.254 13.7035 8.786H18.0015C17.9642 8.21667 17.7588 7.78267 17.3855 7.484C17.0122 7.176 16.5548 7.022 16.0135 7.022ZM20.7609 6.014H22.1049V13H20.7609V6.014ZM24.4709 7.204C23.9856 7.204 23.5702 7.316 23.2249 7.54C22.8889 7.764 22.6182 8.03933 22.4129 8.366C22.2169 8.69267 22.0862 9.00533 22.0209 9.304L22.0069 8.506C22.0162 8.41267 22.0396 8.268 22.0769 8.072C22.1236 7.86667 22.2029 7.638 22.3149 7.386C22.4269 7.134 22.5762 6.896 22.7629 6.672C22.9496 6.43867 23.1829 6.24733 23.4629 6.098C23.7429 5.94867 24.0789 5.874 24.4709 5.874V7.204ZM28.227 7.218V6.014H31.307V13H29.963V7.218H28.227Z" fill="#FF823B"/>
<path d="M41.6053 6H39L40.7368 9.18182L39 13H41.6053L43.0526 9.18182L41.6053 6Z" fill="#FF823B"/>
<path d="M45.656 6H43.0508L44.7876 9.18182L43.0508 13H45.656L47.1034 9.18182L45.656 6Z" fill="#FF823B"/>
<path d="M57.5736 11.924H57.1896L60.7416 4.7H61.7016V12.5H60.7416V6.368L60.9336 6.416L57.8616 12.5H56.9016L53.8296 6.428L54.0216 6.38V12.5H53.0616V4.7H54.0216L57.5736 11.924ZM65.7082 12.62C65.2362 12.62 64.8002 12.488 64.4002 12.224C64.0082 11.952 63.6922 11.584 63.4522 11.12C63.2202 10.648 63.1042 10.112 63.1042 9.512C63.1042 8.912 63.2242 8.376 63.4642 7.904C63.7042 7.432 64.0282 7.06 64.4362 6.788C64.8522 6.516 65.3162 6.38 65.8282 6.38C66.3882 6.38 66.8122 6.524 67.1002 6.812C67.3962 7.092 67.5962 7.468 67.7002 7.94C67.8122 8.412 67.8682 8.936 67.8682 9.512C67.8682 9.816 67.8362 10.148 67.7722 10.508C67.7082 10.86 67.5962 11.2 67.4362 11.528C67.2842 11.848 67.0682 12.112 66.7882 12.32C66.5082 12.52 66.1482 12.62 65.7082 12.62ZM65.9482 11.708C66.3562 11.708 66.6922 11.608 66.9562 11.408C67.2282 11.208 67.4282 10.944 67.5562 10.616C67.6842 10.28 67.7482 9.912 67.7482 9.512C67.7482 9.072 67.6802 8.688 67.5442 8.36C67.4162 8.024 67.2162 7.764 66.9442 7.58C66.6802 7.388 66.3482 7.292 65.9482 7.292C65.3482 7.292 64.8842 7.504 64.5562 7.928C64.2282 8.344 64.0642 8.872 64.0642 9.512C64.0642 9.936 64.1442 10.316 64.3042 10.652C64.4722 10.98 64.6962 11.24 64.9762 11.432C65.2642 11.616 65.5882 11.708 65.9482 11.708ZM67.7482 6.5H68.7082V12.5H67.8322C67.8322 12.5 67.8242 12.428 67.8082 12.284C67.8002 12.14 67.7882 11.972 67.7722 11.78C67.7562 11.588 67.7482 11.428 67.7482 11.3V6.5ZM75.1922 6.5L72.8642 9.764L70.9562 12.5H69.7922L72.2762 9.056L74.0282 6.5H75.1922ZM69.7922 6.5H70.9922L72.8522 9.08L75.3122 12.5H74.1482L72.2042 9.764L69.7922 6.5ZM77.5774 4.1V5.264H76.3294V4.1H77.5774ZM76.4734 6.5H77.4334V12.5H76.4734V6.5ZM79.073 6.5H80.033V12.5H79.073V6.5ZM82.097 6.38C82.417 6.38 82.705 6.428 82.961 6.524C83.217 6.62 83.433 6.76 83.609 6.944C83.785 7.128 83.921 7.352 84.017 7.616C84.113 7.872 84.161 8.164 84.161 8.492V12.5H83.201V8.732C83.201 8.268 83.093 7.92 82.877 7.688C82.661 7.456 82.337 7.34 81.905 7.34C81.577 7.34 81.273 7.424 80.993 7.592C80.713 7.76 80.481 7.992 80.297 8.288C80.121 8.576 80.013 8.912 79.973 9.296L79.961 8.6C80.001 8.264 80.081 7.96 80.201 7.688C80.329 7.416 80.485 7.184 80.669 6.992C80.861 6.792 81.077 6.64 81.317 6.536C81.565 6.432 81.825 6.38 82.097 6.38ZM86.129 6.38C86.449 6.38 86.737 6.428 86.993 6.524C87.249 6.62 87.465 6.76 87.641 6.944C87.817 7.128 87.953 7.352 88.049 7.616C88.145 7.872 88.193 8.164 88.193 8.492V12.5H87.233V8.732C87.233 8.268 87.125 7.92 86.909 7.688C86.693 7.456 86.369 7.34 85.937 7.34C85.609 7.34 85.305 7.424 85.025 7.592C84.745 7.76 84.513 7.992 84.329 8.288C84.153 8.576 84.045 8.912 84.005 9.296L83.993 8.6C84.033 8.264 84.113 7.96 84.233 7.688C84.361 7.416 84.517 7.184 84.701 6.992C84.893 6.792 85.109 6.64 85.349 6.536C85.597 6.432 85.857 6.38 86.129 6.38ZM94.8368 12.5H93.8768V6.5H94.8368V12.5ZM93.9368 9.704L93.9488 10.04C93.9408 10.136 93.9168 10.284 93.8768 10.484C93.8448 10.684 93.7848 10.908 93.6968 11.156C93.6168 11.396 93.4968 11.628 93.3368 11.852C93.1848 12.076 92.9848 12.26 92.7368 12.404C92.4968 12.548 92.1968 12.62 91.8368 12.62C91.6048 12.62 91.3648 12.584 91.1168 12.512C90.8768 12.448 90.6528 12.34 90.4448 12.188C90.2368 12.028 90.0688 11.808 89.9408 11.528C89.8128 11.248 89.7488 10.9 89.7488 10.484V6.5H90.7088V10.244C90.7088 10.604 90.7648 10.888 90.8768 11.096C90.9968 11.296 91.1568 11.44 91.3568 11.528C91.5568 11.616 91.7808 11.66 92.0288 11.66C92.4368 11.66 92.7768 11.556 93.0488 11.348C93.3208 11.14 93.5288 10.884 93.6728 10.58C93.8168 10.276 93.9048 9.984 93.9368 9.704ZM96.3933 6.5H97.3533V12.5H96.3933V6.5ZM99.4173 6.38C99.7373 6.38 100.025 6.428 100.281 6.524C100.537 6.62 100.753 6.76 100.929 6.944C101.105 7.128 101.241 7.352 101.337 7.616C101.433 7.872 101.481 8.164 101.481 8.492V12.5H100.521V8.732C100.521 8.268 100.413 7.92 100.197 7.688C99.9813 7.456 99.6573 7.34 99.2253 7.34C98.8973 7.34 98.5933 7.424 98.3133 7.592C98.0333 7.76 97.8013 7.992 97.6173 8.288C97.4413 8.576 97.3333 8.912 97.2933 9.296L97.2813 8.6C97.3213 8.264 97.4013 7.96 97.5213 7.688C97.6493 7.416 97.8053 7.184 97.9893 6.992C98.1813 6.792 98.3973 6.64 98.6373 6.536C98.8853 6.432 99.1453 6.38 99.4173 6.38ZM103.449 6.38C103.769 6.38 104.057 6.428 104.313 6.524C104.569 6.62 104.785 6.76 104.961 6.944C105.137 7.128 105.273 7.352 105.369 7.616C105.465 7.872 105.513 8.164 105.513 8.492V12.5H104.553V8.732C104.553 8.268 104.445 7.92 104.229 7.688C104.013 7.456 103.689 7.34 103.257 7.34C102.929 7.34 102.625 7.424 102.345 7.592C102.065 7.76 101.833 7.992 101.649 8.288C101.473 8.576 101.365 8.912 101.325 9.296L101.313 8.6C101.353 8.264 101.433 7.96 101.553 7.688C101.681 7.416 101.837 7.184 102.021 6.992C102.213 6.792 102.429 6.64 102.669 6.536C102.917 6.432 103.177 6.38 103.449 6.38ZM111.857 12.62C111.377 12.62 110.937 12.488 110.537 12.224C110.145 11.952 109.833 11.584 109.601 11.12C109.369 10.648 109.253 10.112 109.253 9.512C109.253 8.912 109.365 8.376 109.589 7.904C109.813 7.432 110.121 7.06 110.513 6.788C110.905 6.516 111.353 6.38 111.857 6.38C112.305 6.38 112.669 6.464 112.949 6.632C113.237 6.792 113.457 7.016 113.609 7.304C113.761 7.592 113.865 7.924 113.921 8.3C113.985 8.676 114.017 9.08 114.017 9.512C114.017 9.816 113.985 10.148 113.921 10.508C113.857 10.86 113.745 11.2 113.585 11.528C113.433 11.848 113.217 12.112 112.937 12.32C112.657 12.52 112.297 12.62 111.857 12.62ZM112.097 11.708C112.505 11.708 112.841 11.608 113.105 11.408C113.377 11.208 113.577 10.944 113.705 10.616C113.833 10.28 113.897 9.912 113.897 9.512C113.897 9.072 113.829 8.688 113.693 8.36C113.565 8.024 113.365 7.764 113.093 7.58C112.829 7.388 112.497 7.292 112.097 7.292C111.497 7.292 111.033 7.504 110.705 7.928C110.377 8.344 110.213 8.872 110.213 9.512C110.213 9.936 110.293 10.316 110.453 10.652C110.621 10.98 110.845 11.24 111.125 11.432C111.413 11.616 111.737 11.708 112.097 11.708ZM113.897 4.1H114.857V12.5H113.981C113.965 12.324 113.945 12.116 113.921 11.876C113.905 11.636 113.897 11.444 113.897 11.3V4.1ZM120.844 10.568H121.744C121.68 10.96 121.536 11.312 121.312 11.624C121.096 11.928 120.808 12.172 120.448 12.356C120.096 12.532 119.688 12.62 119.224 12.62C118.664 12.62 118.16 12.488 117.712 12.224C117.264 11.952 116.908 11.584 116.644 11.12C116.388 10.648 116.26 10.112 116.26 9.512C116.26 8.912 116.384 8.376 116.632 7.904C116.888 7.432 117.236 7.06 117.676 6.788C118.116 6.516 118.612 6.38 119.164 6.38C119.748 6.38 120.24 6.512 120.64 6.776C121.048 7.032 121.348 7.412 121.54 7.916C121.74 8.412 121.82 9.024 121.78 9.752H117.22C117.26 10.144 117.368 10.488 117.544 10.784C117.72 11.08 117.952 11.312 118.24 11.48C118.528 11.64 118.856 11.72 119.224 11.72C119.632 11.72 119.976 11.616 120.256 11.408C120.544 11.192 120.74 10.912 120.844 10.568ZM119.2 7.28C118.704 7.28 118.288 7.424 117.952 7.712C117.616 8 117.392 8.392 117.28 8.888H120.796C120.764 8.36 120.592 7.96 120.28 7.688C119.976 7.416 119.616 7.28 119.2 7.28ZM126.018 12.62C125.578 12.62 125.218 12.52 124.938 12.32C124.658 12.112 124.438 11.848 124.278 11.528C124.126 11.2 124.018 10.86 123.954 10.508C123.89 10.148 123.858 9.816 123.858 9.512C123.858 9.08 123.886 8.676 123.942 8.3C124.006 7.924 124.114 7.592 124.266 7.304C124.418 7.016 124.634 6.792 124.914 6.632C125.202 6.464 125.57 6.38 126.018 6.38C126.498 6.38 126.934 6.516 127.326 6.788C127.718 7.06 128.03 7.432 128.262 7.904C128.502 8.376 128.622 8.912 128.622 9.512C128.622 10.112 128.502 10.648 128.262 11.12C128.022 11.584 127.702 11.952 127.302 12.224C126.91 12.488 126.482 12.62 126.018 12.62ZM125.778 11.708C126.146 11.708 126.47 11.616 126.75 11.432C127.038 11.24 127.262 10.98 127.422 10.652C127.582 10.316 127.662 9.936 127.662 9.512C127.662 8.872 127.498 8.344 127.17 7.928C126.842 7.504 126.378 7.292 125.778 7.292C125.426 7.292 125.114 7.388 124.842 7.58C124.57 7.764 124.358 8.024 124.206 8.36C124.054 8.688 123.978 9.072 123.978 9.512C123.978 9.912 124.042 10.28 124.17 10.616C124.306 10.944 124.506 11.208 124.77 11.408C125.034 11.608 125.37 11.708 125.778 11.708ZM123.018 6.5H123.942L123.978 7.76V14.9H123.018V6.5ZM132.454 12.62C131.942 12.62 131.462 12.496 131.014 12.248C130.566 12 130.202 11.644 129.922 11.18C129.65 10.708 129.514 10.152 129.514 9.512C129.514 8.872 129.65 8.32 129.922 7.856C130.202 7.384 130.566 7.02 131.014 6.764C131.462 6.508 131.942 6.38 132.454 6.38C132.966 6.38 133.442 6.508 133.882 6.764C134.33 7.02 134.69 7.384 134.962 7.856C135.234 8.32 135.37 8.872 135.37 9.512C135.37 10.152 135.234 10.708 134.962 11.18C134.69 11.644 134.33 12 133.882 12.248C133.442 12.496 132.966 12.62 132.454 12.62ZM132.454 11.72C132.79 11.72 133.106 11.636 133.402 11.468C133.698 11.3 133.938 11.052 134.122 10.724C134.314 10.388 134.41 9.984 134.41 9.512C134.41 9.04 134.314 8.64 134.122 8.312C133.938 7.976 133.698 7.72 133.402 7.544C133.106 7.368 132.79 7.28 132.454 7.28C132.118 7.28 131.798 7.368 131.494 7.544C131.198 7.712 130.954 7.964 130.762 8.3C130.57 8.628 130.474 9.032 130.474 9.512C130.474 9.984 130.566 10.388 130.75 10.724C130.942 11.052 131.19 11.3 131.494 11.468C131.798 11.636 132.118 11.72 132.454 11.72ZM136.301 10.568H137.189C137.213 10.912 137.341 11.192 137.573 11.408C137.813 11.624 138.157 11.732 138.605 11.732C138.877 11.732 139.089 11.696 139.241 11.624C139.401 11.552 139.517 11.456 139.589 11.336C139.661 11.208 139.697 11.068 139.697 10.916C139.697 10.732 139.649 10.588 139.553 10.484C139.465 10.372 139.341 10.28 139.181 10.208C139.029 10.136 138.853 10.068 138.653 10.004C138.421 9.916 138.181 9.824 137.933 9.728C137.693 9.624 137.465 9.504 137.249 9.368C137.041 9.224 136.873 9.052 136.745 8.852C136.617 8.644 136.553 8.396 136.553 8.108C136.553 7.868 136.601 7.644 136.697 7.436C136.793 7.22 136.929 7.036 137.105 6.884C137.289 6.724 137.501 6.6 137.741 6.512C137.989 6.424 138.261 6.38 138.557 6.38C138.957 6.38 139.293 6.46 139.565 6.62C139.845 6.78 140.057 7.008 140.201 7.304C140.353 7.592 140.433 7.928 140.441 8.312H139.613C139.557 7.952 139.441 7.692 139.265 7.532C139.097 7.364 138.853 7.28 138.533 7.28C138.205 7.28 137.953 7.352 137.777 7.496C137.601 7.64 137.513 7.832 137.513 8.072C137.513 8.248 137.577 8.396 137.705 8.516C137.833 8.628 137.997 8.732 138.197 8.828C138.405 8.916 138.625 9.008 138.857 9.104C139.089 9.2 139.313 9.296 139.529 9.392C139.745 9.488 139.937 9.6 140.105 9.728C140.273 9.856 140.405 10.016 140.501 10.208C140.605 10.392 140.657 10.624 140.657 10.904C140.657 11.24 140.577 11.54 140.417 11.804C140.265 12.06 140.037 12.26 139.733 12.404C139.437 12.548 139.073 12.62 138.641 12.62C138.249 12.62 137.913 12.572 137.633 12.476C137.361 12.372 137.133 12.24 136.949 12.08C136.765 11.912 136.621 11.736 136.517 11.552C136.421 11.368 136.357 11.188 136.325 11.012C136.293 10.836 136.285 10.688 136.301 10.568ZM143.073 4.1V5.264H141.825V4.1H143.073ZM141.969 6.5H142.929V12.5H141.969V6.5ZM144.149 6.5H147.677V7.4H144.149V6.5ZM145.433 4.94H146.393V12.5H145.433V4.94ZM153.935 12.62C153.423 12.62 152.943 12.496 152.495 12.248C152.047 12 151.683 11.644 151.403 11.18C151.131 10.708 150.995 10.152 150.995 9.512C150.995 8.872 151.131 8.32 151.403 7.856C151.683 7.384 152.047 7.02 152.495 6.764C152.943 6.508 153.423 6.38 153.935 6.38C154.447 6.38 154.923 6.508 155.363 6.764C155.811 7.02 156.171 7.384 156.443 7.856C156.715 8.32 156.851 8.872 156.851 9.512C156.851 10.152 156.715 10.708 156.443 11.18C156.171 11.644 155.811 12 155.363 12.248C154.923 12.496 154.447 12.62 153.935 12.62ZM153.935 11.72C154.271 11.72 154.587 11.636 154.883 11.468C155.179 11.3 155.419 11.052 155.603 10.724C155.795 10.388 155.891 9.984 155.891 9.512C155.891 9.04 155.795 8.64 155.603 8.312C155.419 7.976 155.179 7.72 154.883 7.544C154.587 7.368 154.271 7.28 153.935 7.28C153.599 7.28 153.279 7.368 152.975 7.544C152.679 7.712 152.435 7.964 152.243 8.3C152.051 8.628 151.955 9.032 151.955 9.512C151.955 9.984 152.047 10.388 152.231 10.724C152.423 11.052 152.671 11.3 152.975 11.468C153.279 11.636 153.599 11.72 153.935 11.72ZM157.532 6.5H161.06V7.4H157.532V6.5ZM160.64 4.1H161.192V5.06H160.64C160.44 5.052 160.256 5.08 160.088 5.144C159.928 5.208 159.8 5.32 159.704 5.48C159.608 5.632 159.56 5.852 159.56 6.14V12.5H158.6V6.14C158.6 5.66 158.684 5.272 158.852 4.976C159.028 4.672 159.268 4.452 159.572 4.316C159.884 4.172 160.24 4.1 160.64 4.1ZM220.747 12.62C220.275 12.62 219.839 12.488 219.439 12.224C219.047 11.952 218.731 11.584 218.491 11.12C218.259 10.648 218.143 10.112 218.143 9.512C218.143 8.912 218.263 8.376 218.503 7.904C218.743 7.432 219.067 7.06 219.475 6.788C219.891 6.516 220.355 6.38 220.867 6.38C221.427 6.38 221.851 6.524 222.139 6.812C222.435 7.092 222.635 7.468 222.739 7.94C222.851 8.412 222.907 8.936 222.907 9.512C222.907 9.816 222.875 10.148 222.811 10.508C222.747 10.86 222.635 11.2 222.475 11.528C222.323 11.848 222.107 12.112 221.827 12.32C221.547 12.52 221.187 12.62 220.747 12.62ZM220.987 11.708C221.395 11.708 221.731 11.608 221.995 11.408C222.267 11.208 222.467 10.944 222.595 10.616C222.723 10.28 222.787 9.912 222.787 9.512C222.787 9.072 222.719 8.688 222.583 8.36C222.455 8.024 222.255 7.764 221.983 7.58C221.719 7.388 221.387 7.292 220.987 7.292C220.387 7.292 219.923 7.504 219.595 7.928C219.267 8.344 219.103 8.872 219.103 9.512C219.103 9.936 219.183 10.316 219.343 10.652C219.511 10.98 219.735 11.24 220.015 11.432C220.303 11.616 220.627 11.708 220.987 11.708ZM222.787 6.5H223.747V12.5H222.871C222.871 12.5 222.863 12.428 222.847 12.284C222.839 12.14 222.827 11.972 222.811 11.78C222.795 11.588 222.787 11.428 222.787 11.3V6.5ZM225.311 6.5H226.271V12.5H225.311V6.5ZM228.335 6.38C228.655 6.38 228.943 6.428 229.199 6.524C229.455 6.62 229.671 6.76 229.847 6.944C230.023 7.128 230.159 7.352 230.255 7.616C230.351 7.872 230.399 8.164 230.399 8.492V12.5H229.439V8.732C229.439 8.268 229.331 7.92 229.115 7.688C228.899 7.456 228.575 7.34 228.143 7.34C227.815 7.34 227.511 7.424 227.231 7.592C226.951 7.76 226.719 7.992 226.535 8.288C226.359 8.576 226.251 8.912 226.211 9.296L226.199 8.6C226.239 8.264 226.319 7.96 226.439 7.688C226.567 7.416 226.723 7.184 226.907 6.992C227.099 6.792 227.315 6.64 227.555 6.536C227.803 6.432 228.063 6.38 228.335 6.38ZM234.224 12.62C233.744 12.62 233.304 12.488 232.904 12.224C232.512 11.952 232.2 11.584 231.968 11.12C231.736 10.648 231.62 10.112 231.62 9.512C231.62 8.912 231.732 8.376 231.956 7.904C232.18 7.432 232.488 7.06 232.88 6.788C233.272 6.516 233.72 6.38 234.224 6.38C234.672 6.38 235.036 6.464 235.316 6.632C235.604 6.792 235.824 7.016 235.976 7.304C236.128 7.592 236.232 7.924 236.288 8.3C236.352 8.676 236.384 9.08 236.384 9.512C236.384 9.816 236.352 10.148 236.288 10.508C236.224 10.86 236.112 11.2 235.952 11.528C235.8 11.848 235.584 12.112 235.304 12.32C235.024 12.52 234.664 12.62 234.224 12.62ZM234.464 11.708C234.872 11.708 235.208 11.608 235.472 11.408C235.744 11.208 235.944 10.944 236.072 10.616C236.2 10.28 236.264 9.912 236.264 9.512C236.264 9.072 236.196 8.688 236.06 8.36C235.932 8.024 235.732 7.764 235.46 7.58C235.196 7.388 234.864 7.292 234.464 7.292C233.864 7.292 233.4 7.504 233.072 7.928C232.744 8.344 232.58 8.872 232.58 9.512C232.58 9.936 232.66 10.316 232.82 10.652C232.988 10.98 233.212 11.24 233.492 11.432C233.78 11.616 234.104 11.708 234.464 11.708ZM236.264 4.1H237.224V12.5H236.348C236.332 12.324 236.312 12.116 236.288 11.876C236.272 11.636 236.264 11.444 236.264 11.3V4.1ZM246.811 10.244C246.755 10.74 246.595 11.168 246.331 11.528C246.075 11.88 245.751 12.152 245.359 12.344C244.967 12.528 244.543 12.62 244.087 12.62C243.575 12.62 243.095 12.496 242.647 12.248C242.199 12 241.835 11.644 241.555 11.18C241.283 10.708 241.147 10.152 241.147 9.512C241.147 8.872 241.283 8.32 241.555 7.856C241.835 7.384 242.199 7.02 242.647 6.764C243.095 6.508 243.575 6.38 244.087 6.38C244.543 6.38 244.963 6.476 245.347 6.668C245.739 6.86 246.063 7.132 246.319 7.484C246.583 7.836 246.747 8.256 246.811 8.744H245.935C245.799 8.288 245.563 7.932 245.227 7.676C244.891 7.412 244.511 7.28 244.087 7.28C243.743 7.28 243.419 7.368 243.115 7.544C242.811 7.72 242.567 7.976 242.383 8.312C242.199 8.64 242.107 9.04 242.107 9.512C242.107 9.976 242.199 10.376 242.383 10.712C242.567 11.04 242.807 11.292 243.103 11.468C243.407 11.636 243.735 11.72 244.087 11.72C244.575 11.72 244.971 11.592 245.275 11.336C245.587 11.072 245.811 10.708 245.947 10.244H246.811ZM253.122 12.5H252.162V6.5H253.122V12.5ZM252.222 9.704L252.234 10.04C252.226 10.136 252.202 10.284 252.162 10.484C252.13 10.684 252.07 10.908 251.982 11.156C251.902 11.396 251.782 11.628 251.622 11.852C251.47 12.076 251.27 12.26 251.022 12.404C250.782 12.548 250.482 12.62 250.122 12.62C249.89 12.62 249.65 12.584 249.402 12.512C249.162 12.448 248.938 12.34 248.73 12.188C248.522 12.028 248.354 11.808 248.226 11.528C248.098 11.248 248.034 10.9 248.034 10.484V6.5H248.994V10.244C248.994 10.604 249.05 10.888 249.162 11.096C249.282 11.296 249.442 11.44 249.642 11.528C249.842 11.616 250.066 11.66 250.314 11.66C250.722 11.66 251.062 11.556 251.334 11.348C251.606 11.14 251.814 10.884 251.958 10.58C252.102 10.276 252.19 9.984 252.222 9.704ZM254.678 6.5H255.638V12.5H254.678V6.5ZM257.702 6.38C258.022 6.38 258.31 6.428 258.566 6.524C258.822 6.62 259.038 6.76 259.214 6.944C259.39 7.128 259.526 7.352 259.622 7.616C259.718 7.872 259.766 8.164 259.766 8.492V12.5H258.806V8.732C258.806 8.268 258.698 7.92 258.482 7.688C258.266 7.456 257.942 7.34 257.51 7.34C257.182 7.34 256.878 7.424 256.598 7.592C256.318 7.76 256.086 7.992 255.902 8.288C255.726 8.576 255.618 8.912 255.578 9.296L255.566 8.6C255.606 8.264 255.686 7.96 255.806 7.688C255.934 7.416 256.09 7.184 256.274 6.992C256.466 6.792 256.682 6.64 256.922 6.536C257.17 6.432 257.43 6.38 257.702 6.38ZM261.734 6.38C262.054 6.38 262.342 6.428 262.598 6.524C262.854 6.62 263.07 6.76 263.246 6.944C263.422 7.128 263.558 7.352 263.654 7.616C263.75 7.872 263.798 8.164 263.798 8.492V12.5H262.838V8.732C262.838 8.268 262.73 7.92 262.514 7.688C262.298 7.456 261.974 7.34 261.542 7.34C261.214 7.34 260.91 7.424 260.63 7.592C260.35 7.76 260.118 7.992 259.934 8.288C259.758 8.576 259.65 8.912 259.61 9.296L259.598 8.6C259.638 8.264 259.718 7.96 259.838 7.688C259.966 7.416 260.122 7.184 260.306 6.992C260.498 6.792 260.714 6.64 260.954 6.536C261.202 6.432 261.462 6.38 261.734 6.38ZM265.354 6.5H266.314V12.5H265.354V6.5ZM268.378 6.38C268.698 6.38 268.986 6.428 269.242 6.524C269.498 6.62 269.714 6.76 269.89 6.944C270.066 7.128 270.202 7.352 270.298 7.616C270.394 7.872 270.442 8.164 270.442 8.492V12.5H269.482V8.732C269.482 8.268 269.374 7.92 269.158 7.688C268.942 7.456 268.618 7.34 268.186 7.34C267.858 7.34 267.554 7.424 267.274 7.592C266.994 7.76 266.762 7.992 266.578 8.288C266.402 8.576 266.294 8.912 266.254 9.296L266.242 8.6C266.282 8.264 266.362 7.96 266.482 7.688C266.61 7.416 266.766 7.184 266.95 6.992C267.142 6.792 267.358 6.64 267.598 6.536C267.846 6.432 268.106 6.38 268.378 6.38ZM272.41 6.38C272.73 6.38 273.018 6.428 273.274 6.524C273.53 6.62 273.746 6.76 273.922 6.944C274.098 7.128 274.234 7.352 274.33 7.616C274.426 7.872 274.474 8.164 274.474 8.492V12.5H273.514V8.732C273.514 8.268 273.406 7.92 273.19 7.688C272.974 7.456 272.65 7.34 272.218 7.34C271.89 7.34 271.586 7.424 271.306 7.592C271.026 7.76 270.794 7.992 270.61 8.288C270.434 8.576 270.326 8.912 270.286 9.296L270.274 8.6C270.314 8.264 270.394 7.96 270.514 7.688C270.642 7.416 270.798 7.184 270.982 6.992C271.174 6.792 271.39 6.64 271.63 6.536C271.878 6.432 272.138 6.38 272.41 6.38ZM281.118 12.5H280.158V6.5H281.118V12.5ZM280.218 9.704L280.23 10.04C280.222 10.136 280.198 10.284 280.158 10.484C280.126 10.684 280.066 10.908 279.978 11.156C279.898 11.396 279.778 11.628 279.618 11.852C279.466 12.076 279.266 12.26 279.018 12.404C278.778 12.548 278.478 12.62 278.118 12.62C277.886 12.62 277.646 12.584 277.398 12.512C277.158 12.448 276.934 12.34 276.726 12.188C276.518 12.028 276.35 11.808 276.222 11.528C276.094 11.248 276.03 10.9 276.03 10.484V6.5H276.99V10.244C276.99 10.604 277.046 10.888 277.158 11.096C277.278 11.296 277.438 11.44 277.638 11.528C277.838 11.616 278.062 11.66 278.31 11.66C278.718 11.66 279.058 11.556 279.33 11.348C279.602 11.14 279.81 10.884 279.954 10.58C280.098 10.276 280.186 9.984 280.218 9.704ZM282.795 4.1H283.755V12.5H282.795V4.1ZM287.708 12.62C287.236 12.62 286.8 12.488 286.4 12.224C286.008 11.952 285.692 11.584 285.452 11.12C285.22 10.648 285.104 10.112 285.104 9.512C285.104 8.912 285.224 8.376 285.464 7.904C285.704 7.432 286.028 7.06 286.436 6.788C286.852 6.516 287.316 6.38 287.828 6.38C288.388 6.38 288.812 6.524 289.1 6.812C289.396 7.092 289.596 7.468 289.7 7.94C289.812 8.412 289.868 8.936 289.868 9.512C289.868 9.816 289.836 10.148 289.772 10.508C289.708 10.86 289.596 11.2 289.436 11.528C289.284 11.848 289.068 12.112 288.788 12.32C288.508 12.52 288.148 12.62 287.708 12.62ZM287.948 11.708C288.356 11.708 288.692 11.608 288.956 11.408C289.228 11.208 289.428 10.944 289.556 10.616C289.684 10.28 289.748 9.912 289.748 9.512C289.748 9.072 289.68 8.688 289.544 8.36C289.416 8.024 289.216 7.764 288.944 7.58C288.68 7.388 288.348 7.292 287.948 7.292C287.348 7.292 286.884 7.504 286.556 7.928C286.228 8.344 286.064 8.872 286.064 9.512C286.064 9.936 286.144 10.316 286.304 10.652C286.472 10.98 286.696 11.24 286.976 11.432C287.264 11.616 287.588 11.708 287.948 11.708ZM289.748 6.5H290.708V12.5H289.832C289.832 12.5 289.824 12.428 289.808 12.284C289.8 12.14 289.788 11.972 289.772 11.78C289.756 11.588 289.748 11.428 289.748 11.3V6.5ZM291.852 6.5H295.38V7.4H291.852V6.5ZM293.136 4.94H294.096V12.5H293.136V4.94ZM297.702 4.1V5.264H296.454V4.1H297.702ZM296.598 6.5H297.558V12.5H296.598V6.5ZM301.514 11.672H301.226L303.062 6.5H304.106L301.826 12.5H300.926L298.658 6.5H299.702L301.514 11.672ZM309.2 10.568H310.1C310.036 10.96 309.892 11.312 309.668 11.624C309.452 11.928 309.164 12.172 308.804 12.356C308.452 12.532 308.044 12.62 307.58 12.62C307.02 12.62 306.516 12.488 306.068 12.224C305.62 11.952 305.264 11.584 305 11.12C304.744 10.648 304.616 10.112 304.616 9.512C304.616 8.912 304.74 8.376 304.988 7.904C305.244 7.432 305.592 7.06 306.032 6.788C306.472 6.516 306.968 6.38 307.52 6.38C308.104 6.38 308.596 6.512 308.996 6.776C309.404 7.032 309.704 7.412 309.896 7.916C310.096 8.412 310.176 9.024 310.136 9.752H305.576C305.616 10.144 305.724 10.488 305.9 10.784C306.076 11.08 306.308 11.312 306.596 11.48C306.884 11.64 307.212 11.72 307.58 11.72C307.988 11.72 308.332 11.616 308.612 11.408C308.9 11.192 309.096 10.912 309.2 10.568ZM307.556 7.28C307.06 7.28 306.644 7.424 306.308 7.712C305.972 8 305.748 8.392 305.636 8.888H309.152C309.12 8.36 308.948 7.96 308.636 7.688C308.332 7.416 307.972 7.28 307.556 7.28ZM317.073 12.62C316.633 12.62 316.273 12.52 315.993 12.32C315.713 12.112 315.493 11.848 315.333 11.528C315.181 11.2 315.073 10.86 315.009 10.508C314.945 10.148 314.913 9.816 314.913 9.512C314.913 9.08 314.941 8.676 314.997 8.3C315.061 7.924 315.169 7.592 315.321 7.304C315.473 7.016 315.689 6.792 315.969 6.632C316.257 6.464 316.625 6.38 317.073 6.38C317.577 6.38 318.025 6.516 318.417 6.788C318.809 7.06 319.117 7.432 319.341 7.904C319.565 8.376 319.677 8.912 319.677 9.512C319.677 10.112 319.561 10.648 319.329 11.12C319.097 11.584 318.785 11.952 318.393 12.224C318.001 12.488 317.561 12.62 317.073 12.62ZM316.833 11.708C317.201 11.708 317.525 11.616 317.805 11.432C318.085 11.24 318.305 10.98 318.465 10.652C318.633 10.316 318.717 9.936 318.717 9.512C318.717 8.872 318.553 8.344 318.225 7.928C317.897 7.504 317.433 7.292 316.833 7.292C316.433 7.292 316.097 7.388 315.825 7.58C315.561 7.764 315.361 8.024 315.225 8.36C315.097 8.688 315.033 9.072 315.033 9.512C315.033 9.912 315.097 10.28 315.225 10.616C315.361 10.944 315.561 11.208 315.825 11.408C316.089 11.608 316.425 11.708 316.833 11.708ZM315.033 4.1V11.3C315.033 11.444 315.021 11.636 314.997 11.876C314.981 12.116 314.965 12.324 314.949 12.5H314.073V4.1H315.033ZM323.169 12.62C322.697 12.62 322.261 12.488 321.861 12.224C321.469 11.952 321.153 11.584 320.913 11.12C320.681 10.648 320.565 10.112 320.565 9.512C320.565 8.912 320.685 8.376 320.925 7.904C321.165 7.432 321.489 7.06 321.897 6.788C322.313 6.516 322.777 6.38 323.289 6.38C323.849 6.38 324.273 6.524 324.561 6.812C324.857 7.092 325.057 7.468 325.161 7.94C325.273 8.412 325.329 8.936 325.329 9.512C325.329 9.816 325.297 10.148 325.233 10.508C325.169 10.86 325.057 11.2 324.897 11.528C324.745 11.848 324.529 12.112 324.249 12.32C323.969 12.52 323.609 12.62 323.169 12.62ZM323.409 11.708C323.817 11.708 324.153 11.608 324.417 11.408C324.689 11.208 324.889 10.944 325.017 10.616C325.145 10.28 325.209 9.912 325.209 9.512C325.209 9.072 325.141 8.688 325.005 8.36C324.877 8.024 324.677 7.764 324.405 7.58C324.141 7.388 323.809 7.292 323.409 7.292C322.809 7.292 322.345 7.504 322.017 7.928C321.689 8.344 321.525 8.872 321.525 9.512C321.525 9.936 321.605 10.316 321.765 10.652C321.933 10.98 322.157 11.24 322.437 11.432C322.725 11.616 323.049 11.708 323.409 11.708ZM325.209 6.5H326.169V12.5H325.293C325.293 12.5 325.285 12.428 325.269 12.284C325.261 12.14 325.249 11.972 325.233 11.78C325.217 11.588 325.209 11.428 325.209 11.3V6.5ZM327.853 4.1H328.813V12.5H327.853V4.1ZM332.767 12.62C332.295 12.62 331.859 12.488 331.459 12.224C331.067 11.952 330.751 11.584 330.511 11.12C330.279 10.648 330.163 10.112 330.163 9.512C330.163 8.912 330.283 8.376 330.523 7.904C330.763 7.432 331.087 7.06 331.495 6.788C331.911 6.516 332.375 6.38 332.887 6.38C333.447 6.38 333.871 6.524 334.159 6.812C334.455 7.092 334.655 7.468 334.759 7.94C334.871 8.412 334.927 8.936 334.927 9.512C334.927 9.816 334.895 10.148 334.831 10.508C334.767 10.86 334.655 11.2 334.495 11.528C334.343 11.848 334.127 12.112 333.847 12.32C333.567 12.52 333.207 12.62 332.767 12.62ZM333.007 11.708C333.415 11.708 333.751 11.608 334.015 11.408C334.287 11.208 334.487 10.944 334.615 10.616C334.743 10.28 334.807 9.912 334.807 9.512C334.807 9.072 334.739 8.688 334.603 8.36C334.475 8.024 334.275 7.764 334.003 7.58C333.739 7.388 333.407 7.292 333.007 7.292C332.407 7.292 331.943 7.504 331.615 7.928C331.287 8.344 331.123 8.872 331.123 9.512C331.123 9.936 331.203 10.316 331.363 10.652C331.531 10.98 331.755 11.24 332.035 11.432C332.323 11.616 332.647 11.708 333.007 11.708ZM334.807 6.5H335.767V12.5H334.891C334.891 12.5 334.883 12.428 334.867 12.284C334.859 12.14 334.847 11.972 334.831 11.78C334.815 11.588 334.807 11.428 334.807 11.3V6.5ZM337.331 6.5H338.291V12.5H337.331V6.5ZM340.355 6.38C340.675 6.38 340.963 6.428 341.219 6.524C341.475 6.62 341.691 6.76 341.867 6.944C342.043 7.128 342.179 7.352 342.275 7.616C342.371 7.872 342.419 8.164 342.419 8.492V12.5H341.459V8.732C341.459 8.268 341.351 7.92 341.135 7.688C340.919 7.456 340.595 7.34 340.163 7.34C339.835 7.34 339.531 7.424 339.251 7.592C338.971 7.76 338.739 7.992 338.555 8.288C338.379 8.576 338.271 8.912 338.231 9.296L338.219 8.6C338.259 8.264 338.339 7.96 338.459 7.688C338.587 7.416 338.743 7.184 338.927 6.992C339.119 6.792 339.335 6.64 339.575 6.536C339.823 6.432 340.083 6.38 340.355 6.38ZM349.303 10.244C349.247 10.74 349.087 11.168 348.823 11.528C348.567 11.88 348.243 12.152 347.851 12.344C347.459 12.528 347.035 12.62 346.579 12.62C346.067 12.62 345.587 12.496 345.139 12.248C344.691 12 344.327 11.644 344.047 11.18C343.775 10.708 343.639 10.152 343.639 9.512C343.639 8.872 343.775 8.32 344.047 7.856C344.327 7.384 344.691 7.02 345.139 6.764C345.587 6.508 346.067 6.38 346.579 6.38C347.035 6.38 347.455 6.476 347.839 6.668C348.231 6.86 348.555 7.132 348.811 7.484C349.075 7.836 349.239 8.256 349.303 8.744H348.427C348.291 8.288 348.055 7.932 347.719 7.676C347.383 7.412 347.003 7.28 346.579 7.28C346.235 7.28 345.911 7.368 345.607 7.544C345.303 7.72 345.059 7.976 344.875 8.312C344.691 8.64 344.599 9.04 344.599 9.512C344.599 9.976 344.691 10.376 344.875 10.712C345.059 11.04 345.299 11.292 345.595 11.468C345.899 11.636 346.227 11.72 346.579 11.72C347.067 11.72 347.463 11.592 347.767 11.336C348.079 11.072 348.303 10.708 348.439 10.244H349.303ZM354.774 10.568H355.674C355.61 10.96 355.466 11.312 355.242 11.624C355.026 11.928 354.738 12.172 354.378 12.356C354.026 12.532 353.618 12.62 353.154 12.62C352.594 12.62 352.09 12.488 351.642 12.224C351.194 11.952 350.838 11.584 350.574 11.12C350.318 10.648 350.19 10.112 350.19 9.512C350.19 8.912 350.314 8.376 350.562 7.904C350.818 7.432 351.166 7.06 351.606 6.788C352.046 6.516 352.542 6.38 353.094 6.38C353.678 6.38 354.17 6.512 354.57 6.776C354.978 7.032 355.278 7.412 355.47 7.916C355.67 8.412 355.75 9.024 355.71 9.752H351.15C351.19 10.144 351.298 10.488 351.474 10.784C351.65 11.08 351.882 11.312 352.17 11.48C352.458 11.64 352.786 11.72 353.154 11.72C353.562 11.72 353.906 11.616 354.186 11.408C354.474 11.192 354.67 10.912 354.774 10.568ZM353.13 7.28C352.634 7.28 352.218 7.424 351.882 7.712C351.546 8 351.322 8.392 351.21 8.888H354.726C354.694 8.36 354.522 7.96 354.21 7.688C353.906 7.416 353.546 7.28 353.13 7.28ZM362.072 12.62C361.56 12.62 361.08 12.496 360.632 12.248C360.184 12 359.82 11.644 359.54 11.18C359.268 10.708 359.132 10.152 359.132 9.512C359.132 8.872 359.268 8.32 359.54 7.856C359.82 7.384 360.184 7.02 360.632 6.764C361.08 6.508 361.56 6.38 362.072 6.38C362.584 6.38 363.06 6.508 363.5 6.764C363.948 7.02 364.308 7.384 364.58 7.856C364.852 8.32 364.988 8.872 364.988 9.512C364.988 10.152 364.852 10.708 364.58 11.18C364.308 11.644 363.948 12 363.5 12.248C363.06 12.496 362.584 12.62 362.072 12.62ZM362.072 11.72C362.408 11.72 362.724 11.636 363.02 11.468C363.316 11.3 363.556 11.052 363.74 10.724C363.932 10.388 364.028 9.984 364.028 9.512C364.028 9.04 363.932 8.64 363.74 8.312C363.556 7.976 363.316 7.72 363.02 7.544C362.724 7.368 362.408 7.28 362.072 7.28C361.736 7.28 361.416 7.368 361.112 7.544C360.816 7.712 360.572 7.964 360.38 8.3C360.188 8.628 360.092 9.032 360.092 9.512C360.092 9.984 360.184 10.388 360.368 10.724C360.56 11.052 360.808 11.3 361.112 11.468C361.416 11.636 361.736 11.72 362.072 11.72ZM365.669 6.5H369.197V7.4H365.669V6.5ZM368.777 4.1H369.329V5.06H368.777C368.577 5.052 368.393 5.08 368.225 5.144C368.065 5.208 367.937 5.32 367.841 5.48C367.745 5.632 367.697 5.852 367.697 6.14V12.5H366.737V6.14C366.737 5.66 366.821 5.272 366.989 4.976C367.165 4.672 367.405 4.452 367.709 4.316C368.021 4.172 368.377 4.1 368.777 4.1Z" fill="#9CA3AF"/>
<path d="M166.036 12.5H164.86V3.824H166.036L170.476 10.532V3.824H171.652V12.5H170.476L166.036 5.792V12.5ZM179.072 12.488L173.216 12.5V11.6L176.012 9.188C177.416 7.976 177.812 7.388 177.812 6.464C177.812 5.372 177.188 4.724 176.144 4.724C175.076 4.724 174.38 5.504 174.356 6.74H173.18C173.216 4.88 174.392 3.668 176.156 3.668C177.896 3.668 179.012 4.724 179.012 6.392C179.012 7.628 178.4 8.504 176.864 9.836L175.064 11.396H179.072V12.488ZM180.154 8.168C180.154 5.48 181.546 3.656 183.73 3.656C185.902 3.656 187.294 5.48 187.294 8.168C187.294 10.868 185.962 12.656 183.73 12.656C181.486 12.656 180.154 10.868 180.154 8.168ZM181.318 8.168C181.318 10.304 182.206 11.6 183.73 11.6C185.254 11.6 186.13 10.304 186.13 8.168C186.13 6.008 185.254 4.712 183.73 4.712C182.206 4.712 181.318 6.008 181.318 8.168ZM189.903 12.032C189.903 12.896 189.255 13.616 188.403 13.724V13.22C188.895 13.136 189.243 12.812 189.243 12.44C189.159 12.488 189.063 12.512 188.919 12.512C188.523 12.512 188.187 12.224 188.187 11.78C188.187 11.3 188.511 10.952 188.991 10.952C189.495 10.952 189.903 11.372 189.903 12.032ZM190.807 8.168C190.807 5.48 192.199 3.656 194.383 3.656C196.555 3.656 197.947 5.48 197.947 8.168C197.947 10.868 196.615 12.656 194.383 12.656C192.139 12.656 190.807 10.868 190.807 8.168ZM191.971 8.168C191.971 10.304 192.859 11.6 194.383 11.6C195.907 11.6 196.783 10.304 196.783 8.168C196.783 6.008 195.907 4.712 194.383 4.712C192.859 4.712 191.971 6.008 191.971 8.168ZM199.127 8.168C199.127 5.48 200.519 3.656 202.703 3.656C204.875 3.656 206.267 5.48 206.267 8.168C206.267 10.868 204.935 12.656 202.703 12.656C200.459 12.656 199.127 10.868 199.127 8.168ZM200.291 8.168C200.291 10.304 201.179 11.6 202.703 11.6C204.227 11.6 205.103 10.304 205.103 8.168C205.103 6.008 204.227 4.712 202.703 4.712C201.179 4.712 200.291 6.008 200.291 8.168ZM207.447 8.168C207.447 5.48 208.839 3.656 211.023 3.656C213.195 3.656 214.587 5.48 214.587 8.168C214.587 10.868 213.255 12.656 211.023 12.656C208.779 12.656 207.447 10.868 207.447 8.168ZM208.611 8.168C208.611 10.304 209.499 11.6 211.023 11.6C212.547 11.6 213.423 10.304 213.423 8.168C213.423 6.008 212.547 4.712 211.023 4.712C209.499 4.712 208.611 6.008 208.611 8.168ZM374.172 12.5H372.996V3.824H374.172L378.612 10.532V3.824H379.788V12.5H378.612L374.172 5.792V12.5ZM387.209 12.488L381.353 12.5V11.6L384.149 9.188C385.553 7.976 385.949 7.388 385.949 6.464C385.949 5.372 385.325 4.724 384.281 4.724C383.213 4.724 382.517 5.504 382.493 6.74H381.317C381.353 4.88 382.529 3.668 384.293 3.668C386.033 3.668 387.149 4.724 387.149 6.392C387.149 7.628 386.537 8.504 385.001 9.836L383.201 11.396H387.209V12.488ZM388.291 8.168C388.291 5.48 389.683 3.656 391.867 3.656C394.039 3.656 395.431 5.48 395.431 8.168C395.431 10.868 394.099 12.656 391.867 12.656C389.623 12.656 388.291 10.868 388.291 8.168ZM389.455 8.168C389.455 10.304 390.343 11.6 391.867 11.6C393.391 11.6 394.267 10.304 394.267 8.168C394.267 6.008 393.391 4.712 391.867 4.712C390.343 4.712 389.455 6.008 389.455 8.168ZM396.611 8.168C396.611 5.48 398.003 3.656 400.187 3.656C402.359 3.656 403.751 5.48 403.751 8.168C403.751 10.868 402.419 12.656 400.187 12.656C397.943 12.656 396.611 10.868 396.611 8.168ZM397.775 8.168C397.775 10.304 398.663 11.6 400.187 11.6C401.711 11.6 402.587 10.304 402.587 8.168C402.587 6.008 401.711 4.712 400.187 4.712C398.663 4.712 397.775 6.008 397.775 8.168ZM406.36 12.032C406.36 12.896 405.712 13.616 404.86 13.724V13.22C405.352 13.136 405.7 12.812 405.7 12.44C405.616 12.488 405.52 12.512 405.376 12.512C404.98 12.512 404.644 12.224 404.644 11.78C404.644 11.3 404.968 10.952 405.448 10.952C405.952 10.952 406.36 11.372 406.36 12.032ZM407.264 8.168C407.264 5.48 408.656 3.656 410.84 3.656C413.012 3.656 414.404 5.48 414.404 8.168C414.404 10.868 413.072 12.656 410.84 12.656C408.596 12.656 407.264 10.868 407.264 8.168ZM408.428 8.168C408.428 10.304 409.316 11.6 410.84 11.6C412.364 11.6 413.24 10.304 413.24 8.168C413.24 6.008 412.364 4.712 410.84 4.712C409.316 4.712 408.428 6.008 408.428 8.168ZM415.584 8.168C415.584 5.48 416.976 3.656 419.16 3.656C421.332 3.656 422.724 5.48 422.724 8.168C422.724 10.868 421.392 12.656 419.16 12.656C416.916 12.656 415.584 10.868 415.584 8.168ZM416.748 8.168C416.748 10.304 417.636 11.6 419.16 11.6C420.684 11.6 421.56 10.304 421.56 8.168C421.56 6.008 420.684 4.712 419.16 4.712C417.636 4.712 416.748 6.008 416.748 8.168ZM423.904 8.168C423.904 5.48 425.296 3.656 427.48 3.656C429.652 3.656 431.044 5.48 431.044 8.168C431.044 10.868 429.712 12.656 427.48 12.656C425.236 12.656 423.904 10.868 423.904 8.168ZM425.068 8.168C425.068 10.304 425.956 11.6 427.48 11.6C429.004 11.6 429.88 10.304 429.88 8.168C429.88 6.008 429.004 4.712 427.48 4.712C425.956 4.712 425.068 6.008 425.068 8.168Z" fill="#6B7280"/>
</svg>
