<svg width="20" height="22" viewBox="0 0 20 22" fill="none" xmlns="http://www.w3.org/2000/svg">
<path d="M0.50293 7.64896H2.94007V0.5L5.37722 0.5L9.54474 7.64896H15.1258V0.5L17.5629 0.5V7.64896H20.0001V10.0319H17.5629V12.4149H20.0001V14.7979H17.5629V21.9469H15.1258L10.9461 14.7979H5.37722L5.37722 21.9469H2.94007V14.7979H0.50293L0.50293 12.4149H2.94007V10.0319H0.50293V7.64896ZM5.37722 7.64896H6.75421L5.37722 5.30172V7.64896ZM5.37722 10.0319V12.4149H9.54474L8.15556 10.0319H5.37722ZM15.1258 17.1809V14.7979H13.7244L15.1258 17.1809ZM10.9339 10.0319L12.3353 12.4149H15.1258V10.0319H10.9339Z" fill="white"/>
</svg>
