<svg width="23" height="23" viewBox="0 0 23 23" fill="none" xmlns="http://www.w3.org/2000/svg">
<path d="M11.5192 19.6751C9.28629 19.6751 7.05337 19.3205 4.93545 18.6113C4.13045 18.3334 3.51712 17.768 3.24879 17.0301C2.97087 16.2922 3.0667 15.4776 3.50754 14.7492L4.60962 12.9188C4.83962 12.5355 5.05045 11.7688 5.05045 11.3184V8.54883C5.05045 4.98383 7.9542 2.08008 11.5192 2.08008C15.0842 2.08008 17.988 4.98383 17.988 8.54883V11.3184C17.988 11.7592 18.1988 12.5355 18.4288 12.9284L19.5213 14.7492C19.9334 15.4392 20.01 16.273 19.7321 17.0301C19.4542 17.7872 18.8505 18.3622 18.0934 18.6113C15.985 19.3205 13.7521 19.6751 11.5192 19.6751ZM11.5192 3.51758C8.74962 3.51758 6.48795 5.76966 6.48795 8.54883V11.3184C6.48795 12.018 6.20045 13.053 5.84587 13.6567L4.74379 15.4872C4.53295 15.8417 4.47545 16.2155 4.60004 16.5317C4.71504 16.8576 5.00254 17.1067 5.39545 17.2409C9.40129 18.5826 13.6467 18.5826 17.6525 17.2409C17.9975 17.1259 18.2659 16.8672 18.3905 16.5222C18.515 16.1772 18.4863 15.8034 18.2946 15.4872L17.1925 13.6567C16.8284 13.0338 16.5505 12.0084 16.5505 11.3088V8.54883C16.5505 5.76966 14.2984 3.51758 11.5192 3.51758Z" fill="#041004"/>
<path d="M13.3017 3.77586C13.2346 3.77586 13.1675 3.76628 13.1004 3.74711C12.8225 3.67044 12.5542 3.61294 12.2954 3.57461C11.4808 3.46919 10.695 3.52669 9.95709 3.74711C9.68876 3.83336 9.40126 3.74711 9.21917 3.54586C9.03709 3.34461 8.97959 3.05711 9.08501 2.79836C9.47792 1.79211 10.4363 1.13086 11.5288 1.13086C12.6213 1.13086 13.5796 1.78253 13.9725 2.79836C14.0683 3.05711 14.0204 3.34461 13.8383 3.54586C13.6946 3.69919 13.4933 3.77586 13.3017 3.77586Z" fill="#041004"/>
<path d="M11.5192 21.8594C10.5704 21.8594 9.65041 21.476 8.97958 20.8052C8.30875 20.1344 7.92542 19.2144 7.92542 18.2656H9.36291C9.36291 18.831 9.59291 19.3869 9.99541 19.7894C10.3979 20.1919 10.9537 20.4219 11.5192 20.4219C12.7075 20.4219 13.6754 19.454 13.6754 18.2656H15.1129C15.1129 20.2494 13.5029 21.8594 11.5192 21.8594Z" fill="#041004"/>
</svg>
