<svg width="264" height="250" viewBox="0 0 264 250" fill="none" xmlns="http://www.w3.org/2000/svg">
<circle cx="135.483" cy="124.725" r="124.725" fill="#F1F1F1"/>
<circle cx="135.484" cy="124.726" r="101.952" fill="white"/>
<path d="M135.202 10.7009C135.202 7.55236 132.648 4.98587 129.503 5.13538C115.691 5.79205 102.081 8.83197 89.279 14.1347C74.7196 20.1654 61.4906 29.0048 50.3473 40.1481C39.204 51.2914 30.3646 64.5204 24.3339 79.0798C19.0312 91.8817 15.9913 105.492 15.3346 119.304C15.1851 122.449 17.7516 125.003 20.9001 125.003H21.4987C24.6472 125.003 27.1838 122.449 27.3499 119.305C27.9964 107.069 30.7212 95.0179 35.4207 83.6721C40.8484 70.5687 48.8038 58.6625 58.8328 48.6336C68.8617 38.6046 80.7679 30.6492 93.8714 25.2215C105.217 20.522 117.268 17.7972 129.504 17.1507C132.648 16.9846 135.202 14.4479 135.202 11.2994V10.7009Z" fill="url(#paint0_linear_9791_57026)"/>
<path d="M21.001 129.806C17.8553 129.939 15.3984 132.598 15.6799 135.734C18.2593 164.474 31.1232 191.398 52.0114 211.49C72.8995 231.582 100.302 243.391 129.121 244.852C132.265 245.011 134.828 242.453 134.838 239.305L134.84 238.706C134.85 235.557 132.303 233.013 129.16 232.837C103.431 231.396 78.9921 220.792 60.3304 202.841C41.6688 184.891 30.1236 160.882 27.6846 135.229C27.3866 132.095 24.7448 129.649 21.5991 129.781L21.001 129.806Z" fill="url(#paint1_linear_9791_57026)"/>
<path d="M249.408 120.307C252.554 120.178 255.013 117.521 254.735 114.385C252.262 86.543 240.135 60.3678 220.357 40.449C200.579 20.5302 174.49 8.2183 146.667 5.54878C143.533 5.24808 140.858 7.68862 140.706 10.8335L140.678 11.4314C140.526 14.5762 142.956 17.2329 146.088 17.5502C170.916 20.0647 194.176 31.113 211.842 48.9044C229.507 66.6958 240.391 90.0331 242.729 114.878C243.024 118.013 245.664 120.461 248.81 120.332L249.408 120.307Z" fill="url(#paint2_linear_9791_57026)"/>
<path d="M140.405 239.187C140.548 242.332 143.217 244.779 146.351 244.487C175.221 241.794 202.215 228.724 222.26 207.596C242.304 186.469 253.936 158.824 255.107 129.853C255.234 126.707 252.65 124.171 249.501 124.194L248.903 124.198C245.754 124.22 243.236 126.793 243.092 129.938C241.91 155.805 231.463 180.461 213.554 199.337C195.645 218.214 171.573 229.943 145.804 232.484C142.671 232.793 140.235 235.443 140.378 238.589L140.405 239.187Z" fill="url(#paint3_linear_9791_57026)"/>
<circle cx="90.2021" cy="20.0029" r="10.5558" fill="white" stroke="#199D51" stroke-width="2.22228"/>
<path d="M82.4445 105.832H110.501V110.832L95.2781 146H89.6113L105.001 110.832H82.4445V105.832ZM126.218 146.667C117.996 146.667 112.662 141.444 112.662 133.444H118.051C118.051 138.611 121.218 141.778 126.329 141.778C131.774 141.778 135.274 138.166 135.274 132.722C135.274 127.555 131.996 123.722 126.385 123.722C122.996 123.722 119.885 125.333 118.051 127.611L113.44 126.444L118.329 105.832H138.441V110.832H122.274L119.607 121.499C121.718 119.888 124.385 119.055 127.385 119.055C135.552 119.055 140.83 124.777 140.83 132.5C140.83 140.833 134.885 146.667 126.218 146.667ZM145.542 125.944C145.542 113.499 151.987 105.055 162.098 105.055C172.154 105.055 178.598 113.499 178.598 125.944C178.598 138.444 172.432 146.722 162.098 146.722C151.709 146.722 145.542 138.444 145.542 125.944ZM150.931 125.944C150.931 135.833 155.042 141.833 162.098 141.833C169.154 141.833 173.209 135.833 173.209 125.944C173.209 115.944 169.154 109.944 162.098 109.944C155.042 109.944 150.931 115.944 150.931 125.944Z" fill="black"/>
<path d="M11.7538 54.2345L8.86841 57.5696L3.40068 52.8392L6.28603 49.5041L6.96666 50.0929L4.7225 52.6869L6.43164 54.1656L8.45335 51.8287L9.11129 52.3979L7.08958 54.7348L8.82141 56.2331L11.0656 53.6391L11.7538 54.2345ZM12.9053 52.9034L12.1987 53.7202L11.4874 50.8436L8.50717 50.5132L9.22033 49.6889L11.408 49.9419L10.8233 47.8361L11.5234 47.0269L12.2791 49.9286L15.2018 50.249L14.4887 51.0733L12.3368 50.8248L12.9053 52.9034ZM13.5585 48.4191C12.4015 47.4181 12.2345 45.991 13.1701 44.9095C13.9749 43.9793 15.0669 43.7869 16.0025 44.3715L15.3874 45.0824C14.8139 44.7978 14.2372 44.96 13.825 45.4364C13.2427 46.1095 13.3578 47.0157 14.1595 47.7092C14.9535 48.3962 15.8407 48.4101 16.423 47.737C16.8614 47.2303 16.9238 46.6232 16.5964 46.1151L17.2115 45.4043C17.8888 46.2415 17.8303 47.3942 17.0583 48.2866C16.1161 49.3756 14.7232 49.4267 13.5585 48.4191ZM20.5795 44.2166C19.6373 45.3056 18.2031 45.3738 17.0535 44.3793C15.8965 43.3783 15.7295 41.9512 16.6586 40.8773C17.568 39.8261 18.8894 39.766 19.986 40.7147L20.2507 40.9437L17.7851 43.8089C18.6098 44.4299 19.3942 44.3944 20.0027 43.6911C20.4803 43.1391 20.5675 42.5798 20.2486 42.0924L20.8244 41.4269C21.4614 42.2954 21.3711 43.3015 20.5795 44.2166ZM17.256 41.3942C16.7195 42.0143 16.7498 42.7282 17.3217 43.3816L19.1668 41.249C18.5542 40.719 17.7991 40.7665 17.256 41.3942ZM23.2824 40.9089L22.6674 41.6198L17.1013 36.8043L17.7164 36.0934L23.2824 40.9089ZM24.8159 39.1364L24.2008 39.8473L18.6348 35.0318L19.2498 34.321L24.8159 39.1364ZM27.1925 36.5728C26.2503 37.6618 24.8161 37.73 23.6666 36.7355C22.5095 35.7345 22.3425 34.3074 23.2716 33.2335C24.181 32.1823 25.5024 32.1222 26.599 33.0709L26.8637 33.2999L24.3981 36.1651C25.2228 36.7861 26.0072 36.7506 26.6157 36.0473C27.0933 35.4953 27.1805 34.936 26.8617 34.4486L27.4374 33.7831C28.0745 34.6516 27.9842 35.6577 27.1925 36.5728ZM23.869 33.7504C23.3325 34.3705 23.3629 35.0844 23.9347 35.7378L25.7798 33.6052C25.1672 33.0752 24.4121 33.1227 23.869 33.7504ZM29.8824 33.2802L29.2673 33.9911L25.5693 30.7917L26.1254 30.1489L26.758 30.564C26.5373 29.9631 26.6934 29.2783 27.1449 28.7565C27.9889 27.781 28.9723 27.8516 29.9177 28.6695L32.1789 30.6258L31.5639 31.3367L29.4615 29.5178C28.7128 28.87 28.1093 28.9562 27.6382 29.5007C27.0625 30.1662 27.2052 30.9641 27.9237 31.5857L29.8824 33.2802ZM33.9336 28.5975L33.3186 29.3084L30.2179 26.6259L29.5898 27.3519L28.9924 26.835L29.6205 26.109L28.4634 25.108L29.0784 24.3971L30.2355 25.3981L30.8636 24.6721L31.4611 25.189L30.833 25.915L33.9336 28.5975Z" fill="#D1D5DB"/>
<path d="M246.185 23.7536L241.202 27.64L243.157 30.1477L242.44 30.7073L239.881 27.4268L245.583 22.9808L246.185 23.7536ZM244.671 29.5846C245.862 28.6561 247.362 28.8559 248.266 30.0151C249.164 31.1664 248.992 32.6699 247.801 33.5984C246.61 34.527 245.11 34.3272 244.213 33.1759C243.309 32.0167 243.48 30.5132 244.671 29.5846ZM245.255 30.3338C244.451 30.961 244.291 31.9102 244.875 32.6594C245.453 33.4006 246.419 33.4844 247.223 32.8572C248.027 32.2299 248.181 31.2729 247.603 30.5316C247.019 29.7825 246.06 29.7065 245.255 30.3338ZM247.017 36.5765L249.889 32.3077L250.485 33.0726L248.98 35.2733C248.764 35.5814 248.534 35.8878 248.25 36.2232C248.638 36.0219 249.042 35.8723 249.362 35.7622L251.869 34.8469L252.459 35.6039L250.954 37.8046C250.814 38.0153 250.463 38.492 250.236 38.7703C250.593 38.5935 250.917 38.4554 251.342 38.3014L253.849 37.386L254.452 38.1588L249.569 39.849L249.021 39.1472L250.565 36.8658C250.853 36.4383 251.091 36.1257 251.273 35.9203C251.053 36.0284 250.745 36.1542 250.169 36.3751L247.588 37.3099L247.017 36.5765Z" fill="#D1D5DB"/>
<path d="M242.033 221.48C240.992 222.642 241.222 224.11 242.496 225.25C243.8 226.418 245.233 226.331 246.227 225.221C247.047 224.305 247.238 223.147 246.15 222.173L245.994 222.033L244.38 223.836L243.732 223.256L245.959 220.767L248.932 223.429L248.385 224.04L247.608 223.438C247.818 224.149 247.573 225.111 246.866 225.901C245.499 227.428 243.456 227.492 241.794 226.004C240.155 224.537 239.94 222.438 241.361 220.851C242.415 219.674 243.913 219.365 245.109 220.113L244.415 220.888C243.55 220.476 242.673 220.765 242.033 221.48ZM247.711 221.105C246.586 220.098 246.516 218.586 247.497 217.491C248.471 216.403 249.981 216.306 251.106 217.313C252.231 218.32 252.3 219.832 251.326 220.919C250.346 222.015 248.836 222.112 247.711 221.105ZM248.344 220.397C249.104 221.078 250.067 221.067 250.7 220.359C251.327 219.659 251.239 218.694 250.479 218.013C249.719 217.333 248.75 217.351 248.123 218.051C247.489 218.759 247.584 219.717 248.344 220.397ZM251.586 216.776C250.461 215.769 250.392 214.257 251.372 213.162C252.346 212.074 253.856 211.977 254.981 212.984C256.106 213.991 256.176 215.503 255.202 216.59C254.221 217.686 252.711 217.783 251.586 216.776ZM252.22 216.068C252.98 216.749 253.942 216.738 254.576 216.03C255.203 215.33 255.114 214.364 254.354 213.684C253.595 213.004 252.625 213.022 251.998 213.722C251.365 214.43 251.46 215.388 252.22 216.068ZM258.898 212.462C257.95 213.52 256.587 213.454 255.477 212.46C254.359 211.46 254.12 210.078 255.087 208.997C255.588 208.439 256.254 208.189 256.921 208.344L254.492 206.169L255.112 205.476L260.596 210.386L260.036 211.012L259.319 210.477C259.605 211.163 259.418 211.881 258.898 212.462ZM258.391 211.754C259.031 211.039 258.896 210.126 258.136 209.445C257.391 208.778 256.461 208.737 255.821 209.453C255.18 210.168 255.343 211.065 256.088 211.732C256.841 212.406 257.751 212.469 258.391 211.754Z" fill="#D1D5DB"/>
<path d="M20.8708 225.217L18.7887 223.286L16.7008 225.536L15.9824 224.87L20.8995 219.57L24.0959 222.535L23.4838 223.195L21.0059 220.896L19.394 222.633L21.4761 224.565L20.8708 225.217ZM20.6048 229.322C19.835 228.608 19.7818 227.753 20.3871 227.101C20.9991 226.441 21.8712 226.486 22.7755 227.202L23.9861 228.162L24.0813 228.059C24.639 227.458 24.477 226.912 23.9931 226.463C23.414 225.926 22.846 225.877 22.4448 226.309L21.8436 225.751C22.5373 225.004 23.6088 225.084 24.5325 225.941C25.4196 226.764 25.5855 227.79 24.6878 228.758L22.5999 231.009L22.0134 230.465L22.4773 229.818C21.9132 230.058 21.184 229.859 20.6048 229.322ZM21.2992 228.97C21.9517 229.576 22.7421 229.518 23.3677 228.843L23.5446 228.652L22.5602 227.876C21.8973 227.37 21.4304 227.373 21.1039 227.725C20.7503 228.106 20.852 228.555 21.2992 228.97ZM28.0061 227.772C27.7568 227.54 27.742 227.145 27.9732 226.896C28.2112 226.639 28.6001 226.631 28.8494 226.863C29.0987 227.094 29.1203 227.482 28.8823 227.739C28.651 227.988 28.2553 228.003 28.0061 227.772ZM23.5542 231.894L26.8799 228.309L27.5691 228.949L24.2434 232.534L23.5542 231.894ZM30.6495 231.752L30.0646 232.382L29.7567 232.096C29.1042 231.491 28.3337 231.513 27.6945 232.202L25.933 234.101L25.2439 233.462L28.5627 229.884L29.2079 230.483L28.7486 231.066C29.2421 230.828 29.8325 230.912 30.3237 231.368C30.4484 231.483 30.5374 231.593 30.6495 231.752Z" fill="#D1D5DB"/>
<defs>
<linearGradient id="paint0_linear_9791_57026" x1="84.4646" y1="30.3688" x2="-12.4499" y2="114.456" gradientUnits="userSpaceOnUse">
<stop stop-color="#189C50"/>
<stop offset="1" stop-color="#7EBD4A" stop-opacity="0.81"/>
</linearGradient>
<linearGradient id="paint1_linear_9791_57026" x1="134.917" y1="270.375" x2="4.36759" y2="125.288" gradientUnits="userSpaceOnUse">
<stop stop-color="#E1D432"/>
<stop offset="0.430988" stop-color="#E1D432"/>
<stop offset="1" stop-color="#86C686" stop-opacity="0.04"/>
</linearGradient>
<linearGradient id="paint2_linear_9791_57026" x1="117.53" y1="-38.6115" x2="290.836" y2="175.741" gradientUnits="userSpaceOnUse">
<stop stop-color="#BF2C2C"/>
<stop offset="1" stop-color="#FD9330" stop-opacity="0.56"/>
</linearGradient>
<linearGradient id="paint3_linear_9791_57026" x1="255.205" y1="146.666" x2="134.917" y2="255.553" gradientUnits="userSpaceOnUse">
<stop stop-color="#FD9330"/>
<stop offset="1" stop-color="#E1D432" stop-opacity="0.4"/>
</linearGradient>
</defs>
</svg>
