<svg width="77" height="12" viewBox="0 0 77 12" fill="none" xmlns="http://www.w3.org/2000/svg">
<path d="M5.7037 0L6.98426 3.94116H11.1282L7.77569 6.37693L9.05626 10.3181L5.7037 7.88232L2.35115 10.3181L3.63171 6.37693L0.279159 3.94116H4.42314L5.7037 0Z" fill="#FBBF24"/>
<path d="M22.1021 0L23.3827 3.94116H27.5267L24.1741 6.37693L25.4547 10.3181L22.1021 7.88232L18.7496 10.3181L20.0301 6.37693L16.6776 3.94116H20.8216L22.1021 0Z" fill="#FBBF24"/>
<path d="M38.5006 0L39.7811 3.94116H43.9251L40.5726 6.37693L41.8531 10.3181L38.5006 7.88232L35.148 10.3181L36.4286 6.37693L33.076 3.94116H37.22L38.5006 0Z" fill="#FBBF24"/>
<path d="M54.899 0L56.1796 3.94116H60.3236L56.971 6.37693L58.2516 10.3181L54.899 7.88232L51.5465 10.3181L52.827 6.37693L49.4745 3.94116H53.6185L54.899 0Z" fill="#FBBF24"/>
<path d="M71.2975 0L72.578 3.94116H76.722L73.3694 6.37693L74.65 10.3181L71.2975 7.88232L67.9449 10.3181L69.2255 6.37693L65.8729 3.94116H70.0169L71.2975 0Z" fill="#E5E7EB"/>
</svg>
