<svg width="704" height="241" viewBox="0 0 704 241" fill="none" xmlns="http://www.w3.org/2000/svg">
<rect x="650" width="54" height="22" rx="4" fill="#F9FAFB"/>
<path d="M663.34 14.99L658.46 15V14.25L660.79 12.24C661.96 11.23 662.29 10.74 662.29 9.97C662.29 9.06 661.77 8.52 660.9 8.52C660.01 8.52 659.43 9.17 659.41 10.2H658.43C658.46 8.65 659.44 7.64 660.91 7.64C662.36 7.64 663.29 8.52 663.29 9.91C663.29 10.94 662.78 11.67 661.5 12.78L660 14.08H663.34V14.99ZM664.742 11.39C664.742 9.15 665.902 7.63 667.722 7.63C669.532 7.63 670.692 9.15 670.692 11.39C670.692 13.64 669.582 15.13 667.722 15.13C665.852 15.13 664.742 13.64 664.742 11.39ZM665.712 11.39C665.712 13.17 666.452 14.25 667.722 14.25C668.992 14.25 669.722 13.17 669.722 11.39C669.722 9.59 668.992 8.51 667.722 8.51C666.452 8.51 665.712 9.59 665.712 11.39ZM677.026 14.99L672.146 15V14.25L674.476 12.24C675.646 11.23 675.976 10.74 675.976 9.97C675.976 9.06 675.456 8.52 674.586 8.52C673.696 8.52 673.116 9.17 673.096 10.2H672.116C672.146 8.65 673.126 7.64 674.596 7.64C676.046 7.64 676.976 8.52 676.976 9.91C676.976 10.94 676.466 11.67 675.186 12.78L673.686 14.08H677.026V14.99ZM680.537 11.26H679.817V10.61L681.867 8.64H678.617V7.77H683.107V8.56L681.127 10.45C682.357 10.6 683.287 11.43 683.287 12.73C683.287 14.19 682.187 15.12 680.717 15.12C679.297 15.12 678.277 14.25 678.277 12.75H679.247C679.247 13.69 679.827 14.24 680.737 14.24C681.677 14.24 682.287 13.64 682.287 12.71C682.287 11.84 681.687 11.26 680.537 11.26Z" fill="#041004"/>
<path d="M691.999 12.6002C691.765 12.6002 691.532 12.5102 691.355 12.3335L689.182 10.1602C689.085 10.0635 689.085 9.90354 689.182 9.80687C689.279 9.71021 689.439 9.71021 689.535 9.80687L691.709 11.9802C691.869 12.1402 692.129 12.1402 692.289 11.9802L694.462 9.80687C694.559 9.71021 694.719 9.71021 694.815 9.80687C694.912 9.90354 694.912 10.0635 694.815 10.1602L692.642 12.3335C692.465 12.5102 692.232 12.6002 691.999 12.6002Z" fill="#041004"/>
<path d="M0.882834 15V7.74735H4.61532C5.13683 7.74735 5.58383 7.82558 5.95634 7.98203C6.33629 8.13103 6.62684 8.36198 6.82799 8.67489C7.02915 8.98034 7.12972 9.37147 7.12972 9.84827C7.12972 10.1761 7.07385 10.4555 6.96209 10.6864C6.85779 10.9099 6.71252 11.0962 6.52627 11.2452C6.34001 11.3942 6.12024 11.5096 5.86693 11.5916C5.61363 11.6735 5.3417 11.7257 5.05115 11.748L4.97292 11.681C5.41248 11.6959 5.78126 11.7443 6.07926 11.8263C6.37726 11.9082 6.60449 12.0572 6.76094 12.2733C6.92484 12.4819 7.0068 12.7948 7.0068 13.212V15H5.92281V13.2455C5.92281 12.955 5.87438 12.7277 5.77753 12.5638C5.68068 12.3999 5.51306 12.2844 5.27465 12.2174C5.03625 12.1503 4.701 12.1168 4.26889 12.1168H1.95564V15H0.882834ZM1.95564 11.1781H4.61532C5.09213 11.1781 5.44973 11.0589 5.68813 10.8205C5.93398 10.5821 6.05691 10.2692 6.05691 9.8818C6.05691 9.50929 5.93398 9.22247 5.68813 9.02131C5.44973 8.82016 5.09213 8.71959 4.61532 8.71959H1.95564V11.1781ZM12.5859 13.1896H13.6028C13.5432 13.5547 13.4017 13.8825 13.1782 14.173C12.9547 14.4636 12.6604 14.6945 12.2953 14.8659C11.9303 15.0373 11.5019 15.1229 11.0102 15.1229C10.4291 15.1229 9.91131 15 9.45685 14.7541C9.0024 14.5083 8.64479 14.1693 8.38404 13.7372C8.12329 13.3051 7.99291 12.8022 7.99291 12.2286C7.99291 11.6475 8.11956 11.1409 8.37287 10.7088C8.62617 10.2692 8.97632 9.9265 9.42333 9.68065C9.87033 9.43479 10.3807 9.31187 10.9543 9.31187C11.5578 9.31187 12.0644 9.43107 12.4741 9.66947C12.8839 9.90787 13.1856 10.2618 13.3793 10.7311C13.5805 11.193 13.6624 11.7704 13.6252 12.4632H9.05455C9.0918 12.7985 9.19237 13.0965 9.35628 13.3573C9.52763 13.618 9.75113 13.8229 10.0268 13.9719C10.3099 14.1209 10.634 14.1954 10.999 14.1954C11.4088 14.1954 11.7515 14.1023 12.0271 13.916C12.3028 13.7298 12.489 13.4876 12.5859 13.1896ZM10.9655 10.2282C10.4812 10.2282 10.0789 10.3586 9.75858 10.6194C9.43823 10.8727 9.2259 11.2116 9.1216 11.6363H12.5524C12.5226 11.1818 12.3587 10.8354 12.0607 10.597C11.7626 10.3512 11.3976 10.2282 10.9655 10.2282ZM14.0421 9.45714H17.6964V10.3735H14.0421V9.45714ZM17.0929 7.1886H17.8082V8.17201H17.2047C17.011 8.16456 16.8359 8.19063 16.6795 8.25023C16.523 8.30238 16.4001 8.39923 16.3107 8.54079C16.2287 8.68234 16.1878 8.88721 16.1878 9.15542V15H15.1261V9.09954C15.1261 8.65254 15.2044 8.28748 15.3608 8.00438C15.5247 7.72128 15.7557 7.5164 16.0537 7.38975C16.3517 7.25565 16.6981 7.1886 17.0929 7.1886ZM22.6265 13.1896H23.6434C23.5838 13.5547 23.4422 13.8825 23.2187 14.173C22.9952 14.4636 22.701 14.6945 22.3359 14.8659C21.9709 15.0373 21.5425 15.1229 21.0508 15.1229C20.4697 15.1229 19.9519 15 19.4974 14.7541C19.043 14.5083 18.6854 14.1693 18.4246 13.7372C18.1639 13.3051 18.0335 12.8022 18.0335 12.2286C18.0335 11.6475 18.1601 11.1409 18.4134 10.7088C18.6667 10.2692 19.0169 9.9265 19.4639 9.68065C19.9109 9.43479 20.4212 9.31187 20.9949 9.31187C21.5983 9.31187 22.105 9.43107 22.5147 9.66947C22.9245 9.90787 23.2262 10.2618 23.4199 10.7311C23.621 11.193 23.703 11.7704 23.6657 12.4632H19.0951C19.1324 12.7985 19.2329 13.0965 19.3969 13.3573C19.5682 13.618 19.7917 13.8229 20.0674 13.9719C20.3505 14.1209 20.6745 14.1954 21.0396 14.1954C21.4493 14.1954 21.7921 14.1023 22.0677 13.916C22.3434 13.7298 22.5296 13.4876 22.6265 13.1896ZM21.0061 10.2282C20.5218 10.2282 20.1195 10.3586 19.7992 10.6194C19.4788 10.8727 19.2665 11.2116 19.1622 11.6363H22.5929C22.5631 11.1818 22.3992 10.8354 22.1012 10.597C21.8032 10.3512 21.4382 10.2282 21.0061 10.2282ZM24.5721 9.42362H25.6449V15H24.5721V9.42362ZM27.5335 10.3735C27.1461 10.3735 26.8145 10.4629 26.5389 10.6417C26.2707 10.8205 26.0546 11.0403 25.8907 11.301C25.7343 11.5618 25.63 11.8114 25.5778 12.0498L25.5666 11.4128C25.5741 11.3383 25.5927 11.2228 25.6225 11.0664C25.6598 10.9025 25.7231 10.7199 25.8125 10.5188C25.9019 10.3176 26.0211 10.1277 26.1701 9.94885C26.3191 9.7626 26.5054 9.60987 26.7289 9.49067C26.9524 9.37147 27.2206 9.31187 27.5335 9.31187V10.3735ZM28.2773 9.42362H29.3501V15H28.2773V9.42362ZM31.2387 10.3735C30.8513 10.3735 30.5198 10.4629 30.2441 10.6417C29.9759 10.8205 29.7599 11.0403 29.596 11.301C29.4395 11.5618 29.3352 11.8114 29.2831 12.0498L29.2719 11.4128C29.2793 11.3383 29.298 11.2228 29.3278 11.0664C29.365 10.9025 29.4283 10.7199 29.5177 10.5188C29.6071 10.3176 29.7264 10.1277 29.8754 9.94885C30.0244 9.7626 30.2106 9.60987 30.4341 9.49067C30.6576 9.37147 30.9258 9.31187 31.2387 9.31187V10.3735ZM34.2846 15.1118C33.8078 15.1118 33.372 14.9888 32.9771 14.743C32.5823 14.4971 32.2694 14.1581 32.0384 13.726C31.8075 13.2865 31.692 12.7836 31.692 12.2174C31.692 11.6512 31.8075 11.152 32.0384 10.7199C32.2768 10.2804 32.6009 9.93767 33.0107 9.69182C33.4204 9.43852 33.8786 9.31187 34.3852 9.31187C34.944 9.31187 35.3761 9.44224 35.6815 9.703C35.9944 9.96375 36.2105 10.3139 36.3297 10.7535C36.4563 11.193 36.5197 11.681 36.5197 12.2174C36.5197 12.5154 36.4824 12.832 36.4079 13.1673C36.3334 13.5025 36.2142 13.8192 36.0503 14.1172C35.8864 14.4152 35.6592 14.6573 35.3686 14.8435C35.0781 15.0224 34.7167 15.1118 34.2846 15.1118ZM34.5864 14.1842C34.9812 14.1842 35.3127 14.0985 35.5809 13.9272C35.8566 13.7484 36.0615 13.51 36.1956 13.212C36.3297 12.914 36.3967 12.5825 36.3967 12.2174C36.3967 11.8225 36.326 11.4761 36.1844 11.1781C36.0503 10.8801 35.8454 10.6492 35.5698 10.4853C35.3016 10.3214 34.9738 10.2394 34.5864 10.2394C34.0053 10.2394 33.5545 10.4257 33.2342 10.7982C32.9213 11.1707 32.7648 11.6437 32.7648 12.2174C32.7648 12.6048 32.843 12.9475 32.9995 13.2455C33.1559 13.5361 33.3683 13.767 33.6365 13.9384C33.9121 14.1023 34.2288 14.1842 34.5864 14.1842ZM36.3967 9.42362H37.4695V15H36.4861C36.4861 15 36.4787 14.9329 36.4638 14.7988C36.4489 14.6573 36.434 14.4897 36.4191 14.296C36.4042 14.1023 36.3967 13.9309 36.3967 13.7819V9.42362ZM38.757 7.1886H39.8298V15H38.757V7.1886ZM43.5499 15V7.74735H47.2824C47.8039 7.74735 48.2509 7.82558 48.6234 7.98203C49.0034 8.13103 49.2939 8.36198 49.4951 8.67489C49.6962 8.98034 49.7968 9.37147 49.7968 9.84827C49.7968 10.1761 49.7409 10.4555 49.6292 10.6864C49.5249 10.9099 49.3796 11.0962 49.1934 11.2452C49.0071 11.3942 48.7873 11.5096 48.534 11.5916C48.2807 11.6735 48.0088 11.7257 47.7182 11.748L47.64 11.681C48.0796 11.6959 48.4484 11.7443 48.7464 11.8263C49.0444 11.9082 49.2716 12.0572 49.428 12.2733C49.5919 12.4819 49.6739 12.7948 49.6739 13.212V15H48.5899V13.2455C48.5899 12.955 48.5415 12.7277 48.4446 12.5638C48.3478 12.3999 48.1802 12.2844 47.9418 12.2174C47.7033 12.1503 47.3681 12.1168 46.936 12.1168H44.6227V15H43.5499ZM44.6227 11.1781H47.2824C47.7592 11.1781 48.1168 11.0589 48.3552 10.8205C48.6011 10.5821 48.724 10.2692 48.724 9.8818C48.724 9.50929 48.6011 9.22247 48.3552 9.02131C48.1168 8.82016 47.7592 8.71959 47.2824 8.71959H44.6227V11.1781ZM55.253 13.1896H56.2699C56.2103 13.5547 56.0688 13.8825 55.8453 14.173C55.6218 14.4636 55.3275 14.6945 54.9624 14.8659C54.5974 15.0373 54.169 15.1229 53.6773 15.1229C53.0962 15.1229 52.5784 15 52.124 14.7541C51.6695 14.5083 51.3119 14.1693 51.0511 13.7372C50.7904 13.3051 50.66 12.8022 50.66 12.2286C50.66 11.6475 50.7867 11.1409 51.04 10.7088C51.2933 10.2692 51.6434 9.9265 52.0904 9.68065C52.5374 9.43479 53.0478 9.31187 53.6214 9.31187C54.2249 9.31187 54.7315 9.43107 55.1412 9.66947C55.551 9.90787 55.8527 10.2618 56.0464 10.7311C56.2476 11.193 56.3295 11.7704 56.2923 12.4632H51.7216C51.7589 12.7985 51.8595 13.0965 52.0234 13.3573C52.1947 13.618 52.4182 13.8229 52.6939 13.9719C52.977 14.1209 53.3011 14.1954 53.6661 14.1954C54.0759 14.1954 54.4186 14.1023 54.6942 13.916C54.9699 13.7298 55.1561 13.4876 55.253 13.1896ZM53.6326 10.2282C53.1483 10.2282 52.746 10.3586 52.4257 10.6194C52.1053 10.8727 51.893 11.2116 51.7887 11.6363H55.2195C55.1897 11.1818 55.0258 10.8354 54.7278 10.597C54.4297 10.3512 54.0647 10.2282 53.6326 10.2282ZM63.1259 14.1283L62.8353 14.1172L64.2992 9.42362H65.4614L63.5282 15H62.5224L60.835 10.2282H61.1367L59.4269 15H58.4211L56.5102 9.42362H57.6836L59.1028 14.1172L58.8123 14.1283L60.3544 9.42362H61.6172L63.1259 14.1283ZM68.2696 15.1118C67.7928 15.1118 67.357 14.9888 66.9621 14.743C66.5673 14.4971 66.2544 14.1581 66.0234 13.726C65.7925 13.2865 65.677 12.7836 65.677 12.2174C65.677 11.6512 65.7925 11.152 66.0234 10.7199C66.2618 10.2804 66.5859 9.93767 66.9957 9.69182C67.4054 9.43852 67.8636 9.31187 68.3702 9.31187C68.929 9.31187 69.3611 9.44224 69.6665 9.703C69.9794 9.96375 70.1955 10.3139 70.3147 10.7535C70.4413 11.193 70.5047 11.681 70.5047 12.2174C70.5047 12.5154 70.4674 12.832 70.3929 13.1673C70.3184 13.5025 70.1992 13.8192 70.0353 14.1172C69.8714 14.4152 69.6442 14.6573 69.3536 14.8435C69.0631 15.0224 68.7017 15.1118 68.2696 15.1118ZM68.5714 14.1842C68.9662 14.1842 69.2977 14.0985 69.5659 13.9272C69.8416 13.7484 70.0465 13.51 70.1806 13.212C70.3147 12.914 70.3817 12.5825 70.3817 12.2174C70.3817 11.8225 70.311 11.4761 70.1694 11.1781C70.0353 10.8801 69.8304 10.6492 69.5548 10.4853C69.2866 10.3214 68.9588 10.2394 68.5714 10.2394C67.9903 10.2394 67.5395 10.4257 67.2192 10.7982C66.9063 11.1707 66.7498 11.6437 66.7498 12.2174C66.7498 12.6048 66.828 12.9475 66.9845 13.2455C67.1409 13.5361 67.3533 13.767 67.6215 13.9384C67.8971 14.1023 68.2138 14.1842 68.5714 14.1842ZM70.3817 9.42362H71.4545V15H70.4711C70.4711 15 70.4637 14.9329 70.4488 14.7988C70.4339 14.6573 70.419 14.4897 70.4041 14.296C70.3892 14.1023 70.3817 13.9309 70.3817 13.7819V9.42362ZM72.6303 9.42362H73.7031V15H72.6303V9.42362ZM75.5917 10.3735C75.2043 10.3735 74.8728 10.4629 74.5971 10.6417C74.3289 10.8205 74.1128 11.0403 73.9489 11.301C73.7925 11.5618 73.6882 11.8114 73.636 12.0498L73.6249 11.4128C73.6323 11.3383 73.6509 11.2228 73.6807 11.0664C73.718 10.9025 73.7813 10.7199 73.8707 10.5188C73.9601 10.3176 74.0793 10.1277 74.2283 9.94885C74.3773 9.7626 74.5636 9.60987 74.7871 9.49067C75.0106 9.37147 75.2788 9.31187 75.5917 9.31187V10.3735ZM78.6376 15.1118C78.1534 15.1118 77.7138 14.9888 77.3189 14.743C76.9241 14.4971 76.6112 14.1581 76.3802 13.726C76.1567 13.2865 76.045 12.7836 76.045 12.2174C76.045 11.6512 76.1567 11.152 76.3802 10.7199C76.6037 10.2804 76.9092 9.93767 77.2966 9.69182C77.684 9.43852 78.131 9.31187 78.6376 9.31187C79.0772 9.31187 79.4422 9.38637 79.7328 9.53537C80.0233 9.68437 80.2505 9.89297 80.4144 10.1612C80.5783 10.4294 80.6938 10.7386 80.7609 11.0887C80.8354 11.4389 80.8726 11.8151 80.8726 12.2174C80.8726 12.5154 80.8354 12.832 80.7609 13.1673C80.6864 13.5025 80.5672 13.8192 80.4033 14.1172C80.2394 14.4152 80.0121 14.6573 79.7216 14.8435C79.431 15.0224 79.0697 15.1118 78.6376 15.1118ZM78.9393 14.1842C79.3342 14.1842 79.6657 14.0985 79.9339 13.9272C80.2096 13.7484 80.4144 13.51 80.5485 13.212C80.6827 12.914 80.7497 12.5825 80.7497 12.2174C80.7497 11.8225 80.6789 11.4761 80.5374 11.1781C80.4033 10.8801 80.1984 10.6492 79.9227 10.4853C79.6545 10.3214 79.3267 10.2394 78.9393 10.2394C78.3582 10.2394 77.9075 10.4257 77.5871 10.7982C77.2742 11.1707 77.1178 11.6437 77.1178 12.2174C77.1178 12.6048 77.196 12.9475 77.3525 13.2455C77.5089 13.5361 77.7212 13.767 77.9894 13.9384C78.2651 14.1023 78.5817 14.1842 78.9393 14.1842ZM80.7497 7.1886H81.8225V15H80.8391C80.8168 14.8361 80.7944 14.6349 80.7721 14.3965C80.7572 14.1581 80.7497 13.9533 80.7497 13.7819V7.1886ZM82.9488 13.1896H83.9323C83.9695 13.4876 84.1036 13.7335 84.3346 13.9272C84.5655 14.1134 84.8896 14.2066 85.3068 14.2066C85.575 14.2066 85.7836 14.1768 85.9326 14.1172C86.0816 14.0501 86.1859 13.9607 86.2455 13.849C86.3126 13.7372 86.3461 13.6143 86.3461 13.4802C86.3461 13.3088 86.3014 13.1785 86.212 13.0891C86.1226 12.9922 85.9959 12.914 85.832 12.8544C85.6681 12.7873 85.4744 12.724 85.2509 12.6644C85.0051 12.5974 84.7592 12.5191 84.5134 12.4297C84.2675 12.3403 84.0403 12.2323 83.8317 12.1056C83.6305 11.979 83.4666 11.8225 83.34 11.6363C83.2208 11.4426 83.1612 11.2079 83.1612 10.9323C83.1612 10.7013 83.2096 10.4853 83.3064 10.2841C83.4107 10.083 83.556 9.9116 83.7423 9.77005C83.936 9.62105 84.1595 9.50929 84.4128 9.43479C84.6661 9.35284 84.9455 9.31187 85.2509 9.31187C85.6756 9.31187 86.0332 9.39009 86.3237 9.54655C86.6143 9.69555 86.8341 9.90787 86.9831 10.1835C87.1395 10.4592 87.2215 10.7758 87.2289 11.1334H86.2902C86.238 10.8205 86.13 10.5933 85.9661 10.4517C85.8022 10.3027 85.5564 10.2282 85.2286 10.2282C84.9082 10.2282 84.6624 10.2916 84.491 10.4182C84.3197 10.5449 84.234 10.7162 84.234 10.9323C84.234 11.0962 84.2936 11.2303 84.4128 11.3346C84.532 11.4314 84.6922 11.5171 84.8933 11.5916C85.0945 11.6661 85.3217 11.7443 85.575 11.8263C85.8134 11.9082 86.0406 11.9939 86.2567 12.0833C86.4802 12.1652 86.6776 12.2658 86.849 12.385C87.0278 12.4968 87.1656 12.6458 87.2624 12.832C87.3667 13.0108 87.4189 13.2343 87.4189 13.5025C87.4189 13.8303 87.3369 14.1172 87.173 14.363C87.0091 14.6014 86.7707 14.7877 86.4578 14.9218C86.1524 15.0559 85.7799 15.1229 85.3403 15.1229C84.938 15.1229 84.5953 15.0745 84.3122 14.9776C84.0366 14.8808 83.8019 14.7541 83.6082 14.5977C83.4219 14.4412 83.2766 14.2773 83.1723 14.106C83.0755 13.9272 83.0084 13.7558 82.9712 13.5919C82.9414 13.428 82.9339 13.2939 82.9488 13.1896ZM93.635 7.74735C94.3874 7.74735 95.0169 7.8442 95.5235 8.03791C96.0376 8.22416 96.4474 8.48491 96.7528 8.82016C97.0657 9.15542 97.2892 9.5391 97.4233 9.9712C97.5574 10.4033 97.6245 10.8615 97.6245 11.3457C97.6245 11.8225 97.55 12.2807 97.401 12.7203C97.2594 13.1598 97.0285 13.551 96.7081 13.8937C96.3952 14.2364 95.9854 14.5083 95.4788 14.7094C94.9722 14.9031 94.3576 15 93.635 15H90.7294V7.74735H93.635ZM91.8022 14.0278H93.6238C94.1974 14.0278 94.6705 13.9533 95.043 13.8043C95.4155 13.6478 95.7098 13.4429 95.9258 13.1896C96.1494 12.9289 96.3058 12.6383 96.3952 12.318C96.4921 11.9976 96.5405 11.6735 96.5405 11.3457C96.5405 11.0105 96.4921 10.6864 96.3952 10.3735C96.3058 10.0606 96.1494 9.78122 95.9258 9.53537C95.7098 9.28207 95.4155 9.08464 95.043 8.94309C94.6705 8.79409 94.1974 8.71959 93.6238 8.71959H91.8022V14.0278ZM99.9608 7.12155V8.27258H98.631V7.12155H99.9608ZM98.7651 9.42362H99.8267V15H98.7651V9.42362ZM100.869 13.1896H101.853C101.89 13.4876 102.024 13.7335 102.255 13.9272C102.486 14.1134 102.81 14.2066 103.227 14.2066C103.495 14.2066 103.704 14.1768 103.853 14.1172C104.002 14.0501 104.106 13.9607 104.166 13.849C104.233 13.7372 104.266 13.6143 104.266 13.4802C104.266 13.3088 104.222 13.1785 104.132 13.0891C104.043 12.9922 103.916 12.914 103.752 12.8544C103.588 12.7873 103.395 12.724 103.171 12.6644C102.925 12.5974 102.68 12.5191 102.434 12.4297C102.188 12.3403 101.961 12.2323 101.752 12.1056C101.551 11.979 101.387 11.8225 101.26 11.6363C101.141 11.4426 101.082 11.2079 101.082 10.9323C101.082 10.7013 101.13 10.4853 101.227 10.2841C101.331 10.083 101.476 9.9116 101.663 9.77005C101.856 9.62105 102.08 9.50929 102.333 9.43479C102.586 9.35284 102.866 9.31187 103.171 9.31187C103.596 9.31187 103.954 9.39009 104.244 9.54655C104.535 9.69555 104.754 9.90787 104.903 10.1835C105.06 10.4592 105.142 10.7758 105.149 11.1334H104.211C104.158 10.8205 104.05 10.5933 103.886 10.4517C103.723 10.3027 103.477 10.2282 103.149 10.2282C102.829 10.2282 102.583 10.2916 102.411 10.4182C102.24 10.5449 102.154 10.7162 102.154 10.9323C102.154 11.0962 102.214 11.2303 102.333 11.3346C102.452 11.4314 102.612 11.5171 102.814 11.5916C103.015 11.6661 103.242 11.7443 103.495 11.8263C103.734 11.9082 103.961 11.9939 104.177 12.0833C104.401 12.1652 104.598 12.2658 104.769 12.385C104.948 12.4968 105.086 12.6458 105.183 12.832C105.287 13.0108 105.339 13.2343 105.339 13.5025C105.339 13.8303 105.257 14.1172 105.093 14.363C104.929 14.6014 104.691 14.7877 104.378 14.9218C104.073 15.0559 103.7 15.1229 103.261 15.1229C102.858 15.1229 102.516 15.0745 102.233 14.9776C101.957 14.8808 101.722 14.7541 101.529 14.5977C101.342 14.4412 101.197 14.2773 101.093 14.106C100.996 13.9272 100.929 13.7558 100.892 13.5919C100.862 13.428 100.854 13.2939 100.869 13.1896ZM109.614 15.1118C109.174 15.1118 108.809 15.0224 108.519 14.8435C108.236 14.6573 108.008 14.4152 107.837 14.1172C107.673 13.8192 107.554 13.5025 107.479 13.1673C107.405 12.832 107.368 12.5154 107.368 12.2174C107.368 11.8151 107.401 11.4389 107.468 11.0887C107.543 10.7386 107.662 10.4294 107.826 10.1612C107.99 9.89297 108.217 9.68437 108.508 9.53537C108.798 9.38637 109.167 9.31187 109.614 9.31187C110.113 9.31187 110.556 9.43852 110.944 9.69182C111.339 9.93767 111.648 10.2804 111.871 10.7199C112.095 11.152 112.207 11.6512 112.207 12.2174C112.207 12.7836 112.091 13.2865 111.86 13.726C111.629 14.1581 111.316 14.4971 110.921 14.743C110.534 14.9888 110.098 15.1118 109.614 15.1118ZM109.312 14.1842C109.67 14.1842 109.983 14.1023 110.251 13.9384C110.527 13.767 110.739 13.5361 110.888 13.2455C111.044 12.9475 111.123 12.6048 111.123 12.2174C111.123 11.6437 110.962 11.1707 110.642 10.7982C110.329 10.4257 109.886 10.2394 109.312 10.2394C108.925 10.2394 108.593 10.3214 108.318 10.4853C108.049 10.6492 107.844 10.8801 107.703 11.1781C107.561 11.4761 107.491 11.8225 107.491 12.2174C107.491 12.5825 107.558 12.914 107.692 13.212C107.833 13.51 108.038 13.7484 108.306 13.9272C108.582 14.0985 108.917 14.1842 109.312 14.1842ZM107.491 7.1886V13.7819C107.491 13.9533 107.479 14.1581 107.457 14.3965C107.442 14.6349 107.427 14.8361 107.412 15H106.429V7.1886H107.491ZM118.351 15H117.289V9.42362H118.351V15ZM117.345 12.3738L117.356 12.7091C117.349 12.806 117.323 12.9512 117.278 13.1449C117.241 13.3312 117.174 13.5361 117.077 13.7596C116.987 13.9831 116.861 14.1991 116.697 14.4077C116.54 14.6163 116.339 14.7877 116.093 14.9218C115.847 15.0559 115.549 15.1229 115.199 15.1229C114.961 15.1229 114.715 15.0894 114.462 15.0224C114.216 14.9553 113.989 14.8435 113.78 14.6871C113.571 14.5306 113.404 14.3183 113.277 14.0501C113.151 13.7745 113.087 13.4318 113.087 13.022V9.42362H114.16V12.7985C114.16 13.1412 114.212 13.4094 114.317 13.6031C114.428 13.7968 114.585 13.9346 114.786 14.0166C114.987 14.0985 115.214 14.1395 115.468 14.1395C115.855 14.1395 116.179 14.0464 116.44 13.8601C116.708 13.6664 116.917 13.4355 117.066 13.1673C117.215 12.8916 117.308 12.6272 117.345 12.3738ZM119.532 9.42362H120.605V15H119.532V9.42362ZM122.493 10.3735C122.106 10.3735 121.774 10.4629 121.499 10.6417C121.23 10.8205 121.014 11.0403 120.85 11.301C120.694 11.5618 120.59 11.8114 120.537 12.0498L120.526 11.4128C120.534 11.3383 120.552 11.2228 120.582 11.0664C120.619 10.9025 120.683 10.7199 120.772 10.5188C120.862 10.3176 120.981 10.1277 121.13 9.94885C121.279 9.7626 121.465 9.60987 121.688 9.49067C121.912 9.37147 122.18 9.31187 122.493 9.31187V10.3735ZM122.991 13.1896H123.975C124.012 13.4876 124.146 13.7335 124.377 13.9272C124.608 14.1134 124.932 14.2066 125.349 14.2066C125.617 14.2066 125.826 14.1768 125.975 14.1172C126.124 14.0501 126.228 13.9607 126.288 13.849C126.355 13.7372 126.388 13.6143 126.388 13.4802C126.388 13.3088 126.344 13.1785 126.254 13.0891C126.165 12.9922 126.038 12.914 125.874 12.8544C125.71 12.7873 125.517 12.724 125.293 12.6644C125.047 12.5974 124.801 12.5191 124.556 12.4297C124.31 12.3403 124.083 12.2323 123.874 12.1056C123.673 11.979 123.509 11.8225 123.382 11.6363C123.263 11.4426 123.203 11.2079 123.203 10.9323C123.203 10.7013 123.252 10.4853 123.349 10.2841C123.453 10.083 123.598 9.9116 123.785 9.77005C123.978 9.62105 124.202 9.50929 124.455 9.43479C124.708 9.35284 124.988 9.31187 125.293 9.31187C125.718 9.31187 126.075 9.39009 126.366 9.54655C126.657 9.69555 126.876 9.90787 127.025 10.1835C127.182 10.4592 127.264 10.7758 127.271 11.1334H126.332C126.28 10.8205 126.172 10.5933 126.008 10.4517C125.844 10.3027 125.599 10.2282 125.271 10.2282C124.95 10.2282 124.705 10.2916 124.533 10.4182C124.362 10.5449 124.276 10.7162 124.276 10.9323C124.276 11.0962 124.336 11.2303 124.455 11.3346C124.574 11.4314 124.734 11.5171 124.936 11.5916C125.137 11.6661 125.364 11.7443 125.617 11.8263C125.856 11.9082 126.083 11.9939 126.299 12.0833C126.522 12.1652 126.72 12.2658 126.891 12.385C127.07 12.4968 127.208 12.6458 127.305 12.832C127.409 13.0108 127.461 13.2343 127.461 13.5025C127.461 13.8303 127.379 14.1172 127.215 14.363C127.051 14.6014 126.813 14.7877 126.5 14.9218C126.195 15.0559 125.822 15.1229 125.383 15.1229C124.98 15.1229 124.638 15.0745 124.354 14.9776C124.079 14.8808 123.844 14.7541 123.65 14.5977C123.464 14.4412 123.319 14.2773 123.215 14.106C123.118 13.9272 123.051 13.7558 123.013 13.5919C122.984 13.428 122.976 13.2939 122.991 13.1896ZM132.663 13.1896H133.68C133.621 13.5547 133.479 13.8825 133.256 14.173C133.032 14.4636 132.738 14.6945 132.373 14.8659C132.008 15.0373 131.579 15.1229 131.088 15.1229C130.507 15.1229 129.989 15 129.534 14.7541C129.08 14.5083 128.722 14.1693 128.461 13.7372C128.201 13.3051 128.07 12.8022 128.07 12.2286C128.07 11.6475 128.197 11.1409 128.45 10.7088C128.704 10.2692 129.054 9.9265 129.501 9.68065C129.948 9.43479 130.458 9.31187 131.032 9.31187C131.635 9.31187 132.142 9.43107 132.552 9.66947C132.961 9.90787 133.263 10.2618 133.457 10.7311C133.658 11.193 133.74 11.7704 133.703 12.4632H129.132C129.169 12.7985 129.27 13.0965 129.434 13.3573C129.605 13.618 129.829 13.8229 130.104 13.9719C130.387 14.1209 130.711 14.1954 131.076 14.1954C131.486 14.1954 131.829 14.1023 132.105 13.916C132.38 13.7298 132.566 13.4876 132.663 13.1896ZM131.043 10.2282C130.559 10.2282 130.156 10.3586 129.836 10.6194C129.516 10.8727 129.303 11.2116 129.199 11.6363H132.63C132.6 11.1818 132.436 10.8354 132.138 10.597C131.84 10.3512 131.475 10.2282 131.043 10.2282ZM136.911 15.1118C136.427 15.1118 135.987 14.9888 135.592 14.743C135.197 14.4971 134.885 14.1581 134.654 13.726C134.43 13.2865 134.318 12.7836 134.318 12.2174C134.318 11.6512 134.43 11.152 134.654 10.7199C134.877 10.2804 135.183 9.93767 135.57 9.69182C135.957 9.43852 136.404 9.31187 136.911 9.31187C137.351 9.31187 137.716 9.38637 138.006 9.53537C138.297 9.68437 138.524 9.89297 138.688 10.1612C138.852 10.4294 138.967 10.7386 139.034 11.0887C139.109 11.4389 139.146 11.8151 139.146 12.2174C139.146 12.5154 139.109 12.832 139.034 13.1673C138.96 13.5025 138.841 13.8192 138.677 14.1172C138.513 14.4152 138.286 14.6573 137.995 14.8435C137.704 15.0224 137.343 15.1118 136.911 15.1118ZM137.213 14.1842C137.608 14.1842 137.939 14.0985 138.207 13.9272C138.483 13.7484 138.688 13.51 138.822 13.212C138.956 12.914 139.023 12.5825 139.023 12.2174C139.023 11.8225 138.952 11.4761 138.811 11.1781C138.677 10.8801 138.472 10.6492 138.196 10.4853C137.928 10.3214 137.6 10.2394 137.213 10.2394C136.632 10.2394 136.181 10.4257 135.861 10.7982C135.548 11.1707 135.391 11.6437 135.391 12.2174C135.391 12.6048 135.469 12.9475 135.626 13.2455C135.782 13.5361 135.995 13.767 136.263 13.9384C136.539 14.1023 136.855 14.1842 137.213 14.1842ZM139.023 7.1886H140.096V15H139.113C139.09 14.8361 139.068 14.6349 139.045 14.3965C139.031 14.1581 139.023 13.9533 139.023 13.7819V7.1886Z" fill="#041004"/>
<rect x="17.7656" y="219.717" width="678.932" height="0.935168" fill="#F7F7F7"/>
<rect x="17.7656" y="198.209" width="678.932" height="0.935168" fill="#F7F7F7"/>
<rect x="17.7656" y="176.699" width="678.932" height="0.935168" fill="#F7F7F7"/>
<rect x="17.7656" y="155.191" width="678.932" height="0.935168" fill="#F7F7F7"/>
<rect x="17.7656" y="133.682" width="678.932" height="0.935168" fill="#F7F7F7"/>
<rect x="17.7656" y="112.174" width="678.932" height="0.935168" fill="#F7F7F7"/>
<rect x="17.7656" y="90.6641" width="678.932" height="0.935168" fill="#F7F7F7"/>
<rect x="17.7656" y="69.1543" width="678.932" height="0.935168" fill="#F7F7F7"/>
<rect x="17.7656" y="47.6465" width="678.932" height="0.935168" fill="#F7F7F7"/>
<path d="M31.7857 237.251V234.247H32.4722V237.265C32.4722 237.504 32.4341 237.725 32.3578 237.93C32.2863 238.135 32.179 238.317 32.036 238.474C31.8929 238.626 31.7141 238.746 31.4996 238.831C31.2898 238.917 31.0467 238.96 30.7701 238.96C30.5413 238.96 30.3244 238.929 30.1194 238.867C29.9191 238.8 29.7403 238.705 29.583 238.581C29.4257 238.452 29.2993 238.295 29.204 238.109C29.1134 237.923 29.0633 237.711 29.0538 237.473H29.6903C29.7379 237.759 29.8595 237.976 30.055 238.123C30.2505 238.266 30.4889 238.338 30.7701 238.338C31.0085 238.338 31.2016 238.29 31.3494 238.195C31.4972 238.1 31.6069 237.971 31.6784 237.809C31.7499 237.647 31.7857 237.461 31.7857 237.251ZM34.5113 237.737V237.122H37V237.737H34.5113ZM33.5029 238.889L35.398 234.247H36.1275L38.0369 238.889H37.2932L35.634 234.698H35.8915L34.2395 238.889H33.5029ZM43.0206 238.131L42.8204 238.202V234.247H43.5141V238.889H42.8204L39.5808 235.02L39.781 234.948V238.889H39.0945V234.247H39.781L43.0206 238.131Z" fill="#B5BBC5"/>
<path d="M92.0227 234.247V234.862H89.0406V236.307H91.4792V236.908H89.0406V238.889H88.354V234.247H92.0227ZM93.8259 236.879V238.274H96.8152V238.889H93.1394V234.247H96.8081V234.862H93.8259V236.278H96.2646V236.879H93.8259ZM98.1692 238.889V234.247H100.257C100.782 234.247 101.187 234.355 101.473 234.569C101.759 234.784 101.902 235.091 101.902 235.492C101.902 235.74 101.847 235.94 101.738 236.092C101.633 236.245 101.483 236.359 101.287 236.436C101.092 236.507 100.863 236.555 100.601 236.579L100.615 236.529C100.81 236.538 100.994 236.56 101.166 236.593C101.342 236.626 101.495 236.681 101.623 236.758C101.757 236.834 101.862 236.939 101.938 237.072C102.019 237.206 102.06 237.38 102.06 237.594C102.06 237.876 101.993 238.112 101.859 238.302C101.726 238.488 101.54 238.629 101.302 238.724C101.068 238.82 100.796 238.874 100.486 238.889H98.1692ZM98.8557 238.274H100.358C100.672 238.274 100.918 238.216 101.094 238.102C101.271 237.988 101.359 237.806 101.359 237.558C101.359 237.368 101.304 237.225 101.194 237.129C101.085 237.034 100.942 236.972 100.765 236.943C100.594 236.915 100.415 236.901 100.229 236.901H98.8557V238.274ZM98.8557 236.293H100.2C100.515 236.293 100.76 236.231 100.937 236.107C101.113 235.978 101.201 235.792 101.201 235.549C101.201 235.301 101.113 235.125 100.937 235.02C100.76 234.915 100.536 234.862 100.265 234.862H98.8557V236.293Z" fill="#B5BBC5"/>
<path d="M149.306 238.502H149.013L151.294 234.247H151.981V238.889H151.294V235.327L151.445 235.363L149.521 238.889H148.799L146.875 235.37L147.025 235.334V238.889H146.338V234.247H147.025L149.306 238.502ZM154.05 237.737V237.122H156.538V237.737H154.05ZM153.041 238.889L154.936 234.247H155.666L157.575 238.889H156.832L155.172 234.698H155.43L153.778 238.889H153.041ZM158.633 238.889V234.247H161.021C161.355 234.247 161.641 234.297 161.88 234.398C162.123 234.493 162.309 234.641 162.437 234.841C162.566 235.036 162.63 235.287 162.63 235.592C162.63 235.802 162.595 235.98 162.523 236.128C162.456 236.271 162.363 236.39 162.244 236.486C162.125 236.581 161.984 236.655 161.822 236.707C161.66 236.76 161.486 236.793 161.3 236.808L161.25 236.765C161.532 236.774 161.768 236.805 161.958 236.858C162.149 236.91 162.294 237.005 162.394 237.144C162.499 237.277 162.552 237.477 162.552 237.744V238.889H161.858V237.766C161.858 237.58 161.827 237.435 161.765 237.33C161.703 237.225 161.596 237.151 161.443 237.108C161.291 237.065 161.076 237.044 160.8 237.044H159.319V238.889H158.633ZM159.319 236.443H161.021C161.327 236.443 161.555 236.367 161.708 236.214C161.865 236.061 161.944 235.861 161.944 235.613C161.944 235.375 161.865 235.191 161.708 235.063C161.555 234.934 161.327 234.87 161.021 234.87H159.319V236.443Z" fill="#B5BBC5"/>
<path d="M207.699 237.737V237.122H210.188V237.737H207.699ZM206.691 238.889L208.586 234.247H209.315L211.225 238.889H210.481L208.822 234.698H209.079L207.427 238.889H206.691ZM212.84 237.287V236.686H214.506C214.783 236.686 215.004 236.603 215.171 236.436C215.343 236.269 215.429 236.05 215.429 235.778C215.429 235.496 215.343 235.275 215.171 235.113C215.004 234.951 214.783 234.87 214.506 234.87H212.954V238.889H212.268V234.247H214.478C214.706 234.247 214.919 234.281 215.114 234.347C215.314 234.409 215.488 234.505 215.636 234.634C215.789 234.762 215.906 234.922 215.987 235.113C216.072 235.303 216.115 235.525 216.115 235.778C216.115 236.026 216.072 236.245 215.987 236.436C215.906 236.626 215.789 236.786 215.636 236.915C215.488 237.039 215.314 237.132 215.114 237.194C214.919 237.256 214.706 237.287 214.478 237.287H212.84ZM217.368 238.889V234.247H219.756C220.09 234.247 220.376 234.297 220.615 234.398C220.858 234.493 221.044 234.641 221.172 234.841C221.301 235.036 221.365 235.287 221.365 235.592C221.365 235.802 221.33 235.98 221.258 236.128C221.191 236.271 221.098 236.39 220.979 236.486C220.86 236.581 220.719 236.655 220.557 236.707C220.395 236.76 220.221 236.793 220.035 236.808L219.985 236.765C220.267 236.774 220.503 236.805 220.693 236.858C220.884 236.91 221.029 237.005 221.129 237.144C221.234 237.277 221.287 237.477 221.287 237.744V238.889H220.593V237.766C220.593 237.58 220.562 237.435 220.5 237.33C220.438 237.225 220.331 237.151 220.178 237.108C220.026 237.065 219.811 237.044 219.535 237.044H218.054V238.889H217.368ZM218.054 236.443H219.756C220.062 236.443 220.29 236.367 220.443 236.214C220.6 236.061 220.679 235.861 220.679 235.613C220.679 235.375 220.6 235.191 220.443 235.063C220.29 234.934 220.062 234.87 219.756 234.87H218.054V236.443Z" fill="#B5BBC5"/>
<path d="M269.002 238.502H268.708L270.99 234.247H271.676V238.889H270.99V235.327L271.14 235.363L269.216 238.889H268.494L266.57 235.37L266.72 235.334V238.889H266.034V234.247H266.72L269.002 238.502ZM273.745 237.737V237.122H276.234V237.737H273.745ZM272.737 238.889L274.632 234.247H275.361L277.271 238.889H276.527L274.868 234.698H275.125L273.473 238.889H272.737ZM281.644 234.247L279.878 237.337V238.889H279.191V237.337L277.425 234.247H278.211L279.713 236.958H279.384L280.858 234.247H281.644Z" fill="#B5BBC5"/>
<path d="M329.168 237.251V234.247H329.855V237.265C329.855 237.504 329.817 237.725 329.741 237.93C329.669 238.135 329.562 238.317 329.419 238.474C329.276 238.626 329.097 238.746 328.882 238.831C328.673 238.917 328.429 238.96 328.153 238.96C327.924 238.96 327.707 238.929 327.502 238.867C327.302 238.8 327.123 238.705 326.966 238.581C326.808 238.452 326.682 238.295 326.587 238.109C326.496 237.923 326.446 237.711 326.437 237.473H327.073C327.121 237.759 327.242 237.976 327.438 238.123C327.633 238.266 327.872 238.338 328.153 238.338C328.391 238.338 328.584 238.29 328.732 238.195C328.88 238.1 328.99 237.971 329.061 237.809C329.133 237.647 329.168 237.461 329.168 237.251ZM334.904 237.022V234.247H335.591V237.051C335.591 237.327 335.555 237.57 335.483 237.78C335.417 237.99 335.319 238.171 335.19 238.324C335.062 238.476 334.909 238.6 334.733 238.696C334.561 238.786 334.368 238.853 334.153 238.896C333.943 238.943 333.719 238.967 333.481 238.967C333.233 238.967 333.002 238.943 332.787 238.896C332.573 238.853 332.375 238.786 332.194 238.696C332.017 238.6 331.865 238.476 331.736 238.324C331.612 238.171 331.514 237.99 331.443 237.78C331.376 237.57 331.343 237.327 331.343 237.051V234.247H332.029V237.022C332.029 237.38 332.094 237.654 332.222 237.845C332.356 238.035 332.532 238.166 332.752 238.238C332.971 238.309 333.214 238.345 333.481 238.345C333.738 238.345 333.974 238.309 334.189 238.238C334.404 238.166 334.575 238.035 334.704 237.845C334.837 237.654 334.904 237.38 334.904 237.022ZM341.004 238.131L340.804 238.202V234.247H341.498V238.889H340.804L337.564 235.02L337.764 234.948V238.889H337.078V234.247H337.764L341.004 238.131Z" fill="#B5BBC5"/>
<path d="M388.083 237.251V234.247H388.769V237.265C388.769 237.504 388.731 237.725 388.655 237.93C388.583 238.135 388.476 238.317 388.333 238.474C388.19 238.626 388.011 238.746 387.796 238.831C387.587 238.917 387.344 238.96 387.067 238.96C386.838 238.96 386.621 238.929 386.416 238.867C386.216 238.8 386.037 238.705 385.88 238.581C385.723 238.452 385.596 238.295 385.501 238.109C385.41 237.923 385.36 237.711 385.351 237.473H385.987C386.035 237.759 386.156 237.976 386.352 238.123C386.547 238.266 386.786 238.338 387.067 238.338C387.305 238.338 387.498 238.29 387.646 238.195C387.794 238.1 387.904 237.971 387.975 237.809C388.047 237.647 388.083 237.461 388.083 237.251ZM393.818 237.022V234.247H394.505V237.051C394.505 237.327 394.469 237.57 394.398 237.78C394.331 237.99 394.233 238.171 394.104 238.324C393.976 238.476 393.823 238.6 393.647 238.696C393.475 238.786 393.282 238.853 393.067 238.896C392.858 238.943 392.633 238.967 392.395 238.967C392.147 238.967 391.916 238.943 391.701 238.896C391.487 238.853 391.289 238.786 391.108 238.696C390.931 238.6 390.779 238.476 390.65 238.324C390.526 238.171 390.428 237.99 390.357 237.78C390.29 237.57 390.257 237.327 390.257 237.051V234.247H390.943V237.022C390.943 237.38 391.008 237.654 391.136 237.845C391.27 238.035 391.446 238.166 391.666 238.238C391.885 238.309 392.128 238.345 392.395 238.345C392.653 238.345 392.889 238.309 393.103 238.238C393.318 238.166 393.489 238.035 393.618 237.845C393.751 237.654 393.818 237.38 393.818 237.022ZM396.678 234.247V238.274H399.41V238.889H395.992V234.247H396.678Z" fill="#B5BBC5"/>
<path d="M444.3 237.737V237.122H446.789V237.737H444.3ZM443.292 238.889L445.187 234.247H445.917L447.826 238.889H447.082L445.423 234.698H445.681L444.029 238.889H443.292ZM452.41 237.022V234.247H453.097V237.051C453.097 237.327 453.061 237.57 452.989 237.78C452.923 237.99 452.825 238.171 452.696 238.324C452.568 238.476 452.415 238.6 452.239 238.696C452.067 238.786 451.874 238.853 451.659 238.896C451.45 238.943 451.225 238.967 450.987 238.967C450.739 238.967 450.508 238.943 450.293 238.896C450.079 238.853 449.881 238.786 449.7 238.696C449.523 238.6 449.371 238.476 449.242 238.324C449.118 238.171 449.02 237.99 448.949 237.78C448.882 237.57 448.849 237.327 448.849 237.051V234.247H449.535V237.022C449.535 237.38 449.6 237.654 449.728 237.845C449.862 238.035 450.038 238.166 450.258 238.238C450.477 238.309 450.72 238.345 450.987 238.345C451.245 238.345 451.481 238.309 451.695 238.238C451.91 238.166 452.081 238.035 452.21 237.845C452.343 237.654 452.41 237.38 452.41 237.022ZM456.772 238.967C456.405 238.967 456.074 238.913 455.778 238.803C455.487 238.693 455.237 238.536 455.027 238.331C454.818 238.126 454.658 237.878 454.548 237.587C454.439 237.292 454.384 236.965 454.384 236.607C454.384 236.24 454.443 235.909 454.562 235.613C454.682 235.313 454.851 235.055 455.07 234.841C455.29 234.622 455.549 234.455 455.85 234.34C456.15 234.226 456.481 234.169 456.844 234.169C457.249 234.169 457.604 234.238 457.909 234.376C458.219 234.514 458.467 234.71 458.653 234.963C458.839 235.21 458.949 235.506 458.982 235.849H458.36C458.298 235.63 458.198 235.442 458.06 235.284C457.921 235.127 457.75 235.005 457.545 234.92C457.34 234.834 457.106 234.791 456.844 234.791C456.486 234.791 456.176 234.87 455.914 235.027C455.652 235.179 455.447 235.394 455.299 235.671C455.151 235.942 455.077 236.255 455.077 236.607C455.077 236.955 455.142 237.261 455.27 237.523C455.404 237.78 455.597 237.983 455.85 238.131C456.107 238.274 456.417 238.345 456.779 238.345C457.061 238.345 457.306 238.297 457.516 238.202C457.731 238.102 457.905 237.964 458.038 237.787C458.176 237.606 458.272 237.389 458.324 237.137L458.682 237.094C458.61 237.709 458.405 238.176 458.067 238.495C457.728 238.81 457.297 238.967 456.772 238.967ZM458.524 238.889C458.524 238.736 458.529 238.562 458.539 238.367C458.553 238.166 458.567 237.966 458.582 237.766C458.601 237.561 458.617 237.377 458.632 237.215H456.894V236.657H459.161V238.889H458.524Z" fill="#B5BBC5"/>
<path d="M503.258 237.365H503.916C503.93 237.551 503.992 237.721 504.102 237.873C504.216 238.021 504.369 238.138 504.56 238.224C504.755 238.309 504.982 238.352 505.239 238.352C505.463 238.352 505.649 238.321 505.797 238.259C505.945 238.197 506.054 238.114 506.126 238.009C506.202 237.899 506.24 237.771 506.24 237.623C506.24 237.475 506.2 237.358 506.119 237.272C506.038 237.182 505.916 237.108 505.754 237.051C505.592 236.989 505.392 236.929 505.153 236.872C504.943 236.82 504.736 236.758 504.531 236.686C504.331 236.61 504.145 236.517 503.973 236.407C503.806 236.297 503.671 236.166 503.566 236.014C503.466 235.856 503.415 235.668 503.415 235.449C503.415 235.215 503.48 235.003 503.609 234.812C503.737 234.617 503.926 234.462 504.174 234.347C504.426 234.228 504.731 234.169 505.089 234.169C505.642 234.169 506.059 234.307 506.34 234.583C506.626 234.86 506.765 235.229 506.755 235.692H506.112C506.097 235.368 505.995 235.137 505.804 234.998C505.613 234.855 505.365 234.784 505.06 234.784C504.798 234.784 504.574 234.839 504.388 234.948C504.202 235.053 504.109 235.22 504.109 235.449C504.109 235.549 504.131 235.637 504.174 235.713C504.216 235.785 504.288 235.852 504.388 235.914C504.488 235.976 504.622 236.035 504.789 236.092C504.96 236.15 505.172 236.212 505.425 236.278C505.616 236.321 505.799 236.376 505.976 236.443C506.157 236.51 506.319 236.593 506.462 236.693C506.605 236.793 506.717 236.922 506.798 237.079C506.884 237.237 506.927 237.43 506.927 237.659C506.927 237.902 506.867 238.123 506.748 238.324C506.629 238.519 506.443 238.677 506.19 238.796C505.942 238.91 505.62 238.967 505.225 238.967C504.91 238.967 504.636 238.927 504.402 238.846C504.174 238.765 503.98 238.66 503.823 238.531C503.671 238.402 503.549 238.264 503.458 238.116C503.373 237.969 503.313 237.828 503.28 237.694C503.251 237.561 503.244 237.451 503.258 237.365ZM508.821 236.879V238.274H511.811V238.889H508.135V234.247H511.803V234.862H508.821V236.278H511.26V236.879H508.821ZM513.722 237.287V236.686H515.389C515.665 236.686 515.887 236.603 516.054 236.436C516.225 236.269 516.311 236.05 516.311 235.778C516.311 235.496 516.225 235.275 516.054 235.113C515.887 234.951 515.665 234.87 515.389 234.87H513.837V238.889H513.15V234.247H515.36C515.589 234.247 515.801 234.281 515.996 234.347C516.197 234.409 516.371 234.505 516.518 234.634C516.671 234.762 516.788 234.922 516.869 235.113C516.955 235.303 516.998 235.525 516.998 235.778C516.998 236.026 516.955 236.245 516.869 236.436C516.788 236.626 516.671 236.786 516.518 236.915C516.371 237.039 516.197 237.132 515.996 237.194C515.801 237.256 515.589 237.287 515.36 237.287H513.722Z" fill="#B5BBC5"/>
<path d="M563.831 238.967C563.349 238.967 562.92 238.87 562.543 238.674C562.172 238.479 561.878 238.202 561.664 237.845C561.454 237.487 561.349 237.063 561.349 236.572C561.349 236.076 561.454 235.649 561.664 235.291C561.878 234.934 562.172 234.657 562.543 234.462C562.92 234.266 563.349 234.169 563.831 234.169C564.317 234.169 564.746 234.266 565.118 234.462C565.49 234.657 565.783 234.934 565.998 235.291C566.212 235.649 566.319 236.076 566.319 236.572C566.319 237.063 566.212 237.487 565.998 237.845C565.783 238.202 565.49 238.479 565.118 238.674C564.746 238.87 564.317 238.967 563.831 238.967ZM563.831 238.345C564.174 238.345 564.479 238.278 564.746 238.145C565.013 238.011 565.225 237.814 565.383 237.551C565.54 237.289 565.619 236.963 565.619 236.572C565.619 236.181 565.54 235.854 565.383 235.592C565.225 235.33 565.013 235.132 564.746 234.998C564.479 234.86 564.174 234.791 563.831 234.791C563.497 234.791 563.194 234.86 562.922 234.998C562.651 235.132 562.436 235.33 562.279 235.592C562.121 235.854 562.043 236.181 562.043 236.572C562.043 236.963 562.121 237.289 562.279 237.551C562.436 237.814 562.651 238.011 562.922 238.145C563.194 238.278 563.497 238.345 563.831 238.345ZM572.033 237.301C571.99 237.649 571.87 237.947 571.675 238.195C571.484 238.443 571.234 238.634 570.924 238.767C570.614 238.901 570.261 238.967 569.866 238.967C569.508 238.967 569.179 238.913 568.879 238.803C568.583 238.693 568.326 238.536 568.106 238.331C567.887 238.126 567.715 237.876 567.591 237.58C567.467 237.28 567.406 236.943 567.406 236.572C567.406 236.195 567.467 235.859 567.591 235.563C567.715 235.268 567.887 235.017 568.106 234.812C568.326 234.603 568.583 234.443 568.879 234.333C569.179 234.224 569.508 234.169 569.866 234.169C570.266 234.169 570.621 234.238 570.931 234.376C571.241 234.51 571.491 234.703 571.682 234.955C571.878 235.203 571.997 235.501 572.04 235.849H571.382C571.32 235.625 571.217 235.435 571.074 235.277C570.931 235.12 570.757 235.001 570.552 234.92C570.347 234.834 570.118 234.791 569.866 234.791C569.541 234.791 569.246 234.86 568.979 234.998C568.712 235.137 568.497 235.337 568.335 235.599C568.178 235.861 568.099 236.185 568.099 236.572C568.099 236.953 568.178 237.277 568.335 237.544C568.497 237.806 568.712 238.007 568.979 238.145C569.246 238.278 569.541 238.345 569.866 238.345C570.118 238.345 570.345 238.305 570.545 238.224C570.75 238.143 570.924 238.023 571.067 237.866C571.21 237.709 571.315 237.52 571.382 237.301H572.033ZM572.744 234.247H576.813V234.862H572.744V234.247ZM574.432 234.791H575.125V238.889H574.432V234.791Z" fill="#B5BBC5"/>
<path d="M625.327 238.131L625.127 238.202V234.247H625.821V238.889H625.127L621.887 235.02L622.087 234.948V238.889H621.401V234.247H622.087L625.327 238.131ZM629.592 238.967C629.11 238.967 628.681 238.87 628.305 238.674C627.933 238.479 627.64 238.202 627.425 237.845C627.215 237.487 627.11 237.063 627.11 236.572C627.11 236.076 627.215 235.649 627.425 235.291C627.64 234.934 627.933 234.657 628.305 234.462C628.681 234.266 629.11 234.169 629.592 234.169C630.078 234.169 630.507 234.266 630.879 234.462C631.251 234.657 631.544 234.934 631.759 235.291C631.973 235.649 632.081 236.076 632.081 236.572C632.081 237.063 631.973 237.487 631.759 237.845C631.544 238.202 631.251 238.479 630.879 238.674C630.507 238.87 630.078 238.967 629.592 238.967ZM629.592 238.345C629.935 238.345 630.24 238.278 630.507 238.145C630.774 238.011 630.987 237.814 631.144 237.551C631.301 237.289 631.38 236.963 631.38 236.572C631.38 236.181 631.301 235.854 631.144 235.592C630.987 235.33 630.774 235.132 630.507 234.998C630.24 234.86 629.935 234.791 629.592 234.791C629.258 234.791 628.955 234.86 628.684 234.998C628.412 235.132 628.197 235.33 628.04 235.592C627.883 235.854 627.804 236.181 627.804 236.572C627.804 236.963 627.883 237.289 628.04 237.551C628.197 237.814 628.412 238.011 628.684 238.145C628.955 238.278 629.258 238.345 629.592 238.345ZM634.517 238.889L632.708 234.247H633.459L635.018 238.352H634.803L636.362 234.247H637.099L635.304 238.889H634.517Z" fill="#B5BBC5"/>
<path d="M683.112 234.247C683.593 234.247 683.996 234.309 684.32 234.433C684.649 234.552 684.912 234.719 685.107 234.934C685.307 235.148 685.45 235.394 685.536 235.671C685.622 235.947 685.665 236.24 685.665 236.55C685.665 236.855 685.617 237.148 685.522 237.43C685.431 237.711 685.284 237.961 685.079 238.181C684.878 238.4 684.616 238.574 684.292 238.703C683.968 238.827 683.574 238.889 683.112 238.889H681.252V234.247H683.112ZM681.939 238.266H683.105C683.472 238.266 683.775 238.219 684.013 238.123C684.251 238.023 684.44 237.892 684.578 237.73C684.721 237.563 684.821 237.377 684.878 237.172C684.94 236.967 684.971 236.76 684.971 236.55C684.971 236.336 684.94 236.128 684.878 235.928C684.821 235.728 684.721 235.549 684.578 235.392C684.44 235.229 684.251 235.103 684.013 235.013C683.775 234.917 683.472 234.87 683.105 234.87H681.939V238.266ZM687.639 236.879V238.274H690.629V238.889H686.953V234.247H690.621V234.862H687.639V236.278H690.078V236.879H687.639ZM696.395 237.301C696.352 237.649 696.233 237.947 696.038 238.195C695.847 238.443 695.597 238.634 695.287 238.767C694.977 238.901 694.624 238.967 694.228 238.967C693.871 238.967 693.542 238.913 693.241 238.803C692.946 238.693 692.688 238.536 692.469 238.331C692.25 238.126 692.078 237.876 691.954 237.58C691.83 237.28 691.768 236.943 691.768 236.572C691.768 236.195 691.83 235.859 691.954 235.563C692.078 235.268 692.25 235.017 692.469 234.812C692.688 234.603 692.946 234.443 693.241 234.333C693.542 234.224 693.871 234.169 694.228 234.169C694.629 234.169 694.984 234.238 695.294 234.376C695.604 234.51 695.854 234.703 696.045 234.955C696.24 235.203 696.36 235.501 696.402 235.849H695.744C695.683 235.625 695.58 235.435 695.437 235.277C695.294 235.12 695.12 235.001 694.915 234.92C694.71 234.834 694.481 234.791 694.228 234.791C693.904 234.791 693.609 234.86 693.342 234.998C693.075 235.137 692.86 235.337 692.698 235.599C692.541 235.861 692.462 236.185 692.462 236.572C692.462 236.953 692.541 237.277 692.698 237.544C692.86 237.806 693.075 238.007 693.342 238.145C693.609 238.278 693.904 238.345 694.228 238.345C694.481 238.345 694.708 238.305 694.908 238.224C695.113 238.143 695.287 238.023 695.43 237.866C695.573 237.709 695.678 237.52 695.744 237.301H696.395Z" fill="#B5BBC5"/>
<path d="M35.5312 144.436C35.5312 143.144 36.578 142.098 37.8692 142.098C39.1604 142.098 40.2071 143.144 40.2071 144.436V220.652H35.5312V144.436Z" fill="#FF823B"/>
<path d="M96.3203 123.861C96.3203 122.57 97.367 121.523 98.6582 121.523C99.9494 121.523 100.996 122.57 100.996 123.861V220.651H96.3203V123.861Z" fill="#FF823B"/>
<path d="M155.234 100.482C155.234 99.1913 156.281 98.1445 157.572 98.1445C158.863 98.1445 159.91 99.1913 159.91 100.482V220.651H155.234V100.482Z" fill="#FF823B"/>
<path d="M217.891 175.297C217.891 174.006 218.937 172.959 220.229 172.959C221.52 172.959 222.566 174.006 222.566 175.297V220.653H217.891V175.297Z" fill="#FF823B"/>
<path d="M274.938 78.0391C274.938 76.7479 275.984 75.7012 277.275 75.7012C278.567 75.7012 279.613 76.7479 279.613 78.0391V220.652H274.938V78.0391Z" fill="#FF823B"/>
<path d="M336.656 71.4922C336.656 70.201 337.703 69.1543 338.994 69.1543C340.285 69.1543 341.332 70.201 341.332 71.4922V220.651H336.656V71.4922Z" fill="#FF823B"/>
<path d="M394.641 100.482C394.641 99.1913 395.687 98.1445 396.979 98.1445C398.27 98.1445 399.316 99.1913 399.316 100.482V220.651H394.641V100.482Z" fill="#FF823B"/>
<path d="M454.492 81.7793C454.492 80.4881 455.539 79.4414 456.83 79.4414C458.121 79.4414 459.168 80.4881 459.168 81.7793V220.652H454.492V81.7793Z" fill="#FF823B"/>
<path d="M513.406 136.955C513.406 135.664 514.453 134.617 515.744 134.617C517.035 134.617 518.082 135.664 518.082 136.955V220.653H513.406V136.955Z" fill="#FF823B"/>
<path d="M569.516 123.861C569.516 122.57 570.562 121.523 571.854 121.523C573.145 121.523 574.191 122.57 574.191 123.861V220.651H569.516V123.861Z" fill="#FF823B"/>
<path d="M631.234 179.973C631.234 178.681 632.281 177.635 633.572 177.635C634.863 177.635 635.91 178.681 635.91 179.973V220.652H631.234V179.973Z" fill="#FF823B"/>
<path d="M694.828 100.482C694.828 99.1913 695.875 98.1445 697.166 98.1445C698.457 98.1445 699.504 99.1913 699.504 100.482V220.651H694.828V100.482Z" fill="#FF823B"/>
<g filter="url(#filter0_d_16531_184535)">
<rect x="120.633" y="129.941" width="72.0079" height="29.7964" rx="4.13839" fill="white"/>
<circle cx="130.148" cy="138.624" r="1.65535" fill="#328A28"/>
<path d="M136.392 139.597C136.222 139.597 136.068 139.572 135.932 139.521C135.797 139.47 135.681 139.397 135.584 139.302C135.487 139.207 135.413 139.093 135.362 138.958C135.311 138.821 135.286 138.67 135.286 138.504C135.286 138.334 135.314 138.181 135.369 138.044C135.424 137.905 135.502 137.786 135.604 137.687C135.705 137.585 135.826 137.508 135.965 137.455C136.104 137.402 136.257 137.375 136.425 137.375C136.613 137.375 136.777 137.407 136.918 137.471C137.062 137.535 137.176 137.626 137.263 137.743C137.349 137.858 137.399 137.995 137.415 138.153H137.127C137.098 138.052 137.052 137.965 136.988 137.892C136.924 137.819 136.844 137.763 136.749 137.723C136.654 137.683 136.546 137.664 136.425 137.664C136.259 137.664 136.116 137.7 135.995 137.773C135.873 137.843 135.778 137.943 135.71 138.071C135.641 138.197 135.607 138.341 135.607 138.504C135.607 138.666 135.637 138.807 135.697 138.928C135.758 139.047 135.848 139.141 135.965 139.21C136.084 139.276 136.227 139.309 136.395 139.309C136.525 139.309 136.639 139.287 136.736 139.243C136.835 139.196 136.916 139.132 136.978 139.051C137.042 138.967 137.086 138.866 137.11 138.749L137.276 138.73C137.243 139.014 137.148 139.231 136.991 139.378C136.834 139.524 136.635 139.597 136.392 139.597ZM137.203 139.561C137.203 139.49 137.205 139.409 137.21 139.319C137.216 139.226 137.223 139.133 137.229 139.041C137.238 138.946 137.246 138.861 137.253 138.786H136.448V138.528H137.498V139.561H137.203ZM138.075 137.909H138.392V139.561H138.075V137.909ZM138.952 138.19C138.837 138.19 138.739 138.216 138.657 138.269C138.578 138.322 138.514 138.387 138.465 138.465C138.419 138.542 138.388 138.616 138.373 138.687L138.369 138.498C138.371 138.476 138.377 138.442 138.386 138.395C138.397 138.347 138.416 138.293 138.442 138.233C138.469 138.173 138.504 138.117 138.548 138.064C138.592 138.009 138.647 137.964 138.714 137.928C138.78 137.893 138.859 137.875 138.952 137.875V138.19ZM140.202 139.597C140.041 139.597 139.893 139.563 139.758 139.494C139.624 139.426 139.517 139.328 139.437 139.2C139.358 139.072 139.318 138.918 139.318 138.739C139.318 138.559 139.358 138.404 139.437 138.276C139.517 138.146 139.624 138.046 139.758 137.978C139.893 137.91 140.041 137.875 140.202 137.875C140.363 137.875 140.51 137.91 140.642 137.978C140.775 138.046 140.881 138.146 140.96 138.276C141.04 138.404 141.079 138.559 141.079 138.739C141.079 138.918 141.04 139.072 140.96 139.2C140.881 139.328 140.775 139.426 140.642 139.494C140.51 139.563 140.363 139.597 140.202 139.597ZM140.202 139.322C140.301 139.322 140.393 139.3 140.477 139.256C140.563 139.21 140.631 139.143 140.682 139.057C140.735 138.969 140.761 138.863 140.761 138.739C140.761 138.614 140.735 138.507 140.682 138.418C140.631 138.33 140.563 138.263 140.477 138.216C140.393 138.17 140.301 138.147 140.202 138.147C140.103 138.147 140.01 138.17 139.924 138.216C139.838 138.261 139.768 138.327 139.715 138.415C139.662 138.503 139.636 138.611 139.636 138.739C139.636 138.863 139.661 138.969 139.712 139.057C139.765 139.143 139.834 139.21 139.92 139.256C140.007 139.3 140.1 139.322 140.202 139.322ZM141.504 139.024H141.796C141.807 139.112 141.847 139.185 141.915 139.243C141.983 139.298 142.079 139.325 142.203 139.325C142.282 139.325 142.344 139.317 142.388 139.299C142.433 139.279 142.463 139.253 142.481 139.22C142.501 139.186 142.511 139.15 142.511 139.11C142.511 139.06 142.498 139.021 142.471 138.994C142.445 138.966 142.407 138.943 142.359 138.925C142.31 138.905 142.253 138.886 142.186 138.869C142.114 138.849 142.041 138.826 141.968 138.799C141.895 138.773 141.828 138.741 141.766 138.703C141.706 138.666 141.658 138.619 141.62 138.564C141.585 138.507 141.567 138.437 141.567 138.355C141.567 138.287 141.582 138.223 141.61 138.163C141.641 138.104 141.684 138.053 141.74 138.011C141.797 137.967 141.863 137.934 141.938 137.912C142.013 137.888 142.096 137.875 142.186 137.875C142.312 137.875 142.418 137.899 142.504 137.945C142.59 137.989 142.655 138.052 142.7 138.134C142.746 138.215 142.77 138.309 142.772 138.415H142.494C142.479 138.322 142.447 138.255 142.398 138.213C142.35 138.169 142.277 138.147 142.18 138.147C142.085 138.147 142.012 138.166 141.961 138.203C141.911 138.241 141.885 138.291 141.885 138.355C141.885 138.404 141.903 138.444 141.938 138.475C141.973 138.503 142.021 138.529 142.081 138.551C142.14 138.573 142.207 138.596 142.282 138.62C142.353 138.645 142.42 138.67 142.484 138.696C142.551 138.721 142.609 138.751 142.66 138.786C142.713 138.819 142.754 138.863 142.782 138.918C142.813 138.971 142.829 139.037 142.829 139.117C142.829 139.214 142.804 139.299 142.756 139.372C142.707 139.442 142.637 139.498 142.544 139.537C142.454 139.577 142.343 139.597 142.213 139.597C142.094 139.597 141.992 139.583 141.908 139.554C141.827 139.525 141.757 139.488 141.7 139.441C141.645 139.395 141.602 139.346 141.571 139.296C141.542 139.243 141.522 139.192 141.511 139.143C141.502 139.095 141.5 139.055 141.504 139.024ZM143.254 139.024H143.546C143.557 139.112 143.596 139.185 143.665 139.243C143.733 139.298 143.829 139.325 143.953 139.325C144.032 139.325 144.094 139.317 144.138 139.299C144.182 139.279 144.213 139.253 144.231 139.22C144.251 139.186 144.261 139.15 144.261 139.11C144.261 139.06 144.247 139.021 144.221 138.994C144.194 138.966 144.157 138.943 144.108 138.925C144.06 138.905 144.002 138.886 143.936 138.869C143.863 138.849 143.791 138.826 143.718 138.799C143.645 138.773 143.578 138.741 143.516 138.703C143.456 138.666 143.408 138.619 143.37 138.564C143.335 138.507 143.317 138.437 143.317 138.355C143.317 138.287 143.331 138.223 143.36 138.163C143.391 138.104 143.434 138.053 143.489 138.011C143.547 137.967 143.613 137.934 143.688 137.912C143.763 137.888 143.846 137.875 143.936 137.875C144.062 137.875 144.168 137.899 144.254 137.945C144.34 137.989 144.405 138.052 144.449 138.134C144.496 138.215 144.52 138.309 144.522 138.415H144.244C144.229 138.322 144.197 138.255 144.148 138.213C144.1 138.169 144.027 138.147 143.93 138.147C143.835 138.147 143.762 138.166 143.711 138.203C143.66 138.241 143.635 138.291 143.635 138.355C143.635 138.404 143.653 138.444 143.688 138.475C143.723 138.503 143.771 138.529 143.83 138.551C143.89 138.573 143.957 138.596 144.032 138.62C144.103 138.645 144.17 138.67 144.234 138.696C144.3 138.721 144.359 138.751 144.41 138.786C144.463 138.819 144.503 138.863 144.532 138.918C144.563 138.971 144.579 139.037 144.579 139.117C144.579 139.214 144.554 139.299 144.506 139.372C144.457 139.442 144.386 139.498 144.294 139.537C144.203 139.577 144.093 139.597 143.963 139.597C143.844 139.597 143.742 139.583 143.658 139.554C143.576 139.525 143.507 139.488 143.45 139.441C143.394 139.395 143.351 139.346 143.32 139.296C143.292 139.243 143.272 139.192 143.261 139.143C143.252 139.095 143.25 139.055 143.254 139.024ZM145.97 137.909H146.288V139.561H145.97V137.909ZM146.917 137.875C147.009 137.875 147.093 137.889 147.168 137.915C147.243 137.942 147.307 137.981 147.36 138.034C147.413 138.085 147.454 138.149 147.483 138.226C147.514 138.301 147.529 138.387 147.529 138.485V139.561H147.215V138.554C147.215 138.424 147.183 138.327 147.119 138.263C147.057 138.197 146.962 138.163 146.834 138.163C146.735 138.163 146.644 138.187 146.562 138.233C146.481 138.279 146.413 138.341 146.36 138.418C146.31 138.493 146.279 138.578 146.268 138.673L146.264 138.491C146.276 138.403 146.299 138.321 146.334 138.246C146.372 138.171 146.418 138.106 146.473 138.051C146.53 137.993 146.597 137.95 146.672 137.922C146.747 137.891 146.828 137.875 146.917 137.875ZM148.128 137.875C148.221 137.875 148.305 137.889 148.38 137.915C148.455 137.942 148.519 137.981 148.572 138.034C148.625 138.085 148.666 138.149 148.695 138.226C148.725 138.301 148.741 138.387 148.741 138.485V139.561H148.426V138.554C148.426 138.424 148.394 138.327 148.33 138.263C148.269 138.197 148.174 138.163 148.046 138.163C147.946 138.163 147.856 138.187 147.774 138.233C147.692 138.279 147.625 138.341 147.572 138.418C147.521 138.493 147.491 138.578 147.48 138.673L147.476 138.488C147.487 138.4 147.51 138.319 147.546 138.246C147.583 138.171 147.631 138.106 147.688 138.051C147.745 137.993 147.812 137.95 147.887 137.922C147.962 137.891 148.042 137.875 148.128 137.875ZM150.005 139.594C149.864 139.594 149.735 139.557 149.618 139.484C149.501 139.412 149.408 139.311 149.34 139.183C149.271 139.053 149.237 138.904 149.237 138.736C149.237 138.568 149.271 138.421 149.34 138.293C149.41 138.162 149.506 138.061 149.628 137.988C149.749 137.913 149.885 137.875 150.035 137.875C150.201 137.875 150.329 137.914 150.419 137.991C150.512 138.069 150.576 138.172 150.611 138.302C150.649 138.433 150.667 138.577 150.667 138.736C150.667 138.824 150.656 138.918 150.634 139.018C150.612 139.117 150.577 139.211 150.528 139.299C150.48 139.387 150.412 139.459 150.326 139.514C150.24 139.567 150.133 139.594 150.005 139.594ZM150.095 139.319C150.212 139.319 150.31 139.293 150.389 139.243C150.471 139.19 150.532 139.119 150.571 139.031C150.611 138.943 150.631 138.844 150.631 138.736C150.631 138.619 150.61 138.517 150.568 138.428C150.528 138.34 150.468 138.272 150.386 138.223C150.306 138.174 150.209 138.15 150.095 138.15C149.922 138.15 149.789 138.205 149.694 138.316C149.601 138.426 149.555 138.566 149.555 138.736C149.555 138.851 149.578 138.952 149.624 139.041C149.671 139.127 149.734 139.195 149.813 139.246C149.895 139.295 149.989 139.319 150.095 139.319ZM150.631 137.909H150.949V139.561H150.657C150.657 139.561 150.655 139.541 150.651 139.501C150.646 139.459 150.642 139.409 150.638 139.352C150.633 139.295 150.631 139.244 150.631 139.2V137.909ZM151.529 137.909H151.847V139.561H151.529V137.909ZM152.406 138.19C152.291 138.19 152.193 138.216 152.112 138.269C152.032 138.322 151.968 138.387 151.919 138.465C151.873 138.542 151.842 138.616 151.827 138.687L151.823 138.498C151.826 138.476 151.831 138.442 151.84 138.395C151.851 138.347 151.87 138.293 151.896 138.233C151.923 138.173 151.958 138.117 152.002 138.064C152.046 138.009 152.102 137.964 152.168 137.928C152.234 137.893 152.313 137.875 152.406 137.875V138.19ZM153.524 139.302C153.387 139.302 153.261 139.275 153.146 139.22C153.032 139.164 152.94 139.084 152.872 138.978C152.805 138.872 152.772 138.744 152.772 138.594C152.772 138.446 152.805 138.319 152.872 138.213C152.938 138.105 153.027 138.022 153.14 137.965C153.254 137.905 153.382 137.875 153.524 137.875C153.566 137.875 153.605 137.879 153.643 137.885C153.68 137.89 153.717 137.897 153.752 137.909H154.474V138.206C154.375 138.206 154.274 138.19 154.173 138.157C154.073 138.124 153.986 138.088 153.911 138.051L153.901 138.034C153.976 138.074 154.041 138.123 154.096 138.18C154.152 138.235 154.194 138.298 154.222 138.369C154.253 138.437 154.269 138.514 154.269 138.6C154.269 138.746 154.236 138.872 154.169 138.978C154.105 139.084 154.016 139.164 153.901 139.22C153.789 139.275 153.663 139.302 153.524 139.302ZM154.03 140.229V140.153C154.03 140.041 153.999 139.96 153.938 139.911C153.876 139.863 153.785 139.839 153.666 139.839H153.279C153.197 139.839 153.128 139.832 153.07 139.819C153.013 139.806 152.965 139.786 152.928 139.759C152.89 139.735 152.863 139.704 152.845 139.666C152.827 139.631 152.819 139.591 152.819 139.547C152.819 139.461 152.845 139.396 152.898 139.352C152.951 139.308 153.018 139.28 153.1 139.269C153.182 139.256 153.264 139.255 153.348 139.266L153.524 139.302C153.398 139.309 153.302 139.321 153.236 139.339C153.169 139.356 153.136 139.394 153.136 139.451C153.136 139.484 153.15 139.511 153.176 139.531C153.203 139.551 153.24 139.561 153.289 139.561H153.693C153.818 139.561 153.93 139.576 154.027 139.607C154.126 139.64 154.204 139.694 154.259 139.769C154.316 139.846 154.345 139.951 154.345 140.084V140.229H154.03ZM153.524 139.034C153.603 139.034 153.675 139.018 153.739 138.984C153.805 138.949 153.858 138.9 153.898 138.836C153.938 138.769 153.957 138.69 153.957 138.597C153.957 138.502 153.938 138.422 153.898 138.355C153.86 138.287 153.808 138.236 153.742 138.203C153.676 138.168 153.603 138.15 153.524 138.15C153.444 138.15 153.37 138.168 153.302 138.203C153.236 138.236 153.183 138.286 153.143 138.352C153.103 138.418 153.083 138.5 153.083 138.597C153.083 138.69 153.103 138.769 153.143 138.836C153.183 138.9 153.236 138.949 153.302 138.984C153.368 139.018 153.442 139.034 153.524 139.034ZM155.322 137.226V137.568H154.928V137.226H155.322ZM154.968 137.909H155.282V139.561H154.968V137.909ZM155.895 137.909H156.213V139.561H155.895V137.909ZM156.842 137.875C156.935 137.875 157.019 137.889 157.094 137.915C157.169 137.942 157.233 137.981 157.286 138.034C157.339 138.085 157.38 138.149 157.408 138.226C157.439 138.301 157.455 138.387 157.455 138.485V139.561H157.14V138.554C157.14 138.424 157.108 138.327 157.044 138.263C156.982 138.197 156.888 138.163 156.76 138.163C156.66 138.163 156.57 138.187 156.488 138.233C156.406 138.279 156.339 138.341 156.286 138.418C156.235 138.493 156.204 138.578 156.193 138.673L156.19 138.491C156.201 138.403 156.224 138.321 156.26 138.246C156.297 138.171 156.344 138.106 156.399 138.051C156.456 137.993 156.522 137.95 156.597 137.922C156.672 137.891 156.754 137.875 156.842 137.875Z" fill="#B6B6B6"/>
<path d="M135.574 147.935H134.514V147.173H136.388V152.014H135.574V147.935ZM137.212 149.603C137.212 148.1 138.02 147.081 139.258 147.081C140.496 147.081 141.311 148.1 141.311 149.603C141.311 151.1 140.543 152.1 139.258 152.1C137.973 152.1 137.212 151.1 137.212 149.603ZM138.046 149.603C138.046 150.722 138.497 151.352 139.258 151.352C140.026 151.352 140.476 150.722 140.476 149.603C140.476 148.458 140.026 147.829 139.258 147.829C138.497 147.829 138.046 148.458 138.046 149.603ZM142.853 151.722C142.853 152.272 142.456 152.709 141.919 152.775V152.451C142.217 152.398 142.443 152.219 142.443 151.987C142.39 152.014 142.33 152.027 142.251 152.027C141.992 152.027 141.78 151.835 141.78 151.57C141.78 151.252 141.986 151.04 142.284 151.04C142.615 151.04 142.853 151.312 142.853 151.722ZM143.329 149.603C143.329 148.1 144.137 147.081 145.375 147.081C146.613 147.081 147.428 148.1 147.428 149.603C147.428 151.1 146.66 152.1 145.375 152.1C144.091 152.1 143.329 151.1 143.329 149.603ZM144.163 149.603C144.163 150.722 144.614 151.352 145.375 151.352C146.143 151.352 146.593 150.722 146.593 149.603C146.593 148.458 146.143 147.829 145.375 147.829C144.614 147.829 144.163 148.458 144.163 149.603ZM147.998 149.603C147.998 148.1 148.805 147.081 150.044 147.081C151.282 147.081 152.096 148.1 152.096 149.603C152.096 151.1 151.328 152.1 150.044 152.1C148.759 152.1 147.998 151.1 147.998 149.603ZM148.832 149.603C148.832 150.722 149.282 151.352 150.044 151.352C150.812 151.352 151.262 150.722 151.262 149.603C151.262 148.458 150.812 147.829 150.044 147.829C149.282 147.829 148.832 148.458 148.832 149.603ZM152.666 149.603C152.666 148.1 153.474 147.081 154.712 147.081C155.951 147.081 156.765 148.1 156.765 149.603C156.765 151.1 155.997 152.1 154.712 152.1C153.428 152.1 152.666 151.1 152.666 149.603ZM153.501 149.603C153.501 150.722 153.951 151.352 154.712 151.352C155.48 151.352 155.931 150.722 155.931 149.603C155.931 148.458 155.48 147.829 154.712 147.829C153.951 147.829 153.501 148.458 153.501 149.603Z" fill="#020518"/>
<path d="M128.492 148.431H129.009V146.914H129.527L130.411 148.431H131.596V146.914H132.113V148.431H132.631V148.937H132.113V149.443H132.631V149.949H132.113V151.466H131.596L130.709 149.949H129.527V151.466H129.009V149.949H128.492V149.443H129.009V148.937H128.492V148.431ZM129.527 148.431H129.819L129.527 147.933V148.431ZM129.527 148.937V149.443H130.411L130.117 148.937H129.527ZM131.596 150.455V149.949H131.299L131.596 150.455ZM130.706 148.937L131.004 149.443H131.596V148.937H130.706Z" fill="#020518"/>
<rect x="167.445" y="146.496" width="14.9241" height="4.98675" rx="1.24669" fill="#EDFEED"/>
<path d="M170.106 148.55H170.629V148.027H170.829V148.55H171.352V148.75H170.829V149.276H170.629V148.75H170.106V148.55ZM172.884 149.488L171.667 149.49V149.303L172.248 148.802C172.54 148.55 172.622 148.428 172.622 148.236C172.622 148.009 172.492 147.875 172.275 147.875C172.053 147.875 171.909 148.037 171.904 148.293H171.659C171.667 147.907 171.911 147.655 172.278 147.655C172.639 147.655 172.871 147.875 172.871 148.221C172.871 148.478 172.744 148.66 172.425 148.937L172.051 149.261H172.884V149.488ZM173.352 149.52C173.255 149.52 173.173 149.44 173.173 149.346C173.173 149.248 173.255 149.169 173.352 149.169C173.447 149.169 173.529 149.248 173.529 149.346C173.529 149.44 173.447 149.52 173.352 149.52ZM175.122 149.126H174.908V149.49H174.673V149.126H173.741V148.909L174.591 147.688H174.908V148.909H175.122V149.126ZM174.005 148.909H174.673V147.947L174.005 148.909ZM175.877 148.558H175.698V148.396L176.209 147.904H175.398V147.688H176.518V147.884L176.024 148.356C176.331 148.393 176.563 148.6 176.563 148.924C176.563 149.288 176.288 149.52 175.922 149.52C175.568 149.52 175.314 149.303 175.314 148.929H175.555C175.555 149.164 175.7 149.301 175.927 149.301C176.161 149.301 176.313 149.151 176.313 148.919C176.313 148.702 176.164 148.558 175.877 148.558ZM177.671 148.114C177.671 148.381 177.481 148.573 177.214 148.573C176.95 148.573 176.761 148.381 176.761 148.114C176.761 147.845 176.95 147.653 177.214 147.653C177.481 147.653 177.671 147.845 177.671 148.114ZM178.621 147.69L177.252 149.49H177.012L178.381 147.69H178.621ZM177.479 148.114C177.479 147.952 177.371 147.84 177.214 147.84C177.06 147.84 176.953 147.952 176.953 148.114C176.953 148.273 177.06 148.386 177.214 148.386C177.369 148.386 177.479 148.273 177.479 148.114ZM178.877 149.064C178.877 149.331 178.686 149.523 178.421 149.523C178.157 149.523 177.965 149.331 177.965 149.064C177.965 148.795 178.157 148.605 178.421 148.605C178.686 148.605 178.877 148.795 178.877 149.064ZM178.683 149.064C178.683 148.902 178.578 148.79 178.421 148.79C178.267 148.79 178.159 148.902 178.159 149.064C178.159 149.223 178.267 149.336 178.421 149.336C178.576 149.336 178.683 149.223 178.683 149.064Z" fill="#FF823B"/>
<path d="M157.407 163.666C157.248 163.942 156.85 163.942 156.69 163.666L154.54 159.942C154.381 159.666 154.58 159.321 154.898 159.321H159.199C159.518 159.321 159.717 159.666 159.557 159.942L157.407 163.666Z" fill="white"/>
</g>
<path d="M2.50812 223.044C1.15306 223.044 0.294578 221.908 0.294578 219.93C0.294578 217.918 1.18673 216.841 2.51654 216.841C3.85476 216.841 4.69641 217.969 4.69641 219.938C4.69641 221.958 3.81268 223.044 2.50812 223.044ZM2.4997 222.303C3.32452 222.303 3.82951 221.605 3.82951 219.938C3.82951 218.272 3.32452 217.573 2.4997 217.573C1.67489 217.573 1.16989 218.263 1.16989 219.938C1.16989 221.605 1.67489 222.303 2.4997 222.303Z" fill="#B5BBC5"/>
<path d="M1.22413 195.441H0.229116V194.865H1.83947V199.598H1.22413V195.441ZM3.03257 197.234C3.03257 195.768 3.79192 194.773 4.98333 194.773C6.16818 194.773 6.92754 195.768 6.92754 197.234C6.92754 198.707 6.20091 199.683 4.98333 199.683C3.75919 199.683 3.03257 198.707 3.03257 197.234ZM3.66754 197.234C3.66754 198.4 4.15196 199.107 4.98333 199.107C5.81469 199.107 6.29256 198.4 6.29256 197.234C6.29256 196.056 5.81469 195.349 4.98333 195.349C4.15196 195.349 3.66754 196.056 3.66754 197.234ZM8.65153 199.598H8.03619V194.78H8.65153V197.902L10.0721 196.397H10.8445L9.62037 197.673L10.838 199.598H10.131L9.19487 198.118L8.65153 198.688V199.598Z" fill="#B5BBC5"/>
<path d="M3.49566 179.017L0.301124 179.023V178.532L1.82638 177.217C2.59228 176.556 2.80831 176.235 2.80831 175.731C2.80831 175.135 2.46791 174.782 1.89839 174.782C1.31578 174.782 0.936103 175.207 0.92301 175.881H0.281485C0.301124 174.867 0.942649 174.205 1.90494 174.205C2.85413 174.205 3.46293 174.782 3.46293 175.691C3.46293 176.366 3.12907 176.844 2.29116 177.57L1.30923 178.421H3.49566V179.017ZM4.4134 176.66C4.4134 175.194 5.17276 174.199 6.36416 174.199C7.54902 174.199 8.30837 175.194 8.30837 176.66C8.30837 178.133 7.58175 179.109 6.36416 179.109C5.14002 179.109 4.4134 178.133 4.4134 176.66ZM5.04838 176.66C5.04838 177.825 5.5328 178.532 6.36416 178.532C7.19552 178.532 7.67339 177.825 7.67339 176.66C7.67339 175.482 7.19552 174.775 6.36416 174.775C5.5328 174.775 5.04838 175.482 5.04838 176.66ZM10.0324 179.023H9.41703V174.205H10.0324V177.328L11.4529 175.822H12.2253L11.0012 177.099L12.2188 179.023H11.5118L10.5757 177.544L10.0324 178.114V179.023Z" fill="#B5BBC5"/>
<path d="M1.67582 155.067H1.2045V154.642L2.54646 153.352H0.418955V152.783H3.35819V153.3L2.06204 154.537C2.86722 154.635 3.47602 155.179 3.47602 156.03C3.47602 156.985 2.75594 157.594 1.79365 157.594C0.864095 157.594 0.196385 157.025 0.196385 156.043H0.831364C0.831364 156.658 1.21104 157.018 1.80674 157.018C2.42208 157.018 2.8214 156.625 2.8214 156.017C2.8214 155.447 2.42863 155.067 1.67582 155.067ZM4.36865 155.152C4.36865 153.686 5.12801 152.691 6.31941 152.691C7.50427 152.691 8.26362 153.686 8.26362 155.152C8.26362 156.625 7.537 157.601 6.31941 157.601C5.09528 157.601 4.36865 156.625 4.36865 155.152ZM5.00363 155.152C5.00363 156.318 5.48805 157.025 6.31941 157.025C7.15077 157.025 7.62864 156.318 7.62864 155.152C7.62864 153.974 7.15077 153.267 6.31941 153.267C5.48805 153.267 5.00363 153.974 5.00363 155.152ZM9.98762 157.516H9.37228V152.698H9.98762V155.82L11.4081 154.315H12.1806L10.9565 155.591L12.174 157.516H11.4671L10.531 156.036L9.98762 156.606V157.516Z" fill="#B5BBC5"/>
<path d="M3.84915 135.05H3.28618V136.006H2.67084V135.05H0.22257V134.481L2.45482 131.273H3.28618V134.481H3.84915V135.05ZM0.916464 134.481H2.67084V131.954L0.916464 134.481ZM4.80975 133.643C4.80975 132.176 5.56911 131.181 6.76051 131.181C7.94537 131.181 8.70472 132.176 8.70472 133.643C8.70472 135.116 7.9781 136.091 6.76051 136.091C5.53637 136.091 4.80975 135.116 4.80975 133.643ZM5.44473 133.643C5.44473 134.808 5.92915 135.515 6.76051 135.515C7.59187 135.515 8.06974 134.808 8.06974 133.643C8.06974 132.464 7.59187 131.757 6.76051 131.757C5.92915 131.757 5.44473 132.464 5.44473 133.643ZM10.4287 136.006H9.81338V131.188H10.4287V134.31L11.8492 132.805H12.6217L11.3976 134.081L12.6151 136.006H11.9082L10.9721 134.526L10.4287 135.096V136.006Z" fill="#B5BBC5"/>
<path d="M1.91148 113.641C0.942649 113.641 0.314216 113.026 0.314216 112.083H0.949195C0.949195 112.692 1.32233 113.065 1.92457 113.065C2.5661 113.065 2.97851 112.639 2.97851 111.998C2.97851 111.389 2.59228 110.937 1.93112 110.937C1.5318 110.937 1.16522 111.127 0.949195 111.396L0.405863 111.258L0.981926 108.83H3.35164V109.419H1.4467L1.13249 110.676C1.38124 110.486 1.69546 110.388 2.04895 110.388C3.01124 110.388 3.63313 111.062 3.63313 111.972C3.63313 112.954 2.93269 113.641 1.91148 113.641ZM4.51568 111.199C4.51568 109.733 5.27504 108.738 6.46644 108.738C7.6513 108.738 8.41066 109.733 8.41066 111.199C8.41066 112.672 7.68403 113.648 6.46644 113.648C5.24231 113.648 4.51568 112.672 4.51568 111.199ZM5.15066 111.199C5.15066 112.365 5.63508 113.072 6.46644 113.072C7.29781 113.072 7.77568 112.365 7.77568 111.199C7.77568 110.021 7.29781 109.314 6.46644 109.314C5.63508 109.314 5.15066 110.021 5.15066 111.199ZM10.1347 113.562H9.51931V108.745H10.1347V111.867L11.5552 110.361H12.3276L11.1035 111.638L12.3211 113.562H11.6141L10.678 112.083L10.1347 112.653V113.562Z" fill="#B5BBC5"/>
<path d="M0.92301 89.7545L2.02931 88.2554H2.77558L1.59072 89.8265C1.75437 89.761 1.92457 89.7283 2.08823 89.7283C3.07016 89.7283 3.73132 90.4353 3.73132 91.3714C3.73132 92.3598 2.98506 93.0668 2.00968 93.0668C1.02775 93.0668 0.268393 92.3271 0.268393 91.3714C0.268393 90.8084 0.438594 90.4156 0.92301 89.7545ZM0.92301 91.3779C0.92301 92.026 1.36815 92.4908 2.00968 92.4908C2.63811 92.4908 3.08325 92.026 3.08325 91.3779C3.08325 90.7299 2.63811 90.2716 2.00968 90.2716C1.36815 90.2716 0.92301 90.7299 0.92301 91.3779ZM4.64993 90.6251C4.64993 89.1588 5.40929 88.1638 6.60069 88.1638C7.78555 88.1638 8.5449 89.1588 8.5449 90.6251C8.5449 92.098 7.81828 93.0734 6.60069 93.0734C5.37656 93.0734 4.64993 92.098 4.64993 90.6251ZM5.28491 90.6251C5.28491 91.7903 5.76933 92.4973 6.60069 92.4973C7.43205 92.4973 7.90993 91.7903 7.90993 90.6251C7.90993 89.4468 7.43205 88.7398 6.60069 88.7398C5.76933 88.7398 5.28491 89.4468 5.28491 90.6251ZM10.2689 92.9883H9.65356V88.1703H10.2689V91.2928L11.6894 89.7872H12.4619L11.2377 91.0637L12.4553 92.9883H11.7483L10.8122 91.5088L10.2689 92.0784V92.9883Z" fill="#B5BBC5"/>
<path d="M0.0523694 66.7476H3.35819V67.3367L1.56454 71.4805H0.896826L2.71012 67.3367H0.0523694V66.7476ZM3.94673 69.1173C3.94673 67.651 4.70608 66.6559 5.89749 66.6559C7.08235 66.6559 7.8417 67.651 7.8417 69.1173C7.8417 70.5902 7.11508 71.5656 5.89749 71.5656C4.67335 71.5656 3.94673 70.5902 3.94673 69.1173ZM4.58171 69.1173C4.58171 70.2825 5.06612 70.9895 5.89749 70.9895C6.72885 70.9895 7.20672 70.2825 7.20672 69.1173C7.20672 67.939 6.72885 67.232 5.89749 67.232C5.06612 67.232 4.58171 67.939 4.58171 69.1173ZM9.5657 71.4805H8.95036V66.6625H9.5657V69.785L10.9862 68.2794H11.7587L10.5345 69.5559L11.7521 71.4805H11.0451L10.109 70.001L9.5657 70.5706V71.4805Z" fill="#B5BBC5"/>
<path d="M0.30767 48.6549C0.30767 48.0854 0.641525 47.6272 1.16522 47.4373C0.720079 47.2475 0.477871 46.8744 0.477871 46.3965C0.477871 45.6568 1.11285 45.1527 2.0555 45.1527C2.98506 45.1527 3.61349 45.6568 3.61349 46.403C3.61349 46.8875 3.36473 47.2606 2.91959 47.4373C3.44983 47.6075 3.79023 48.0789 3.79023 48.6615C3.79023 49.4928 3.09634 50.0493 2.04895 50.0493C0.995018 50.0493 0.30767 49.4928 0.30767 48.6549ZM1.06703 46.4358C1.06703 46.9005 1.45325 47.2017 2.04241 47.2017C2.63811 47.2017 3.01124 46.9071 3.01124 46.4489C3.01124 45.9972 2.63811 45.7091 2.04241 45.7091C1.45325 45.7091 1.06703 45.9972 1.06703 46.4358ZM0.936103 48.6091C0.936103 49.1393 1.3747 49.4797 2.04895 49.4797C2.71666 49.4797 3.15526 49.1393 3.15526 48.6091C3.15526 48.0854 2.72321 47.7516 2.04241 47.7516C1.36815 47.7516 0.936103 48.0854 0.936103 48.6091ZM4.73943 47.6075C4.73943 46.1412 5.49879 45.1462 6.69019 45.1462C7.87505 45.1462 8.6344 46.1412 8.6344 47.6075C8.6344 49.0804 7.90778 50.0558 6.69019 50.0558C5.46605 50.0558 4.73943 49.0804 4.73943 47.6075ZM5.37441 47.6075C5.37441 48.7728 5.85883 49.4797 6.69019 49.4797C7.52155 49.4797 7.99942 48.7728 7.99942 47.6075C7.99942 46.4292 7.52155 45.7222 6.69019 45.7222C5.85883 45.7222 5.37441 46.4292 5.37441 47.6075ZM10.3584 49.9707H9.74306V45.1527H10.3584V48.2752L11.7789 46.7696H12.5514L11.3272 48.0461L12.5448 49.9707H11.8378L10.9017 48.4913L10.3584 49.0608V49.9707Z" fill="#B5BBC5"/>
<defs>
<filter id="filter0_d_16531_184535" x="83.2261" y="98.1457" width="146.821" height="108.745" filterUnits="userSpaceOnUse" color-interpolation-filters="sRGB">
<feFlood flood-opacity="0" result="BackgroundImageFix"/>
<feColorMatrix in="SourceAlpha" type="matrix" values="0 0 0 0 0 0 0 0 0 0 0 0 0 0 0 0 0 0 127 0" result="hardAlpha"/>
<feOffset dy="5.61101"/>
<feGaussianBlur stdDeviation="18.7034"/>
<feComposite in2="hardAlpha" operator="out"/>
<feColorMatrix type="matrix" values="0 0 0 0 0.2375 0 0 0 0 0.2375 0 0 0 0 0.2375 0 0 0 0.12 0"/>
<feBlend mode="normal" in2="BackgroundImageFix" result="effect1_dropShadow_16531_184535"/>
<feBlend mode="normal" in="SourceGraphic" in2="effect1_dropShadow_16531_184535" result="shape"/>
</filter>
</defs>
</svg>
