<svg width="344" height="126" viewBox="0 0 344 126" fill="none" xmlns="http://www.w3.org/2000/svg">
<g filter="url(#filter0_d_6188_59359)">
<rect x="35" y="31" width="274" height="56" rx="4" fill="white" shape-rendering="crispEdges"/>
<path d="M56.92 45.2V52.1H61.24V53H55.96V45.2H56.92ZM64.9934 53.12C64.4814 53.12 64.0014 52.996 63.5534 52.748C63.1054 52.5 62.7414 52.144 62.4614 51.68C62.1894 51.208 62.0534 50.652 62.0534 50.012C62.0534 49.372 62.1894 48.82 62.4614 48.356C62.7414 47.884 63.1054 47.52 63.5534 47.264C64.0014 47.008 64.4814 46.88 64.9934 46.88C65.5054 46.88 65.9814 47.008 66.4214 47.264C66.8694 47.52 67.2294 47.884 67.5014 48.356C67.7734 48.82 67.9094 49.372 67.9094 50.012C67.9094 50.652 67.7734 51.208 67.5014 51.68C67.2294 52.144 66.8694 52.5 66.4214 52.748C65.9814 52.996 65.5054 53.12 64.9934 53.12ZM64.9934 52.22C65.3294 52.22 65.6454 52.136 65.9414 51.968C66.2374 51.8 66.4774 51.552 66.6614 51.224C66.8534 50.888 66.9494 50.484 66.9494 50.012C66.9494 49.54 66.8534 49.14 66.6614 48.812C66.4774 48.476 66.2374 48.22 65.9414 48.044C65.6454 47.868 65.3294 47.78 64.9934 47.78C64.6574 47.78 64.3374 47.868 64.0334 48.044C63.7374 48.212 63.4934 48.464 63.3014 48.8C63.1094 49.128 63.0134 49.532 63.0134 50.012C63.0134 50.484 63.1054 50.888 63.2894 51.224C63.4814 51.552 63.7294 51.8 64.0334 51.968C64.3374 52.136 64.6574 52.22 64.9934 52.22ZM71.3957 53.12C70.9237 53.12 70.4877 52.988 70.0877 52.724C69.6957 52.452 69.3797 52.084 69.1397 51.62C68.9077 51.148 68.7917 50.612 68.7917 50.012C68.7917 49.412 68.9117 48.876 69.1517 48.404C69.3917 47.932 69.7157 47.56 70.1237 47.288C70.5397 47.016 71.0037 46.88 71.5157 46.88C72.0757 46.88 72.4997 47.024 72.7877 47.312C73.0837 47.592 73.2837 47.968 73.3877 48.44C73.4997 48.912 73.5557 49.436 73.5557 50.012C73.5557 50.316 73.5237 50.648 73.4597 51.008C73.3957 51.36 73.2837 51.7 73.1237 52.028C72.9717 52.348 72.7557 52.612 72.4757 52.82C72.1957 53.02 71.8357 53.12 71.3957 53.12ZM71.6357 52.208C72.0437 52.208 72.3797 52.108 72.6437 51.908C72.9157 51.708 73.1157 51.444 73.2437 51.116C73.3717 50.78 73.4357 50.412 73.4357 50.012C73.4357 49.572 73.3677 49.188 73.2317 48.86C73.1037 48.524 72.9037 48.264 72.6317 48.08C72.3677 47.888 72.0357 47.792 71.6357 47.792C71.0357 47.792 70.5717 48.004 70.2437 48.428C69.9157 48.844 69.7517 49.372 69.7517 50.012C69.7517 50.436 69.8317 50.816 69.9917 51.152C70.1597 51.48 70.3837 51.74 70.6637 51.932C70.9517 52.116 71.2757 52.208 71.6357 52.208ZM73.4357 47H74.3957V53H73.5197C73.5197 53 73.5117 52.928 73.4957 52.784C73.4877 52.64 73.4757 52.472 73.4597 52.28C73.4437 52.088 73.4357 51.928 73.4357 51.8V47ZM75.9597 47H76.9197V53H75.9597V47ZM78.9837 46.88C79.3037 46.88 79.5917 46.928 79.8477 47.024C80.1037 47.12 80.3197 47.26 80.4957 47.444C80.6717 47.628 80.8077 47.852 80.9037 48.116C80.9997 48.372 81.0477 48.664 81.0477 48.992V53H80.0877V49.232C80.0877 48.768 79.9797 48.42 79.7637 48.188C79.5477 47.956 79.2237 47.84 78.7917 47.84C78.4637 47.84 78.1597 47.924 77.8797 48.092C77.5997 48.26 77.3677 48.492 77.1837 48.788C77.0077 49.076 76.8997 49.412 76.8597 49.796L76.8477 49.1C76.8877 48.764 76.9677 48.46 77.0877 48.188C77.2157 47.916 77.3717 47.684 77.5557 47.492C77.7477 47.292 77.9637 47.14 78.2037 47.036C78.4517 46.932 78.7117 46.88 78.9837 46.88ZM85.3038 53V45.2H88.7478C89.2918 45.2 89.7558 45.284 90.1398 45.452C90.5238 45.612 90.8158 45.856 91.0158 46.184C91.2238 46.512 91.3278 46.924 91.3278 47.42C91.3278 47.756 91.2718 48.044 91.1598 48.284C91.0558 48.524 90.9078 48.728 90.7158 48.896C90.5238 49.056 90.2958 49.18 90.0318 49.268C89.7758 49.356 89.4958 49.412 89.1918 49.436L89.1558 49.376C89.5798 49.392 89.9438 49.444 90.2478 49.532C90.5518 49.62 90.7878 49.78 90.9557 50.012C91.1238 50.244 91.2078 50.592 91.2078 51.056V53H90.2478V51.056C90.2478 50.736 90.1918 50.488 90.0798 50.312C89.9758 50.128 89.7958 50 89.5398 49.928C89.2918 49.848 88.9478 49.808 88.5078 49.808H86.2638V53H85.3038ZM86.2638 48.908H88.7478C89.2918 48.908 89.6958 48.772 89.9598 48.5C90.2318 48.22 90.3678 47.86 90.3678 47.42C90.3678 46.996 90.2318 46.672 89.9598 46.448C89.6958 46.216 89.2918 46.1 88.7478 46.1H86.2638V48.908ZM97.071 51.068H97.971C97.907 51.46 97.763 51.812 97.539 52.124C97.323 52.428 97.035 52.672 96.675 52.856C96.323 53.032 95.915 53.12 95.451 53.12C94.891 53.12 94.387 52.988 93.939 52.724C93.491 52.452 93.135 52.084 92.871 51.62C92.615 51.148 92.487 50.612 92.487 50.012C92.487 49.412 92.611 48.876 92.859 48.404C93.115 47.932 93.463 47.56 93.903 47.288C94.343 47.016 94.839 46.88 95.391 46.88C95.975 46.88 96.467 47.012 96.867 47.276C97.275 47.532 97.575 47.912 97.767 48.416C97.967 48.912 98.047 49.524 98.007 50.252H93.447C93.487 50.644 93.595 50.988 93.771 51.284C93.947 51.58 94.179 51.812 94.467 51.98C94.755 52.14 95.083 52.22 95.451 52.22C95.859 52.22 96.203 52.116 96.483 51.908C96.771 51.692 96.967 51.412 97.071 51.068ZM95.427 47.78C94.931 47.78 94.515 47.924 94.179 48.212C93.843 48.5 93.619 48.892 93.507 49.388H97.023C96.991 48.86 96.819 48.46 96.507 48.188C96.203 47.916 95.843 47.78 95.427 47.78ZM102.245 53.12C101.805 53.12 101.445 53.02 101.165 52.82C100.885 52.612 100.665 52.348 100.505 52.028C100.353 51.7 100.245 51.36 100.181 51.008C100.117 50.648 100.085 50.316 100.085 50.012C100.085 49.58 100.113 49.176 100.169 48.8C100.233 48.424 100.341 48.092 100.493 47.804C100.645 47.516 100.861 47.292 101.141 47.132C101.429 46.964 101.797 46.88 102.245 46.88C102.725 46.88 103.161 47.016 103.553 47.288C103.945 47.56 104.257 47.932 104.489 48.404C104.729 48.876 104.849 49.412 104.849 50.012C104.849 50.612 104.729 51.148 104.489 51.62C104.249 52.084 103.929 52.452 103.529 52.724C103.137 52.988 102.709 53.12 102.245 53.12ZM102.005 52.208C102.373 52.208 102.697 52.116 102.977 51.932C103.265 51.74 103.489 51.48 103.649 51.152C103.809 50.816 103.889 50.436 103.889 50.012C103.889 49.372 103.725 48.844 103.397 48.428C103.069 48.004 102.605 47.792 102.005 47.792C101.653 47.792 101.341 47.888 101.069 48.08C100.797 48.264 100.585 48.524 100.433 48.86C100.281 49.188 100.205 49.572 100.205 50.012C100.205 50.412 100.269 50.78 100.397 51.116C100.533 51.444 100.733 51.708 100.997 51.908C101.261 52.108 101.597 52.208 102.005 52.208ZM99.2448 47H100.169L100.205 48.26V55.4H99.2448V47ZM108.681 53.12C108.169 53.12 107.689 52.996 107.241 52.748C106.793 52.5 106.429 52.144 106.149 51.68C105.877 51.208 105.741 50.652 105.741 50.012C105.741 49.372 105.877 48.82 106.149 48.356C106.429 47.884 106.793 47.52 107.241 47.264C107.689 47.008 108.169 46.88 108.681 46.88C109.193 46.88 109.669 47.008 110.109 47.264C110.557 47.52 110.917 47.884 111.189 48.356C111.461 48.82 111.597 49.372 111.597 50.012C111.597 50.652 111.461 51.208 111.189 51.68C110.917 52.144 110.557 52.5 110.109 52.748C109.669 52.996 109.193 53.12 108.681 53.12ZM108.681 52.22C109.017 52.22 109.333 52.136 109.629 51.968C109.925 51.8 110.165 51.552 110.349 51.224C110.541 50.888 110.637 50.484 110.637 50.012C110.637 49.54 110.541 49.14 110.349 48.812C110.165 48.476 109.925 48.22 109.629 48.044C109.333 47.868 109.017 47.78 108.681 47.78C108.345 47.78 108.025 47.868 107.721 48.044C107.425 48.212 107.181 48.464 106.989 48.8C106.797 49.128 106.701 49.532 106.701 50.012C106.701 50.484 106.793 50.888 106.977 51.224C107.169 51.552 107.417 51.8 107.721 51.968C108.025 52.136 108.345 52.22 108.681 52.22ZM112.815 47H113.775V53H112.815V47ZM115.695 47.9C115.287 47.9 114.943 48.004 114.663 48.212C114.391 48.412 114.175 48.66 114.015 48.956C113.863 49.244 113.763 49.524 113.715 49.796L113.703 49.1C113.703 49.028 113.719 48.908 113.751 48.74C113.783 48.572 113.843 48.384 113.931 48.176C114.019 47.96 114.135 47.756 114.279 47.564C114.431 47.364 114.623 47.2 114.855 47.072C115.087 46.944 115.367 46.88 115.695 46.88V47.9ZM116.356 47H119.884V47.9H116.356V47ZM117.64 45.44H118.6V53H117.64V45.44ZM126.25 45.2C127.034 45.2 127.69 45.304 128.218 45.512C128.754 45.712 129.182 45.992 129.502 46.352C129.822 46.712 130.054 47.124 130.198 47.588C130.342 48.052 130.414 48.544 130.414 49.064C130.414 49.584 130.338 50.08 130.186 50.552C130.034 51.024 129.79 51.444 129.454 51.812C129.126 52.18 128.698 52.472 128.17 52.688C127.642 52.896 127.002 53 126.25 53H123.718V45.2H126.25ZM124.678 52.1H126.25C126.882 52.1 127.402 52.012 127.81 51.836C128.226 51.66 128.554 51.428 128.794 51.14C129.034 50.844 129.202 50.516 129.298 50.156C129.402 49.796 129.454 49.432 129.454 49.064C129.454 48.696 129.402 48.336 129.298 47.984C129.202 47.632 129.034 47.316 128.794 47.036C128.554 46.748 128.226 46.52 127.81 46.352C127.402 46.184 126.882 46.1 126.25 46.1H124.678V52.1ZM134.404 53.12C133.892 53.12 133.412 52.996 132.964 52.748C132.516 52.5 132.152 52.144 131.872 51.68C131.6 51.208 131.464 50.652 131.464 50.012C131.464 49.372 131.6 48.82 131.872 48.356C132.152 47.884 132.516 47.52 132.964 47.264C133.412 47.008 133.892 46.88 134.404 46.88C134.916 46.88 135.392 47.008 135.832 47.264C136.28 47.52 136.64 47.884 136.912 48.356C137.184 48.82 137.32 49.372 137.32 50.012C137.32 50.652 137.184 51.208 136.912 51.68C136.64 52.144 136.28 52.5 135.832 52.748C135.392 52.996 134.916 53.12 134.404 53.12ZM134.404 52.22C134.74 52.22 135.056 52.136 135.352 51.968C135.648 51.8 135.888 51.552 136.072 51.224C136.264 50.888 136.36 50.484 136.36 50.012C136.36 49.54 136.264 49.14 136.072 48.812C135.888 48.476 135.648 48.22 135.352 48.044C135.056 47.868 134.74 47.78 134.404 47.78C134.068 47.78 133.748 47.868 133.444 48.044C133.148 48.212 132.904 48.464 132.712 48.8C132.52 49.128 132.424 49.532 132.424 50.012C132.424 50.484 132.516 50.888 132.7 51.224C132.892 51.552 133.14 51.8 133.444 51.968C133.748 52.136 134.068 52.22 134.404 52.22ZM143.866 50.744C143.81 51.24 143.65 51.668 143.386 52.028C143.13 52.38 142.806 52.652 142.414 52.844C142.022 53.028 141.598 53.12 141.142 53.12C140.63 53.12 140.15 52.996 139.702 52.748C139.254 52.5 138.89 52.144 138.61 51.68C138.338 51.208 138.202 50.652 138.202 50.012C138.202 49.372 138.338 48.82 138.61 48.356C138.89 47.884 139.254 47.52 139.702 47.264C140.15 47.008 140.63 46.88 141.142 46.88C141.598 46.88 142.018 46.976 142.402 47.168C142.794 47.36 143.118 47.632 143.374 47.984C143.638 48.336 143.802 48.756 143.866 49.244H142.99C142.854 48.788 142.618 48.432 142.282 48.176C141.946 47.912 141.566 47.78 141.142 47.78C140.798 47.78 140.474 47.868 140.17 48.044C139.866 48.22 139.622 48.476 139.438 48.812C139.254 49.14 139.162 49.54 139.162 50.012C139.162 50.476 139.254 50.876 139.438 51.212C139.622 51.54 139.862 51.792 140.158 51.968C140.462 52.136 140.79 52.22 141.142 52.22C141.63 52.22 142.026 52.092 142.33 51.836C142.642 51.572 142.866 51.208 143.002 50.744H143.866ZM150.177 53H149.217V47H150.177V53ZM149.277 50.204L149.289 50.54C149.281 50.636 149.257 50.784 149.217 50.984C149.185 51.184 149.125 51.408 149.037 51.656C148.957 51.896 148.837 52.128 148.677 52.352C148.525 52.576 148.325 52.76 148.077 52.904C147.837 53.048 147.537 53.12 147.177 53.12C146.945 53.12 146.705 53.084 146.457 53.012C146.217 52.948 145.993 52.84 145.785 52.688C145.577 52.528 145.409 52.308 145.281 52.028C145.153 51.748 145.089 51.4 145.089 50.984V47H146.049V50.744C146.049 51.104 146.105 51.388 146.217 51.596C146.337 51.796 146.497 51.94 146.697 52.028C146.897 52.116 147.121 52.16 147.369 52.16C147.777 52.16 148.117 52.056 148.389 51.848C148.661 51.64 148.869 51.384 149.013 51.08C149.157 50.776 149.245 50.484 149.277 50.204ZM151.733 47H152.693V53H151.733V47ZM154.757 46.88C155.077 46.88 155.365 46.928 155.621 47.024C155.877 47.12 156.093 47.26 156.269 47.444C156.445 47.628 156.581 47.852 156.677 48.116C156.773 48.372 156.821 48.664 156.821 48.992V53H155.861V49.232C155.861 48.768 155.753 48.42 155.537 48.188C155.321 47.956 154.997 47.84 154.565 47.84C154.237 47.84 153.933 47.924 153.653 48.092C153.373 48.26 153.141 48.492 152.957 48.788C152.781 49.076 152.673 49.412 152.633 49.796L152.621 49.1C152.661 48.764 152.741 48.46 152.861 48.188C152.989 47.916 153.145 47.684 153.329 47.492C153.521 47.292 153.737 47.14 153.977 47.036C154.225 46.932 154.485 46.88 154.757 46.88ZM158.789 46.88C159.109 46.88 159.397 46.928 159.653 47.024C159.909 47.12 160.125 47.26 160.301 47.444C160.477 47.628 160.613 47.852 160.709 48.116C160.805 48.372 160.853 48.664 160.853 48.992V53H159.893V49.232C159.893 48.768 159.785 48.42 159.569 48.188C159.353 47.956 159.029 47.84 158.597 47.84C158.269 47.84 157.965 47.924 157.685 48.092C157.405 48.26 157.173 48.492 156.989 48.788C156.813 49.076 156.705 49.412 156.665 49.796L156.653 49.1C156.693 48.764 156.773 48.46 156.893 48.188C157.021 47.916 157.177 47.684 157.361 47.492C157.553 47.292 157.769 47.14 158.009 47.036C158.257 46.932 158.517 46.88 158.789 46.88ZM166.657 51.068H167.557C167.493 51.46 167.349 51.812 167.125 52.124C166.909 52.428 166.621 52.672 166.261 52.856C165.909 53.032 165.501 53.12 165.037 53.12C164.477 53.12 163.973 52.988 163.525 52.724C163.077 52.452 162.721 52.084 162.457 51.62C162.201 51.148 162.073 50.612 162.073 50.012C162.073 49.412 162.197 48.876 162.445 48.404C162.701 47.932 163.049 47.56 163.489 47.288C163.929 47.016 164.425 46.88 164.977 46.88C165.561 46.88 166.053 47.012 166.453 47.276C166.861 47.532 167.161 47.912 167.353 48.416C167.553 48.912 167.633 49.524 167.593 50.252H163.033C163.073 50.644 163.181 50.988 163.357 51.284C163.533 51.58 163.765 51.812 164.053 51.98C164.341 52.14 164.669 52.22 165.037 52.22C165.445 52.22 165.789 52.116 166.069 51.908C166.357 51.692 166.553 51.412 166.657 51.068ZM165.013 47.78C164.517 47.78 164.101 47.924 163.765 48.212C163.429 48.5 163.205 48.892 163.093 49.388H166.609C166.577 48.86 166.405 48.46 166.093 48.188C165.789 47.916 165.429 47.78 165.013 47.78ZM168.831 47H169.791V53H168.831V47ZM171.855 46.88C172.175 46.88 172.463 46.928 172.719 47.024C172.975 47.12 173.191 47.26 173.367 47.444C173.543 47.628 173.679 47.852 173.775 48.116C173.871 48.372 173.919 48.664 173.919 48.992V53H172.959V49.232C172.959 48.768 172.851 48.42 172.635 48.188C172.419 47.956 172.095 47.84 171.663 47.84C171.335 47.84 171.031 47.924 170.751 48.092C170.471 48.26 170.239 48.492 170.055 48.788C169.879 49.076 169.771 49.412 169.731 49.796L169.719 49.1C169.759 48.764 169.839 48.46 169.959 48.188C170.087 47.916 170.243 47.684 170.427 47.492C170.619 47.292 170.835 47.14 171.075 47.036C171.323 46.932 171.583 46.88 171.855 46.88ZM175.055 47H178.583V47.9H175.055V47ZM176.339 45.44H177.299V53H176.339V45.44ZM182.417 49.316H185.897V50.204H182.417V49.316ZM189.811 50.468H190.675C190.699 50.804 190.799 51.104 190.975 51.368C191.151 51.632 191.391 51.84 191.695 51.992C192.007 52.144 192.371 52.22 192.787 52.22C193.147 52.22 193.447 52.168 193.687 52.064C193.935 51.952 194.119 51.8 194.239 51.608C194.367 51.416 194.431 51.192 194.431 50.936C194.431 50.672 194.367 50.46 194.239 50.3C194.111 50.14 193.927 50.004 193.687 49.892C193.447 49.78 193.163 49.672 192.835 49.568C192.523 49.472 192.207 49.36 191.887 49.232C191.567 49.104 191.267 48.948 190.987 48.764C190.715 48.58 190.495 48.36 190.327 48.104C190.159 47.84 190.075 47.524 190.075 47.156C190.075 46.796 190.171 46.46 190.363 46.148C190.563 45.828 190.851 45.572 191.227 45.38C191.611 45.18 192.071 45.08 192.607 45.08C193.447 45.08 194.075 45.308 194.491 45.764C194.907 46.22 195.107 46.824 195.091 47.576H194.227C194.211 47.008 194.051 46.6 193.747 46.352C193.443 46.104 193.047 45.98 192.559 45.98C192.151 45.98 191.795 46.076 191.491 46.268C191.187 46.452 191.035 46.744 191.035 47.144C191.035 47.32 191.067 47.476 191.131 47.612C191.203 47.74 191.315 47.86 191.467 47.972C191.627 48.084 191.839 48.196 192.103 48.308C192.375 48.412 192.707 48.528 193.099 48.656C193.355 48.736 193.615 48.832 193.879 48.944C194.151 49.056 194.399 49.196 194.623 49.364C194.855 49.532 195.039 49.748 195.175 50.012C195.319 50.268 195.391 50.592 195.391 50.984C195.391 51.36 195.299 51.712 195.115 52.04C194.939 52.36 194.659 52.62 194.275 52.82C193.899 53.02 193.411 53.12 192.811 53.12C192.299 53.12 191.859 53.052 191.491 52.916C191.131 52.772 190.835 52.588 190.603 52.364C190.371 52.14 190.191 51.908 190.063 51.668C189.943 51.42 189.863 51.188 189.823 50.972C189.783 50.756 189.779 50.588 189.811 50.468ZM200.923 53V49.232C200.923 48.92 200.875 48.664 200.779 48.464C200.683 48.256 200.539 48.1 200.347 47.996C200.155 47.892 199.915 47.84 199.627 47.84C199.299 47.84 198.995 47.924 198.715 48.092C198.435 48.26 198.203 48.492 198.019 48.788C197.843 49.076 197.735 49.412 197.695 49.796L197.683 49.1C197.723 48.764 197.803 48.46 197.923 48.188C198.051 47.916 198.207 47.684 198.391 47.492C198.583 47.292 198.799 47.14 199.039 47.036C199.287 46.932 199.547 46.88 199.819 46.88C200.139 46.88 200.427 46.928 200.683 47.024C200.939 47.12 201.155 47.26 201.331 47.444C201.507 47.628 201.643 47.852 201.739 48.116C201.835 48.372 201.883 48.664 201.883 48.992V53H200.923ZM196.795 53V44.6H197.755V53H196.795ZM207.696 51.068H208.596C208.532 51.46 208.388 51.812 208.164 52.124C207.948 52.428 207.66 52.672 207.3 52.856C206.948 53.032 206.54 53.12 206.076 53.12C205.516 53.12 205.012 52.988 204.564 52.724C204.116 52.452 203.76 52.084 203.496 51.62C203.24 51.148 203.112 50.612 203.112 50.012C203.112 49.412 203.236 48.876 203.484 48.404C203.74 47.932 204.088 47.56 204.528 47.288C204.968 47.016 205.464 46.88 206.016 46.88C206.6 46.88 207.092 47.012 207.492 47.276C207.9 47.532 208.2 47.912 208.392 48.416C208.592 48.912 208.672 49.524 208.632 50.252H204.072C204.112 50.644 204.22 50.988 204.396 51.284C204.572 51.58 204.804 51.812 205.092 51.98C205.38 52.14 205.708 52.22 206.076 52.22C206.484 52.22 206.828 52.116 207.108 51.908C207.396 51.692 207.592 51.412 207.696 51.068ZM206.052 47.78C205.556 47.78 205.14 47.924 204.804 48.212C204.468 48.5 204.244 48.892 204.132 49.388H207.648C207.616 48.86 207.444 48.46 207.132 48.188C206.828 47.916 206.468 47.78 206.052 47.78ZM214.118 51.068H215.018C214.954 51.46 214.81 51.812 214.586 52.124C214.37 52.428 214.082 52.672 213.722 52.856C213.37 53.032 212.962 53.12 212.498 53.12C211.938 53.12 211.434 52.988 210.986 52.724C210.538 52.452 210.182 52.084 209.918 51.62C209.662 51.148 209.534 50.612 209.534 50.012C209.534 49.412 209.658 48.876 209.906 48.404C210.162 47.932 210.51 47.56 210.95 47.288C211.39 47.016 211.886 46.88 212.438 46.88C213.022 46.88 213.514 47.012 213.914 47.276C214.322 47.532 214.622 47.912 214.814 48.416C215.014 48.912 215.094 49.524 215.054 50.252H210.494C210.534 50.644 210.642 50.988 210.818 51.284C210.994 51.58 211.226 51.812 211.514 51.98C211.802 52.14 212.13 52.22 212.498 52.22C212.906 52.22 213.25 52.116 213.53 51.908C213.818 51.692 214.014 51.412 214.118 51.068ZM212.474 47.78C211.978 47.78 211.562 47.924 211.226 48.212C210.89 48.5 210.666 48.892 210.554 49.388H214.07C214.038 48.86 213.866 48.46 213.554 48.188C213.25 47.916 212.89 47.78 212.474 47.78ZM215.755 47H219.283V47.9H215.755V47ZM217.039 45.44H217.999V53H217.039V45.44ZM219.937 47.9V47H222.301V53H221.341V47.9H219.937ZM225.532 51.824V53H224.284V51.824H225.532ZM231.406 51.12C231.36 51.5333 231.226 51.89 231.006 52.19C230.793 52.4833 230.523 52.71 230.196 52.87C229.87 53.0233 229.516 53.1 229.136 53.1C228.71 53.1 228.31 52.9967 227.936 52.79C227.563 52.5833 227.26 52.2867 227.026 51.9C226.8 51.5067 226.686 51.0433 226.686 50.51C226.686 49.9767 226.8 49.5167 227.026 49.13C227.26 48.7367 227.563 48.4333 227.936 48.22C228.31 48.0067 228.71 47.9 229.136 47.9C229.516 47.9 229.866 47.98 230.186 48.14C230.513 48.3 230.783 48.5267 230.996 48.82C231.216 49.1133 231.353 49.4633 231.406 49.87H230.676C230.563 49.49 230.366 49.1933 230.086 48.98C229.806 48.76 229.49 48.65 229.136 48.65C228.85 48.65 228.58 48.7233 228.326 48.87C228.073 49.0167 227.87 49.23 227.716 49.51C227.563 49.7833 227.486 50.1167 227.486 50.51C227.486 50.8967 227.563 51.23 227.716 51.51C227.87 51.7833 228.07 51.9933 228.316 52.14C228.57 52.28 228.843 52.35 229.136 52.35C229.543 52.35 229.873 52.2433 230.126 52.03C230.386 51.81 230.573 51.5067 230.686 51.12H231.406ZM232.185 51.39H232.925C232.945 51.6767 233.052 51.91 233.245 52.09C233.445 52.27 233.732 52.36 234.105 52.36C234.332 52.36 234.509 52.33 234.635 52.27C234.769 52.21 234.865 52.13 234.925 52.03C234.985 51.9233 235.015 51.8067 235.015 51.68C235.015 51.5267 234.975 51.4067 234.895 51.32C234.822 51.2267 234.719 51.15 234.585 51.09C234.459 51.03 234.312 50.9733 234.145 50.92C233.952 50.8467 233.752 50.77 233.545 50.69C233.345 50.6033 233.155 50.5033 232.975 50.39C232.802 50.27 232.662 50.1267 232.555 49.96C232.449 49.7867 232.395 49.58 232.395 49.34C232.395 49.14 232.435 48.9533 232.515 48.78C232.595 48.6 232.709 48.4467 232.855 48.32C233.009 48.1867 233.185 48.0833 233.385 48.01C233.592 47.9367 233.819 47.9 234.065 47.9C234.399 47.9 234.679 47.9667 234.905 48.1C235.139 48.2333 235.315 48.4233 235.435 48.67C235.562 48.91 235.629 49.19 235.635 49.51H234.945C234.899 49.21 234.802 48.9933 234.655 48.86C234.515 48.72 234.312 48.65 234.045 48.65C233.772 48.65 233.562 48.71 233.415 48.83C233.269 48.95 233.195 49.11 233.195 49.31C233.195 49.4567 233.249 49.58 233.355 49.68C233.462 49.7733 233.599 49.86 233.765 49.94C233.939 50.0133 234.122 50.09 234.315 50.17C234.509 50.25 234.695 50.33 234.875 50.41C235.055 50.49 235.215 50.5833 235.355 50.69C235.495 50.7967 235.605 50.93 235.685 51.09C235.772 51.2433 235.815 51.4367 235.815 51.67C235.815 51.95 235.749 52.2 235.615 52.42C235.489 52.6333 235.299 52.8 235.045 52.92C234.799 53.04 234.495 53.1 234.135 53.1C233.809 53.1 233.529 53.06 233.295 52.98C233.069 52.8933 232.879 52.7833 232.725 52.65C232.572 52.51 232.452 52.3633 232.365 52.21C232.285 52.0567 232.232 51.9067 232.205 51.76C232.179 51.6133 232.172 51.49 232.185 51.39ZM238.672 52.31H238.432L239.962 48H240.832L238.932 53H238.182L236.292 48H237.162L238.672 52.31Z" fill="#374151"/>
<path d="M56.87 64.65H55.35V63.77H57.81V71H56.87V64.65ZM59.1326 67.39C59.1326 65.15 60.2926 63.63 62.1126 63.63C63.9226 63.63 65.0826 65.15 65.0826 67.39C65.0826 69.64 63.9726 71.13 62.1126 71.13C60.2426 71.13 59.1326 69.64 59.1326 67.39ZM60.1026 67.39C60.1026 69.17 60.8426 70.25 62.1126 70.25C63.3826 70.25 64.1126 69.17 64.1126 67.39C64.1126 65.59 63.3826 64.51 62.1126 64.51C60.8426 64.51 60.1026 65.59 60.1026 67.39ZM66.0662 67.39C66.0662 65.15 67.2262 63.63 69.0462 63.63C70.8562 63.63 72.0162 65.15 72.0162 67.39C72.0162 69.64 70.9062 71.13 69.0462 71.13C67.1762 71.13 66.0662 69.64 66.0662 67.39ZM67.0362 67.39C67.0362 69.17 67.7762 70.25 69.0462 70.25C70.3162 70.25 71.0462 69.17 71.0462 67.39C71.0462 65.59 70.3162 64.51 69.0462 64.51C67.7762 64.51 67.0362 65.59 67.0362 67.39ZM73.4796 71.12C73.0896 71.12 72.7596 70.8 72.7596 70.42C72.7596 70.03 73.0896 69.71 73.4796 69.71C73.8596 69.71 74.1896 70.03 74.1896 70.42C74.1896 70.8 73.8596 71.12 73.4796 71.12ZM74.9431 67.39C74.9431 65.15 76.1031 63.63 77.9231 63.63C79.7331 63.63 80.8931 65.15 80.8931 67.39C80.8931 69.64 79.7831 71.13 77.9231 71.13C76.0531 71.13 74.9431 69.64 74.9431 67.39ZM75.9131 67.39C75.9131 69.17 76.6531 70.25 77.9231 70.25C79.1931 70.25 79.9231 69.17 79.9231 67.39C79.9231 65.59 79.1931 64.51 77.9231 64.51C76.6531 64.51 75.9131 65.59 75.9131 67.39ZM83.0267 71H82.0867V63.64H83.0267V68.41L85.1967 66.11H86.3767L84.5067 68.06L86.3667 71H85.2867L83.8567 68.74L83.0267 69.61V71ZM87.9948 71H87.1448V63.64H88.0848V66.95C88.4048 66.31 89.0648 65.97 89.8648 65.97C91.2648 65.97 92.1048 67.07 92.1048 68.58C92.1048 70.06 91.2248 71.12 89.8048 71.12C89.0348 71.12 88.3848 70.78 88.0648 70.11L87.9948 71ZM88.0948 68.54C88.0948 69.56 88.6748 70.27 89.6348 70.27C90.5948 70.27 91.1648 69.55 91.1648 68.54C91.1648 67.54 90.5948 66.82 89.6348 66.82C88.6748 66.82 88.0948 67.54 88.0948 68.54Z" fill="#9CA3AF"/>
<path d="M281 66.1654C277.047 66.1654 273.833 62.952 273.833 58.9987C273.833 55.0454 277.047 51.832 281 51.832C284.953 51.832 288.167 55.0454 288.167 58.9987C288.167 62.952 284.953 66.1654 281 66.1654ZM281 52.832C277.6 52.832 274.833 55.5987 274.833 58.9987C274.833 62.3987 277.6 65.1654 281 65.1654C284.4 65.1654 287.167 62.3987 287.167 58.9987C287.167 55.5987 284.4 52.832 281 52.832Z" fill="#228B22"/>
<path d="M279.114 61.3849C278.987 61.3849 278.86 61.3383 278.76 61.2383C278.567 61.0449 278.567 60.7249 278.76 60.5316L282.534 56.7583C282.727 56.5649 283.047 56.5649 283.24 56.7583C283.434 56.9516 283.434 57.2716 283.24 57.4649L279.467 61.2383C279.374 61.3383 279.24 61.3849 279.114 61.3849Z" fill="#228B22"/>
<path d="M282.887 61.3849C282.76 61.3849 282.634 61.3383 282.534 61.2383L278.76 57.4649C278.567 57.2716 278.567 56.9516 278.76 56.7583C278.954 56.5649 279.274 56.5649 279.467 56.7583L283.24 60.5316C283.434 60.7249 283.434 61.0449 283.24 61.2383C283.14 61.3383 283.014 61.3849 282.887 61.3849Z" fill="#228B22"/>
<rect x="35.5" y="31.5" width="273" height="55" rx="3.5" stroke="#F2F2F2" shape-rendering="crispEdges"/>
</g>
<defs>
<filter id="filter0_d_6188_59359" x="0" y="0" width="344" height="126" filterUnits="userSpaceOnUse" color-interpolation-filters="sRGB">
<feFlood flood-opacity="0" result="BackgroundImageFix"/>
<feColorMatrix in="SourceAlpha" type="matrix" values="0 0 0 0 0 0 0 0 0 0 0 0 0 0 0 0 0 0 127 0" result="hardAlpha"/>
<feOffset dy="4"/>
<feGaussianBlur stdDeviation="17.5"/>
<feComposite in2="hardAlpha" operator="out"/>
<feColorMatrix type="matrix" values="0 0 0 0 0.483333 0 0 0 0 0.469236 0 0 0 0 0.469236 0 0 0 0.08 0"/>
<feBlend mode="normal" in2="BackgroundImageFix" result="effect1_dropShadow_6188_59359"/>
<feBlend mode="normal" in="SourceGraphic" in2="effect1_dropShadow_6188_59359" result="shape"/>
</filter>
</defs>
</svg>
