<svg width="704" height="241" viewBox="0 0 704 241" fill="none" xmlns="http://www.w3.org/2000/svg">
<rect x="650" width="54" height="22" rx="4" fill="#F9FAFB"/>
<path d="M663.34 14.99L658.46 15V14.25L660.79 12.24C661.96 11.23 662.29 10.74 662.29 9.97C662.29 9.06 661.77 8.52 660.9 8.52C660.01 8.52 659.43 9.17 659.41 10.2H658.43C658.46 8.65 659.44 7.64 660.91 7.64C662.36 7.64 663.29 8.52 663.29 9.91C663.29 10.94 662.78 11.67 661.5 12.78L660 14.08H663.34V14.99ZM664.742 11.39C664.742 9.15 665.902 7.63 667.722 7.63C669.532 7.63 670.692 9.15 670.692 11.39C670.692 13.64 669.582 15.13 667.722 15.13C665.852 15.13 664.742 13.64 664.742 11.39ZM665.712 11.39C665.712 13.17 666.452 14.25 667.722 14.25C668.992 14.25 669.722 13.17 669.722 11.39C669.722 9.59 668.992 8.51 667.722 8.51C666.452 8.51 665.712 9.59 665.712 11.39ZM677.026 14.99L672.146 15V14.25L674.476 12.24C675.646 11.23 675.976 10.74 675.976 9.97C675.976 9.06 675.456 8.52 674.586 8.52C673.696 8.52 673.116 9.17 673.096 10.2H672.116C672.146 8.65 673.126 7.64 674.596 7.64C676.046 7.64 676.976 8.52 676.976 9.91C676.976 10.94 676.466 11.67 675.186 12.78L673.686 14.08H677.026V14.99ZM680.537 11.26H679.817V10.61L681.867 8.64H678.617V7.77H683.107V8.56L681.127 10.45C682.357 10.6 683.287 11.43 683.287 12.73C683.287 14.19 682.187 15.12 680.717 15.12C679.297 15.12 678.277 14.25 678.277 12.75H679.247C679.247 13.69 679.827 14.24 680.737 14.24C681.677 14.24 682.287 13.64 682.287 12.71C682.287 11.84 681.687 11.26 680.537 11.26Z" fill="#041004"/>
<path d="M691.999 12.6002C691.765 12.6002 691.532 12.5102 691.355 12.3335L689.182 10.1602C689.085 10.0635 689.085 9.90354 689.182 9.80687C689.279 9.71021 689.439 9.71021 689.535 9.80687L691.709 11.9802C691.869 12.1402 692.129 12.1402 692.289 11.9802L694.462 9.80687C694.559 9.71021 694.719 9.71021 694.815 9.80687C694.912 9.90354 694.912 10.0635 694.815 10.1602L692.642 12.3335C692.465 12.5102 692.232 12.6002 691.999 12.6002Z" fill="#041004"/>
<path d="M1.6 12.39V11.53H5.08V12.39H1.6ZM0.19 14L2.84 7.51H3.86L6.53 14H5.49L3.17 8.14H3.53L1.22 14H0.19ZM7.24875 7.01H8.20875V14H7.24875V7.01ZM9.48039 7.01H10.4404V14H9.48039V7.01ZM13.7693 14V7.51H17.1093C17.576 7.51 17.976 7.58 18.3093 7.72C18.6493 7.85333 18.9093 8.06 19.0893 8.34C19.2693 8.61333 19.3593 8.96333 19.3593 9.39C19.3593 9.68333 19.3093 9.93333 19.2093 10.14C19.116 10.34 18.986 10.5067 18.8193 10.64C18.6526 10.7733 18.456 10.8767 18.2293 10.95C18.0026 11.0233 17.7593 11.07 17.4993 11.09L17.4293 11.03C17.8226 11.0433 18.1526 11.0867 18.4193 11.16C18.686 11.2333 18.8893 11.3667 19.0293 11.56C19.176 11.7467 19.2493 12.0267 19.2493 12.4V14H18.2793V12.43C18.2793 12.17 18.236 11.9667 18.1493 11.82C18.0626 11.6733 17.9126 11.57 17.6993 11.51C17.486 11.45 17.186 11.42 16.7993 11.42H14.7293V14H13.7693ZM14.7293 10.58H17.1093C17.536 10.58 17.856 10.4733 18.0693 10.26C18.2893 10.0467 18.3993 9.76667 18.3993 9.42C18.3993 9.08667 18.2893 8.83 18.0693 8.65C17.856 8.47 17.536 8.38 17.1093 8.38H14.7293V10.58ZM24.2417 12.38H25.1517C25.0984 12.7067 24.9717 13 24.7717 13.26C24.5717 13.52 24.3084 13.7267 23.9817 13.88C23.6551 14.0333 23.2717 14.11 22.8317 14.11C22.3117 14.11 21.8484 14 21.4417 13.78C21.0351 13.56 20.7151 13.2567 20.4817 12.87C20.2484 12.4833 20.1317 12.0333 20.1317 11.52C20.1317 11 20.2451 10.5467 20.4717 10.16C20.6984 9.76667 21.0117 9.46 21.4117 9.24C21.8117 9.02 22.2684 8.91 22.7817 8.91C23.3217 8.91 23.7751 9.01667 24.1417 9.23C24.5084 9.44333 24.7784 9.76 24.9517 10.18C25.1317 10.5933 25.2051 11.11 25.1717 11.73H21.0817C21.1151 12.03 21.2051 12.2967 21.3517 12.53C21.5051 12.7633 21.7051 12.9467 21.9517 13.08C22.2051 13.2133 22.4951 13.28 22.8217 13.28C23.1884 13.28 23.4951 13.1967 23.7417 13.03C23.9884 12.8633 24.1551 12.6467 24.2417 12.38ZM22.7917 9.73C22.3584 9.73 21.9984 9.84667 21.7117 10.08C21.4251 10.3067 21.2351 10.61 21.1417 10.99H24.2117C24.1851 10.5833 24.0384 10.2733 23.7717 10.06C23.5051 9.84 23.1784 9.73 22.7917 9.73ZM31.2867 13.22L31.0267 13.21L32.3367 9.01H33.3767L31.6467 14H30.7467L29.2367 9.73H29.5067L27.9767 14H27.0767L25.3667 9.01H26.4167L27.6867 13.21L27.4267 13.22L28.8067 9.01H29.9367L31.2867 13.22ZM35.8896 14.1C35.4629 14.1 35.0729 13.99 34.7196 13.77C34.3663 13.55 34.0863 13.2467 33.8796 12.86C33.6729 12.4667 33.5696 12.0167 33.5696 11.51C33.5696 11.0033 33.6729 10.5567 33.8796 10.17C34.0929 9.77667 34.3829 9.47 34.7496 9.25C35.1163 9.02333 35.5263 8.91 35.9796 8.91C36.4796 8.91 36.8663 9.02667 37.1396 9.26C37.4196 9.49333 37.6129 9.80667 37.7196 10.2C37.8329 10.5933 37.8896 11.03 37.8896 11.51C37.8896 11.7767 37.8563 12.06 37.7896 12.36C37.7229 12.66 37.6163 12.9433 37.4696 13.21C37.3229 13.4767 37.1196 13.6933 36.8596 13.86C36.5996 14.02 36.2763 14.1 35.8896 14.1ZM36.1596 13.27C36.5129 13.27 36.8096 13.1933 37.0496 13.04C37.2963 12.88 37.4796 12.6667 37.5996 12.4C37.7196 12.1333 37.7796 11.8367 37.7796 11.51C37.7796 11.1567 37.7163 10.8467 37.5896 10.58C37.4696 10.3133 37.2863 10.1067 37.0396 9.96C36.7996 9.81333 36.5063 9.74 36.1596 9.74C35.6396 9.74 35.2363 9.90667 34.9496 10.24C34.6696 10.5733 34.5296 10.9967 34.5296 11.51C34.5296 11.8567 34.5996 12.1633 34.7396 12.43C34.8796 12.69 35.0696 12.8967 35.3096 13.05C35.5563 13.1967 35.8396 13.27 36.1596 13.27ZM37.7796 9.01H38.7396V14H37.8596C37.8596 14 37.8529 13.94 37.8396 13.82C37.8263 13.6933 37.8129 13.5433 37.7996 13.37C37.7863 13.1967 37.7796 13.0433 37.7796 12.91V9.01ZM39.7917 9.01H40.7517V14H39.7917V9.01ZM42.4417 9.86C42.0951 9.86 41.7984 9.94 41.5517 10.1C41.3117 10.26 41.1184 10.4567 40.9717 10.69C40.8317 10.9233 40.7384 11.1467 40.6917 11.36L40.6817 10.79C40.6884 10.7233 40.7051 10.62 40.7317 10.48C40.7651 10.3333 40.8217 10.17 40.9017 9.99C40.9817 9.81 41.0884 9.64 41.2217 9.48C41.3551 9.31333 41.5217 9.17667 41.7217 9.07C41.9217 8.96333 42.1617 8.91 42.4417 8.91V9.86ZM45.1673 14.1C44.734 14.1 44.3407 13.99 43.9873 13.77C43.634 13.55 43.354 13.2467 43.1473 12.86C42.9473 12.4667 42.8473 12.0167 42.8473 11.51C42.8473 11.0033 42.9473 10.5567 43.1473 10.17C43.3473 9.77667 43.6207 9.47 43.9673 9.25C44.314 9.02333 44.714 8.91 45.1673 8.91C45.5607 8.91 45.8873 8.97667 46.1473 9.11C46.4073 9.24333 46.6107 9.43 46.7573 9.67C46.904 9.91 47.0073 10.1867 47.0673 10.5C47.134 10.8133 47.1673 11.15 47.1673 11.51C47.1673 11.7767 47.134 12.06 47.0673 12.36C47.0007 12.66 46.894 12.9433 46.7473 13.21C46.6007 13.4767 46.3973 13.6933 46.1373 13.86C45.8773 14.02 45.554 14.1 45.1673 14.1ZM45.4373 13.27C45.7907 13.27 46.0873 13.1933 46.3273 13.04C46.574 12.88 46.7573 12.6667 46.8773 12.4C46.9973 12.1333 47.0573 11.8367 47.0573 11.51C47.0573 11.1567 46.994 10.8467 46.8673 10.58C46.7473 10.3133 46.564 10.1067 46.3173 9.96C46.0773 9.81333 45.784 9.74 45.4373 9.74C44.9173 9.74 44.514 9.90667 44.2273 10.24C43.9473 10.5733 43.8073 10.9967 43.8073 11.51C43.8073 11.8567 43.8773 12.1633 44.0173 12.43C44.1573 12.69 44.3473 12.8967 44.5873 13.05C44.834 13.1967 45.1173 13.27 45.4373 13.27ZM47.0573 7.01H48.0173V14H47.1373C47.1173 13.8533 47.0973 13.6733 47.0773 13.46C47.064 13.2467 47.0573 13.0633 47.0573 12.91V7.01ZM49.0252 12.38H49.9052C49.9386 12.6467 50.0586 12.8667 50.2652 13.04C50.4719 13.2067 50.7619 13.29 51.1352 13.29C51.3752 13.29 51.5619 13.2633 51.6952 13.21C51.8286 13.15 51.9219 13.07 51.9752 12.97C52.0352 12.87 52.0652 12.76 52.0652 12.64C52.0652 12.4867 52.0252 12.37 51.9452 12.29C51.8652 12.2033 51.7519 12.1333 51.6052 12.08C51.4586 12.02 51.2852 11.9633 51.0852 11.91C50.8652 11.85 50.6452 11.78 50.4252 11.7C50.2052 11.62 50.0019 11.5233 49.8152 11.41C49.6352 11.2967 49.4886 11.1567 49.3752 10.99C49.2686 10.8167 49.2152 10.6067 49.2152 10.36C49.2152 10.1533 49.2586 9.96 49.3452 9.78C49.4386 9.6 49.5686 9.44667 49.7352 9.32C49.9086 9.18667 50.1086 9.08667 50.3352 9.02C50.5619 8.94667 50.8119 8.91 51.0852 8.91C51.4652 8.91 51.7852 8.98 52.0452 9.12C52.3052 9.25333 52.5019 9.44333 52.6352 9.69C52.7752 9.93667 52.8486 10.22 52.8552 10.54H52.0152C51.9686 10.26 51.8719 10.0567 51.7252 9.93C51.5786 9.79667 51.3586 9.73 51.0652 9.73C50.7786 9.73 50.5586 9.78667 50.4052 9.9C50.2519 10.0133 50.1752 10.1667 50.1752 10.36C50.1752 10.5067 50.2286 10.6267 50.3352 10.72C50.4419 10.8067 50.5852 10.8833 50.7652 10.95C50.9452 11.0167 51.1486 11.0867 51.3752 11.16C51.5886 11.2333 51.7919 11.31 51.9852 11.39C52.1852 11.4633 52.3619 11.5533 52.5152 11.66C52.6752 11.76 52.7986 11.8933 52.8852 12.06C52.9786 12.22 53.0252 12.42 53.0252 12.66C53.0252 12.9533 52.9519 13.21 52.8052 13.43C52.6586 13.6433 52.4452 13.81 52.1652 13.93C51.8919 14.05 51.5586 14.11 51.1652 14.11C50.8052 14.11 50.4986 14.0667 50.2452 13.98C49.9986 13.8933 49.7886 13.78 49.6152 13.64C49.4486 13.5 49.3186 13.3533 49.2252 13.2C49.1386 13.04 49.0786 12.8867 49.0452 12.74C49.0186 12.5933 49.0119 12.4733 49.0252 12.38ZM57.8877 14.1C57.4543 14.1 57.061 13.99 56.7077 13.77C56.3543 13.55 56.0743 13.2467 55.8677 12.86C55.6677 12.4667 55.5677 12.0167 55.5677 11.51C55.5677 11.0033 55.6677 10.5567 55.8677 10.17C56.0677 9.77667 56.341 9.47 56.6877 9.25C57.0343 9.02333 57.4343 8.91 57.8877 8.91C58.281 8.91 58.6077 8.97667 58.8677 9.11C59.1277 9.24333 59.331 9.43 59.4777 9.67C59.6243 9.91 59.7277 10.1867 59.7877 10.5C59.8543 10.8133 59.8877 11.15 59.8877 11.51C59.8877 11.7767 59.8543 12.06 59.7877 12.36C59.721 12.66 59.6143 12.9433 59.4677 13.21C59.321 13.4767 59.1177 13.6933 58.8577 13.86C58.5977 14.02 58.2743 14.1 57.8877 14.1ZM58.1577 13.27C58.511 13.27 58.8077 13.1933 59.0477 13.04C59.2943 12.88 59.4777 12.6667 59.5977 12.4C59.7177 12.1333 59.7777 11.8367 59.7777 11.51C59.7777 11.1567 59.7143 10.8467 59.5877 10.58C59.4677 10.3133 59.2843 10.1067 59.0377 9.96C58.7977 9.81333 58.5043 9.74 58.1577 9.74C57.6377 9.74 57.2343 9.90667 56.9477 10.24C56.6677 10.5733 56.5277 10.9967 56.5277 11.51C56.5277 11.8567 56.5977 12.1633 56.7377 12.43C56.8777 12.69 57.0677 12.8967 57.3077 13.05C57.5543 13.1967 57.8377 13.27 58.1577 13.27ZM59.7777 7.01H60.7377V14H59.8577C59.8377 13.8533 59.8177 13.6733 59.7977 13.46C59.7843 13.2467 59.7777 13.0633 59.7777 12.91V7.01ZM63.1155 6.95V7.98H61.9255V6.95H63.1155ZM62.0455 9.01H62.9955V14H62.0455V9.01ZM63.9284 12.38H64.8084C64.8417 12.6467 64.9617 12.8667 65.1684 13.04C65.375 13.2067 65.665 13.29 66.0384 13.29C66.2784 13.29 66.465 13.2633 66.5984 13.21C66.7317 13.15 66.825 13.07 66.8784 12.97C66.9384 12.87 66.9684 12.76 66.9684 12.64C66.9684 12.4867 66.9284 12.37 66.8484 12.29C66.7684 12.2033 66.655 12.1333 66.5084 12.08C66.3617 12.02 66.1884 11.9633 65.9884 11.91C65.7684 11.85 65.5484 11.78 65.3284 11.7C65.1084 11.62 64.905 11.5233 64.7184 11.41C64.5384 11.2967 64.3917 11.1567 64.2784 10.99C64.1717 10.8167 64.1184 10.6067 64.1184 10.36C64.1184 10.1533 64.1617 9.96 64.2484 9.78C64.3417 9.6 64.4717 9.44667 64.6384 9.32C64.8117 9.18667 65.0117 9.08667 65.2384 9.02C65.465 8.94667 65.715 8.91 65.9884 8.91C66.3684 8.91 66.6884 8.98 66.9484 9.12C67.2084 9.25333 67.405 9.44333 67.5384 9.69C67.6784 9.93667 67.7517 10.22 67.7584 10.54H66.9184C66.8717 10.26 66.775 10.0567 66.6284 9.93C66.4817 9.79667 66.2617 9.73 65.9684 9.73C65.6817 9.73 65.4617 9.78667 65.3084 9.9C65.155 10.0133 65.0784 10.1667 65.0784 10.36C65.0784 10.5067 65.1317 10.6267 65.2384 10.72C65.345 10.8067 65.4884 10.8833 65.6684 10.95C65.8484 11.0167 66.0517 11.0867 66.2784 11.16C66.4917 11.2333 66.695 11.31 66.8884 11.39C67.0884 11.4633 67.265 11.5533 67.4184 11.66C67.5784 11.76 67.7017 11.8933 67.7884 12.06C67.8817 12.22 67.9284 12.42 67.9284 12.66C67.9284 12.9533 67.855 13.21 67.7084 13.43C67.5617 13.6433 67.3484 13.81 67.0684 13.93C66.795 14.05 66.4617 14.11 66.0684 14.11C65.7084 14.11 65.4017 14.0667 65.1484 13.98C64.9017 13.8933 64.6917 13.78 64.5184 13.64C64.3517 13.5 64.2217 13.3533 64.1284 13.2C64.0417 13.04 63.9817 12.8867 63.9484 12.74C63.9217 12.5933 63.915 12.4733 63.9284 12.38ZM71.7535 14.1C71.3602 14.1 71.0335 14.02 70.7735 13.86C70.5202 13.6933 70.3168 13.4767 70.1635 13.21C70.0168 12.9433 69.9102 12.66 69.8435 12.36C69.7768 12.06 69.7435 11.7767 69.7435 11.51C69.7435 11.15 69.7735 10.8133 69.8335 10.5C69.9002 10.1867 70.0068 9.91 70.1535 9.67C70.3002 9.43 70.5035 9.24333 70.7635 9.11C71.0235 8.97667 71.3535 8.91 71.7535 8.91C72.2002 8.91 72.5968 9.02333 72.9435 9.25C73.2968 9.47 73.5735 9.77667 73.7735 10.17C73.9735 10.5567 74.0735 11.0033 74.0735 11.51C74.0735 12.0167 73.9702 12.4667 73.7635 12.86C73.5568 13.2467 73.2768 13.55 72.9235 13.77C72.5768 13.99 72.1868 14.1 71.7535 14.1ZM71.4835 13.27C71.8035 13.27 72.0835 13.1967 72.3235 13.05C72.5702 12.8967 72.7602 12.69 72.8935 12.43C73.0335 12.1633 73.1035 11.8567 73.1035 11.51C73.1035 10.9967 72.9602 10.5733 72.6735 10.24C72.3935 9.90667 71.9968 9.74 71.4835 9.74C71.1368 9.74 70.8402 9.81333 70.5935 9.96C70.3535 10.1067 70.1702 10.3133 70.0435 10.58C69.9168 10.8467 69.8535 11.1567 69.8535 11.51C69.8535 11.8367 69.9135 12.1333 70.0335 12.4C70.1602 12.6667 70.3435 12.88 70.5835 13.04C70.8302 13.1933 71.1302 13.27 71.4835 13.27ZM69.8535 7.01V12.91C69.8535 13.0633 69.8435 13.2467 69.8235 13.46C69.8102 13.6733 69.7968 13.8533 69.7835 14H68.9035V7.01H69.8535ZM79.5716 14H78.6216V9.01H79.5716V14ZM78.6716 11.65L78.6816 11.95C78.675 12.0367 78.6516 12.1667 78.6116 12.34C78.5783 12.5067 78.5183 12.69 78.4316 12.89C78.3516 13.09 78.2383 13.2833 78.0916 13.47C77.9516 13.6567 77.7716 13.81 77.5516 13.93C77.3316 14.05 77.065 14.11 76.7516 14.11C76.5383 14.11 76.3183 14.08 76.0916 14.02C75.8716 13.96 75.6683 13.86 75.4816 13.72C75.295 13.58 75.145 13.39 75.0316 13.15C74.9183 12.9033 74.8616 12.5967 74.8616 12.23V9.01H75.8216V12.03C75.8216 12.3367 75.8683 12.5767 75.9616 12.75C76.0616 12.9233 76.2016 13.0467 76.3816 13.12C76.5616 13.1933 76.765 13.23 76.9916 13.23C77.3383 13.23 77.6283 13.1467 77.8616 12.98C78.1016 12.8067 78.2883 12.6 78.4216 12.36C78.555 12.1133 78.6383 11.8767 78.6716 11.65ZM80.6284 9.01H81.5884V14H80.6284V9.01ZM83.2784 9.86C82.9318 9.86 82.6351 9.94 82.3884 10.1C82.1484 10.26 81.9551 10.4567 81.8084 10.69C81.6684 10.9233 81.5751 11.1467 81.5284 11.36L81.5184 10.79C81.5251 10.7233 81.5418 10.62 81.5684 10.48C81.6018 10.3333 81.6584 10.17 81.7384 9.99C81.8184 9.81 81.9251 9.64 82.0584 9.48C82.1918 9.31333 82.3584 9.17667 82.5584 9.07C82.7584 8.96333 82.9984 8.91 83.2784 8.91V9.86ZM83.7241 12.38H84.6041C84.6374 12.6467 84.7574 12.8667 84.9641 13.04C85.1707 13.2067 85.4607 13.29 85.8341 13.29C86.0741 13.29 86.2607 13.2633 86.3941 13.21C86.5274 13.15 86.6207 13.07 86.6741 12.97C86.7341 12.87 86.7641 12.76 86.7641 12.64C86.7641 12.4867 86.7241 12.37 86.6441 12.29C86.5641 12.2033 86.4507 12.1333 86.3041 12.08C86.1574 12.02 85.9841 11.9633 85.7841 11.91C85.5641 11.85 85.3441 11.78 85.1241 11.7C84.9041 11.62 84.7007 11.5233 84.5141 11.41C84.3341 11.2967 84.1874 11.1567 84.0741 10.99C83.9674 10.8167 83.9141 10.6067 83.9141 10.36C83.9141 10.1533 83.9574 9.96 84.0441 9.78C84.1374 9.6 84.2674 9.44667 84.4341 9.32C84.6074 9.18667 84.8074 9.08667 85.0341 9.02C85.2607 8.94667 85.5107 8.91 85.7841 8.91C86.1641 8.91 86.4841 8.98 86.7441 9.12C87.0041 9.25333 87.2007 9.44333 87.3341 9.69C87.4741 9.93667 87.5474 10.22 87.5541 10.54H86.7141C86.6674 10.26 86.5707 10.0567 86.4241 9.93C86.2774 9.79667 86.0574 9.73 85.7641 9.73C85.4774 9.73 85.2574 9.78667 85.1041 9.9C84.9507 10.0133 84.8741 10.1667 84.8741 10.36C84.8741 10.5067 84.9274 10.6267 85.0341 10.72C85.1407 10.8067 85.2841 10.8833 85.4641 10.95C85.6441 11.0167 85.8474 11.0867 86.0741 11.16C86.2874 11.2333 86.4907 11.31 86.6841 11.39C86.8841 11.4633 87.0607 11.5533 87.2141 11.66C87.3741 11.76 87.4974 11.8933 87.5841 12.06C87.6774 12.22 87.7241 12.42 87.7241 12.66C87.7241 12.9533 87.6507 13.21 87.5041 13.43C87.3574 13.6433 87.1441 13.81 86.8641 13.93C86.5907 14.05 86.2574 14.11 85.8641 14.11C85.5041 14.11 85.1974 14.0667 84.9441 13.98C84.6974 13.8933 84.4874 13.78 84.3141 13.64C84.1474 13.5 84.0174 13.3533 83.9241 13.2C83.8374 13.04 83.7774 12.8867 83.7441 12.74C83.7174 12.5933 83.7107 12.4733 83.7241 12.38ZM92.3792 12.38H93.2892C93.2359 12.7067 93.1092 13 92.9092 13.26C92.7092 13.52 92.4459 13.7267 92.1192 13.88C91.7925 14.0333 91.4092 14.11 90.9692 14.11C90.4492 14.11 89.9859 14 89.5792 13.78C89.1725 13.56 88.8525 13.2567 88.6192 12.87C88.3859 12.4833 88.2692 12.0333 88.2692 11.52C88.2692 11 88.3825 10.5467 88.6092 10.16C88.8359 9.76667 89.1492 9.46 89.5492 9.24C89.9492 9.02 90.4059 8.91 90.9192 8.91C91.4592 8.91 91.9125 9.01667 92.2792 9.23C92.6459 9.44333 92.9159 9.76 93.0892 10.18C93.2692 10.5933 93.3425 11.11 93.3092 11.73H89.2192C89.2525 12.03 89.3425 12.2967 89.4892 12.53C89.6425 12.7633 89.8425 12.9467 90.0892 13.08C90.3425 13.2133 90.6325 13.28 90.9592 13.28C91.3259 13.28 91.6325 13.1967 91.8792 13.03C92.1259 12.8633 92.2925 12.6467 92.3792 12.38ZM90.9292 9.73C90.4959 9.73 90.1359 9.84667 89.8492 10.08C89.5625 10.3067 89.3725 10.61 89.2792 10.99H92.3492C92.3225 10.5833 92.1759 10.2733 91.9092 10.06C91.6425 9.84 91.3159 9.73 90.9292 9.73ZM96.1802 14.1C95.7469 14.1 95.3536 13.99 95.0002 13.77C94.6469 13.55 94.3669 13.2467 94.1602 12.86C93.9602 12.4667 93.8602 12.0167 93.8602 11.51C93.8602 11.0033 93.9602 10.5567 94.1602 10.17C94.3602 9.77667 94.6336 9.47 94.9802 9.25C95.3269 9.02333 95.7269 8.91 96.1802 8.91C96.5736 8.91 96.9002 8.97667 97.1602 9.11C97.4202 9.24333 97.6236 9.43 97.7702 9.67C97.9169 9.91 98.0202 10.1867 98.0802 10.5C98.1469 10.8133 98.1802 11.15 98.1802 11.51C98.1802 11.7767 98.1469 12.06 98.0802 12.36C98.0136 12.66 97.9069 12.9433 97.7602 13.21C97.6136 13.4767 97.4102 13.6933 97.1502 13.86C96.8902 14.02 96.5669 14.1 96.1802 14.1ZM96.4502 13.27C96.8036 13.27 97.1002 13.1933 97.3402 13.04C97.5869 12.88 97.7702 12.6667 97.8902 12.4C98.0102 12.1333 98.0702 11.8367 98.0702 11.51C98.0702 11.1567 98.0069 10.8467 97.8802 10.58C97.7602 10.3133 97.5769 10.1067 97.3302 9.96C97.0902 9.81333 96.7969 9.74 96.4502 9.74C95.9302 9.74 95.5269 9.90667 95.2402 10.24C94.9602 10.5733 94.8202 10.9967 94.8202 11.51C94.8202 11.8567 94.8902 12.1633 95.0302 12.43C95.1702 12.69 95.3602 12.8967 95.6002 13.05C95.8469 13.1967 96.1302 13.27 96.4502 13.27ZM98.0702 7.01H99.0302V14H98.1502C98.1302 13.8533 98.1102 13.6733 98.0902 13.46C98.0769 13.2467 98.0702 13.0633 98.0702 12.91V7.01Z" fill="#041004"/>
<rect x="17.7656" y="219.717" width="678.932" height="0.935168" fill="#F7F7F7"/>
<rect x="17.7656" y="198.209" width="678.932" height="0.935168" fill="#F7F7F7"/>
<rect x="17.7656" y="176.699" width="678.932" height="0.935168" fill="#F7F7F7"/>
<rect x="17.7656" y="155.191" width="678.932" height="0.935168" fill="#F7F7F7"/>
<rect x="17.7656" y="133.682" width="678.932" height="0.935168" fill="#F7F7F7"/>
<rect x="17.7656" y="112.174" width="678.932" height="0.935168" fill="#F7F7F7"/>
<rect x="17.7656" y="90.6641" width="678.932" height="0.935168" fill="#F7F7F7"/>
<rect x="17.7656" y="69.1543" width="678.932" height="0.935168" fill="#F7F7F7"/>
<rect x="17.7656" y="47.6465" width="678.932" height="0.935168" fill="#F7F7F7"/>
<path d="M31.7935 237.251V234.247H32.48V237.265C32.48 237.504 32.4419 237.725 32.3656 237.93C32.2941 238.135 32.1868 238.317 32.0438 238.474C31.9007 238.626 31.722 238.746 31.5074 238.831C31.2976 238.917 31.0545 238.96 30.778 238.96C30.5491 238.96 30.3322 238.929 30.1272 238.867C29.9269 238.8 29.7481 238.705 29.5908 238.581C29.4335 238.452 29.3071 238.295 29.2118 238.109C29.1212 237.923 29.0711 237.711 29.0616 237.473H29.6981C29.7458 237.759 29.8673 237.976 30.0628 238.123C30.2583 238.266 30.4967 238.338 30.778 238.338C31.0163 238.338 31.2094 238.29 31.3572 238.195C31.505 238.1 31.6147 237.971 31.6862 237.809C31.7577 237.647 31.7935 237.461 31.7935 237.251ZM34.5191 237.737V237.122H37.0078V237.737H34.5191ZM33.5107 238.889L35.4059 234.247H36.1353L38.0448 238.889H37.301L35.6419 234.698H35.8993L34.2473 238.889H33.5107ZM43.0284 238.131L42.8282 238.202V234.247H43.5219V238.889H42.8282L39.5886 235.02L39.7888 234.948V238.889H39.1023V234.247H39.7888L43.0284 238.131Z" fill="#B5BBC5"/>
<path d="M92.0306 234.247V234.862H89.0484V236.307H91.487V236.908H89.0484V238.889H88.3618V234.247H92.0306ZM93.8337 236.879V238.274H96.8231V238.889H93.1472V234.247H96.8159V234.862H93.8337V236.278H96.2724V236.879H93.8337ZM98.177 238.889V234.247H100.265C100.79 234.247 101.195 234.355 101.481 234.569C101.767 234.784 101.91 235.091 101.91 235.492C101.91 235.74 101.855 235.94 101.746 236.092C101.641 236.245 101.49 236.359 101.295 236.436C101.1 236.507 100.871 236.555 100.608 236.579L100.623 236.529C100.818 236.538 101.002 236.56 101.173 236.593C101.35 236.626 101.502 236.681 101.631 236.758C101.765 236.834 101.87 236.939 101.946 237.072C102.027 237.206 102.067 237.38 102.067 237.594C102.067 237.876 102.001 238.112 101.867 238.302C101.734 238.488 101.548 238.629 101.309 238.724C101.076 238.82 100.804 238.874 100.494 238.889H98.177ZM98.8635 238.274H100.365C100.68 238.274 100.926 238.216 101.102 238.102C101.278 237.988 101.367 237.806 101.367 237.558C101.367 237.368 101.312 237.225 101.202 237.129C101.092 237.034 100.949 236.972 100.773 236.943C100.601 236.915 100.423 236.901 100.237 236.901H98.8635V238.274ZM98.8635 236.293H100.208C100.523 236.293 100.768 236.231 100.945 236.107C101.121 235.978 101.209 235.792 101.209 235.549C101.209 235.301 101.121 235.125 100.945 235.02C100.768 234.915 100.544 234.862 100.272 234.862H98.8635V236.293Z" fill="#B5BBC5"/>
<path d="M149.314 238.502H149.021L151.302 234.247H151.989V238.889H151.302V235.327L151.452 235.363L149.529 238.889H148.806L146.883 235.37L147.033 235.334V238.889H146.346V234.247H147.033L149.314 238.502ZM154.057 237.737V237.122H156.546V237.737H154.057ZM153.049 238.889L154.944 234.247H155.674L157.583 238.889H156.839L155.18 234.698H155.438L153.786 238.889H153.049ZM158.641 238.889V234.247H161.029C161.363 234.247 161.649 234.297 161.887 234.398C162.131 234.493 162.316 234.641 162.445 234.841C162.574 235.036 162.638 235.287 162.638 235.592C162.638 235.802 162.603 235.98 162.531 236.128C162.464 236.271 162.371 236.39 162.252 236.486C162.133 236.581 161.992 236.655 161.83 236.707C161.668 236.76 161.494 236.793 161.308 236.808L161.258 236.765C161.539 236.774 161.775 236.805 161.966 236.858C162.157 236.91 162.302 237.005 162.402 237.144C162.507 237.277 162.56 237.477 162.56 237.744V238.889H161.866V237.766C161.866 237.58 161.835 237.435 161.773 237.33C161.711 237.225 161.604 237.151 161.451 237.108C161.299 237.065 161.084 237.044 160.808 237.044H159.327V238.889H158.641ZM159.327 236.443H161.029C161.334 236.443 161.563 236.367 161.716 236.214C161.873 236.061 161.952 235.861 161.952 235.613C161.952 235.375 161.873 235.191 161.716 235.063C161.563 234.934 161.334 234.87 161.029 234.87H159.327V236.443Z" fill="#B5BBC5"/>
<path d="M207.707 237.737V237.122H210.195V237.737H207.707ZM206.698 238.889L208.594 234.247H209.323L211.232 238.889H210.489L208.83 234.698H209.087L207.435 238.889H206.698ZM212.848 237.287V236.686H214.514C214.791 236.686 215.012 236.603 215.179 236.436C215.351 236.269 215.437 236.05 215.437 235.778C215.437 235.496 215.351 235.275 215.179 235.113C215.012 234.951 214.791 234.87 214.514 234.87H212.962V238.889H212.276V234.247H214.485C214.714 234.247 214.926 234.281 215.122 234.347C215.322 234.409 215.496 234.505 215.644 234.634C215.797 234.762 215.913 234.922 215.994 235.113C216.08 235.303 216.123 235.525 216.123 235.778C216.123 236.026 216.08 236.245 215.994 236.436C215.913 236.626 215.797 236.786 215.644 236.915C215.496 237.039 215.322 237.132 215.122 237.194C214.926 237.256 214.714 237.287 214.485 237.287H212.848ZM217.376 238.889V234.247H219.764C220.098 234.247 220.384 234.297 220.622 234.398C220.866 234.493 221.051 234.641 221.18 234.841C221.309 235.036 221.373 235.287 221.373 235.592C221.373 235.802 221.338 235.98 221.266 236.128C221.199 236.271 221.106 236.39 220.987 236.486C220.868 236.581 220.727 236.655 220.565 236.707C220.403 236.76 220.229 236.793 220.043 236.808L219.993 236.765C220.274 236.774 220.51 236.805 220.701 236.858C220.892 236.91 221.037 237.005 221.137 237.144C221.242 237.277 221.295 237.477 221.295 237.744V238.889H220.601V237.766C220.601 237.58 220.57 237.435 220.508 237.33C220.446 237.225 220.339 237.151 220.186 237.108C220.034 237.065 219.819 237.044 219.542 237.044H218.062V238.889H217.376ZM218.062 236.443H219.764C220.069 236.443 220.298 236.367 220.451 236.214C220.608 236.061 220.687 235.861 220.687 235.613C220.687 235.375 220.608 235.191 220.451 235.063C220.298 234.934 220.069 234.87 219.764 234.87H218.062V236.443Z" fill="#B5BBC5"/>
<path d="M269.009 238.502H268.716L270.998 234.247H271.684V238.889H270.998V235.327L271.148 235.363L269.224 238.889H268.502L266.578 235.37L266.728 235.334V238.889H266.042V234.247H266.728L269.009 238.502ZM273.753 237.737V237.122H276.241V237.737H273.753ZM272.744 238.889L274.64 234.247H275.369L277.278 238.889H276.535L274.876 234.698H275.133L273.481 238.889H272.744ZM281.652 234.247L279.886 237.337V238.889H279.199V237.337L277.433 234.247H278.219L279.721 236.958H279.392L280.865 234.247H281.652Z" fill="#B5BBC5"/>
<path d="M329.176 237.251V234.247H329.863V237.265C329.863 237.504 329.825 237.725 329.748 237.93C329.677 238.135 329.57 238.317 329.427 238.474C329.284 238.626 329.105 238.746 328.89 238.831C328.68 238.917 328.437 238.96 328.161 238.96C327.932 238.96 327.715 238.929 327.51 238.867C327.31 238.8 327.131 238.705 326.974 238.581C326.816 238.452 326.69 238.295 326.595 238.109C326.504 237.923 326.454 237.711 326.444 237.473H327.081C327.129 237.759 327.25 237.976 327.446 238.123C327.641 238.266 327.879 238.338 328.161 238.338C328.399 238.338 328.592 238.29 328.74 238.195C328.888 238.1 328.997 237.971 329.069 237.809C329.141 237.647 329.176 237.461 329.176 237.251ZM334.912 237.022V234.247H335.599V237.051C335.599 237.327 335.563 237.57 335.491 237.78C335.425 237.99 335.327 238.171 335.198 238.324C335.069 238.476 334.917 238.6 334.74 238.696C334.569 238.786 334.376 238.853 334.161 238.896C333.951 238.943 333.727 238.967 333.489 238.967C333.241 238.967 333.01 238.943 332.795 238.896C332.581 238.853 332.383 238.786 332.202 238.696C332.025 238.6 331.873 238.476 331.744 238.324C331.62 238.171 331.522 237.99 331.451 237.78C331.384 237.57 331.351 237.327 331.351 237.051V234.247H332.037V237.022C332.037 237.38 332.101 237.654 332.23 237.845C332.364 238.035 332.54 238.166 332.759 238.238C332.979 238.309 333.222 238.345 333.489 238.345C333.746 238.345 333.982 238.309 334.197 238.238C334.411 238.166 334.583 238.035 334.712 237.845C334.845 237.654 334.912 237.38 334.912 237.022ZM341.012 238.131L340.812 238.202V234.247H341.505V238.889H340.812L337.572 235.02L337.772 234.948V238.889H337.086V234.247H337.772L341.012 238.131Z" fill="#B5BBC5"/>
<path d="M388.09 237.251V234.247H388.777V237.265C388.777 237.504 388.739 237.725 388.662 237.93C388.591 238.135 388.484 238.317 388.341 238.474C388.198 238.626 388.019 238.746 387.804 238.831C387.595 238.917 387.351 238.96 387.075 238.96C386.846 238.96 386.629 238.929 386.424 238.867C386.224 238.8 386.045 238.705 385.888 238.581C385.73 238.452 385.604 238.295 385.509 238.109C385.418 237.923 385.368 237.711 385.358 237.473H385.995C386.043 237.759 386.164 237.976 386.36 238.123C386.555 238.266 386.794 238.338 387.075 238.338C387.313 238.338 387.506 238.29 387.654 238.195C387.802 238.1 387.912 237.971 387.983 237.809C388.055 237.647 388.09 237.461 388.09 237.251ZM393.826 237.022V234.247H394.513V237.051C394.513 237.327 394.477 237.57 394.405 237.78C394.339 237.99 394.241 238.171 394.112 238.324C393.983 238.476 393.831 238.6 393.654 238.696C393.483 238.786 393.29 238.853 393.075 238.896C392.865 238.943 392.641 238.967 392.403 238.967C392.155 238.967 391.924 238.943 391.709 238.896C391.495 238.853 391.297 238.786 391.116 238.696C390.939 238.6 390.787 238.476 390.658 238.324C390.534 238.171 390.436 237.99 390.365 237.78C390.298 237.57 390.265 237.327 390.265 237.051V234.247H390.951V237.022C390.951 237.38 391.016 237.654 391.144 237.845C391.278 238.035 391.454 238.166 391.673 238.238C391.893 238.309 392.136 238.345 392.403 238.345C392.66 238.345 392.896 238.309 393.111 238.238C393.325 238.166 393.497 238.035 393.626 237.845C393.759 237.654 393.826 237.38 393.826 237.022ZM396.686 234.247V238.274H399.418V238.889H396V234.247H396.686Z" fill="#B5BBC5"/>
<path d="M444.308 237.737V237.122H446.797V237.737H444.308ZM443.3 238.889L445.195 234.247H445.925L447.834 238.889H447.09L445.431 234.698H445.689L444.037 238.889H443.3ZM452.418 237.022V234.247H453.105V237.051C453.105 237.327 453.069 237.57 452.997 237.78C452.931 237.99 452.833 238.171 452.704 238.324C452.575 238.476 452.423 238.6 452.246 238.696C452.075 238.786 451.882 238.853 451.667 238.896C451.457 238.943 451.233 238.967 450.995 238.967C450.747 238.967 450.516 238.943 450.301 238.896C450.087 238.853 449.889 238.786 449.708 238.696C449.531 238.6 449.379 238.476 449.25 238.324C449.126 238.171 449.028 237.99 448.957 237.78C448.89 237.57 448.857 237.327 448.857 237.051V234.247H449.543V237.022C449.543 237.38 449.607 237.654 449.736 237.845C449.87 238.035 450.046 238.166 450.265 238.238C450.485 238.309 450.728 238.345 450.995 238.345C451.252 238.345 451.488 238.309 451.703 238.238C451.917 238.166 452.089 238.035 452.218 237.845C452.351 237.654 452.418 237.38 452.418 237.022ZM456.78 238.967C456.413 238.967 456.082 238.913 455.786 238.803C455.495 238.693 455.245 238.536 455.035 238.331C454.825 238.126 454.666 237.878 454.556 237.587C454.446 237.292 454.391 236.965 454.391 236.607C454.391 236.24 454.451 235.909 454.57 235.613C454.689 235.313 454.859 235.055 455.078 234.841C455.297 234.622 455.557 234.455 455.858 234.34C456.158 234.226 456.489 234.169 456.852 234.169C457.257 234.169 457.612 234.238 457.917 234.376C458.227 234.514 458.475 234.71 458.661 234.963C458.847 235.21 458.957 235.506 458.99 235.849H458.368C458.306 235.63 458.206 235.442 458.067 235.284C457.929 235.127 457.757 235.005 457.552 234.92C457.347 234.834 457.114 234.791 456.852 234.791C456.494 234.791 456.184 234.87 455.922 235.027C455.66 235.179 455.455 235.394 455.307 235.671C455.159 235.942 455.085 236.255 455.085 236.607C455.085 236.955 455.15 237.261 455.278 237.523C455.412 237.78 455.605 237.983 455.858 238.131C456.115 238.274 456.425 238.345 456.787 238.345C457.069 238.345 457.314 238.297 457.524 238.202C457.738 238.102 457.912 237.964 458.046 237.787C458.184 237.606 458.28 237.389 458.332 237.137L458.69 237.094C458.618 237.709 458.413 238.176 458.075 238.495C457.736 238.81 457.305 238.967 456.78 238.967ZM458.532 238.889C458.532 238.736 458.537 238.562 458.547 238.367C458.561 238.166 458.575 237.966 458.589 237.766C458.608 237.561 458.625 237.377 458.639 237.215H456.902V236.657H459.169V238.889H458.532Z" fill="#B5BBC5"/>
<path d="M503.266 237.365H503.924C503.938 237.551 504 237.721 504.11 237.873C504.224 238.021 504.377 238.138 504.567 238.224C504.763 238.309 504.989 238.352 505.247 238.352C505.471 238.352 505.657 238.321 505.805 238.259C505.953 238.197 506.062 238.114 506.134 238.009C506.21 237.899 506.248 237.771 506.248 237.623C506.248 237.475 506.208 237.358 506.127 237.272C506.045 237.182 505.924 237.108 505.762 237.051C505.6 236.989 505.399 236.929 505.161 236.872C504.951 236.82 504.744 236.758 504.539 236.686C504.339 236.61 504.153 236.517 503.981 236.407C503.814 236.297 503.678 236.166 503.573 236.014C503.473 235.856 503.423 235.668 503.423 235.449C503.423 235.215 503.488 235.003 503.616 234.812C503.745 234.617 503.933 234.462 504.181 234.347C504.434 234.228 504.739 234.169 505.097 234.169C505.65 234.169 506.067 234.307 506.348 234.583C506.634 234.86 506.773 235.229 506.763 235.692H506.119C506.105 235.368 506.003 235.137 505.812 234.998C505.621 234.855 505.373 234.784 505.068 234.784C504.806 234.784 504.582 234.839 504.396 234.948C504.21 235.053 504.117 235.22 504.117 235.449C504.117 235.549 504.138 235.637 504.181 235.713C504.224 235.785 504.296 235.852 504.396 235.914C504.496 235.976 504.629 236.035 504.796 236.092C504.968 236.15 505.18 236.212 505.433 236.278C505.624 236.321 505.807 236.376 505.983 236.443C506.165 236.51 506.327 236.593 506.47 236.693C506.613 236.793 506.725 236.922 506.806 237.079C506.892 237.237 506.935 237.43 506.935 237.659C506.935 237.902 506.875 238.123 506.756 238.324C506.637 238.519 506.451 238.677 506.198 238.796C505.95 238.91 505.628 238.967 505.233 238.967C504.918 238.967 504.644 238.927 504.41 238.846C504.181 238.765 503.988 238.66 503.831 238.531C503.678 238.402 503.557 238.264 503.466 238.116C503.38 237.969 503.321 237.828 503.287 237.694C503.259 237.561 503.252 237.451 503.266 237.365ZM508.829 236.879V238.274H511.818V238.889H508.142V234.247H511.811V234.862H508.829V236.278H511.268V236.879H508.829ZM513.73 237.287V236.686H515.396C515.673 236.686 515.895 236.603 516.061 236.436C516.233 236.269 516.319 236.05 516.319 235.778C516.319 235.496 516.233 235.275 516.061 235.113C515.895 234.951 515.673 234.87 515.396 234.87H513.844V238.889H513.158V234.247H515.368C515.597 234.247 515.809 234.281 516.004 234.347C516.204 234.409 516.378 234.505 516.526 234.634C516.679 234.762 516.796 234.922 516.877 235.113C516.963 235.303 517.005 235.525 517.005 235.778C517.005 236.026 516.963 236.245 516.877 236.436C516.796 236.626 516.679 236.786 516.526 236.915C516.378 237.039 516.204 237.132 516.004 237.194C515.809 237.256 515.597 237.287 515.368 237.287H513.73Z" fill="#B5BBC5"/>
<path d="M563.838 238.967C563.357 238.967 562.928 238.87 562.551 238.674C562.179 238.479 561.886 238.202 561.672 237.845C561.462 237.487 561.357 237.063 561.357 236.572C561.357 236.076 561.462 235.649 561.672 235.291C561.886 234.934 562.179 234.657 562.551 234.462C562.928 234.266 563.357 234.169 563.838 234.169C564.325 234.169 564.754 234.266 565.126 234.462C565.498 234.657 565.791 234.934 566.005 235.291C566.22 235.649 566.327 236.076 566.327 236.572C566.327 237.063 566.22 237.487 566.005 237.845C565.791 238.202 565.498 238.479 565.126 238.674C564.754 238.87 564.325 238.967 563.838 238.967ZM563.838 238.345C564.182 238.345 564.487 238.278 564.754 238.145C565.021 238.011 565.233 237.814 565.39 237.551C565.548 237.289 565.626 236.963 565.626 236.572C565.626 236.181 565.548 235.854 565.39 235.592C565.233 235.33 565.021 235.132 564.754 234.998C564.487 234.86 564.182 234.791 563.838 234.791C563.505 234.791 563.202 234.86 562.93 234.998C562.658 235.132 562.444 235.33 562.287 235.592C562.129 235.854 562.051 236.181 562.051 236.572C562.051 236.963 562.129 237.289 562.287 237.551C562.444 237.814 562.658 238.011 562.93 238.145C563.202 238.278 563.505 238.345 563.838 238.345ZM572.04 237.301C571.997 237.649 571.878 237.947 571.683 238.195C571.492 238.443 571.242 238.634 570.932 238.767C570.622 238.901 570.269 238.967 569.873 238.967C569.516 238.967 569.187 238.913 568.887 238.803C568.591 238.693 568.333 238.536 568.114 238.331C567.895 238.126 567.723 237.876 567.599 237.58C567.475 237.28 567.413 236.943 567.413 236.572C567.413 236.195 567.475 235.859 567.599 235.563C567.723 235.268 567.895 235.017 568.114 234.812C568.333 234.603 568.591 234.443 568.887 234.333C569.187 234.224 569.516 234.169 569.873 234.169C570.274 234.169 570.629 234.238 570.939 234.376C571.249 234.51 571.499 234.703 571.69 234.955C571.885 235.203 572.005 235.501 572.047 235.849H571.39C571.328 235.625 571.225 235.435 571.082 235.277C570.939 235.12 570.765 235.001 570.56 234.92C570.355 234.834 570.126 234.791 569.873 234.791C569.549 234.791 569.254 234.86 568.987 234.998C568.72 235.137 568.505 235.337 568.343 235.599C568.186 235.861 568.107 236.185 568.107 236.572C568.107 236.953 568.186 237.277 568.343 237.544C568.505 237.806 568.72 238.007 568.987 238.145C569.254 238.278 569.549 238.345 569.873 238.345C570.126 238.345 570.353 238.305 570.553 238.224C570.758 238.143 570.932 238.023 571.075 237.866C571.218 237.709 571.323 237.52 571.39 237.301H572.04ZM572.752 234.247H576.821V234.862H572.752V234.247ZM574.439 234.791H575.133V238.889H574.439V234.791Z" fill="#B5BBC5"/>
<path d="M625.335 238.131L625.135 238.202V234.247H625.828V238.889H625.135L621.895 235.02L622.095 234.948V238.889H621.409V234.247H622.095L625.335 238.131ZM629.6 238.967C629.118 238.967 628.689 238.87 628.313 238.674C627.941 238.479 627.647 238.202 627.433 237.845C627.223 237.487 627.118 237.063 627.118 236.572C627.118 236.076 627.223 235.649 627.433 235.291C627.647 234.934 627.941 234.657 628.313 234.462C628.689 234.266 629.118 234.169 629.6 234.169C630.086 234.169 630.515 234.266 630.887 234.462C631.259 234.657 631.552 234.934 631.767 235.291C631.981 235.649 632.089 236.076 632.089 236.572C632.089 237.063 631.981 237.487 631.767 237.845C631.552 238.202 631.259 238.479 630.887 238.674C630.515 238.87 630.086 238.967 629.6 238.967ZM629.6 238.345C629.943 238.345 630.248 238.278 630.515 238.145C630.782 238.011 630.994 237.814 631.152 237.551C631.309 237.289 631.388 236.963 631.388 236.572C631.388 236.181 631.309 235.854 631.152 235.592C630.994 235.33 630.782 235.132 630.515 234.998C630.248 234.86 629.943 234.791 629.6 234.791C629.266 234.791 628.963 234.86 628.692 234.998C628.42 235.132 628.205 235.33 628.048 235.592C627.891 235.854 627.812 236.181 627.812 236.572C627.812 236.963 627.891 237.289 628.048 237.551C628.205 237.814 628.42 238.011 628.692 238.145C628.963 238.278 629.266 238.345 629.6 238.345ZM634.525 238.889L632.715 234.247H633.466L635.025 238.352H634.811L636.37 234.247H637.106L635.311 238.889H634.525Z" fill="#B5BBC5"/>
<path d="M683.12 234.247C683.601 234.247 684.004 234.309 684.328 234.433C684.657 234.552 684.919 234.719 685.115 234.934C685.315 235.148 685.458 235.394 685.544 235.671C685.63 235.947 685.673 236.24 685.673 236.55C685.673 236.855 685.625 237.148 685.53 237.43C685.439 237.711 685.291 237.961 685.086 238.181C684.886 238.4 684.624 238.574 684.3 238.703C683.975 238.827 683.582 238.889 683.12 238.889H681.26V234.247H683.12ZM681.947 238.266H683.113C683.48 238.266 683.782 238.219 684.021 238.123C684.259 238.023 684.447 237.892 684.586 237.73C684.729 237.563 684.829 237.377 684.886 237.172C684.948 236.967 684.979 236.76 684.979 236.55C684.979 236.336 684.948 236.128 684.886 235.928C684.829 235.728 684.729 235.549 684.586 235.392C684.447 235.229 684.259 235.103 684.021 235.013C683.782 234.917 683.48 234.87 683.113 234.87H681.947V238.266ZM687.647 236.879V238.274H690.636V238.889H686.961V234.247H690.629V234.862H687.647V236.278H690.086V236.879H687.647ZM696.403 237.301C696.36 237.649 696.241 237.947 696.046 238.195C695.855 238.443 695.605 238.634 695.295 238.767C694.985 238.901 694.632 238.967 694.236 238.967C693.879 238.967 693.55 238.913 693.249 238.803C692.954 238.693 692.696 238.536 692.477 238.331C692.258 238.126 692.086 237.876 691.962 237.58C691.838 237.28 691.776 236.943 691.776 236.572C691.776 236.195 691.838 235.859 691.962 235.563C692.086 235.268 692.258 235.017 692.477 234.812C692.696 234.603 692.954 234.443 693.249 234.333C693.55 234.224 693.879 234.169 694.236 234.169C694.637 234.169 694.992 234.238 695.302 234.376C695.612 234.51 695.862 234.703 696.053 234.955C696.248 235.203 696.367 235.501 696.41 235.849H695.752C695.69 235.625 695.588 235.435 695.445 235.277C695.302 235.12 695.128 235.001 694.923 234.92C694.718 234.834 694.489 234.791 694.236 234.791C693.912 234.791 693.616 234.86 693.349 234.998C693.082 235.137 692.868 235.337 692.706 235.599C692.548 235.861 692.47 236.185 692.47 236.572C692.47 236.953 692.548 237.277 692.706 237.544C692.868 237.806 693.082 238.007 693.349 238.145C693.616 238.278 693.912 238.345 694.236 238.345C694.489 238.345 694.715 238.305 694.916 238.224C695.121 238.143 695.295 238.023 695.438 237.866C695.581 237.709 695.686 237.52 695.752 237.301H696.403Z" fill="#B5BBC5"/>
<path d="M26.1875 184.648C26.1875 183.357 27.2342 182.311 28.5254 182.311C29.8166 182.311 30.8633 183.357 30.8633 184.648V220.652H26.1875V184.648Z" fill="#328A28"/>
<path d="M35.5391 144.436C35.5391 143.144 36.5858 142.098 37.877 142.098C39.1682 142.098 40.2149 143.144 40.2149 144.436V220.652H35.5391V144.436Z" fill="#F2994A"/>
<path d="M86.9766 160.332C86.9766 159.041 88.0233 157.994 89.3145 157.994C90.6057 157.994 91.6524 159.041 91.6524 160.332V220.65H86.9766V160.332Z" fill="#328A28"/>
<path d="M96.3281 123.861C96.3281 122.57 97.3748 121.523 98.666 121.523C99.9572 121.523 101.004 122.57 101.004 123.861V220.651H96.3281V123.861Z" fill="#F2994A"/>
<path d="M145.891 144.436C145.891 143.144 146.937 142.098 148.229 142.098C149.52 142.098 150.566 143.144 150.566 144.436V220.652H145.891V144.436Z" fill="#328A28"/>
<path d="M155.242 100.482C155.242 99.1913 156.289 98.1445 157.58 98.1445C158.871 98.1445 159.918 99.1913 159.918 100.482V220.651H155.242V100.482Z" fill="#F2994A"/>
<path d="M208.547 193.064C208.547 191.773 209.594 190.727 210.885 190.727C212.176 190.727 213.223 191.773 213.223 193.064V220.652H208.547V193.064Z" fill="#328A28"/>
<path d="M217.898 175.297C217.898 174.006 218.945 172.959 220.236 172.959C221.528 172.959 222.574 174.006 222.574 175.297V220.653H217.898V175.297Z" fill="#F2994A"/>
<path d="M265.594 132.104C265.594 130.812 266.64 129.766 267.932 129.766C269.223 129.766 270.27 130.812 270.27 132.104V220.654H265.594V132.104Z" fill="#328A28"/>
<path d="M274.945 78.0391C274.945 76.7479 275.992 75.7012 277.283 75.7012C278.574 75.7012 279.621 76.7479 279.621 78.0391V220.652H274.945V78.0391Z" fill="#F2994A"/>
<path d="M327.312 127.996C327.312 126.705 328.359 125.658 329.65 125.658C330.942 125.658 331.988 126.705 331.988 127.996V220.651H327.312V127.996Z" fill="#328A28"/>
<path d="M336.664 71.4922C336.664 70.201 337.711 69.1543 339.002 69.1543C340.293 69.1543 341.34 70.201 341.34 71.4922V220.651H336.664V71.4922Z" fill="#F2994A"/>
<path d="M385.289 146.174C385.289 144.883 386.336 143.836 387.627 143.836C388.918 143.836 389.965 144.883 389.965 146.174V220.651H385.289V146.174Z" fill="#328A28"/>
<path d="M394.641 100.482C394.641 99.1913 395.687 98.1445 396.979 98.1445C398.27 98.1445 399.316 99.1913 399.316 100.482V220.651H394.641V100.482Z" fill="#F2994A"/>
<path d="M445.141 134.447C445.141 133.156 446.187 132.109 447.479 132.109C448.77 132.109 449.816 133.156 449.816 134.447V220.652H445.141V134.447Z" fill="#328A28"/>
<path d="M454.492 81.7793C454.492 80.4881 455.539 79.4414 456.83 79.4414C458.121 79.4414 459.168 80.4881 459.168 81.7793V220.652H454.492V81.7793Z" fill="#F2994A"/>
<path d="M504.055 169.043C504.055 167.752 505.101 166.705 506.393 166.705C507.684 166.705 508.731 167.752 508.731 169.043V220.652H504.055V169.043Z" fill="#328A28"/>
<path d="M513.406 136.955C513.406 135.664 514.453 134.617 515.744 134.617C517.035 134.617 518.082 135.664 518.082 136.955V220.653H513.406V136.955Z" fill="#F2994A"/>
<path d="M560.172 160.83C560.172 159.539 561.219 158.492 562.51 158.492C563.801 158.492 564.848 159.539 564.848 160.83V220.648H560.172V160.83Z" fill="#328A28"/>
<path d="M569.523 123.861C569.523 122.57 570.57 121.523 571.861 121.523C573.153 121.523 574.199 122.57 574.199 123.861V220.651H569.523V123.861Z" fill="#F2994A"/>
<path d="M621.891 196.018C621.891 194.726 622.937 193.68 624.229 193.68C625.52 193.68 626.566 194.726 626.566 196.018V220.653H621.891V196.018Z" fill="#328A28"/>
<path d="M631.242 179.973C631.242 178.681 632.289 177.635 633.58 177.635C634.871 177.635 635.918 178.681 635.918 179.973V220.652H631.242V179.973Z" fill="#F2994A"/>
<path d="M685.484 146.174C685.484 144.883 686.531 143.836 687.822 143.836C689.113 143.836 690.16 144.883 690.16 146.174V220.651H685.484V146.174Z" fill="#328A28"/>
<path d="M694.836 100.482C694.836 99.1913 695.883 98.1445 697.174 98.1445C698.465 98.1445 699.512 99.1913 699.512 100.482V220.651H694.836V100.482Z" fill="#F2994A"/>
<g filter="url(#filter0_d_16531_183392)">
<rect x="120.633" y="129.941" width="72.0079" height="29.7964" rx="4.13839" fill="white"/>
<circle cx="130.148" cy="138.624" r="1.65535" fill="#328A28"/>
<path d="M136.392 139.597C136.222 139.597 136.068 139.572 135.932 139.521C135.797 139.47 135.681 139.397 135.584 139.302C135.487 139.207 135.413 139.093 135.362 138.958C135.311 138.821 135.286 138.67 135.286 138.504C135.286 138.334 135.314 138.181 135.369 138.044C135.424 137.905 135.502 137.786 135.604 137.687C135.705 137.585 135.826 137.508 135.965 137.455C136.104 137.402 136.257 137.375 136.425 137.375C136.613 137.375 136.777 137.407 136.918 137.471C137.062 137.535 137.176 137.626 137.263 137.743C137.349 137.858 137.399 137.995 137.415 138.153H137.127C137.098 138.052 137.052 137.965 136.988 137.892C136.924 137.819 136.844 137.763 136.749 137.723C136.654 137.683 136.546 137.664 136.425 137.664C136.259 137.664 136.116 137.7 135.995 137.773C135.873 137.843 135.778 137.943 135.71 138.071C135.641 138.197 135.607 138.341 135.607 138.504C135.607 138.666 135.637 138.807 135.697 138.928C135.758 139.047 135.848 139.141 135.965 139.21C136.084 139.276 136.227 139.309 136.395 139.309C136.525 139.309 136.639 139.287 136.736 139.243C136.835 139.196 136.916 139.132 136.978 139.051C137.042 138.967 137.086 138.866 137.11 138.749L137.276 138.73C137.243 139.014 137.148 139.231 136.991 139.378C136.834 139.524 136.635 139.597 136.392 139.597ZM137.203 139.561C137.203 139.49 137.205 139.409 137.21 139.319C137.216 139.226 137.223 139.133 137.229 139.041C137.238 138.946 137.246 138.861 137.253 138.786H136.448V138.528H137.498V139.561H137.203ZM138.075 137.909H138.392V139.561H138.075V137.909ZM138.952 138.19C138.837 138.19 138.739 138.216 138.657 138.269C138.578 138.322 138.514 138.387 138.465 138.465C138.419 138.542 138.388 138.616 138.373 138.687L138.369 138.498C138.371 138.476 138.377 138.442 138.386 138.395C138.397 138.347 138.416 138.293 138.442 138.233C138.469 138.173 138.504 138.117 138.548 138.064C138.592 138.009 138.647 137.964 138.714 137.928C138.78 137.893 138.859 137.875 138.952 137.875V138.19ZM140.202 139.597C140.041 139.597 139.893 139.563 139.758 139.494C139.624 139.426 139.517 139.328 139.437 139.2C139.358 139.072 139.318 138.918 139.318 138.739C139.318 138.559 139.358 138.404 139.437 138.276C139.517 138.146 139.624 138.046 139.758 137.978C139.893 137.91 140.041 137.875 140.202 137.875C140.363 137.875 140.51 137.91 140.642 137.978C140.775 138.046 140.881 138.146 140.96 138.276C141.04 138.404 141.079 138.559 141.079 138.739C141.079 138.918 141.04 139.072 140.96 139.2C140.881 139.328 140.775 139.426 140.642 139.494C140.51 139.563 140.363 139.597 140.202 139.597ZM140.202 139.322C140.301 139.322 140.393 139.3 140.477 139.256C140.563 139.21 140.631 139.143 140.682 139.057C140.735 138.969 140.761 138.863 140.761 138.739C140.761 138.614 140.735 138.507 140.682 138.418C140.631 138.33 140.563 138.263 140.477 138.216C140.393 138.17 140.301 138.147 140.202 138.147C140.103 138.147 140.01 138.17 139.924 138.216C139.838 138.261 139.768 138.327 139.715 138.415C139.662 138.503 139.636 138.611 139.636 138.739C139.636 138.863 139.661 138.969 139.712 139.057C139.765 139.143 139.834 139.21 139.92 139.256C140.007 139.3 140.1 139.322 140.202 139.322ZM141.504 139.024H141.796C141.807 139.112 141.847 139.185 141.915 139.243C141.983 139.298 142.079 139.325 142.203 139.325C142.282 139.325 142.344 139.317 142.388 139.299C142.433 139.279 142.463 139.253 142.481 139.22C142.501 139.186 142.511 139.15 142.511 139.11C142.511 139.06 142.498 139.021 142.471 138.994C142.445 138.966 142.407 138.943 142.359 138.925C142.31 138.905 142.253 138.886 142.186 138.869C142.114 138.849 142.041 138.826 141.968 138.799C141.895 138.773 141.828 138.741 141.766 138.703C141.706 138.666 141.658 138.619 141.62 138.564C141.585 138.507 141.567 138.437 141.567 138.355C141.567 138.287 141.582 138.223 141.61 138.163C141.641 138.104 141.684 138.053 141.74 138.011C141.797 137.967 141.863 137.934 141.938 137.912C142.013 137.888 142.096 137.875 142.186 137.875C142.312 137.875 142.418 137.899 142.504 137.945C142.59 137.989 142.655 138.052 142.7 138.134C142.746 138.215 142.77 138.309 142.772 138.415H142.494C142.479 138.322 142.447 138.255 142.398 138.213C142.35 138.169 142.277 138.147 142.18 138.147C142.085 138.147 142.012 138.166 141.961 138.203C141.911 138.241 141.885 138.291 141.885 138.355C141.885 138.404 141.903 138.444 141.938 138.475C141.973 138.503 142.021 138.529 142.081 138.551C142.14 138.573 142.207 138.596 142.282 138.62C142.353 138.645 142.42 138.67 142.484 138.696C142.551 138.721 142.609 138.751 142.66 138.786C142.713 138.819 142.754 138.863 142.782 138.918C142.813 138.971 142.829 139.037 142.829 139.117C142.829 139.214 142.804 139.299 142.756 139.372C142.707 139.442 142.637 139.498 142.544 139.537C142.454 139.577 142.343 139.597 142.213 139.597C142.094 139.597 141.992 139.583 141.908 139.554C141.827 139.525 141.757 139.488 141.7 139.441C141.645 139.395 141.602 139.346 141.571 139.296C141.542 139.243 141.522 139.192 141.511 139.143C141.502 139.095 141.5 139.055 141.504 139.024ZM143.254 139.024H143.546C143.557 139.112 143.596 139.185 143.665 139.243C143.733 139.298 143.829 139.325 143.953 139.325C144.032 139.325 144.094 139.317 144.138 139.299C144.182 139.279 144.213 139.253 144.231 139.22C144.251 139.186 144.261 139.15 144.261 139.11C144.261 139.06 144.247 139.021 144.221 138.994C144.194 138.966 144.157 138.943 144.108 138.925C144.06 138.905 144.002 138.886 143.936 138.869C143.863 138.849 143.791 138.826 143.718 138.799C143.645 138.773 143.578 138.741 143.516 138.703C143.456 138.666 143.408 138.619 143.37 138.564C143.335 138.507 143.317 138.437 143.317 138.355C143.317 138.287 143.331 138.223 143.36 138.163C143.391 138.104 143.434 138.053 143.489 138.011C143.547 137.967 143.613 137.934 143.688 137.912C143.763 137.888 143.846 137.875 143.936 137.875C144.062 137.875 144.168 137.899 144.254 137.945C144.34 137.989 144.405 138.052 144.449 138.134C144.496 138.215 144.52 138.309 144.522 138.415H144.244C144.229 138.322 144.197 138.255 144.148 138.213C144.1 138.169 144.027 138.147 143.93 138.147C143.835 138.147 143.762 138.166 143.711 138.203C143.66 138.241 143.635 138.291 143.635 138.355C143.635 138.404 143.653 138.444 143.688 138.475C143.723 138.503 143.771 138.529 143.83 138.551C143.89 138.573 143.957 138.596 144.032 138.62C144.103 138.645 144.17 138.67 144.234 138.696C144.3 138.721 144.359 138.751 144.41 138.786C144.463 138.819 144.503 138.863 144.532 138.918C144.563 138.971 144.579 139.037 144.579 139.117C144.579 139.214 144.554 139.299 144.506 139.372C144.457 139.442 144.386 139.498 144.294 139.537C144.203 139.577 144.093 139.597 143.963 139.597C143.844 139.597 143.742 139.583 143.658 139.554C143.576 139.525 143.507 139.488 143.45 139.441C143.394 139.395 143.351 139.346 143.32 139.296C143.292 139.243 143.272 139.192 143.261 139.143C143.252 139.095 143.25 139.055 143.254 139.024ZM145.97 137.909H146.288V139.561H145.97V137.909ZM146.917 137.875C147.009 137.875 147.093 137.889 147.168 137.915C147.243 137.942 147.307 137.981 147.36 138.034C147.413 138.085 147.454 138.149 147.483 138.226C147.514 138.301 147.529 138.387 147.529 138.485V139.561H147.215V138.554C147.215 138.424 147.183 138.327 147.119 138.263C147.057 138.197 146.962 138.163 146.834 138.163C146.735 138.163 146.644 138.187 146.562 138.233C146.481 138.279 146.413 138.341 146.36 138.418C146.31 138.493 146.279 138.578 146.268 138.673L146.264 138.491C146.276 138.403 146.299 138.321 146.334 138.246C146.372 138.171 146.418 138.106 146.473 138.051C146.53 137.993 146.597 137.95 146.672 137.922C146.747 137.891 146.828 137.875 146.917 137.875ZM148.128 137.875C148.221 137.875 148.305 137.889 148.38 137.915C148.455 137.942 148.519 137.981 148.572 138.034C148.625 138.085 148.666 138.149 148.695 138.226C148.725 138.301 148.741 138.387 148.741 138.485V139.561H148.426V138.554C148.426 138.424 148.394 138.327 148.33 138.263C148.269 138.197 148.174 138.163 148.046 138.163C147.946 138.163 147.856 138.187 147.774 138.233C147.692 138.279 147.625 138.341 147.572 138.418C147.521 138.493 147.491 138.578 147.48 138.673L147.476 138.488C147.487 138.4 147.51 138.319 147.546 138.246C147.583 138.171 147.631 138.106 147.688 138.051C147.745 137.993 147.812 137.95 147.887 137.922C147.962 137.891 148.042 137.875 148.128 137.875ZM150.005 139.594C149.864 139.594 149.735 139.557 149.618 139.484C149.501 139.412 149.408 139.311 149.34 139.183C149.271 139.053 149.237 138.904 149.237 138.736C149.237 138.568 149.271 138.421 149.34 138.293C149.41 138.162 149.506 138.061 149.628 137.988C149.749 137.913 149.885 137.875 150.035 137.875C150.201 137.875 150.329 137.914 150.419 137.991C150.512 138.069 150.576 138.172 150.611 138.302C150.649 138.433 150.667 138.577 150.667 138.736C150.667 138.824 150.656 138.918 150.634 139.018C150.612 139.117 150.577 139.211 150.528 139.299C150.48 139.387 150.412 139.459 150.326 139.514C150.24 139.567 150.133 139.594 150.005 139.594ZM150.095 139.319C150.212 139.319 150.31 139.293 150.389 139.243C150.471 139.19 150.532 139.119 150.571 139.031C150.611 138.943 150.631 138.844 150.631 138.736C150.631 138.619 150.61 138.517 150.568 138.428C150.528 138.34 150.468 138.272 150.386 138.223C150.306 138.174 150.209 138.15 150.095 138.15C149.922 138.15 149.789 138.205 149.694 138.316C149.601 138.426 149.555 138.566 149.555 138.736C149.555 138.851 149.578 138.952 149.624 139.041C149.671 139.127 149.734 139.195 149.813 139.246C149.895 139.295 149.989 139.319 150.095 139.319ZM150.631 137.909H150.949V139.561H150.657C150.657 139.561 150.655 139.541 150.651 139.501C150.646 139.459 150.642 139.409 150.638 139.352C150.633 139.295 150.631 139.244 150.631 139.2V137.909ZM151.529 137.909H151.847V139.561H151.529V137.909ZM152.406 138.19C152.291 138.19 152.193 138.216 152.112 138.269C152.032 138.322 151.968 138.387 151.919 138.465C151.873 138.542 151.842 138.616 151.827 138.687L151.823 138.498C151.826 138.476 151.831 138.442 151.84 138.395C151.851 138.347 151.87 138.293 151.896 138.233C151.923 138.173 151.958 138.117 152.002 138.064C152.046 138.009 152.102 137.964 152.168 137.928C152.234 137.893 152.313 137.875 152.406 137.875V138.19ZM153.524 139.302C153.387 139.302 153.261 139.275 153.146 139.22C153.032 139.164 152.94 139.084 152.872 138.978C152.805 138.872 152.772 138.744 152.772 138.594C152.772 138.446 152.805 138.319 152.872 138.213C152.938 138.105 153.027 138.022 153.14 137.965C153.254 137.905 153.382 137.875 153.524 137.875C153.566 137.875 153.605 137.879 153.643 137.885C153.68 137.89 153.717 137.897 153.752 137.909H154.474V138.206C154.375 138.206 154.274 138.19 154.173 138.157C154.073 138.124 153.986 138.088 153.911 138.051L153.901 138.034C153.976 138.074 154.041 138.123 154.096 138.18C154.152 138.235 154.194 138.298 154.222 138.369C154.253 138.437 154.269 138.514 154.269 138.6C154.269 138.746 154.236 138.872 154.169 138.978C154.105 139.084 154.016 139.164 153.901 139.22C153.789 139.275 153.663 139.302 153.524 139.302ZM154.03 140.229V140.153C154.03 140.041 153.999 139.96 153.938 139.911C153.876 139.863 153.785 139.839 153.666 139.839H153.279C153.197 139.839 153.128 139.832 153.07 139.819C153.013 139.806 152.965 139.786 152.928 139.759C152.89 139.735 152.863 139.704 152.845 139.666C152.827 139.631 152.819 139.591 152.819 139.547C152.819 139.461 152.845 139.396 152.898 139.352C152.951 139.308 153.018 139.28 153.1 139.269C153.182 139.256 153.264 139.255 153.348 139.266L153.524 139.302C153.398 139.309 153.302 139.321 153.236 139.339C153.169 139.356 153.136 139.394 153.136 139.451C153.136 139.484 153.15 139.511 153.176 139.531C153.203 139.551 153.24 139.561 153.289 139.561H153.693C153.818 139.561 153.93 139.576 154.027 139.607C154.126 139.64 154.204 139.694 154.259 139.769C154.316 139.846 154.345 139.951 154.345 140.084V140.229H154.03ZM153.524 139.034C153.603 139.034 153.675 139.018 153.739 138.984C153.805 138.949 153.858 138.9 153.898 138.836C153.938 138.769 153.957 138.69 153.957 138.597C153.957 138.502 153.938 138.422 153.898 138.355C153.86 138.287 153.808 138.236 153.742 138.203C153.676 138.168 153.603 138.15 153.524 138.15C153.444 138.15 153.37 138.168 153.302 138.203C153.236 138.236 153.183 138.286 153.143 138.352C153.103 138.418 153.083 138.5 153.083 138.597C153.083 138.69 153.103 138.769 153.143 138.836C153.183 138.9 153.236 138.949 153.302 138.984C153.368 139.018 153.442 139.034 153.524 139.034ZM155.322 137.226V137.568H154.928V137.226H155.322ZM154.968 137.909H155.282V139.561H154.968V137.909ZM155.895 137.909H156.213V139.561H155.895V137.909ZM156.842 137.875C156.935 137.875 157.019 137.889 157.094 137.915C157.169 137.942 157.233 137.981 157.286 138.034C157.339 138.085 157.38 138.149 157.408 138.226C157.439 138.301 157.455 138.387 157.455 138.485V139.561H157.14V138.554C157.14 138.424 157.108 138.327 157.044 138.263C156.982 138.197 156.888 138.163 156.76 138.163C156.66 138.163 156.57 138.187 156.488 138.233C156.406 138.279 156.339 138.341 156.286 138.418C156.235 138.493 156.204 138.578 156.193 138.673L156.19 138.491C156.201 138.403 156.224 138.321 156.26 138.246C156.297 138.171 156.344 138.106 156.399 138.051C156.456 137.993 156.522 137.95 156.597 137.922C156.672 137.891 156.754 137.875 156.842 137.875Z" fill="#B6B6B6"/>
<path d="M135.574 147.935H134.514V147.173H136.388V152.014H135.574V147.935ZM137.212 149.603C137.212 148.1 138.02 147.081 139.258 147.081C140.496 147.081 141.311 148.1 141.311 149.603C141.311 151.1 140.543 152.1 139.258 152.1C137.973 152.1 137.212 151.1 137.212 149.603ZM138.046 149.603C138.046 150.722 138.497 151.352 139.258 151.352C140.026 151.352 140.476 150.722 140.476 149.603C140.476 148.458 140.026 147.829 139.258 147.829C138.497 147.829 138.046 148.458 138.046 149.603ZM142.853 151.722C142.853 152.272 142.456 152.709 141.919 152.775V152.451C142.217 152.398 142.443 152.219 142.443 151.987C142.39 152.014 142.33 152.027 142.251 152.027C141.992 152.027 141.78 151.835 141.78 151.57C141.78 151.252 141.986 151.04 142.284 151.04C142.615 151.04 142.853 151.312 142.853 151.722ZM143.329 149.603C143.329 148.1 144.137 147.081 145.375 147.081C146.613 147.081 147.428 148.1 147.428 149.603C147.428 151.1 146.66 152.1 145.375 152.1C144.091 152.1 143.329 151.1 143.329 149.603ZM144.163 149.603C144.163 150.722 144.614 151.352 145.375 151.352C146.143 151.352 146.593 150.722 146.593 149.603C146.593 148.458 146.143 147.829 145.375 147.829C144.614 147.829 144.163 148.458 144.163 149.603ZM147.998 149.603C147.998 148.1 148.805 147.081 150.044 147.081C151.282 147.081 152.096 148.1 152.096 149.603C152.096 151.1 151.328 152.1 150.044 152.1C148.759 152.1 147.998 151.1 147.998 149.603ZM148.832 149.603C148.832 150.722 149.282 151.352 150.044 151.352C150.812 151.352 151.262 150.722 151.262 149.603C151.262 148.458 150.812 147.829 150.044 147.829C149.282 147.829 148.832 148.458 148.832 149.603ZM152.666 149.603C152.666 148.1 153.474 147.081 154.712 147.081C155.951 147.081 156.765 148.1 156.765 149.603C156.765 151.1 155.997 152.1 154.712 152.1C153.428 152.1 152.666 151.1 152.666 149.603ZM153.501 149.603C153.501 150.722 153.951 151.352 154.712 151.352C155.48 151.352 155.931 150.722 155.931 149.603C155.931 148.458 155.48 147.829 154.712 147.829C153.951 147.829 153.501 148.458 153.501 149.603Z" fill="#020518"/>
<path d="M128.492 148.431H129.009V146.914H129.527L130.411 148.431H131.596V146.914H132.113V148.431H132.631V148.937H132.113V149.443H132.631V149.949H132.113V151.466H131.596L130.709 149.949H129.527V151.466H129.009V149.949H128.492V149.443H129.009V148.937H128.492V148.431ZM129.527 148.431H129.819L129.527 147.933V148.431ZM129.527 148.937V149.443H130.411L130.117 148.937H129.527ZM131.596 150.455V149.949H131.299L131.596 150.455ZM130.706 148.937L131.004 149.443H131.596V148.937H130.706Z" fill="#020518"/>
<rect x="167.445" y="146.496" width="14.9241" height="4.98675" rx="1.24669" fill="#EDFEED"/>
<path d="M170.106 148.55H170.629V148.027H170.829V148.55H171.352V148.75H170.829V149.276H170.629V148.75H170.106V148.55ZM172.884 149.488L171.667 149.49V149.303L172.248 148.802C172.54 148.55 172.622 148.428 172.622 148.236C172.622 148.009 172.492 147.875 172.275 147.875C172.053 147.875 171.909 148.037 171.904 148.293H171.659C171.667 147.907 171.911 147.655 172.278 147.655C172.639 147.655 172.871 147.875 172.871 148.221C172.871 148.478 172.744 148.66 172.425 148.937L172.051 149.261H172.884V149.488ZM173.352 149.52C173.255 149.52 173.173 149.44 173.173 149.346C173.173 149.248 173.255 149.169 173.352 149.169C173.447 149.169 173.529 149.248 173.529 149.346C173.529 149.44 173.447 149.52 173.352 149.52ZM175.122 149.126H174.908V149.49H174.673V149.126H173.741V148.909L174.591 147.688H174.908V148.909H175.122V149.126ZM174.005 148.909H174.673V147.947L174.005 148.909ZM175.877 148.558H175.698V148.396L176.209 147.904H175.398V147.688H176.518V147.884L176.024 148.356C176.331 148.393 176.563 148.6 176.563 148.924C176.563 149.288 176.288 149.52 175.922 149.52C175.568 149.52 175.314 149.303 175.314 148.929H175.555C175.555 149.164 175.7 149.301 175.927 149.301C176.161 149.301 176.313 149.151 176.313 148.919C176.313 148.702 176.164 148.558 175.877 148.558ZM177.671 148.114C177.671 148.381 177.481 148.573 177.214 148.573C176.95 148.573 176.761 148.381 176.761 148.114C176.761 147.845 176.95 147.653 177.214 147.653C177.481 147.653 177.671 147.845 177.671 148.114ZM178.621 147.69L177.252 149.49H177.012L178.381 147.69H178.621ZM177.479 148.114C177.479 147.952 177.371 147.84 177.214 147.84C177.06 147.84 176.953 147.952 176.953 148.114C176.953 148.273 177.06 148.386 177.214 148.386C177.369 148.386 177.479 148.273 177.479 148.114ZM178.877 149.064C178.877 149.331 178.686 149.523 178.421 149.523C178.157 149.523 177.965 149.331 177.965 149.064C177.965 148.795 178.157 148.605 178.421 148.605C178.686 148.605 178.877 148.795 178.877 149.064ZM178.683 149.064C178.683 148.902 178.578 148.79 178.421 148.79C178.267 148.79 178.159 148.902 178.159 149.064C178.159 149.223 178.267 149.336 178.421 149.336C178.576 149.336 178.683 149.223 178.683 149.064Z" fill="#228B22"/>
<path d="M157.407 163.666C157.248 163.942 156.85 163.942 156.69 163.666L154.54 159.942C154.381 159.666 154.58 159.321 154.898 159.321H159.199C159.518 159.321 159.717 159.666 159.557 159.942L157.407 163.666Z" fill="white"/>
</g>
<path d="M2.50812 223.044C1.15306 223.044 0.294578 221.908 0.294578 219.93C0.294578 217.918 1.18673 216.841 2.51654 216.841C3.85476 216.841 4.69641 217.969 4.69641 219.938C4.69641 221.958 3.81268 223.044 2.50812 223.044ZM2.4997 222.303C3.32452 222.303 3.82951 221.605 3.82951 219.938C3.82951 218.272 3.32452 217.573 2.4997 217.573C1.67489 217.573 1.16989 218.263 1.16989 219.938C1.16989 221.605 1.67489 222.303 2.4997 222.303Z" fill="#B5BBC5"/>
<path d="M1.22413 195.441H0.229116V194.865H1.83947V199.598H1.22413V195.441ZM3.03257 197.234C3.03257 195.768 3.79192 194.773 4.98333 194.773C6.16818 194.773 6.92754 195.768 6.92754 197.234C6.92754 198.707 6.20091 199.683 4.98333 199.683C3.75919 199.683 3.03257 198.707 3.03257 197.234ZM3.66754 197.234C3.66754 198.4 4.15196 199.107 4.98333 199.107C5.81469 199.107 6.29256 198.4 6.29256 197.234C6.29256 196.056 5.81469 195.349 4.98333 195.349C4.15196 195.349 3.66754 196.056 3.66754 197.234ZM8.65153 199.598H8.03619V194.78H8.65153V197.902L10.0721 196.397H10.8445L9.62037 197.673L10.838 199.598H10.131L9.19487 198.118L8.65153 198.688V199.598Z" fill="#B5BBC5"/>
<path d="M3.49566 179.017L0.301124 179.023V178.532L1.82638 177.217C2.59228 176.556 2.80831 176.235 2.80831 175.731C2.80831 175.135 2.46791 174.782 1.89839 174.782C1.31578 174.782 0.936103 175.207 0.92301 175.881H0.281485C0.301124 174.867 0.942649 174.205 1.90494 174.205C2.85413 174.205 3.46293 174.782 3.46293 175.691C3.46293 176.366 3.12907 176.844 2.29116 177.57L1.30923 178.421H3.49566V179.017ZM4.4134 176.66C4.4134 175.194 5.17276 174.199 6.36416 174.199C7.54902 174.199 8.30837 175.194 8.30837 176.66C8.30837 178.133 7.58175 179.109 6.36416 179.109C5.14002 179.109 4.4134 178.133 4.4134 176.66ZM5.04838 176.66C5.04838 177.825 5.5328 178.532 6.36416 178.532C7.19552 178.532 7.67339 177.825 7.67339 176.66C7.67339 175.482 7.19552 174.775 6.36416 174.775C5.5328 174.775 5.04838 175.482 5.04838 176.66ZM10.0324 179.023H9.41703V174.205H10.0324V177.328L11.4529 175.822H12.2253L11.0012 177.099L12.2188 179.023H11.5118L10.5757 177.544L10.0324 178.114V179.023Z" fill="#B5BBC5"/>
<path d="M1.67582 155.067H1.2045V154.642L2.54646 153.352H0.418955V152.783H3.35819V153.3L2.06204 154.537C2.86722 154.635 3.47602 155.179 3.47602 156.03C3.47602 156.985 2.75594 157.594 1.79365 157.594C0.864095 157.594 0.196385 157.025 0.196385 156.043H0.831364C0.831364 156.658 1.21104 157.018 1.80674 157.018C2.42208 157.018 2.8214 156.625 2.8214 156.017C2.8214 155.447 2.42863 155.067 1.67582 155.067ZM4.36865 155.152C4.36865 153.686 5.12801 152.691 6.31941 152.691C7.50427 152.691 8.26362 153.686 8.26362 155.152C8.26362 156.625 7.537 157.601 6.31941 157.601C5.09528 157.601 4.36865 156.625 4.36865 155.152ZM5.00363 155.152C5.00363 156.318 5.48805 157.025 6.31941 157.025C7.15077 157.025 7.62864 156.318 7.62864 155.152C7.62864 153.974 7.15077 153.267 6.31941 153.267C5.48805 153.267 5.00363 153.974 5.00363 155.152ZM9.98762 157.516H9.37228V152.698H9.98762V155.82L11.4081 154.315H12.1806L10.9565 155.591L12.174 157.516H11.4671L10.531 156.036L9.98762 156.606V157.516Z" fill="#B5BBC5"/>
<path d="M3.84915 135.05H3.28618V136.006H2.67084V135.05H0.22257V134.481L2.45482 131.273H3.28618V134.481H3.84915V135.05ZM0.916464 134.481H2.67084V131.954L0.916464 134.481ZM4.80975 133.643C4.80975 132.176 5.56911 131.181 6.76051 131.181C7.94537 131.181 8.70472 132.176 8.70472 133.643C8.70472 135.116 7.9781 136.091 6.76051 136.091C5.53637 136.091 4.80975 135.116 4.80975 133.643ZM5.44473 133.643C5.44473 134.808 5.92915 135.515 6.76051 135.515C7.59187 135.515 8.06974 134.808 8.06974 133.643C8.06974 132.464 7.59187 131.757 6.76051 131.757C5.92915 131.757 5.44473 132.464 5.44473 133.643ZM10.4287 136.006H9.81338V131.188H10.4287V134.31L11.8492 132.805H12.6217L11.3976 134.081L12.6151 136.006H11.9082L10.9721 134.526L10.4287 135.096V136.006Z" fill="#B5BBC5"/>
<path d="M1.91148 113.641C0.942649 113.641 0.314216 113.026 0.314216 112.083H0.949195C0.949195 112.692 1.32233 113.065 1.92457 113.065C2.5661 113.065 2.97851 112.639 2.97851 111.998C2.97851 111.389 2.59228 110.937 1.93112 110.937C1.5318 110.937 1.16522 111.127 0.949195 111.396L0.405863 111.258L0.981926 108.83H3.35164V109.419H1.4467L1.13249 110.676C1.38124 110.486 1.69546 110.388 2.04895 110.388C3.01124 110.388 3.63313 111.062 3.63313 111.972C3.63313 112.954 2.93269 113.641 1.91148 113.641ZM4.51568 111.199C4.51568 109.733 5.27504 108.738 6.46644 108.738C7.6513 108.738 8.41066 109.733 8.41066 111.199C8.41066 112.672 7.68403 113.648 6.46644 113.648C5.24231 113.648 4.51568 112.672 4.51568 111.199ZM5.15066 111.199C5.15066 112.365 5.63508 113.072 6.46644 113.072C7.29781 113.072 7.77568 112.365 7.77568 111.199C7.77568 110.021 7.29781 109.314 6.46644 109.314C5.63508 109.314 5.15066 110.021 5.15066 111.199ZM10.1347 113.562H9.51931V108.745H10.1347V111.867L11.5552 110.361H12.3276L11.1035 111.638L12.3211 113.562H11.6141L10.678 112.083L10.1347 112.653V113.562Z" fill="#B5BBC5"/>
<path d="M0.92301 89.7545L2.02931 88.2554H2.77558L1.59072 89.8265C1.75437 89.761 1.92457 89.7283 2.08823 89.7283C3.07016 89.7283 3.73132 90.4353 3.73132 91.3714C3.73132 92.3598 2.98506 93.0668 2.00968 93.0668C1.02775 93.0668 0.268393 92.3271 0.268393 91.3714C0.268393 90.8084 0.438594 90.4156 0.92301 89.7545ZM0.92301 91.3779C0.92301 92.026 1.36815 92.4908 2.00968 92.4908C2.63811 92.4908 3.08325 92.026 3.08325 91.3779C3.08325 90.7299 2.63811 90.2716 2.00968 90.2716C1.36815 90.2716 0.92301 90.7299 0.92301 91.3779ZM4.64993 90.6251C4.64993 89.1588 5.40929 88.1638 6.60069 88.1638C7.78555 88.1638 8.5449 89.1588 8.5449 90.6251C8.5449 92.098 7.81828 93.0734 6.60069 93.0734C5.37656 93.0734 4.64993 92.098 4.64993 90.6251ZM5.28491 90.6251C5.28491 91.7903 5.76933 92.4973 6.60069 92.4973C7.43205 92.4973 7.90993 91.7903 7.90993 90.6251C7.90993 89.4468 7.43205 88.7398 6.60069 88.7398C5.76933 88.7398 5.28491 89.4468 5.28491 90.6251ZM10.2689 92.9883H9.65356V88.1703H10.2689V91.2928L11.6894 89.7872H12.4619L11.2377 91.0637L12.4553 92.9883H11.7483L10.8122 91.5088L10.2689 92.0784V92.9883Z" fill="#B5BBC5"/>
<path d="M0.0523694 66.7476H3.35819V67.3367L1.56454 71.4805H0.896826L2.71012 67.3367H0.0523694V66.7476ZM3.94673 69.1173C3.94673 67.651 4.70608 66.6559 5.89749 66.6559C7.08235 66.6559 7.8417 67.651 7.8417 69.1173C7.8417 70.5902 7.11508 71.5656 5.89749 71.5656C4.67335 71.5656 3.94673 70.5902 3.94673 69.1173ZM4.58171 69.1173C4.58171 70.2825 5.06612 70.9895 5.89749 70.9895C6.72885 70.9895 7.20672 70.2825 7.20672 69.1173C7.20672 67.939 6.72885 67.232 5.89749 67.232C5.06612 67.232 4.58171 67.939 4.58171 69.1173ZM9.5657 71.4805H8.95036V66.6625H9.5657V69.785L10.9862 68.2794H11.7587L10.5345 69.5559L11.7521 71.4805H11.0451L10.109 70.001L9.5657 70.5706V71.4805Z" fill="#B5BBC5"/>
<path d="M0.30767 48.6549C0.30767 48.0854 0.641525 47.6272 1.16522 47.4373C0.720079 47.2475 0.477871 46.8744 0.477871 46.3965C0.477871 45.6568 1.11285 45.1527 2.0555 45.1527C2.98506 45.1527 3.61349 45.6568 3.61349 46.403C3.61349 46.8875 3.36473 47.2606 2.91959 47.4373C3.44983 47.6075 3.79023 48.0789 3.79023 48.6615C3.79023 49.4928 3.09634 50.0493 2.04895 50.0493C0.995018 50.0493 0.30767 49.4928 0.30767 48.6549ZM1.06703 46.4358C1.06703 46.9005 1.45325 47.2017 2.04241 47.2017C2.63811 47.2017 3.01124 46.9071 3.01124 46.4489C3.01124 45.9972 2.63811 45.7091 2.04241 45.7091C1.45325 45.7091 1.06703 45.9972 1.06703 46.4358ZM0.936103 48.6091C0.936103 49.1393 1.3747 49.4797 2.04895 49.4797C2.71666 49.4797 3.15526 49.1393 3.15526 48.6091C3.15526 48.0854 2.72321 47.7516 2.04241 47.7516C1.36815 47.7516 0.936103 48.0854 0.936103 48.6091ZM4.73943 47.6075C4.73943 46.1412 5.49879 45.1462 6.69019 45.1462C7.87505 45.1462 8.6344 46.1412 8.6344 47.6075C8.6344 49.0804 7.90778 50.0558 6.69019 50.0558C5.46605 50.0558 4.73943 49.0804 4.73943 47.6075ZM5.37441 47.6075C5.37441 48.7728 5.85883 49.4797 6.69019 49.4797C7.52155 49.4797 7.99942 48.7728 7.99942 47.6075C7.99942 46.4292 7.52155 45.7222 6.69019 45.7222C5.85883 45.7222 5.37441 46.4292 5.37441 47.6075ZM10.3584 49.9707H9.74306V45.1527H10.3584V48.2752L11.7789 46.7696H12.5514L11.3272 48.0461L12.5448 49.9707H11.8378L10.9017 48.4913L10.3584 49.0608V49.9707Z" fill="#B5BBC5"/>
<path d="M304.757 11.6112C304.717 11.9298 304.608 12.2025 304.429 12.4295C304.255 12.6564 304.026 12.831 303.742 12.9532C303.458 13.0754 303.135 13.1365 302.773 13.1365C302.446 13.1365 302.145 13.0863 301.87 12.9859C301.599 12.8855 301.364 12.7415 301.163 12.5539C300.962 12.3662 300.805 12.1371 300.692 11.8665C300.578 11.5916 300.521 11.2839 300.521 10.9435C300.521 10.5987 300.578 10.2911 300.692 10.0205C300.805 9.74991 300.962 9.52079 301.163 9.33313C301.364 9.14111 301.599 8.99492 301.87 8.89454C302.145 8.79417 302.446 8.74398 302.773 8.74398C303.14 8.74398 303.465 8.80726 303.749 8.93382C304.032 9.05601 304.261 9.23276 304.436 9.46406C304.615 9.69099 304.724 9.96375 304.763 10.2823H304.161C304.104 10.0772 304.01 9.90265 303.88 9.75864C303.749 9.61462 303.589 9.50552 303.402 9.43133C303.214 9.35277 303.005 9.3135 302.773 9.3135C302.476 9.3135 302.206 9.37678 301.962 9.50333C301.717 9.62989 301.521 9.81319 301.372 10.0532C301.228 10.2932 301.156 10.59 301.156 10.9435C301.156 11.2926 301.228 11.5894 301.372 11.8338C301.521 12.0738 301.717 12.2571 301.962 12.3837C302.206 12.5058 302.476 12.5669 302.773 12.5669C303.005 12.5669 303.212 12.5298 303.395 12.4557C303.583 12.3815 303.742 12.2724 303.873 12.1284C304.004 11.9843 304.1 11.812 304.161 11.6112H304.757ZM306.858 13.1299C306.579 13.1299 306.323 13.0579 306.092 12.9139C305.861 12.7699 305.678 12.5713 305.542 12.3182C305.407 12.0607 305.339 11.7661 305.339 11.4345C305.339 11.1028 305.407 10.8104 305.542 10.5573C305.682 10.2998 305.872 10.099 306.112 9.95502C306.352 9.80664 306.62 9.73245 306.917 9.73245C307.244 9.73245 307.497 9.80882 307.676 9.96157C307.86 10.1143 307.986 10.3194 308.056 10.5769C308.13 10.8344 308.167 11.1202 308.167 11.4345C308.167 11.609 308.145 11.7945 308.102 11.9909C308.058 12.1873 307.988 12.3727 307.892 12.5473C307.796 12.7219 307.663 12.8637 307.493 12.9728C307.323 13.0775 307.111 13.1299 306.858 13.1299ZM307.035 12.5866C307.266 12.5866 307.46 12.5364 307.617 12.436C307.779 12.3313 307.899 12.1916 307.977 12.0171C308.056 11.8425 308.095 11.6483 308.095 11.4345C308.095 11.2032 308.054 11.0002 307.971 10.8257C307.892 10.6511 307.772 10.5158 307.611 10.4198C307.454 10.3238 307.262 10.2758 307.035 10.2758C306.694 10.2758 306.43 10.3849 306.243 10.6031C306.059 10.8213 305.968 11.0984 305.968 11.4345C305.968 11.6614 306.014 11.8621 306.105 12.0367C306.197 12.2069 306.321 12.3422 306.478 12.4426C306.64 12.5386 306.825 12.5866 307.035 12.5866ZM308.095 9.79791H308.724V13.0645H308.148C308.148 13.0645 308.143 13.0252 308.135 12.9466C308.126 12.8637 308.117 12.7655 308.108 12.652C308.1 12.5386 308.095 12.4382 308.095 12.3509V9.79791ZM309.399 12.004H309.975C309.997 12.1785 310.076 12.3226 310.211 12.436C310.346 12.5451 310.536 12.5997 310.781 12.5997C310.938 12.5997 311.06 12.5822 311.147 12.5473C311.234 12.508 311.296 12.4557 311.33 12.3902C311.37 12.3247 311.389 12.2527 311.389 12.1742C311.389 12.0738 311.363 11.9974 311.311 11.9451C311.258 11.8883 311.184 11.8425 311.088 11.8076C310.992 11.7683 310.879 11.7312 310.748 11.6963C310.604 11.657 310.46 11.6112 310.316 11.5588C310.172 11.5065 310.039 11.4432 309.916 11.369C309.799 11.2948 309.703 11.2032 309.628 11.0941C309.559 10.9806 309.524 10.8431 309.524 10.6816C309.524 10.5464 309.552 10.4198 309.609 10.302C309.67 10.1841 309.755 10.0838 309.864 10.0008C309.978 9.91356 310.109 9.8481 310.257 9.80446C310.405 9.75645 310.569 9.73245 310.748 9.73245C310.997 9.73245 311.206 9.77827 311.376 9.86992C311.546 9.9572 311.675 10.0816 311.763 10.2431C311.854 10.4045 311.902 10.59 311.907 10.7995H311.357C311.326 10.6162 311.263 10.4831 311.167 10.4002C311.071 10.3129 310.927 10.2692 310.735 10.2692C310.547 10.2692 310.403 10.3063 310.303 10.3805C310.202 10.4547 310.152 10.5551 310.152 10.6816C310.152 10.7777 310.187 10.8562 310.257 10.9173C310.327 10.974 310.421 11.0242 310.538 11.0679C310.656 11.1115 310.789 11.1573 310.938 11.2053C311.077 11.2533 311.21 11.3035 311.337 11.3559C311.468 11.4039 311.584 11.4628 311.684 11.5326C311.789 11.5981 311.869 11.6854 311.926 11.7945C311.987 11.8992 312.018 12.0302 312.018 12.1873C312.018 12.3793 311.97 12.5473 311.874 12.6913C311.778 12.831 311.638 12.9401 311.455 13.0186C311.276 13.0972 311.058 13.1365 310.8 13.1365C310.565 13.1365 310.364 13.1081 310.198 13.0514C310.037 12.9946 309.899 12.9204 309.786 12.8288C309.676 12.7371 309.591 12.6411 309.53 12.5408C309.474 12.436 309.434 12.3356 309.412 12.2396C309.395 12.1436 309.391 12.0651 309.399 12.004ZM315.209 13.0645V11.0941C315.209 10.9195 315.181 10.7755 315.124 10.662C315.067 10.5485 314.982 10.4634 314.869 10.4067C314.755 10.3456 314.611 10.3151 314.437 10.3151C314.245 10.3151 314.068 10.3609 313.906 10.4525C313.749 10.5398 313.621 10.6598 313.52 10.8126C313.42 10.9609 313.359 11.129 313.337 11.3166L313.33 10.9435C313.352 10.7733 313.398 10.614 313.468 10.4656C313.542 10.3172 313.634 10.1885 313.743 10.0794C313.856 9.9703 313.987 9.88519 314.136 9.8241C314.284 9.763 314.445 9.73245 314.62 9.73245C314.803 9.73245 314.969 9.75864 315.118 9.81101C315.266 9.85901 315.392 9.93538 315.497 10.0401C315.606 10.1405 315.689 10.2649 315.746 10.4133C315.803 10.5573 315.831 10.7231 315.831 10.9108V13.0645H315.209ZM312.754 13.0645V8.48868H313.376V13.0645H312.754ZM318.635 13.1299C318.378 13.1299 318.164 13.0775 317.994 12.9728C317.828 12.8637 317.695 12.7219 317.595 12.5473C317.499 12.3727 317.429 12.1873 317.385 11.9909C317.341 11.7945 317.32 11.609 317.32 11.4345C317.32 11.1988 317.339 10.9784 317.379 10.7733C317.422 10.5682 317.492 10.3871 317.588 10.23C317.684 10.0729 317.817 9.95066 317.987 9.86337C318.158 9.77609 318.374 9.73245 318.635 9.73245C318.928 9.73245 319.187 9.80664 319.414 9.95502C319.646 10.099 319.827 10.2998 319.958 10.5573C320.089 10.8104 320.154 11.1028 320.154 11.4345C320.154 11.7661 320.087 12.0607 319.951 12.3182C319.816 12.5713 319.633 12.7699 319.401 12.9139C319.174 13.0579 318.919 13.1299 318.635 13.1299ZM318.459 12.5866C318.668 12.5866 318.851 12.5386 319.009 12.4426C319.17 12.3422 319.294 12.2069 319.382 12.0367C319.473 11.8621 319.519 11.6614 319.519 11.4345C319.519 11.0984 319.425 10.8213 319.238 10.6031C319.054 10.3849 318.795 10.2758 318.459 10.2758C318.232 10.2758 318.038 10.3238 317.876 10.4198C317.719 10.5158 317.599 10.6511 317.516 10.8257C317.433 11.0002 317.392 11.2032 317.392 11.4345C317.392 11.6483 317.431 11.8425 317.509 12.0171C317.592 12.1916 317.712 12.3313 317.87 12.436C318.031 12.5364 318.227 12.5866 318.459 12.5866ZM317.392 8.48868V12.3509C317.392 12.4513 317.385 12.5713 317.372 12.711C317.363 12.8506 317.355 12.9684 317.346 13.0645H316.77V8.48868H317.392ZM322.15 13.1299C321.87 13.1299 321.615 13.0579 321.384 12.9139C321.152 12.7699 320.969 12.5713 320.834 12.3182C320.698 12.0607 320.631 11.7661 320.631 11.4345C320.631 11.1028 320.698 10.8104 320.834 10.5573C320.973 10.2998 321.163 10.099 321.403 9.95502C321.643 9.80664 321.912 9.73245 322.208 9.73245C322.536 9.73245 322.789 9.80882 322.968 9.96157C323.151 10.1143 323.278 10.3194 323.347 10.5769C323.422 10.8344 323.459 11.1202 323.459 11.4345C323.459 11.609 323.437 11.7945 323.393 11.9909C323.35 12.1873 323.28 12.3727 323.184 12.5473C323.088 12.7219 322.955 12.8637 322.784 12.9728C322.614 13.0775 322.403 13.1299 322.15 13.1299ZM322.326 12.5866C322.558 12.5866 322.752 12.5364 322.909 12.436C323.07 12.3313 323.19 12.1916 323.269 12.0171C323.347 11.8425 323.387 11.6483 323.387 11.4345C323.387 11.2032 323.345 11.0002 323.262 10.8257C323.184 10.6511 323.064 10.5158 322.902 10.4198C322.745 10.3238 322.553 10.2758 322.326 10.2758C321.986 10.2758 321.722 10.3849 321.534 10.6031C321.351 10.8213 321.259 11.0984 321.259 11.4345C321.259 11.6614 321.305 11.8621 321.397 12.0367C321.488 12.2069 321.613 12.3422 321.77 12.4426C321.931 12.5386 322.117 12.5866 322.326 12.5866ZM323.387 9.79791H324.015V13.0645H323.439C323.439 13.0645 323.435 13.0252 323.426 12.9466C323.417 12.8637 323.409 12.7655 323.4 12.652C323.391 12.5386 323.387 12.4382 323.387 12.3509V9.79791ZM328.036 11.8207C328.01 12.0913 327.922 12.3269 327.774 12.5277C327.63 12.7241 327.44 12.8746 327.205 12.9794C326.969 13.0841 326.707 13.1365 326.419 13.1365C326.1 13.1365 325.808 13.071 325.542 12.9401C325.276 12.8048 325.062 12.6106 324.9 12.3575C324.743 12.1 324.665 11.7945 324.665 11.441C324.665 11.0831 324.743 10.7777 324.9 10.5245C325.062 10.2671 325.276 10.0707 325.542 9.93538C325.808 9.80009 326.1 9.73245 326.419 9.73245C326.707 9.73245 326.967 9.78482 327.198 9.88956C327.429 9.9943 327.619 10.1449 327.767 10.3412C327.916 10.5333 328.005 10.7646 328.036 11.0351H327.466C327.392 10.7995 327.259 10.614 327.067 10.4787C326.879 10.3391 326.663 10.2692 326.419 10.2692C326.218 10.2692 326.031 10.3151 325.856 10.4067C325.686 10.4984 325.548 10.6315 325.444 10.806C325.343 10.9762 325.293 11.1879 325.293 11.441C325.293 11.6854 325.343 11.8949 325.444 12.0694C325.548 12.2396 325.686 12.3706 325.856 12.4622C326.026 12.5495 326.214 12.5931 326.419 12.5931C326.698 12.5931 326.925 12.5255 327.1 12.3902C327.274 12.2549 327.399 12.0651 327.473 11.8207H328.036ZM328.768 8.48868H329.39V13.0645H328.768V8.48868ZM331.747 9.79791L330.019 11.441L330.032 11.0482L331.871 13.0645H331.079L329.403 11.2381L330.876 9.79791H331.747Z" fill="#041004"/>
<circle cx="291.774" cy="10.8055" r="2.8055" fill="#328A28"/>
<path d="M376.947 13.0645V8.81599H379.133C379.439 8.81599 379.701 8.86181 379.919 8.95346C380.141 9.04074 380.312 9.17603 380.429 9.35932C380.547 9.53825 380.606 9.76736 380.606 10.0467C380.606 10.2387 380.573 10.4023 380.508 10.5376C380.447 10.6686 380.362 10.7777 380.253 10.8649C380.144 10.9522 380.015 11.0199 379.866 11.0679C379.718 11.1159 379.559 11.1464 379.389 11.1595L379.343 11.1202C379.6 11.129 379.816 11.1573 379.991 11.2053C380.165 11.2533 380.298 11.3406 380.39 11.4672C380.486 11.5894 380.534 11.7727 380.534 12.0171V13.0645H379.899V12.0367C379.899 11.8665 379.871 11.7334 379.814 11.6374C379.757 11.5414 379.659 11.4737 379.519 11.4345C379.38 11.3952 379.183 11.3755 378.93 11.3755H377.575V13.0645H376.947ZM377.575 10.8257H379.133C379.413 10.8257 379.622 10.7558 379.762 10.6162C379.906 10.4765 379.978 10.2932 379.978 10.0663C379.978 9.8481 379.906 9.68008 379.762 9.56225C379.622 9.44442 379.413 9.3855 379.133 9.3855H377.575V10.8257ZM383.933 12.004H384.529C384.494 12.2178 384.411 12.4098 384.28 12.58C384.149 12.7502 383.977 12.8855 383.763 12.9859C383.549 13.0863 383.298 13.1365 383.01 13.1365C382.67 13.1365 382.366 13.0645 382.1 12.9204C381.834 12.7764 381.625 12.5779 381.472 12.3247C381.319 12.0716 381.243 11.777 381.243 11.441C381.243 11.1006 381.317 10.8038 381.465 10.5507C381.614 10.2932 381.819 10.0925 382.081 9.94847C382.342 9.80446 382.641 9.73245 382.977 9.73245C383.331 9.73245 383.628 9.80228 383.868 9.94193C384.108 10.0816 384.284 10.2889 384.398 10.5638C384.516 10.8344 384.564 11.1726 384.542 11.5785H381.865C381.886 11.7749 381.945 11.9494 382.041 12.1022C382.142 12.2549 382.273 12.3749 382.434 12.4622C382.6 12.5495 382.79 12.5931 383.004 12.5931C383.244 12.5931 383.444 12.5386 383.606 12.4295C383.767 12.3204 383.876 12.1785 383.933 12.004ZM382.984 10.2692C382.7 10.2692 382.465 10.3456 382.277 10.4984C382.089 10.6467 381.965 10.8453 381.904 11.0941H383.914C383.896 10.8278 383.8 10.6249 383.626 10.4853C383.451 10.3412 383.237 10.2692 382.984 10.2692ZM384.917 9.81755H387.058V10.3543H384.917V9.81755ZM386.704 8.48868H387.123V9.06474H386.77C386.656 9.06038 386.554 9.07565 386.462 9.11056C386.37 9.14111 386.298 9.19785 386.246 9.28077C386.198 9.36368 386.174 9.4837 386.174 9.6408V13.0645H385.552V9.60807C385.552 9.34623 385.598 9.13239 385.69 8.96655C385.786 8.80071 385.921 8.6807 386.095 8.60651C386.27 8.52795 386.473 8.48868 386.704 8.48868ZM390.077 12.004H390.672C390.637 12.2178 390.554 12.4098 390.424 12.58C390.293 12.7502 390.12 12.8855 389.906 12.9859C389.693 13.0863 389.442 13.1365 389.154 13.1365C388.813 13.1365 388.51 13.0645 388.244 12.9204C387.977 12.7764 387.768 12.5779 387.615 12.3247C387.463 12.0716 387.386 11.777 387.386 11.441C387.386 11.1006 387.46 10.8038 387.609 10.5507C387.757 10.2932 387.962 10.0925 388.224 9.94847C388.486 9.80446 388.785 9.73245 389.121 9.73245C389.474 9.73245 389.771 9.80228 390.011 9.94193C390.251 10.0816 390.428 10.2889 390.541 10.5638C390.659 10.8344 390.707 11.1726 390.685 11.5785H388.008C388.03 11.7749 388.089 11.9494 388.185 12.1022C388.285 12.2549 388.416 12.3749 388.578 12.4622C388.743 12.5495 388.933 12.5931 389.147 12.5931C389.387 12.5931 389.588 12.5386 389.749 12.4295C389.911 12.3204 390.02 12.1785 390.077 12.004ZM389.127 10.2692C388.844 10.2692 388.608 10.3456 388.42 10.4984C388.233 10.6467 388.108 10.8453 388.047 11.0941H390.057C390.04 10.8278 389.944 10.6249 389.769 10.4853C389.594 10.3412 389.381 10.2692 389.127 10.2692ZM391.347 9.79791H391.976V13.0645H391.347V9.79791ZM393.082 10.3543C392.855 10.3543 392.661 10.4067 392.499 10.5114C392.342 10.6162 392.216 10.7449 392.12 10.8977C392.028 11.0504 391.967 11.1966 391.936 11.3363L391.93 10.9631C391.934 10.9195 391.945 10.8518 391.963 10.7602C391.984 10.6642 392.021 10.5573 392.074 10.4394C392.126 10.3216 392.196 10.2103 392.283 10.1056C392.371 9.99648 392.48 9.90702 392.611 9.83719C392.742 9.76736 392.899 9.73245 393.082 9.73245V10.3543ZM393.649 9.79791H394.277V13.0645H393.649V9.79791ZM395.383 10.3543C395.156 10.3543 394.962 10.4067 394.801 10.5114C394.644 10.6162 394.517 10.7449 394.421 10.8977C394.329 11.0504 394.268 11.1966 394.238 11.3363L394.231 10.9631C394.236 10.9195 394.247 10.8518 394.264 10.7602C394.286 10.6642 394.323 10.5573 394.375 10.4394C394.428 10.3216 394.497 10.2103 394.585 10.1056C394.672 9.99648 394.781 9.90702 394.912 9.83719C395.043 9.76736 395.2 9.73245 395.383 9.73245V10.3543ZM397.299 13.1299C397.019 13.1299 396.764 13.0579 396.533 12.9139C396.301 12.7699 396.118 12.5713 395.983 12.3182C395.847 12.0607 395.78 11.7661 395.78 11.4345C395.78 11.1028 395.847 10.8104 395.983 10.5573C396.122 10.2998 396.312 10.099 396.552 9.95502C396.792 9.80664 397.061 9.73245 397.357 9.73245C397.685 9.73245 397.938 9.80882 398.117 9.96157C398.3 10.1143 398.427 10.3194 398.496 10.5769C398.571 10.8344 398.608 11.1202 398.608 11.4345C398.608 11.609 398.586 11.7945 398.542 11.9909C398.499 12.1873 398.429 12.3727 398.333 12.5473C398.237 12.7219 398.104 12.8637 397.934 12.9728C397.763 13.0775 397.552 13.1299 397.299 13.1299ZM397.475 12.5866C397.707 12.5866 397.901 12.5364 398.058 12.436C398.219 12.3313 398.339 12.1916 398.418 12.0171C398.496 11.8425 398.536 11.6483 398.536 11.4345C398.536 11.2032 398.494 11.0002 398.411 10.8257C398.333 10.6511 398.213 10.5158 398.051 10.4198C397.894 10.3238 397.702 10.2758 397.475 10.2758C397.135 10.2758 396.871 10.3849 396.683 10.6031C396.5 10.8213 396.408 11.0984 396.408 11.4345C396.408 11.6614 396.454 11.8621 396.546 12.0367C396.637 12.2069 396.762 12.3422 396.919 12.4426C397.08 12.5386 397.266 12.5866 397.475 12.5866ZM398.536 9.79791H399.164V13.0645H398.588C398.588 13.0645 398.584 13.0252 398.575 12.9466C398.566 12.8637 398.558 12.7655 398.549 12.652C398.54 12.5386 398.536 12.4382 398.536 12.3509V9.79791ZM400.049 8.48868H400.678V13.0645H400.049V8.48868Z" fill="#041004"/>
<circle cx="368.016" cy="10.8055" r="2.8055" fill="#F2994A"/>
<defs>
<filter id="filter0_d_16531_183392" x="83.2261" y="98.1457" width="146.821" height="108.745" filterUnits="userSpaceOnUse" color-interpolation-filters="sRGB">
<feFlood flood-opacity="0" result="BackgroundImageFix"/>
<feColorMatrix in="SourceAlpha" type="matrix" values="0 0 0 0 0 0 0 0 0 0 0 0 0 0 0 0 0 0 127 0" result="hardAlpha"/>
<feOffset dy="5.61101"/>
<feGaussianBlur stdDeviation="18.7034"/>
<feComposite in2="hardAlpha" operator="out"/>
<feColorMatrix type="matrix" values="0 0 0 0 0.2375 0 0 0 0 0.2375 0 0 0 0 0.2375 0 0 0 0.12 0"/>
<feBlend mode="normal" in2="BackgroundImageFix" result="effect1_dropShadow_16531_183392"/>
<feBlend mode="normal" in="SourceGraphic" in2="effect1_dropShadow_16531_183392" result="shape"/>
</filter>
</defs>
</svg>
