<svg width="48" height="49" viewBox="0 0 48 49" fill="none" xmlns="http://www.w3.org/2000/svg">
<circle cx="24" cy="24.5" r="24" fill="#FAFAFA"/>
<path d="M19.5 28.25V14.75L21 15.5L22.5 14.75L23.9972 15.5L25.5145 14.75L27 15.5L28.4902 14.75L29.9869 15.5L31.5 14.75L33.0005 15.5L34.5 14.75V25.25" stroke="#FF823B" stroke-width="1.5" stroke-linejoin="round"/>
<path d="M34.5 25.25V30.5C34.5 31.4946 34.1049 32.4484 33.4017 33.1517C32.6984 33.8549 31.7446 34.25 30.75 34.25M30.75 34.25C29.7555 34.25 28.8016 33.8549 28.0984 33.1517C27.3951 32.4484 27 31.4946 27 30.5V28.25H14.25C14.1513 28.2491 14.0534 28.2679 13.962 28.3053C13.8706 28.3427 13.7876 28.3979 13.7177 28.4677C13.6479 28.5375 13.5927 28.6206 13.5553 28.712C13.518 28.8033 13.4992 28.9013 13.5 29C13.5 32 13.816 34.25 17.25 34.25H30.75Z" stroke="#FF823B" stroke-width="1.5" stroke-linejoin="round"/>
<path d="M22.5 19.25H31.5M25.5 23H31.5" stroke="#FF823B" stroke-width="1.5" stroke-linecap="round" stroke-linejoin="round"/>
</svg>
