<svg width="434" height="18" viewBox="0 0 434 18" fill="none" xmlns="http://www.w3.org/2000/svg">
<path d="M0.238 4.414H8.204V5.618H0.238V4.414ZM3.542 5.478H4.9V13.5H3.542V5.478ZM10.9275 3.63V5.072H9.26155V3.63H10.9275ZM9.42955 6.514H10.7595V13.5H9.42955V6.514ZM18.0435 11.232H19.3175C19.2428 11.6893 19.0655 12.1 18.7855 12.464C18.5055 12.828 18.1368 13.1173 17.6795 13.332C17.2222 13.5467 16.6855 13.654 16.0695 13.654C15.3415 13.654 14.6928 13.5 14.1235 13.192C13.5542 12.884 13.1062 12.4593 12.7795 11.918C12.4528 11.3767 12.2895 10.7467 12.2895 10.028C12.2895 9.3 12.4482 8.66533 12.7655 8.124C13.0828 7.57333 13.5215 7.144 14.0815 6.836C14.6415 6.528 15.2808 6.374 15.9995 6.374C16.7555 6.374 17.3902 6.52333 17.9035 6.822C18.4168 7.12067 18.7948 7.564 19.0375 8.152C19.2895 8.73067 19.3922 9.454 19.3455 10.322H13.6195C13.6662 10.742 13.7922 11.1153 13.9975 11.442C14.2122 11.7687 14.4922 12.0253 14.8375 12.212C15.1922 12.3987 15.5982 12.492 16.0555 12.492C16.5688 12.492 16.9982 12.3753 17.3435 12.142C17.6888 11.9087 17.9222 11.6053 18.0435 11.232ZM16.0135 7.522C15.4068 7.522 14.9028 7.68533 14.5015 8.012C14.1002 8.32933 13.8342 8.754 13.7035 9.286H18.0015C17.9642 8.71667 17.7588 8.28267 17.3855 7.984C17.0122 7.676 16.5548 7.522 16.0135 7.522ZM20.7609 6.514H22.1049V13.5H20.7609V6.514ZM24.4709 7.704C23.9856 7.704 23.5702 7.816 23.2249 8.04C22.8889 8.264 22.6182 8.53933 22.4129 8.866C22.2169 9.19267 22.0862 9.50533 22.0209 9.804L22.0069 9.006C22.0162 8.91267 22.0396 8.768 22.0769 8.572C22.1236 8.36667 22.2029 8.138 22.3149 7.886C22.4269 7.634 22.5762 7.396 22.7629 7.172C22.9496 6.93867 23.1829 6.74733 23.4629 6.598C23.7429 6.44867 24.0789 6.374 24.4709 6.374V7.704ZM32.035 11.386L30.033 12.66L29.949 12.338H34.401V13.5H28.521V12.338C29.2023 11.9087 29.809 11.5447 30.341 11.246C30.873 10.938 31.321 10.6627 31.685 10.42C32.0583 10.1773 32.343 9.93 32.539 9.678C32.735 9.426 32.833 9.13667 32.833 8.81C32.833 8.56733 32.777 8.35267 32.665 8.166C32.553 7.97 32.3803 7.82067 32.147 7.718C31.9136 7.606 31.615 7.55 31.251 7.55C30.7843 7.55 30.3923 7.676 30.075 7.928C29.7576 8.17067 29.5943 8.49733 29.585 8.908H28.367C28.3296 8.42267 28.4323 7.98867 28.675 7.606C28.9176 7.22333 29.263 6.92 29.711 6.696C30.159 6.472 30.6676 6.36 31.237 6.36C31.6943 6.36 32.105 6.42067 32.469 6.542C32.833 6.66333 33.141 6.83133 33.393 7.046C33.6543 7.25133 33.8503 7.49867 33.981 7.788C34.121 8.068 34.191 8.37133 34.191 8.698C34.191 8.978 34.1443 9.23467 34.051 9.468C33.9576 9.70133 33.8176 9.92533 33.631 10.14C33.4536 10.3453 33.2296 10.5507 32.959 10.756C32.6976 10.9613 32.3896 11.1713 32.035 11.386Z" fill="#FACC15"/>
<path d="M41.6053 6.5H39L40.7368 9.68182L39 13.5H41.6053L43.0526 9.68182L41.6053 6.5Z" fill="#FACC15"/>
<path d="M45.656 6.5H43.0508L44.7876 9.68182L43.0508 13.5H45.656L47.1034 9.68182L45.656 6.5Z" fill="#FACC15"/>
<path d="M57.5736 12.424H57.1896L60.7416 5.2H61.7016V13H60.7416V6.868L60.9336 6.916L57.8616 13H56.9016L53.8296 6.928L54.0216 6.88V13H53.0616V5.2H54.0216L57.5736 12.424ZM65.7082 13.12C65.2362 13.12 64.8002 12.988 64.4002 12.724C64.0082 12.452 63.6922 12.084 63.4522 11.62C63.2202 11.148 63.1042 10.612 63.1042 10.012C63.1042 9.412 63.2242 8.876 63.4642 8.404C63.7042 7.932 64.0282 7.56 64.4362 7.288C64.8522 7.016 65.3162 6.88 65.8282 6.88C66.3882 6.88 66.8122 7.024 67.1002 7.312C67.3962 7.592 67.5962 7.968 67.7002 8.44C67.8122 8.912 67.8682 9.436 67.8682 10.012C67.8682 10.316 67.8362 10.648 67.7722 11.008C67.7082 11.36 67.5962 11.7 67.4362 12.028C67.2842 12.348 67.0682 12.612 66.7882 12.82C66.5082 13.02 66.1482 13.12 65.7082 13.12ZM65.9482 12.208C66.3562 12.208 66.6922 12.108 66.9562 11.908C67.2282 11.708 67.4282 11.444 67.5562 11.116C67.6842 10.78 67.7482 10.412 67.7482 10.012C67.7482 9.572 67.6802 9.188 67.5442 8.86C67.4162 8.524 67.2162 8.264 66.9442 8.08C66.6802 7.888 66.3482 7.792 65.9482 7.792C65.3482 7.792 64.8842 8.004 64.5562 8.428C64.2282 8.844 64.0642 9.372 64.0642 10.012C64.0642 10.436 64.1442 10.816 64.3042 11.152C64.4722 11.48 64.6962 11.74 64.9762 11.932C65.2642 12.116 65.5882 12.208 65.9482 12.208ZM67.7482 7H68.7082V13H67.8322C67.8322 13 67.8242 12.928 67.8082 12.784C67.8002 12.64 67.7882 12.472 67.7722 12.28C67.7562 12.088 67.7482 11.928 67.7482 11.8V7ZM75.1922 7L72.8642 10.264L70.9562 13H69.7922L72.2762 9.556L74.0282 7H75.1922ZM69.7922 7H70.9922L72.8522 9.58L75.3122 13H74.1482L72.2042 10.264L69.7922 7ZM77.5774 4.6V5.764H76.3294V4.6H77.5774ZM76.4734 7H77.4334V13H76.4734V7ZM79.073 7H80.033V13H79.073V7ZM82.097 6.88C82.417 6.88 82.705 6.928 82.961 7.024C83.217 7.12 83.433 7.26 83.609 7.444C83.785 7.628 83.921 7.852 84.017 8.116C84.113 8.372 84.161 8.664 84.161 8.992V13H83.201V9.232C83.201 8.768 83.093 8.42 82.877 8.188C82.661 7.956 82.337 7.84 81.905 7.84C81.577 7.84 81.273 7.924 80.993 8.092C80.713 8.26 80.481 8.492 80.297 8.788C80.121 9.076 80.013 9.412 79.973 9.796L79.961 9.1C80.001 8.764 80.081 8.46 80.201 8.188C80.329 7.916 80.485 7.684 80.669 7.492C80.861 7.292 81.077 7.14 81.317 7.036C81.565 6.932 81.825 6.88 82.097 6.88ZM86.129 6.88C86.449 6.88 86.737 6.928 86.993 7.024C87.249 7.12 87.465 7.26 87.641 7.444C87.817 7.628 87.953 7.852 88.049 8.116C88.145 8.372 88.193 8.664 88.193 8.992V13H87.233V9.232C87.233 8.768 87.125 8.42 86.909 8.188C86.693 7.956 86.369 7.84 85.937 7.84C85.609 7.84 85.305 7.924 85.025 8.092C84.745 8.26 84.513 8.492 84.329 8.788C84.153 9.076 84.045 9.412 84.005 9.796L83.993 9.1C84.033 8.764 84.113 8.46 84.233 8.188C84.361 7.916 84.517 7.684 84.701 7.492C84.893 7.292 85.109 7.14 85.349 7.036C85.597 6.932 85.857 6.88 86.129 6.88ZM94.8368 13H93.8768V7H94.8368V13ZM93.9368 10.204L93.9488 10.54C93.9408 10.636 93.9168 10.784 93.8768 10.984C93.8448 11.184 93.7848 11.408 93.6968 11.656C93.6168 11.896 93.4968 12.128 93.3368 12.352C93.1848 12.576 92.9848 12.76 92.7368 12.904C92.4968 13.048 92.1968 13.12 91.8368 13.12C91.6048 13.12 91.3648 13.084 91.1168 13.012C90.8768 12.948 90.6528 12.84 90.4448 12.688C90.2368 12.528 90.0688 12.308 89.9408 12.028C89.8128 11.748 89.7488 11.4 89.7488 10.984V7H90.7088V10.744C90.7088 11.104 90.7648 11.388 90.8768 11.596C90.9968 11.796 91.1568 11.94 91.3568 12.028C91.5568 12.116 91.7808 12.16 92.0288 12.16C92.4368 12.16 92.7768 12.056 93.0488 11.848C93.3208 11.64 93.5288 11.384 93.6728 11.08C93.8168 10.776 93.9048 10.484 93.9368 10.204ZM96.3933 7H97.3533V13H96.3933V7ZM99.4173 6.88C99.7373 6.88 100.025 6.928 100.281 7.024C100.537 7.12 100.753 7.26 100.929 7.444C101.105 7.628 101.241 7.852 101.337 8.116C101.433 8.372 101.481 8.664 101.481 8.992V13H100.521V9.232C100.521 8.768 100.413 8.42 100.197 8.188C99.9813 7.956 99.6573 7.84 99.2253 7.84C98.8973 7.84 98.5933 7.924 98.3133 8.092C98.0333 8.26 97.8013 8.492 97.6173 8.788C97.4413 9.076 97.3333 9.412 97.2933 9.796L97.2813 9.1C97.3213 8.764 97.4013 8.46 97.5213 8.188C97.6493 7.916 97.8053 7.684 97.9893 7.492C98.1813 7.292 98.3973 7.14 98.6373 7.036C98.8853 6.932 99.1453 6.88 99.4173 6.88ZM103.449 6.88C103.769 6.88 104.057 6.928 104.313 7.024C104.569 7.12 104.785 7.26 104.961 7.444C105.137 7.628 105.273 7.852 105.369 8.116C105.465 8.372 105.513 8.664 105.513 8.992V13H104.553V9.232C104.553 8.768 104.445 8.42 104.229 8.188C104.013 7.956 103.689 7.84 103.257 7.84C102.929 7.84 102.625 7.924 102.345 8.092C102.065 8.26 101.833 8.492 101.649 8.788C101.473 9.076 101.365 9.412 101.325 9.796L101.313 9.1C101.353 8.764 101.433 8.46 101.553 8.188C101.681 7.916 101.837 7.684 102.021 7.492C102.213 7.292 102.429 7.14 102.669 7.036C102.917 6.932 103.177 6.88 103.449 6.88ZM111.857 13.12C111.377 13.12 110.937 12.988 110.537 12.724C110.145 12.452 109.833 12.084 109.601 11.62C109.369 11.148 109.253 10.612 109.253 10.012C109.253 9.412 109.365 8.876 109.589 8.404C109.813 7.932 110.121 7.56 110.513 7.288C110.905 7.016 111.353 6.88 111.857 6.88C112.305 6.88 112.669 6.964 112.949 7.132C113.237 7.292 113.457 7.516 113.609 7.804C113.761 8.092 113.865 8.424 113.921 8.8C113.985 9.176 114.017 9.58 114.017 10.012C114.017 10.316 113.985 10.648 113.921 11.008C113.857 11.36 113.745 11.7 113.585 12.028C113.433 12.348 113.217 12.612 112.937 12.82C112.657 13.02 112.297 13.12 111.857 13.12ZM112.097 12.208C112.505 12.208 112.841 12.108 113.105 11.908C113.377 11.708 113.577 11.444 113.705 11.116C113.833 10.78 113.897 10.412 113.897 10.012C113.897 9.572 113.829 9.188 113.693 8.86C113.565 8.524 113.365 8.264 113.093 8.08C112.829 7.888 112.497 7.792 112.097 7.792C111.497 7.792 111.033 8.004 110.705 8.428C110.377 8.844 110.213 9.372 110.213 10.012C110.213 10.436 110.293 10.816 110.453 11.152C110.621 11.48 110.845 11.74 111.125 11.932C111.413 12.116 111.737 12.208 112.097 12.208ZM113.897 4.6H114.857V13H113.981C113.965 12.824 113.945 12.616 113.921 12.376C113.905 12.136 113.897 11.944 113.897 11.8V4.6ZM120.844 11.068H121.744C121.68 11.46 121.536 11.812 121.312 12.124C121.096 12.428 120.808 12.672 120.448 12.856C120.096 13.032 119.688 13.12 119.224 13.12C118.664 13.12 118.16 12.988 117.712 12.724C117.264 12.452 116.908 12.084 116.644 11.62C116.388 11.148 116.26 10.612 116.26 10.012C116.26 9.412 116.384 8.876 116.632 8.404C116.888 7.932 117.236 7.56 117.676 7.288C118.116 7.016 118.612 6.88 119.164 6.88C119.748 6.88 120.24 7.012 120.64 7.276C121.048 7.532 121.348 7.912 121.54 8.416C121.74 8.912 121.82 9.524 121.78 10.252H117.22C117.26 10.644 117.368 10.988 117.544 11.284C117.72 11.58 117.952 11.812 118.24 11.98C118.528 12.14 118.856 12.22 119.224 12.22C119.632 12.22 119.976 12.116 120.256 11.908C120.544 11.692 120.74 11.412 120.844 11.068ZM119.2 7.78C118.704 7.78 118.288 7.924 117.952 8.212C117.616 8.5 117.392 8.892 117.28 9.388H120.796C120.764 8.86 120.592 8.46 120.28 8.188C119.976 7.916 119.616 7.78 119.2 7.78ZM126.018 13.12C125.578 13.12 125.218 13.02 124.938 12.82C124.658 12.612 124.438 12.348 124.278 12.028C124.126 11.7 124.018 11.36 123.954 11.008C123.89 10.648 123.858 10.316 123.858 10.012C123.858 9.58 123.886 9.176 123.942 8.8C124.006 8.424 124.114 8.092 124.266 7.804C124.418 7.516 124.634 7.292 124.914 7.132C125.202 6.964 125.57 6.88 126.018 6.88C126.498 6.88 126.934 7.016 127.326 7.288C127.718 7.56 128.03 7.932 128.262 8.404C128.502 8.876 128.622 9.412 128.622 10.012C128.622 10.612 128.502 11.148 128.262 11.62C128.022 12.084 127.702 12.452 127.302 12.724C126.91 12.988 126.482 13.12 126.018 13.12ZM125.778 12.208C126.146 12.208 126.47 12.116 126.75 11.932C127.038 11.74 127.262 11.48 127.422 11.152C127.582 10.816 127.662 10.436 127.662 10.012C127.662 9.372 127.498 8.844 127.17 8.428C126.842 8.004 126.378 7.792 125.778 7.792C125.426 7.792 125.114 7.888 124.842 8.08C124.57 8.264 124.358 8.524 124.206 8.86C124.054 9.188 123.978 9.572 123.978 10.012C123.978 10.412 124.042 10.78 124.17 11.116C124.306 11.444 124.506 11.708 124.77 11.908C125.034 12.108 125.37 12.208 125.778 12.208ZM123.018 7H123.942L123.978 8.26V15.4H123.018V7ZM132.454 13.12C131.942 13.12 131.462 12.996 131.014 12.748C130.566 12.5 130.202 12.144 129.922 11.68C129.65 11.208 129.514 10.652 129.514 10.012C129.514 9.372 129.65 8.82 129.922 8.356C130.202 7.884 130.566 7.52 131.014 7.264C131.462 7.008 131.942 6.88 132.454 6.88C132.966 6.88 133.442 7.008 133.882 7.264C134.33 7.52 134.69 7.884 134.962 8.356C135.234 8.82 135.37 9.372 135.37 10.012C135.37 10.652 135.234 11.208 134.962 11.68C134.69 12.144 134.33 12.5 133.882 12.748C133.442 12.996 132.966 13.12 132.454 13.12ZM132.454 12.22C132.79 12.22 133.106 12.136 133.402 11.968C133.698 11.8 133.938 11.552 134.122 11.224C134.314 10.888 134.41 10.484 134.41 10.012C134.41 9.54 134.314 9.14 134.122 8.812C133.938 8.476 133.698 8.22 133.402 8.044C133.106 7.868 132.79 7.78 132.454 7.78C132.118 7.78 131.798 7.868 131.494 8.044C131.198 8.212 130.954 8.464 130.762 8.8C130.57 9.128 130.474 9.532 130.474 10.012C130.474 10.484 130.566 10.888 130.75 11.224C130.942 11.552 131.19 11.8 131.494 11.968C131.798 12.136 132.118 12.22 132.454 12.22ZM136.301 11.068H137.189C137.213 11.412 137.341 11.692 137.573 11.908C137.813 12.124 138.157 12.232 138.605 12.232C138.877 12.232 139.089 12.196 139.241 12.124C139.401 12.052 139.517 11.956 139.589 11.836C139.661 11.708 139.697 11.568 139.697 11.416C139.697 11.232 139.649 11.088 139.553 10.984C139.465 10.872 139.341 10.78 139.181 10.708C139.029 10.636 138.853 10.568 138.653 10.504C138.421 10.416 138.181 10.324 137.933 10.228C137.693 10.124 137.465 10.004 137.249 9.868C137.041 9.724 136.873 9.552 136.745 9.352C136.617 9.144 136.553 8.896 136.553 8.608C136.553 8.368 136.601 8.144 136.697 7.936C136.793 7.72 136.929 7.536 137.105 7.384C137.289 7.224 137.501 7.1 137.741 7.012C137.989 6.924 138.261 6.88 138.557 6.88C138.957 6.88 139.293 6.96 139.565 7.12C139.845 7.28 140.057 7.508 140.201 7.804C140.353 8.092 140.433 8.428 140.441 8.812H139.613C139.557 8.452 139.441 8.192 139.265 8.032C139.097 7.864 138.853 7.78 138.533 7.78C138.205 7.78 137.953 7.852 137.777 7.996C137.601 8.14 137.513 8.332 137.513 8.572C137.513 8.748 137.577 8.896 137.705 9.016C137.833 9.128 137.997 9.232 138.197 9.328C138.405 9.416 138.625 9.508 138.857 9.604C139.089 9.7 139.313 9.796 139.529 9.892C139.745 9.988 139.937 10.1 140.105 10.228C140.273 10.356 140.405 10.516 140.501 10.708C140.605 10.892 140.657 11.124 140.657 11.404C140.657 11.74 140.577 12.04 140.417 12.304C140.265 12.56 140.037 12.76 139.733 12.904C139.437 13.048 139.073 13.12 138.641 13.12C138.249 13.12 137.913 13.072 137.633 12.976C137.361 12.872 137.133 12.74 136.949 12.58C136.765 12.412 136.621 12.236 136.517 12.052C136.421 11.868 136.357 11.688 136.325 11.512C136.293 11.336 136.285 11.188 136.301 11.068ZM143.073 4.6V5.764H141.825V4.6H143.073ZM141.969 7H142.929V13H141.969V7ZM144.149 7H147.677V7.9H144.149V7ZM145.433 5.44H146.393V13H145.433V5.44ZM153.935 13.12C153.423 13.12 152.943 12.996 152.495 12.748C152.047 12.5 151.683 12.144 151.403 11.68C151.131 11.208 150.995 10.652 150.995 10.012C150.995 9.372 151.131 8.82 151.403 8.356C151.683 7.884 152.047 7.52 152.495 7.264C152.943 7.008 153.423 6.88 153.935 6.88C154.447 6.88 154.923 7.008 155.363 7.264C155.811 7.52 156.171 7.884 156.443 8.356C156.715 8.82 156.851 9.372 156.851 10.012C156.851 10.652 156.715 11.208 156.443 11.68C156.171 12.144 155.811 12.5 155.363 12.748C154.923 12.996 154.447 13.12 153.935 13.12ZM153.935 12.22C154.271 12.22 154.587 12.136 154.883 11.968C155.179 11.8 155.419 11.552 155.603 11.224C155.795 10.888 155.891 10.484 155.891 10.012C155.891 9.54 155.795 9.14 155.603 8.812C155.419 8.476 155.179 8.22 154.883 8.044C154.587 7.868 154.271 7.78 153.935 7.78C153.599 7.78 153.279 7.868 152.975 8.044C152.679 8.212 152.435 8.464 152.243 8.8C152.051 9.128 151.955 9.532 151.955 10.012C151.955 10.484 152.047 10.888 152.231 11.224C152.423 11.552 152.671 11.8 152.975 11.968C153.279 12.136 153.599 12.22 153.935 12.22ZM157.532 7H161.06V7.9H157.532V7ZM160.64 4.6H161.192V5.56H160.64C160.44 5.552 160.256 5.58 160.088 5.644C159.928 5.708 159.8 5.82 159.704 5.98C159.608 6.132 159.56 6.352 159.56 6.64V13H158.6V6.64C158.6 6.16 158.684 5.772 158.852 5.476C159.028 5.172 159.268 4.952 159.572 4.816C159.884 4.672 160.24 4.6 160.64 4.6ZM220.935 13.12C220.463 13.12 220.027 12.988 219.627 12.724C219.235 12.452 218.919 12.084 218.679 11.62C218.447 11.148 218.331 10.612 218.331 10.012C218.331 9.412 218.451 8.876 218.691 8.404C218.931 7.932 219.255 7.56 219.663 7.288C220.079 7.016 220.543 6.88 221.055 6.88C221.615 6.88 222.039 7.024 222.327 7.312C222.623 7.592 222.823 7.968 222.927 8.44C223.039 8.912 223.095 9.436 223.095 10.012C223.095 10.316 223.063 10.648 222.999 11.008C222.935 11.36 222.823 11.7 222.663 12.028C222.511 12.348 222.295 12.612 222.015 12.82C221.735 13.02 221.375 13.12 220.935 13.12ZM221.175 12.208C221.583 12.208 221.919 12.108 222.183 11.908C222.455 11.708 222.655 11.444 222.783 11.116C222.911 10.78 222.975 10.412 222.975 10.012C222.975 9.572 222.907 9.188 222.771 8.86C222.643 8.524 222.443 8.264 222.171 8.08C221.907 7.888 221.575 7.792 221.175 7.792C220.575 7.792 220.111 8.004 219.783 8.428C219.455 8.844 219.291 9.372 219.291 10.012C219.291 10.436 219.371 10.816 219.531 11.152C219.699 11.48 219.923 11.74 220.203 11.932C220.491 12.116 220.815 12.208 221.175 12.208ZM222.975 7H223.935V13H223.059C223.059 13 223.051 12.928 223.035 12.784C223.027 12.64 223.015 12.472 222.999 12.28C222.983 12.088 222.975 11.928 222.975 11.8V7ZM225.499 7H226.459V13H225.499V7ZM228.523 6.88C228.843 6.88 229.131 6.928 229.387 7.024C229.643 7.12 229.859 7.26 230.035 7.444C230.211 7.628 230.347 7.852 230.443 8.116C230.539 8.372 230.587 8.664 230.587 8.992V13H229.627V9.232C229.627 8.768 229.519 8.42 229.303 8.188C229.087 7.956 228.763 7.84 228.331 7.84C228.003 7.84 227.699 7.924 227.419 8.092C227.139 8.26 226.907 8.492 226.723 8.788C226.547 9.076 226.439 9.412 226.399 9.796L226.387 9.1C226.427 8.764 226.507 8.46 226.627 8.188C226.755 7.916 226.911 7.684 227.095 7.492C227.287 7.292 227.503 7.14 227.743 7.036C227.991 6.932 228.251 6.88 228.523 6.88ZM234.411 13.12C233.931 13.12 233.491 12.988 233.091 12.724C232.699 12.452 232.387 12.084 232.155 11.62C231.923 11.148 231.807 10.612 231.807 10.012C231.807 9.412 231.919 8.876 232.143 8.404C232.367 7.932 232.675 7.56 233.067 7.288C233.459 7.016 233.907 6.88 234.411 6.88C234.859 6.88 235.223 6.964 235.503 7.132C235.791 7.292 236.011 7.516 236.163 7.804C236.315 8.092 236.419 8.424 236.475 8.8C236.539 9.176 236.571 9.58 236.571 10.012C236.571 10.316 236.539 10.648 236.475 11.008C236.411 11.36 236.299 11.7 236.139 12.028C235.987 12.348 235.771 12.612 235.491 12.82C235.211 13.02 234.851 13.12 234.411 13.12ZM234.651 12.208C235.059 12.208 235.395 12.108 235.659 11.908C235.931 11.708 236.131 11.444 236.259 11.116C236.387 10.78 236.451 10.412 236.451 10.012C236.451 9.572 236.383 9.188 236.247 8.86C236.119 8.524 235.919 8.264 235.647 8.08C235.383 7.888 235.051 7.792 234.651 7.792C234.051 7.792 233.587 8.004 233.259 8.428C232.931 8.844 232.767 9.372 232.767 10.012C232.767 10.436 232.847 10.816 233.007 11.152C233.175 11.48 233.399 11.74 233.679 11.932C233.967 12.116 234.291 12.208 234.651 12.208ZM236.451 4.6H237.411V13H236.535C236.519 12.824 236.499 12.616 236.475 12.376C236.459 12.136 236.451 11.944 236.451 11.8V4.6ZM246.999 10.744C246.943 11.24 246.783 11.668 246.519 12.028C246.263 12.38 245.939 12.652 245.547 12.844C245.155 13.028 244.731 13.12 244.275 13.12C243.763 13.12 243.283 12.996 242.835 12.748C242.387 12.5 242.023 12.144 241.743 11.68C241.471 11.208 241.335 10.652 241.335 10.012C241.335 9.372 241.471 8.82 241.743 8.356C242.023 7.884 242.387 7.52 242.835 7.264C243.283 7.008 243.763 6.88 244.275 6.88C244.731 6.88 245.151 6.976 245.535 7.168C245.927 7.36 246.251 7.632 246.507 7.984C246.771 8.336 246.935 8.756 246.999 9.244H246.123C245.987 8.788 245.751 8.432 245.415 8.176C245.079 7.912 244.699 7.78 244.275 7.78C243.931 7.78 243.607 7.868 243.303 8.044C242.999 8.22 242.755 8.476 242.571 8.812C242.387 9.14 242.295 9.54 242.295 10.012C242.295 10.476 242.387 10.876 242.571 11.212C242.755 11.54 242.995 11.792 243.291 11.968C243.595 12.136 243.923 12.22 244.275 12.22C244.763 12.22 245.159 12.092 245.463 11.836C245.775 11.572 245.999 11.208 246.135 10.744H246.999ZM253.309 13H252.349V7H253.309V13ZM252.409 10.204L252.421 10.54C252.413 10.636 252.389 10.784 252.349 10.984C252.317 11.184 252.257 11.408 252.169 11.656C252.089 11.896 251.969 12.128 251.809 12.352C251.657 12.576 251.457 12.76 251.209 12.904C250.969 13.048 250.669 13.12 250.309 13.12C250.077 13.12 249.837 13.084 249.589 13.012C249.349 12.948 249.125 12.84 248.917 12.688C248.709 12.528 248.541 12.308 248.413 12.028C248.285 11.748 248.221 11.4 248.221 10.984V7H249.181V10.744C249.181 11.104 249.237 11.388 249.349 11.596C249.469 11.796 249.629 11.94 249.829 12.028C250.029 12.116 250.253 12.16 250.501 12.16C250.909 12.16 251.249 12.056 251.521 11.848C251.793 11.64 252.001 11.384 252.145 11.08C252.289 10.776 252.377 10.484 252.409 10.204ZM254.866 7H255.826V13H254.866V7ZM257.89 6.88C258.21 6.88 258.498 6.928 258.754 7.024C259.01 7.12 259.226 7.26 259.402 7.444C259.578 7.628 259.714 7.852 259.81 8.116C259.906 8.372 259.954 8.664 259.954 8.992V13H258.994V9.232C258.994 8.768 258.886 8.42 258.67 8.188C258.454 7.956 258.13 7.84 257.698 7.84C257.37 7.84 257.066 7.924 256.786 8.092C256.506 8.26 256.274 8.492 256.09 8.788C255.914 9.076 255.806 9.412 255.766 9.796L255.754 9.1C255.794 8.764 255.874 8.46 255.994 8.188C256.122 7.916 256.278 7.684 256.462 7.492C256.654 7.292 256.87 7.14 257.11 7.036C257.358 6.932 257.618 6.88 257.89 6.88ZM261.922 6.88C262.242 6.88 262.53 6.928 262.786 7.024C263.042 7.12 263.258 7.26 263.434 7.444C263.61 7.628 263.746 7.852 263.842 8.116C263.938 8.372 263.986 8.664 263.986 8.992V13H263.026V9.232C263.026 8.768 262.918 8.42 262.702 8.188C262.486 7.956 262.162 7.84 261.73 7.84C261.402 7.84 261.098 7.924 260.818 8.092C260.538 8.26 260.306 8.492 260.122 8.788C259.946 9.076 259.838 9.412 259.798 9.796L259.786 9.1C259.826 8.764 259.906 8.46 260.026 8.188C260.154 7.916 260.31 7.684 260.494 7.492C260.686 7.292 260.902 7.14 261.142 7.036C261.39 6.932 261.65 6.88 261.922 6.88ZM265.542 7H266.502V13H265.542V7ZM268.566 6.88C268.886 6.88 269.174 6.928 269.43 7.024C269.686 7.12 269.902 7.26 270.078 7.444C270.254 7.628 270.39 7.852 270.486 8.116C270.582 8.372 270.63 8.664 270.63 8.992V13H269.67V9.232C269.67 8.768 269.562 8.42 269.346 8.188C269.13 7.956 268.806 7.84 268.374 7.84C268.046 7.84 267.742 7.924 267.462 8.092C267.182 8.26 266.95 8.492 266.766 8.788C266.59 9.076 266.482 9.412 266.442 9.796L266.43 9.1C266.47 8.764 266.55 8.46 266.67 8.188C266.798 7.916 266.954 7.684 267.138 7.492C267.33 7.292 267.546 7.14 267.786 7.036C268.034 6.932 268.294 6.88 268.566 6.88ZM272.598 6.88C272.918 6.88 273.206 6.928 273.462 7.024C273.718 7.12 273.934 7.26 274.11 7.444C274.286 7.628 274.422 7.852 274.518 8.116C274.614 8.372 274.662 8.664 274.662 8.992V13H273.702V9.232C273.702 8.768 273.594 8.42 273.378 8.188C273.162 7.956 272.838 7.84 272.406 7.84C272.078 7.84 271.774 7.924 271.494 8.092C271.214 8.26 270.982 8.492 270.798 8.788C270.622 9.076 270.514 9.412 270.474 9.796L270.462 9.1C270.502 8.764 270.582 8.46 270.702 8.188C270.83 7.916 270.986 7.684 271.17 7.492C271.362 7.292 271.578 7.14 271.818 7.036C272.066 6.932 272.326 6.88 272.598 6.88ZM281.306 13H280.346V7H281.306V13ZM280.406 10.204L280.418 10.54C280.41 10.636 280.386 10.784 280.346 10.984C280.314 11.184 280.254 11.408 280.166 11.656C280.086 11.896 279.966 12.128 279.806 12.352C279.654 12.576 279.454 12.76 279.206 12.904C278.966 13.048 278.666 13.12 278.306 13.12C278.074 13.12 277.834 13.084 277.586 13.012C277.346 12.948 277.122 12.84 276.914 12.688C276.706 12.528 276.538 12.308 276.41 12.028C276.282 11.748 276.218 11.4 276.218 10.984V7H277.178V10.744C277.178 11.104 277.234 11.388 277.346 11.596C277.466 11.796 277.626 11.94 277.826 12.028C278.026 12.116 278.25 12.16 278.498 12.16C278.906 12.16 279.246 12.056 279.518 11.848C279.79 11.64 279.998 11.384 280.142 11.08C280.286 10.776 280.374 10.484 280.406 10.204ZM282.982 4.6H283.942V13H282.982V4.6ZM287.896 13.12C287.424 13.12 286.988 12.988 286.588 12.724C286.196 12.452 285.88 12.084 285.64 11.62C285.408 11.148 285.292 10.612 285.292 10.012C285.292 9.412 285.412 8.876 285.652 8.404C285.892 7.932 286.216 7.56 286.624 7.288C287.04 7.016 287.504 6.88 288.016 6.88C288.576 6.88 289 7.024 289.288 7.312C289.584 7.592 289.784 7.968 289.888 8.44C290 8.912 290.056 9.436 290.056 10.012C290.056 10.316 290.024 10.648 289.96 11.008C289.896 11.36 289.784 11.7 289.624 12.028C289.472 12.348 289.256 12.612 288.976 12.82C288.696 13.02 288.336 13.12 287.896 13.12ZM288.136 12.208C288.544 12.208 288.88 12.108 289.144 11.908C289.416 11.708 289.616 11.444 289.744 11.116C289.872 10.78 289.936 10.412 289.936 10.012C289.936 9.572 289.868 9.188 289.732 8.86C289.604 8.524 289.404 8.264 289.132 8.08C288.868 7.888 288.536 7.792 288.136 7.792C287.536 7.792 287.072 8.004 286.744 8.428C286.416 8.844 286.252 9.372 286.252 10.012C286.252 10.436 286.332 10.816 286.492 11.152C286.66 11.48 286.884 11.74 287.164 11.932C287.452 12.116 287.776 12.208 288.136 12.208ZM289.936 7H290.896V13H290.02C290.02 13 290.012 12.928 289.996 12.784C289.988 12.64 289.976 12.472 289.96 12.28C289.944 12.088 289.936 11.928 289.936 11.8V7ZM292.04 7H295.568V7.9H292.04V7ZM293.324 5.44H294.284V13H293.324V5.44ZM297.89 4.6V5.764H296.642V4.6H297.89ZM296.786 7H297.746V13H296.786V7ZM301.701 12.172H301.413L303.249 7H304.293L302.013 13H301.113L298.845 7H299.889L301.701 12.172ZM309.387 11.068H310.287C310.223 11.46 310.079 11.812 309.855 12.124C309.639 12.428 309.351 12.672 308.991 12.856C308.639 13.032 308.231 13.12 307.767 13.12C307.207 13.12 306.703 12.988 306.255 12.724C305.807 12.452 305.451 12.084 305.187 11.62C304.931 11.148 304.803 10.612 304.803 10.012C304.803 9.412 304.927 8.876 305.175 8.404C305.431 7.932 305.779 7.56 306.219 7.288C306.659 7.016 307.155 6.88 307.707 6.88C308.291 6.88 308.783 7.012 309.183 7.276C309.591 7.532 309.891 7.912 310.083 8.416C310.283 8.912 310.363 9.524 310.323 10.252H305.763C305.803 10.644 305.911 10.988 306.087 11.284C306.263 11.58 306.495 11.812 306.783 11.98C307.071 12.14 307.399 12.22 307.767 12.22C308.175 12.22 308.519 12.116 308.799 11.908C309.087 11.692 309.283 11.412 309.387 11.068ZM307.743 7.78C307.247 7.78 306.831 7.924 306.495 8.212C306.159 8.5 305.935 8.892 305.823 9.388H309.339C309.307 8.86 309.135 8.46 308.823 8.188C308.519 7.916 308.159 7.78 307.743 7.78ZM317.261 13.12C316.821 13.12 316.461 13.02 316.181 12.82C315.901 12.612 315.681 12.348 315.521 12.028C315.369 11.7 315.261 11.36 315.197 11.008C315.133 10.648 315.101 10.316 315.101 10.012C315.101 9.58 315.129 9.176 315.185 8.8C315.249 8.424 315.357 8.092 315.509 7.804C315.661 7.516 315.877 7.292 316.157 7.132C316.445 6.964 316.813 6.88 317.261 6.88C317.765 6.88 318.213 7.016 318.605 7.288C318.997 7.56 319.305 7.932 319.529 8.404C319.753 8.876 319.865 9.412 319.865 10.012C319.865 10.612 319.749 11.148 319.517 11.62C319.285 12.084 318.973 12.452 318.581 12.724C318.189 12.988 317.749 13.12 317.261 13.12ZM317.021 12.208C317.389 12.208 317.713 12.116 317.993 11.932C318.273 11.74 318.493 11.48 318.653 11.152C318.821 10.816 318.905 10.436 318.905 10.012C318.905 9.372 318.741 8.844 318.413 8.428C318.085 8.004 317.621 7.792 317.021 7.792C316.621 7.792 316.285 7.888 316.013 8.08C315.749 8.264 315.549 8.524 315.413 8.86C315.285 9.188 315.221 9.572 315.221 10.012C315.221 10.412 315.285 10.78 315.413 11.116C315.549 11.444 315.749 11.708 316.013 11.908C316.277 12.108 316.613 12.208 317.021 12.208ZM315.221 4.6V11.8C315.221 11.944 315.209 12.136 315.185 12.376C315.169 12.616 315.153 12.824 315.137 13H314.261V4.6H315.221ZM323.357 13.12C322.885 13.12 322.449 12.988 322.049 12.724C321.657 12.452 321.341 12.084 321.101 11.62C320.869 11.148 320.753 10.612 320.753 10.012C320.753 9.412 320.873 8.876 321.113 8.404C321.353 7.932 321.677 7.56 322.085 7.288C322.501 7.016 322.965 6.88 323.477 6.88C324.037 6.88 324.461 7.024 324.749 7.312C325.045 7.592 325.245 7.968 325.349 8.44C325.461 8.912 325.517 9.436 325.517 10.012C325.517 10.316 325.485 10.648 325.421 11.008C325.357 11.36 325.245 11.7 325.085 12.028C324.933 12.348 324.717 12.612 324.437 12.82C324.157 13.02 323.797 13.12 323.357 13.12ZM323.597 12.208C324.005 12.208 324.341 12.108 324.605 11.908C324.877 11.708 325.077 11.444 325.205 11.116C325.333 10.78 325.397 10.412 325.397 10.012C325.397 9.572 325.329 9.188 325.193 8.86C325.065 8.524 324.865 8.264 324.593 8.08C324.329 7.888 323.997 7.792 323.597 7.792C322.997 7.792 322.533 8.004 322.205 8.428C321.877 8.844 321.713 9.372 321.713 10.012C321.713 10.436 321.793 10.816 321.953 11.152C322.121 11.48 322.345 11.74 322.625 11.932C322.913 12.116 323.237 12.208 323.597 12.208ZM325.397 7H326.357V13H325.481C325.481 13 325.473 12.928 325.457 12.784C325.449 12.64 325.437 12.472 325.421 12.28C325.405 12.088 325.397 11.928 325.397 11.8V7ZM328.041 4.6H329.001V13H328.041V4.6ZM332.954 13.12C332.482 13.12 332.046 12.988 331.646 12.724C331.254 12.452 330.938 12.084 330.698 11.62C330.466 11.148 330.35 10.612 330.35 10.012C330.35 9.412 330.47 8.876 330.71 8.404C330.95 7.932 331.274 7.56 331.682 7.288C332.098 7.016 332.562 6.88 333.074 6.88C333.634 6.88 334.058 7.024 334.346 7.312C334.642 7.592 334.842 7.968 334.946 8.44C335.058 8.912 335.114 9.436 335.114 10.012C335.114 10.316 335.082 10.648 335.018 11.008C334.954 11.36 334.842 11.7 334.682 12.028C334.53 12.348 334.314 12.612 334.034 12.82C333.754 13.02 333.394 13.12 332.954 13.12ZM333.194 12.208C333.602 12.208 333.938 12.108 334.202 11.908C334.474 11.708 334.674 11.444 334.802 11.116C334.93 10.78 334.994 10.412 334.994 10.012C334.994 9.572 334.926 9.188 334.79 8.86C334.662 8.524 334.462 8.264 334.19 8.08C333.926 7.888 333.594 7.792 333.194 7.792C332.594 7.792 332.13 8.004 331.802 8.428C331.474 8.844 331.31 9.372 331.31 10.012C331.31 10.436 331.39 10.816 331.55 11.152C331.718 11.48 331.942 11.74 332.222 11.932C332.51 12.116 332.834 12.208 333.194 12.208ZM334.994 7H335.954V13H335.078C335.078 13 335.07 12.928 335.054 12.784C335.046 12.64 335.034 12.472 335.018 12.28C335.002 12.088 334.994 11.928 334.994 11.8V7ZM337.518 7H338.478V13H337.518V7ZM340.542 6.88C340.862 6.88 341.15 6.928 341.406 7.024C341.662 7.12 341.878 7.26 342.054 7.444C342.23 7.628 342.366 7.852 342.462 8.116C342.558 8.372 342.606 8.664 342.606 8.992V13H341.646V9.232C341.646 8.768 341.538 8.42 341.322 8.188C341.106 7.956 340.782 7.84 340.35 7.84C340.022 7.84 339.718 7.924 339.438 8.092C339.158 8.26 338.926 8.492 338.742 8.788C338.566 9.076 338.458 9.412 338.418 9.796L338.406 9.1C338.446 8.764 338.526 8.46 338.646 8.188C338.774 7.916 338.93 7.684 339.114 7.492C339.306 7.292 339.522 7.14 339.762 7.036C340.01 6.932 340.27 6.88 340.542 6.88ZM349.491 10.744C349.435 11.24 349.275 11.668 349.011 12.028C348.755 12.38 348.431 12.652 348.039 12.844C347.647 13.028 347.223 13.12 346.767 13.12C346.255 13.12 345.775 12.996 345.327 12.748C344.879 12.5 344.515 12.144 344.235 11.68C343.963 11.208 343.827 10.652 343.827 10.012C343.827 9.372 343.963 8.82 344.235 8.356C344.515 7.884 344.879 7.52 345.327 7.264C345.775 7.008 346.255 6.88 346.767 6.88C347.223 6.88 347.643 6.976 348.027 7.168C348.419 7.36 348.743 7.632 348.999 7.984C349.263 8.336 349.427 8.756 349.491 9.244H348.615C348.479 8.788 348.243 8.432 347.907 8.176C347.571 7.912 347.191 7.78 346.767 7.78C346.423 7.78 346.099 7.868 345.795 8.044C345.491 8.22 345.247 8.476 345.063 8.812C344.879 9.14 344.787 9.54 344.787 10.012C344.787 10.476 344.879 10.876 345.063 11.212C345.247 11.54 345.487 11.792 345.783 11.968C346.087 12.136 346.415 12.22 346.767 12.22C347.255 12.22 347.651 12.092 347.955 11.836C348.267 11.572 348.491 11.208 348.627 10.744H349.491ZM354.962 11.068H355.862C355.798 11.46 355.654 11.812 355.43 12.124C355.214 12.428 354.926 12.672 354.566 12.856C354.214 13.032 353.806 13.12 353.342 13.12C352.782 13.12 352.278 12.988 351.83 12.724C351.382 12.452 351.026 12.084 350.762 11.62C350.506 11.148 350.378 10.612 350.378 10.012C350.378 9.412 350.502 8.876 350.75 8.404C351.006 7.932 351.354 7.56 351.794 7.288C352.234 7.016 352.73 6.88 353.282 6.88C353.866 6.88 354.358 7.012 354.758 7.276C355.166 7.532 355.466 7.912 355.658 8.416C355.858 8.912 355.938 9.524 355.898 10.252H351.338C351.378 10.644 351.486 10.988 351.662 11.284C351.838 11.58 352.07 11.812 352.358 11.98C352.646 12.14 352.974 12.22 353.342 12.22C353.75 12.22 354.094 12.116 354.374 11.908C354.662 11.692 354.858 11.412 354.962 11.068ZM353.318 7.78C352.822 7.78 352.406 7.924 352.07 8.212C351.734 8.5 351.51 8.892 351.398 9.388H354.914C354.882 8.86 354.71 8.46 354.398 8.188C354.094 7.916 353.734 7.78 353.318 7.78ZM362.259 13.12C361.747 13.12 361.267 12.996 360.819 12.748C360.371 12.5 360.007 12.144 359.727 11.68C359.455 11.208 359.319 10.652 359.319 10.012C359.319 9.372 359.455 8.82 359.727 8.356C360.007 7.884 360.371 7.52 360.819 7.264C361.267 7.008 361.747 6.88 362.259 6.88C362.771 6.88 363.247 7.008 363.687 7.264C364.135 7.52 364.495 7.884 364.767 8.356C365.039 8.82 365.175 9.372 365.175 10.012C365.175 10.652 365.039 11.208 364.767 11.68C364.495 12.144 364.135 12.5 363.687 12.748C363.247 12.996 362.771 13.12 362.259 13.12ZM362.259 12.22C362.595 12.22 362.911 12.136 363.207 11.968C363.503 11.8 363.743 11.552 363.927 11.224C364.119 10.888 364.215 10.484 364.215 10.012C364.215 9.54 364.119 9.14 363.927 8.812C363.743 8.476 363.503 8.22 363.207 8.044C362.911 7.868 362.595 7.78 362.259 7.78C361.923 7.78 361.603 7.868 361.299 8.044C361.003 8.212 360.759 8.464 360.567 8.8C360.375 9.128 360.279 9.532 360.279 10.012C360.279 10.484 360.371 10.888 360.555 11.224C360.747 11.552 360.995 11.8 361.299 11.968C361.603 12.136 361.923 12.22 362.259 12.22ZM365.856 7H369.384V7.9H365.856V7ZM368.964 4.6H369.516V5.56H368.964C368.764 5.552 368.58 5.58 368.412 5.644C368.252 5.708 368.124 5.82 368.028 5.98C367.932 6.132 367.884 6.352 367.884 6.64V13H366.924V6.64C366.924 6.16 367.008 5.772 367.176 5.476C367.352 5.172 367.592 4.952 367.896 4.816C368.208 4.672 368.564 4.6 368.964 4.6Z" fill="#9CA3AF"/>
<path d="M166.036 13H164.86V4.324H166.036L170.476 11.032V4.324H171.652V13H170.476L166.036 6.292V13ZM176.168 13.144C174.392 13.144 173.24 12.016 173.24 10.288H174.404C174.404 11.404 175.088 12.088 176.192 12.088C177.368 12.088 178.124 11.308 178.124 10.132C178.124 9.016 177.416 8.188 176.204 8.188C175.472 8.188 174.8 8.536 174.404 9.028L173.408 8.776L174.464 4.324H178.808V5.404H175.316L174.74 7.708C175.196 7.36 175.772 7.18 176.42 7.18C178.184 7.18 179.324 8.416 179.324 10.084C179.324 11.884 178.04 13.144 176.168 13.144ZM180.342 8.668C180.342 5.98 181.734 4.156 183.918 4.156C186.09 4.156 187.482 5.98 187.482 8.668C187.482 11.368 186.15 13.156 183.918 13.156C181.674 13.156 180.342 11.368 180.342 8.668ZM181.506 8.668C181.506 10.804 182.394 12.1 183.918 12.1C185.442 12.1 186.318 10.804 186.318 8.668C186.318 6.508 185.442 5.212 183.918 5.212C182.394 5.212 181.506 6.508 181.506 8.668ZM190.09 12.532C190.09 13.396 189.442 14.116 188.59 14.224V13.72C189.082 13.636 189.43 13.312 189.43 12.94C189.346 12.988 189.25 13.012 189.106 13.012C188.71 13.012 188.374 12.724 188.374 12.28C188.374 11.8 188.698 11.452 189.178 11.452C189.682 11.452 190.09 11.872 190.09 12.532ZM190.994 8.668C190.994 5.98 192.386 4.156 194.57 4.156C196.742 4.156 198.134 5.98 198.134 8.668C198.134 11.368 196.802 13.156 194.57 13.156C192.326 13.156 190.994 11.368 190.994 8.668ZM192.158 8.668C192.158 10.804 193.046 12.1 194.57 12.1C196.094 12.1 196.97 10.804 196.97 8.668C196.97 6.508 196.094 5.212 194.57 5.212C193.046 5.212 192.158 6.508 192.158 8.668ZM199.315 8.668C199.315 5.98 200.707 4.156 202.891 4.156C205.063 4.156 206.455 5.98 206.455 8.668C206.455 11.368 205.123 13.156 202.891 13.156C200.647 13.156 199.315 11.368 199.315 8.668ZM200.479 8.668C200.479 10.804 201.367 12.1 202.891 12.1C204.415 12.1 205.291 10.804 205.291 8.668C205.291 6.508 204.415 5.212 202.891 5.212C201.367 5.212 200.479 6.508 200.479 8.668ZM207.635 8.668C207.635 5.98 209.027 4.156 211.211 4.156C213.383 4.156 214.775 5.98 214.775 8.668C214.775 11.368 213.443 13.156 211.211 13.156C208.967 13.156 207.635 11.368 207.635 8.668ZM208.799 8.668C208.799 10.804 209.687 12.1 211.211 12.1C212.735 12.1 213.611 10.804 213.611 8.668C213.611 6.508 212.735 5.212 211.211 5.212C209.687 5.212 208.799 6.508 208.799 8.668ZM374.36 13H373.184V4.324H374.36L378.8 11.032V4.324H379.976V13H378.8L374.36 6.292V13ZM388.044 11.248H387.012V13H385.884V11.248H381.396V10.204L385.488 4.324H387.012V10.204H388.044V11.248ZM382.668 10.204H385.884V5.572L382.668 10.204ZM389.205 8.668C389.205 5.98 390.597 4.156 392.781 4.156C394.953 4.156 396.345 5.98 396.345 8.668C396.345 11.368 395.013 13.156 392.781 13.156C390.537 13.156 389.205 11.368 389.205 8.668ZM390.369 8.668C390.369 10.804 391.257 12.1 392.781 12.1C394.305 12.1 395.181 10.804 395.181 8.668C395.181 6.508 394.305 5.212 392.781 5.212C391.257 5.212 390.369 6.508 390.369 8.668ZM397.526 8.668C397.526 5.98 398.918 4.156 401.102 4.156C403.273 4.156 404.666 5.98 404.666 8.668C404.666 11.368 403.334 13.156 401.102 13.156C398.858 13.156 397.526 11.368 397.526 8.668ZM398.69 8.668C398.69 10.804 399.578 12.1 401.102 12.1C402.626 12.1 403.502 10.804 403.502 8.668C403.502 6.508 402.626 5.212 401.102 5.212C399.578 5.212 398.69 6.508 398.69 8.668ZM407.274 12.532C407.274 13.396 406.626 14.116 405.774 14.224V13.72C406.266 13.636 406.614 13.312 406.614 12.94C406.53 12.988 406.434 13.012 406.29 13.012C405.894 13.012 405.558 12.724 405.558 12.28C405.558 11.8 405.882 11.452 406.362 11.452C406.866 11.452 407.274 11.872 407.274 12.532ZM408.178 8.668C408.178 5.98 409.57 4.156 411.754 4.156C413.926 4.156 415.318 5.98 415.318 8.668C415.318 11.368 413.986 13.156 411.754 13.156C409.51 13.156 408.178 11.368 408.178 8.668ZM409.342 8.668C409.342 10.804 410.23 12.1 411.754 12.1C413.278 12.1 414.154 10.804 414.154 8.668C414.154 6.508 413.278 5.212 411.754 5.212C410.23 5.212 409.342 6.508 409.342 8.668ZM416.498 8.668C416.498 5.98 417.89 4.156 420.074 4.156C422.246 4.156 423.638 5.98 423.638 8.668C423.638 11.368 422.306 13.156 420.074 13.156C417.83 13.156 416.498 11.368 416.498 8.668ZM417.662 8.668C417.662 10.804 418.55 12.1 420.074 12.1C421.598 12.1 422.474 10.804 422.474 8.668C422.474 6.508 421.598 5.212 420.074 5.212C418.55 5.212 417.662 6.508 417.662 8.668ZM424.818 8.668C424.818 5.98 426.21 4.156 428.394 4.156C430.566 4.156 431.958 5.98 431.958 8.668C431.958 11.368 430.626 13.156 428.394 13.156C426.15 13.156 424.818 11.368 424.818 8.668ZM425.982 8.668C425.982 10.804 426.87 12.1 428.394 12.1C429.918 12.1 430.794 10.804 430.794 8.668C430.794 6.508 429.918 5.212 428.394 5.212C426.87 5.212 425.982 6.508 425.982 8.668Z" fill="#6B7280"/>
</svg>
