<svg width="424" height="16" viewBox="0 0 424 16" fill="none" xmlns="http://www.w3.org/2000/svg">
<path d="M51.5345 11.424H51.1505L54.7025 4.2H55.6625V12H54.7025V5.868L54.8945 5.916L51.8225 12H50.8625L47.7905 5.928L47.9825 5.88V12H47.0225V4.2H47.9825L51.5345 11.424ZM59.6691 12.12C59.1971 12.12 58.7611 11.988 58.3611 11.724C57.9691 11.452 57.6531 11.084 57.4131 10.62C57.1811 10.148 57.0651 9.612 57.0651 9.012C57.0651 8.412 57.1851 7.876 57.4251 7.404C57.6651 6.932 57.9891 6.56 58.3971 6.288C58.8131 6.016 59.2771 5.88 59.7891 5.88C60.3491 5.88 60.7731 6.024 61.0611 6.312C61.3571 6.592 61.5571 6.968 61.6611 7.44C61.7731 7.912 61.8291 8.436 61.8291 9.012C61.8291 9.316 61.7971 9.648 61.7331 10.008C61.6691 10.36 61.5571 10.7 61.3971 11.028C61.2451 11.348 61.0291 11.612 60.7491 11.82C60.4691 12.02 60.1091 12.12 59.6691 12.12ZM59.9091 11.208C60.3171 11.208 60.6531 11.108 60.9171 10.908C61.1891 10.708 61.3891 10.444 61.5171 10.116C61.6451 9.78 61.7091 9.412 61.7091 9.012C61.7091 8.572 61.6411 8.188 61.5051 7.86C61.3771 7.524 61.1771 7.264 60.9051 7.08C60.6411 6.888 60.3091 6.792 59.9091 6.792C59.3091 6.792 58.8451 7.004 58.5171 7.428C58.1891 7.844 58.0251 8.372 58.0251 9.012C58.0251 9.436 58.1051 9.816 58.2651 10.152C58.4331 10.48 58.6571 10.74 58.9371 10.932C59.2251 11.116 59.5491 11.208 59.9091 11.208ZM61.7091 6H62.6691V12H61.7931C61.7931 12 61.7851 11.928 61.7691 11.784C61.7611 11.64 61.7491 11.472 61.7331 11.28C61.7171 11.088 61.7091 10.928 61.7091 10.8V6ZM69.1531 6L66.8251 9.264L64.9171 12H63.7531L66.2371 8.556L67.9891 6H69.1531ZM63.7531 6H64.9531L66.8131 8.58L69.2731 12H68.1091L66.1651 9.264L63.7531 6ZM71.5383 3.6V4.764H70.2903V3.6H71.5383ZM70.4343 6H71.3943V12H70.4343V6ZM73.0339 6H73.9939V12H73.0339V6ZM76.0579 5.88C76.3779 5.88 76.6659 5.928 76.9219 6.024C77.1779 6.12 77.3939 6.26 77.5699 6.444C77.7459 6.628 77.8819 6.852 77.9779 7.116C78.0739 7.372 78.1219 7.664 78.1219 7.992V12H77.1619V8.232C77.1619 7.768 77.0539 7.42 76.8379 7.188C76.6219 6.956 76.2979 6.84 75.8659 6.84C75.5379 6.84 75.2339 6.924 74.9539 7.092C74.6739 7.26 74.4419 7.492 74.2579 7.788C74.0819 8.076 73.9739 8.412 73.9339 8.796L73.9219 8.1C73.9619 7.764 74.0419 7.46 74.1619 7.188C74.2899 6.916 74.4459 6.684 74.6299 6.492C74.8219 6.292 75.0379 6.14 75.2779 6.036C75.5259 5.932 75.7859 5.88 76.0579 5.88ZM80.0899 5.88C80.4099 5.88 80.6979 5.928 80.9539 6.024C81.2099 6.12 81.4259 6.26 81.6019 6.444C81.7779 6.628 81.9139 6.852 82.0099 7.116C82.1059 7.372 82.1539 7.664 82.1539 7.992V12H81.1939V8.232C81.1939 7.768 81.0859 7.42 80.8699 7.188C80.6539 6.956 80.3299 6.84 79.8979 6.84C79.5699 6.84 79.2659 6.924 78.9859 7.092C78.7059 7.26 78.4739 7.492 78.2899 7.788C78.1139 8.076 78.0059 8.412 77.9659 8.796L77.9539 8.1C77.9939 7.764 78.0739 7.46 78.1939 7.188C78.3219 6.916 78.4779 6.684 78.6619 6.492C78.8539 6.292 79.0699 6.14 79.3099 6.036C79.5579 5.932 79.8179 5.88 80.0899 5.88ZM88.7977 12H87.8377V6H88.7977V12ZM87.8977 9.204L87.9097 9.54C87.9017 9.636 87.8777 9.784 87.8377 9.984C87.8057 10.184 87.7457 10.408 87.6577 10.656C87.5777 10.896 87.4577 11.128 87.2977 11.352C87.1457 11.576 86.9457 11.76 86.6977 11.904C86.4577 12.048 86.1577 12.12 85.7977 12.12C85.5657 12.12 85.3257 12.084 85.0777 12.012C84.8377 11.948 84.6137 11.84 84.4057 11.688C84.1977 11.528 84.0297 11.308 83.9017 11.028C83.7737 10.748 83.7097 10.4 83.7097 9.984V6H84.6697V9.744C84.6697 10.104 84.7257 10.388 84.8377 10.596C84.9577 10.796 85.1177 10.94 85.3177 11.028C85.5177 11.116 85.7417 11.16 85.9897 11.16C86.3977 11.16 86.7377 11.056 87.0097 10.848C87.2817 10.64 87.4897 10.384 87.6337 10.08C87.7777 9.776 87.8657 9.484 87.8977 9.204ZM90.3542 6H91.3142V12H90.3542V6ZM93.3782 5.88C93.6982 5.88 93.9862 5.928 94.2422 6.024C94.4982 6.12 94.7142 6.26 94.8902 6.444C95.0662 6.628 95.2022 6.852 95.2982 7.116C95.3942 7.372 95.4422 7.664 95.4422 7.992V12H94.4822V8.232C94.4822 7.768 94.3742 7.42 94.1582 7.188C93.9422 6.956 93.6182 6.84 93.1862 6.84C92.8582 6.84 92.5542 6.924 92.2742 7.092C91.9942 7.26 91.7622 7.492 91.5782 7.788C91.4022 8.076 91.2942 8.412 91.2542 8.796L91.2422 8.1C91.2822 7.764 91.3622 7.46 91.4822 7.188C91.6102 6.916 91.7662 6.684 91.9502 6.492C92.1422 6.292 92.3582 6.14 92.5982 6.036C92.8462 5.932 93.1062 5.88 93.3782 5.88ZM97.4102 5.88C97.7302 5.88 98.0182 5.928 98.2742 6.024C98.5302 6.12 98.7462 6.26 98.9222 6.444C99.0982 6.628 99.2342 6.852 99.3302 7.116C99.4262 7.372 99.4742 7.664 99.4742 7.992V12H98.5142V8.232C98.5142 7.768 98.4062 7.42 98.1902 7.188C97.9742 6.956 97.6502 6.84 97.2182 6.84C96.8902 6.84 96.5862 6.924 96.3062 7.092C96.0262 7.26 95.7942 7.492 95.6102 7.788C95.4342 8.076 95.3262 8.412 95.2862 8.796L95.2742 8.1C95.3142 7.764 95.3942 7.46 95.5142 7.188C95.6422 6.916 95.7982 6.684 95.9822 6.492C96.1742 6.292 96.3902 6.14 96.6302 6.036C96.8782 5.932 97.1382 5.88 97.4102 5.88ZM105.818 12.12C105.338 12.12 104.898 11.988 104.498 11.724C104.106 11.452 103.794 11.084 103.562 10.62C103.33 10.148 103.214 9.612 103.214 9.012C103.214 8.412 103.326 7.876 103.55 7.404C103.774 6.932 104.082 6.56 104.474 6.288C104.866 6.016 105.314 5.88 105.818 5.88C106.266 5.88 106.63 5.964 106.91 6.132C107.198 6.292 107.418 6.516 107.57 6.804C107.722 7.092 107.826 7.424 107.882 7.8C107.946 8.176 107.978 8.58 107.978 9.012C107.978 9.316 107.946 9.648 107.882 10.008C107.818 10.36 107.706 10.7 107.546 11.028C107.394 11.348 107.178 11.612 106.898 11.82C106.618 12.02 106.258 12.12 105.818 12.12ZM106.058 11.208C106.466 11.208 106.802 11.108 107.066 10.908C107.338 10.708 107.538 10.444 107.666 10.116C107.794 9.78 107.858 9.412 107.858 9.012C107.858 8.572 107.79 8.188 107.654 7.86C107.526 7.524 107.326 7.264 107.054 7.08C106.79 6.888 106.458 6.792 106.058 6.792C105.458 6.792 104.994 7.004 104.666 7.428C104.338 7.844 104.174 8.372 104.174 9.012C104.174 9.436 104.254 9.816 104.414 10.152C104.582 10.48 104.806 10.74 105.086 10.932C105.374 11.116 105.698 11.208 106.058 11.208ZM107.858 3.6H108.818V12H107.942C107.926 11.824 107.906 11.616 107.882 11.376C107.866 11.136 107.858 10.944 107.858 10.8V3.6ZM114.805 10.068H115.705C115.641 10.46 115.497 10.812 115.273 11.124C115.057 11.428 114.769 11.672 114.409 11.856C114.057 12.032 113.649 12.12 113.185 12.12C112.625 12.12 112.121 11.988 111.673 11.724C111.225 11.452 110.869 11.084 110.605 10.62C110.349 10.148 110.221 9.612 110.221 9.012C110.221 8.412 110.345 7.876 110.593 7.404C110.849 6.932 111.197 6.56 111.637 6.288C112.077 6.016 112.573 5.88 113.125 5.88C113.709 5.88 114.201 6.012 114.601 6.276C115.009 6.532 115.309 6.912 115.501 7.416C115.701 7.912 115.781 8.524 115.741 9.252H111.181C111.221 9.644 111.329 9.988 111.505 10.284C111.681 10.58 111.913 10.812 112.201 10.98C112.489 11.14 112.817 11.22 113.185 11.22C113.593 11.22 113.937 11.116 114.217 10.908C114.505 10.692 114.701 10.412 114.805 10.068ZM113.161 6.78C112.665 6.78 112.249 6.924 111.913 7.212C111.577 7.5 111.353 7.892 111.241 8.388H114.757C114.725 7.86 114.553 7.46 114.241 7.188C113.937 6.916 113.577 6.78 113.161 6.78ZM119.979 12.12C119.539 12.12 119.179 12.02 118.899 11.82C118.619 11.612 118.399 11.348 118.239 11.028C118.087 10.7 117.979 10.36 117.915 10.008C117.851 9.648 117.819 9.316 117.819 9.012C117.819 8.58 117.847 8.176 117.903 7.8C117.967 7.424 118.075 7.092 118.227 6.804C118.379 6.516 118.595 6.292 118.875 6.132C119.163 5.964 119.531 5.88 119.979 5.88C120.459 5.88 120.895 6.016 121.287 6.288C121.679 6.56 121.991 6.932 122.223 7.404C122.463 7.876 122.583 8.412 122.583 9.012C122.583 9.612 122.463 10.148 122.223 10.62C121.983 11.084 121.663 11.452 121.263 11.724C120.871 11.988 120.443 12.12 119.979 12.12ZM119.739 11.208C120.107 11.208 120.431 11.116 120.711 10.932C120.999 10.74 121.223 10.48 121.383 10.152C121.543 9.816 121.623 9.436 121.623 9.012C121.623 8.372 121.459 7.844 121.131 7.428C120.803 7.004 120.339 6.792 119.739 6.792C119.387 6.792 119.075 6.888 118.803 7.08C118.531 7.264 118.319 7.524 118.167 7.86C118.015 8.188 117.939 8.572 117.939 9.012C117.939 9.412 118.003 9.78 118.131 10.116C118.267 10.444 118.467 10.708 118.731 10.908C118.995 11.108 119.331 11.208 119.739 11.208ZM116.979 6H117.903L117.939 7.26V14.4H116.979V6ZM126.415 12.12C125.903 12.12 125.423 11.996 124.975 11.748C124.527 11.5 124.163 11.144 123.883 10.68C123.611 10.208 123.475 9.652 123.475 9.012C123.475 8.372 123.611 7.82 123.883 7.356C124.163 6.884 124.527 6.52 124.975 6.264C125.423 6.008 125.903 5.88 126.415 5.88C126.927 5.88 127.403 6.008 127.843 6.264C128.291 6.52 128.651 6.884 128.923 7.356C129.195 7.82 129.331 8.372 129.331 9.012C129.331 9.652 129.195 10.208 128.923 10.68C128.651 11.144 128.291 11.5 127.843 11.748C127.403 11.996 126.927 12.12 126.415 12.12ZM126.415 11.22C126.751 11.22 127.067 11.136 127.363 10.968C127.659 10.8 127.899 10.552 128.083 10.224C128.275 9.888 128.371 9.484 128.371 9.012C128.371 8.54 128.275 8.14 128.083 7.812C127.899 7.476 127.659 7.22 127.363 7.044C127.067 6.868 126.751 6.78 126.415 6.78C126.079 6.78 125.759 6.868 125.455 7.044C125.159 7.212 124.915 7.464 124.723 7.8C124.531 8.128 124.435 8.532 124.435 9.012C124.435 9.484 124.527 9.888 124.711 10.224C124.903 10.552 125.151 10.8 125.455 10.968C125.759 11.136 126.079 11.22 126.415 11.22ZM130.262 10.068H131.15C131.174 10.412 131.302 10.692 131.534 10.908C131.774 11.124 132.118 11.232 132.566 11.232C132.838 11.232 133.05 11.196 133.202 11.124C133.362 11.052 133.478 10.956 133.55 10.836C133.622 10.708 133.658 10.568 133.658 10.416C133.658 10.232 133.61 10.088 133.514 9.984C133.426 9.872 133.302 9.78 133.142 9.708C132.99 9.636 132.814 9.568 132.614 9.504C132.382 9.416 132.142 9.324 131.894 9.228C131.654 9.124 131.426 9.004 131.21 8.868C131.002 8.724 130.834 8.552 130.706 8.352C130.578 8.144 130.514 7.896 130.514 7.608C130.514 7.368 130.562 7.144 130.658 6.936C130.754 6.72 130.89 6.536 131.066 6.384C131.25 6.224 131.462 6.1 131.702 6.012C131.95 5.924 132.222 5.88 132.518 5.88C132.918 5.88 133.254 5.96 133.526 6.12C133.806 6.28 134.018 6.508 134.162 6.804C134.314 7.092 134.394 7.428 134.402 7.812H133.574C133.518 7.452 133.402 7.192 133.226 7.032C133.058 6.864 132.814 6.78 132.494 6.78C132.166 6.78 131.914 6.852 131.738 6.996C131.562 7.14 131.474 7.332 131.474 7.572C131.474 7.748 131.538 7.896 131.666 8.016C131.794 8.128 131.958 8.232 132.158 8.328C132.366 8.416 132.586 8.508 132.818 8.604C133.05 8.7 133.274 8.796 133.49 8.892C133.706 8.988 133.898 9.1 134.066 9.228C134.234 9.356 134.366 9.516 134.462 9.708C134.566 9.892 134.618 10.124 134.618 10.404C134.618 10.74 134.538 11.04 134.378 11.304C134.226 11.56 133.998 11.76 133.694 11.904C133.398 12.048 133.034 12.12 132.602 12.12C132.21 12.12 131.874 12.072 131.594 11.976C131.322 11.872 131.094 11.74 130.91 11.58C130.726 11.412 130.582 11.236 130.478 11.052C130.382 10.868 130.318 10.688 130.286 10.512C130.254 10.336 130.246 10.188 130.262 10.068ZM137.034 3.6V4.764H135.786V3.6H137.034ZM135.93 6H136.89V12H135.93V6ZM138.11 6H141.638V6.9H138.11V6ZM139.394 4.44H140.354V12H139.394V4.44ZM147.896 12.12C147.384 12.12 146.904 11.996 146.456 11.748C146.008 11.5 145.644 11.144 145.364 10.68C145.092 10.208 144.956 9.652 144.956 9.012C144.956 8.372 145.092 7.82 145.364 7.356C145.644 6.884 146.008 6.52 146.456 6.264C146.904 6.008 147.384 5.88 147.896 5.88C148.408 5.88 148.884 6.008 149.324 6.264C149.772 6.52 150.132 6.884 150.404 7.356C150.676 7.82 150.812 8.372 150.812 9.012C150.812 9.652 150.676 10.208 150.404 10.68C150.132 11.144 149.772 11.5 149.324 11.748C148.884 11.996 148.408 12.12 147.896 12.12ZM147.896 11.22C148.232 11.22 148.548 11.136 148.844 10.968C149.14 10.8 149.38 10.552 149.564 10.224C149.756 9.888 149.852 9.484 149.852 9.012C149.852 8.54 149.756 8.14 149.564 7.812C149.38 7.476 149.14 7.22 148.844 7.044C148.548 6.868 148.232 6.78 147.896 6.78C147.56 6.78 147.24 6.868 146.936 7.044C146.64 7.212 146.396 7.464 146.204 7.8C146.012 8.128 145.916 8.532 145.916 9.012C145.916 9.484 146.008 9.888 146.192 10.224C146.384 10.552 146.632 10.8 146.936 10.968C147.24 11.136 147.56 11.22 147.896 11.22ZM151.493 6H155.021V6.9H151.493V6ZM154.601 3.6H155.153V4.56H154.601C154.401 4.552 154.217 4.58 154.049 4.644C153.889 4.708 153.761 4.82 153.665 4.98C153.569 5.132 153.521 5.352 153.521 5.64V12H152.561V5.64C152.561 5.16 152.645 4.772 152.813 4.476C152.989 4.172 153.229 3.952 153.533 3.816C153.845 3.672 154.201 3.6 154.601 3.6ZM212.857 12.12C212.385 12.12 211.949 11.988 211.549 11.724C211.157 11.452 210.841 11.084 210.601 10.62C210.369 10.148 210.253 9.612 210.253 9.012C210.253 8.412 210.373 7.876 210.613 7.404C210.853 6.932 211.177 6.56 211.585 6.288C212.001 6.016 212.465 5.88 212.977 5.88C213.537 5.88 213.961 6.024 214.249 6.312C214.545 6.592 214.745 6.968 214.849 7.44C214.961 7.912 215.017 8.436 215.017 9.012C215.017 9.316 214.985 9.648 214.921 10.008C214.857 10.36 214.745 10.7 214.585 11.028C214.433 11.348 214.217 11.612 213.937 11.82C213.657 12.02 213.297 12.12 212.857 12.12ZM213.097 11.208C213.505 11.208 213.841 11.108 214.105 10.908C214.377 10.708 214.577 10.444 214.705 10.116C214.833 9.78 214.897 9.412 214.897 9.012C214.897 8.572 214.829 8.188 214.693 7.86C214.565 7.524 214.365 7.264 214.093 7.08C213.829 6.888 213.497 6.792 213.097 6.792C212.497 6.792 212.033 7.004 211.705 7.428C211.377 7.844 211.213 8.372 211.213 9.012C211.213 9.436 211.293 9.816 211.453 10.152C211.621 10.48 211.845 10.74 212.125 10.932C212.413 11.116 212.737 11.208 213.097 11.208ZM214.897 6H215.857V12H214.981C214.981 12 214.973 11.928 214.957 11.784C214.949 11.64 214.937 11.472 214.921 11.28C214.905 11.088 214.897 10.928 214.897 10.8V6ZM217.421 6H218.381V12H217.421V6ZM220.445 5.88C220.765 5.88 221.053 5.928 221.309 6.024C221.565 6.12 221.781 6.26 221.957 6.444C222.133 6.628 222.269 6.852 222.365 7.116C222.461 7.372 222.509 7.664 222.509 7.992V12H221.549V8.232C221.549 7.768 221.441 7.42 221.225 7.188C221.009 6.956 220.685 6.84 220.253 6.84C219.925 6.84 219.621 6.924 219.341 7.092C219.061 7.26 218.829 7.492 218.645 7.788C218.469 8.076 218.361 8.412 218.321 8.796L218.309 8.1C218.349 7.764 218.429 7.46 218.549 7.188C218.677 6.916 218.833 6.684 219.017 6.492C219.209 6.292 219.425 6.14 219.665 6.036C219.913 5.932 220.173 5.88 220.445 5.88ZM226.333 12.12C225.853 12.12 225.413 11.988 225.013 11.724C224.621 11.452 224.309 11.084 224.077 10.62C223.845 10.148 223.729 9.612 223.729 9.012C223.729 8.412 223.841 7.876 224.065 7.404C224.289 6.932 224.597 6.56 224.989 6.288C225.381 6.016 225.829 5.88 226.333 5.88C226.781 5.88 227.145 5.964 227.425 6.132C227.713 6.292 227.933 6.516 228.085 6.804C228.237 7.092 228.341 7.424 228.397 7.8C228.461 8.176 228.493 8.58 228.493 9.012C228.493 9.316 228.461 9.648 228.397 10.008C228.333 10.36 228.221 10.7 228.061 11.028C227.909 11.348 227.693 11.612 227.413 11.82C227.133 12.02 226.773 12.12 226.333 12.12ZM226.573 11.208C226.981 11.208 227.317 11.108 227.581 10.908C227.853 10.708 228.053 10.444 228.181 10.116C228.309 9.78 228.373 9.412 228.373 9.012C228.373 8.572 228.305 8.188 228.169 7.86C228.041 7.524 227.841 7.264 227.569 7.08C227.305 6.888 226.973 6.792 226.573 6.792C225.973 6.792 225.509 7.004 225.181 7.428C224.853 7.844 224.689 8.372 224.689 9.012C224.689 9.436 224.769 9.816 224.929 10.152C225.097 10.48 225.321 10.74 225.601 10.932C225.889 11.116 226.213 11.208 226.573 11.208ZM228.373 3.6H229.333V12H228.457C228.441 11.824 228.421 11.616 228.397 11.376C228.381 11.136 228.373 10.944 228.373 10.8V3.6ZM238.921 9.744C238.865 10.24 238.705 10.668 238.441 11.028C238.185 11.38 237.861 11.652 237.469 11.844C237.077 12.028 236.653 12.12 236.197 12.12C235.685 12.12 235.205 11.996 234.757 11.748C234.309 11.5 233.945 11.144 233.665 10.68C233.393 10.208 233.257 9.652 233.257 9.012C233.257 8.372 233.393 7.82 233.665 7.356C233.945 6.884 234.309 6.52 234.757 6.264C235.205 6.008 235.685 5.88 236.197 5.88C236.653 5.88 237.073 5.976 237.457 6.168C237.849 6.36 238.173 6.632 238.429 6.984C238.693 7.336 238.857 7.756 238.921 8.244H238.045C237.909 7.788 237.673 7.432 237.337 7.176C237.001 6.912 236.621 6.78 236.197 6.78C235.853 6.78 235.529 6.868 235.225 7.044C234.921 7.22 234.677 7.476 234.493 7.812C234.309 8.14 234.217 8.54 234.217 9.012C234.217 9.476 234.309 9.876 234.493 10.212C234.677 10.54 234.917 10.792 235.213 10.968C235.517 11.136 235.845 11.22 236.197 11.22C236.685 11.22 237.081 11.092 237.385 10.836C237.697 10.572 237.921 10.208 238.057 9.744H238.921ZM245.231 12H244.271V6H245.231V12ZM244.331 9.204L244.343 9.54C244.335 9.636 244.311 9.784 244.271 9.984C244.239 10.184 244.179 10.408 244.091 10.656C244.011 10.896 243.891 11.128 243.731 11.352C243.579 11.576 243.379 11.76 243.131 11.904C242.891 12.048 242.591 12.12 242.231 12.12C241.999 12.12 241.759 12.084 241.511 12.012C241.271 11.948 241.047 11.84 240.839 11.688C240.631 11.528 240.463 11.308 240.335 11.028C240.207 10.748 240.143 10.4 240.143 9.984V6H241.103V9.744C241.103 10.104 241.159 10.388 241.271 10.596C241.391 10.796 241.551 10.94 241.751 11.028C241.951 11.116 242.175 11.16 242.423 11.16C242.831 11.16 243.171 11.056 243.443 10.848C243.715 10.64 243.923 10.384 244.067 10.08C244.211 9.776 244.299 9.484 244.331 9.204ZM246.788 6H247.748V12H246.788V6ZM249.812 5.88C250.132 5.88 250.42 5.928 250.676 6.024C250.932 6.12 251.148 6.26 251.324 6.444C251.5 6.628 251.636 6.852 251.732 7.116C251.828 7.372 251.876 7.664 251.876 7.992V12H250.916V8.232C250.916 7.768 250.808 7.42 250.592 7.188C250.376 6.956 250.052 6.84 249.62 6.84C249.292 6.84 248.988 6.924 248.708 7.092C248.428 7.26 248.196 7.492 248.012 7.788C247.836 8.076 247.728 8.412 247.688 8.796L247.676 8.1C247.716 7.764 247.796 7.46 247.916 7.188C248.044 6.916 248.2 6.684 248.384 6.492C248.576 6.292 248.792 6.14 249.032 6.036C249.28 5.932 249.54 5.88 249.812 5.88ZM253.844 5.88C254.164 5.88 254.452 5.928 254.708 6.024C254.964 6.12 255.18 6.26 255.356 6.444C255.532 6.628 255.668 6.852 255.764 7.116C255.86 7.372 255.908 7.664 255.908 7.992V12H254.948V8.232C254.948 7.768 254.84 7.42 254.624 7.188C254.408 6.956 254.084 6.84 253.652 6.84C253.324 6.84 253.02 6.924 252.74 7.092C252.46 7.26 252.228 7.492 252.044 7.788C251.868 8.076 251.76 8.412 251.72 8.796L251.708 8.1C251.748 7.764 251.828 7.46 251.948 7.188C252.076 6.916 252.232 6.684 252.416 6.492C252.608 6.292 252.824 6.14 253.064 6.036C253.312 5.932 253.572 5.88 253.844 5.88ZM257.464 6H258.424V12H257.464V6ZM260.488 5.88C260.808 5.88 261.096 5.928 261.352 6.024C261.608 6.12 261.824 6.26 262 6.444C262.176 6.628 262.312 6.852 262.408 7.116C262.504 7.372 262.552 7.664 262.552 7.992V12H261.592V8.232C261.592 7.768 261.484 7.42 261.268 7.188C261.052 6.956 260.728 6.84 260.296 6.84C259.968 6.84 259.664 6.924 259.384 7.092C259.104 7.26 258.872 7.492 258.688 7.788C258.512 8.076 258.404 8.412 258.364 8.796L258.352 8.1C258.392 7.764 258.472 7.46 258.592 7.188C258.72 6.916 258.876 6.684 259.06 6.492C259.252 6.292 259.468 6.14 259.708 6.036C259.956 5.932 260.216 5.88 260.488 5.88ZM264.52 5.88C264.84 5.88 265.128 5.928 265.384 6.024C265.64 6.12 265.856 6.26 266.032 6.444C266.208 6.628 266.344 6.852 266.44 7.116C266.536 7.372 266.584 7.664 266.584 7.992V12H265.624V8.232C265.624 7.768 265.516 7.42 265.3 7.188C265.084 6.956 264.76 6.84 264.328 6.84C264 6.84 263.696 6.924 263.416 7.092C263.136 7.26 262.904 7.492 262.72 7.788C262.544 8.076 262.436 8.412 262.396 8.796L262.384 8.1C262.424 7.764 262.504 7.46 262.624 7.188C262.752 6.916 262.908 6.684 263.092 6.492C263.284 6.292 263.5 6.14 263.74 6.036C263.988 5.932 264.248 5.88 264.52 5.88ZM273.227 12H272.267V6H273.227V12ZM272.327 9.204L272.339 9.54C272.331 9.636 272.307 9.784 272.267 9.984C272.235 10.184 272.175 10.408 272.087 10.656C272.007 10.896 271.887 11.128 271.727 11.352C271.575 11.576 271.375 11.76 271.127 11.904C270.887 12.048 270.587 12.12 270.227 12.12C269.995 12.12 269.755 12.084 269.507 12.012C269.267 11.948 269.043 11.84 268.835 11.688C268.627 11.528 268.459 11.308 268.331 11.028C268.203 10.748 268.139 10.4 268.139 9.984V6H269.099V9.744C269.099 10.104 269.155 10.388 269.267 10.596C269.387 10.796 269.547 10.94 269.747 11.028C269.947 11.116 270.171 11.16 270.419 11.16C270.827 11.16 271.167 11.056 271.439 10.848C271.711 10.64 271.919 10.384 272.063 10.08C272.207 9.776 272.295 9.484 272.327 9.204ZM274.904 3.6H275.864V12H274.904V3.6ZM279.818 12.12C279.346 12.12 278.91 11.988 278.51 11.724C278.118 11.452 277.802 11.084 277.562 10.62C277.33 10.148 277.214 9.612 277.214 9.012C277.214 8.412 277.334 7.876 277.574 7.404C277.814 6.932 278.138 6.56 278.546 6.288C278.962 6.016 279.426 5.88 279.938 5.88C280.498 5.88 280.922 6.024 281.21 6.312C281.506 6.592 281.706 6.968 281.81 7.44C281.922 7.912 281.978 8.436 281.978 9.012C281.978 9.316 281.946 9.648 281.882 10.008C281.818 10.36 281.706 10.7 281.546 11.028C281.394 11.348 281.178 11.612 280.898 11.82C280.618 12.02 280.258 12.12 279.818 12.12ZM280.058 11.208C280.466 11.208 280.802 11.108 281.066 10.908C281.338 10.708 281.538 10.444 281.666 10.116C281.794 9.78 281.858 9.412 281.858 9.012C281.858 8.572 281.79 8.188 281.654 7.86C281.526 7.524 281.326 7.264 281.054 7.08C280.79 6.888 280.458 6.792 280.058 6.792C279.458 6.792 278.994 7.004 278.666 7.428C278.338 7.844 278.174 8.372 278.174 9.012C278.174 9.436 278.254 9.816 278.414 10.152C278.582 10.48 278.806 10.74 279.086 10.932C279.374 11.116 279.698 11.208 280.058 11.208ZM281.858 6H282.818V12H281.942C281.942 12 281.934 11.928 281.918 11.784C281.91 11.64 281.898 11.472 281.882 11.28C281.866 11.088 281.858 10.928 281.858 10.8V6ZM283.962 6H287.49V6.9H283.962V6ZM285.246 4.44H286.206V12H285.246V4.44ZM289.812 3.6V4.764H288.564V3.6H289.812ZM288.708 6H289.668V12H288.708V6ZM293.623 11.172H293.335L295.171 6H296.215L293.935 12H293.035L290.767 6H291.811L293.623 11.172ZM301.309 10.068H302.209C302.145 10.46 302.001 10.812 301.777 11.124C301.561 11.428 301.273 11.672 300.913 11.856C300.561 12.032 300.153 12.12 299.689 12.12C299.129 12.12 298.625 11.988 298.177 11.724C297.729 11.452 297.373 11.084 297.109 10.62C296.853 10.148 296.725 9.612 296.725 9.012C296.725 8.412 296.849 7.876 297.097 7.404C297.353 6.932 297.701 6.56 298.141 6.288C298.581 6.016 299.077 5.88 299.629 5.88C300.213 5.88 300.705 6.012 301.105 6.276C301.513 6.532 301.813 6.912 302.005 7.416C302.205 7.912 302.285 8.524 302.245 9.252H297.685C297.725 9.644 297.833 9.988 298.009 10.284C298.185 10.58 298.417 10.812 298.705 10.98C298.993 11.14 299.321 11.22 299.689 11.22C300.097 11.22 300.441 11.116 300.721 10.908C301.009 10.692 301.205 10.412 301.309 10.068ZM299.665 6.78C299.169 6.78 298.753 6.924 298.417 7.212C298.081 7.5 297.857 7.892 297.745 8.388H301.261C301.229 7.86 301.057 7.46 300.745 7.188C300.441 6.916 300.081 6.78 299.665 6.78ZM309.183 12.12C308.743 12.12 308.383 12.02 308.103 11.82C307.823 11.612 307.603 11.348 307.443 11.028C307.291 10.7 307.183 10.36 307.119 10.008C307.055 9.648 307.023 9.316 307.023 9.012C307.023 8.58 307.051 8.176 307.107 7.8C307.171 7.424 307.279 7.092 307.431 6.804C307.583 6.516 307.799 6.292 308.079 6.132C308.367 5.964 308.735 5.88 309.183 5.88C309.687 5.88 310.135 6.016 310.527 6.288C310.919 6.56 311.227 6.932 311.451 7.404C311.675 7.876 311.787 8.412 311.787 9.012C311.787 9.612 311.671 10.148 311.439 10.62C311.207 11.084 310.895 11.452 310.503 11.724C310.111 11.988 309.671 12.12 309.183 12.12ZM308.943 11.208C309.311 11.208 309.635 11.116 309.915 10.932C310.195 10.74 310.415 10.48 310.575 10.152C310.743 9.816 310.827 9.436 310.827 9.012C310.827 8.372 310.663 7.844 310.335 7.428C310.007 7.004 309.543 6.792 308.943 6.792C308.543 6.792 308.207 6.888 307.935 7.08C307.671 7.264 307.471 7.524 307.335 7.86C307.207 8.188 307.143 8.572 307.143 9.012C307.143 9.412 307.207 9.78 307.335 10.116C307.471 10.444 307.671 10.708 307.935 10.908C308.199 11.108 308.535 11.208 308.943 11.208ZM307.143 3.6V10.8C307.143 10.944 307.131 11.136 307.107 11.376C307.091 11.616 307.075 11.824 307.059 12H306.183V3.6H307.143ZM315.278 12.12C314.806 12.12 314.37 11.988 313.97 11.724C313.578 11.452 313.262 11.084 313.022 10.62C312.79 10.148 312.674 9.612 312.674 9.012C312.674 8.412 312.794 7.876 313.034 7.404C313.274 6.932 313.598 6.56 314.006 6.288C314.422 6.016 314.886 5.88 315.398 5.88C315.958 5.88 316.382 6.024 316.67 6.312C316.966 6.592 317.166 6.968 317.27 7.44C317.382 7.912 317.438 8.436 317.438 9.012C317.438 9.316 317.406 9.648 317.342 10.008C317.278 10.36 317.166 10.7 317.006 11.028C316.854 11.348 316.638 11.612 316.358 11.82C316.078 12.02 315.718 12.12 315.278 12.12ZM315.518 11.208C315.926 11.208 316.262 11.108 316.526 10.908C316.798 10.708 316.998 10.444 317.126 10.116C317.254 9.78 317.318 9.412 317.318 9.012C317.318 8.572 317.25 8.188 317.114 7.86C316.986 7.524 316.786 7.264 316.514 7.08C316.25 6.888 315.918 6.792 315.518 6.792C314.918 6.792 314.454 7.004 314.126 7.428C313.798 7.844 313.634 8.372 313.634 9.012C313.634 9.436 313.714 9.816 313.874 10.152C314.042 10.48 314.266 10.74 314.546 10.932C314.834 11.116 315.158 11.208 315.518 11.208ZM317.318 6H318.278V12H317.402C317.402 12 317.394 11.928 317.378 11.784C317.37 11.64 317.358 11.472 317.342 11.28C317.326 11.088 317.318 10.928 317.318 10.8V6ZM319.963 3.6H320.923V12H319.963V3.6ZM324.876 12.12C324.404 12.12 323.968 11.988 323.568 11.724C323.176 11.452 322.86 11.084 322.62 10.62C322.388 10.148 322.272 9.612 322.272 9.012C322.272 8.412 322.392 7.876 322.632 7.404C322.872 6.932 323.196 6.56 323.604 6.288C324.02 6.016 324.484 5.88 324.996 5.88C325.556 5.88 325.98 6.024 326.268 6.312C326.564 6.592 326.764 6.968 326.868 7.44C326.98 7.912 327.036 8.436 327.036 9.012C327.036 9.316 327.004 9.648 326.94 10.008C326.876 10.36 326.764 10.7 326.604 11.028C326.452 11.348 326.236 11.612 325.956 11.82C325.676 12.02 325.316 12.12 324.876 12.12ZM325.116 11.208C325.524 11.208 325.86 11.108 326.124 10.908C326.396 10.708 326.596 10.444 326.724 10.116C326.852 9.78 326.916 9.412 326.916 9.012C326.916 8.572 326.848 8.188 326.712 7.86C326.584 7.524 326.384 7.264 326.112 7.08C325.848 6.888 325.516 6.792 325.116 6.792C324.516 6.792 324.052 7.004 323.724 7.428C323.396 7.844 323.232 8.372 323.232 9.012C323.232 9.436 323.312 9.816 323.472 10.152C323.64 10.48 323.864 10.74 324.144 10.932C324.432 11.116 324.756 11.208 325.116 11.208ZM326.916 6H327.876V12H327C327 12 326.992 11.928 326.976 11.784C326.968 11.64 326.956 11.472 326.94 11.28C326.924 11.088 326.916 10.928 326.916 10.8V6ZM329.44 6H330.4V12H329.44V6ZM332.464 5.88C332.784 5.88 333.072 5.928 333.328 6.024C333.584 6.12 333.8 6.26 333.976 6.444C334.152 6.628 334.288 6.852 334.384 7.116C334.48 7.372 334.528 7.664 334.528 7.992V12H333.568V8.232C333.568 7.768 333.46 7.42 333.244 7.188C333.028 6.956 332.704 6.84 332.272 6.84C331.944 6.84 331.64 6.924 331.36 7.092C331.08 7.26 330.848 7.492 330.664 7.788C330.488 8.076 330.38 8.412 330.34 8.796L330.328 8.1C330.368 7.764 330.448 7.46 330.568 7.188C330.696 6.916 330.852 6.684 331.036 6.492C331.228 6.292 331.444 6.14 331.684 6.036C331.932 5.932 332.192 5.88 332.464 5.88ZM341.413 9.744C341.357 10.24 341.197 10.668 340.933 11.028C340.677 11.38 340.353 11.652 339.961 11.844C339.569 12.028 339.145 12.12 338.689 12.12C338.177 12.12 337.697 11.996 337.249 11.748C336.801 11.5 336.437 11.144 336.157 10.68C335.885 10.208 335.749 9.652 335.749 9.012C335.749 8.372 335.885 7.82 336.157 7.356C336.437 6.884 336.801 6.52 337.249 6.264C337.697 6.008 338.177 5.88 338.689 5.88C339.145 5.88 339.565 5.976 339.949 6.168C340.341 6.36 340.665 6.632 340.921 6.984C341.185 7.336 341.349 7.756 341.413 8.244H340.537C340.401 7.788 340.165 7.432 339.829 7.176C339.493 6.912 339.113 6.78 338.689 6.78C338.345 6.78 338.021 6.868 337.717 7.044C337.413 7.22 337.169 7.476 336.985 7.812C336.801 8.14 336.709 8.54 336.709 9.012C336.709 9.476 336.801 9.876 336.985 10.212C337.169 10.54 337.409 10.792 337.705 10.968C338.009 11.136 338.337 11.22 338.689 11.22C339.177 11.22 339.573 11.092 339.877 10.836C340.189 10.572 340.413 10.208 340.549 9.744H341.413ZM346.883 10.068H347.783C347.719 10.46 347.575 10.812 347.351 11.124C347.135 11.428 346.847 11.672 346.487 11.856C346.135 12.032 345.727 12.12 345.263 12.12C344.703 12.12 344.199 11.988 343.751 11.724C343.303 11.452 342.947 11.084 342.683 10.62C342.427 10.148 342.299 9.612 342.299 9.012C342.299 8.412 342.423 7.876 342.671 7.404C342.927 6.932 343.275 6.56 343.715 6.288C344.155 6.016 344.651 5.88 345.203 5.88C345.787 5.88 346.279 6.012 346.679 6.276C347.087 6.532 347.387 6.912 347.579 7.416C347.779 7.912 347.859 8.524 347.819 9.252H343.259C343.299 9.644 343.407 9.988 343.583 10.284C343.759 10.58 343.991 10.812 344.279 10.98C344.567 11.14 344.895 11.22 345.263 11.22C345.671 11.22 346.015 11.116 346.295 10.908C346.583 10.692 346.779 10.412 346.883 10.068ZM345.239 6.78C344.743 6.78 344.327 6.924 343.991 7.212C343.655 7.5 343.431 7.892 343.319 8.388H346.835C346.803 7.86 346.631 7.46 346.319 7.188C346.015 6.916 345.655 6.78 345.239 6.78ZM354.181 12.12C353.669 12.12 353.189 11.996 352.741 11.748C352.293 11.5 351.929 11.144 351.649 10.68C351.377 10.208 351.241 9.652 351.241 9.012C351.241 8.372 351.377 7.82 351.649 7.356C351.929 6.884 352.293 6.52 352.741 6.264C353.189 6.008 353.669 5.88 354.181 5.88C354.693 5.88 355.169 6.008 355.609 6.264C356.057 6.52 356.417 6.884 356.689 7.356C356.961 7.82 357.097 8.372 357.097 9.012C357.097 9.652 356.961 10.208 356.689 10.68C356.417 11.144 356.057 11.5 355.609 11.748C355.169 11.996 354.693 12.12 354.181 12.12ZM354.181 11.22C354.517 11.22 354.833 11.136 355.129 10.968C355.425 10.8 355.665 10.552 355.849 10.224C356.041 9.888 356.137 9.484 356.137 9.012C356.137 8.54 356.041 8.14 355.849 7.812C355.665 7.476 355.425 7.22 355.129 7.044C354.833 6.868 354.517 6.78 354.181 6.78C353.845 6.78 353.525 6.868 353.221 7.044C352.925 7.212 352.681 7.464 352.489 7.8C352.297 8.128 352.201 8.532 352.201 9.012C352.201 9.484 352.293 9.888 352.477 10.224C352.669 10.552 352.917 10.8 353.221 10.968C353.525 11.136 353.845 11.22 354.181 11.22ZM357.778 6H361.306V6.9H357.778V6ZM360.886 3.6H361.438V4.56H360.886C360.686 4.552 360.502 4.58 360.334 4.644C360.174 4.708 360.046 4.82 359.95 4.98C359.854 5.132 359.806 5.352 359.806 5.64V12H358.846V5.64C358.846 5.16 358.93 4.772 359.098 4.476C359.274 4.172 359.514 3.952 359.818 3.816C360.13 3.672 360.486 3.6 360.886 3.6Z" fill="#9CA3AF"/>
<path d="M158.869 12V8.916H157.933V8.148H158.869V7.164H157.933V6.396H158.869V3.432H160.117L161.257 6.396H162.673V3.432H163.621V6.396H164.557V7.164H163.621V8.148H164.557V8.916H163.621V12H162.361L161.221 8.916H159.805V12H158.869ZM159.805 8.148H160.933L160.573 7.164H159.781L159.805 8.148ZM162.673 10.308H162.721L162.685 8.916H162.181L162.673 10.308ZM159.781 6.396H160.285L159.781 4.908H159.733L159.781 6.396ZM161.893 8.148H162.697L162.673 7.164H161.533L161.893 8.148ZM168.16 12.144C166.432 12.144 165.328 11.064 165.328 9.372H166.192C166.192 10.608 166.948 11.352 168.172 11.352C169.468 11.352 170.308 10.488 170.308 9.216C170.308 8.016 169.528 7.068 168.172 7.068C167.38 7.068 166.66 7.428 166.192 7.944L165.508 7.728L166.54 3.408H170.692V4.2H167.164L166.516 6.9C166.996 6.516 167.62 6.3 168.292 6.3C170.08 6.3 171.184 7.584 171.184 9.192C171.184 10.92 169.96 12.144 168.16 12.144ZM172.264 7.668C172.264 4.98 173.656 3.156 175.84 3.156C178.012 3.156 179.404 4.98 179.404 7.668C179.404 10.368 178.072 12.156 175.84 12.156C173.596 12.156 172.264 10.368 172.264 7.668ZM173.428 7.668C173.428 9.804 174.316 11.1 175.84 11.1C177.364 11.1 178.24 9.804 178.24 7.668C178.24 5.508 177.364 4.212 175.84 4.212C174.316 4.212 173.428 5.508 173.428 7.668ZM182.012 11.532C182.012 12.396 181.364 13.116 180.512 13.224V12.72C181.004 12.636 181.352 12.312 181.352 11.94C181.268 11.988 181.172 12.012 181.028 12.012C180.632 12.012 180.296 11.724 180.296 11.28C180.296 10.8 180.62 10.452 181.1 10.452C181.604 10.452 182.012 10.872 182.012 11.532ZM182.916 7.668C182.916 4.98 184.308 3.156 186.492 3.156C188.664 3.156 190.056 4.98 190.056 7.668C190.056 10.368 188.724 12.156 186.492 12.156C184.248 12.156 182.916 10.368 182.916 7.668ZM184.08 7.668C184.08 9.804 184.968 11.1 186.492 11.1C188.016 11.1 188.892 9.804 188.892 7.668C188.892 5.508 188.016 4.212 186.492 4.212C184.968 4.212 184.08 5.508 184.08 7.668ZM191.236 7.668C191.236 4.98 192.628 3.156 194.812 3.156C196.984 3.156 198.376 4.98 198.376 7.668C198.376 10.368 197.044 12.156 194.812 12.156C192.568 12.156 191.236 10.368 191.236 7.668ZM192.4 7.668C192.4 9.804 193.288 11.1 194.812 11.1C196.336 11.1 197.212 9.804 197.212 7.668C197.212 5.508 196.336 4.212 194.812 4.212C193.288 4.212 192.4 5.508 192.4 7.668ZM199.557 7.668C199.557 4.98 200.949 3.156 203.133 3.156C205.305 3.156 206.697 4.98 206.697 7.668C206.697 10.368 205.365 12.156 203.133 12.156C200.889 12.156 199.557 10.368 199.557 7.668ZM200.721 7.668C200.721 9.804 201.609 11.1 203.133 11.1C204.657 11.1 205.533 9.804 205.533 7.668C205.533 5.508 204.657 4.212 203.133 4.212C201.609 4.212 200.721 5.508 200.721 7.668ZM365.154 12V8.916H364.218V8.148H365.154V7.164H364.218V6.396H365.154V3.432H366.402L367.542 6.396H368.958V3.432H369.906V6.396H370.842V7.164H369.906V8.148H370.842V8.916H369.906V12H368.646L367.506 8.916H366.09V12H365.154ZM366.09 8.148H367.218L366.858 7.164H366.066L366.09 8.148ZM368.958 10.308H369.006L368.97 8.916H368.466L368.958 10.308ZM366.066 6.396H366.57L366.066 4.908H366.018L366.066 6.396ZM368.178 8.148H368.982L368.958 7.164H367.818L368.178 8.148ZM377.805 10.176H376.797V12H375.957V10.176H371.445V9.408L375.645 3.408H376.797V9.408H377.805V10.176ZM372.381 9.408H375.957V4.296L372.381 9.408ZM379.076 7.668C379.076 4.98 380.468 3.156 382.652 3.156C384.824 3.156 386.216 4.98 386.216 7.668C386.216 10.368 384.884 12.156 382.652 12.156C380.408 12.156 379.076 10.368 379.076 7.668ZM380.24 7.668C380.24 9.804 381.128 11.1 382.652 11.1C384.176 11.1 385.052 9.804 385.052 7.668C385.052 5.508 384.176 4.212 382.652 4.212C381.128 4.212 380.24 5.508 380.24 7.668ZM387.397 7.668C387.397 4.98 388.789 3.156 390.973 3.156C393.145 3.156 394.537 4.98 394.537 7.668C394.537 10.368 393.205 12.156 390.973 12.156C388.729 12.156 387.397 10.368 387.397 7.668ZM388.561 7.668C388.561 9.804 389.449 11.1 390.973 11.1C392.497 11.1 393.373 9.804 393.373 7.668C393.373 5.508 392.497 4.212 390.973 4.212C389.449 4.212 388.561 5.508 388.561 7.668ZM397.145 11.532C397.145 12.396 396.497 13.116 395.645 13.224V12.72C396.137 12.636 396.485 12.312 396.485 11.94C396.401 11.988 396.305 12.012 396.161 12.012C395.765 12.012 395.429 11.724 395.429 11.28C395.429 10.8 395.753 10.452 396.233 10.452C396.737 10.452 397.145 10.872 397.145 11.532ZM398.049 7.668C398.049 4.98 399.441 3.156 401.625 3.156C403.797 3.156 405.189 4.98 405.189 7.668C405.189 10.368 403.857 12.156 401.625 12.156C399.381 12.156 398.049 10.368 398.049 7.668ZM399.213 7.668C399.213 9.804 400.101 11.1 401.625 11.1C403.149 11.1 404.025 9.804 404.025 7.668C404.025 5.508 403.149 4.212 401.625 4.212C400.101 4.212 399.213 5.508 399.213 7.668ZM406.369 7.668C406.369 4.98 407.761 3.156 409.945 3.156C412.117 3.156 413.509 4.98 413.509 7.668C413.509 10.368 412.177 12.156 409.945 12.156C407.701 12.156 406.369 10.368 406.369 7.668ZM407.533 7.668C407.533 9.804 408.421 11.1 409.945 11.1C411.469 11.1 412.345 9.804 412.345 7.668C412.345 5.508 411.469 4.212 409.945 4.212C408.421 4.212 407.533 5.508 407.533 7.668ZM414.69 7.668C414.69 4.98 416.082 3.156 418.266 3.156C420.438 3.156 421.83 4.98 421.83 7.668C421.83 10.368 420.498 12.156 418.266 12.156C416.022 12.156 414.69 10.368 414.69 7.668ZM415.854 7.668C415.854 9.804 416.742 11.1 418.266 11.1C419.79 11.1 420.666 9.804 420.666 7.668C420.666 5.508 419.79 4.212 418.266 4.212C416.742 4.212 415.854 5.508 415.854 7.668Z" fill="#6B7280"/>
<path d="M0.2665 4.212H7.0945V5.244H0.2665V4.212ZM3.0985 5.124H4.2625V12H3.0985V5.124ZM9.42897 3.54V4.776H8.00097V3.54H9.42897ZM8.14497 6.012H9.28497V12H8.14497V6.012ZM15.5283 10.056H16.6203C16.5563 10.448 16.4043 10.8 16.1643 11.112C15.9243 11.424 15.6083 11.672 15.2163 11.856C14.8243 12.04 14.3643 12.132 13.8363 12.132C13.2123 12.132 12.6563 12 12.1683 11.736C11.6803 11.472 11.2963 11.108 11.0163 10.644C10.7363 10.18 10.5963 9.64 10.5963 9.024C10.5963 8.4 10.7323 7.856 11.0043 7.392C11.2763 6.92 11.6523 6.552 12.1323 6.288C12.6123 6.024 13.1603 5.892 13.7763 5.892C14.4243 5.892 14.9683 6.02 15.4083 6.276C15.8483 6.532 16.1723 6.912 16.3803 7.416C16.5963 7.912 16.6843 8.532 16.6443 9.276H11.7363C11.7763 9.636 11.8843 9.956 12.0603 10.236C12.2443 10.516 12.4843 10.736 12.7803 10.896C13.0843 11.056 13.4323 11.136 13.8243 11.136C14.2643 11.136 14.6323 11.036 14.9283 10.836C15.2243 10.636 15.4243 10.376 15.5283 10.056ZM13.7883 6.876C13.2683 6.876 12.8363 7.016 12.4923 7.296C12.1483 7.568 11.9203 7.932 11.8083 8.388H15.4923C15.4603 7.9 15.2843 7.528 14.9643 7.272C14.6443 7.008 14.2523 6.876 13.7883 6.876ZM17.8576 6.012H19.0096V12H17.8576V6.012ZM21.0376 7.032C20.6216 7.032 20.2656 7.128 19.9696 7.32C19.6816 7.512 19.4496 7.748 19.2736 8.028C19.1056 8.308 18.9936 8.576 18.9376 8.832L18.9256 8.148C18.9336 8.068 18.9536 7.944 18.9856 7.776C19.0256 7.6 19.0936 7.404 19.1896 7.188C19.2856 6.972 19.4136 6.768 19.5736 6.576C19.7336 6.376 19.9336 6.212 20.1736 6.084C20.4136 5.956 20.7016 5.892 21.0376 5.892V7.032ZM27.521 10.188L25.805 11.28L25.733 11.004H29.549V12H24.509V11.004C25.093 10.636 25.613 10.324 26.069 10.068C26.525 9.804 26.909 9.568 27.221 9.36C27.541 9.152 27.785 8.94 27.953 8.724C28.121 8.508 28.205 8.26 28.205 7.98C28.205 7.772 28.157 7.588 28.061 7.428C27.965 7.26 27.817 7.132 27.617 7.044C27.417 6.948 27.161 6.9 26.849 6.9C26.449 6.9 26.113 7.008 25.841 7.224C25.569 7.432 25.429 7.712 25.421 8.064H24.377C24.345 7.648 24.433 7.276 24.641 6.948C24.849 6.62 25.145 6.36 25.529 6.168C25.913 5.976 26.349 5.88 26.837 5.88C27.229 5.88 27.581 5.932 27.893 6.036C28.205 6.14 28.469 6.284 28.685 6.468C28.909 6.644 29.077 6.856 29.189 7.104C29.309 7.344 29.369 7.604 29.369 7.884C29.369 8.124 29.329 8.344 29.249 8.544C29.169 8.744 29.049 8.936 28.889 9.12C28.737 9.296 28.545 9.472 28.313 9.648C28.089 9.824 27.825 10.004 27.521 10.188Z" fill="#FACC15"/>
<path d="M35.6678 5H33.0625L34.7993 8.18182L33.0625 12H35.6678L37.1151 8.18182L35.6678 5Z" fill="#FACC15"/>
<path d="M39.6678 5H37.0625L38.7993 8.18182L37.0625 12H39.6678L41.1151 8.18182L39.6678 5Z" fill="#FACC15"/>
</svg>
