<svg width="427" height="17" viewBox="0 0 427 17" fill="none" xmlns="http://www.w3.org/2000/svg">
<path d="M51.5345 11.799H51.1505L54.7025 4.575H55.6625V12.375H54.7025V6.243L54.8945 6.291L51.8225 12.375H50.8625L47.7905 6.303L47.9825 6.255V12.375H47.0225V4.575H47.9825L51.5345 11.799ZM59.6691 12.495C59.1971 12.495 58.7611 12.363 58.3611 12.099C57.9691 11.827 57.6531 11.459 57.4131 10.995C57.1811 10.523 57.0651 9.987 57.0651 9.387C57.0651 8.787 57.1851 8.251 57.4251 7.779C57.6651 7.307 57.9891 6.935 58.3971 6.663C58.8131 6.391 59.2771 6.255 59.7891 6.255C60.3491 6.255 60.7731 6.399 61.0611 6.687C61.3571 6.967 61.5571 7.343 61.6611 7.815C61.7731 8.287 61.8291 8.811 61.8291 9.387C61.8291 9.691 61.7971 10.023 61.7331 10.383C61.6691 10.735 61.5571 11.075 61.3971 11.403C61.2451 11.723 61.0291 11.987 60.7491 12.195C60.4691 12.395 60.1091 12.495 59.6691 12.495ZM59.9091 11.583C60.3171 11.583 60.6531 11.483 60.9171 11.283C61.1891 11.083 61.3891 10.819 61.5171 10.491C61.6451 10.155 61.7091 9.787 61.7091 9.387C61.7091 8.947 61.6411 8.563 61.5051 8.235C61.3771 7.899 61.1771 7.639 60.9051 7.455C60.6411 7.263 60.3091 7.167 59.9091 7.167C59.3091 7.167 58.8451 7.379 58.5171 7.803C58.1891 8.219 58.0251 8.747 58.0251 9.387C58.0251 9.811 58.1051 10.191 58.2651 10.527C58.4331 10.855 58.6571 11.115 58.9371 11.307C59.2251 11.491 59.5491 11.583 59.9091 11.583ZM61.7091 6.375H62.6691V12.375H61.7931C61.7931 12.375 61.7851 12.303 61.7691 12.159C61.7611 12.015 61.7491 11.847 61.7331 11.655C61.7171 11.463 61.7091 11.303 61.7091 11.175V6.375ZM69.1531 6.375L66.8251 9.639L64.9171 12.375H63.7531L66.2371 8.931L67.9891 6.375H69.1531ZM63.7531 6.375H64.9531L66.8131 8.955L69.2731 12.375H68.1091L66.1651 9.639L63.7531 6.375ZM71.5383 3.975V5.139H70.2903V3.975H71.5383ZM70.4343 6.375H71.3943V12.375H70.4343V6.375ZM73.0339 6.375H73.9939V12.375H73.0339V6.375ZM76.0579 6.255C76.3779 6.255 76.6659 6.303 76.9219 6.399C77.1779 6.495 77.3939 6.635 77.5699 6.819C77.7459 7.003 77.8819 7.227 77.9779 7.491C78.0739 7.747 78.1219 8.039 78.1219 8.367V12.375H77.1619V8.607C77.1619 8.143 77.0539 7.795 76.8379 7.563C76.6219 7.331 76.2979 7.215 75.8659 7.215C75.5379 7.215 75.2339 7.299 74.9539 7.467C74.6739 7.635 74.4419 7.867 74.2579 8.163C74.0819 8.451 73.9739 8.787 73.9339 9.171L73.9219 8.475C73.9619 8.139 74.0419 7.835 74.1619 7.563C74.2899 7.291 74.4459 7.059 74.6299 6.867C74.8219 6.667 75.0379 6.515 75.2779 6.411C75.5259 6.307 75.7859 6.255 76.0579 6.255ZM80.0899 6.255C80.4099 6.255 80.6979 6.303 80.9539 6.399C81.2099 6.495 81.4259 6.635 81.6019 6.819C81.7779 7.003 81.9139 7.227 82.0099 7.491C82.1059 7.747 82.1539 8.039 82.1539 8.367V12.375H81.1939V8.607C81.1939 8.143 81.0859 7.795 80.8699 7.563C80.6539 7.331 80.3299 7.215 79.8979 7.215C79.5699 7.215 79.2659 7.299 78.9859 7.467C78.7059 7.635 78.4739 7.867 78.2899 8.163C78.1139 8.451 78.0059 8.787 77.9659 9.171L77.9539 8.475C77.9939 8.139 78.0739 7.835 78.1939 7.563C78.3219 7.291 78.4779 7.059 78.6619 6.867C78.8539 6.667 79.0699 6.515 79.3099 6.411C79.5579 6.307 79.8179 6.255 80.0899 6.255ZM88.7977 12.375H87.8377V6.375H88.7977V12.375ZM87.8977 9.579L87.9097 9.915C87.9017 10.011 87.8777 10.159 87.8377 10.359C87.8057 10.559 87.7457 10.783 87.6577 11.031C87.5777 11.271 87.4577 11.503 87.2977 11.727C87.1457 11.951 86.9457 12.135 86.6977 12.279C86.4577 12.423 86.1577 12.495 85.7977 12.495C85.5657 12.495 85.3257 12.459 85.0777 12.387C84.8377 12.323 84.6137 12.215 84.4057 12.063C84.1977 11.903 84.0297 11.683 83.9017 11.403C83.7737 11.123 83.7097 10.775 83.7097 10.359V6.375H84.6697V10.119C84.6697 10.479 84.7257 10.763 84.8377 10.971C84.9577 11.171 85.1177 11.315 85.3177 11.403C85.5177 11.491 85.7417 11.535 85.9897 11.535C86.3977 11.535 86.7377 11.431 87.0097 11.223C87.2817 11.015 87.4897 10.759 87.6337 10.455C87.7777 10.151 87.8657 9.859 87.8977 9.579ZM90.3542 6.375H91.3142V12.375H90.3542V6.375ZM93.3782 6.255C93.6982 6.255 93.9862 6.303 94.2422 6.399C94.4982 6.495 94.7142 6.635 94.8902 6.819C95.0662 7.003 95.2022 7.227 95.2982 7.491C95.3942 7.747 95.4422 8.039 95.4422 8.367V12.375H94.4822V8.607C94.4822 8.143 94.3742 7.795 94.1582 7.563C93.9422 7.331 93.6182 7.215 93.1862 7.215C92.8582 7.215 92.5542 7.299 92.2742 7.467C91.9942 7.635 91.7622 7.867 91.5782 8.163C91.4022 8.451 91.2942 8.787 91.2542 9.171L91.2422 8.475C91.2822 8.139 91.3622 7.835 91.4822 7.563C91.6102 7.291 91.7662 7.059 91.9502 6.867C92.1422 6.667 92.3582 6.515 92.5982 6.411C92.8462 6.307 93.1062 6.255 93.3782 6.255ZM97.4102 6.255C97.7302 6.255 98.0182 6.303 98.2742 6.399C98.5302 6.495 98.7462 6.635 98.9222 6.819C99.0982 7.003 99.2342 7.227 99.3302 7.491C99.4262 7.747 99.4742 8.039 99.4742 8.367V12.375H98.5142V8.607C98.5142 8.143 98.4062 7.795 98.1902 7.563C97.9742 7.331 97.6502 7.215 97.2182 7.215C96.8902 7.215 96.5862 7.299 96.3062 7.467C96.0262 7.635 95.7942 7.867 95.6102 8.163C95.4342 8.451 95.3262 8.787 95.2862 9.171L95.2742 8.475C95.3142 8.139 95.3942 7.835 95.5142 7.563C95.6422 7.291 95.7982 7.059 95.9822 6.867C96.1742 6.667 96.3902 6.515 96.6302 6.411C96.8782 6.307 97.1382 6.255 97.4102 6.255ZM105.818 12.495C105.338 12.495 104.898 12.363 104.498 12.099C104.106 11.827 103.794 11.459 103.562 10.995C103.33 10.523 103.214 9.987 103.214 9.387C103.214 8.787 103.326 8.251 103.55 7.779C103.774 7.307 104.082 6.935 104.474 6.663C104.866 6.391 105.314 6.255 105.818 6.255C106.266 6.255 106.63 6.339 106.91 6.507C107.198 6.667 107.418 6.891 107.57 7.179C107.722 7.467 107.826 7.799 107.882 8.175C107.946 8.551 107.978 8.955 107.978 9.387C107.978 9.691 107.946 10.023 107.882 10.383C107.818 10.735 107.706 11.075 107.546 11.403C107.394 11.723 107.178 11.987 106.898 12.195C106.618 12.395 106.258 12.495 105.818 12.495ZM106.058 11.583C106.466 11.583 106.802 11.483 107.066 11.283C107.338 11.083 107.538 10.819 107.666 10.491C107.794 10.155 107.858 9.787 107.858 9.387C107.858 8.947 107.79 8.563 107.654 8.235C107.526 7.899 107.326 7.639 107.054 7.455C106.79 7.263 106.458 7.167 106.058 7.167C105.458 7.167 104.994 7.379 104.666 7.803C104.338 8.219 104.174 8.747 104.174 9.387C104.174 9.811 104.254 10.191 104.414 10.527C104.582 10.855 104.806 11.115 105.086 11.307C105.374 11.491 105.698 11.583 106.058 11.583ZM107.858 3.975H108.818V12.375H107.942C107.926 12.199 107.906 11.991 107.882 11.751C107.866 11.511 107.858 11.319 107.858 11.175V3.975ZM114.805 10.443H115.705C115.641 10.835 115.497 11.187 115.273 11.499C115.057 11.803 114.769 12.047 114.409 12.231C114.057 12.407 113.649 12.495 113.185 12.495C112.625 12.495 112.121 12.363 111.673 12.099C111.225 11.827 110.869 11.459 110.605 10.995C110.349 10.523 110.221 9.987 110.221 9.387C110.221 8.787 110.345 8.251 110.593 7.779C110.849 7.307 111.197 6.935 111.637 6.663C112.077 6.391 112.573 6.255 113.125 6.255C113.709 6.255 114.201 6.387 114.601 6.651C115.009 6.907 115.309 7.287 115.501 7.791C115.701 8.287 115.781 8.899 115.741 9.627H111.181C111.221 10.019 111.329 10.363 111.505 10.659C111.681 10.955 111.913 11.187 112.201 11.355C112.489 11.515 112.817 11.595 113.185 11.595C113.593 11.595 113.937 11.491 114.217 11.283C114.505 11.067 114.701 10.787 114.805 10.443ZM113.161 7.155C112.665 7.155 112.249 7.299 111.913 7.587C111.577 7.875 111.353 8.267 111.241 8.763H114.757C114.725 8.235 114.553 7.835 114.241 7.563C113.937 7.291 113.577 7.155 113.161 7.155ZM119.979 12.495C119.539 12.495 119.179 12.395 118.899 12.195C118.619 11.987 118.399 11.723 118.239 11.403C118.087 11.075 117.979 10.735 117.915 10.383C117.851 10.023 117.819 9.691 117.819 9.387C117.819 8.955 117.847 8.551 117.903 8.175C117.967 7.799 118.075 7.467 118.227 7.179C118.379 6.891 118.595 6.667 118.875 6.507C119.163 6.339 119.531 6.255 119.979 6.255C120.459 6.255 120.895 6.391 121.287 6.663C121.679 6.935 121.991 7.307 122.223 7.779C122.463 8.251 122.583 8.787 122.583 9.387C122.583 9.987 122.463 10.523 122.223 10.995C121.983 11.459 121.663 11.827 121.263 12.099C120.871 12.363 120.443 12.495 119.979 12.495ZM119.739 11.583C120.107 11.583 120.431 11.491 120.711 11.307C120.999 11.115 121.223 10.855 121.383 10.527C121.543 10.191 121.623 9.811 121.623 9.387C121.623 8.747 121.459 8.219 121.131 7.803C120.803 7.379 120.339 7.167 119.739 7.167C119.387 7.167 119.075 7.263 118.803 7.455C118.531 7.639 118.319 7.899 118.167 8.235C118.015 8.563 117.939 8.947 117.939 9.387C117.939 9.787 118.003 10.155 118.131 10.491C118.267 10.819 118.467 11.083 118.731 11.283C118.995 11.483 119.331 11.583 119.739 11.583ZM116.979 6.375H117.903L117.939 7.635V14.775H116.979V6.375ZM126.415 12.495C125.903 12.495 125.423 12.371 124.975 12.123C124.527 11.875 124.163 11.519 123.883 11.055C123.611 10.583 123.475 10.027 123.475 9.387C123.475 8.747 123.611 8.195 123.883 7.731C124.163 7.259 124.527 6.895 124.975 6.639C125.423 6.383 125.903 6.255 126.415 6.255C126.927 6.255 127.403 6.383 127.843 6.639C128.291 6.895 128.651 7.259 128.923 7.731C129.195 8.195 129.331 8.747 129.331 9.387C129.331 10.027 129.195 10.583 128.923 11.055C128.651 11.519 128.291 11.875 127.843 12.123C127.403 12.371 126.927 12.495 126.415 12.495ZM126.415 11.595C126.751 11.595 127.067 11.511 127.363 11.343C127.659 11.175 127.899 10.927 128.083 10.599C128.275 10.263 128.371 9.859 128.371 9.387C128.371 8.915 128.275 8.515 128.083 8.187C127.899 7.851 127.659 7.595 127.363 7.419C127.067 7.243 126.751 7.155 126.415 7.155C126.079 7.155 125.759 7.243 125.455 7.419C125.159 7.587 124.915 7.839 124.723 8.175C124.531 8.503 124.435 8.907 124.435 9.387C124.435 9.859 124.527 10.263 124.711 10.599C124.903 10.927 125.151 11.175 125.455 11.343C125.759 11.511 126.079 11.595 126.415 11.595ZM130.262 10.443H131.15C131.174 10.787 131.302 11.067 131.534 11.283C131.774 11.499 132.118 11.607 132.566 11.607C132.838 11.607 133.05 11.571 133.202 11.499C133.362 11.427 133.478 11.331 133.55 11.211C133.622 11.083 133.658 10.943 133.658 10.791C133.658 10.607 133.61 10.463 133.514 10.359C133.426 10.247 133.302 10.155 133.142 10.083C132.99 10.011 132.814 9.943 132.614 9.879C132.382 9.791 132.142 9.699 131.894 9.603C131.654 9.499 131.426 9.379 131.21 9.243C131.002 9.099 130.834 8.927 130.706 8.727C130.578 8.519 130.514 8.271 130.514 7.983C130.514 7.743 130.562 7.519 130.658 7.311C130.754 7.095 130.89 6.911 131.066 6.759C131.25 6.599 131.462 6.475 131.702 6.387C131.95 6.299 132.222 6.255 132.518 6.255C132.918 6.255 133.254 6.335 133.526 6.495C133.806 6.655 134.018 6.883 134.162 7.179C134.314 7.467 134.394 7.803 134.402 8.187H133.574C133.518 7.827 133.402 7.567 133.226 7.407C133.058 7.239 132.814 7.155 132.494 7.155C132.166 7.155 131.914 7.227 131.738 7.371C131.562 7.515 131.474 7.707 131.474 7.947C131.474 8.123 131.538 8.271 131.666 8.391C131.794 8.503 131.958 8.607 132.158 8.703C132.366 8.791 132.586 8.883 132.818 8.979C133.05 9.075 133.274 9.171 133.49 9.267C133.706 9.363 133.898 9.475 134.066 9.603C134.234 9.731 134.366 9.891 134.462 10.083C134.566 10.267 134.618 10.499 134.618 10.779C134.618 11.115 134.538 11.415 134.378 11.679C134.226 11.935 133.998 12.135 133.694 12.279C133.398 12.423 133.034 12.495 132.602 12.495C132.21 12.495 131.874 12.447 131.594 12.351C131.322 12.247 131.094 12.115 130.91 11.955C130.726 11.787 130.582 11.611 130.478 11.427C130.382 11.243 130.318 11.063 130.286 10.887C130.254 10.711 130.246 10.563 130.262 10.443ZM137.034 3.975V5.139H135.786V3.975H137.034ZM135.93 6.375H136.89V12.375H135.93V6.375ZM138.11 6.375H141.638V7.275H138.11V6.375ZM139.394 4.815H140.354V12.375H139.394V4.815ZM147.896 12.495C147.384 12.495 146.904 12.371 146.456 12.123C146.008 11.875 145.644 11.519 145.364 11.055C145.092 10.583 144.956 10.027 144.956 9.387C144.956 8.747 145.092 8.195 145.364 7.731C145.644 7.259 146.008 6.895 146.456 6.639C146.904 6.383 147.384 6.255 147.896 6.255C148.408 6.255 148.884 6.383 149.324 6.639C149.772 6.895 150.132 7.259 150.404 7.731C150.676 8.195 150.812 8.747 150.812 9.387C150.812 10.027 150.676 10.583 150.404 11.055C150.132 11.519 149.772 11.875 149.324 12.123C148.884 12.371 148.408 12.495 147.896 12.495ZM147.896 11.595C148.232 11.595 148.548 11.511 148.844 11.343C149.14 11.175 149.38 10.927 149.564 10.599C149.756 10.263 149.852 9.859 149.852 9.387C149.852 8.915 149.756 8.515 149.564 8.187C149.38 7.851 149.14 7.595 148.844 7.419C148.548 7.243 148.232 7.155 147.896 7.155C147.56 7.155 147.24 7.243 146.936 7.419C146.64 7.587 146.396 7.839 146.204 8.175C146.012 8.503 145.916 8.907 145.916 9.387C145.916 9.859 146.008 10.263 146.192 10.599C146.384 10.927 146.632 11.175 146.936 11.343C147.24 11.511 147.56 11.595 147.896 11.595ZM151.493 6.375H155.021V7.275H151.493V6.375ZM154.601 3.975H155.153V4.935H154.601C154.401 4.927 154.217 4.955 154.049 5.019C153.889 5.083 153.761 5.195 153.665 5.355C153.569 5.507 153.521 5.727 153.521 6.015V12.375H152.561V6.015C152.561 5.535 152.645 5.147 152.813 4.851C152.989 4.547 153.229 4.327 153.533 4.191C153.845 4.047 154.201 3.975 154.601 3.975ZM214.708 12.495C214.236 12.495 213.8 12.363 213.4 12.099C213.008 11.827 212.692 11.459 212.452 10.995C212.22 10.523 212.104 9.987 212.104 9.387C212.104 8.787 212.224 8.251 212.464 7.779C212.704 7.307 213.028 6.935 213.436 6.663C213.852 6.391 214.316 6.255 214.828 6.255C215.388 6.255 215.812 6.399 216.1 6.687C216.396 6.967 216.596 7.343 216.7 7.815C216.812 8.287 216.868 8.811 216.868 9.387C216.868 9.691 216.836 10.023 216.772 10.383C216.708 10.735 216.596 11.075 216.436 11.403C216.284 11.723 216.068 11.987 215.788 12.195C215.508 12.395 215.148 12.495 214.708 12.495ZM214.948 11.583C215.356 11.583 215.692 11.483 215.956 11.283C216.228 11.083 216.428 10.819 216.556 10.491C216.684 10.155 216.748 9.787 216.748 9.387C216.748 8.947 216.68 8.563 216.544 8.235C216.416 7.899 216.216 7.639 215.944 7.455C215.68 7.263 215.348 7.167 214.948 7.167C214.348 7.167 213.884 7.379 213.556 7.803C213.228 8.219 213.064 8.747 213.064 9.387C213.064 9.811 213.144 10.191 213.304 10.527C213.472 10.855 213.696 11.115 213.976 11.307C214.264 11.491 214.588 11.583 214.948 11.583ZM216.748 6.375H217.708V12.375H216.832C216.832 12.375 216.824 12.303 216.808 12.159C216.8 12.015 216.788 11.847 216.772 11.655C216.756 11.463 216.748 11.303 216.748 11.175V6.375ZM219.272 6.375H220.232V12.375H219.272V6.375ZM222.296 6.255C222.616 6.255 222.904 6.303 223.16 6.399C223.416 6.495 223.632 6.635 223.808 6.819C223.984 7.003 224.12 7.227 224.216 7.491C224.312 7.747 224.36 8.039 224.36 8.367V12.375H223.4V8.607C223.4 8.143 223.292 7.795 223.076 7.563C222.86 7.331 222.536 7.215 222.104 7.215C221.776 7.215 221.472 7.299 221.192 7.467C220.912 7.635 220.68 7.867 220.496 8.163C220.32 8.451 220.212 8.787 220.172 9.171L220.16 8.475C220.2 8.139 220.28 7.835 220.4 7.563C220.528 7.291 220.684 7.059 220.868 6.867C221.06 6.667 221.276 6.515 221.516 6.411C221.764 6.307 222.024 6.255 222.296 6.255ZM228.185 12.495C227.705 12.495 227.265 12.363 226.865 12.099C226.473 11.827 226.161 11.459 225.929 10.995C225.697 10.523 225.581 9.987 225.581 9.387C225.581 8.787 225.693 8.251 225.917 7.779C226.141 7.307 226.449 6.935 226.841 6.663C227.233 6.391 227.681 6.255 228.185 6.255C228.633 6.255 228.997 6.339 229.277 6.507C229.565 6.667 229.785 6.891 229.937 7.179C230.089 7.467 230.193 7.799 230.249 8.175C230.313 8.551 230.345 8.955 230.345 9.387C230.345 9.691 230.313 10.023 230.249 10.383C230.185 10.735 230.073 11.075 229.913 11.403C229.761 11.723 229.545 11.987 229.265 12.195C228.985 12.395 228.625 12.495 228.185 12.495ZM228.425 11.583C228.833 11.583 229.169 11.483 229.433 11.283C229.705 11.083 229.905 10.819 230.033 10.491C230.161 10.155 230.225 9.787 230.225 9.387C230.225 8.947 230.157 8.563 230.021 8.235C229.893 7.899 229.693 7.639 229.421 7.455C229.157 7.263 228.825 7.167 228.425 7.167C227.825 7.167 227.361 7.379 227.033 7.803C226.705 8.219 226.541 8.747 226.541 9.387C226.541 9.811 226.621 10.191 226.781 10.527C226.949 10.855 227.173 11.115 227.453 11.307C227.741 11.491 228.065 11.583 228.425 11.583ZM230.225 3.975H231.185V12.375H230.309C230.293 12.199 230.273 11.991 230.249 11.751C230.233 11.511 230.225 11.319 230.225 11.175V3.975ZM240.772 10.119C240.716 10.615 240.556 11.043 240.292 11.403C240.036 11.755 239.712 12.027 239.32 12.219C238.928 12.403 238.504 12.495 238.048 12.495C237.536 12.495 237.056 12.371 236.608 12.123C236.16 11.875 235.796 11.519 235.516 11.055C235.244 10.583 235.108 10.027 235.108 9.387C235.108 8.747 235.244 8.195 235.516 7.731C235.796 7.259 236.16 6.895 236.608 6.639C237.056 6.383 237.536 6.255 238.048 6.255C238.504 6.255 238.924 6.351 239.308 6.543C239.7 6.735 240.024 7.007 240.28 7.359C240.544 7.711 240.708 8.131 240.772 8.619H239.896C239.76 8.163 239.524 7.807 239.188 7.551C238.852 7.287 238.472 7.155 238.048 7.155C237.704 7.155 237.38 7.243 237.076 7.419C236.772 7.595 236.528 7.851 236.344 8.187C236.16 8.515 236.068 8.915 236.068 9.387C236.068 9.851 236.16 10.251 236.344 10.587C236.528 10.915 236.768 11.167 237.064 11.343C237.368 11.511 237.696 11.595 238.048 11.595C238.536 11.595 238.932 11.467 239.236 11.211C239.548 10.947 239.772 10.583 239.908 10.119H240.772ZM247.083 12.375H246.123V6.375H247.083V12.375ZM246.183 9.579L246.195 9.915C246.187 10.011 246.163 10.159 246.123 10.359C246.091 10.559 246.031 10.783 245.943 11.031C245.863 11.271 245.743 11.503 245.583 11.727C245.431 11.951 245.231 12.135 244.983 12.279C244.743 12.423 244.443 12.495 244.083 12.495C243.851 12.495 243.611 12.459 243.363 12.387C243.123 12.323 242.899 12.215 242.691 12.063C242.483 11.903 242.315 11.683 242.187 11.403C242.059 11.123 241.995 10.775 241.995 10.359V6.375H242.955V10.119C242.955 10.479 243.011 10.763 243.123 10.971C243.243 11.171 243.403 11.315 243.603 11.403C243.803 11.491 244.027 11.535 244.275 11.535C244.683 11.535 245.023 11.431 245.295 11.223C245.567 11.015 245.775 10.759 245.919 10.455C246.063 10.151 246.151 9.859 246.183 9.579ZM248.639 6.375H249.599V12.375H248.639V6.375ZM251.663 6.255C251.983 6.255 252.271 6.303 252.527 6.399C252.783 6.495 252.999 6.635 253.175 6.819C253.351 7.003 253.487 7.227 253.583 7.491C253.679 7.747 253.727 8.039 253.727 8.367V12.375H252.767V8.607C252.767 8.143 252.659 7.795 252.443 7.563C252.227 7.331 251.903 7.215 251.471 7.215C251.143 7.215 250.839 7.299 250.559 7.467C250.279 7.635 250.047 7.867 249.863 8.163C249.687 8.451 249.579 8.787 249.539 9.171L249.527 8.475C249.567 8.139 249.647 7.835 249.767 7.563C249.895 7.291 250.051 7.059 250.235 6.867C250.427 6.667 250.643 6.515 250.883 6.411C251.131 6.307 251.391 6.255 251.663 6.255ZM255.695 6.255C256.015 6.255 256.303 6.303 256.559 6.399C256.815 6.495 257.031 6.635 257.207 6.819C257.383 7.003 257.519 7.227 257.615 7.491C257.711 7.747 257.759 8.039 257.759 8.367V12.375H256.799V8.607C256.799 8.143 256.691 7.795 256.475 7.563C256.259 7.331 255.935 7.215 255.503 7.215C255.175 7.215 254.871 7.299 254.591 7.467C254.311 7.635 254.079 7.867 253.895 8.163C253.719 8.451 253.611 8.787 253.571 9.171L253.559 8.475C253.599 8.139 253.679 7.835 253.799 7.563C253.927 7.291 254.083 7.059 254.267 6.867C254.459 6.667 254.675 6.515 254.915 6.411C255.163 6.307 255.423 6.255 255.695 6.255ZM259.315 6.375H260.275V12.375H259.315V6.375ZM262.339 6.255C262.659 6.255 262.947 6.303 263.203 6.399C263.459 6.495 263.675 6.635 263.851 6.819C264.027 7.003 264.163 7.227 264.259 7.491C264.355 7.747 264.403 8.039 264.403 8.367V12.375H263.443V8.607C263.443 8.143 263.335 7.795 263.119 7.563C262.903 7.331 262.579 7.215 262.147 7.215C261.819 7.215 261.515 7.299 261.235 7.467C260.955 7.635 260.723 7.867 260.539 8.163C260.363 8.451 260.255 8.787 260.215 9.171L260.203 8.475C260.243 8.139 260.323 7.835 260.443 7.563C260.571 7.291 260.727 7.059 260.911 6.867C261.103 6.667 261.319 6.515 261.559 6.411C261.807 6.307 262.067 6.255 262.339 6.255ZM266.371 6.255C266.691 6.255 266.979 6.303 267.235 6.399C267.491 6.495 267.707 6.635 267.883 6.819C268.059 7.003 268.195 7.227 268.291 7.491C268.387 7.747 268.435 8.039 268.435 8.367V12.375H267.475V8.607C267.475 8.143 267.367 7.795 267.151 7.563C266.935 7.331 266.611 7.215 266.179 7.215C265.851 7.215 265.547 7.299 265.267 7.467C264.987 7.635 264.755 7.867 264.571 8.163C264.395 8.451 264.287 8.787 264.247 9.171L264.235 8.475C264.275 8.139 264.355 7.835 264.475 7.563C264.603 7.291 264.759 7.059 264.943 6.867C265.135 6.667 265.351 6.515 265.591 6.411C265.839 6.307 266.099 6.255 266.371 6.255ZM275.079 12.375H274.119V6.375H275.079V12.375ZM274.179 9.579L274.191 9.915C274.183 10.011 274.159 10.159 274.119 10.359C274.087 10.559 274.027 10.783 273.939 11.031C273.859 11.271 273.739 11.503 273.579 11.727C273.427 11.951 273.227 12.135 272.979 12.279C272.739 12.423 272.439 12.495 272.079 12.495C271.847 12.495 271.607 12.459 271.359 12.387C271.119 12.323 270.895 12.215 270.687 12.063C270.479 11.903 270.311 11.683 270.183 11.403C270.055 11.123 269.991 10.775 269.991 10.359V6.375H270.951V10.119C270.951 10.479 271.007 10.763 271.119 10.971C271.239 11.171 271.399 11.315 271.599 11.403C271.799 11.491 272.023 11.535 272.271 11.535C272.679 11.535 273.019 11.431 273.291 11.223C273.563 11.015 273.771 10.759 273.915 10.455C274.059 10.151 274.147 9.859 274.179 9.579ZM276.755 3.975H277.715V12.375H276.755V3.975ZM281.669 12.495C281.197 12.495 280.761 12.363 280.361 12.099C279.969 11.827 279.653 11.459 279.413 10.995C279.181 10.523 279.065 9.987 279.065 9.387C279.065 8.787 279.185 8.251 279.425 7.779C279.665 7.307 279.989 6.935 280.397 6.663C280.813 6.391 281.277 6.255 281.789 6.255C282.349 6.255 282.773 6.399 283.061 6.687C283.357 6.967 283.557 7.343 283.661 7.815C283.773 8.287 283.829 8.811 283.829 9.387C283.829 9.691 283.797 10.023 283.733 10.383C283.669 10.735 283.557 11.075 283.397 11.403C283.245 11.723 283.029 11.987 282.749 12.195C282.469 12.395 282.109 12.495 281.669 12.495ZM281.909 11.583C282.317 11.583 282.653 11.483 282.917 11.283C283.189 11.083 283.389 10.819 283.517 10.491C283.645 10.155 283.709 9.787 283.709 9.387C283.709 8.947 283.641 8.563 283.505 8.235C283.377 7.899 283.177 7.639 282.905 7.455C282.641 7.263 282.309 7.167 281.909 7.167C281.309 7.167 280.845 7.379 280.517 7.803C280.189 8.219 280.025 8.747 280.025 9.387C280.025 9.811 280.105 10.191 280.265 10.527C280.433 10.855 280.657 11.115 280.937 11.307C281.225 11.491 281.549 11.583 281.909 11.583ZM283.709 6.375H284.669V12.375H283.793C283.793 12.375 283.785 12.303 283.769 12.159C283.761 12.015 283.749 11.847 283.733 11.655C283.717 11.463 283.709 11.303 283.709 11.175V6.375ZM285.813 6.375H289.341V7.275H285.813V6.375ZM287.097 4.815H288.057V12.375H287.097V4.815ZM291.663 3.975V5.139H290.415V3.975H291.663ZM290.559 6.375H291.519V12.375H290.559V6.375ZM295.475 11.547H295.187L297.023 6.375H298.067L295.787 12.375H294.887L292.619 6.375H293.663L295.475 11.547ZM303.161 10.443H304.061C303.997 10.835 303.853 11.187 303.629 11.499C303.413 11.803 303.125 12.047 302.765 12.231C302.413 12.407 302.005 12.495 301.541 12.495C300.981 12.495 300.477 12.363 300.029 12.099C299.581 11.827 299.225 11.459 298.961 10.995C298.705 10.523 298.577 9.987 298.577 9.387C298.577 8.787 298.701 8.251 298.949 7.779C299.205 7.307 299.553 6.935 299.993 6.663C300.433 6.391 300.929 6.255 301.481 6.255C302.065 6.255 302.557 6.387 302.957 6.651C303.365 6.907 303.665 7.287 303.857 7.791C304.057 8.287 304.137 8.899 304.097 9.627H299.537C299.577 10.019 299.685 10.363 299.861 10.659C300.037 10.955 300.269 11.187 300.557 11.355C300.845 11.515 301.173 11.595 301.541 11.595C301.949 11.595 302.293 11.491 302.573 11.283C302.861 11.067 303.057 10.787 303.161 10.443ZM301.517 7.155C301.021 7.155 300.605 7.299 300.269 7.587C299.933 7.875 299.709 8.267 299.597 8.763H303.113C303.081 8.235 302.909 7.835 302.597 7.563C302.293 7.291 301.933 7.155 301.517 7.155ZM311.034 12.495C310.594 12.495 310.234 12.395 309.954 12.195C309.674 11.987 309.454 11.723 309.294 11.403C309.142 11.075 309.034 10.735 308.97 10.383C308.906 10.023 308.874 9.691 308.874 9.387C308.874 8.955 308.902 8.551 308.958 8.175C309.022 7.799 309.13 7.467 309.282 7.179C309.434 6.891 309.65 6.667 309.93 6.507C310.218 6.339 310.586 6.255 311.034 6.255C311.538 6.255 311.986 6.391 312.378 6.663C312.77 6.935 313.078 7.307 313.302 7.779C313.526 8.251 313.638 8.787 313.638 9.387C313.638 9.987 313.522 10.523 313.29 10.995C313.058 11.459 312.746 11.827 312.354 12.099C311.962 12.363 311.522 12.495 311.034 12.495ZM310.794 11.583C311.162 11.583 311.486 11.491 311.766 11.307C312.046 11.115 312.266 10.855 312.426 10.527C312.594 10.191 312.678 9.811 312.678 9.387C312.678 8.747 312.514 8.219 312.186 7.803C311.858 7.379 311.394 7.167 310.794 7.167C310.394 7.167 310.058 7.263 309.786 7.455C309.522 7.639 309.322 7.899 309.186 8.235C309.058 8.563 308.994 8.947 308.994 9.387C308.994 9.787 309.058 10.155 309.186 10.491C309.322 10.819 309.522 11.083 309.786 11.283C310.05 11.483 310.386 11.583 310.794 11.583ZM308.994 3.975V11.175C308.994 11.319 308.982 11.511 308.958 11.751C308.942 11.991 308.926 12.199 308.91 12.375H308.034V3.975H308.994ZM317.13 12.495C316.658 12.495 316.222 12.363 315.822 12.099C315.43 11.827 315.114 11.459 314.874 10.995C314.642 10.523 314.526 9.987 314.526 9.387C314.526 8.787 314.646 8.251 314.886 7.779C315.126 7.307 315.45 6.935 315.858 6.663C316.274 6.391 316.738 6.255 317.25 6.255C317.81 6.255 318.234 6.399 318.522 6.687C318.818 6.967 319.018 7.343 319.122 7.815C319.234 8.287 319.29 8.811 319.29 9.387C319.29 9.691 319.258 10.023 319.194 10.383C319.13 10.735 319.018 11.075 318.858 11.403C318.706 11.723 318.49 11.987 318.21 12.195C317.93 12.395 317.57 12.495 317.13 12.495ZM317.37 11.583C317.778 11.583 318.114 11.483 318.378 11.283C318.65 11.083 318.85 10.819 318.978 10.491C319.106 10.155 319.17 9.787 319.17 9.387C319.17 8.947 319.102 8.563 318.966 8.235C318.838 7.899 318.638 7.639 318.366 7.455C318.102 7.263 317.77 7.167 317.37 7.167C316.77 7.167 316.306 7.379 315.978 7.803C315.65 8.219 315.486 8.747 315.486 9.387C315.486 9.811 315.566 10.191 315.726 10.527C315.894 10.855 316.118 11.115 316.398 11.307C316.686 11.491 317.01 11.583 317.37 11.583ZM319.17 6.375H320.13V12.375H319.254C319.254 12.375 319.246 12.303 319.23 12.159C319.222 12.015 319.21 11.847 319.194 11.655C319.178 11.463 319.17 11.303 319.17 11.175V6.375ZM321.814 3.975H322.774V12.375H321.814V3.975ZM326.728 12.495C326.256 12.495 325.82 12.363 325.42 12.099C325.028 11.827 324.712 11.459 324.472 10.995C324.24 10.523 324.124 9.987 324.124 9.387C324.124 8.787 324.244 8.251 324.484 7.779C324.724 7.307 325.048 6.935 325.456 6.663C325.872 6.391 326.336 6.255 326.848 6.255C327.408 6.255 327.832 6.399 328.12 6.687C328.416 6.967 328.616 7.343 328.72 7.815C328.832 8.287 328.888 8.811 328.888 9.387C328.888 9.691 328.856 10.023 328.792 10.383C328.728 10.735 328.616 11.075 328.456 11.403C328.304 11.723 328.088 11.987 327.808 12.195C327.528 12.395 327.168 12.495 326.728 12.495ZM326.968 11.583C327.376 11.583 327.712 11.483 327.976 11.283C328.248 11.083 328.448 10.819 328.576 10.491C328.704 10.155 328.768 9.787 328.768 9.387C328.768 8.947 328.7 8.563 328.564 8.235C328.436 7.899 328.236 7.639 327.964 7.455C327.7 7.263 327.368 7.167 326.968 7.167C326.368 7.167 325.904 7.379 325.576 7.803C325.248 8.219 325.084 8.747 325.084 9.387C325.084 9.811 325.164 10.191 325.324 10.527C325.492 10.855 325.716 11.115 325.996 11.307C326.284 11.491 326.608 11.583 326.968 11.583ZM328.768 6.375H329.728V12.375H328.852C328.852 12.375 328.844 12.303 328.828 12.159C328.82 12.015 328.808 11.847 328.792 11.655C328.776 11.463 328.768 11.303 328.768 11.175V6.375ZM331.292 6.375H332.252V12.375H331.292V6.375ZM334.316 6.255C334.636 6.255 334.924 6.303 335.18 6.399C335.436 6.495 335.652 6.635 335.828 6.819C336.004 7.003 336.14 7.227 336.236 7.491C336.332 7.747 336.38 8.039 336.38 8.367V12.375H335.42V8.607C335.42 8.143 335.312 7.795 335.096 7.563C334.88 7.331 334.556 7.215 334.124 7.215C333.796 7.215 333.492 7.299 333.212 7.467C332.932 7.635 332.7 7.867 332.516 8.163C332.34 8.451 332.232 8.787 332.192 9.171L332.18 8.475C332.22 8.139 332.3 7.835 332.42 7.563C332.548 7.291 332.704 7.059 332.888 6.867C333.08 6.667 333.296 6.515 333.536 6.411C333.784 6.307 334.044 6.255 334.316 6.255ZM343.264 10.119C343.208 10.615 343.048 11.043 342.784 11.403C342.528 11.755 342.204 12.027 341.812 12.219C341.42 12.403 340.996 12.495 340.54 12.495C340.028 12.495 339.548 12.371 339.1 12.123C338.652 11.875 338.288 11.519 338.008 11.055C337.736 10.583 337.6 10.027 337.6 9.387C337.6 8.747 337.736 8.195 338.008 7.731C338.288 7.259 338.652 6.895 339.1 6.639C339.548 6.383 340.028 6.255 340.54 6.255C340.996 6.255 341.416 6.351 341.8 6.543C342.192 6.735 342.516 7.007 342.772 7.359C343.036 7.711 343.2 8.131 343.264 8.619H342.388C342.252 8.163 342.016 7.807 341.68 7.551C341.344 7.287 340.964 7.155 340.54 7.155C340.196 7.155 339.872 7.243 339.568 7.419C339.264 7.595 339.02 7.851 338.836 8.187C338.652 8.515 338.56 8.915 338.56 9.387C338.56 9.851 338.652 10.251 338.836 10.587C339.02 10.915 339.26 11.167 339.556 11.343C339.86 11.511 340.188 11.595 340.54 11.595C341.028 11.595 341.424 11.467 341.728 11.211C342.04 10.947 342.264 10.583 342.4 10.119H343.264ZM348.735 10.443H349.635C349.571 10.835 349.427 11.187 349.203 11.499C348.987 11.803 348.699 12.047 348.339 12.231C347.987 12.407 347.579 12.495 347.115 12.495C346.555 12.495 346.051 12.363 345.603 12.099C345.155 11.827 344.799 11.459 344.535 10.995C344.279 10.523 344.151 9.987 344.151 9.387C344.151 8.787 344.275 8.251 344.523 7.779C344.779 7.307 345.127 6.935 345.567 6.663C346.007 6.391 346.503 6.255 347.055 6.255C347.639 6.255 348.131 6.387 348.531 6.651C348.939 6.907 349.239 7.287 349.431 7.791C349.631 8.287 349.711 8.899 349.671 9.627H345.111C345.151 10.019 345.259 10.363 345.435 10.659C345.611 10.955 345.843 11.187 346.131 11.355C346.419 11.515 346.747 11.595 347.115 11.595C347.523 11.595 347.867 11.491 348.147 11.283C348.435 11.067 348.631 10.787 348.735 10.443ZM347.091 7.155C346.595 7.155 346.179 7.299 345.843 7.587C345.507 7.875 345.283 8.267 345.171 8.763H348.687C348.655 8.235 348.483 7.835 348.171 7.563C347.867 7.291 347.507 7.155 347.091 7.155ZM356.032 12.495C355.52 12.495 355.04 12.371 354.592 12.123C354.144 11.875 353.78 11.519 353.5 11.055C353.228 10.583 353.092 10.027 353.092 9.387C353.092 8.747 353.228 8.195 353.5 7.731C353.78 7.259 354.144 6.895 354.592 6.639C355.04 6.383 355.52 6.255 356.032 6.255C356.544 6.255 357.02 6.383 357.46 6.639C357.908 6.895 358.268 7.259 358.54 7.731C358.812 8.195 358.948 8.747 358.948 9.387C358.948 10.027 358.812 10.583 358.54 11.055C358.268 11.519 357.908 11.875 357.46 12.123C357.02 12.371 356.544 12.495 356.032 12.495ZM356.032 11.595C356.368 11.595 356.684 11.511 356.98 11.343C357.276 11.175 357.516 10.927 357.7 10.599C357.892 10.263 357.988 9.859 357.988 9.387C357.988 8.915 357.892 8.515 357.7 8.187C357.516 7.851 357.276 7.595 356.98 7.419C356.684 7.243 356.368 7.155 356.032 7.155C355.696 7.155 355.376 7.243 355.072 7.419C354.776 7.587 354.532 7.839 354.34 8.175C354.148 8.503 354.052 8.907 354.052 9.387C354.052 9.859 354.144 10.263 354.328 10.599C354.52 10.927 354.768 11.175 355.072 11.343C355.376 11.511 355.696 11.595 356.032 11.595ZM359.63 6.375H363.158V7.275H359.63V6.375ZM362.738 3.975H363.29V4.935H362.738C362.538 4.927 362.354 4.955 362.186 5.019C362.026 5.083 361.898 5.195 361.802 5.355C361.706 5.507 361.658 5.727 361.658 6.015V12.375H360.698V6.015C360.698 5.535 360.782 5.147 360.95 4.851C361.126 4.547 361.366 4.327 361.67 4.191C361.982 4.047 362.338 3.975 362.738 3.975Z" fill="#9CA3AF"/>
<path d="M159.997 12.375H158.821V3.699H159.997L164.437 10.407V3.699H165.613V12.375H164.437L159.997 5.667V12.375ZM173.033 12.363L167.177 12.375V11.475L169.973 9.063C171.377 7.851 171.773 7.263 171.773 6.339C171.773 5.247 171.149 4.599 170.105 4.599C169.037 4.599 168.341 5.379 168.317 6.615H167.141C167.177 4.755 168.353 3.543 170.117 3.543C171.857 3.543 172.973 4.599 172.973 6.267C172.973 7.503 172.361 8.379 170.825 9.711L169.025 11.271H173.033V12.363ZM174.115 8.043C174.115 5.355 175.507 3.531 177.691 3.531C179.863 3.531 181.255 5.355 181.255 8.043C181.255 10.743 179.923 12.531 177.691 12.531C175.447 12.531 174.115 10.743 174.115 8.043ZM175.279 8.043C175.279 10.179 176.167 11.475 177.691 11.475C179.215 11.475 180.091 10.179 180.091 8.043C180.091 5.883 179.215 4.587 177.691 4.587C176.167 4.587 175.279 5.883 175.279 8.043ZM183.863 11.907C183.863 12.771 183.215 13.491 182.363 13.599V13.095C182.855 13.011 183.203 12.687 183.203 12.315C183.119 12.363 183.023 12.387 182.879 12.387C182.483 12.387 182.147 12.099 182.147 11.655C182.147 11.175 182.471 10.827 182.951 10.827C183.455 10.827 183.863 11.247 183.863 11.907ZM184.768 8.043C184.768 5.355 186.16 3.531 188.344 3.531C190.516 3.531 191.908 5.355 191.908 8.043C191.908 10.743 190.576 12.531 188.344 12.531C186.1 12.531 184.768 10.743 184.768 8.043ZM185.932 8.043C185.932 10.179 186.82 11.475 188.344 11.475C189.868 11.475 190.744 10.179 190.744 8.043C190.744 5.883 189.868 4.587 188.344 4.587C186.82 4.587 185.932 5.883 185.932 8.043ZM193.088 8.043C193.088 5.355 194.48 3.531 196.664 3.531C198.836 3.531 200.228 5.355 200.228 8.043C200.228 10.743 198.896 12.531 196.664 12.531C194.42 12.531 193.088 10.743 193.088 8.043ZM194.252 8.043C194.252 10.179 195.14 11.475 196.664 11.475C198.188 11.475 199.064 10.179 199.064 8.043C199.064 5.883 198.188 4.587 196.664 4.587C195.14 4.587 194.252 5.883 194.252 8.043ZM201.408 8.043C201.408 5.355 202.8 3.531 204.984 3.531C207.156 3.531 208.548 5.355 208.548 8.043C208.548 10.743 207.216 12.531 204.984 12.531C202.74 12.531 201.408 10.743 201.408 8.043ZM202.572 8.043C202.572 10.179 203.46 11.475 204.984 11.475C206.508 11.475 207.384 10.179 207.384 8.043C207.384 5.883 206.508 4.587 204.984 4.587C203.46 4.587 202.572 5.883 202.572 8.043ZM368.133 12.375H366.957V3.699H368.133L372.573 10.407V3.699H373.749V12.375H372.573L368.133 5.667V12.375ZM381.17 12.363L375.314 12.375V11.475L378.11 9.063C379.514 7.851 379.91 7.263 379.91 6.339C379.91 5.247 379.286 4.599 378.242 4.599C377.174 4.599 376.478 5.379 376.454 6.615H375.278C375.314 4.755 376.49 3.543 378.254 3.543C379.994 3.543 381.11 4.599 381.11 6.267C381.11 7.503 380.498 8.379 378.962 9.711L377.162 11.271H381.17V12.363ZM382.252 8.043C382.252 5.355 383.644 3.531 385.828 3.531C388 3.531 389.392 5.355 389.392 8.043C389.392 10.743 388.06 12.531 385.828 12.531C383.584 12.531 382.252 10.743 382.252 8.043ZM383.416 8.043C383.416 10.179 384.304 11.475 385.828 11.475C387.352 11.475 388.228 10.179 388.228 8.043C388.228 5.883 387.352 4.587 385.828 4.587C384.304 4.587 383.416 5.883 383.416 8.043ZM390.572 8.043C390.572 5.355 391.964 3.531 394.148 3.531C396.32 3.531 397.712 5.355 397.712 8.043C397.712 10.743 396.38 12.531 394.148 12.531C391.904 12.531 390.572 10.743 390.572 8.043ZM391.736 8.043C391.736 10.179 392.624 11.475 394.148 11.475C395.672 11.475 396.548 10.179 396.548 8.043C396.548 5.883 395.672 4.587 394.148 4.587C392.624 4.587 391.736 5.883 391.736 8.043ZM400.321 11.907C400.321 12.771 399.673 13.491 398.821 13.599V13.095C399.312 13.011 399.661 12.687 399.661 12.315C399.576 12.363 399.481 12.387 399.337 12.387C398.941 12.387 398.604 12.099 398.604 11.655C398.604 11.175 398.929 10.827 399.409 10.827C399.913 10.827 400.321 11.247 400.321 11.907ZM401.225 8.043C401.225 5.355 402.617 3.531 404.801 3.531C406.973 3.531 408.365 5.355 408.365 8.043C408.365 10.743 407.033 12.531 404.801 12.531C402.557 12.531 401.225 10.743 401.225 8.043ZM402.389 8.043C402.389 10.179 403.277 11.475 404.801 11.475C406.325 11.475 407.201 10.179 407.201 8.043C407.201 5.883 406.325 4.587 404.801 4.587C403.277 4.587 402.389 5.883 402.389 8.043ZM409.545 8.043C409.545 5.355 410.937 3.531 413.121 3.531C415.293 3.531 416.685 5.355 416.685 8.043C416.685 10.743 415.353 12.531 413.121 12.531C410.877 12.531 409.545 10.743 409.545 8.043ZM410.709 8.043C410.709 10.179 411.597 11.475 413.121 11.475C414.645 11.475 415.521 10.179 415.521 8.043C415.521 5.883 414.645 4.587 413.121 4.587C411.597 4.587 410.709 5.883 410.709 8.043ZM417.865 8.043C417.865 5.355 419.257 3.531 421.441 3.531C423.613 3.531 425.005 5.355 425.005 8.043C425.005 10.743 423.673 12.531 421.441 12.531C419.197 12.531 417.865 10.743 417.865 8.043ZM419.029 8.043C419.029 10.179 419.917 11.475 421.441 11.475C422.965 11.475 423.841 10.179 423.841 8.043C423.841 5.883 422.965 4.587 421.441 4.587C419.917 4.587 419.029 5.883 419.029 8.043Z" fill="#6B7280"/>
<path d="M0.2665 4.587H7.0945V5.619H0.2665V4.587ZM3.0985 5.499H4.2625V12.375H3.0985V5.499ZM9.42897 3.915V5.151H8.00097V3.915H9.42897ZM8.14497 6.387H9.28497V12.375H8.14497V6.387ZM15.5283 10.431H16.6203C16.5563 10.823 16.4043 11.175 16.1643 11.487C15.9243 11.799 15.6083 12.047 15.2163 12.231C14.8243 12.415 14.3643 12.507 13.8363 12.507C13.2123 12.507 12.6563 12.375 12.1683 12.111C11.6803 11.847 11.2963 11.483 11.0163 11.019C10.7363 10.555 10.5963 10.015 10.5963 9.399C10.5963 8.775 10.7323 8.231 11.0043 7.767C11.2763 7.295 11.6523 6.927 12.1323 6.663C12.6123 6.399 13.1603 6.267 13.7763 6.267C14.4243 6.267 14.9683 6.395 15.4083 6.651C15.8483 6.907 16.1723 7.287 16.3803 7.791C16.5963 8.287 16.6843 8.907 16.6443 9.651H11.7363C11.7763 10.011 11.8843 10.331 12.0603 10.611C12.2443 10.891 12.4843 11.111 12.7803 11.271C13.0843 11.431 13.4323 11.511 13.8243 11.511C14.2643 11.511 14.6323 11.411 14.9283 11.211C15.2243 11.011 15.4243 10.751 15.5283 10.431ZM13.7883 7.251C13.2683 7.251 12.8363 7.391 12.4923 7.671C12.1483 7.943 11.9203 8.307 11.8083 8.763H15.4923C15.4603 8.275 15.2843 7.903 14.9643 7.647C14.6443 7.383 14.2523 7.251 13.7883 7.251ZM17.8576 6.387H19.0096V12.375H17.8576V6.387ZM21.0376 7.407C20.6216 7.407 20.2656 7.503 19.9696 7.695C19.6816 7.887 19.4496 8.123 19.2736 8.403C19.1056 8.683 18.9936 8.951 18.9376 9.207L18.9256 8.523C18.9336 8.443 18.9536 8.319 18.9856 8.151C19.0256 7.975 19.0936 7.779 19.1896 7.563C19.2856 7.347 19.4136 7.143 19.5736 6.951C19.7336 6.751 19.9336 6.587 20.1736 6.459C20.4136 6.331 20.7016 6.267 21.0376 6.267V7.407ZM24.257 7.419V6.387H26.897V12.375H25.745V7.419H24.257Z" fill="#FF823B"/>
<path d="M35.6678 5.375H33.0625L34.7993 8.55682L33.0625 12.375H35.6678L37.1151 8.55682L35.6678 5.375Z" fill="#FF823B"/>
<path d="M39.7146 5.375H37.1094L38.8462 8.55682L37.1094 12.375H39.7146L41.162 8.55682L39.7146 5.375Z" fill="#FF823B"/>
</svg>
