<svg width="434" height="18" viewBox="0 0 434 18" fill="none" xmlns="http://www.w3.org/2000/svg">
<path d="M0.738 4.414H8.704V5.618H0.738V4.414ZM4.042 5.478H5.4V13.5H4.042V5.478ZM11.4275 3.63V5.072H9.76155V3.63H11.4275ZM9.92955 6.514H11.2595V13.5H9.92955V6.514ZM18.5435 11.232H19.8175C19.7428 11.6893 19.5655 12.1 19.2855 12.464C19.0055 12.828 18.6368 13.1173 18.1795 13.332C17.7222 13.5467 17.1855 13.654 16.5695 13.654C15.8415 13.654 15.1928 13.5 14.6235 13.192C14.0542 12.884 13.6062 12.4593 13.2795 11.918C12.9528 11.3767 12.7895 10.7467 12.7895 10.028C12.7895 9.3 12.9482 8.66533 13.2655 8.124C13.5828 7.57333 14.0215 7.144 14.5815 6.836C15.1415 6.528 15.7808 6.374 16.4995 6.374C17.2555 6.374 17.8902 6.52333 18.4035 6.822C18.9168 7.12067 19.2948 7.564 19.5375 8.152C19.7895 8.73067 19.8922 9.454 19.8455 10.322H14.1195C14.1662 10.742 14.2922 11.1153 14.4975 11.442C14.7122 11.7687 14.9922 12.0253 15.3375 12.212C15.6922 12.3987 16.0982 12.492 16.5555 12.492C17.0688 12.492 17.4982 12.3753 17.8435 12.142C18.1888 11.9087 18.4222 11.6053 18.5435 11.232ZM16.5135 7.522C15.9068 7.522 15.4028 7.68533 15.0015 8.012C14.6002 8.32933 14.3342 8.754 14.2035 9.286H18.5015C18.4642 8.71667 18.2588 8.28267 17.8855 7.984C17.5122 7.676 17.0548 7.522 16.5135 7.522ZM21.2609 6.514H22.6049V13.5H21.2609V6.514ZM24.9709 7.704C24.4856 7.704 24.0702 7.816 23.7249 8.04C23.3889 8.264 23.1182 8.53933 22.9129 8.866C22.7169 9.19267 22.5862 9.50533 22.5209 9.804L22.5069 9.006C22.5162 8.91267 22.5396 8.768 22.5769 8.572C22.6236 8.36667 22.7029 8.138 22.8149 7.886C22.9269 7.634 23.0762 7.396 23.2629 7.172C23.4496 6.93867 23.6829 6.74733 23.9629 6.598C24.2429 6.44867 24.5789 6.374 24.9709 6.374V7.704ZM32.157 10.868L32.171 10.798C32.5816 10.826 32.9596 10.882 33.305 10.966C33.6596 11.05 33.963 11.1807 34.215 11.358C34.4763 11.5353 34.677 11.7687 34.817 12.058C34.9663 12.3473 35.041 12.702 35.041 13.122C35.041 13.6167 34.9103 14.06 34.649 14.452C34.3876 14.8533 34.0236 15.1707 33.557 15.404C33.0903 15.6373 32.5443 15.754 31.919 15.754C31.3216 15.754 30.785 15.6327 30.309 15.39C29.8423 15.1567 29.4783 14.8347 29.217 14.424C28.965 14.0133 28.8576 13.556 28.895 13.052H30.127C30.127 13.3413 30.197 13.598 30.337 13.822C30.4863 14.0553 30.6916 14.2373 30.953 14.368C31.2236 14.4987 31.5456 14.564 31.919 14.564C32.4603 14.564 32.885 14.424 33.193 14.144C33.5103 13.864 33.669 13.4813 33.669 12.996C33.669 12.52 33.4963 12.1513 33.151 11.89C32.8056 11.6193 32.325 11.484 31.709 11.484H30.799V10.336H31.709C32.1196 10.336 32.4603 10.28 32.731 10.168C33.0016 10.056 33.2023 9.89733 33.333 9.692C33.4636 9.47733 33.529 9.22533 33.529 8.936C33.529 8.52533 33.3936 8.194 33.123 7.942C32.8616 7.69 32.4556 7.564 31.905 7.564C31.4196 7.564 31.023 7.69467 30.715 7.956C30.407 8.208 30.2483 8.53933 30.239 8.95H29.021C28.9836 8.57667 29.035 8.236 29.175 7.928C29.315 7.61067 29.5203 7.33533 29.791 7.102C30.0616 6.85933 30.379 6.67733 30.743 6.556C31.107 6.42533 31.4943 6.36 31.905 6.36C32.5116 6.36 33.039 6.46733 33.487 6.682C33.935 6.89667 34.2803 7.19067 34.523 7.564C34.7656 7.93733 34.887 8.362 34.887 8.838C34.887 9.23 34.817 9.55667 34.677 9.818C34.5463 10.0793 34.3596 10.2847 34.117 10.434C33.8743 10.5833 33.585 10.6907 33.249 10.756C32.913 10.8213 32.549 10.8587 32.157 10.868Z" fill="#228B22"/>
<path d="M42.1053 6.5H39.5L41.2368 9.68182L39.5 13.5H42.1053L43.5526 9.68182L42.1053 6.5Z" fill="#228B22"/>
<path d="M46.156 6.5H43.5508L45.2876 9.68182L43.5508 13.5H46.156L47.6034 9.68182L46.156 6.5Z" fill="#228B22"/>
<path d="M58.0736 12.424H57.6896L61.2416 5.2H62.2016V13H61.2416V6.868L61.4336 6.916L58.3616 13H57.4016L54.3296 6.928L54.5216 6.88V13H53.5616V5.2H54.5216L58.0736 12.424ZM66.2082 13.12C65.7362 13.12 65.3002 12.988 64.9002 12.724C64.5082 12.452 64.1922 12.084 63.9522 11.62C63.7202 11.148 63.6042 10.612 63.6042 10.012C63.6042 9.412 63.7242 8.876 63.9642 8.404C64.2042 7.932 64.5282 7.56 64.9362 7.288C65.3522 7.016 65.8162 6.88 66.3282 6.88C66.8882 6.88 67.3122 7.024 67.6002 7.312C67.8962 7.592 68.0962 7.968 68.2002 8.44C68.3122 8.912 68.3682 9.436 68.3682 10.012C68.3682 10.316 68.3362 10.648 68.2722 11.008C68.2082 11.36 68.0962 11.7 67.9362 12.028C67.7842 12.348 67.5682 12.612 67.2882 12.82C67.0082 13.02 66.6482 13.12 66.2082 13.12ZM66.4482 12.208C66.8562 12.208 67.1922 12.108 67.4562 11.908C67.7282 11.708 67.9282 11.444 68.0562 11.116C68.1842 10.78 68.2482 10.412 68.2482 10.012C68.2482 9.572 68.1802 9.188 68.0442 8.86C67.9162 8.524 67.7162 8.264 67.4442 8.08C67.1802 7.888 66.8482 7.792 66.4482 7.792C65.8482 7.792 65.3842 8.004 65.0562 8.428C64.7282 8.844 64.5642 9.372 64.5642 10.012C64.5642 10.436 64.6442 10.816 64.8042 11.152C64.9722 11.48 65.1962 11.74 65.4762 11.932C65.7642 12.116 66.0882 12.208 66.4482 12.208ZM68.2482 7H69.2082V13H68.3322C68.3322 13 68.3242 12.928 68.3082 12.784C68.3002 12.64 68.2882 12.472 68.2722 12.28C68.2562 12.088 68.2482 11.928 68.2482 11.8V7ZM75.6922 7L73.3642 10.264L71.4562 13H70.2922L72.7762 9.556L74.5282 7H75.6922ZM70.2922 7H71.4922L73.3522 9.58L75.8122 13H74.6482L72.7042 10.264L70.2922 7ZM78.0774 4.6V5.764H76.8294V4.6H78.0774ZM76.9734 7H77.9334V13H76.9734V7ZM79.573 7H80.533V13H79.573V7ZM82.597 6.88C82.917 6.88 83.205 6.928 83.461 7.024C83.717 7.12 83.933 7.26 84.109 7.444C84.285 7.628 84.421 7.852 84.517 8.116C84.613 8.372 84.661 8.664 84.661 8.992V13H83.701V9.232C83.701 8.768 83.593 8.42 83.377 8.188C83.161 7.956 82.837 7.84 82.405 7.84C82.077 7.84 81.773 7.924 81.493 8.092C81.213 8.26 80.981 8.492 80.797 8.788C80.621 9.076 80.513 9.412 80.473 9.796L80.461 9.1C80.501 8.764 80.581 8.46 80.701 8.188C80.829 7.916 80.985 7.684 81.169 7.492C81.361 7.292 81.577 7.14 81.817 7.036C82.065 6.932 82.325 6.88 82.597 6.88ZM86.629 6.88C86.949 6.88 87.237 6.928 87.493 7.024C87.749 7.12 87.965 7.26 88.141 7.444C88.317 7.628 88.453 7.852 88.549 8.116C88.645 8.372 88.693 8.664 88.693 8.992V13H87.733V9.232C87.733 8.768 87.625 8.42 87.409 8.188C87.193 7.956 86.869 7.84 86.437 7.84C86.109 7.84 85.805 7.924 85.525 8.092C85.245 8.26 85.013 8.492 84.829 8.788C84.653 9.076 84.545 9.412 84.505 9.796L84.493 9.1C84.533 8.764 84.613 8.46 84.733 8.188C84.861 7.916 85.017 7.684 85.201 7.492C85.393 7.292 85.609 7.14 85.849 7.036C86.097 6.932 86.357 6.88 86.629 6.88ZM95.3368 13H94.3768V7H95.3368V13ZM94.4368 10.204L94.4488 10.54C94.4408 10.636 94.4168 10.784 94.3768 10.984C94.3448 11.184 94.2848 11.408 94.1968 11.656C94.1168 11.896 93.9968 12.128 93.8368 12.352C93.6848 12.576 93.4848 12.76 93.2368 12.904C92.9968 13.048 92.6968 13.12 92.3368 13.12C92.1048 13.12 91.8648 13.084 91.6168 13.012C91.3768 12.948 91.1528 12.84 90.9448 12.688C90.7368 12.528 90.5688 12.308 90.4408 12.028C90.3128 11.748 90.2488 11.4 90.2488 10.984V7H91.2088V10.744C91.2088 11.104 91.2648 11.388 91.3768 11.596C91.4968 11.796 91.6568 11.94 91.8568 12.028C92.0568 12.116 92.2808 12.16 92.5288 12.16C92.9368 12.16 93.2768 12.056 93.5488 11.848C93.8208 11.64 94.0288 11.384 94.1728 11.08C94.3168 10.776 94.4048 10.484 94.4368 10.204ZM96.8933 7H97.8533V13H96.8933V7ZM99.9173 6.88C100.237 6.88 100.525 6.928 100.781 7.024C101.037 7.12 101.253 7.26 101.429 7.444C101.605 7.628 101.741 7.852 101.837 8.116C101.933 8.372 101.981 8.664 101.981 8.992V13H101.021V9.232C101.021 8.768 100.913 8.42 100.697 8.188C100.481 7.956 100.157 7.84 99.7253 7.84C99.3973 7.84 99.0933 7.924 98.8133 8.092C98.5333 8.26 98.3013 8.492 98.1173 8.788C97.9413 9.076 97.8333 9.412 97.7933 9.796L97.7813 9.1C97.8213 8.764 97.9013 8.46 98.0213 8.188C98.1493 7.916 98.3053 7.684 98.4893 7.492C98.6813 7.292 98.8973 7.14 99.1373 7.036C99.3853 6.932 99.6453 6.88 99.9173 6.88ZM103.949 6.88C104.269 6.88 104.557 6.928 104.813 7.024C105.069 7.12 105.285 7.26 105.461 7.444C105.637 7.628 105.773 7.852 105.869 8.116C105.965 8.372 106.013 8.664 106.013 8.992V13H105.053V9.232C105.053 8.768 104.945 8.42 104.729 8.188C104.513 7.956 104.189 7.84 103.757 7.84C103.429 7.84 103.125 7.924 102.845 8.092C102.565 8.26 102.333 8.492 102.149 8.788C101.973 9.076 101.865 9.412 101.825 9.796L101.813 9.1C101.853 8.764 101.933 8.46 102.053 8.188C102.181 7.916 102.337 7.684 102.521 7.492C102.713 7.292 102.929 7.14 103.169 7.036C103.417 6.932 103.677 6.88 103.949 6.88ZM112.357 13.12C111.877 13.12 111.437 12.988 111.037 12.724C110.645 12.452 110.333 12.084 110.101 11.62C109.869 11.148 109.753 10.612 109.753 10.012C109.753 9.412 109.865 8.876 110.089 8.404C110.313 7.932 110.621 7.56 111.013 7.288C111.405 7.016 111.853 6.88 112.357 6.88C112.805 6.88 113.169 6.964 113.449 7.132C113.737 7.292 113.957 7.516 114.109 7.804C114.261 8.092 114.365 8.424 114.421 8.8C114.485 9.176 114.517 9.58 114.517 10.012C114.517 10.316 114.485 10.648 114.421 11.008C114.357 11.36 114.245 11.7 114.085 12.028C113.933 12.348 113.717 12.612 113.437 12.82C113.157 13.02 112.797 13.12 112.357 13.12ZM112.597 12.208C113.005 12.208 113.341 12.108 113.605 11.908C113.877 11.708 114.077 11.444 114.205 11.116C114.333 10.78 114.397 10.412 114.397 10.012C114.397 9.572 114.329 9.188 114.193 8.86C114.065 8.524 113.865 8.264 113.593 8.08C113.329 7.888 112.997 7.792 112.597 7.792C111.997 7.792 111.533 8.004 111.205 8.428C110.877 8.844 110.713 9.372 110.713 10.012C110.713 10.436 110.793 10.816 110.953 11.152C111.121 11.48 111.345 11.74 111.625 11.932C111.913 12.116 112.237 12.208 112.597 12.208ZM114.397 4.6H115.357V13H114.481C114.465 12.824 114.445 12.616 114.421 12.376C114.405 12.136 114.397 11.944 114.397 11.8V4.6ZM121.344 11.068H122.244C122.18 11.46 122.036 11.812 121.812 12.124C121.596 12.428 121.308 12.672 120.948 12.856C120.596 13.032 120.188 13.12 119.724 13.12C119.164 13.12 118.66 12.988 118.212 12.724C117.764 12.452 117.408 12.084 117.144 11.62C116.888 11.148 116.76 10.612 116.76 10.012C116.76 9.412 116.884 8.876 117.132 8.404C117.388 7.932 117.736 7.56 118.176 7.288C118.616 7.016 119.112 6.88 119.664 6.88C120.248 6.88 120.74 7.012 121.14 7.276C121.548 7.532 121.848 7.912 122.04 8.416C122.24 8.912 122.32 9.524 122.28 10.252H117.72C117.76 10.644 117.868 10.988 118.044 11.284C118.22 11.58 118.452 11.812 118.74 11.98C119.028 12.14 119.356 12.22 119.724 12.22C120.132 12.22 120.476 12.116 120.756 11.908C121.044 11.692 121.24 11.412 121.344 11.068ZM119.7 7.78C119.204 7.78 118.788 7.924 118.452 8.212C118.116 8.5 117.892 8.892 117.78 9.388H121.296C121.264 8.86 121.092 8.46 120.78 8.188C120.476 7.916 120.116 7.78 119.7 7.78ZM126.518 13.12C126.078 13.12 125.718 13.02 125.438 12.82C125.158 12.612 124.938 12.348 124.778 12.028C124.626 11.7 124.518 11.36 124.454 11.008C124.39 10.648 124.358 10.316 124.358 10.012C124.358 9.58 124.386 9.176 124.442 8.8C124.506 8.424 124.614 8.092 124.766 7.804C124.918 7.516 125.134 7.292 125.414 7.132C125.702 6.964 126.07 6.88 126.518 6.88C126.998 6.88 127.434 7.016 127.826 7.288C128.218 7.56 128.53 7.932 128.762 8.404C129.002 8.876 129.122 9.412 129.122 10.012C129.122 10.612 129.002 11.148 128.762 11.62C128.522 12.084 128.202 12.452 127.802 12.724C127.41 12.988 126.982 13.12 126.518 13.12ZM126.278 12.208C126.646 12.208 126.97 12.116 127.25 11.932C127.538 11.74 127.762 11.48 127.922 11.152C128.082 10.816 128.162 10.436 128.162 10.012C128.162 9.372 127.998 8.844 127.67 8.428C127.342 8.004 126.878 7.792 126.278 7.792C125.926 7.792 125.614 7.888 125.342 8.08C125.07 8.264 124.858 8.524 124.706 8.86C124.554 9.188 124.478 9.572 124.478 10.012C124.478 10.412 124.542 10.78 124.67 11.116C124.806 11.444 125.006 11.708 125.27 11.908C125.534 12.108 125.87 12.208 126.278 12.208ZM123.518 7H124.442L124.478 8.26V15.4H123.518V7ZM132.954 13.12C132.442 13.12 131.962 12.996 131.514 12.748C131.066 12.5 130.702 12.144 130.422 11.68C130.15 11.208 130.014 10.652 130.014 10.012C130.014 9.372 130.15 8.82 130.422 8.356C130.702 7.884 131.066 7.52 131.514 7.264C131.962 7.008 132.442 6.88 132.954 6.88C133.466 6.88 133.942 7.008 134.382 7.264C134.83 7.52 135.19 7.884 135.462 8.356C135.734 8.82 135.87 9.372 135.87 10.012C135.87 10.652 135.734 11.208 135.462 11.68C135.19 12.144 134.83 12.5 134.382 12.748C133.942 12.996 133.466 13.12 132.954 13.12ZM132.954 12.22C133.29 12.22 133.606 12.136 133.902 11.968C134.198 11.8 134.438 11.552 134.622 11.224C134.814 10.888 134.91 10.484 134.91 10.012C134.91 9.54 134.814 9.14 134.622 8.812C134.438 8.476 134.198 8.22 133.902 8.044C133.606 7.868 133.29 7.78 132.954 7.78C132.618 7.78 132.298 7.868 131.994 8.044C131.698 8.212 131.454 8.464 131.262 8.8C131.07 9.128 130.974 9.532 130.974 10.012C130.974 10.484 131.066 10.888 131.25 11.224C131.442 11.552 131.69 11.8 131.994 11.968C132.298 12.136 132.618 12.22 132.954 12.22ZM136.801 11.068H137.689C137.713 11.412 137.841 11.692 138.073 11.908C138.313 12.124 138.657 12.232 139.105 12.232C139.377 12.232 139.589 12.196 139.741 12.124C139.901 12.052 140.017 11.956 140.089 11.836C140.161 11.708 140.197 11.568 140.197 11.416C140.197 11.232 140.149 11.088 140.053 10.984C139.965 10.872 139.841 10.78 139.681 10.708C139.529 10.636 139.353 10.568 139.153 10.504C138.921 10.416 138.681 10.324 138.433 10.228C138.193 10.124 137.965 10.004 137.749 9.868C137.541 9.724 137.373 9.552 137.245 9.352C137.117 9.144 137.053 8.896 137.053 8.608C137.053 8.368 137.101 8.144 137.197 7.936C137.293 7.72 137.429 7.536 137.605 7.384C137.789 7.224 138.001 7.1 138.241 7.012C138.489 6.924 138.761 6.88 139.057 6.88C139.457 6.88 139.793 6.96 140.065 7.12C140.345 7.28 140.557 7.508 140.701 7.804C140.853 8.092 140.933 8.428 140.941 8.812H140.113C140.057 8.452 139.941 8.192 139.765 8.032C139.597 7.864 139.353 7.78 139.033 7.78C138.705 7.78 138.453 7.852 138.277 7.996C138.101 8.14 138.013 8.332 138.013 8.572C138.013 8.748 138.077 8.896 138.205 9.016C138.333 9.128 138.497 9.232 138.697 9.328C138.905 9.416 139.125 9.508 139.357 9.604C139.589 9.7 139.813 9.796 140.029 9.892C140.245 9.988 140.437 10.1 140.605 10.228C140.773 10.356 140.905 10.516 141.001 10.708C141.105 10.892 141.157 11.124 141.157 11.404C141.157 11.74 141.077 12.04 140.917 12.304C140.765 12.56 140.537 12.76 140.233 12.904C139.937 13.048 139.573 13.12 139.141 13.12C138.749 13.12 138.413 13.072 138.133 12.976C137.861 12.872 137.633 12.74 137.449 12.58C137.265 12.412 137.121 12.236 137.017 12.052C136.921 11.868 136.857 11.688 136.825 11.512C136.793 11.336 136.785 11.188 136.801 11.068ZM143.573 4.6V5.764H142.325V4.6H143.573ZM142.469 7H143.429V13H142.469V7ZM144.649 7H148.177V7.9H144.649V7ZM145.933 5.44H146.893V13H145.933V5.44ZM154.435 13.12C153.923 13.12 153.443 12.996 152.995 12.748C152.547 12.5 152.183 12.144 151.903 11.68C151.631 11.208 151.495 10.652 151.495 10.012C151.495 9.372 151.631 8.82 151.903 8.356C152.183 7.884 152.547 7.52 152.995 7.264C153.443 7.008 153.923 6.88 154.435 6.88C154.947 6.88 155.423 7.008 155.863 7.264C156.311 7.52 156.671 7.884 156.943 8.356C157.215 8.82 157.351 9.372 157.351 10.012C157.351 10.652 157.215 11.208 156.943 11.68C156.671 12.144 156.311 12.5 155.863 12.748C155.423 12.996 154.947 13.12 154.435 13.12ZM154.435 12.22C154.771 12.22 155.087 12.136 155.383 11.968C155.679 11.8 155.919 11.552 156.103 11.224C156.295 10.888 156.391 10.484 156.391 10.012C156.391 9.54 156.295 9.14 156.103 8.812C155.919 8.476 155.679 8.22 155.383 8.044C155.087 7.868 154.771 7.78 154.435 7.78C154.099 7.78 153.779 7.868 153.475 8.044C153.179 8.212 152.935 8.464 152.743 8.8C152.551 9.128 152.455 9.532 152.455 10.012C152.455 10.484 152.547 10.888 152.731 11.224C152.923 11.552 153.171 11.8 153.475 11.968C153.779 12.136 154.099 12.22 154.435 12.22ZM158.032 7H161.56V7.9H158.032V7ZM161.14 4.6H161.692V5.56H161.14C160.94 5.552 160.756 5.58 160.588 5.644C160.428 5.708 160.3 5.82 160.204 5.98C160.108 6.132 160.06 6.352 160.06 6.64V13H159.1V6.64C159.1 6.16 159.184 5.772 159.352 5.476C159.528 5.172 159.768 4.952 160.072 4.816C160.384 4.672 160.74 4.6 161.14 4.6ZM221.435 13.12C220.963 13.12 220.527 12.988 220.127 12.724C219.735 12.452 219.419 12.084 219.179 11.62C218.947 11.148 218.831 10.612 218.831 10.012C218.831 9.412 218.951 8.876 219.191 8.404C219.431 7.932 219.755 7.56 220.163 7.288C220.579 7.016 221.043 6.88 221.555 6.88C222.115 6.88 222.539 7.024 222.827 7.312C223.123 7.592 223.323 7.968 223.427 8.44C223.539 8.912 223.595 9.436 223.595 10.012C223.595 10.316 223.563 10.648 223.499 11.008C223.435 11.36 223.323 11.7 223.163 12.028C223.011 12.348 222.795 12.612 222.515 12.82C222.235 13.02 221.875 13.12 221.435 13.12ZM221.675 12.208C222.083 12.208 222.419 12.108 222.683 11.908C222.955 11.708 223.155 11.444 223.283 11.116C223.411 10.78 223.475 10.412 223.475 10.012C223.475 9.572 223.407 9.188 223.271 8.86C223.143 8.524 222.943 8.264 222.671 8.08C222.407 7.888 222.075 7.792 221.675 7.792C221.075 7.792 220.611 8.004 220.283 8.428C219.955 8.844 219.791 9.372 219.791 10.012C219.791 10.436 219.871 10.816 220.031 11.152C220.199 11.48 220.423 11.74 220.703 11.932C220.991 12.116 221.315 12.208 221.675 12.208ZM223.475 7H224.435V13H223.559C223.559 13 223.551 12.928 223.535 12.784C223.527 12.64 223.515 12.472 223.499 12.28C223.483 12.088 223.475 11.928 223.475 11.8V7ZM225.999 7H226.959V13H225.999V7ZM229.023 6.88C229.343 6.88 229.631 6.928 229.887 7.024C230.143 7.12 230.359 7.26 230.535 7.444C230.711 7.628 230.847 7.852 230.943 8.116C231.039 8.372 231.087 8.664 231.087 8.992V13H230.127V9.232C230.127 8.768 230.019 8.42 229.803 8.188C229.587 7.956 229.263 7.84 228.831 7.84C228.503 7.84 228.199 7.924 227.919 8.092C227.639 8.26 227.407 8.492 227.223 8.788C227.047 9.076 226.939 9.412 226.899 9.796L226.887 9.1C226.927 8.764 227.007 8.46 227.127 8.188C227.255 7.916 227.411 7.684 227.595 7.492C227.787 7.292 228.003 7.14 228.243 7.036C228.491 6.932 228.751 6.88 229.023 6.88ZM234.911 13.12C234.431 13.12 233.991 12.988 233.591 12.724C233.199 12.452 232.887 12.084 232.655 11.62C232.423 11.148 232.307 10.612 232.307 10.012C232.307 9.412 232.419 8.876 232.643 8.404C232.867 7.932 233.175 7.56 233.567 7.288C233.959 7.016 234.407 6.88 234.911 6.88C235.359 6.88 235.723 6.964 236.003 7.132C236.291 7.292 236.511 7.516 236.663 7.804C236.815 8.092 236.919 8.424 236.975 8.8C237.039 9.176 237.071 9.58 237.071 10.012C237.071 10.316 237.039 10.648 236.975 11.008C236.911 11.36 236.799 11.7 236.639 12.028C236.487 12.348 236.271 12.612 235.991 12.82C235.711 13.02 235.351 13.12 234.911 13.12ZM235.151 12.208C235.559 12.208 235.895 12.108 236.159 11.908C236.431 11.708 236.631 11.444 236.759 11.116C236.887 10.78 236.951 10.412 236.951 10.012C236.951 9.572 236.883 9.188 236.747 8.86C236.619 8.524 236.419 8.264 236.147 8.08C235.883 7.888 235.551 7.792 235.151 7.792C234.551 7.792 234.087 8.004 233.759 8.428C233.431 8.844 233.267 9.372 233.267 10.012C233.267 10.436 233.347 10.816 233.507 11.152C233.675 11.48 233.899 11.74 234.179 11.932C234.467 12.116 234.791 12.208 235.151 12.208ZM236.951 4.6H237.911V13H237.035C237.019 12.824 236.999 12.616 236.975 12.376C236.959 12.136 236.951 11.944 236.951 11.8V4.6ZM247.499 10.744C247.443 11.24 247.283 11.668 247.019 12.028C246.763 12.38 246.439 12.652 246.047 12.844C245.655 13.028 245.231 13.12 244.775 13.12C244.263 13.12 243.783 12.996 243.335 12.748C242.887 12.5 242.523 12.144 242.243 11.68C241.971 11.208 241.835 10.652 241.835 10.012C241.835 9.372 241.971 8.82 242.243 8.356C242.523 7.884 242.887 7.52 243.335 7.264C243.783 7.008 244.263 6.88 244.775 6.88C245.231 6.88 245.651 6.976 246.035 7.168C246.427 7.36 246.751 7.632 247.007 7.984C247.271 8.336 247.435 8.756 247.499 9.244H246.623C246.487 8.788 246.251 8.432 245.915 8.176C245.579 7.912 245.199 7.78 244.775 7.78C244.431 7.78 244.107 7.868 243.803 8.044C243.499 8.22 243.255 8.476 243.071 8.812C242.887 9.14 242.795 9.54 242.795 10.012C242.795 10.476 242.887 10.876 243.071 11.212C243.255 11.54 243.495 11.792 243.791 11.968C244.095 12.136 244.423 12.22 244.775 12.22C245.263 12.22 245.659 12.092 245.963 11.836C246.275 11.572 246.499 11.208 246.635 10.744H247.499ZM253.809 13H252.849V7H253.809V13ZM252.909 10.204L252.921 10.54C252.913 10.636 252.889 10.784 252.849 10.984C252.817 11.184 252.757 11.408 252.669 11.656C252.589 11.896 252.469 12.128 252.309 12.352C252.157 12.576 251.957 12.76 251.709 12.904C251.469 13.048 251.169 13.12 250.809 13.12C250.577 13.12 250.337 13.084 250.089 13.012C249.849 12.948 249.625 12.84 249.417 12.688C249.209 12.528 249.041 12.308 248.913 12.028C248.785 11.748 248.721 11.4 248.721 10.984V7H249.681V10.744C249.681 11.104 249.737 11.388 249.849 11.596C249.969 11.796 250.129 11.94 250.329 12.028C250.529 12.116 250.753 12.16 251.001 12.16C251.409 12.16 251.749 12.056 252.021 11.848C252.293 11.64 252.501 11.384 252.645 11.08C252.789 10.776 252.877 10.484 252.909 10.204ZM255.366 7H256.326V13H255.366V7ZM258.39 6.88C258.71 6.88 258.998 6.928 259.254 7.024C259.51 7.12 259.726 7.26 259.902 7.444C260.078 7.628 260.214 7.852 260.31 8.116C260.406 8.372 260.454 8.664 260.454 8.992V13H259.494V9.232C259.494 8.768 259.386 8.42 259.17 8.188C258.954 7.956 258.63 7.84 258.198 7.84C257.87 7.84 257.566 7.924 257.286 8.092C257.006 8.26 256.774 8.492 256.59 8.788C256.414 9.076 256.306 9.412 256.266 9.796L256.254 9.1C256.294 8.764 256.374 8.46 256.494 8.188C256.622 7.916 256.778 7.684 256.962 7.492C257.154 7.292 257.37 7.14 257.61 7.036C257.858 6.932 258.118 6.88 258.39 6.88ZM262.422 6.88C262.742 6.88 263.03 6.928 263.286 7.024C263.542 7.12 263.758 7.26 263.934 7.444C264.11 7.628 264.246 7.852 264.342 8.116C264.438 8.372 264.486 8.664 264.486 8.992V13H263.526V9.232C263.526 8.768 263.418 8.42 263.202 8.188C262.986 7.956 262.662 7.84 262.23 7.84C261.902 7.84 261.598 7.924 261.318 8.092C261.038 8.26 260.806 8.492 260.622 8.788C260.446 9.076 260.338 9.412 260.298 9.796L260.286 9.1C260.326 8.764 260.406 8.46 260.526 8.188C260.654 7.916 260.81 7.684 260.994 7.492C261.186 7.292 261.402 7.14 261.642 7.036C261.89 6.932 262.15 6.88 262.422 6.88ZM266.042 7H267.002V13H266.042V7ZM269.066 6.88C269.386 6.88 269.674 6.928 269.93 7.024C270.186 7.12 270.402 7.26 270.578 7.444C270.754 7.628 270.89 7.852 270.986 8.116C271.082 8.372 271.13 8.664 271.13 8.992V13H270.17V9.232C270.17 8.768 270.062 8.42 269.846 8.188C269.63 7.956 269.306 7.84 268.874 7.84C268.546 7.84 268.242 7.924 267.962 8.092C267.682 8.26 267.45 8.492 267.266 8.788C267.09 9.076 266.982 9.412 266.942 9.796L266.93 9.1C266.97 8.764 267.05 8.46 267.17 8.188C267.298 7.916 267.454 7.684 267.638 7.492C267.83 7.292 268.046 7.14 268.286 7.036C268.534 6.932 268.794 6.88 269.066 6.88ZM273.098 6.88C273.418 6.88 273.706 6.928 273.962 7.024C274.218 7.12 274.434 7.26 274.61 7.444C274.786 7.628 274.922 7.852 275.018 8.116C275.114 8.372 275.162 8.664 275.162 8.992V13H274.202V9.232C274.202 8.768 274.094 8.42 273.878 8.188C273.662 7.956 273.338 7.84 272.906 7.84C272.578 7.84 272.274 7.924 271.994 8.092C271.714 8.26 271.482 8.492 271.298 8.788C271.122 9.076 271.014 9.412 270.974 9.796L270.962 9.1C271.002 8.764 271.082 8.46 271.202 8.188C271.33 7.916 271.486 7.684 271.67 7.492C271.862 7.292 272.078 7.14 272.318 7.036C272.566 6.932 272.826 6.88 273.098 6.88ZM281.806 13H280.846V7H281.806V13ZM280.906 10.204L280.918 10.54C280.91 10.636 280.886 10.784 280.846 10.984C280.814 11.184 280.754 11.408 280.666 11.656C280.586 11.896 280.466 12.128 280.306 12.352C280.154 12.576 279.954 12.76 279.706 12.904C279.466 13.048 279.166 13.12 278.806 13.12C278.574 13.12 278.334 13.084 278.086 13.012C277.846 12.948 277.622 12.84 277.414 12.688C277.206 12.528 277.038 12.308 276.91 12.028C276.782 11.748 276.718 11.4 276.718 10.984V7H277.678V10.744C277.678 11.104 277.734 11.388 277.846 11.596C277.966 11.796 278.126 11.94 278.326 12.028C278.526 12.116 278.75 12.16 278.998 12.16C279.406 12.16 279.746 12.056 280.018 11.848C280.29 11.64 280.498 11.384 280.642 11.08C280.786 10.776 280.874 10.484 280.906 10.204ZM283.482 4.6H284.442V13H283.482V4.6ZM288.396 13.12C287.924 13.12 287.488 12.988 287.088 12.724C286.696 12.452 286.38 12.084 286.14 11.62C285.908 11.148 285.792 10.612 285.792 10.012C285.792 9.412 285.912 8.876 286.152 8.404C286.392 7.932 286.716 7.56 287.124 7.288C287.54 7.016 288.004 6.88 288.516 6.88C289.076 6.88 289.5 7.024 289.788 7.312C290.084 7.592 290.284 7.968 290.388 8.44C290.5 8.912 290.556 9.436 290.556 10.012C290.556 10.316 290.524 10.648 290.46 11.008C290.396 11.36 290.284 11.7 290.124 12.028C289.972 12.348 289.756 12.612 289.476 12.82C289.196 13.02 288.836 13.12 288.396 13.12ZM288.636 12.208C289.044 12.208 289.38 12.108 289.644 11.908C289.916 11.708 290.116 11.444 290.244 11.116C290.372 10.78 290.436 10.412 290.436 10.012C290.436 9.572 290.368 9.188 290.232 8.86C290.104 8.524 289.904 8.264 289.632 8.08C289.368 7.888 289.036 7.792 288.636 7.792C288.036 7.792 287.572 8.004 287.244 8.428C286.916 8.844 286.752 9.372 286.752 10.012C286.752 10.436 286.832 10.816 286.992 11.152C287.16 11.48 287.384 11.74 287.664 11.932C287.952 12.116 288.276 12.208 288.636 12.208ZM290.436 7H291.396V13H290.52C290.52 13 290.512 12.928 290.496 12.784C290.488 12.64 290.476 12.472 290.46 12.28C290.444 12.088 290.436 11.928 290.436 11.8V7ZM292.54 7H296.068V7.9H292.54V7ZM293.824 5.44H294.784V13H293.824V5.44ZM298.39 4.6V5.764H297.142V4.6H298.39ZM297.286 7H298.246V13H297.286V7ZM302.201 12.172H301.913L303.749 7H304.793L302.513 13H301.613L299.345 7H300.389L302.201 12.172ZM309.887 11.068H310.787C310.723 11.46 310.579 11.812 310.355 12.124C310.139 12.428 309.851 12.672 309.491 12.856C309.139 13.032 308.731 13.12 308.267 13.12C307.707 13.12 307.203 12.988 306.755 12.724C306.307 12.452 305.951 12.084 305.687 11.62C305.431 11.148 305.303 10.612 305.303 10.012C305.303 9.412 305.427 8.876 305.675 8.404C305.931 7.932 306.279 7.56 306.719 7.288C307.159 7.016 307.655 6.88 308.207 6.88C308.791 6.88 309.283 7.012 309.683 7.276C310.091 7.532 310.391 7.912 310.583 8.416C310.783 8.912 310.863 9.524 310.823 10.252H306.263C306.303 10.644 306.411 10.988 306.587 11.284C306.763 11.58 306.995 11.812 307.283 11.98C307.571 12.14 307.899 12.22 308.267 12.22C308.675 12.22 309.019 12.116 309.299 11.908C309.587 11.692 309.783 11.412 309.887 11.068ZM308.243 7.78C307.747 7.78 307.331 7.924 306.995 8.212C306.659 8.5 306.435 8.892 306.323 9.388H309.839C309.807 8.86 309.635 8.46 309.323 8.188C309.019 7.916 308.659 7.78 308.243 7.78ZM317.761 13.12C317.321 13.12 316.961 13.02 316.681 12.82C316.401 12.612 316.181 12.348 316.021 12.028C315.869 11.7 315.761 11.36 315.697 11.008C315.633 10.648 315.601 10.316 315.601 10.012C315.601 9.58 315.629 9.176 315.685 8.8C315.749 8.424 315.857 8.092 316.009 7.804C316.161 7.516 316.377 7.292 316.657 7.132C316.945 6.964 317.313 6.88 317.761 6.88C318.265 6.88 318.713 7.016 319.105 7.288C319.497 7.56 319.805 7.932 320.029 8.404C320.253 8.876 320.365 9.412 320.365 10.012C320.365 10.612 320.249 11.148 320.017 11.62C319.785 12.084 319.473 12.452 319.081 12.724C318.689 12.988 318.249 13.12 317.761 13.12ZM317.521 12.208C317.889 12.208 318.213 12.116 318.493 11.932C318.773 11.74 318.993 11.48 319.153 11.152C319.321 10.816 319.405 10.436 319.405 10.012C319.405 9.372 319.241 8.844 318.913 8.428C318.585 8.004 318.121 7.792 317.521 7.792C317.121 7.792 316.785 7.888 316.513 8.08C316.249 8.264 316.049 8.524 315.913 8.86C315.785 9.188 315.721 9.572 315.721 10.012C315.721 10.412 315.785 10.78 315.913 11.116C316.049 11.444 316.249 11.708 316.513 11.908C316.777 12.108 317.113 12.208 317.521 12.208ZM315.721 4.6V11.8C315.721 11.944 315.709 12.136 315.685 12.376C315.669 12.616 315.653 12.824 315.637 13H314.761V4.6H315.721ZM323.857 13.12C323.385 13.12 322.949 12.988 322.549 12.724C322.157 12.452 321.841 12.084 321.601 11.62C321.369 11.148 321.253 10.612 321.253 10.012C321.253 9.412 321.373 8.876 321.613 8.404C321.853 7.932 322.177 7.56 322.585 7.288C323.001 7.016 323.465 6.88 323.977 6.88C324.537 6.88 324.961 7.024 325.249 7.312C325.545 7.592 325.745 7.968 325.849 8.44C325.961 8.912 326.017 9.436 326.017 10.012C326.017 10.316 325.985 10.648 325.921 11.008C325.857 11.36 325.745 11.7 325.585 12.028C325.433 12.348 325.217 12.612 324.937 12.82C324.657 13.02 324.297 13.12 323.857 13.12ZM324.097 12.208C324.505 12.208 324.841 12.108 325.105 11.908C325.377 11.708 325.577 11.444 325.705 11.116C325.833 10.78 325.897 10.412 325.897 10.012C325.897 9.572 325.829 9.188 325.693 8.86C325.565 8.524 325.365 8.264 325.093 8.08C324.829 7.888 324.497 7.792 324.097 7.792C323.497 7.792 323.033 8.004 322.705 8.428C322.377 8.844 322.213 9.372 322.213 10.012C322.213 10.436 322.293 10.816 322.453 11.152C322.621 11.48 322.845 11.74 323.125 11.932C323.413 12.116 323.737 12.208 324.097 12.208ZM325.897 7H326.857V13H325.981C325.981 13 325.973 12.928 325.957 12.784C325.949 12.64 325.937 12.472 325.921 12.28C325.905 12.088 325.897 11.928 325.897 11.8V7ZM328.541 4.6H329.501V13H328.541V4.6ZM333.454 13.12C332.982 13.12 332.546 12.988 332.146 12.724C331.754 12.452 331.438 12.084 331.198 11.62C330.966 11.148 330.85 10.612 330.85 10.012C330.85 9.412 330.97 8.876 331.21 8.404C331.45 7.932 331.774 7.56 332.182 7.288C332.598 7.016 333.062 6.88 333.574 6.88C334.134 6.88 334.558 7.024 334.846 7.312C335.142 7.592 335.342 7.968 335.446 8.44C335.558 8.912 335.614 9.436 335.614 10.012C335.614 10.316 335.582 10.648 335.518 11.008C335.454 11.36 335.342 11.7 335.182 12.028C335.03 12.348 334.814 12.612 334.534 12.82C334.254 13.02 333.894 13.12 333.454 13.12ZM333.694 12.208C334.102 12.208 334.438 12.108 334.702 11.908C334.974 11.708 335.174 11.444 335.302 11.116C335.43 10.78 335.494 10.412 335.494 10.012C335.494 9.572 335.426 9.188 335.29 8.86C335.162 8.524 334.962 8.264 334.69 8.08C334.426 7.888 334.094 7.792 333.694 7.792C333.094 7.792 332.63 8.004 332.302 8.428C331.974 8.844 331.81 9.372 331.81 10.012C331.81 10.436 331.89 10.816 332.05 11.152C332.218 11.48 332.442 11.74 332.722 11.932C333.01 12.116 333.334 12.208 333.694 12.208ZM335.494 7H336.454V13H335.578C335.578 13 335.57 12.928 335.554 12.784C335.546 12.64 335.534 12.472 335.518 12.28C335.502 12.088 335.494 11.928 335.494 11.8V7ZM338.018 7H338.978V13H338.018V7ZM341.042 6.88C341.362 6.88 341.65 6.928 341.906 7.024C342.162 7.12 342.378 7.26 342.554 7.444C342.73 7.628 342.866 7.852 342.962 8.116C343.058 8.372 343.106 8.664 343.106 8.992V13H342.146V9.232C342.146 8.768 342.038 8.42 341.822 8.188C341.606 7.956 341.282 7.84 340.85 7.84C340.522 7.84 340.218 7.924 339.938 8.092C339.658 8.26 339.426 8.492 339.242 8.788C339.066 9.076 338.958 9.412 338.918 9.796L338.906 9.1C338.946 8.764 339.026 8.46 339.146 8.188C339.274 7.916 339.43 7.684 339.614 7.492C339.806 7.292 340.022 7.14 340.262 7.036C340.51 6.932 340.77 6.88 341.042 6.88ZM349.991 10.744C349.935 11.24 349.775 11.668 349.511 12.028C349.255 12.38 348.931 12.652 348.539 12.844C348.147 13.028 347.723 13.12 347.267 13.12C346.755 13.12 346.275 12.996 345.827 12.748C345.379 12.5 345.015 12.144 344.735 11.68C344.463 11.208 344.327 10.652 344.327 10.012C344.327 9.372 344.463 8.82 344.735 8.356C345.015 7.884 345.379 7.52 345.827 7.264C346.275 7.008 346.755 6.88 347.267 6.88C347.723 6.88 348.143 6.976 348.527 7.168C348.919 7.36 349.243 7.632 349.499 7.984C349.763 8.336 349.927 8.756 349.991 9.244H349.115C348.979 8.788 348.743 8.432 348.407 8.176C348.071 7.912 347.691 7.78 347.267 7.78C346.923 7.78 346.599 7.868 346.295 8.044C345.991 8.22 345.747 8.476 345.563 8.812C345.379 9.14 345.287 9.54 345.287 10.012C345.287 10.476 345.379 10.876 345.563 11.212C345.747 11.54 345.987 11.792 346.283 11.968C346.587 12.136 346.915 12.22 347.267 12.22C347.755 12.22 348.151 12.092 348.455 11.836C348.767 11.572 348.991 11.208 349.127 10.744H349.991ZM355.462 11.068H356.362C356.298 11.46 356.154 11.812 355.93 12.124C355.714 12.428 355.426 12.672 355.066 12.856C354.714 13.032 354.306 13.12 353.842 13.12C353.282 13.12 352.778 12.988 352.33 12.724C351.882 12.452 351.526 12.084 351.262 11.62C351.006 11.148 350.878 10.612 350.878 10.012C350.878 9.412 351.002 8.876 351.25 8.404C351.506 7.932 351.854 7.56 352.294 7.288C352.734 7.016 353.23 6.88 353.782 6.88C354.366 6.88 354.858 7.012 355.258 7.276C355.666 7.532 355.966 7.912 356.158 8.416C356.358 8.912 356.438 9.524 356.398 10.252H351.838C351.878 10.644 351.986 10.988 352.162 11.284C352.338 11.58 352.57 11.812 352.858 11.98C353.146 12.14 353.474 12.22 353.842 12.22C354.25 12.22 354.594 12.116 354.874 11.908C355.162 11.692 355.358 11.412 355.462 11.068ZM353.818 7.78C353.322 7.78 352.906 7.924 352.57 8.212C352.234 8.5 352.01 8.892 351.898 9.388H355.414C355.382 8.86 355.21 8.46 354.898 8.188C354.594 7.916 354.234 7.78 353.818 7.78ZM362.759 13.12C362.247 13.12 361.767 12.996 361.319 12.748C360.871 12.5 360.507 12.144 360.227 11.68C359.955 11.208 359.819 10.652 359.819 10.012C359.819 9.372 359.955 8.82 360.227 8.356C360.507 7.884 360.871 7.52 361.319 7.264C361.767 7.008 362.247 6.88 362.759 6.88C363.271 6.88 363.747 7.008 364.187 7.264C364.635 7.52 364.995 7.884 365.267 8.356C365.539 8.82 365.675 9.372 365.675 10.012C365.675 10.652 365.539 11.208 365.267 11.68C364.995 12.144 364.635 12.5 364.187 12.748C363.747 12.996 363.271 13.12 362.759 13.12ZM362.759 12.22C363.095 12.22 363.411 12.136 363.707 11.968C364.003 11.8 364.243 11.552 364.427 11.224C364.619 10.888 364.715 10.484 364.715 10.012C364.715 9.54 364.619 9.14 364.427 8.812C364.243 8.476 364.003 8.22 363.707 8.044C363.411 7.868 363.095 7.78 362.759 7.78C362.423 7.78 362.103 7.868 361.799 8.044C361.503 8.212 361.259 8.464 361.067 8.8C360.875 9.128 360.779 9.532 360.779 10.012C360.779 10.484 360.871 10.888 361.055 11.224C361.247 11.552 361.495 11.8 361.799 11.968C362.103 12.136 362.423 12.22 362.759 12.22ZM366.356 7H369.884V7.9H366.356V7ZM369.464 4.6H370.016V5.56H369.464C369.264 5.552 369.08 5.58 368.912 5.644C368.752 5.708 368.624 5.82 368.528 5.98C368.432 6.132 368.384 6.352 368.384 6.64V13H367.424V6.64C367.424 6.16 367.508 5.772 367.676 5.476C367.852 5.172 368.092 4.952 368.396 4.816C368.708 4.672 369.064 4.6 369.464 4.6Z" fill="#9CA3AF"/>
<path d="M166.536 13H165.36V4.324H166.536L170.976 11.032V4.324H172.152V13H170.976L166.536 6.292V13ZM176.668 13.144C174.892 13.144 173.74 12.016 173.74 10.288H174.904C174.904 11.404 175.588 12.088 176.692 12.088C177.868 12.088 178.624 11.308 178.624 10.132C178.624 9.016 177.916 8.188 176.704 8.188C175.972 8.188 175.3 8.536 174.904 9.028L173.908 8.776L174.964 4.324H179.308V5.404H175.816L175.24 7.708C175.696 7.36 176.272 7.18 176.92 7.18C178.684 7.18 179.824 8.416 179.824 10.084C179.824 11.884 178.54 13.144 176.668 13.144ZM180.842 8.668C180.842 5.98 182.234 4.156 184.418 4.156C186.59 4.156 187.982 5.98 187.982 8.668C187.982 11.368 186.65 13.156 184.418 13.156C182.174 13.156 180.842 11.368 180.842 8.668ZM182.006 8.668C182.006 10.804 182.894 12.1 184.418 12.1C185.942 12.1 186.818 10.804 186.818 8.668C186.818 6.508 185.942 5.212 184.418 5.212C182.894 5.212 182.006 6.508 182.006 8.668ZM190.59 12.532C190.59 13.396 189.942 14.116 189.09 14.224V13.72C189.582 13.636 189.93 13.312 189.93 12.94C189.846 12.988 189.75 13.012 189.606 13.012C189.21 13.012 188.874 12.724 188.874 12.28C188.874 11.8 189.198 11.452 189.678 11.452C190.182 11.452 190.59 11.872 190.59 12.532ZM191.494 8.668C191.494 5.98 192.886 4.156 195.07 4.156C197.242 4.156 198.634 5.98 198.634 8.668C198.634 11.368 197.302 13.156 195.07 13.156C192.826 13.156 191.494 11.368 191.494 8.668ZM192.658 8.668C192.658 10.804 193.546 12.1 195.07 12.1C196.594 12.1 197.47 10.804 197.47 8.668C197.47 6.508 196.594 5.212 195.07 5.212C193.546 5.212 192.658 6.508 192.658 8.668ZM199.815 8.668C199.815 5.98 201.207 4.156 203.391 4.156C205.563 4.156 206.955 5.98 206.955 8.668C206.955 11.368 205.623 13.156 203.391 13.156C201.147 13.156 199.815 11.368 199.815 8.668ZM200.979 8.668C200.979 10.804 201.867 12.1 203.391 12.1C204.915 12.1 205.791 10.804 205.791 8.668C205.791 6.508 204.915 5.212 203.391 5.212C201.867 5.212 200.979 6.508 200.979 8.668ZM208.135 8.668C208.135 5.98 209.527 4.156 211.711 4.156C213.883 4.156 215.275 5.98 215.275 8.668C215.275 11.368 213.943 13.156 211.711 13.156C209.467 13.156 208.135 11.368 208.135 8.668ZM209.299 8.668C209.299 10.804 210.187 12.1 211.711 12.1C213.235 12.1 214.111 10.804 214.111 8.668C214.111 6.508 213.235 5.212 211.711 5.212C210.187 5.212 209.299 6.508 209.299 8.668ZM374.86 13H373.684V4.324H374.86L379.3 11.032V4.324H380.476V13H379.3L374.86 6.292V13ZM388.544 11.248H387.512V13H386.384V11.248H381.896V10.204L385.988 4.324H387.512V10.204H388.544V11.248ZM383.168 10.204H386.384V5.572L383.168 10.204ZM389.705 8.668C389.705 5.98 391.097 4.156 393.281 4.156C395.453 4.156 396.845 5.98 396.845 8.668C396.845 11.368 395.513 13.156 393.281 13.156C391.037 13.156 389.705 11.368 389.705 8.668ZM390.869 8.668C390.869 10.804 391.757 12.1 393.281 12.1C394.805 12.1 395.681 10.804 395.681 8.668C395.681 6.508 394.805 5.212 393.281 5.212C391.757 5.212 390.869 6.508 390.869 8.668ZM398.026 8.668C398.026 5.98 399.418 4.156 401.602 4.156C403.773 4.156 405.166 5.98 405.166 8.668C405.166 11.368 403.834 13.156 401.602 13.156C399.358 13.156 398.026 11.368 398.026 8.668ZM399.19 8.668C399.19 10.804 400.078 12.1 401.602 12.1C403.126 12.1 404.002 10.804 404.002 8.668C404.002 6.508 403.126 5.212 401.602 5.212C400.078 5.212 399.19 6.508 399.19 8.668ZM407.774 12.532C407.774 13.396 407.126 14.116 406.274 14.224V13.72C406.766 13.636 407.114 13.312 407.114 12.94C407.03 12.988 406.934 13.012 406.79 13.012C406.394 13.012 406.058 12.724 406.058 12.28C406.058 11.8 406.382 11.452 406.862 11.452C407.366 11.452 407.774 11.872 407.774 12.532ZM408.678 8.668C408.678 5.98 410.07 4.156 412.254 4.156C414.426 4.156 415.818 5.98 415.818 8.668C415.818 11.368 414.486 13.156 412.254 13.156C410.01 13.156 408.678 11.368 408.678 8.668ZM409.842 8.668C409.842 10.804 410.73 12.1 412.254 12.1C413.778 12.1 414.654 10.804 414.654 8.668C414.654 6.508 413.778 5.212 412.254 5.212C410.73 5.212 409.842 6.508 409.842 8.668ZM416.998 8.668C416.998 5.98 418.39 4.156 420.574 4.156C422.746 4.156 424.138 5.98 424.138 8.668C424.138 11.368 422.806 13.156 420.574 13.156C418.33 13.156 416.998 11.368 416.998 8.668ZM418.162 8.668C418.162 10.804 419.05 12.1 420.574 12.1C422.098 12.1 422.974 10.804 422.974 8.668C422.974 6.508 422.098 5.212 420.574 5.212C419.05 5.212 418.162 6.508 418.162 8.668ZM425.318 8.668C425.318 5.98 426.71 4.156 428.894 4.156C431.066 4.156 432.458 5.98 432.458 8.668C432.458 11.368 431.126 13.156 428.894 13.156C426.65 13.156 425.318 11.368 425.318 8.668ZM426.482 8.668C426.482 10.804 427.37 12.1 428.894 12.1C430.418 12.1 431.294 10.804 431.294 8.668C431.294 6.508 430.418 5.212 428.894 5.212C427.37 5.212 426.482 6.508 426.482 8.668Z" fill="#6B7280"/>
</svg>
