<svg width="556" height="35" viewBox="0 0 556 35" fill="none" xmlns="http://www.w3.org/2000/svg">
<circle cx="12.4856" cy="17.2227" r="11.5" fill="white" stroke="#003131"/>
<circle cx="12.4856" cy="17.2227" r="7" fill="#003131"/>
<rect width="60" height="34" transform="translate(24.4856 0.222656)" fill="white"/>
<path d="M38.5536 13.4347C39.3616 13.4347 40.0376 13.5387 40.5816 13.7467C41.1336 13.9467 41.5736 14.2267 41.9016 14.5867C42.2376 14.9467 42.4776 15.3587 42.6216 15.8227C42.7656 16.2867 42.8376 16.7787 42.8376 17.2987C42.8376 17.8107 42.7576 18.3027 42.5976 18.7747C42.4456 19.2467 42.1976 19.6667 41.8536 20.0347C41.5176 20.4027 41.0776 20.6947 40.5336 20.9107C39.9896 21.1187 39.3296 21.2227 38.5536 21.2227H35.4336V13.4347H38.5536ZM36.5856 20.1787H38.5416C39.1576 20.1787 39.6656 20.0987 40.0656 19.9387C40.4656 19.7707 40.7816 19.5507 41.0136 19.2787C41.2536 18.9987 41.4216 18.6867 41.5176 18.3427C41.6216 17.9987 41.6736 17.6507 41.6736 17.2987C41.6736 16.9387 41.6216 16.5907 41.5176 16.2547C41.4216 15.9187 41.2536 15.6187 41.0136 15.3547C40.7816 15.0827 40.4656 14.8707 40.0656 14.7187C39.6656 14.5587 39.1576 14.4787 38.5416 14.4787H36.5856V20.1787ZM48.8264 19.2787H49.9184C49.8544 19.6707 49.7024 20.0227 49.4624 20.3347C49.2224 20.6467 48.9064 20.8947 48.5144 21.0787C48.1224 21.2627 47.6624 21.3547 47.1344 21.3547C46.5104 21.3547 45.9544 21.2227 45.4664 20.9587C44.9784 20.6947 44.5944 20.3307 44.3144 19.8667C44.0344 19.4027 43.8944 18.8627 43.8944 18.2467C43.8944 17.6227 44.0304 17.0787 44.3024 16.6147C44.5744 16.1427 44.9504 15.7747 45.4304 15.5107C45.9104 15.2467 46.4584 15.1147 47.0744 15.1147C47.7224 15.1147 48.2664 15.2427 48.7064 15.4987C49.1464 15.7547 49.4704 16.1347 49.6784 16.6387C49.8944 17.1347 49.9824 17.7547 49.9424 18.4987H45.0344C45.0744 18.8587 45.1824 19.1787 45.3584 19.4587C45.5424 19.7387 45.7824 19.9587 46.0784 20.1187C46.3824 20.2787 46.7304 20.3587 47.1224 20.3587C47.5624 20.3587 47.9304 20.2587 48.2264 20.0587C48.5224 19.8587 48.7224 19.5987 48.8264 19.2787ZM47.0864 16.0987C46.5664 16.0987 46.1344 16.2387 45.7904 16.5187C45.4464 16.7907 45.2184 17.1547 45.1064 17.6107H48.7904C48.7584 17.1227 48.5824 16.7507 48.2624 16.4947C47.9424 16.2307 47.5504 16.0987 47.0864 16.0987ZM50.6302 15.2347H54.5062V16.2307H50.6302V15.2347ZM51.9982 13.6507H53.1382V21.2227H51.9982V13.6507ZM57.9636 21.3427C57.4516 21.3427 56.9836 21.2107 56.5596 20.9467C56.1356 20.6827 55.7996 20.3187 55.5516 19.8547C55.3036 19.3827 55.1796 18.8427 55.1796 18.2347C55.1796 17.6267 55.3036 17.0907 55.5516 16.6267C55.8076 16.1547 56.1556 15.7867 56.5956 15.5227C57.0356 15.2507 57.5276 15.1147 58.0716 15.1147C58.6716 15.1147 59.1356 15.2547 59.4636 15.5347C59.7996 15.8147 60.0316 16.1907 60.1596 16.6627C60.2956 17.1347 60.3636 17.6587 60.3636 18.2347C60.3636 18.5547 60.3236 18.8947 60.2436 19.2547C60.1636 19.6147 60.0356 19.9547 59.8596 20.2747C59.6836 20.5947 59.4396 20.8547 59.1276 21.0547C58.8156 21.2467 58.4276 21.3427 57.9636 21.3427ZM58.2876 20.3467C58.7116 20.3467 59.0676 20.2547 59.3556 20.0707C59.6516 19.8787 59.8716 19.6227 60.0156 19.3027C60.1596 18.9827 60.2316 18.6267 60.2316 18.2347C60.2316 17.8107 60.1556 17.4387 60.0036 17.1187C59.8596 16.7987 59.6396 16.5507 59.3436 16.3747C59.0556 16.1987 58.7036 16.1107 58.2876 16.1107C57.6636 16.1107 57.1796 16.3107 56.8356 16.7107C56.4996 17.1107 56.3316 17.6187 56.3316 18.2347C56.3316 18.6507 56.4156 19.0187 56.5836 19.3387C56.7516 19.6507 56.9796 19.8987 57.2676 20.0827C57.5636 20.2587 57.9036 20.3467 58.2876 20.3467ZM60.2316 15.2347H61.3836V21.2227H60.3276C60.3276 21.2227 60.3196 21.1507 60.3036 21.0067C60.2876 20.8547 60.2716 20.6747 60.2556 20.4667C60.2396 20.2587 60.2316 20.0747 60.2316 19.9147V15.2347ZM64.2661 12.7627V13.9987H62.8381V12.7627H64.2661ZM62.9821 15.2347H64.1221V21.2227H62.9821V15.2347ZM65.8655 12.8347H67.0175V21.2227H65.8655V12.8347ZM68.3995 19.2787H69.4555C69.4955 19.5987 69.6395 19.8627 69.8875 20.0707C70.1355 20.2707 70.4835 20.3707 70.9315 20.3707C71.2195 20.3707 71.4435 20.3387 71.6035 20.2747C71.7635 20.2027 71.8755 20.1067 71.9395 19.9867C72.0115 19.8667 72.0475 19.7347 72.0475 19.5907C72.0475 19.4067 71.9995 19.2667 71.9035 19.1707C71.8075 19.0667 71.6715 18.9827 71.4955 18.9187C71.3195 18.8467 71.1115 18.7787 70.8715 18.7147C70.6075 18.6427 70.3435 18.5587 70.0795 18.4627C69.8155 18.3667 69.5715 18.2507 69.3475 18.1147C69.1315 17.9787 68.9555 17.8107 68.8195 17.6107C68.6915 17.4027 68.6275 17.1507 68.6275 16.8547C68.6275 16.6067 68.6795 16.3747 68.7835 16.1587C68.8955 15.9427 69.0515 15.7587 69.2515 15.6067C69.4595 15.4467 69.6995 15.3267 69.9715 15.2467C70.2435 15.1587 70.5435 15.1147 70.8715 15.1147C71.3275 15.1147 71.7115 15.1987 72.0235 15.3667C72.3355 15.5267 72.5715 15.7547 72.7315 16.0507C72.8995 16.3467 72.9875 16.6867 72.9955 17.0707H71.9875C71.9315 16.7347 71.8155 16.4907 71.6395 16.3387C71.4635 16.1787 71.1995 16.0987 70.8475 16.0987C70.5035 16.0987 70.2395 16.1667 70.0555 16.3027C69.8715 16.4387 69.7795 16.6227 69.7795 16.8547C69.7795 17.0307 69.8435 17.1747 69.9715 17.2867C70.0995 17.3907 70.2715 17.4827 70.4875 17.5627C70.7035 17.6427 70.9475 17.7267 71.2195 17.8147C71.4755 17.9027 71.7195 17.9947 71.9515 18.0907C72.1915 18.1787 72.4035 18.2867 72.5875 18.4147C72.7795 18.5347 72.9275 18.6947 73.0315 18.8947C73.1435 19.0867 73.1995 19.3267 73.1995 19.6147C73.1995 19.9667 73.1115 20.2747 72.9355 20.5387C72.7595 20.7947 72.5035 20.9947 72.1675 21.1387C71.8395 21.2827 71.4395 21.3547 70.9675 21.3547C70.5355 21.3547 70.1675 21.3027 69.8635 21.1987C69.5675 21.0947 69.3155 20.9587 69.1075 20.7907C68.9075 20.6227 68.7515 20.4467 68.6395 20.2627C68.5355 20.0707 68.4635 19.8867 68.4235 19.7107C68.3915 19.5347 68.3835 19.3907 68.3995 19.2787Z" fill="black"/>
<circle cx="167.486" cy="17.2227" r="11.5" fill="white" stroke="#E5E7EB"/>
<circle cx="167.486" cy="17.2227" r="7" fill="#E5E7EB"/>
<rect width="55" height="34" transform="translate(179.486 0.222656)" fill="white"/>
<path d="M189.69 13.4347H196.518V14.4667H189.69V13.4347ZM192.522 14.3467H193.686V21.2227H192.522V14.3467ZM201.049 19.2787H202.141C202.077 19.6707 201.925 20.0227 201.685 20.3347C201.445 20.6467 201.129 20.8947 200.737 21.0787C200.345 21.2627 199.885 21.3547 199.357 21.3547C198.733 21.3547 198.177 21.2227 197.689 20.9587C197.201 20.6947 196.817 20.3307 196.537 19.8667C196.257 19.4027 196.117 18.8627 196.117 18.2467C196.117 17.6227 196.253 17.0787 196.525 16.6147C196.797 16.1427 197.173 15.7747 197.653 15.5107C198.133 15.2467 198.681 15.1147 199.297 15.1147C199.945 15.1147 200.489 15.2427 200.929 15.4987C201.369 15.7547 201.693 16.1347 201.901 16.6387C202.117 17.1347 202.205 17.7547 202.165 18.4987H197.257C197.297 18.8587 197.405 19.1787 197.581 19.4587C197.765 19.7387 198.005 19.9587 198.301 20.1187C198.605 20.2787 198.953 20.3587 199.345 20.3587C199.785 20.3587 200.153 20.2587 200.449 20.0587C200.745 19.8587 200.945 19.5987 201.049 19.2787ZM199.309 16.0987C198.789 16.0987 198.357 16.2387 198.013 16.5187C197.669 16.7907 197.441 17.1547 197.329 17.6107H201.013C200.981 17.1227 200.805 16.7507 200.485 16.4947C200.165 16.2307 199.773 16.0987 199.309 16.0987ZM203.378 15.2347H204.53V21.2227H203.378V15.2347ZM206.558 16.2547C206.142 16.2547 205.786 16.3507 205.49 16.5427C205.202 16.7347 204.97 16.9707 204.794 17.2507C204.626 17.5307 204.514 17.7987 204.458 18.0547L204.446 17.3707C204.454 17.2907 204.474 17.1667 204.506 16.9987C204.546 16.8227 204.614 16.6267 204.71 16.4107C204.806 16.1947 204.934 15.9907 205.094 15.7987C205.254 15.5987 205.454 15.4347 205.694 15.3067C205.934 15.1787 206.222 15.1147 206.558 15.1147V16.2547ZM207.597 15.2347H208.749V21.2227H207.597V15.2347ZM211.029 15.1147C211.365 15.1147 211.669 15.1627 211.941 15.2587C212.213 15.3547 212.445 15.4987 212.637 15.6907C212.829 15.8747 212.977 16.1067 213.081 16.3867C213.193 16.6587 213.249 16.9707 213.249 17.3227V21.2227H212.109V17.5747C212.109 17.1027 211.993 16.7507 211.761 16.5187C211.537 16.2787 211.193 16.1587 210.729 16.1587C210.369 16.1587 210.041 16.2427 209.745 16.4107C209.449 16.5787 209.205 16.8027 209.013 17.0827C208.829 17.3547 208.717 17.6627 208.677 18.0067L208.665 17.3467C208.705 17.0267 208.789 16.7307 208.917 16.4587C209.053 16.1867 209.221 15.9507 209.421 15.7507C209.629 15.5427 209.869 15.3867 210.141 15.2827C210.413 15.1707 210.709 15.1147 211.029 15.1147ZM215.421 15.1147C215.757 15.1147 216.061 15.1627 216.333 15.2587C216.605 15.3547 216.837 15.4987 217.029 15.6907C217.221 15.8747 217.369 16.1067 217.473 16.3867C217.585 16.6587 217.641 16.9707 217.641 17.3227V21.2227H216.501V17.5747C216.501 17.1027 216.385 16.7507 216.153 16.5187C215.929 16.2787 215.585 16.1587 215.121 16.1587C214.761 16.1587 214.433 16.2427 214.137 16.4107C213.841 16.5787 213.597 16.8027 213.405 17.0827C213.221 17.3547 213.109 17.6627 213.069 18.0067L213.057 17.3347C213.097 17.0147 213.181 16.7227 213.309 16.4587C213.445 16.1867 213.617 15.9507 213.825 15.7507C214.033 15.5427 214.273 15.3867 214.545 15.2827C214.817 15.1707 215.109 15.1147 215.421 15.1147ZM218.888 19.2787H219.944C219.984 19.5987 220.128 19.8627 220.376 20.0707C220.624 20.2707 220.972 20.3707 221.42 20.3707C221.708 20.3707 221.932 20.3387 222.092 20.2747C222.252 20.2027 222.364 20.1067 222.428 19.9867C222.5 19.8667 222.536 19.7347 222.536 19.5907C222.536 19.4067 222.488 19.2667 222.392 19.1707C222.296 19.0667 222.16 18.9827 221.984 18.9187C221.808 18.8467 221.6 18.7787 221.36 18.7147C221.096 18.6427 220.832 18.5587 220.568 18.4627C220.304 18.3667 220.06 18.2507 219.836 18.1147C219.62 17.9787 219.444 17.8107 219.308 17.6107C219.18 17.4027 219.116 17.1507 219.116 16.8547C219.116 16.6067 219.168 16.3747 219.272 16.1587C219.384 15.9427 219.54 15.7587 219.74 15.6067C219.948 15.4467 220.188 15.3267 220.46 15.2467C220.732 15.1587 221.032 15.1147 221.36 15.1147C221.816 15.1147 222.2 15.1987 222.512 15.3667C222.824 15.5267 223.06 15.7547 223.22 16.0507C223.388 16.3467 223.476 16.6867 223.484 17.0707H222.476C222.42 16.7347 222.304 16.4907 222.128 16.3387C221.952 16.1787 221.688 16.0987 221.336 16.0987C220.992 16.0987 220.728 16.1667 220.544 16.3027C220.36 16.4387 220.268 16.6227 220.268 16.8547C220.268 17.0307 220.332 17.1747 220.46 17.2867C220.588 17.3907 220.76 17.4827 220.976 17.5627C221.192 17.6427 221.436 17.7267 221.708 17.8147C221.964 17.9027 222.208 17.9947 222.44 18.0907C222.68 18.1787 222.892 18.2867 223.076 18.4147C223.268 18.5347 223.416 18.6947 223.52 18.8947C223.632 19.0867 223.688 19.3267 223.688 19.6147C223.688 19.9667 223.6 20.2747 223.424 20.5387C223.248 20.7947 222.992 20.9947 222.656 21.1387C222.328 21.2827 221.928 21.3547 221.456 21.3547C221.024 21.3547 220.656 21.3027 220.352 21.1987C220.056 21.0947 219.804 20.9587 219.596 20.7907C219.396 20.6227 219.24 20.4467 219.128 20.2627C219.024 20.0707 218.952 19.8867 218.912 19.7107C218.88 19.5347 218.872 19.3907 218.888 19.2787Z" fill="black"/>
<circle cx="317.485" cy="17.2227" r="11.5" fill="white" stroke="#E5E7EB"/>
<circle cx="317.485" cy="17.2227" r="7" fill="#E5E7EB"/>
<rect width="66" height="34" transform="translate(329.485 0.222656)" fill="white"/>
<path d="M339.905 18.6667H341.009C341.033 18.9787 341.137 19.2627 341.321 19.5187C341.513 19.7667 341.769 19.9627 342.089 20.1067C342.417 20.2507 342.797 20.3227 343.229 20.3227C343.605 20.3227 343.917 20.2707 344.165 20.1667C344.413 20.0627 344.597 19.9227 344.717 19.7467C344.845 19.5627 344.909 19.3467 344.909 19.0987C344.909 18.8507 344.841 18.6547 344.705 18.5107C344.569 18.3587 344.365 18.2347 344.093 18.1387C343.821 18.0347 343.485 17.9347 343.085 17.8387C342.733 17.7507 342.385 17.6467 342.041 17.5267C341.705 17.3987 341.393 17.2427 341.105 17.0587C340.825 16.8747 340.597 16.6547 340.421 16.3987C340.253 16.1347 340.169 15.8187 340.169 15.4507C340.169 15.0587 340.277 14.7027 340.493 14.3827C340.709 14.0547 341.025 13.7947 341.441 13.6027C341.865 13.4027 342.377 13.3027 342.977 13.3027C343.905 13.3027 344.605 13.5347 345.077 13.9987C345.557 14.4627 345.789 15.0827 345.773 15.8587H344.693C344.669 15.3147 344.497 14.9267 344.177 14.6947C343.857 14.4547 343.441 14.3347 342.929 14.3347C342.489 14.3347 342.113 14.4267 341.801 14.6107C341.489 14.7867 341.333 15.0667 341.333 15.4507C341.333 15.6187 341.369 15.7667 341.441 15.8947C341.513 16.0147 341.633 16.1267 341.801 16.2307C341.969 16.3347 342.193 16.4347 342.473 16.5307C342.761 16.6267 343.117 16.7307 343.541 16.8427C343.861 16.9147 344.169 17.0067 344.465 17.1187C344.769 17.2307 345.041 17.3707 345.281 17.5387C345.521 17.7067 345.709 17.9227 345.845 18.1867C345.989 18.4507 346.061 18.7747 346.061 19.1587C346.061 19.5667 345.961 19.9387 345.761 20.2747C345.561 20.6027 345.249 20.8667 344.825 21.0667C344.409 21.2587 343.869 21.3547 343.205 21.3547C342.677 21.3547 342.217 21.2867 341.825 21.1507C341.441 21.0147 341.117 20.8387 340.853 20.6227C340.597 20.4067 340.393 20.1747 340.241 19.9267C340.097 19.6787 339.997 19.4427 339.941 19.2187C339.893 18.9947 339.881 18.8107 339.905 18.6667ZM351.916 19.2787H353.008C352.944 19.6707 352.792 20.0227 352.552 20.3347C352.312 20.6467 351.996 20.8947 351.604 21.0787C351.212 21.2627 350.752 21.3547 350.224 21.3547C349.6 21.3547 349.044 21.2227 348.556 20.9587C348.068 20.6947 347.684 20.3307 347.404 19.8667C347.124 19.4027 346.984 18.8627 346.984 18.2467C346.984 17.6227 347.12 17.0787 347.392 16.6147C347.664 16.1427 348.04 15.7747 348.52 15.5107C349 15.2467 349.548 15.1147 350.164 15.1147C350.812 15.1147 351.356 15.2427 351.796 15.4987C352.236 15.7547 352.56 16.1347 352.768 16.6387C352.984 17.1347 353.072 17.7547 353.032 18.4987H348.124C348.164 18.8587 348.272 19.1787 348.448 19.4587C348.632 19.7387 348.872 19.9587 349.168 20.1187C349.472 20.2787 349.82 20.3587 350.212 20.3587C350.652 20.3587 351.02 20.2587 351.316 20.0587C351.612 19.8587 351.812 19.5987 351.916 19.2787ZM350.176 16.0987C349.656 16.0987 349.224 16.2387 348.88 16.5187C348.536 16.7907 348.308 17.1547 348.196 17.6107H351.88C351.848 17.1227 351.672 16.7507 351.352 16.4947C351.032 16.2307 350.64 16.0987 350.176 16.0987ZM353.72 15.2347H357.596V16.2307H353.72V15.2347ZM355.088 13.6507H356.228V21.2227H355.088V13.6507ZM358.267 15.2347H362.143V16.2307H358.267V15.2347ZM359.635 13.6507H360.775V21.2227H359.635V13.6507ZM364.614 12.7627V13.9987H363.186V12.7627H364.614ZM363.33 15.2347H364.47V21.2227H363.33V15.2347ZM366.093 15.2347H367.245V21.2227H366.093V15.2347ZM369.525 15.1147C369.861 15.1147 370.165 15.1627 370.437 15.2587C370.709 15.3547 370.941 15.4987 371.133 15.6907C371.325 15.8747 371.473 16.1067 371.577 16.3867C371.689 16.6587 371.745 16.9707 371.745 17.3227V21.2227H370.605V17.5747C370.605 17.1027 370.489 16.7507 370.257 16.5187C370.033 16.2787 369.689 16.1587 369.225 16.1587C368.865 16.1587 368.537 16.2427 368.241 16.4107C367.945 16.5787 367.701 16.8027 367.509 17.0827C367.325 17.3547 367.213 17.6627 367.173 18.0067L367.161 17.3467C367.201 17.0267 367.285 16.7307 367.413 16.4587C367.549 16.1867 367.717 15.9507 367.917 15.7507C368.125 15.5427 368.365 15.3867 368.637 15.2827C368.909 15.1707 369.205 15.1147 369.525 15.1147ZM375.665 20.2867C375.169 20.2867 374.713 20.1867 374.297 19.9867C373.881 19.7867 373.549 19.4947 373.301 19.1107C373.061 18.7267 372.941 18.2627 372.941 17.7187C372.941 17.1827 373.061 16.7227 373.301 16.3387C373.541 15.9467 373.865 15.6467 374.273 15.4387C374.689 15.2227 375.153 15.1147 375.665 15.1147C375.817 15.1147 375.961 15.1267 376.097 15.1507C376.233 15.1667 376.365 15.1947 376.493 15.2347H379.109V16.3147C378.749 16.3147 378.385 16.2547 378.017 16.1347C377.657 16.0147 377.341 15.8867 377.069 15.7507L377.033 15.6907C377.305 15.8347 377.541 16.0107 377.741 16.2187C377.941 16.4187 378.093 16.6467 378.197 16.9027C378.309 17.1507 378.365 17.4307 378.365 17.7427C378.365 18.2707 378.245 18.7267 378.005 19.1107C377.773 19.4947 377.449 19.7867 377.033 19.9867C376.625 20.1867 376.169 20.2867 375.665 20.2867ZM377.501 23.6467V23.3707C377.501 22.9627 377.389 22.6707 377.165 22.4947C376.941 22.3187 376.613 22.2307 376.181 22.2307H374.777C374.481 22.2307 374.229 22.2067 374.021 22.1587C373.813 22.1107 373.641 22.0387 373.505 21.9427C373.369 21.8547 373.269 21.7427 373.205 21.6067C373.141 21.4787 373.109 21.3347 373.109 21.1747C373.109 20.8627 373.205 20.6267 373.397 20.4667C373.589 20.3067 373.833 20.2067 374.129 20.1667C374.425 20.1187 374.725 20.1147 375.029 20.1547L375.665 20.2867C375.209 20.3107 374.861 20.3547 374.621 20.4187C374.381 20.4827 374.261 20.6187 374.261 20.8267C374.261 20.9467 374.309 21.0427 374.405 21.1147C374.501 21.1867 374.637 21.2227 374.813 21.2227H376.277C376.733 21.2227 377.137 21.2787 377.489 21.3907C377.849 21.5107 378.129 21.7067 378.329 21.9787C378.537 22.2587 378.641 22.6387 378.641 23.1187V23.6467H377.501ZM375.665 19.3147C375.953 19.3147 376.213 19.2547 376.445 19.1347C376.685 19.0067 376.877 18.8267 377.021 18.5947C377.165 18.3547 377.237 18.0667 377.237 17.7307C377.237 17.3867 377.165 17.0947 377.021 16.8547C376.885 16.6067 376.697 16.4227 376.457 16.3027C376.217 16.1747 375.953 16.1107 375.665 16.1107C375.377 16.1107 375.109 16.1747 374.861 16.3027C374.621 16.4227 374.429 16.6027 374.285 16.8427C374.141 17.0827 374.069 17.3787 374.069 17.7307C374.069 18.0667 374.141 18.3547 374.285 18.5947C374.429 18.8267 374.621 19.0067 374.861 19.1347C375.101 19.2547 375.369 19.3147 375.665 19.3147ZM379.938 19.2787H380.994C381.034 19.5987 381.178 19.8627 381.426 20.0707C381.674 20.2707 382.022 20.3707 382.47 20.3707C382.758 20.3707 382.982 20.3387 383.142 20.2747C383.302 20.2027 383.414 20.1067 383.478 19.9867C383.55 19.8667 383.586 19.7347 383.586 19.5907C383.586 19.4067 383.538 19.2667 383.442 19.1707C383.346 19.0667 383.21 18.9827 383.034 18.9187C382.858 18.8467 382.65 18.7787 382.41 18.7147C382.146 18.6427 381.882 18.5587 381.618 18.4627C381.354 18.3667 381.11 18.2507 380.886 18.1147C380.67 17.9787 380.494 17.8107 380.358 17.6107C380.23 17.4027 380.166 17.1507 380.166 16.8547C380.166 16.6067 380.218 16.3747 380.322 16.1587C380.434 15.9427 380.59 15.7587 380.79 15.6067C380.998 15.4467 381.238 15.3267 381.51 15.2467C381.782 15.1587 382.082 15.1147 382.41 15.1147C382.866 15.1147 383.25 15.1987 383.562 15.3667C383.874 15.5267 384.11 15.7547 384.27 16.0507C384.438 16.3467 384.526 16.6867 384.534 17.0707H383.526C383.47 16.7347 383.354 16.4907 383.178 16.3387C383.002 16.1787 382.738 16.0987 382.386 16.0987C382.042 16.0987 381.778 16.1667 381.594 16.3027C381.41 16.4387 381.318 16.6227 381.318 16.8547C381.318 17.0307 381.382 17.1747 381.51 17.2867C381.638 17.3907 381.81 17.4827 382.026 17.5627C382.242 17.6427 382.486 17.7267 382.758 17.8147C383.014 17.9027 383.258 17.9947 383.49 18.0907C383.73 18.1787 383.942 18.2867 384.126 18.4147C384.318 18.5347 384.466 18.6947 384.57 18.8947C384.682 19.0867 384.738 19.3267 384.738 19.6147C384.738 19.9667 384.65 20.2747 384.474 20.5387C384.298 20.7947 384.042 20.9947 383.706 21.1387C383.378 21.2827 382.978 21.3547 382.506 21.3547C382.074 21.3547 381.706 21.3027 381.402 21.1987C381.106 21.0947 380.854 20.9587 380.646 20.7907C380.446 20.6227 380.29 20.4467 380.178 20.2627C380.074 20.0707 380.002 19.8867 379.962 19.7107C379.93 19.5347 379.922 19.3907 379.938 19.2787Z" fill="black"/>
<circle cx="478.485" cy="17.2227" r="11.5" fill="white" stroke="#E5E7EB"/>
<circle cx="478.485" cy="17.2227" r="7" fill="#E5E7EB"/>
<rect width="65" height="34" transform="translate(490.485 0.222656)" fill="white"/>
<path d="M502.369 18.5347V17.5267H505.165C505.629 17.5267 506.001 17.3867 506.281 17.1067C506.569 16.8267 506.713 16.4587 506.713 16.0027C506.713 15.5307 506.569 15.1587 506.281 14.8867C506.001 14.6147 505.629 14.4787 505.165 14.4787H502.561V21.2227H501.409V13.4347H505.117C505.501 13.4347 505.857 13.4907 506.185 13.6027C506.521 13.7067 506.813 13.8667 507.061 14.0827C507.317 14.2987 507.513 14.5667 507.649 14.8867C507.793 15.2067 507.865 15.5787 507.865 16.0027C507.865 16.4187 507.793 16.7867 507.649 17.1067C507.513 17.4267 507.317 17.6947 507.061 17.9107C506.813 18.1187 506.521 18.2747 506.185 18.3787C505.857 18.4827 505.501 18.5347 505.117 18.5347H502.369ZM509.175 15.2347H510.327V21.2227H509.175V15.2347ZM512.355 16.2547C511.939 16.2547 511.583 16.3507 511.287 16.5427C510.999 16.7347 510.767 16.9707 510.591 17.2507C510.423 17.5307 510.311 17.7987 510.255 18.0547L510.243 17.3707C510.251 17.2907 510.271 17.1667 510.303 16.9987C510.343 16.8227 510.411 16.6267 510.507 16.4107C510.603 16.1947 510.731 15.9907 510.891 15.7987C511.051 15.5987 511.251 15.4347 511.491 15.3067C511.731 15.1787 512.019 15.1147 512.355 15.1147V16.2547ZM518.014 19.2787H519.106C519.042 19.6707 518.89 20.0227 518.65 20.3347C518.41 20.6467 518.094 20.8947 517.702 21.0787C517.31 21.2627 516.85 21.3547 516.322 21.3547C515.698 21.3547 515.142 21.2227 514.654 20.9587C514.166 20.6947 513.782 20.3307 513.502 19.8667C513.222 19.4027 513.082 18.8627 513.082 18.2467C513.082 17.6227 513.218 17.0787 513.49 16.6147C513.762 16.1427 514.138 15.7747 514.618 15.5107C515.098 15.2467 515.646 15.1147 516.262 15.1147C516.91 15.1147 517.454 15.2427 517.894 15.4987C518.334 15.7547 518.658 16.1347 518.866 16.6387C519.082 17.1347 519.17 17.7547 519.13 18.4987H514.222C514.262 18.8587 514.37 19.1787 514.546 19.4587C514.73 19.7387 514.97 19.9587 515.266 20.1187C515.57 20.2787 515.918 20.3587 516.31 20.3587C516.75 20.3587 517.118 20.2587 517.414 20.0587C517.71 19.8587 517.91 19.5987 518.014 19.2787ZM516.274 16.0987C515.754 16.0987 515.322 16.2387 514.978 16.5187C514.634 16.7907 514.406 17.1547 514.294 17.6107H517.978C517.946 17.1227 517.77 16.7507 517.45 16.4947C517.13 16.2307 516.738 16.0987 516.274 16.0987ZM522.76 20.3347H522.388L524.332 15.2347H525.58L523.12 21.2227H522.04L519.604 15.2347H520.864L522.76 20.3347ZM527.946 12.7627V13.9987H526.518V12.7627H527.946ZM526.662 15.2347H527.802V21.2227H526.662V15.2347ZM534.045 19.2787H535.137C535.073 19.6707 534.921 20.0227 534.681 20.3347C534.441 20.6467 534.125 20.8947 533.733 21.0787C533.341 21.2627 532.881 21.3547 532.353 21.3547C531.729 21.3547 531.173 21.2227 530.685 20.9587C530.197 20.6947 529.813 20.3307 529.533 19.8667C529.253 19.4027 529.113 18.8627 529.113 18.2467C529.113 17.6227 529.249 17.0787 529.521 16.6147C529.793 16.1427 530.169 15.7747 530.649 15.5107C531.129 15.2467 531.677 15.1147 532.293 15.1147C532.941 15.1147 533.485 15.2427 533.925 15.4987C534.365 15.7547 534.689 16.1347 534.897 16.6387C535.113 17.1347 535.201 17.7547 535.161 18.4987H530.253C530.293 18.8587 530.401 19.1787 530.577 19.4587C530.761 19.7387 531.001 19.9587 531.297 20.1187C531.601 20.2787 531.949 20.3587 532.341 20.3587C532.781 20.3587 533.149 20.2587 533.445 20.0587C533.741 19.8587 533.941 19.5987 534.045 19.2787ZM532.305 16.0987C531.785 16.0987 531.353 16.2387 531.009 16.5187C530.665 16.7907 530.437 17.1547 530.325 17.6107H534.009C533.977 17.1227 533.801 16.7507 533.481 16.4947C533.161 16.2307 532.769 16.0987 532.305 16.0987ZM542.739 20.2867L542.427 20.2747L543.999 15.2347H545.247L543.171 21.2227H542.091L540.279 16.0987H540.603L538.767 21.2227H537.687L535.635 15.2347H536.895L538.419 20.2747L538.107 20.2867L539.763 15.2347H541.119L542.739 20.2867Z" fill="black"/>
</svg>
