<svg width="556" height="35" viewBox="0 0 556 35" fill="none" xmlns="http://www.w3.org/2000/svg">
<circle cx="12.4365" cy="17.7578" r="11.5" fill="white" stroke="#E5E7EB"/>
<circle cx="12.4365" cy="17.7578" r="7" fill="#E5E7EB"/>
<rect width="60" height="34" transform="translate(24.4365 0.757812)" fill="white"/>
<path d="M38.5045 13.9698C39.3125 13.9698 39.9885 14.0738 40.5325 14.2818C41.0845 14.4818 41.5245 14.7618 41.8525 15.1218C42.1885 15.4818 42.4285 15.8938 42.5725 16.3578C42.7165 16.8218 42.7885 17.3138 42.7885 17.8338C42.7885 18.3458 42.7085 18.8378 42.5485 19.3098C42.3965 19.7818 42.1485 20.2018 41.8045 20.5698C41.4685 20.9378 41.0285 21.2298 40.4845 21.4458C39.9405 21.6538 39.2805 21.7578 38.5045 21.7578H35.3845V13.9698H38.5045ZM36.5365 20.7138H38.4925C39.1085 20.7138 39.6165 20.6338 40.0165 20.4738C40.4165 20.3058 40.7325 20.0858 40.9645 19.8138C41.2045 19.5338 41.3725 19.2218 41.4685 18.8778C41.5725 18.5338 41.6245 18.1858 41.6245 17.8338C41.6245 17.4738 41.5725 17.1258 41.4685 16.7898C41.3725 16.4538 41.2045 16.1538 40.9645 15.8898C40.7325 15.6178 40.4165 15.4058 40.0165 15.2538C39.6165 15.0938 39.1085 15.0138 38.4925 15.0138H36.5365V20.7138ZM48.7774 19.8138H49.8694C49.8054 20.2058 49.6534 20.5578 49.4134 20.8698C49.1734 21.1818 48.8574 21.4298 48.4654 21.6138C48.0734 21.7978 47.6134 21.8898 47.0854 21.8898C46.4614 21.8898 45.9054 21.7578 45.4174 21.4938C44.9294 21.2298 44.5454 20.8658 44.2654 20.4018C43.9854 19.9378 43.8454 19.3978 43.8454 18.7818C43.8454 18.1578 43.9814 17.6138 44.2534 17.1498C44.5254 16.6778 44.9014 16.3098 45.3814 16.0458C45.8614 15.7818 46.4094 15.6498 47.0254 15.6498C47.6734 15.6498 48.2174 15.7778 48.6574 16.0338C49.0974 16.2898 49.4214 16.6698 49.6294 17.1738C49.8454 17.6698 49.9334 18.2898 49.8934 19.0338H44.9854C45.0254 19.3938 45.1334 19.7138 45.3094 19.9938C45.4934 20.2738 45.7334 20.4938 46.0294 20.6538C46.3334 20.8138 46.6814 20.8938 47.0734 20.8938C47.5134 20.8938 47.8814 20.7938 48.1774 20.5938C48.4734 20.3938 48.6734 20.1338 48.7774 19.8138ZM47.0374 16.6338C46.5174 16.6338 46.0854 16.7738 45.7414 17.0538C45.3974 17.3258 45.1694 17.6898 45.0574 18.1458H48.7414C48.7094 17.6578 48.5334 17.2858 48.2134 17.0298C47.8934 16.7658 47.5014 16.6338 47.0374 16.6338ZM50.5811 15.7698H54.4571V16.7658H50.5811V15.7698ZM51.9491 14.1858H53.0891V21.7578H51.9491V14.1858ZM57.9145 21.8778C57.4025 21.8778 56.9345 21.7458 56.5105 21.4818C56.0865 21.2178 55.7505 20.8538 55.5025 20.3898C55.2545 19.9178 55.1305 19.3778 55.1305 18.7698C55.1305 18.1618 55.2545 17.6258 55.5025 17.1618C55.7585 16.6898 56.1065 16.3218 56.5465 16.0578C56.9865 15.7858 57.4785 15.6498 58.0225 15.6498C58.6225 15.6498 59.0865 15.7898 59.4145 16.0698C59.7505 16.3498 59.9825 16.7258 60.1105 17.1978C60.2465 17.6698 60.3145 18.1938 60.3145 18.7698C60.3145 19.0898 60.2745 19.4298 60.1945 19.7898C60.1145 20.1498 59.9865 20.4898 59.8105 20.8098C59.6345 21.1298 59.3905 21.3898 59.0785 21.5898C58.7665 21.7818 58.3785 21.8778 57.9145 21.8778ZM58.2385 20.8818C58.6625 20.8818 59.0185 20.7898 59.3065 20.6058C59.6025 20.4138 59.8225 20.1578 59.9665 19.8378C60.1105 19.5178 60.1825 19.1618 60.1825 18.7698C60.1825 18.3458 60.1065 17.9738 59.9545 17.6538C59.8105 17.3338 59.5905 17.0858 59.2945 16.9098C59.0065 16.7338 58.6545 16.6458 58.2385 16.6458C57.6145 16.6458 57.1305 16.8458 56.7865 17.2458C56.4505 17.6458 56.2825 18.1538 56.2825 18.7698C56.2825 19.1858 56.3665 19.5538 56.5345 19.8738C56.7025 20.1858 56.9305 20.4338 57.2185 20.6178C57.5145 20.7938 57.8545 20.8818 58.2385 20.8818ZM60.1825 15.7698H61.3345V21.7578H60.2785C60.2785 21.7578 60.2705 21.6858 60.2545 21.5418C60.2385 21.3898 60.2225 21.2098 60.2065 21.0018C60.1905 20.7938 60.1825 20.6098 60.1825 20.4498V15.7698ZM64.2171 13.2978V14.5338H62.7891V13.2978H64.2171ZM62.9331 15.7698H64.0731V21.7578H62.9331V15.7698ZM65.8164 13.3698H66.9684V21.7578H65.8164V13.3698ZM68.3504 19.8138H69.4064C69.4464 20.1338 69.5904 20.3978 69.8384 20.6058C70.0864 20.8058 70.4344 20.9058 70.8824 20.9058C71.1704 20.9058 71.3944 20.8738 71.5544 20.8098C71.7144 20.7378 71.8264 20.6418 71.8904 20.5218C71.9624 20.4018 71.9984 20.2698 71.9984 20.1258C71.9984 19.9418 71.9504 19.8018 71.8544 19.7058C71.7584 19.6018 71.6224 19.5178 71.4464 19.4538C71.2704 19.3818 71.0624 19.3138 70.8224 19.2498C70.5584 19.1778 70.2944 19.0938 70.0304 18.9978C69.7664 18.9018 69.5224 18.7858 69.2984 18.6498C69.0824 18.5138 68.9064 18.3458 68.7704 18.1458C68.6424 17.9378 68.5784 17.6858 68.5784 17.3898C68.5784 17.1418 68.6304 16.9098 68.7344 16.6938C68.8464 16.4778 69.0024 16.2938 69.2024 16.1418C69.4104 15.9818 69.6504 15.8618 69.9224 15.7818C70.1944 15.6938 70.4944 15.6498 70.8224 15.6498C71.2784 15.6498 71.6624 15.7338 71.9744 15.9018C72.2864 16.0618 72.5224 16.2898 72.6824 16.5858C72.8504 16.8818 72.9384 17.2218 72.9464 17.6058H71.9384C71.8824 17.2698 71.7664 17.0258 71.5904 16.8738C71.4144 16.7138 71.1504 16.6338 70.7984 16.6338C70.4544 16.6338 70.1904 16.7018 70.0064 16.8378C69.8224 16.9738 69.7304 17.1578 69.7304 17.3898C69.7304 17.5658 69.7944 17.7098 69.9224 17.8218C70.0504 17.9258 70.2224 18.0178 70.4384 18.0978C70.6544 18.1778 70.8984 18.2618 71.1704 18.3498C71.4264 18.4378 71.6704 18.5298 71.9024 18.6258C72.1424 18.7138 72.3544 18.8218 72.5384 18.9498C72.7304 19.0698 72.8784 19.2298 72.9824 19.4298C73.0944 19.6218 73.1504 19.8618 73.1504 20.1498C73.1504 20.5018 73.0624 20.8098 72.8864 21.0738C72.7104 21.3298 72.4544 21.5298 72.1184 21.6738C71.7904 21.8178 71.3904 21.8898 70.9184 21.8898C70.4864 21.8898 70.1184 21.8378 69.8144 21.7338C69.5184 21.6298 69.2664 21.4938 69.0584 21.3258C68.8584 21.1578 68.7024 20.9818 68.5904 20.7978C68.4864 20.6058 68.4144 20.4218 68.3744 20.2458C68.3424 20.0698 68.3344 19.9258 68.3504 19.8138Z" fill="#041004"/>
<circle cx="167.437" cy="17.7578" r="11.5" fill="white" stroke="#E5E7EB"/>
<circle cx="167.437" cy="17.7578" r="7" fill="#E5E7EB"/>
<rect width="55" height="34" transform="translate(179.437 0.757812)" fill="white"/>
<path d="M189.641 13.9698H196.469V15.0018H189.641V13.9698ZM192.473 14.8818H193.637V21.7578H192.473V14.8818ZM201 19.8138H202.092C202.028 20.2058 201.876 20.5578 201.636 20.8698C201.396 21.1818 201.08 21.4298 200.688 21.6138C200.296 21.7978 199.836 21.8898 199.308 21.8898C198.684 21.8898 198.128 21.7578 197.64 21.4938C197.152 21.2298 196.768 20.8658 196.488 20.4018C196.208 19.9378 196.068 19.3978 196.068 18.7818C196.068 18.1578 196.204 17.6138 196.476 17.1498C196.748 16.6778 197.124 16.3098 197.604 16.0458C198.084 15.7818 198.632 15.6498 199.248 15.6498C199.896 15.6498 200.44 15.7778 200.88 16.0338C201.32 16.2898 201.644 16.6698 201.852 17.1738C202.068 17.6698 202.156 18.2898 202.116 19.0338H197.208C197.248 19.3938 197.356 19.7138 197.532 19.9938C197.716 20.2738 197.956 20.4938 198.252 20.6538C198.556 20.8138 198.904 20.8938 199.296 20.8938C199.736 20.8938 200.104 20.7938 200.4 20.5938C200.696 20.3938 200.896 20.1338 201 19.8138ZM199.26 16.6338C198.74 16.6338 198.308 16.7738 197.964 17.0538C197.62 17.3258 197.392 17.6898 197.28 18.1458H200.964C200.932 17.6578 200.756 17.2858 200.436 17.0298C200.116 16.7658 199.724 16.6338 199.26 16.6338ZM203.329 15.7698H204.481V21.7578H203.329V15.7698ZM206.509 16.7898C206.093 16.7898 205.737 16.8858 205.441 17.0778C205.153 17.2698 204.921 17.5058 204.745 17.7858C204.577 18.0658 204.465 18.3338 204.409 18.5898L204.397 17.9058C204.405 17.8258 204.425 17.7018 204.457 17.5338C204.497 17.3578 204.565 17.1618 204.661 16.9458C204.757 16.7298 204.885 16.5258 205.045 16.3338C205.205 16.1338 205.405 15.9698 205.645 15.8418C205.885 15.7138 206.173 15.6498 206.509 15.6498V16.7898ZM207.548 15.7698H208.7V21.7578H207.548V15.7698ZM210.98 15.6498C211.316 15.6498 211.62 15.6978 211.892 15.7938C212.164 15.8898 212.396 16.0338 212.588 16.2258C212.78 16.4098 212.928 16.6418 213.032 16.9218C213.144 17.1938 213.2 17.5058 213.2 17.8578V21.7578H212.06V18.1098C212.06 17.6378 211.944 17.2858 211.712 17.0538C211.488 16.8138 211.144 16.6938 210.68 16.6938C210.32 16.6938 209.992 16.7778 209.696 16.9458C209.4 17.1138 209.156 17.3378 208.964 17.6178C208.78 17.8898 208.668 18.1978 208.628 18.5418L208.616 17.8818C208.656 17.5618 208.74 17.2658 208.868 16.9938C209.004 16.7218 209.172 16.4858 209.372 16.2858C209.58 16.0778 209.82 15.9218 210.092 15.8178C210.364 15.7058 210.66 15.6498 210.98 15.6498ZM215.372 15.6498C215.708 15.6498 216.012 15.6978 216.284 15.7938C216.556 15.8898 216.788 16.0338 216.98 16.2258C217.172 16.4098 217.32 16.6418 217.424 16.9218C217.536 17.1938 217.592 17.5058 217.592 17.8578V21.7578H216.452V18.1098C216.452 17.6378 216.336 17.2858 216.104 17.0538C215.88 16.8138 215.536 16.6938 215.072 16.6938C214.712 16.6938 214.384 16.7778 214.088 16.9458C213.792 17.1138 213.548 17.3378 213.356 17.6178C213.172 17.8898 213.06 18.1978 213.02 18.5418L213.008 17.8698C213.048 17.5498 213.132 17.2578 213.26 16.9938C213.396 16.7218 213.568 16.4858 213.776 16.2858C213.984 16.0778 214.224 15.9218 214.496 15.8178C214.768 15.7058 215.06 15.6498 215.372 15.6498ZM218.839 19.8138H219.895C219.935 20.1338 220.079 20.3978 220.327 20.6058C220.575 20.8058 220.923 20.9058 221.371 20.9058C221.659 20.9058 221.883 20.8738 222.043 20.8098C222.203 20.7378 222.315 20.6418 222.379 20.5218C222.451 20.4018 222.487 20.2698 222.487 20.1258C222.487 19.9418 222.439 19.8018 222.343 19.7058C222.247 19.6018 222.111 19.5178 221.935 19.4538C221.759 19.3818 221.551 19.3138 221.311 19.2498C221.047 19.1778 220.783 19.0938 220.519 18.9978C220.255 18.9018 220.011 18.7858 219.787 18.6498C219.571 18.5138 219.395 18.3458 219.259 18.1458C219.131 17.9378 219.067 17.6858 219.067 17.3898C219.067 17.1418 219.119 16.9098 219.223 16.6938C219.335 16.4778 219.491 16.2938 219.691 16.1418C219.899 15.9818 220.139 15.8618 220.411 15.7818C220.683 15.6938 220.983 15.6498 221.311 15.6498C221.767 15.6498 222.151 15.7338 222.463 15.9018C222.775 16.0618 223.011 16.2898 223.171 16.5858C223.339 16.8818 223.427 17.2218 223.435 17.6058H222.427C222.371 17.2698 222.255 17.0258 222.079 16.8738C221.903 16.7138 221.639 16.6338 221.287 16.6338C220.943 16.6338 220.679 16.7018 220.495 16.8378C220.311 16.9738 220.219 17.1578 220.219 17.3898C220.219 17.5658 220.283 17.7098 220.411 17.8218C220.539 17.9258 220.711 18.0178 220.927 18.0978C221.143 18.1778 221.387 18.2618 221.659 18.3498C221.915 18.4378 222.159 18.5298 222.391 18.6258C222.631 18.7138 222.843 18.8218 223.027 18.9498C223.219 19.0698 223.367 19.2298 223.471 19.4298C223.583 19.6218 223.639 19.8618 223.639 20.1498C223.639 20.5018 223.551 20.8098 223.375 21.0738C223.199 21.3298 222.943 21.5298 222.607 21.6738C222.279 21.8178 221.879 21.8898 221.407 21.8898C220.975 21.8898 220.607 21.8378 220.303 21.7338C220.007 21.6298 219.755 21.4938 219.547 21.3258C219.347 21.1578 219.191 20.9818 219.079 20.7978C218.975 20.6058 218.903 20.4218 218.863 20.2458C218.831 20.0698 218.823 19.9258 218.839 19.8138Z" fill="#041004"/>
<circle cx="317.437" cy="17.7578" r="11.5" fill="white" stroke="#041004"/>
<circle cx="317.437" cy="17.7578" r="7" fill="#041004"/>
<rect width="66" height="34" transform="translate(329.437 0.757812)" fill="white"/>
<path d="M339.857 19.2018H340.961C340.985 19.5138 341.089 19.7978 341.273 20.0538C341.465 20.3018 341.721 20.4978 342.041 20.6418C342.369 20.7858 342.749 20.8578 343.181 20.8578C343.557 20.8578 343.869 20.8058 344.117 20.7018C344.365 20.5978 344.549 20.4578 344.669 20.2818C344.797 20.0978 344.861 19.8818 344.861 19.6338C344.861 19.3858 344.793 19.1898 344.657 19.0458C344.521 18.8938 344.317 18.7698 344.045 18.6738C343.773 18.5698 343.437 18.4698 343.037 18.3738C342.685 18.2858 342.337 18.1818 341.993 18.0618C341.657 17.9338 341.345 17.7778 341.057 17.5938C340.777 17.4098 340.549 17.1898 340.373 16.9338C340.205 16.6698 340.121 16.3538 340.121 15.9858C340.121 15.5938 340.229 15.2378 340.445 14.9178C340.661 14.5898 340.977 14.3298 341.393 14.1378C341.817 13.9378 342.329 13.8378 342.929 13.8378C343.857 13.8378 344.557 14.0698 345.029 14.5338C345.509 14.9978 345.741 15.6178 345.725 16.3938H344.645C344.621 15.8498 344.449 15.4618 344.129 15.2298C343.809 14.9898 343.393 14.8698 342.881 14.8698C342.441 14.8698 342.065 14.9618 341.753 15.1458C341.441 15.3218 341.285 15.6018 341.285 15.9858C341.285 16.1538 341.321 16.3018 341.393 16.4298C341.465 16.5498 341.585 16.6618 341.753 16.7658C341.921 16.8698 342.145 16.9698 342.425 17.0658C342.713 17.1618 343.069 17.2658 343.493 17.3778C343.813 17.4498 344.121 17.5418 344.417 17.6538C344.721 17.7658 344.993 17.9058 345.233 18.0738C345.473 18.2418 345.661 18.4578 345.797 18.7218C345.941 18.9858 346.013 19.3098 346.013 19.6938C346.013 20.1018 345.913 20.4738 345.713 20.8098C345.513 21.1378 345.201 21.4018 344.777 21.6018C344.361 21.7938 343.821 21.8898 343.157 21.8898C342.629 21.8898 342.169 21.8218 341.777 21.6858C341.393 21.5498 341.069 21.3738 340.805 21.1578C340.549 20.9418 340.345 20.7098 340.193 20.4618C340.049 20.2138 339.949 19.9778 339.893 19.7538C339.845 19.5298 339.833 19.3458 339.857 19.2018ZM351.867 19.8138H352.959C352.895 20.2058 352.743 20.5578 352.503 20.8698C352.263 21.1818 351.947 21.4298 351.555 21.6138C351.163 21.7978 350.703 21.8898 350.175 21.8898C349.551 21.8898 348.995 21.7578 348.507 21.4938C348.019 21.2298 347.635 20.8658 347.355 20.4018C347.075 19.9378 346.935 19.3978 346.935 18.7818C346.935 18.1578 347.071 17.6138 347.343 17.1498C347.615 16.6778 347.991 16.3098 348.471 16.0458C348.951 15.7818 349.499 15.6498 350.115 15.6498C350.763 15.6498 351.307 15.7778 351.747 16.0338C352.187 16.2898 352.511 16.6698 352.719 17.1738C352.935 17.6698 353.023 18.2898 352.983 19.0338H348.075C348.115 19.3938 348.223 19.7138 348.399 19.9938C348.583 20.2738 348.823 20.4938 349.119 20.6538C349.423 20.8138 349.771 20.8938 350.163 20.8938C350.603 20.8938 350.971 20.7938 351.267 20.5938C351.563 20.3938 351.763 20.1338 351.867 19.8138ZM350.127 16.6338C349.607 16.6338 349.175 16.7738 348.831 17.0538C348.487 17.3258 348.259 17.6898 348.147 18.1458H351.831C351.799 17.6578 351.623 17.2858 351.303 17.0298C350.983 16.7658 350.591 16.6338 350.127 16.6338ZM353.671 15.7698H357.547V16.7658H353.671V15.7698ZM355.039 14.1858H356.179V21.7578H355.039V14.1858ZM358.218 15.7698H362.094V16.7658H358.218V15.7698ZM359.586 14.1858H360.726V21.7578H359.586V14.1858ZM364.565 13.2978V14.5338H363.137V13.2978H364.565ZM363.281 15.7698H364.421V21.7578H363.281V15.7698ZM366.044 15.7698H367.196V21.7578H366.044V15.7698ZM369.476 15.6498C369.812 15.6498 370.116 15.6978 370.388 15.7938C370.66 15.8898 370.892 16.0338 371.084 16.2258C371.276 16.4098 371.424 16.6418 371.528 16.9218C371.64 17.1938 371.696 17.5058 371.696 17.8578V21.7578H370.556V18.1098C370.556 17.6378 370.44 17.2858 370.208 17.0538C369.984 16.8138 369.64 16.6938 369.176 16.6938C368.816 16.6938 368.488 16.7778 368.192 16.9458C367.896 17.1138 367.652 17.3378 367.46 17.6178C367.276 17.8898 367.164 18.1978 367.124 18.5418L367.112 17.8818C367.152 17.5618 367.236 17.2658 367.364 16.9938C367.5 16.7218 367.668 16.4858 367.868 16.2858C368.076 16.0778 368.316 15.9218 368.588 15.8178C368.86 15.7058 369.156 15.6498 369.476 15.6498ZM375.616 20.8218C375.12 20.8218 374.664 20.7218 374.248 20.5218C373.832 20.3218 373.5 20.0298 373.252 19.6458C373.012 19.2618 372.892 18.7978 372.892 18.2538C372.892 17.7178 373.012 17.2578 373.252 16.8738C373.492 16.4818 373.816 16.1818 374.224 15.9738C374.64 15.7578 375.104 15.6498 375.616 15.6498C375.768 15.6498 375.912 15.6618 376.048 15.6858C376.184 15.7018 376.316 15.7298 376.444 15.7698H379.06V16.8498C378.7 16.8498 378.336 16.7898 377.968 16.6698C377.608 16.5498 377.292 16.4218 377.02 16.2858L376.984 16.2258C377.256 16.3698 377.492 16.5458 377.692 16.7538C377.892 16.9538 378.044 17.1818 378.148 17.4378C378.26 17.6858 378.316 17.9658 378.316 18.2778C378.316 18.8058 378.196 19.2618 377.956 19.6458C377.724 20.0298 377.4 20.3218 376.984 20.5218C376.576 20.7218 376.12 20.8218 375.616 20.8218ZM377.452 24.1818V23.9058C377.452 23.4978 377.34 23.2058 377.116 23.0298C376.892 22.8538 376.564 22.7658 376.132 22.7658H374.728C374.432 22.7658 374.18 22.7418 373.972 22.6938C373.764 22.6458 373.592 22.5738 373.456 22.4778C373.32 22.3898 373.22 22.2778 373.156 22.1418C373.092 22.0138 373.06 21.8698 373.06 21.7098C373.06 21.3978 373.156 21.1618 373.348 21.0018C373.54 20.8418 373.784 20.7418 374.08 20.7018C374.376 20.6538 374.676 20.6498 374.98 20.6898L375.616 20.8218C375.16 20.8458 374.812 20.8898 374.572 20.9538C374.332 21.0178 374.212 21.1538 374.212 21.3618C374.212 21.4818 374.26 21.5778 374.356 21.6498C374.452 21.7218 374.588 21.7578 374.764 21.7578H376.228C376.684 21.7578 377.088 21.8138 377.44 21.9258C377.8 22.0458 378.08 22.2418 378.28 22.5138C378.488 22.7938 378.592 23.1738 378.592 23.6538V24.1818H377.452ZM375.616 19.8498C375.904 19.8498 376.164 19.7898 376.396 19.6698C376.636 19.5418 376.828 19.3618 376.972 19.1298C377.116 18.8898 377.188 18.6018 377.188 18.2658C377.188 17.9218 377.116 17.6298 376.972 17.3898C376.836 17.1418 376.648 16.9578 376.408 16.8378C376.168 16.7098 375.904 16.6458 375.616 16.6458C375.328 16.6458 375.06 16.7098 374.812 16.8378C374.572 16.9578 374.38 17.1378 374.236 17.3778C374.092 17.6178 374.02 17.9138 374.02 18.2658C374.02 18.6018 374.092 18.8898 374.236 19.1298C374.38 19.3618 374.572 19.5418 374.812 19.6698C375.052 19.7898 375.32 19.8498 375.616 19.8498ZM379.889 19.8138H380.945C380.985 20.1338 381.129 20.3978 381.377 20.6058C381.625 20.8058 381.973 20.9058 382.421 20.9058C382.709 20.9058 382.933 20.8738 383.093 20.8098C383.253 20.7378 383.365 20.6418 383.429 20.5218C383.501 20.4018 383.537 20.2698 383.537 20.1258C383.537 19.9418 383.489 19.8018 383.393 19.7058C383.297 19.6018 383.161 19.5178 382.985 19.4538C382.809 19.3818 382.601 19.3138 382.361 19.2498C382.097 19.1778 381.833 19.0938 381.569 18.9978C381.305 18.9018 381.061 18.7858 380.837 18.6498C380.621 18.5138 380.445 18.3458 380.309 18.1458C380.181 17.9378 380.117 17.6858 380.117 17.3898C380.117 17.1418 380.169 16.9098 380.273 16.6938C380.385 16.4778 380.541 16.2938 380.741 16.1418C380.949 15.9818 381.189 15.8618 381.461 15.7818C381.733 15.6938 382.033 15.6498 382.361 15.6498C382.817 15.6498 383.201 15.7338 383.513 15.9018C383.825 16.0618 384.061 16.2898 384.221 16.5858C384.389 16.8818 384.477 17.2218 384.485 17.6058H383.477C383.421 17.2698 383.305 17.0258 383.129 16.8738C382.953 16.7138 382.689 16.6338 382.337 16.6338C381.993 16.6338 381.729 16.7018 381.545 16.8378C381.361 16.9738 381.269 17.1578 381.269 17.3898C381.269 17.5658 381.333 17.7098 381.461 17.8218C381.589 17.9258 381.761 18.0178 381.977 18.0978C382.193 18.1778 382.437 18.2618 382.709 18.3498C382.965 18.4378 383.209 18.5298 383.441 18.6258C383.681 18.7138 383.893 18.8218 384.077 18.9498C384.269 19.0698 384.417 19.2298 384.521 19.4298C384.633 19.6218 384.689 19.8618 384.689 20.1498C384.689 20.5018 384.601 20.8098 384.425 21.0738C384.249 21.3298 383.993 21.5298 383.657 21.6738C383.329 21.8178 382.929 21.8898 382.457 21.8898C382.025 21.8898 381.657 21.8378 381.353 21.7338C381.057 21.6298 380.805 21.4938 380.597 21.3258C380.397 21.1578 380.241 20.9818 380.129 20.7978C380.025 20.6058 379.953 20.4218 379.913 20.2458C379.881 20.0698 379.873 19.9258 379.889 19.8138Z" fill="#041004"/>
<circle cx="478.437" cy="17.7578" r="11.5" fill="white" stroke="#E5E7EB"/>
<circle cx="478.437" cy="17.7578" r="7" fill="#E5E7EB"/>
<rect width="65" height="34" transform="translate(490.437 0.757812)" fill="white"/>
<path d="M502.321 19.0698V18.0618H505.117C505.581 18.0618 505.953 17.9218 506.233 17.6418C506.521 17.3618 506.665 16.9938 506.665 16.5378C506.665 16.0658 506.521 15.6938 506.233 15.4218C505.953 15.1498 505.581 15.0138 505.117 15.0138H502.513V21.7578H501.361V13.9698H505.069C505.453 13.9698 505.809 14.0258 506.137 14.1378C506.473 14.2418 506.765 14.4018 507.013 14.6178C507.269 14.8338 507.465 15.1018 507.601 15.4218C507.745 15.7418 507.817 16.1138 507.817 16.5378C507.817 16.9538 507.745 17.3218 507.601 17.6418C507.465 17.9618 507.269 18.2298 507.013 18.4458C506.765 18.6538 506.473 18.8098 506.137 18.9138C505.809 19.0178 505.453 19.0698 505.069 19.0698H502.321ZM509.126 15.7698H510.278V21.7578H509.126V15.7698ZM512.306 16.7898C511.89 16.7898 511.534 16.8858 511.238 17.0778C510.95 17.2698 510.718 17.5058 510.542 17.7858C510.374 18.0658 510.262 18.3338 510.206 18.5898L510.194 17.9058C510.202 17.8258 510.222 17.7018 510.254 17.5338C510.294 17.3578 510.362 17.1618 510.458 16.9458C510.554 16.7298 510.682 16.5258 510.842 16.3338C511.002 16.1338 511.202 15.9698 511.442 15.8418C511.682 15.7138 511.97 15.6498 512.306 15.6498V16.7898ZM517.965 19.8138H519.057C518.993 20.2058 518.841 20.5578 518.601 20.8698C518.361 21.1818 518.045 21.4298 517.653 21.6138C517.261 21.7978 516.801 21.8898 516.273 21.8898C515.649 21.8898 515.093 21.7578 514.605 21.4938C514.117 21.2298 513.733 20.8658 513.453 20.4018C513.173 19.9378 513.033 19.3978 513.033 18.7818C513.033 18.1578 513.169 17.6138 513.441 17.1498C513.713 16.6778 514.089 16.3098 514.569 16.0458C515.049 15.7818 515.597 15.6498 516.213 15.6498C516.861 15.6498 517.405 15.7778 517.845 16.0338C518.285 16.2898 518.609 16.6698 518.817 17.1738C519.033 17.6698 519.121 18.2898 519.081 19.0338H514.173C514.213 19.3938 514.321 19.7138 514.497 19.9938C514.681 20.2738 514.921 20.4938 515.217 20.6538C515.521 20.8138 515.869 20.8938 516.261 20.8938C516.701 20.8938 517.069 20.7938 517.365 20.5938C517.661 20.3938 517.861 20.1338 517.965 19.8138ZM516.225 16.6338C515.705 16.6338 515.273 16.7738 514.929 17.0538C514.585 17.3258 514.357 17.6898 514.245 18.1458H517.929C517.897 17.6578 517.721 17.2858 517.401 17.0298C517.081 16.7658 516.689 16.6338 516.225 16.6338ZM522.711 20.8698H522.339L524.283 15.7698H525.531L523.071 21.7578H521.991L519.555 15.7698H520.815L522.711 20.8698ZM527.897 13.2978V14.5338H526.469V13.2978H527.897ZM526.613 15.7698H527.753V21.7578H526.613V15.7698ZM533.996 19.8138H535.088C535.024 20.2058 534.872 20.5578 534.632 20.8698C534.392 21.1818 534.076 21.4298 533.684 21.6138C533.292 21.7978 532.832 21.8898 532.304 21.8898C531.68 21.8898 531.124 21.7578 530.636 21.4938C530.148 21.2298 529.764 20.8658 529.484 20.4018C529.204 19.9378 529.064 19.3978 529.064 18.7818C529.064 18.1578 529.2 17.6138 529.472 17.1498C529.744 16.6778 530.12 16.3098 530.6 16.0458C531.08 15.7818 531.628 15.6498 532.244 15.6498C532.892 15.6498 533.436 15.7778 533.876 16.0338C534.316 16.2898 534.64 16.6698 534.848 17.1738C535.064 17.6698 535.152 18.2898 535.112 19.0338H530.204C530.244 19.3938 530.352 19.7138 530.528 19.9938C530.712 20.2738 530.952 20.4938 531.248 20.6538C531.552 20.8138 531.9 20.8938 532.292 20.8938C532.732 20.8938 533.1 20.7938 533.396 20.5938C533.692 20.3938 533.892 20.1338 533.996 19.8138ZM532.256 16.6338C531.736 16.6338 531.304 16.7738 530.96 17.0538C530.616 17.3258 530.388 17.6898 530.276 18.1458H533.96C533.928 17.6578 533.752 17.2858 533.432 17.0298C533.112 16.7658 532.72 16.6338 532.256 16.6338ZM542.69 20.8218L542.378 20.8098L543.95 15.7698H545.198L543.122 21.7578H542.042L540.23 16.6338H540.554L538.718 21.7578H537.638L535.586 15.7698H536.846L538.37 20.8098L538.058 20.8218L539.714 15.7698H541.07L542.69 20.8218Z" fill="#041004"/>
</svg>
