<svg width="555" height="35" viewBox="0 0 555 35" fill="none" xmlns="http://www.w3.org/2000/svg">
<circle cx="12" cy="17.5" r="11.5" fill="white" stroke="#E5E7EB"/>
<circle cx="12" cy="17.5" r="7" fill="#E5E7EB"/>
<rect width="60" height="34" transform="translate(24 0.5)" fill="white"/>
<path d="M38.068 13.712C38.876 13.712 39.552 13.816 40.096 14.024C40.648 14.224 41.088 14.504 41.416 14.864C41.752 15.224 41.992 15.636 42.136 16.1C42.28 16.564 42.352 17.056 42.352 17.576C42.352 18.088 42.272 18.58 42.112 19.052C41.96 19.524 41.712 19.944 41.368 20.312C41.032 20.68 40.592 20.972 40.048 21.188C39.504 21.396 38.844 21.5 38.068 21.5H34.948V13.712H38.068ZM36.1 20.456H38.056C38.672 20.456 39.18 20.376 39.58 20.216C39.98 20.048 40.296 19.828 40.528 19.556C40.768 19.276 40.936 18.964 41.032 18.62C41.136 18.276 41.188 17.928 41.188 17.576C41.188 17.216 41.136 16.868 41.032 16.532C40.936 16.196 40.768 15.896 40.528 15.632C40.296 15.36 39.98 15.148 39.58 14.996C39.18 14.836 38.672 14.756 38.056 14.756H36.1V20.456ZM48.3408 19.556H49.4328C49.3688 19.948 49.2168 20.3 48.9768 20.612C48.7368 20.924 48.4208 21.172 48.0288 21.356C47.6368 21.54 47.1768 21.632 46.6488 21.632C46.0248 21.632 45.4688 21.5 44.9808 21.236C44.4928 20.972 44.1088 20.608 43.8288 20.144C43.5488 19.68 43.4088 19.14 43.4088 18.524C43.4088 17.9 43.5448 17.356 43.8168 16.892C44.0888 16.42 44.4648 16.052 44.9448 15.788C45.4248 15.524 45.9728 15.392 46.5888 15.392C47.2368 15.392 47.7808 15.52 48.2208 15.776C48.6608 16.032 48.9848 16.412 49.1928 16.916C49.4088 17.412 49.4968 18.032 49.4568 18.776H44.5488C44.5888 19.136 44.6968 19.456 44.8728 19.736C45.0568 20.016 45.2968 20.236 45.5928 20.396C45.8968 20.556 46.2448 20.636 46.6368 20.636C47.0768 20.636 47.4448 20.536 47.7408 20.336C48.0368 20.136 48.2368 19.876 48.3408 19.556ZM46.6008 16.376C46.0808 16.376 45.6488 16.516 45.3048 16.796C44.9608 17.068 44.7328 17.432 44.6208 17.888H48.3048C48.2728 17.4 48.0968 17.028 47.7768 16.772C47.4568 16.508 47.0648 16.376 46.6008 16.376ZM50.1446 15.512H54.0206V16.508H50.1446V15.512ZM51.5126 13.928H52.6526V21.5H51.5126V13.928ZM57.478 21.62C56.966 21.62 56.498 21.488 56.074 21.224C55.65 20.96 55.314 20.596 55.066 20.132C54.818 19.66 54.694 19.12 54.694 18.512C54.694 17.904 54.818 17.368 55.066 16.904C55.322 16.432 55.67 16.064 56.11 15.8C56.55 15.528 57.042 15.392 57.586 15.392C58.186 15.392 58.65 15.532 58.978 15.812C59.314 16.092 59.546 16.468 59.674 16.94C59.81 17.412 59.878 17.936 59.878 18.512C59.878 18.832 59.838 19.172 59.758 19.532C59.678 19.892 59.55 20.232 59.374 20.552C59.198 20.872 58.954 21.132 58.642 21.332C58.33 21.524 57.942 21.62 57.478 21.62ZM57.802 20.624C58.226 20.624 58.582 20.532 58.87 20.348C59.166 20.156 59.386 19.9 59.53 19.58C59.674 19.26 59.746 18.904 59.746 18.512C59.746 18.088 59.67 17.716 59.518 17.396C59.374 17.076 59.154 16.828 58.858 16.652C58.57 16.476 58.218 16.388 57.802 16.388C57.178 16.388 56.694 16.588 56.35 16.988C56.014 17.388 55.846 17.896 55.846 18.512C55.846 18.928 55.93 19.296 56.098 19.616C56.266 19.928 56.494 20.176 56.782 20.36C57.078 20.536 57.418 20.624 57.802 20.624ZM59.746 15.512H60.898V21.5H59.842C59.842 21.5 59.834 21.428 59.818 21.284C59.802 21.132 59.786 20.952 59.77 20.744C59.754 20.536 59.746 20.352 59.746 20.192V15.512ZM63.7805 13.04V14.276H62.3525V13.04H63.7805ZM62.4965 15.512H63.6365V21.5H62.4965V15.512ZM65.3799 13.112H66.5319V21.5H65.3799V13.112ZM67.9139 19.556H68.9699C69.0099 19.876 69.1539 20.14 69.4019 20.348C69.6499 20.548 69.9979 20.648 70.4459 20.648C70.7339 20.648 70.9579 20.616 71.1179 20.552C71.2779 20.48 71.3899 20.384 71.4539 20.264C71.5259 20.144 71.5619 20.012 71.5619 19.868C71.5619 19.684 71.5139 19.544 71.4179 19.448C71.3219 19.344 71.1859 19.26 71.0099 19.196C70.8339 19.124 70.6259 19.056 70.3859 18.992C70.1219 18.92 69.8579 18.836 69.5939 18.74C69.3299 18.644 69.0859 18.528 68.8619 18.392C68.6459 18.256 68.4699 18.088 68.3339 17.888C68.2059 17.68 68.1419 17.428 68.1419 17.132C68.1419 16.884 68.1939 16.652 68.2979 16.436C68.4099 16.22 68.5659 16.036 68.7659 15.884C68.9739 15.724 69.2139 15.604 69.4859 15.524C69.7579 15.436 70.0579 15.392 70.3859 15.392C70.8419 15.392 71.2259 15.476 71.5379 15.644C71.8499 15.804 72.0859 16.032 72.2459 16.328C72.4139 16.624 72.5019 16.964 72.5099 17.348H71.5019C71.4459 17.012 71.3299 16.768 71.1539 16.616C70.9779 16.456 70.7139 16.376 70.3619 16.376C70.0179 16.376 69.7539 16.444 69.5699 16.58C69.3859 16.716 69.2939 16.9 69.2939 17.132C69.2939 17.308 69.3579 17.452 69.4859 17.564C69.6139 17.668 69.7859 17.76 70.0019 17.84C70.2179 17.92 70.4619 18.004 70.7339 18.092C70.9899 18.18 71.2339 18.272 71.4659 18.368C71.7059 18.456 71.9179 18.564 72.1019 18.692C72.2939 18.812 72.4419 18.972 72.5459 19.172C72.6579 19.364 72.7139 19.604 72.7139 19.892C72.7139 20.244 72.6259 20.552 72.4499 20.816C72.2739 21.072 72.0179 21.272 71.6819 21.416C71.3539 21.56 70.9539 21.632 70.4819 21.632C70.0499 21.632 69.6819 21.58 69.3779 21.476C69.0819 21.372 68.8299 21.236 68.6219 21.068C68.4219 20.9 68.2659 20.724 68.1539 20.54C68.0499 20.348 67.9779 20.164 67.9379 19.988C67.9059 19.812 67.8979 19.668 67.9139 19.556Z" fill="black"/>
<circle cx="167" cy="17.5" r="11.5" fill="white" stroke="#003131"/>
<circle cx="167" cy="17.5" r="7" fill="#003131"/>
<rect width="55" height="34" transform="translate(179 0.5)" fill="white"/>
<path d="M189.204 13.712H196.032V14.744H189.204V13.712ZM192.036 14.624H193.2V21.5H192.036V14.624ZM200.564 19.556H201.656C201.592 19.948 201.44 20.3 201.2 20.612C200.96 20.924 200.644 21.172 200.252 21.356C199.86 21.54 199.4 21.632 198.872 21.632C198.248 21.632 197.692 21.5 197.204 21.236C196.716 20.972 196.332 20.608 196.052 20.144C195.772 19.68 195.632 19.14 195.632 18.524C195.632 17.9 195.768 17.356 196.04 16.892C196.312 16.42 196.688 16.052 197.168 15.788C197.648 15.524 198.196 15.392 198.812 15.392C199.46 15.392 200.004 15.52 200.444 15.776C200.884 16.032 201.208 16.412 201.416 16.916C201.632 17.412 201.72 18.032 201.68 18.776H196.771C196.812 19.136 196.92 19.456 197.096 19.736C197.28 20.016 197.52 20.236 197.816 20.396C198.12 20.556 198.468 20.636 198.86 20.636C199.3 20.636 199.668 20.536 199.964 20.336C200.26 20.136 200.46 19.876 200.564 19.556ZM198.824 16.376C198.304 16.376 197.872 16.516 197.528 16.796C197.184 17.068 196.956 17.432 196.844 17.888H200.528C200.496 17.4 200.32 17.028 200 16.772C199.68 16.508 199.288 16.376 198.824 16.376ZM202.893 15.512H204.045V21.5H202.893V15.512ZM206.073 16.532C205.657 16.532 205.301 16.628 205.005 16.82C204.717 17.012 204.485 17.248 204.309 17.528C204.141 17.808 204.029 18.076 203.973 18.332L203.961 17.648C203.969 17.568 203.989 17.444 204.021 17.276C204.061 17.1 204.129 16.904 204.225 16.688C204.321 16.472 204.449 16.268 204.609 16.076C204.769 15.876 204.969 15.712 205.209 15.584C205.449 15.456 205.737 15.392 206.073 15.392V16.532ZM207.111 15.512H208.263V21.5H207.111V15.512ZM210.543 15.392C210.879 15.392 211.183 15.44 211.455 15.536C211.727 15.632 211.959 15.776 212.151 15.968C212.343 16.152 212.491 16.384 212.595 16.664C212.707 16.936 212.763 17.248 212.763 17.6V21.5H211.623V17.852C211.623 17.38 211.507 17.028 211.275 16.796C211.051 16.556 210.707 16.436 210.243 16.436C209.883 16.436 209.555 16.52 209.259 16.688C208.963 16.856 208.719 17.08 208.527 17.36C208.343 17.632 208.231 17.94 208.191 18.284L208.179 17.624C208.219 17.304 208.303 17.008 208.431 16.736C208.567 16.464 208.735 16.228 208.935 16.028C209.143 15.82 209.383 15.664 209.655 15.56C209.927 15.448 210.223 15.392 210.543 15.392ZM214.935 15.392C215.271 15.392 215.575 15.44 215.847 15.536C216.119 15.632 216.351 15.776 216.543 15.968C216.735 16.152 216.883 16.384 216.987 16.664C217.099 16.936 217.155 17.248 217.155 17.6V21.5H216.015V17.852C216.015 17.38 215.899 17.028 215.667 16.796C215.443 16.556 215.099 16.436 214.635 16.436C214.275 16.436 213.947 16.52 213.651 16.688C213.355 16.856 213.111 17.08 212.919 17.36C212.735 17.632 212.623 17.94 212.583 18.284L212.571 17.612C212.611 17.292 212.695 17 212.823 16.736C212.959 16.464 213.131 16.228 213.339 16.028C213.547 15.82 213.787 15.664 214.059 15.56C214.331 15.448 214.623 15.392 214.935 15.392ZM218.402 19.556H219.458C219.498 19.876 219.642 20.14 219.89 20.348C220.138 20.548 220.486 20.648 220.934 20.648C221.222 20.648 221.446 20.616 221.606 20.552C221.766 20.48 221.878 20.384 221.942 20.264C222.014 20.144 222.05 20.012 222.05 19.868C222.05 19.684 222.002 19.544 221.906 19.448C221.81 19.344 221.674 19.26 221.498 19.196C221.322 19.124 221.114 19.056 220.874 18.992C220.61 18.92 220.346 18.836 220.082 18.74C219.818 18.644 219.574 18.528 219.35 18.392C219.134 18.256 218.958 18.088 218.822 17.888C218.694 17.68 218.63 17.428 218.63 17.132C218.63 16.884 218.682 16.652 218.786 16.436C218.898 16.22 219.054 16.036 219.254 15.884C219.462 15.724 219.702 15.604 219.974 15.524C220.246 15.436 220.546 15.392 220.874 15.392C221.33 15.392 221.714 15.476 222.026 15.644C222.338 15.804 222.574 16.032 222.734 16.328C222.902 16.624 222.99 16.964 222.998 17.348H221.99C221.934 17.012 221.818 16.768 221.642 16.616C221.466 16.456 221.202 16.376 220.85 16.376C220.506 16.376 220.242 16.444 220.058 16.58C219.874 16.716 219.782 16.9 219.782 17.132C219.782 17.308 219.846 17.452 219.974 17.564C220.102 17.668 220.274 17.76 220.49 17.84C220.706 17.92 220.95 18.004 221.222 18.092C221.478 18.18 221.722 18.272 221.954 18.368C222.194 18.456 222.406 18.564 222.59 18.692C222.782 18.812 222.93 18.972 223.034 19.172C223.146 19.364 223.202 19.604 223.202 19.892C223.202 20.244 223.114 20.552 222.938 20.816C222.762 21.072 222.506 21.272 222.17 21.416C221.842 21.56 221.442 21.632 220.97 21.632C220.538 21.632 220.17 21.58 219.866 21.476C219.57 21.372 219.318 21.236 219.11 21.068C218.91 20.9 218.754 20.724 218.642 20.54C218.538 20.348 218.466 20.164 218.426 19.988C218.394 19.812 218.386 19.668 218.402 19.556Z" fill="black"/>
<circle cx="317" cy="17.5" r="11.5" fill="white" stroke="#E5E7EB"/>
<circle cx="317" cy="17.5" r="7" fill="#E5E7EB"/>
<rect width="66" height="34" transform="translate(329 0.5)" fill="white"/>
<path d="M339.42 18.944H340.524C340.548 19.256 340.652 19.54 340.836 19.796C341.028 20.044 341.284 20.24 341.604 20.384C341.932 20.528 342.312 20.6 342.744 20.6C343.12 20.6 343.432 20.548 343.68 20.444C343.928 20.34 344.112 20.2 344.232 20.024C344.36 19.84 344.424 19.624 344.424 19.376C344.424 19.128 344.356 18.932 344.22 18.788C344.084 18.636 343.88 18.512 343.608 18.416C343.336 18.312 343 18.212 342.6 18.116C342.248 18.028 341.9 17.924 341.556 17.804C341.22 17.676 340.908 17.52 340.62 17.336C340.34 17.152 340.112 16.932 339.936 16.676C339.768 16.412 339.684 16.096 339.684 15.728C339.684 15.336 339.792 14.98 340.008 14.66C340.224 14.332 340.54 14.072 340.956 13.88C341.38 13.68 341.892 13.58 342.492 13.58C343.42 13.58 344.12 13.812 344.592 14.276C345.072 14.74 345.304 15.36 345.288 16.136H344.208C344.184 15.592 344.012 15.204 343.692 14.972C343.372 14.732 342.956 14.612 342.444 14.612C342.004 14.612 341.628 14.704 341.316 14.888C341.004 15.064 340.848 15.344 340.848 15.728C340.848 15.896 340.884 16.044 340.956 16.172C341.028 16.292 341.148 16.404 341.316 16.508C341.484 16.612 341.708 16.712 341.988 16.808C342.276 16.904 342.632 17.008 343.056 17.12C343.376 17.192 343.684 17.284 343.98 17.396C344.284 17.508 344.556 17.648 344.796 17.816C345.036 17.984 345.224 18.2 345.36 18.464C345.504 18.728 345.576 19.052 345.576 19.436C345.576 19.844 345.476 20.216 345.276 20.552C345.076 20.88 344.764 21.144 344.34 21.344C343.924 21.536 343.384 21.632 342.72 21.632C342.192 21.632 341.732 21.564 341.34 21.428C340.956 21.292 340.632 21.116 340.368 20.9C340.112 20.684 339.908 20.452 339.756 20.204C339.612 19.956 339.512 19.72 339.456 19.496C339.408 19.272 339.396 19.088 339.42 18.944ZM351.431 19.556H352.523C352.459 19.948 352.307 20.3 352.067 20.612C351.827 20.924 351.511 21.172 351.119 21.356C350.727 21.54 350.267 21.632 349.739 21.632C349.115 21.632 348.559 21.5 348.071 21.236C347.583 20.972 347.199 20.608 346.919 20.144C346.639 19.68 346.499 19.14 346.499 18.524C346.499 17.9 346.635 17.356 346.907 16.892C347.179 16.42 347.555 16.052 348.035 15.788C348.515 15.524 349.063 15.392 349.679 15.392C350.327 15.392 350.871 15.52 351.311 15.776C351.751 16.032 352.075 16.412 352.283 16.916C352.499 17.412 352.587 18.032 352.547 18.776H347.639C347.679 19.136 347.787 19.456 347.963 19.736C348.147 20.016 348.387 20.236 348.683 20.396C348.987 20.556 349.335 20.636 349.727 20.636C350.167 20.636 350.535 20.536 350.831 20.336C351.127 20.136 351.327 19.876 351.431 19.556ZM349.691 16.376C349.171 16.376 348.739 16.516 348.395 16.796C348.051 17.068 347.823 17.432 347.711 17.888H351.395C351.363 17.4 351.187 17.028 350.867 16.772C350.547 16.508 350.155 16.376 349.691 16.376ZM353.234 15.512H357.11V16.508H353.234V15.512ZM354.602 13.928H355.742V21.5H354.602V13.928ZM357.781 15.512H361.657V16.508H357.781V15.512ZM359.149 13.928H360.289V21.5H359.149V13.928ZM364.128 13.04V14.276H362.7V13.04H364.128ZM362.844 15.512H363.984V21.5H362.844V15.512ZM365.608 15.512H366.76V21.5H365.608V15.512ZM369.04 15.392C369.376 15.392 369.68 15.44 369.952 15.536C370.224 15.632 370.456 15.776 370.648 15.968C370.84 16.152 370.988 16.384 371.092 16.664C371.204 16.936 371.26 17.248 371.26 17.6V21.5H370.12V17.852C370.12 17.38 370.004 17.028 369.772 16.796C369.548 16.556 369.204 16.436 368.74 16.436C368.38 16.436 368.052 16.52 367.756 16.688C367.46 16.856 367.216 17.08 367.024 17.36C366.84 17.632 366.728 17.94 366.688 18.284L366.676 17.624C366.716 17.304 366.8 17.008 366.928 16.736C367.064 16.464 367.232 16.228 367.432 16.028C367.64 15.82 367.88 15.664 368.152 15.56C368.424 15.448 368.72 15.392 369.04 15.392ZM375.18 20.564C374.684 20.564 374.228 20.464 373.812 20.264C373.396 20.064 373.064 19.772 372.816 19.388C372.576 19.004 372.456 18.54 372.456 17.996C372.456 17.46 372.576 17 372.816 16.616C373.056 16.224 373.38 15.924 373.788 15.716C374.204 15.5 374.668 15.392 375.18 15.392C375.332 15.392 375.476 15.404 375.612 15.428C375.748 15.444 375.88 15.472 376.008 15.512H378.624V16.592C378.264 16.592 377.9 16.532 377.532 16.412C377.172 16.292 376.856 16.164 376.584 16.028L376.548 15.968C376.82 16.112 377.056 16.288 377.256 16.496C377.456 16.696 377.608 16.924 377.712 17.18C377.824 17.428 377.88 17.708 377.88 18.02C377.88 18.548 377.76 19.004 377.52 19.388C377.288 19.772 376.964 20.064 376.548 20.264C376.14 20.464 375.684 20.564 375.18 20.564ZM377.016 23.924V23.648C377.016 23.24 376.904 22.948 376.68 22.772C376.456 22.596 376.128 22.508 375.696 22.508H374.292C373.996 22.508 373.744 22.484 373.536 22.436C373.328 22.388 373.156 22.316 373.02 22.22C372.884 22.132 372.784 22.02 372.72 21.884C372.656 21.756 372.624 21.612 372.624 21.452C372.624 21.14 372.72 20.904 372.912 20.744C373.104 20.584 373.348 20.484 373.644 20.444C373.94 20.396 374.24 20.392 374.544 20.432L375.18 20.564C374.724 20.588 374.376 20.632 374.136 20.696C373.896 20.76 373.776 20.896 373.776 21.104C373.776 21.224 373.824 21.32 373.92 21.392C374.016 21.464 374.152 21.5 374.328 21.5H375.792C376.248 21.5 376.652 21.556 377.004 21.668C377.364 21.788 377.644 21.984 377.844 22.256C378.052 22.536 378.156 22.916 378.156 23.396V23.924H377.016ZM375.18 19.592C375.468 19.592 375.728 19.532 375.96 19.412C376.2 19.284 376.392 19.104 376.536 18.872C376.68 18.632 376.752 18.344 376.752 18.008C376.752 17.664 376.68 17.372 376.536 17.132C376.4 16.884 376.212 16.7 375.972 16.58C375.732 16.452 375.468 16.388 375.18 16.388C374.892 16.388 374.624 16.452 374.376 16.58C374.136 16.7 373.944 16.88 373.8 17.12C373.656 17.36 373.584 17.656 373.584 18.008C373.584 18.344 373.656 18.632 373.8 18.872C373.944 19.104 374.136 19.284 374.376 19.412C374.616 19.532 374.884 19.592 375.18 19.592ZM379.453 19.556H380.509C380.549 19.876 380.693 20.14 380.941 20.348C381.189 20.548 381.537 20.648 381.985 20.648C382.273 20.648 382.497 20.616 382.657 20.552C382.817 20.48 382.929 20.384 382.993 20.264C383.065 20.144 383.101 20.012 383.101 19.868C383.101 19.684 383.053 19.544 382.957 19.448C382.861 19.344 382.725 19.26 382.549 19.196C382.373 19.124 382.165 19.056 381.925 18.992C381.661 18.92 381.397 18.836 381.133 18.74C380.869 18.644 380.625 18.528 380.401 18.392C380.185 18.256 380.009 18.088 379.873 17.888C379.745 17.68 379.681 17.428 379.681 17.132C379.681 16.884 379.733 16.652 379.837 16.436C379.949 16.22 380.105 16.036 380.305 15.884C380.513 15.724 380.753 15.604 381.025 15.524C381.297 15.436 381.597 15.392 381.925 15.392C382.381 15.392 382.765 15.476 383.077 15.644C383.389 15.804 383.625 16.032 383.785 16.328C383.953 16.624 384.041 16.964 384.049 17.348H383.041C382.985 17.012 382.869 16.768 382.693 16.616C382.517 16.456 382.253 16.376 381.901 16.376C381.557 16.376 381.293 16.444 381.109 16.58C380.925 16.716 380.833 16.9 380.833 17.132C380.833 17.308 380.897 17.452 381.025 17.564C381.153 17.668 381.325 17.76 381.541 17.84C381.757 17.92 382.001 18.004 382.273 18.092C382.529 18.18 382.773 18.272 383.005 18.368C383.245 18.456 383.457 18.564 383.641 18.692C383.833 18.812 383.981 18.972 384.085 19.172C384.197 19.364 384.253 19.604 384.253 19.892C384.253 20.244 384.165 20.552 383.989 20.816C383.813 21.072 383.557 21.272 383.221 21.416C382.893 21.56 382.493 21.632 382.021 21.632C381.589 21.632 381.221 21.58 380.917 21.476C380.621 21.372 380.369 21.236 380.161 21.068C379.961 20.9 379.805 20.724 379.693 20.54C379.589 20.348 379.517 20.164 379.477 19.988C379.445 19.812 379.437 19.668 379.453 19.556Z" fill="black"/>
<circle cx="478" cy="17.5" r="11.5" fill="white" stroke="#E5E7EB"/>
<circle cx="478" cy="17.5" r="7" fill="#E5E7EB"/>
<rect width="65" height="34" transform="translate(490 0.5)" fill="white"/>
<path d="M501.884 18.812V17.804H504.68C505.144 17.804 505.516 17.664 505.796 17.384C506.084 17.104 506.228 16.736 506.228 16.28C506.228 15.808 506.084 15.436 505.796 15.164C505.516 14.892 505.144 14.756 504.68 14.756H502.076V21.5H500.924V13.712H504.632C505.016 13.712 505.372 13.768 505.7 13.88C506.036 13.984 506.328 14.144 506.576 14.36C506.832 14.576 507.028 14.844 507.164 15.164C507.308 15.484 507.38 15.856 507.38 16.28C507.38 16.696 507.308 17.064 507.164 17.384C507.028 17.704 506.832 17.972 506.576 18.188C506.328 18.396 506.036 18.552 505.7 18.656C505.372 18.76 505.016 18.812 504.632 18.812H501.884ZM508.69 15.512H509.842V21.5H508.69V15.512ZM511.87 16.532C511.454 16.532 511.098 16.628 510.802 16.82C510.514 17.012 510.282 17.248 510.106 17.528C509.938 17.808 509.826 18.076 509.77 18.332L509.758 17.648C509.766 17.568 509.786 17.444 509.818 17.276C509.858 17.1 509.926 16.904 510.022 16.688C510.118 16.472 510.246 16.268 510.406 16.076C510.566 15.876 510.766 15.712 511.006 15.584C511.246 15.456 511.534 15.392 511.87 15.392V16.532ZM517.528 19.556H518.62C518.556 19.948 518.404 20.3 518.164 20.612C517.924 20.924 517.608 21.172 517.216 21.356C516.824 21.54 516.364 21.632 515.836 21.632C515.212 21.632 514.656 21.5 514.168 21.236C513.68 20.972 513.296 20.608 513.016 20.144C512.736 19.68 512.596 19.14 512.596 18.524C512.596 17.9 512.732 17.356 513.004 16.892C513.276 16.42 513.652 16.052 514.132 15.788C514.612 15.524 515.16 15.392 515.776 15.392C516.424 15.392 516.968 15.52 517.408 15.776C517.848 16.032 518.172 16.412 518.38 16.916C518.596 17.412 518.684 18.032 518.644 18.776H513.736C513.776 19.136 513.884 19.456 514.06 19.736C514.244 20.016 514.484 20.236 514.78 20.396C515.084 20.556 515.432 20.636 515.824 20.636C516.264 20.636 516.632 20.536 516.928 20.336C517.224 20.136 517.424 19.876 517.528 19.556ZM515.788 16.376C515.268 16.376 514.836 16.516 514.492 16.796C514.148 17.068 513.92 17.432 513.808 17.888H517.492C517.46 17.4 517.284 17.028 516.964 16.772C516.644 16.508 516.252 16.376 515.788 16.376ZM522.274 20.612H521.902L523.846 15.512H525.094L522.634 21.5H521.554L519.118 15.512H520.378L522.274 20.612ZM527.46 13.04V14.276H526.032V13.04H527.46ZM526.176 15.512H527.316V21.5H526.176V15.512ZM533.56 19.556H534.652C534.588 19.948 534.436 20.3 534.196 20.612C533.956 20.924 533.64 21.172 533.248 21.356C532.856 21.54 532.396 21.632 531.868 21.632C531.244 21.632 530.688 21.5 530.2 21.236C529.712 20.972 529.328 20.608 529.048 20.144C528.768 19.68 528.628 19.14 528.628 18.524C528.628 17.9 528.764 17.356 529.036 16.892C529.308 16.42 529.684 16.052 530.164 15.788C530.644 15.524 531.192 15.392 531.808 15.392C532.456 15.392 533 15.52 533.44 15.776C533.88 16.032 534.204 16.412 534.412 16.916C534.628 17.412 534.716 18.032 534.676 18.776H529.768C529.808 19.136 529.916 19.456 530.092 19.736C530.276 20.016 530.516 20.236 530.812 20.396C531.116 20.556 531.464 20.636 531.856 20.636C532.296 20.636 532.664 20.536 532.96 20.336C533.256 20.136 533.456 19.876 533.56 19.556ZM531.82 16.376C531.3 16.376 530.868 16.516 530.524 16.796C530.18 17.068 529.952 17.432 529.84 17.888H533.524C533.492 17.4 533.316 17.028 532.996 16.772C532.676 16.508 532.284 16.376 531.82 16.376ZM542.254 20.564L541.942 20.552L543.514 15.512H544.762L542.686 21.5H541.606L539.794 16.376H540.118L538.282 21.5H537.202L535.15 15.512H536.41L537.934 20.552L537.622 20.564L539.278 15.512H540.634L542.254 20.564Z" fill="black"/>
</svg>
