<svg width="346" height="126" viewBox="0 0 346 126" fill="none" xmlns="http://www.w3.org/2000/svg">
<g filter="url(#filter0_d_7450_73610)">
<rect x="35" y="31" width="276" height="56" rx="4" fill="white" shape-rendering="crispEdges"/>
<path d="M61.42 50V45.2H62.38V50C62.38 50.44 62.328 50.832 62.224 51.176C62.12 51.512 61.972 51.804 61.78 52.052C61.596 52.3 61.372 52.504 61.108 52.664C60.844 52.816 60.548 52.928 60.22 53C59.9 53.08 59.556 53.12 59.188 53.12C58.812 53.12 58.46 53.08 58.132 53C57.804 52.928 57.504 52.816 57.232 52.664C56.968 52.504 56.74 52.3 56.548 52.052C56.364 51.804 56.22 51.512 56.116 51.176C56.012 50.832 55.96 50.44 55.96 50V45.2H56.92V50C56.92 50.6 57.024 51.06 57.232 51.38C57.44 51.7 57.716 51.92 58.06 52.04C58.404 52.16 58.78 52.22 59.188 52.22C59.588 52.22 59.956 52.16 60.292 52.04C60.628 51.92 60.9 51.7 61.108 51.38C61.316 51.06 61.42 50.6 61.42 50ZM63.8358 51.068H64.7238C64.7478 51.412 64.8758 51.692 65.1077 51.908C65.3478 52.124 65.6918 52.232 66.1398 52.232C66.4118 52.232 66.6238 52.196 66.7758 52.124C66.9358 52.052 67.0518 51.956 67.1238 51.836C67.1958 51.708 67.2318 51.568 67.2318 51.416C67.2318 51.232 67.1838 51.088 67.0878 50.984C66.9998 50.872 66.8758 50.78 66.7158 50.708C66.5638 50.636 66.3878 50.568 66.1878 50.504C65.9558 50.416 65.7158 50.324 65.4678 50.228C65.2278 50.124 64.9998 50.004 64.7838 49.868C64.5758 49.724 64.4078 49.552 64.2798 49.352C64.1518 49.144 64.0878 48.896 64.0878 48.608C64.0878 48.368 64.1358 48.144 64.2318 47.936C64.3278 47.72 64.4638 47.536 64.6398 47.384C64.8238 47.224 65.0358 47.1 65.2758 47.012C65.5238 46.924 65.7958 46.88 66.0918 46.88C66.4918 46.88 66.8278 46.96 67.0998 47.12C67.3798 47.28 67.5918 47.508 67.7358 47.804C67.8878 48.092 67.9678 48.428 67.9758 48.812H67.1478C67.0918 48.452 66.9758 48.192 66.7998 48.032C66.6318 47.864 66.3878 47.78 66.0678 47.78C65.7398 47.78 65.4878 47.852 65.3118 47.996C65.1358 48.14 65.0478 48.332 65.0478 48.572C65.0478 48.748 65.1118 48.896 65.2398 49.016C65.3678 49.128 65.5318 49.232 65.7318 49.328C65.9398 49.416 66.1598 49.508 66.3918 49.604C66.6238 49.7 66.8478 49.796 67.0638 49.892C67.2798 49.988 67.4718 50.1 67.6398 50.228C67.8078 50.356 67.9398 50.516 68.0358 50.708C68.1398 50.892 68.1918 51.124 68.1918 51.404C68.1918 51.74 68.1118 52.04 67.9518 52.304C67.7998 52.56 67.5718 52.76 67.2678 52.904C66.9718 53.048 66.6078 53.12 66.1758 53.12C65.7838 53.12 65.4478 53.072 65.1678 52.976C64.8958 52.872 64.6678 52.74 64.4838 52.58C64.2998 52.412 64.1558 52.236 64.0518 52.052C63.9558 51.868 63.8918 51.688 63.8598 51.512C63.8278 51.336 63.8198 51.188 63.8358 51.068ZM73.6686 51.068H74.5686C74.5046 51.46 74.3606 51.812 74.1366 52.124C73.9206 52.428 73.6326 52.672 73.2726 52.856C72.9206 53.032 72.5126 53.12 72.0486 53.12C71.4886 53.12 70.9846 52.988 70.5366 52.724C70.0886 52.452 69.7326 52.084 69.4686 51.62C69.2126 51.148 69.0846 50.612 69.0846 50.012C69.0846 49.412 69.2086 48.876 69.4566 48.404C69.7126 47.932 70.0606 47.56 70.5006 47.288C70.9406 47.016 71.4366 46.88 71.9886 46.88C72.5726 46.88 73.0646 47.012 73.4646 47.276C73.8726 47.532 74.1726 47.912 74.3646 48.416C74.5646 48.912 74.6446 49.524 74.6046 50.252H70.0446C70.0846 50.644 70.1926 50.988 70.3686 51.284C70.5446 51.58 70.7766 51.812 71.0646 51.98C71.3526 52.14 71.6806 52.22 72.0486 52.22C72.4566 52.22 72.8006 52.116 73.0806 51.908C73.3686 51.692 73.5646 51.412 73.6686 51.068ZM72.0246 47.78C71.5286 47.78 71.1126 47.924 70.7766 48.212C70.4406 48.5 70.2166 48.892 70.1046 49.388H73.6206C73.5886 48.86 73.4166 48.46 73.1046 48.188C72.8006 47.916 72.4406 47.78 72.0246 47.78ZM75.8425 47H76.8025V53H75.8425V47ZM78.7225 47.9C78.3145 47.9 77.9705 48.004 77.6905 48.212C77.4185 48.412 77.2025 48.66 77.0425 48.956C76.8905 49.244 76.7905 49.524 76.7425 49.796L76.7305 49.1C76.7305 49.028 76.7465 48.908 76.7785 48.74C76.8105 48.572 76.8705 48.384 76.9585 48.176C77.0465 47.96 77.1625 47.756 77.3065 47.564C77.4585 47.364 77.6505 47.2 77.8825 47.072C78.1145 46.944 78.3945 46.88 78.7225 46.88V47.9ZM79.5154 51.068H80.4034C80.4274 51.412 80.5554 51.692 80.7874 51.908C81.0274 52.124 81.3714 52.232 81.8194 52.232C82.0914 52.232 82.3034 52.196 82.4554 52.124C82.6154 52.052 82.7314 51.956 82.8034 51.836C82.8754 51.708 82.9114 51.568 82.9114 51.416C82.9114 51.232 82.8634 51.088 82.7674 50.984C82.6794 50.872 82.5554 50.78 82.3954 50.708C82.2434 50.636 82.0674 50.568 81.8674 50.504C81.6354 50.416 81.3954 50.324 81.1474 50.228C80.9074 50.124 80.6794 50.004 80.4634 49.868C80.2554 49.724 80.0874 49.552 79.9594 49.352C79.8314 49.144 79.7674 48.896 79.7674 48.608C79.7674 48.368 79.8154 48.144 79.9114 47.936C80.0074 47.72 80.1434 47.536 80.3194 47.384C80.5034 47.224 80.7154 47.1 80.9554 47.012C81.2034 46.924 81.4754 46.88 81.7714 46.88C82.1714 46.88 82.5074 46.96 82.7794 47.12C83.0594 47.28 83.2714 47.508 83.4154 47.804C83.5674 48.092 83.6474 48.428 83.6554 48.812H82.8274C82.7714 48.452 82.6554 48.192 82.4794 48.032C82.3114 47.864 82.0674 47.78 81.7474 47.78C81.4194 47.78 81.1674 47.852 80.9914 47.996C80.8154 48.14 80.7274 48.332 80.7274 48.572C80.7274 48.748 80.7914 48.896 80.9194 49.016C81.0474 49.128 81.2114 49.232 81.4114 49.328C81.6194 49.416 81.8394 49.508 82.0714 49.604C82.3034 49.7 82.5274 49.796 82.7434 49.892C82.9594 49.988 83.1514 50.1 83.3194 50.228C83.4874 50.356 83.6194 50.516 83.7154 50.708C83.8194 50.892 83.8714 51.124 83.8714 51.404C83.8714 51.74 83.7914 52.04 83.6314 52.304C83.4794 52.56 83.2514 52.76 82.9474 52.904C82.6514 53.048 82.2874 53.12 81.8554 53.12C81.4634 53.12 81.1274 53.072 80.8474 52.976C80.5754 52.872 80.3474 52.74 80.1634 52.58C79.9794 52.412 79.8354 52.236 79.7314 52.052C79.6354 51.868 79.5714 51.688 79.5394 51.512C79.5074 51.336 79.4994 51.188 79.5154 51.068ZM87.7998 53V45.2H91.2438C91.7878 45.2 92.2518 45.284 92.6358 45.452C93.0198 45.612 93.3118 45.856 93.5118 46.184C93.7198 46.512 93.8238 46.924 93.8238 47.42C93.8238 47.756 93.7678 48.044 93.6558 48.284C93.5518 48.524 93.4038 48.728 93.2118 48.896C93.0198 49.056 92.7918 49.18 92.5278 49.268C92.2718 49.356 91.9918 49.412 91.6878 49.436L91.6518 49.376C92.0758 49.392 92.4398 49.444 92.7438 49.532C93.0478 49.62 93.2838 49.78 93.4518 50.012C93.6198 50.244 93.7038 50.592 93.7038 51.056V53H92.7438V51.056C92.7438 50.736 92.6878 50.488 92.5758 50.312C92.4718 50.128 92.2918 50 92.0358 49.928C91.7878 49.848 91.4438 49.808 91.0038 49.808H88.7598V53H87.7998ZM88.7598 48.908H91.2438C91.7878 48.908 92.1918 48.772 92.4558 48.5C92.7278 48.22 92.8638 47.86 92.8638 47.42C92.8638 46.996 92.7278 46.672 92.4558 46.448C92.1918 46.216 91.7878 46.1 91.2438 46.1H88.7598V48.908ZM99.5671 51.068H100.467C100.403 51.46 100.259 51.812 100.035 52.124C99.8191 52.428 99.5311 52.672 99.1711 52.856C98.8191 53.032 98.4111 53.12 97.9471 53.12C97.3871 53.12 96.8831 52.988 96.4351 52.724C95.9871 52.452 95.6311 52.084 95.3671 51.62C95.1111 51.148 94.9831 50.612 94.9831 50.012C94.9831 49.412 95.1071 48.876 95.3551 48.404C95.6111 47.932 95.9591 47.56 96.3991 47.288C96.8391 47.016 97.3351 46.88 97.8871 46.88C98.4711 46.88 98.9631 47.012 99.3631 47.276C99.7711 47.532 100.071 47.912 100.263 48.416C100.463 48.912 100.543 49.524 100.503 50.252H95.9431C95.9831 50.644 96.0911 50.988 96.2671 51.284C96.4431 51.58 96.6751 51.812 96.9631 51.98C97.2511 52.14 97.5791 52.22 97.9471 52.22C98.3551 52.22 98.6991 52.116 98.9791 51.908C99.2671 51.692 99.4631 51.412 99.5671 51.068ZM97.9231 47.78C97.4271 47.78 97.0111 47.924 96.6751 48.212C96.3391 48.5 96.1151 48.892 96.0031 49.388H99.5191C99.4871 48.86 99.3151 48.46 99.0031 48.188C98.6991 47.916 98.3391 47.78 97.9231 47.78ZM104.741 53.12C104.301 53.12 103.941 53.02 103.661 52.82C103.381 52.612 103.161 52.348 103.001 52.028C102.849 51.7 102.741 51.36 102.677 51.008C102.613 50.648 102.581 50.316 102.581 50.012C102.581 49.58 102.609 49.176 102.665 48.8C102.729 48.424 102.837 48.092 102.989 47.804C103.141 47.516 103.357 47.292 103.637 47.132C103.925 46.964 104.293 46.88 104.741 46.88C105.221 46.88 105.657 47.016 106.049 47.288C106.441 47.56 106.753 47.932 106.985 48.404C107.225 48.876 107.345 49.412 107.345 50.012C107.345 50.612 107.225 51.148 106.985 51.62C106.745 52.084 106.425 52.452 106.025 52.724C105.633 52.988 105.205 53.12 104.741 53.12ZM104.501 52.208C104.869 52.208 105.193 52.116 105.473 51.932C105.761 51.74 105.985 51.48 106.145 51.152C106.305 50.816 106.385 50.436 106.385 50.012C106.385 49.372 106.221 48.844 105.893 48.428C105.565 48.004 105.101 47.792 104.501 47.792C104.149 47.792 103.837 47.888 103.565 48.08C103.293 48.264 103.081 48.524 102.929 48.86C102.777 49.188 102.701 49.572 102.701 50.012C102.701 50.412 102.765 50.78 102.893 51.116C103.029 51.444 103.229 51.708 103.493 51.908C103.757 52.108 104.093 52.208 104.501 52.208ZM101.741 47H102.665L102.701 48.26V55.4H101.741V47ZM111.177 53.12C110.665 53.12 110.185 52.996 109.737 52.748C109.289 52.5 108.925 52.144 108.645 51.68C108.373 51.208 108.237 50.652 108.237 50.012C108.237 49.372 108.373 48.82 108.645 48.356C108.925 47.884 109.289 47.52 109.737 47.264C110.185 47.008 110.665 46.88 111.177 46.88C111.689 46.88 112.165 47.008 112.605 47.264C113.053 47.52 113.413 47.884 113.685 48.356C113.957 48.82 114.093 49.372 114.093 50.012C114.093 50.652 113.957 51.208 113.685 51.68C113.413 52.144 113.053 52.5 112.605 52.748C112.165 52.996 111.689 53.12 111.177 53.12ZM111.177 52.22C111.513 52.22 111.829 52.136 112.125 51.968C112.421 51.8 112.661 51.552 112.845 51.224C113.037 50.888 113.133 50.484 113.133 50.012C113.133 49.54 113.037 49.14 112.845 48.812C112.661 48.476 112.421 48.22 112.125 48.044C111.829 47.868 111.513 47.78 111.177 47.78C110.841 47.78 110.521 47.868 110.217 48.044C109.921 48.212 109.677 48.464 109.485 48.8C109.293 49.128 109.197 49.532 109.197 50.012C109.197 50.484 109.289 50.888 109.473 51.224C109.665 51.552 109.913 51.8 110.217 51.968C110.521 52.136 110.841 52.22 111.177 52.22ZM115.311 47H116.271V53H115.311V47ZM118.191 47.9C117.783 47.9 117.439 48.004 117.159 48.212C116.887 48.412 116.671 48.66 116.511 48.956C116.359 49.244 116.259 49.524 116.211 49.796L116.199 49.1C116.199 49.028 116.215 48.908 116.247 48.74C116.279 48.572 116.339 48.384 116.427 48.176C116.515 47.96 116.631 47.756 116.775 47.564C116.927 47.364 117.119 47.2 117.351 47.072C117.583 46.944 117.863 46.88 118.191 46.88V47.9ZM118.852 47H122.38V47.9H118.852V47ZM120.136 45.44H121.096V53H120.136V45.44ZM128.746 45.2C129.53 45.2 130.186 45.304 130.714 45.512C131.25 45.712 131.678 45.992 131.998 46.352C132.318 46.712 132.55 47.124 132.694 47.588C132.838 48.052 132.91 48.544 132.91 49.064C132.91 49.584 132.834 50.08 132.682 50.552C132.53 51.024 132.286 51.444 131.95 51.812C131.622 52.18 131.194 52.472 130.666 52.688C130.138 52.896 129.498 53 128.746 53H126.214V45.2H128.746ZM127.174 52.1H128.746C129.378 52.1 129.898 52.012 130.306 51.836C130.722 51.66 131.05 51.428 131.29 51.14C131.53 50.844 131.698 50.516 131.794 50.156C131.898 49.796 131.95 49.432 131.95 49.064C131.95 48.696 131.898 48.336 131.794 47.984C131.698 47.632 131.53 47.316 131.29 47.036C131.05 46.748 130.722 46.52 130.306 46.352C129.898 46.184 129.378 46.1 128.746 46.1H127.174V52.1ZM136.9 53.12C136.388 53.12 135.908 52.996 135.46 52.748C135.012 52.5 134.648 52.144 134.368 51.68C134.096 51.208 133.96 50.652 133.96 50.012C133.96 49.372 134.096 48.82 134.368 48.356C134.648 47.884 135.012 47.52 135.46 47.264C135.908 47.008 136.388 46.88 136.9 46.88C137.412 46.88 137.888 47.008 138.328 47.264C138.776 47.52 139.136 47.884 139.408 48.356C139.68 48.82 139.816 49.372 139.816 50.012C139.816 50.652 139.68 51.208 139.408 51.68C139.136 52.144 138.776 52.5 138.328 52.748C137.888 52.996 137.412 53.12 136.9 53.12ZM136.9 52.22C137.236 52.22 137.552 52.136 137.848 51.968C138.144 51.8 138.384 51.552 138.568 51.224C138.76 50.888 138.856 50.484 138.856 50.012C138.856 49.54 138.76 49.14 138.568 48.812C138.384 48.476 138.144 48.22 137.848 48.044C137.552 47.868 137.236 47.78 136.9 47.78C136.564 47.78 136.244 47.868 135.94 48.044C135.644 48.212 135.4 48.464 135.208 48.8C135.016 49.128 134.92 49.532 134.92 50.012C134.92 50.484 135.012 50.888 135.196 51.224C135.388 51.552 135.636 51.8 135.94 51.968C136.244 52.136 136.564 52.22 136.9 52.22ZM146.362 50.744C146.306 51.24 146.146 51.668 145.882 52.028C145.626 52.38 145.302 52.652 144.91 52.844C144.518 53.028 144.094 53.12 143.638 53.12C143.126 53.12 142.646 52.996 142.198 52.748C141.75 52.5 141.386 52.144 141.106 51.68C140.834 51.208 140.698 50.652 140.698 50.012C140.698 49.372 140.834 48.82 141.106 48.356C141.386 47.884 141.75 47.52 142.198 47.264C142.646 47.008 143.126 46.88 143.638 46.88C144.094 46.88 144.514 46.976 144.898 47.168C145.29 47.36 145.614 47.632 145.87 47.984C146.134 48.336 146.298 48.756 146.362 49.244H145.486C145.35 48.788 145.114 48.432 144.778 48.176C144.442 47.912 144.062 47.78 143.638 47.78C143.294 47.78 142.97 47.868 142.666 48.044C142.362 48.22 142.118 48.476 141.934 48.812C141.75 49.14 141.658 49.54 141.658 50.012C141.658 50.476 141.75 50.876 141.934 51.212C142.118 51.54 142.358 51.792 142.654 51.968C142.958 52.136 143.286 52.22 143.638 52.22C144.126 52.22 144.522 52.092 144.826 51.836C145.138 51.572 145.362 51.208 145.498 50.744H146.362ZM152.673 53H151.713V47H152.673V53ZM151.773 50.204L151.785 50.54C151.777 50.636 151.753 50.784 151.713 50.984C151.681 51.184 151.621 51.408 151.533 51.656C151.453 51.896 151.333 52.128 151.173 52.352C151.021 52.576 150.821 52.76 150.573 52.904C150.333 53.048 150.033 53.12 149.673 53.12C149.441 53.12 149.201 53.084 148.953 53.012C148.713 52.948 148.489 52.84 148.281 52.688C148.073 52.528 147.905 52.308 147.777 52.028C147.649 51.748 147.585 51.4 147.585 50.984V47H148.545V50.744C148.545 51.104 148.601 51.388 148.713 51.596C148.833 51.796 148.993 51.94 149.193 52.028C149.393 52.116 149.617 52.16 149.865 52.16C150.273 52.16 150.613 52.056 150.885 51.848C151.157 51.64 151.365 51.384 151.509 51.08C151.653 50.776 151.741 50.484 151.773 50.204ZM154.229 47H155.189V53H154.229V47ZM157.253 46.88C157.573 46.88 157.861 46.928 158.117 47.024C158.373 47.12 158.589 47.26 158.765 47.444C158.941 47.628 159.077 47.852 159.173 48.116C159.269 48.372 159.317 48.664 159.317 48.992V53H158.357V49.232C158.357 48.768 158.249 48.42 158.033 48.188C157.817 47.956 157.493 47.84 157.061 47.84C156.733 47.84 156.429 47.924 156.149 48.092C155.869 48.26 155.637 48.492 155.453 48.788C155.277 49.076 155.169 49.412 155.129 49.796L155.117 49.1C155.157 48.764 155.237 48.46 155.357 48.188C155.485 47.916 155.641 47.684 155.825 47.492C156.017 47.292 156.233 47.14 156.473 47.036C156.721 46.932 156.981 46.88 157.253 46.88ZM161.285 46.88C161.605 46.88 161.893 46.928 162.149 47.024C162.405 47.12 162.621 47.26 162.797 47.444C162.973 47.628 163.109 47.852 163.205 48.116C163.301 48.372 163.349 48.664 163.349 48.992V53H162.389V49.232C162.389 48.768 162.281 48.42 162.065 48.188C161.849 47.956 161.525 47.84 161.093 47.84C160.765 47.84 160.461 47.924 160.181 48.092C159.901 48.26 159.669 48.492 159.485 48.788C159.309 49.076 159.201 49.412 159.161 49.796L159.149 49.1C159.189 48.764 159.269 48.46 159.389 48.188C159.517 47.916 159.673 47.684 159.857 47.492C160.049 47.292 160.265 47.14 160.505 47.036C160.753 46.932 161.013 46.88 161.285 46.88ZM169.153 51.068H170.053C169.989 51.46 169.845 51.812 169.621 52.124C169.405 52.428 169.117 52.672 168.757 52.856C168.405 53.032 167.997 53.12 167.533 53.12C166.973 53.12 166.469 52.988 166.021 52.724C165.573 52.452 165.217 52.084 164.953 51.62C164.697 51.148 164.569 50.612 164.569 50.012C164.569 49.412 164.693 48.876 164.941 48.404C165.197 47.932 165.545 47.56 165.985 47.288C166.425 47.016 166.921 46.88 167.473 46.88C168.057 46.88 168.549 47.012 168.949 47.276C169.357 47.532 169.657 47.912 169.849 48.416C170.049 48.912 170.129 49.524 170.089 50.252H165.529C165.569 50.644 165.677 50.988 165.853 51.284C166.029 51.58 166.261 51.812 166.549 51.98C166.837 52.14 167.165 52.22 167.533 52.22C167.941 52.22 168.285 52.116 168.565 51.908C168.853 51.692 169.049 51.412 169.153 51.068ZM167.509 47.78C167.013 47.78 166.597 47.924 166.261 48.212C165.925 48.5 165.701 48.892 165.589 49.388H169.105C169.073 48.86 168.901 48.46 168.589 48.188C168.285 47.916 167.925 47.78 167.509 47.78ZM171.327 47H172.287V53H171.327V47ZM174.351 46.88C174.671 46.88 174.959 46.928 175.215 47.024C175.471 47.12 175.687 47.26 175.863 47.444C176.039 47.628 176.175 47.852 176.271 48.116C176.367 48.372 176.415 48.664 176.415 48.992V53H175.455V49.232C175.455 48.768 175.347 48.42 175.131 48.188C174.915 47.956 174.591 47.84 174.159 47.84C173.831 47.84 173.527 47.924 173.247 48.092C172.967 48.26 172.735 48.492 172.551 48.788C172.375 49.076 172.267 49.412 172.227 49.796L172.215 49.1C172.255 48.764 172.335 48.46 172.455 48.188C172.583 47.916 172.739 47.684 172.923 47.492C173.115 47.292 173.331 47.14 173.571 47.036C173.819 46.932 174.079 46.88 174.351 46.88ZM177.551 47H181.079V47.9H177.551V47ZM178.835 45.44H179.795V53H178.835V45.44ZM184.913 49.316H188.393V50.204H184.913V49.316ZM192.307 50.468H193.171C193.195 50.804 193.295 51.104 193.471 51.368C193.647 51.632 193.887 51.84 194.191 51.992C194.503 52.144 194.867 52.22 195.283 52.22C195.643 52.22 195.943 52.168 196.183 52.064C196.431 51.952 196.615 51.8 196.735 51.608C196.863 51.416 196.927 51.192 196.927 50.936C196.927 50.672 196.863 50.46 196.735 50.3C196.607 50.14 196.423 50.004 196.183 49.892C195.943 49.78 195.659 49.672 195.331 49.568C195.019 49.472 194.703 49.36 194.383 49.232C194.063 49.104 193.763 48.948 193.483 48.764C193.211 48.58 192.991 48.36 192.823 48.104C192.655 47.84 192.571 47.524 192.571 47.156C192.571 46.796 192.667 46.46 192.859 46.148C193.059 45.828 193.347 45.572 193.723 45.38C194.107 45.18 194.567 45.08 195.103 45.08C195.943 45.08 196.571 45.308 196.987 45.764C197.403 46.22 197.603 46.824 197.587 47.576H196.723C196.707 47.008 196.547 46.6 196.243 46.352C195.939 46.104 195.543 45.98 195.055 45.98C194.647 45.98 194.291 46.076 193.987 46.268C193.683 46.452 193.531 46.744 193.531 47.144C193.531 47.32 193.563 47.476 193.627 47.612C193.699 47.74 193.811 47.86 193.963 47.972C194.123 48.084 194.335 48.196 194.599 48.308C194.871 48.412 195.203 48.528 195.595 48.656C195.851 48.736 196.111 48.832 196.375 48.944C196.647 49.056 196.895 49.196 197.119 49.364C197.351 49.532 197.535 49.748 197.671 50.012C197.815 50.268 197.887 50.592 197.887 50.984C197.887 51.36 197.795 51.712 197.611 52.04C197.435 52.36 197.155 52.62 196.771 52.82C196.395 53.02 195.907 53.12 195.307 53.12C194.795 53.12 194.355 53.052 193.987 52.916C193.627 52.772 193.331 52.588 193.099 52.364C192.867 52.14 192.687 51.908 192.559 51.668C192.439 51.42 192.359 51.188 192.319 50.972C192.279 50.756 192.275 50.588 192.307 50.468ZM203.419 53V49.232C203.419 48.92 203.371 48.664 203.275 48.464C203.179 48.256 203.035 48.1 202.843 47.996C202.651 47.892 202.411 47.84 202.123 47.84C201.795 47.84 201.491 47.924 201.211 48.092C200.931 48.26 200.699 48.492 200.515 48.788C200.339 49.076 200.231 49.412 200.191 49.796L200.179 49.1C200.219 48.764 200.299 48.46 200.419 48.188C200.547 47.916 200.703 47.684 200.887 47.492C201.079 47.292 201.295 47.14 201.535 47.036C201.783 46.932 202.043 46.88 202.315 46.88C202.635 46.88 202.923 46.928 203.179 47.024C203.435 47.12 203.651 47.26 203.827 47.444C204.003 47.628 204.139 47.852 204.235 48.116C204.331 48.372 204.379 48.664 204.379 48.992V53H203.419ZM199.291 53V44.6H200.251V53H199.291ZM210.192 51.068H211.092C211.028 51.46 210.884 51.812 210.66 52.124C210.444 52.428 210.156 52.672 209.796 52.856C209.444 53.032 209.036 53.12 208.572 53.12C208.012 53.12 207.508 52.988 207.06 52.724C206.612 52.452 206.256 52.084 205.992 51.62C205.736 51.148 205.608 50.612 205.608 50.012C205.608 49.412 205.732 48.876 205.98 48.404C206.236 47.932 206.584 47.56 207.024 47.288C207.464 47.016 207.96 46.88 208.512 46.88C209.096 46.88 209.588 47.012 209.988 47.276C210.396 47.532 210.696 47.912 210.888 48.416C211.088 48.912 211.168 49.524 211.128 50.252H206.568C206.608 50.644 206.716 50.988 206.892 51.284C207.068 51.58 207.3 51.812 207.588 51.98C207.876 52.14 208.204 52.22 208.572 52.22C208.98 52.22 209.324 52.116 209.604 51.908C209.892 51.692 210.088 51.412 210.192 51.068ZM208.548 47.78C208.052 47.78 207.636 47.924 207.3 48.212C206.964 48.5 206.74 48.892 206.628 49.388H210.144C210.112 48.86 209.94 48.46 209.628 48.188C209.324 47.916 208.964 47.78 208.548 47.78ZM216.614 51.068H217.514C217.45 51.46 217.306 51.812 217.082 52.124C216.866 52.428 216.578 52.672 216.218 52.856C215.866 53.032 215.458 53.12 214.994 53.12C214.434 53.12 213.93 52.988 213.482 52.724C213.034 52.452 212.678 52.084 212.414 51.62C212.158 51.148 212.03 50.612 212.03 50.012C212.03 49.412 212.154 48.876 212.402 48.404C212.658 47.932 213.006 47.56 213.446 47.288C213.886 47.016 214.382 46.88 214.934 46.88C215.518 46.88 216.01 47.012 216.41 47.276C216.818 47.532 217.118 47.912 217.31 48.416C217.51 48.912 217.59 49.524 217.55 50.252H212.99C213.03 50.644 213.138 50.988 213.314 51.284C213.49 51.58 213.722 51.812 214.01 51.98C214.298 52.14 214.626 52.22 214.994 52.22C215.402 52.22 215.746 52.116 216.026 51.908C216.314 51.692 216.51 51.412 216.614 51.068ZM214.97 47.78C214.474 47.78 214.058 47.924 213.722 48.212C213.386 48.5 213.162 48.892 213.05 49.388H216.566C216.534 48.86 216.362 48.46 216.05 48.188C215.746 47.916 215.386 47.78 214.97 47.78ZM218.251 47H221.779V47.9H218.251V47ZM219.535 45.44H220.495V53H219.535V45.44ZM222.433 47.9V47H224.797V53H223.837V47.9H222.433ZM228.028 51.824V53H226.78V51.824H228.028ZM233.903 51.12C233.856 51.5333 233.723 51.89 233.503 52.19C233.289 52.4833 233.019 52.71 232.693 52.87C232.366 53.0233 232.013 53.1 231.633 53.1C231.206 53.1 230.806 52.9967 230.433 52.79C230.059 52.5833 229.756 52.2867 229.523 51.9C229.296 51.5067 229.183 51.0433 229.183 50.51C229.183 49.9767 229.296 49.5167 229.523 49.13C229.756 48.7367 230.059 48.4333 230.433 48.22C230.806 48.0067 231.206 47.9 231.633 47.9C232.013 47.9 232.363 47.98 232.683 48.14C233.009 48.3 233.279 48.5267 233.493 48.82C233.713 49.1133 233.849 49.4633 233.903 49.87H233.173C233.059 49.49 232.863 49.1933 232.583 48.98C232.303 48.76 231.986 48.65 231.633 48.65C231.346 48.65 231.076 48.7233 230.823 48.87C230.569 49.0167 230.366 49.23 230.213 49.51C230.059 49.7833 229.983 50.1167 229.983 50.51C229.983 50.8967 230.059 51.23 230.213 51.51C230.366 51.7833 230.566 51.9933 230.813 52.14C231.066 52.28 231.339 52.35 231.633 52.35C232.039 52.35 232.369 52.2433 232.623 52.03C232.883 51.81 233.069 51.5067 233.183 51.12H233.903ZM234.681 51.39H235.421C235.441 51.6767 235.548 51.91 235.741 52.09C235.941 52.27 236.228 52.36 236.601 52.36C236.828 52.36 237.005 52.33 237.131 52.27C237.265 52.21 237.361 52.13 237.421 52.03C237.481 51.9233 237.511 51.8067 237.511 51.68C237.511 51.5267 237.471 51.4067 237.391 51.32C237.318 51.2267 237.215 51.15 237.081 51.09C236.955 51.03 236.808 50.9733 236.641 50.92C236.448 50.8467 236.248 50.77 236.041 50.69C235.841 50.6033 235.651 50.5033 235.471 50.39C235.298 50.27 235.158 50.1267 235.051 49.96C234.945 49.7867 234.891 49.58 234.891 49.34C234.891 49.14 234.931 48.9533 235.011 48.78C235.091 48.6 235.205 48.4467 235.351 48.32C235.505 48.1867 235.681 48.0833 235.881 48.01C236.088 47.9367 236.315 47.9 236.561 47.9C236.895 47.9 237.175 47.9667 237.401 48.1C237.635 48.2333 237.811 48.4233 237.931 48.67C238.058 48.91 238.125 49.19 238.131 49.51H237.441C237.395 49.21 237.298 48.9933 237.151 48.86C237.011 48.72 236.808 48.65 236.541 48.65C236.268 48.65 236.058 48.71 235.911 48.83C235.765 48.95 235.691 49.11 235.691 49.31C235.691 49.4567 235.745 49.58 235.851 49.68C235.958 49.7733 236.095 49.86 236.261 49.94C236.435 50.0133 236.618 50.09 236.811 50.17C237.005 50.25 237.191 50.33 237.371 50.41C237.551 50.49 237.711 50.5833 237.851 50.69C237.991 50.7967 238.101 50.93 238.181 51.09C238.268 51.2433 238.311 51.4367 238.311 51.67C238.311 51.95 238.245 52.2 238.111 52.42C237.985 52.6333 237.795 52.8 237.541 52.92C237.295 53.04 236.991 53.1 236.631 53.1C236.305 53.1 236.025 53.06 235.791 52.98C235.565 52.8933 235.375 52.7833 235.221 52.65C235.068 52.51 234.948 52.3633 234.861 52.21C234.781 52.0567 234.728 51.9067 234.701 51.76C234.675 51.6133 234.668 51.49 234.681 51.39ZM241.168 52.31H240.928L242.458 48H243.328L241.428 53H240.678L238.788 48H239.658L241.168 52.31Z" fill="#374151"/>
<path d="M56.87 64.65H55.35V63.77H57.81V71H56.87V64.65ZM59.1326 67.39C59.1326 65.15 60.2926 63.63 62.1126 63.63C63.9226 63.63 65.0826 65.15 65.0826 67.39C65.0826 69.64 63.9726 71.13 62.1126 71.13C60.2426 71.13 59.1326 69.64 59.1326 67.39ZM60.1026 67.39C60.1026 69.17 60.8426 70.25 62.1126 70.25C63.3826 70.25 64.1126 69.17 64.1126 67.39C64.1126 65.59 63.3826 64.51 62.1126 64.51C60.8426 64.51 60.1026 65.59 60.1026 67.39ZM66.0662 67.39C66.0662 65.15 67.2262 63.63 69.0462 63.63C70.8562 63.63 72.0162 65.15 72.0162 67.39C72.0162 69.64 70.9062 71.13 69.0462 71.13C67.1762 71.13 66.0662 69.64 66.0662 67.39ZM67.0362 67.39C67.0362 69.17 67.7762 70.25 69.0462 70.25C70.3162 70.25 71.0462 69.17 71.0462 67.39C71.0462 65.59 70.3162 64.51 69.0462 64.51C67.7762 64.51 67.0362 65.59 67.0362 67.39ZM73.4796 71.12C73.0896 71.12 72.7596 70.8 72.7596 70.42C72.7596 70.03 73.0896 69.71 73.4796 69.71C73.8596 69.71 74.1896 70.03 74.1896 70.42C74.1896 70.8 73.8596 71.12 73.4796 71.12ZM74.9431 67.39C74.9431 65.15 76.1031 63.63 77.9231 63.63C79.7331 63.63 80.8931 65.15 80.8931 67.39C80.8931 69.64 79.7831 71.13 77.9231 71.13C76.0531 71.13 74.9431 69.64 74.9431 67.39ZM75.9131 67.39C75.9131 69.17 76.6531 70.25 77.9231 70.25C79.1931 70.25 79.9231 69.17 79.9231 67.39C79.9231 65.59 79.1931 64.51 77.9231 64.51C76.6531 64.51 75.9131 65.59 75.9131 67.39ZM83.0267 71H82.0867V63.64H83.0267V68.41L85.1967 66.11H86.3767L84.5067 68.06L86.3667 71H85.2867L83.8567 68.74L83.0267 69.61V71ZM87.9948 71H87.1448V63.64H88.0848V66.95C88.4048 66.31 89.0648 65.97 89.8648 65.97C91.2648 65.97 92.1048 67.07 92.1048 68.58C92.1048 70.06 91.2248 71.12 89.8048 71.12C89.0348 71.12 88.3848 70.78 88.0648 70.11L87.9948 71ZM88.0948 68.54C88.0948 69.56 88.6748 70.27 89.6348 70.27C90.5948 70.27 91.1648 69.55 91.1648 68.54C91.1648 67.54 90.5948 66.82 89.6348 66.82C88.6748 66.82 88.0948 67.54 88.0948 68.54Z" fill="#9CA3AF"/>
<path d="M283 66.1654C279.047 66.1654 275.833 62.952 275.833 58.9987C275.833 55.0454 279.047 51.832 283 51.832C286.953 51.832 290.167 55.0454 290.167 58.9987C290.167 62.952 286.953 66.1654 283 66.1654ZM283 52.832C279.6 52.832 276.833 55.5987 276.833 58.9987C276.833 62.3987 279.6 65.1654 283 65.1654C286.4 65.1654 289.167 62.3987 289.167 58.9987C289.167 55.5987 286.4 52.832 283 52.832Z" fill="#228B22"/>
<path d="M281.113 61.3849C280.987 61.3849 280.86 61.3383 280.76 61.2383C280.567 61.0449 280.567 60.7249 280.76 60.5316L284.533 56.7583C284.727 56.5649 285.047 56.5649 285.24 56.7583C285.433 56.9516 285.433 57.2716 285.24 57.4649L281.467 61.2383C281.373 61.3383 281.24 61.3849 281.113 61.3849Z" fill="#228B22"/>
<path d="M284.887 61.3849C284.76 61.3849 284.633 61.3383 284.533 61.2383L280.76 57.4649C280.567 57.2716 280.567 56.9516 280.76 56.7583C280.953 56.5649 281.273 56.5649 281.467 56.7583L285.24 60.5316C285.433 60.7249 285.433 61.0449 285.24 61.2383C285.14 61.3383 285.013 61.3849 284.887 61.3849Z" fill="#228B22"/>
<rect x="35.5" y="31.5" width="275" height="55" rx="3.5" stroke="#F2F2F2" shape-rendering="crispEdges"/>
</g>
<defs>
<filter id="filter0_d_7450_73610" x="0" y="0" width="346" height="126" filterUnits="userSpaceOnUse" color-interpolation-filters="sRGB">
<feFlood flood-opacity="0" result="BackgroundImageFix"/>
<feColorMatrix in="SourceAlpha" type="matrix" values="0 0 0 0 0 0 0 0 0 0 0 0 0 0 0 0 0 0 127 0" result="hardAlpha"/>
<feOffset dy="4"/>
<feGaussianBlur stdDeviation="17.5"/>
<feComposite in2="hardAlpha" operator="out"/>
<feColorMatrix type="matrix" values="0 0 0 0 0.483333 0 0 0 0 0.469236 0 0 0 0 0.469236 0 0 0 0.08 0"/>
<feBlend mode="normal" in2="BackgroundImageFix" result="effect1_dropShadow_7450_73610"/>
<feBlend mode="normal" in="SourceGraphic" in2="effect1_dropShadow_7450_73610" result="shape"/>
</filter>
</defs>
</svg>
