<svg width="115" height="17" viewBox="0 0 115 17" fill="none" xmlns="http://www.w3.org/2000/svg">
<path d="M8.5 0L10.4084 5.87336L16.584 5.87336L11.5878 9.50329L13.4962 15.3766L8.5 11.7467L3.50383 15.3766L5.41219 9.50329L0.416019 5.87336L6.59163 5.87336L8.5 0Z" fill="#FBBF24"/>
<path d="M32.9375 0L34.8459 5.87336L41.0215 5.87336L36.0253 9.50329L37.9337 15.3766L32.9375 11.7467L27.9413 15.3766L29.8497 9.50329L24.8535 5.87336L31.0291 5.87336L32.9375 0Z" fill="#FBBF24"/>
<path d="M57.375 0L59.2834 5.87336L65.459 5.87336L60.4628 9.50329L62.3712 15.3766L57.375 11.7467L52.3788 15.3766L54.2872 9.50329L49.291 5.87336L55.4666 5.87336L57.375 0Z" fill="#FBBF24"/>
<path d="M81.8125 0L83.7209 5.87336L89.8965 5.87336L84.9003 9.50329L86.8087 15.3766L81.8125 11.7467L76.8163 15.3766L78.7247 9.50329L73.7285 5.87336L79.9041 5.87336L81.8125 0Z" fill="#FBBF24"/>
<path d="M106.25 0L108.158 5.87336L114.334 5.87336L109.338 9.50329L111.246 15.3766L106.25 11.7467L101.254 15.3766L103.162 9.50329L98.166 5.87336L104.342 5.87336L106.25 0Z" fill="#E5E7EB"/>
</svg>
